<svg id="Layer_1" xmlns="http://www.w3.org/2000/svg" viewBox="0 0 773.6 253.7"><style>.st0{fill:#FFF}.st1{fill:#a30000}.st2{fill:#C00}</style><path class="st0" d="M253.5 118.1l-6.1-12.3h-6.9v12.3h-6.7V83.8h15.8c1.6 0 3.1.2 4.5.7 1.4.4 2.7 1.1 3.7 2 1.1.9 1.9 2 2.5 3.4.6 1.4.9 2.9.9 4.8 0 2.6-.5 4.7-1.6 6.3-1.1 1.6-2.7 2.9-4.9 3.7l6.5 13.3h-7.7zm-.5-26.6c-.9-.7-2.1-1-3.6-1h-8.9v8.8h8.9c3.3 0 4.9-1.5 4.9-4.4 0-1.6-.4-2.7-1.3-3.4zM269.9 118.1V83.8h23.5v6.7h-16.8v5.9h9.8v6.7h-9.8v8.3h17.5v6.7h-24.2zM328.9 108.7c-1 2.2-2.3 3.9-3.9 5.3s-3.5 2.4-5.6 3.1-4.2 1-6.4 1h-10.1V83.8h10.6c2.4 0 4.7.3 6.7.9 2.1.6 3.8 1.6 5.3 3s2.7 3.1 3.5 5.3c.9 2.2 1.3 4.8 1.3 7.9.1 3-.4 5.6-1.4 7.8zM321 93.1c-1.6-1.7-4.2-2.6-7.8-2.6h-3.6v20.8h3.4c1.8 0 3.3-.3 4.6-.8 1.3-.5 2.4-1.2 3.2-2.1.8-.9 1.5-2 1.9-3.3.4-1.3.6-2.7.6-4.3.1-3.3-.7-5.9-2.3-7.7zM374.9 118.1v-14.4h-14v14.4h-6.7V83.8h6.7V97h14V83.8h6.7V118h-6.7zM414.5 118.1l-2.7-7.6h-12.4l-2.7 7.6h-7.3l13-34.2h6.6l12.9 34.2h-7.4zm-7.2-20.4c-.4-1-.7-2-1-2.9-.3-.9-.5-1.7-.7-2.4-.2.7-.4 1.4-.7 2.4-.3.9-.6 1.9-1 2.9l-2.2 6.2h7.8l-2.2-6.2zM439.5 90.5V118h-6.7V90.5H423v-6.7h26.3v6.7h-9.8zM249.2 187.5h-15.4v-51.9h16.1c14.7 0 25.6 7 25.6 26 0 18.2-13.1 25.9-26.3 25.9zm.3-41.8H244v31.8h5.1c10.8 0 15.8-6.4 15.8-15.9 0-10.6-4.5-15.9-15.4-15.9zM285.8 187.5v-51.9h35.8v10.2h-25.5v9h14.8v10.1h-14.8v12.5h26.6v10.2h-36.9zM357.6 187.5h-10l-18.3-51.9h11.4l9.7 30c1 2.9 2 6.7 2.4 8.5.4-1.9 1.4-5.5 2.4-8.5l9.5-30H376l-18.4 51.9zM385.5 187.5v-51.9h35.8v10.2h-25.5v9h14.8v10.1h-14.8v12.5h26.6v10.2h-36.9zM433.3 187.5v-51.9h10.3v41.7h25.9v10.2h-36.2zM496.6 188.4c-14.1 0-22.4-11-22.4-26.8s8.3-26.8 22.4-26.8c14.1 0 22.4 11 22.4 26.8s-8.3 26.8-22.4 26.8zm0-43.3c-8.3 0-11.8 7.2-11.8 16.5s3.5 16.5 11.8 16.5 11.8-7.2 11.8-16.5-3.4-16.5-11.8-16.5zM551.2 169.1h-11.3v18.4h-10.3v-51.9h22.5c9.7 0 17.7 5.4 17.7 16.5 0 12-7.9 17-18.6 17zm.5-23.4h-11.9v13.4h12c4.8 0 7.4-2.2 7.4-6.7 0-4.6-2.9-6.7-7.5-6.7zM579.6 187.5v-51.9h35.8v10.2h-25.5v9h14.8v10.1h-14.8v12.5h26.6v10.2h-36.9zM657.3 187.5l-9.2-18.7h-10.4v18.7h-10.3v-51.9h24c9.7 0 17.7 5.4 17.7 16.5 0 7.8-3.3 12.7-9.9 15.3l9.9 20.2h-11.8zm-6.1-41.8h-13.5v13.4h13.5c4.8 0 7.4-2.2 7.4-6.7 0-4.8-2.8-6.7-7.4-6.7zM697.5 188.4c-8.6 0-16.1-3.6-20-9.4l7.4-6.7c3.6 4.2 8.2 5.9 13.2 5.9 6.1 0 9-1.7 9-5.6 0-3.3-1.8-4.8-11.5-7-9.5-2.2-16.1-5.3-16.1-15.5 0-9.4 8.2-15.2 18.4-15.2 8 0 13.9 3 18.8 8.2l-7.4 7.3c-3.3-3.4-7-5.3-11.7-5.3-5.5 0-7.4 2.4-7.4 4.7 0 3.3 2.2 4.3 10.4 6.2 8.2 1.9 17.2 4.7 17.2 16 0 9.7-6.2 16.4-20.3 16.4z"/><path class="st1" d="M171.3 98.1l-16 15.9 13.3 13.3h31.9zM126.3 169.6L113 156.4l-16 15.9 29.3 29.2v-31.9z"/><path class="st2" d="M168.6 127.3l-42.3 42.3v31.9l74.2-74.2z"/><path class="st1" d="M81.3 156.5l15.9-15.9L84 127.3H52zM126.3 85l13.2 13.3 16-16-29.2-29.2V85z"/><path class="st2" d="M84 127.3L126.3 85V53.1L52 127.3z"/></svg>