<svg id="Layer_1" xmlns="http://www.w3.org/2000/svg" viewBox="0 0 27.4 15.9"><style>.st0{fill:#FFF}.st1{fill:none}</style><title>home_join_icons_coins</title><path class="st0" d="M12.4 13.4c1.4-.1 2.7-.3 4-.6.3-.1.7-.2 1-.3"/><path class="st0" d="M12.4 13.6c-.1 0-.2-.1-.2-.2s.1-.2.2-.2c1.3-.1 2.6-.3 3.9-.6.3-.1.7-.2 1-.3.1 0 .2 0 .3.1.1.1 0 .2-.1.3-.3.1-.7.2-1 .3-1.3.4-2.7.6-4.1.6zM3.2 12.4l.2.1c.3.1.7.2 1 .3 2 .5 4 .7 6 .6"/><path class="st0" d="M10.4 13.7c-2 0-4-.2-6-.6-.3-.1-.7-.2-1-.3l-.2-.1c-.1-.1-.2-.2-.1-.3s.2-.2.3-.1l.2.1c.3.1.7.2 1 .3 1.9.4 3.9.6 5.9.6.1 0 .2.2.2.3-.1 0-.2.1-.3.1z"/><path class="st0" d="M16.4 10.3c-.7-.2-1.5-.3-2.2-.4-.8.2-1.5.3-2.3.4 4.2.2 6.4 1 6.4 1.5v2c-.2.3-.5.5-.8.6-.3.1-.7.2-1 .3-2 .5-4 .7-6 .6-2 0-4-.2-6-.6-.3-.1-.7-.2-1-.3-.4 0-.7-.3-.8-.6v-1.9c0-.4 1.5-1.1 4.4-1.4-.8 0-1.5-.1-2.3-.2h-.4C2 10.9 2 11.6 2 11.9v1.9c.1.6.6 1 1.2 1.1.4.1.7.3 1.1.4 2 .5 4 .7 6.1.6 2 0 4.1-.2 6.1-.6.4-.1.8-.2 1.1-.4.6-.1 1-.6 1.2-1.1v-1.9c0-.3 0-1-2.4-1.6zM10.4 8.5c1.4-.1 2.7-.3 4-.6.3-.1.7-.2 1-.3"/><path class="st0" d="M10.4 8.8c-.1 0-.2-.1-.2-.2s.1-.2.2-.2c1.3-.1 2.6-.3 3.9-.6.3-.1.7-.2 1-.3.1 0 .2 0 .3.1 0 .1 0 .2-.1.3-.3.1-.7.2-1 .3-1.4.3-2.7.5-4.1.6zM1.2 7.6l.2.1c.3.1.7.2 1 .3 2 .5 4 .7 6 .6"/><path class="st0" d="M8.3 8.8c-2 0-4-.2-6-.6-.3-.1-.7-.2-1-.3l-.2-.1c-.1 0-.2-.1-.1-.2v-.1c0-.1.1-.2.2-.1h.1l.2.1c.3.1.7.2 1 .3 1.9.4 3.9.6 5.9.6.1 0 .2.1.2.2s-.2.2-.3.2z"/><path class="st0" d="M14.3 5.5h-.2c-.7.1-1.5.1-2.4.2 2.9.3 4.4 1 4.4 1.4v1.8c-.2.3-.5.5-.8.6-.3.1-.7.2-1 .3-2 .5-4 .7-6 .6-2 0-4-.2-6-.6-.3-.1-.7-.2-1-.3-.4 0-.7-.3-.8-.6V7c0-.5 2.2-1.4 6.4-1.6-.8-.1-1.5-.2-2.3-.4-.7.1-1.5.2-2.2.4C0 6 0 6.7 0 6.9v2c.1.6.6 1 1.2 1.1.4.1.7.3 1.1.4 2 .5 4 .7 6.1.6 2 0 4.1-.2 6.1-.6.4-.1.8-.2 1.1-.4.6-.1 1-.6 1.2-1.1V7c-.1-.2-.1-1-2.5-1.5zM3.2 2.7l.2.1c.3.1.7.2 1 .3 2 .5 4 .7 6 .6"/><path class="st0" d="M10.4 3.9c-2 0-4-.2-6-.6-.3-.1-.7-.2-1-.3h-.2c-.1-.1-.2-.2-.1-.3.1-.1.2-.2.3-.1l.2.1c.3.1.7.2 1 .3 1.9.4 3.9.6 5.9.6.1 0 .2.1.1.2v.1c-.1-.1-.1-.1-.2 0zM17.9 1c2.1 1.3 3.8 3.1 5.2 5.1 3.1 4.1 4 6.8 3.5 7.2l-1.5 1.2c-.3.1-.6 0-.8-.1l-.2-.1-.9-.6c-1.6-1.2-3-2.7-4.1-4.4-1.3-1.6-2.3-3.3-3.2-5.1-.1-.3-.3-.7-.4-1-.2-.3-.2-.7 0-1L17.1.9c.3-.1.6 0 .8.1m.2-.3c-.3-.3-.8-.3-1.2-.2l-1.5 1.2c-.3.4-.4 1-.1 1.5.1.4.2.8.4 1.1.8 1.9 1.9 3.6 3.2 5.2 1.2 1.7 2.6 3.2 4.2 4.5l.9.6.2.1c.3.3.8.3 1.2.1l1.5-1.2c.7-.5-.1-2.1-.3-2.7-.8-1.8-1.9-3.5-3.1-5.1-2.3-3-4.3-4.6-5.4-5.1z"/><path class="st0" d="M16.4 5c-2 .5-4 .7-6.1.6-2 0-4-.2-6-.6-.3-.1-.7-.2-1-.3-.4 0-.7-.3-.8-.6v-2c0-.6 2.7-1.6 7.8-1.6 2.1-.1 4.2.2 6.3.7l.5-.4c-.2-.1-.5-.2-.8-.2-4-.8-8-.8-12 0C2 1.2 2 1.9 2 2.1V4c.1.6.6 1 1.2 1.1.4.1.7.3 1.1.4 2 .5 4 .7 6.1.6 2 0 4.1-.2 6.1-.6l.2-.1-.3-.4z"/><path class="st0" d="M17.9 1c2.1 1.3 3.8 3.1 5.2 5.1 3.1 4.1 4 6.8 3.5 7.2l-1.5 1.2c-.3.1-.6 0-.8-.1l-.2-.1-.9-.6c-1.6-1.2-3-2.7-4.1-4.4-1.3-1.6-2.3-3.3-3.2-5.1-.1-.3-.3-.7-.4-1-.2-.3-.2-.7 0-1L17.1.9c.3-.1.6 0 .8.1m.3-.5c-.4-.3-.9-.3-1.4-.1l-1.5 1.1c-.4.5-.4 1.1-.2 1.6.1.4.2.8.4 1.1.9 1.9 1.9 3.6 3.2 5.2 1.2 1.7 2.6 3.2 4.2 4.5.3.3.6.5 1 .6l.2.1c.4.3.9.3 1.4.1l1.5-1.2c.2-.1.8-.6-.2-2.9-.8-1.8-1.9-3.5-3.2-5.1-2.9-3.6-4.9-4.8-5.4-5z"/><path class="st0" d="M21.9 9.6c.9 1 1.8 2 2.9 2.8l.9.6"/><path class="st0" d="M25.6 13.2l-.9-.6c-1.1-.8-2-1.8-2.9-2.8-.1-.1-.1-.2 0-.3s.2-.1.3 0c.9 1 1.8 1.9 2.8 2.8l.9.6c.1.1.1.2 0 .3h-.2zM17.1 1.7v.2c.1.3.2.7.4 1 .8 1.8 1.9 3.5 3.2 5.1"/><path class="st0" d="M20.6 8.2c-1.3-1.6-2.4-3.4-3.3-5.2-.2-.3-.3-.7-.4-1.1v-.2c0-.1.1-.3.2-.3s.3.1.3.2v.2c.1.3.2.7.4 1 .8 1.8 1.9 3.5 3.2 5.1.1.1 0 .2-.1.3h-.3z"/><path class="st1" d="M24.9 12.6l-1.5 1.1"/><path class="st0" d="M23.4 13.9c-.1-.1-.1-.2 0-.2l1.5-1.1c.1-.1.2-.1.2 0s.1.2 0 .2l-1.6 1.1h-.1z"/><path class="st1" d="M22.6 10.4l-1.5 1.2"/><path class="st0" d="M21 11.8l-.1-.1c-.1-.1-.1-.2 0-.3l1.5-1.1c.1-.1.2-.1.3 0s.1.2 0 .3l-1.5 1.1c0 .1-.1.1-.2.1zM23.3 13.9c-.2-.1-.2-.2-.1-.3l1.5-1.1c.1-.1.2-.1.3 0s.1.2 0 .3l-1.5 1.1h-.2z"/><path class="st1" d="M20.6 8l-1.5 1.2"/><path class="st0" d="M19 9.4c-.2-.2-.2-.3-.1-.4l1.6-1.1c.1-.1.2-.1.3 0 .1.1.1.2 0 .3l-1.5 1.1c-.1.1-.2.1-.3.1z"/><path class="st1" d="M18.8 5.5l-1.6 1.2"/><path class="st0" d="M17.1 6.8c-.1 0-.2-.2-.1-.3v-.1l1.5-1.2c.1-.1.2-.1.3 0 .1.1.1.2 0 .3l-1.5 1.2c0 .2-.1.2-.2.1z"/><path class="st1" d="M17.3 2.7l-1.5 1.1"/><path class="st0" d="M15.7 4c-.2-.2-.2-.3-.1-.4l1.5-1.1c.1-.1.2-.1.3 0 .1.1.1.2 0 .3l-1.5 1.1c0 .1-.1.1-.2.1z"/></svg>