<svg id="Layer_1" data-name="Layer 1" xmlns="http://www.w3.org/2000/svg" viewBox="0 0 321.2 104.05"><defs><style>.cls-1{fill:#a30000;}.cls-2{fill:#ec7a08;}.cls-3{fill:#0088ce;}.cls-4{fill:#3f9c35;}.cls-5{fill:#c00;}.cls-6{fill:#f0ab00;}.cls-7{fill:#00b9e4;}.cls-8{fill:#92d400;}</style></defs><title>NewRHDLogo</title><path d="M264.91,39.48c0,5.38,3.24,8,9.14,8a24.14,24.14,0,0,0,5.38-.76V40.48A11.26,11.26,0,0,1,276,41c-2.42,0-3.33-.76-3.33-3V28.39h7.05V22h-7.05V13.83l-7.71,1.66V22h-5.09v6.42h5.09Zm-24,.14c0-1.66,1.67-2.47,4.19-2.47a19.56,19.56,0,0,1,4.57.57V41a9.75,9.75,0,0,1-4.81,1.19c-2.47,0-4-1-4-2.53m2.35,8a11.76,11.76,0,0,0,6.95-2v1.52h7.62V31c0-6.14-4.14-9.52-11-9.52a28,28,0,0,0-11.76,2.76l2.76,5.66a20.7,20.7,0,0,1,7.62-2c3.18,0,4.8,1.23,4.8,3.76v1.23a22.61,22.61,0,0,0-5.71-.71c-6.47,0-10.37,2.71-10.37,7.57,0,4.42,3.52,7.8,9.13,7.8m-41.83-.43h8.18v-13h13.71v13h8.19V13.83h-8.19v12.8H209.65V13.83h-8.18Zm-31.2-12.61a6.38,6.38,0,0,1,6.62-6.38,7.84,7.84,0,0,1,5.33,2v8.81a7.42,7.42,0,0,1-5.33,2,6.41,6.41,0,0,1-6.62-6.38m12,12.61h7.62v-35l-7.71,1.67V23.3a13,13,0,1,0-6.66,24.18,11.32,11.32,0,0,0,6.75-2.19ZM147.38,27.82a5.56,5.56,0,0,1,5.28,4H142.14a5.26,5.26,0,0,1,5.24-4m-13,6.76c0,7.33,6,13,13.7,13a15.09,15.09,0,0,0,10.52-3.81l-5.09-4.52a6.81,6.81,0,0,1-5.05,1.9,6.51,6.51,0,0,1-6.18-4h17.94V35.29c0-8-5.38-13.75-12.71-13.75a12.93,12.93,0,0,0-13.13,13M121.11,20.82c2.71,0,4.23,1.72,4.23,3.76s-1.52,3.76-4.23,3.76H113V20.82ZM104.83,47.14H113V35h6.23l6.28,12.13h9.14l-7.33-13.32a10.1,10.1,0,0,0,6.29-9.38c0-6-4.72-10.61-11.76-10.61h-17Z"/><rect class="cls-1" x="9.84" width="9.84" height="9.84"/><rect class="cls-2" x="19.67" y="17.11" width="19.67" height="9.84"/><rect class="cls-3" x="9.84" y="51.32" width="19.67" height="9.84"/><rect class="cls-4" y="34.22" width="9.84" height="9.84"/><rect class="cls-1" x="26.97" width="19.67" height="9.84"/><rect class="cls-2" x="46.64" y="17.11" width="9.84" height="9.84"/><rect class="cls-3" x="36.8" y="51.32" width="9.84" height="9.84"/><rect class="cls-4" x="17.13" y="34.22" width="19.67" height="9.84"/><rect class="cls-5" x="46.64" width="29.51" height="9.84"/><rect class="cls-6" x="56.48" y="17.11" width="29.51" height="9.84"/><rect class="cls-7" x="46.64" y="51.32" width="19.67" height="9.84"/><rect class="cls-8" x="36.8" y="34.22" width="39.35" height="9.84"/><path d="M104.35,95.25V63.36H115.6a18,18,0,0,1,6.67,1.21,16.3,16.3,0,0,1,5.33,3.32A15.23,15.23,0,0,1,131.14,73a16,16,0,0,1,1.27,6.38,15.46,15.46,0,0,1-4.78,11.37A16.19,16.19,0,0,1,122.3,94a18.21,18.21,0,0,1-6.7,1.21Zm11.34-27.61h-6.56V91h6.56a12.3,12.3,0,0,0,4.65-.89,11.15,11.15,0,0,0,3.76-2.46,11.92,11.92,0,0,0,2.48-3.69,11.42,11.42,0,0,0,.91-4.58A11.83,11.83,0,0,0,124.1,71a11.15,11.15,0,0,0-3.76-2.46A12.3,12.3,0,0,0,115.69,67.64Z"/><path d="M157.6,92.61a14,14,0,0,1-9,3,12.35,12.35,0,0,1-4.79-.93A12.65,12.65,0,0,1,140,92.2a11.49,11.49,0,0,1-2.57-3.81,12.47,12.47,0,0,1,0-9.45,11.66,11.66,0,0,1,2.46-3.78,11.43,11.43,0,0,1,3.69-2.53,11.26,11.26,0,0,1,4.55-.93,10.82,10.82,0,0,1,8,3.48A12.11,12.11,0,0,1,158.42,79a13,13,0,0,1,.87,4.78v1.33H141a7.83,7.83,0,0,0,7.83,6.65,9.49,9.49,0,0,0,3.23-.55,7.86,7.86,0,0,0,2.65-1.5ZM148,75.52a6.56,6.56,0,0,0-4.53,1.74A7.62,7.62,0,0,0,141,81.72h13.76a8,8,0,0,0-2.39-4.42A6.25,6.25,0,0,0,148,75.52Z"/><path d="M170.72,95.25l-10-23.19h5L173,89.42l7.24-17.36h4.87l-10,23.19Z"/><path d="M207.62,92.61a14,14,0,0,1-9,3,12.35,12.35,0,0,1-4.79-.93A12.65,12.65,0,0,1,190,92.2a11.49,11.49,0,0,1-2.57-3.81,12.47,12.47,0,0,1,0-9.45,11.66,11.66,0,0,1,2.46-3.78,11.43,11.43,0,0,1,3.69-2.53,11.26,11.26,0,0,1,4.55-.93,10.71,10.71,0,0,1,4.44.93,10.89,10.89,0,0,1,3.56,2.55A12.11,12.11,0,0,1,208.44,79a13,13,0,0,1,.87,4.78v1.33H191a7.85,7.85,0,0,0,7.84,6.65,9.49,9.49,0,0,0,3.23-.55,7.86,7.86,0,0,0,2.65-1.5ZM198,75.52a6.56,6.56,0,0,0-4.53,1.74A7.62,7.62,0,0,0,191,81.72H204.8a8,8,0,0,0-2.39-4.42A6.25,6.25,0,0,0,198,75.52Z"/><path d="M218.74,62.36V95.25h-4.56V63.36Z"/><path d="M223.61,83.63a11.83,11.83,0,0,1,.94-4.71,11.68,11.68,0,0,1,2.57-3.83,12.32,12.32,0,0,1,13.28-2.55,11.93,11.93,0,0,1,7.31,11.09,12.13,12.13,0,0,1-.93,4.76A12.15,12.15,0,0,1,231,94.77a12.09,12.09,0,0,1-3.85-2.55,11.68,11.68,0,0,1-2.57-3.83A12,12,0,0,1,223.61,83.63Zm12.07,8.07A7.12,7.12,0,0,0,241,89.35a8.47,8.47,0,0,0,0-11.41,7.34,7.34,0,0,0-10.73,0,7.9,7.9,0,0,0-2.23,5.69,8,8,0,0,0,2.21,5.72A7.14,7.14,0,0,0,235.68,91.7Z"/><path d="M252.59,104.68V72.06h4.51v2.23a9.71,9.71,0,0,1,3.23-1.93,11.28,11.28,0,0,1,3.87-.66,11.39,11.39,0,0,1,4.6.93,11.55,11.55,0,0,1,6.2,6.31,12,12,0,0,1,.91,4.69,12.21,12.21,0,0,1-.91,4.72,11.85,11.85,0,0,1-2.48,3.8,11.48,11.48,0,0,1-3.76,2.53,12,12,0,0,1-8.36.34,11.32,11.32,0,0,1-3.26-1.68v11.34Zm11-29a9,9,0,0,0-3.64.73,7.74,7.74,0,0,0-2.83,2V88.92a7.41,7.41,0,0,0,2.8,2,9.18,9.18,0,0,0,3.67.73,7.53,7.53,0,0,0,5.58-2.28,8.3,8.3,0,0,0,0-11.41A7.54,7.54,0,0,0,263.61,75.66Z"/><path d="M301,92.61a14,14,0,0,1-9,3,12.35,12.35,0,0,1-8.65-3.46,11.37,11.37,0,0,1-2.58-3.81,12.59,12.59,0,0,1,0-9.45,12,12,0,0,1,2.46-3.78,11.43,11.43,0,0,1,3.69-2.53,11.3,11.3,0,0,1,4.56-.93,10.77,10.77,0,0,1,8,3.48A12.13,12.13,0,0,1,301.79,79a13.25,13.25,0,0,1,.86,4.78v1.33H284.34a7.83,7.83,0,0,0,7.83,6.65,9.51,9.51,0,0,0,3.24-.55,7.91,7.91,0,0,0,2.64-1.5Zm-9.62-17.09a6.56,6.56,0,0,0-4.53,1.74,7.67,7.67,0,0,0-2.44,4.46h13.76a7.9,7.9,0,0,0-2.39-4.42A6.25,6.25,0,0,0,291.35,75.52Z"/><path d="M307.53,95.25V72.06h4.55v3a7.19,7.19,0,0,1,2.69-2.57,7.63,7.63,0,0,1,3.69-.89,7.88,7.88,0,0,1,1.27.09,5.06,5.06,0,0,1,1,.28V76a9.13,9.13,0,0,0-1.32-.36,7,7,0,0,0-1.37-.14,6.23,6.23,0,0,0-3.57,1.07,6.91,6.91,0,0,0-2.44,3.17V95.25Z"/></svg>