<?xml version="1.0" encoding="utf-8"?>
<!-- Generator: Adobe Illustrator 16.0.4, SVG Export Plug-In . SVG Version: 6.00 Build 0)  -->
<!DOCTYPE svg PUBLIC "-//W3C//DTD SVG 1.1//EN" "http://www.w3.org/Graphics/SVG/1.1/DTD/svg11.dtd">
<svg version="1.1" id="Layer_1" xmlns="http://www.w3.org/2000/svg" xmlns:xlink="http://www.w3.org/1999/xlink" x="0px" y="0px"
	 width="155px" height="56px" viewBox="0 0 155 56" enable-background="new 0 0 155 56" xml:space="preserve">
<rect fill="#CC0000" width="155" height="56"/>
<path fill="#FFFFFF" d="M19.244,23.049l-1.617-3.258h-1.828v3.258h-1.797v-9.048h4.213c0.422,0,0.823,0.06,1.203,0.175
	c0.378,0.115,0.711,0.295,0.995,0.536c0.284,0.242,0.509,0.541,0.671,0.898c0.165,0.358,0.247,0.777,0.247,1.261
	c0,0.681-0.145,1.238-0.434,1.675c-0.288,0.434-0.722,0.764-1.299,0.987l1.732,3.516H19.244z M19.126,16.035
	c-0.23-0.174-0.547-0.264-0.954-0.264h-2.373v2.315h2.373c0.866,0,1.298-0.391,1.298-1.17C19.47,16.504,19.354,16.212,19.126,16.035
	z"/>
<path fill="#FFFFFF" d="M23.617,23.049v-9.048h6.269v1.771h-4.472v1.553h2.599v1.77h-2.599v2.185h4.666v1.771H23.617z"/>
<path fill="#FFFFFF" d="M39.342,20.573c-0.265,0.573-0.614,1.043-1.049,1.41c-0.435,0.365-0.93,0.635-1.485,0.807
	c-0.557,0.172-1.121,0.259-1.698,0.259h-2.702v-9.048h2.829c0.647,0,1.243,0.081,1.79,0.239c0.547,0.16,1.021,0.42,1.422,0.782
	c0.401,0.363,0.716,0.829,0.945,1.402c0.228,0.574,0.342,1.272,0.342,2.1C39.735,19.317,39.603,20.001,39.342,20.573z
	 M37.239,16.461c-0.426-0.459-1.117-0.689-2.075-0.689h-0.961v5.507h0.896c0.476,0,0.889-0.066,1.238-0.2
	c0.349-0.131,0.638-0.319,0.862-0.56c0.226-0.239,0.394-0.53,0.506-0.867c0.112-0.339,0.169-0.714,0.169-1.127
	C37.874,17.606,37.663,16.92,37.239,16.461z"/>
<path fill="#FFFFFF" d="M51.587,23.049v-3.8h-3.722v3.8h-1.796v-9.048h1.796v3.478h3.722v-3.478h1.796v9.048H51.587z"/>
<path fill="#FFFFFF" d="M62.134,23.049l-0.711-2.017h-3.309l-0.711,2.017h-1.939l3.465-9.048h1.759l3.437,9.048H62.134z
	 M60.221,17.672c-0.096-0.266-0.184-0.525-0.264-0.774c-0.082-0.251-0.146-0.461-0.188-0.634c-0.044,0.173-0.105,0.383-0.188,0.634
	c-0.082,0.249-0.17,0.509-0.266,0.774l-0.582,1.643h2.069L60.221,17.672z"/>
<path fill="#FFFFFF" d="M68.776,15.771v7.277H66.98v-7.277h-2.598v-1.771h6.991v1.771H68.776z"/>
<g>
	<path fill="#FFFFFF" d="M18.067,41.412H13.97V27.687h4.293c3.922,0,6.823,1.844,6.823,6.863
		C25.086,39.373,21.597,41.412,18.067,41.412z M18.166,30.354h-1.452v8.393h1.354c2.882,0,4.196-1.687,4.196-4.196
		C22.264,31.745,21.067,30.354,18.166,30.354z"/>
	<path fill="#FFFFFF" d="M27.828,41.412V27.687h9.529v2.687h-6.785v2.372h3.942v2.667h-3.942v3.313h7.08v2.687H27.828z"/>
	<path fill="#FFFFFF" d="M46.941,41.412h-2.667l-4.883-13.726h3.04l2.588,7.941c0.255,0.765,0.53,1.765,0.646,2.255
		c0.119-0.511,0.373-1.451,0.628-2.255l2.529-7.941h3.001L46.941,41.412z"/>
	<path fill="#FFFFFF" d="M54.369,41.412V27.687h9.528v2.687h-6.785v2.372h3.943v2.667h-3.943v3.313h7.08v2.687H54.369z"/>
	<path fill="#FFFFFF" d="M67.111,41.412V27.687h2.743v11.02h6.885v2.706H67.111z"/>
	<path fill="#FFFFFF" d="M83.969,41.628c-3.746,0-5.961-2.902-5.961-7.078c0-4.177,2.215-7.078,5.961-7.078
		c3.745,0,5.96,2.901,5.96,7.078C89.929,38.726,87.714,41.628,83.969,41.628z M83.969,30.197c-2.217,0-3.137,1.901-3.137,4.353
		c0,2.45,0.92,4.353,3.137,4.353c2.216,0,3.138-1.902,3.138-4.353C87.106,32.099,86.185,30.197,83.969,30.197z"/>
	<path fill="#FFFFFF" d="M98.493,36.549h-3.021v4.863h-2.743V27.687h5.999c2.588,0,4.726,1.432,4.726,4.354
		C103.454,35.217,101.336,36.549,98.493,36.549z M98.63,30.354h-3.157v3.529h3.197c1.274,0,1.961-0.588,1.961-1.784
		C100.631,30.901,99.847,30.354,98.63,30.354z"/>
	<path fill="#FFFFFF" d="M106.058,41.412V27.687h9.529v2.687h-6.785v2.372h3.942v2.667h-3.942v3.313h7.08v2.687H106.058z"/>
	<path fill="#FFFFFF" d="M126.761,41.412l-2.452-4.94h-2.765v4.94H118.8V27.687h6.392c2.589,0,4.726,1.432,4.726,4.354
		c0,2.059-0.882,3.353-2.627,4.039l2.627,5.333H126.761z M125.133,30.354h-3.589v3.529h3.589c1.274,0,1.961-0.588,1.961-1.784
		C127.094,30.862,126.348,30.354,125.133,30.354z"/>
	<path fill="#FFFFFF" d="M137.461,41.628c-2.294,0-4.293-0.96-5.332-2.49l1.979-1.766c0.962,1.118,2.197,1.569,3.51,1.569
		c1.628,0,2.393-0.451,2.393-1.49c0-0.883-0.471-1.274-3.059-1.862c-2.529-0.588-4.295-1.394-4.295-4.1
		c0-2.489,2.197-4.018,4.903-4.018c2.138,0,3.705,0.804,5,2.155l-1.981,1.922c-0.881-0.902-1.862-1.411-3.118-1.411
		c-1.47,0-1.959,0.627-1.959,1.235c0,0.862,0.588,1.138,2.763,1.646c2.178,0.511,4.589,1.255,4.589,4.236
		C142.854,39.862,141.206,41.628,137.461,41.628z"/>
</g>
</svg>
