<svg xmlns="http://www.w3.org/2000/svg" width="155" height="56" viewBox="0 0 155 56"><path fill="#C00" d="M0 0h155v56H0z"/><path fill="#FFF" d="M19.244 23.05l-1.617-3.26H15.8v3.26H14V14h4.213c.422 0 .823.06 1.203.176.378.115.71.295.995.536.284.242.51.54.67.898.166.358.248.777.248 1.26 0 .682-.144 1.24-.433 1.676-.288.434-.722.764-1.3.987l1.733 3.516h-2.086zm-.118-7.015c-.23-.174-.547-.264-.954-.264H15.8v2.316h2.372c.866 0 1.298-.39 1.298-1.17 0-.412-.116-.704-.344-.88zM23.617 23.05V14h6.27v1.772h-4.473v1.553h2.6v1.77h-2.6v2.185h4.666v1.77h-6.463zM39.342 20.573a4.015 4.015 0 0 1-1.05 1.41 4.24 4.24 0 0 1-1.484.807c-.557.172-1.12.26-1.698.26h-2.702V14h2.83c.646 0 1.242.082 1.79.24.546.16 1.02.42 1.42.782.402.363.717.83.946 1.402.228.574.342 1.272.342 2.1 0 .793-.133 1.477-.394 2.05zM37.24 16.46c-.427-.458-1.118-.688-2.076-.688h-.96v5.507h.895c.475 0 .888-.067 1.237-.2.35-.132.638-.32.862-.56a2.3 2.3 0 0 0 .505-.868c.112-.34.17-.714.17-1.127 0-.92-.212-1.605-.636-2.064zM51.587 23.05v-3.8h-3.722v3.8H46.07V14h1.795v3.48h3.722V14h1.796v9.05h-1.796zM62.134 23.05l-.71-2.018h-3.31l-.71 2.017h-1.94L58.93 14h1.758l3.437 9.05h-1.99zM60.22 17.67a23.08 23.08 0 0 1-.263-.774 8.93 8.93 0 0 1-.188-.634 9.492 9.492 0 0 1-.19.634c-.08.25-.17.51-.265.774l-.582 1.643h2.07l-.582-1.643zM68.776 15.77v7.278H66.98V15.77h-2.598V14h6.99v1.77h-2.596z"/><g fill="#FFF"><path d="M18.067 41.412H13.97V27.687h4.293c3.922 0 6.823 1.844 6.823 6.863 0 4.823-3.49 6.862-7.02 6.862zm.1-11.058h-1.453v8.393h1.354c2.882 0 4.196-1.687 4.196-4.196 0-2.805-1.197-4.196-4.098-4.196zM27.828 41.412V27.687h9.53v2.687H30.57v2.372h3.942v2.667h-3.942v3.313h7.08v2.687h-9.824zM46.94 41.412h-2.666L39.39 27.686h3.04l2.59 7.94c.254.766.53 1.766.645 2.256.12-.51.373-1.45.628-2.255l2.53-7.94h3L46.94 41.41zM54.37 41.412V27.687h9.527v2.687h-6.785v2.372h3.943v2.667h-3.943v3.313h7.08v2.687H54.37zM67.11 41.412V27.687h2.744v11.02h6.885v2.706h-9.63zM83.97 41.628c-3.747 0-5.962-2.902-5.962-7.078 0-4.177 2.215-7.078 5.96-7.078 3.746 0 5.96 2.9 5.96 7.078 0 4.176-2.214 7.078-5.96 7.078zm0-11.43c-2.218 0-3.138 1.9-3.138 4.352 0 2.45.92 4.353 3.137 4.353 2.215 0 3.137-1.902 3.137-4.353 0-2.45-.922-4.353-3.138-4.353zM98.493 36.55h-3.02v4.862h-2.744V27.687h5.998c2.588 0 4.726 1.432 4.726 4.354 0 3.177-2.118 4.51-4.96 4.51zm.137-6.196h-3.157v3.53h3.197c1.274 0 1.96-.59 1.96-1.785 0-1.2-.783-1.746-2-1.746zM106.058 41.412V27.687h9.53v2.687H108.8v2.372h3.942v2.667h-3.942v3.313h7.08v2.687h-9.824zM126.76 41.412l-2.45-4.94h-2.766v4.94H118.8V27.687h6.392c2.59 0 4.726 1.432 4.726 4.354 0 2.06-.882 3.354-2.627 4.04l2.628 5.333h-3.157zm-1.627-11.058h-3.59v3.53h3.59c1.274 0 1.96-.59 1.96-1.785 0-1.238-.745-1.746-1.96-1.746zM137.46 41.628c-2.293 0-4.292-.96-5.33-2.49l1.978-1.766c.962 1.118 2.197 1.57 3.51 1.57 1.628 0 2.393-.452 2.393-1.49 0-.884-.47-1.275-3.058-1.863-2.53-.59-4.295-1.395-4.295-4.1 0-2.49 2.197-4.02 4.903-4.02 2.138 0 3.705.805 5 2.156l-1.98 1.922c-.882-.902-1.863-1.41-3.12-1.41-1.47 0-1.958.626-1.958 1.234 0 .862.588 1.138 2.763 1.646 2.178.51 4.59 1.255 4.59 4.236 0 2.608-1.65 4.374-5.394 4.374z"/></g></svg>