<?xml version="1.0" encoding="utf-8"?>
<!-- Generator: Adobe Illustrator 16.0.4, SVG Export Plug-In . SVG Version: 6.00 Build 0)  -->
<!DOCTYPE svg PUBLIC "-//W3C//DTD SVG 1.1//EN" "http://www.w3.org/Graphics/SVG/1.1/DTD/svg11.dtd">
<svg version="1.1" id="Layer_1" xmlns="http://www.w3.org/2000/svg" xmlns:xlink="http://www.w3.org/1999/xlink" x="0px" y="0px"
	 width="135px" height="43px" viewBox="0 0 135 43" enable-background="new 0 0 135 43" xml:space="preserve">
<g id="logo_1_">
	<g id="white">
		<path fill="#FFFFFF" d="M39.416,33.074c-0.826-0.19-1.702-0.311-2.588-0.311c-1.516,0-2.896,0.263-3.911,0.687
			c-0.112,0.057-0.192,0.172-0.192,0.306c0,0.05,0.012,0.098,0.03,0.141c0.12,0.347-0.077,0.726-1.062,0.942
			c-1.458,0.319-2.381,1.826-2.907,2.327c-0.619,0.587-2.368,0.947-2.104,0.598c0.206-0.273,0.993-1.128,1.472-2.053
			c0.428-0.824,0.809-1.06,1.334-1.849c0.153-0.229,0.751-1.042,0.925-1.683c0.195-0.628,0.13-1.414,0.205-1.738
			c0.107-0.467,0.548-1.479,0.581-2.053c0.019-0.324-1.352,0.462-2.001,0.462c-0.651,0-1.284-0.39-1.865-0.416
			c-0.719-0.034-1.181,0.555-1.832,0.45c-0.37-0.059-0.684-0.387-1.332-0.41c-0.924-0.033-2.054,0.515-4.176,0.446
			c-2.086-0.07-4.014-2.637-4.276-3.047c-0.309-0.479-0.686-0.479-1.095-0.102c-0.411,0.376-0.917,0.081-1.062-0.173
			c-0.273-0.479-1.005-1.879-2.139-2.171c-1.567-0.408-2.36,0.868-2.258,1.881c0.104,1.029,0.771,1.316,1.078,1.865
			c0.309,0.546,0.465,0.899,1.045,1.142c0.41,0.172,0.563,0.424,0.442,0.761c-0.108,0.295-0.536,0.36-0.816,0.377
			c-0.598,0.026-1.016-0.134-1.321-0.329c-0.354-0.229-0.644-0.541-0.954-1.076c-0.358-0.587-0.923-0.845-1.581-0.845
			c-0.313,0-0.606,0.084-0.867,0.218c-1.03,0.536-2.258,0.854-3.579,0.854l-1.489,0.002c2.856,8.474,10.87,14.575,20.309,14.575
			C28.967,42.853,35.597,38.96,39.416,33.074z"/>
	</g>
	<g id="black">
		<g>
			<path d="M42.638,31.93h0.193l0.291,0.479h0.188l-0.314-0.487c0.163-0.021,0.287-0.106,0.287-0.304
				c0-0.22-0.129-0.314-0.391-0.314h-0.421v1.105h0.167V31.93z M42.638,31.787v-0.342h0.228c0.117,0,0.242,0.024,0.242,0.161
				c0,0.17-0.126,0.181-0.269,0.181H42.638z"/>
			<path d="M43.919,31.857c0,0.596-0.485,1.081-1.083,1.081s-1.084-0.485-1.084-1.081c0-0.598,0.486-1.083,1.084-1.083
				S43.919,31.26,43.919,31.857z M42.836,30.965c-0.493,0-0.893,0.398-0.893,0.893c0,0.492,0.399,0.889,0.893,0.889
				c0.492,0,0.891-0.396,0.891-0.889C43.727,31.363,43.328,30.965,42.836,30.965z"/>
		</g>
		<g>
			<path d="M39.416,33.074c-0.826-0.19-1.702-0.309-2.588-0.309c-1.516,0-2.896,0.264-3.911,0.685
				c-0.112,0.057-0.192,0.172-0.192,0.306c0,0.05,0.012,0.1,0.03,0.141c0.12,0.349-0.077,0.728-1.062,0.942
				c-1.458,0.322-2.381,1.826-2.907,2.327c-0.619,0.587-2.368,0.949-2.104,0.598c0.206-0.271,0.993-1.128,1.472-2.053
				c0.428-0.824,0.809-1.06,1.334-1.846c0.153-0.231,0.751-1.045,0.925-1.686c0.195-0.628,0.13-1.412,0.205-1.738
				c0.107-0.467,0.548-1.479,0.581-2.051c0.019-0.323-1.352,0.46-2.001,0.46c-0.651,0-1.284-0.387-1.865-0.416
				c-0.719-0.034-1.181,0.555-1.832,0.453c-0.37-0.062-0.684-0.388-1.332-0.413c-0.924-0.033-2.054,0.515-4.176,0.446
				c-2.086-0.067-4.014-2.637-4.276-3.045c-0.309-0.48-0.686-0.48-1.095-0.102c-0.411,0.374-0.917,0.079-1.062-0.172
				c-0.273-0.481-1.005-1.882-2.139-2.174c-1.567-0.408-2.36,0.868-2.258,1.881c0.104,1.029,0.771,1.316,1.078,1.865
				c0.309,0.546,0.465,0.901,1.045,1.144c0.41,0.17,0.563,0.424,0.442,0.762c-0.108,0.292-0.536,0.36-0.816,0.374
				c-0.598,0.026-1.016-0.134-1.321-0.329c-0.354-0.227-0.644-0.541-0.954-1.074c-0.358-0.589-0.923-0.845-1.581-0.845
				c-0.313,0-0.606,0.084-0.867,0.216c-1.03,0.536-2.258,0.855-3.579,0.855H1.119C0.394,26.125,0,23.823,0,21.426
				C0,9.593,9.594,0,21.428,0c11.833,0,21.427,9.593,21.427,21.426C42.854,25.722,41.591,29.721,39.416,33.074z"/>
		</g>
		<path fill="#FFFFFF" d="M53.777,22.778c0-1.965-0.041-3.41-0.121-4.717h3.214l0.139,2.788h0.104
			c0.723-2.067,2.434-3.121,4.019-3.121c0.362,0,0.573,0.014,0.871,0.082v3.495c-0.348-0.067-0.673-0.106-1.119-0.106
			c-1.769,0-2.996,1.126-3.326,2.81c-0.063,0.326-0.097,0.721-0.097,1.119v7.613h-3.715L53.777,22.778z"/>
		<path fill="#FFFFFF" d="M66.482,26.399c0.099,2.66,2.158,3.824,4.535,3.824c1.706,0,2.929-0.267,4.051-0.68l0.549,2.554
			c-1.256,0.535-2.999,0.932-5.13,0.932c-4.767,0-7.558-2.943-7.558-7.443c0-4.052,2.456-7.884,7.179-7.884
			c4.772,0,6.326,3.926,6.326,7.138c0,0.692-0.061,1.245-0.132,1.587L66.482,26.399z M72.938,23.813
			c0.018-1.359-0.575-3.576-3.061-3.576c-2.285,0-3.236,2.072-3.402,3.576H72.938z"/>
		<path fill="#FFFFFF" d="M88.717,26.375c0,0.39-0.027,0.752-0.113,1.083c-0.372,1.608-1.687,2.642-3.204,2.642
			c-2.338,0-3.675-1.969-3.675-4.666c0-2.726,1.325-4.832,3.716-4.832c1.67,0,2.863,1.176,3.192,2.605
			c0.063,0.301,0.084,0.673,0.084,0.97V26.375z M92.425,12.408l-3.708-1.046v8.279h-0.062c-0.657-1.085-2.104-1.913-4.114-1.913
			c-3.529,0-6.603,2.922-6.58,7.84c0,4.513,2.776,7.504,6.283,7.504c2.116,0,3.888-1.011,4.765-2.655h0.065l0.168,2.324h3.306
			c-0.068-0.997-0.123-2.614-0.123-4.117V12.408z"/>
		<path fill="#FFFFFF" d="M102.242,17.713c-1.119,0-2.12,0.322-2.961,0.841c-0.875,0.512-1.586,1.302-2.008,2.119h-0.059v-6.87
			l-1.454-0.429v19.367h1.454v-8.984c0-0.598,0.045-1.013,0.197-1.447c0.627-1.828,2.35-3.328,4.432-3.328
			c3.009,0,4.049,2.413,4.049,5.057v8.703h1.452V23.88C107.345,18.407,103.634,17.713,102.242,17.713z"/>
		<path fill="#FFFFFF" d="M120.384,29.252c0,1.162,0.047,2.363,0.215,3.489h-1.337l-0.215-2.104h-0.068
			c-0.711,1.133-2.35,2.439-4.686,2.439c-2.954,0-4.332-2.079-4.332-4.039c0-3.39,2.996-5.434,8.97-5.37v-0.395
			c0-1.452-0.283-4.352-3.756-4.328c-1.285,0-2.626,0.344-3.688,1.095l-0.462-1.058c1.341-0.909,2.981-1.269,4.309-1.269
			c4.239,0,5.051,3.183,5.051,5.807V29.252z M118.931,24.888c-3.198-0.091-7.422,0.392-7.422,3.92c0,2.112,1.394,3.062,2.925,3.062
			c2.447,0,3.838-1.516,4.346-2.945c0.106-0.312,0.151-0.63,0.151-0.882V24.888z"/>
		<path fill="#FFFFFF" d="M126.17,14.811v3.238h4.189v1.178h-4.189v9.55c0,1.867,0.582,3.038,2.159,3.038
			c0.757,0,1.294-0.1,1.67-0.229l0.174,1.123c-0.473,0.2-1.14,0.354-2.025,0.354c-1.073,0-1.962-0.337-2.537-1.042
			c-0.664-0.771-0.893-2.005-0.893-3.503v-9.291h-2.479v-1.178h2.479v-2.701L126.17,14.811z"/>
		<g>
			<path fill="#FFFFFF" d="M132.194,31.96h0.192l0.292,0.478h0.188l-0.314-0.489c0.163-0.019,0.287-0.104,0.287-0.302
				c0-0.22-0.131-0.314-0.392-0.314h-0.422v1.105h0.168V31.96z M132.194,31.816v-0.342h0.227c0.115,0,0.242,0.025,0.242,0.161
				c0,0.17-0.127,0.181-0.27,0.181H132.194z"/>
			<path fill="#FFFFFF" d="M133.477,31.885c0,0.598-0.487,1.083-1.085,1.083c-0.596,0-1.083-0.485-1.083-1.083
				c0-0.599,0.487-1.083,1.083-1.083C132.989,30.802,133.477,31.286,133.477,31.885z M132.392,30.994
				c-0.492,0-0.891,0.399-0.891,0.893c0,0.492,0.398,0.889,0.891,0.889c0.491,0,0.891-0.396,0.891-0.889
				C133.282,31.394,132.883,30.994,132.392,30.994z"/>
		</g>
		<path d="M26.146,31.11c0.11,0.106,0.3,0.469,0.067,0.926c-0.13,0.245-0.271,0.415-0.521,0.614
			c-0.302,0.242-0.891,0.521-1.698,0.009c-0.434-0.273-0.461-0.369-1.061-0.29c-0.429,0.057-0.599-0.376-0.445-0.736
			c0.154-0.357,0.788-0.649,1.574-0.188c0.354,0.208,0.906,0.647,1.39,0.258c0.2-0.16,0.32-0.267,0.598-0.589
			c0.014-0.014,0.03-0.021,0.05-0.021C26.118,31.094,26.135,31.099,26.146,31.11z"/>
	</g>
	<path id="red" fill="#EE352A" d="M19.76,10.202c-2.475,0.18-2.731,0.446-3.195,0.94c-0.653,0.696-1.516-0.902-1.516-0.902
		c-0.517-0.109-1.143-0.941-0.805-1.722c0.333-0.768,0.947-0.536,1.141-0.299c0.234,0.293,0.735,0.771,1.385,0.752
		c0.65-0.017,1.398-0.152,2.444-0.152c1.06,0,1.771,0.396,1.811,0.735C21.06,9.845,20.938,10.117,19.76,10.202z M22.36,6.113
		c-0.004,0-0.009,0.001-0.012,0.001c-0.039,0-0.068-0.028-0.068-0.064c0-0.027,0.015-0.049,0.038-0.06
		c0.479-0.254,1.196-0.455,2.015-0.539c0.247-0.024,0.486-0.037,0.718-0.039c0.041,0,0.081,0,0.123,0.001
		c1.372,0.031,2.473,0.576,2.456,1.218c-0.016,0.644-1.143,1.139-2.517,1.108c-0.443-0.011-0.861-0.075-1.22-0.179
		C23.85,7.55,23.82,7.513,23.82,7.47s0.029-0.079,0.073-0.09c0.856-0.198,1.436-0.521,1.395-0.827
		c-0.054-0.407-1.175-0.628-2.504-0.494C22.639,6.073,22.497,6.093,22.36,6.113z M33.519,15.727
		c-0.212,0.711-0.513,1.622-1.852,2.31c-0.196,0.101-0.271-0.064-0.181-0.219c0.506-0.861,0.596-1.076,0.744-1.416
		c0.205-0.496,0.312-1.203-0.097-2.676c-0.806-2.9-2.486-6.776-3.709-8.034c-1.179-1.213-3.315-1.554-5.246-1.06
		c-0.711,0.183-2.103,0.905-4.684,0.325c-4.466-1.006-5.128,1.23-5.384,2.204c-0.257,0.975-0.872,3.743-0.872,3.743
		c-0.205,1.129-0.474,3.089,6.462,4.409c3.229,0.616,3.395,1.45,3.537,2.051c0.257,1.076,0.666,1.693,1.128,2
		c0.461,0.309,0,0.564-0.513,0.615c-1.376,0.145-6.461-1.314-9.469-3.024c-2.461-1.503-2.502-2.858-1.939-4.007
		c-3.718-0.403-6.509,0.348-7.014,2.107c-0.869,3.021,6.641,8.181,15.191,10.771c8.974,2.717,18.203,0.82,19.229-4.821
		C39.317,18.442,37.158,16.548,33.519,15.727z"/>
</g>
</svg>
