<?xml version="1.0" encoding="UTF-8" standalone="no"?>
<svg data-name="Layer 2" viewBox="0 0 150 150" width="150" height="150">
  <path d="m 148.19641,104.62304 a 2.5879726,2.5879726 0 0 0 -2.90272,-1.29399 l -6.78469,0.99672 A 33.958397,33.958397 0 0 0 106.50907,81.873362 c -13.604344,0 -19.951871,7.501623 -27.978083,17.014171 -1.328959,1.573767 -2.710377,3.199997 -4.214199,4.913647 -1.486336,-1.74863 -2.88524,-3.32239 -4.231685,-4.913647 C 62.041404,89.374985 55.693877,81.873362 42.107021,81.873362 A 33.940911,33.940911 0 0 0 10.089603,104.36075 l -6.9945206,-1.0317 a 2.5355137,2.5355137 0 0 0 -2.85026709,1.29399 2.902726,2.902726 0 0 0 0.76939729,3.21748 l 7.0994383,8.49834 a 34.098288,34.098288 0 0 0 33.9933701,33.66113 c 13.604342,0 19.95187,-7.50162 27.978082,-17.01417 1.328959,-1.57377 2.710377,-3.19999 4.214199,-4.91365 1.468849,1.74863 2.885239,3.3224 4.231685,4.91365 8.043698,9.51255 14.391226,17.01417 27.978083,17.01417 a 34.098288,34.098288 0 0 0 34.13326,-33.9584 l 6.7672,-8.09615 a 2.9726712,2.9726712 0 0 0 0.78688,-3.3224 z m -137.512273,2.57049 a 1.3639315,1.3639315 0 0 0 1.503822,-0.96175 H 12.32785 A 31.195562,31.195562 0 0 1 42.054562,84.548766 c 12.240411,0 17.993404,6.732226 25.86224,16.034934 1.433876,1.74863 2.920212,3.49726 4.511465,5.24589 l -5.910369,7.83387 -6.172665,-7.99124 c -0.314753,-0.3847 -7.676486,-9.250255 -18.238212,-9.250255 a 19.497226,19.497226 0 0 0 -16.052425,8.445885 1.3639315,1.3639315 0 0 0 -0.419671,1.18907 1.3814178,1.3814178 0 0 0 1.591253,1.17158 l 7.501624,-1.13661 -15.737672,19.0251 -15.8251024,-18.95516 z m 27.016336,-2.72787 a 2.5879726,2.5879726 0 0 0 -2.902726,-1.2765 l -4.319117,0.69946 a 16.699418,16.699418 0 0 1 11.593418,-4.686333 c 9.215281,0 16.017452,8.148613 16.052425,8.201073 l 6.627308,8.53332 -6.557363,8.51583 c 0,0 -6.872116,8.21856 -16.069911,8.21856 A 16.73439,16.73439 0 0 1 26.142028,120.85033 l 10.736589,-12.99232 a 2.9726712,2.9726712 0 0 0 0.821856,-3.33989 z m 68.808597,42.75401 c -12.240412,0 -17.993405,-6.73223 -25.862241,-16.03494 -1.433877,-1.74863 -2.920212,-3.49726 -4.511466,-5.24589 l 5.980315,-7.74643 6.172665,7.99124 c 0.314753,0.3847 7.676486,9.25025 18.220727,9.25025 a 19.567171,19.567171 0 0 0 17.95843,-11.92565 l 3.84699,4.66884 a 1.3814178,1.3814178 0 0 0 1.06666,0.5071 1.3989041,1.3989041 0 0 0 1.06667,-0.48962 l 7.11692,-8.49834 a 31.317966,31.317966 0 0 1 -31.05567,27.52344 z m 4.93114,-39.46658 10.99888,13.30707 a 16.769363,16.769363 0 0 1 -15.93002,11.61091 c -9.215282,0 -16.017453,-8.14862 -16.052426,-8.20108 l -6.574849,-8.53331 6.557363,-8.51583 c 0,0 6.837144,-8.218563 16.069912,-8.218563 a 16.699418,16.699418 0 0 1 11.62839,4.738783 l -4.5989,-0.69945 a 2.553,2.553 0 0 0 -2.85027,1.2765 2.8852397,2.8852397 0 0 0 0.75192,3.23497 z m 17.94094,17.34641 -15.73767,-19.0251 7.51911,1.13661 a 1.3814178,1.3814178 0 0 0 1.34644,-2.15081 l 0.1399,-0.0874 a 19.514712,19.514712 0 0 0 -16.13986,-8.550805 c -10.491782,0 -17.92346,8.865555 -18.2557,9.267735 l -14.531116,18.86772 c -2.098356,2.3082 -3.951904,4.51147 -5.735507,6.62731 -7.868836,9.30271 -13.551884,16.03494 -25.86224,16.03494 A 31.300479,31.300479 0 0 1 11.121295,120.01099 l 6.819657,8.1661 a 1.3989041,1.3989041 0 0 0 1.066665,0.48961 1.3814178,1.3814178 0 0 0 1.066664,-0.5071 l 3.986877,-4.82622 a 19.514712,19.514712 0 0 0 18.045863,12.11801 c 10.491781,0 17.923459,-8.86556 18.255698,-9.28523 l 14.548603,-18.86772 c 2.08087,-2.30819 3.951904,-4.51146 5.752993,-6.6273 7.868836,-9.302716 13.551884,-16.034942 25.862245,-16.034942 a 31.195562,31.195562 0 0 1 29.62179,21.263342 1.2939863,1.2939863 0 0 0 0,0.17486 1.3814178,1.3814178 0 0 0 1.57377,1.17159 l 7.51911,-1.10164 z" id="path983" style="stroke-width:1.74863017" />
</svg>
