<svg xmlns="http://www.w3.org/2000/svg" width="135" height="43" viewBox="0 0 135 43"><path fill="#FFF" d="M39.416 33.074c-.826-.19-1.702-.31-2.588-.31-1.516 0-2.896.262-3.91.686a.346.346 0 0 0-.163.447c.12.347-.077.726-1.062.942-1.458.318-2.38 1.825-2.907 2.326-.62.587-2.368.947-2.104.598.206-.273.993-1.128 1.472-2.053.428-.823.81-1.06 1.334-1.848.153-.23.75-1.042.925-1.683.195-.63.13-1.415.205-1.74.107-.466.548-1.478.58-2.052.02-.324-1.35.462-2 .462-.65 0-1.284-.39-1.865-.416-.72-.034-1.18.555-1.832.45-.37-.06-.683-.387-1.33-.41-.925-.033-2.055.515-4.177.446-2.086-.07-4.014-2.637-4.276-3.047-.31-.48-.686-.48-1.095-.102-.41.377-.917.082-1.062-.172-.273-.48-1.005-1.88-2.14-2.17-1.566-.41-2.36.867-2.257 1.88.104 1.03.77 1.316 1.078 1.865.31.546.466.9 1.046 1.142.41.172.563.424.442.76-.108.296-.536.36-.816.378-.598.026-1.016-.134-1.32-.33-.355-.228-.645-.54-.955-1.075-.358-.587-.923-.845-1.58-.845-.314 0-.607.084-.868.218a7.766 7.766 0 0 1-3.58.855l-1.49.002c2.857 8.474 10.87 14.575 20.31 14.575 7.537 0 14.167-3.892 17.986-9.778z"/><path d="M42.638 31.93h.193l.292.48h.188l-.314-.488c.163-.02.287-.106.287-.304 0-.22-.13-.314-.39-.314h-.422v1.105h.168v-.48zm0-.143v-.342h.228c.117 0 .242.024.242.16 0 .17-.126.182-.27.182h-.2z"/><path d="M43.92 31.857a1.083 1.083 0 1 1-2.166-.003 1.083 1.083 0 0 1 2.165.003zm-1.084-.892a.892.892 0 1 0-.002 1.784.892.892 0 0 0 .002-1.785zM39.416 33.074c-.826-.19-1.702-.31-2.588-.31-1.516 0-2.896.265-3.91.686a.346.346 0 0 0-.163.447c.12.35-.077.728-1.062.942-1.458.32-2.38 1.825-2.907 2.326-.62.587-2.368.95-2.104.598.206-.27.993-1.128 1.472-2.053.428-.823.81-1.06 1.334-1.845.153-.23.75-1.045.925-1.686.195-.63.13-1.413.205-1.74.107-.466.548-1.478.58-2.05.02-.323-1.35.46-2 .46-.65 0-1.284-.387-1.865-.416-.72-.034-1.18.555-1.832.453-.37-.062-.683-.388-1.33-.413-.925-.033-2.055.515-4.177.446-2.086-.067-4.014-2.637-4.276-3.045-.31-.48-.686-.48-1.095-.102-.41.374-.917.08-1.062-.172-.273-.48-1.005-1.88-2.14-2.173-1.566-.408-2.36.868-2.257 1.88.104 1.03.77 1.317 1.078 1.866.31.546.466.9 1.046 1.144.41.17.563.424.442.762-.108.29-.536.36-.816.373-.598.026-1.016-.134-1.32-.33-.355-.226-.645-.54-.955-1.073-.358-.59-.923-.845-1.58-.845-.314 0-.607.084-.868.216a7.766 7.766 0 0 1-3.58.856H1.12A21.402 21.402 0 0 1 0 21.426C0 9.593 9.594 0 21.428 0 33.26 0 42.855 9.593 42.855 21.426a21.34 21.34 0 0 1-3.44 11.648z"/><path fill="#FFF" d="M53.777 22.778c0-1.965-.04-3.41-.12-4.717h3.213l.14 2.79h.103c.723-2.068 2.434-3.122 4.02-3.122.36 0 .572.014.87.082v3.495a5.54 5.54 0 0 0-1.12-.106c-1.768 0-2.995 1.125-3.325 2.81-.063.325-.097.72-.097 1.118v7.613h-3.714l.03-9.962zM66.482 26.4c.1 2.66 2.158 3.823 4.535 3.823 1.706 0 2.93-.267 4.05-.68l.55 2.554c-1.256.535-3 .932-5.13.932-4.767 0-7.558-2.944-7.558-7.444 0-4.052 2.455-7.884 7.178-7.884 4.772 0 6.326 3.926 6.326 7.138 0 .692-.06 1.245-.132 1.587l-9.82-.028zm6.456-2.587c.018-1.36-.575-3.576-3.06-3.576-2.286 0-3.237 2.072-3.403 3.576h6.463zM88.717 26.375c0 .39-.027.752-.113 1.083-.372 1.608-1.687 2.642-3.204 2.642-2.338 0-3.675-1.97-3.675-4.666 0-2.726 1.325-4.832 3.716-4.832 1.67 0 2.864 1.176 3.193 2.605.063.3.084.673.084.97v2.198zm3.708-13.967l-3.708-1.046v8.28h-.062c-.657-1.086-2.104-1.914-4.114-1.914-3.528 0-6.602 2.922-6.58 7.84 0 4.513 2.777 7.504 6.284 7.504 2.116 0 3.888-1.01 4.765-2.655h.064l.168 2.324h3.306a67.51 67.51 0 0 1-.123-4.116V12.408zM102.242 17.713c-1.12 0-2.12.322-2.96.84a5.373 5.373 0 0 0-2.01 2.12h-.058v-6.87l-1.454-.43v19.368h1.454v-8.983c0-.598.045-1.013.197-1.447.628-1.828 2.35-3.328 4.433-3.328 3.01 0 4.05 2.413 4.05 5.057v8.702h1.45V23.88c.002-5.473-3.71-6.167-5.1-6.167zM120.384 29.252c0 1.162.047 2.363.215 3.49h-1.338l-.215-2.105h-.068c-.712 1.133-2.35 2.44-4.687 2.44-2.954 0-4.332-2.08-4.332-4.04 0-3.39 2.997-5.434 8.97-5.37v-.395c0-1.452-.282-4.352-3.755-4.328-1.285 0-2.626.344-3.688 1.095l-.462-1.06c1.34-.908 2.98-1.268 4.31-1.268 4.238 0 5.05 3.183 5.05 5.807v5.732zm-1.453-4.364c-3.197-.09-7.42.392-7.42 3.92 0 2.112 1.393 3.062 2.924 3.062 2.447 0 3.838-1.516 4.346-2.945.106-.312.15-.63.15-.882v-3.155zM126.17 14.81v3.24h4.19v1.177h-4.19v9.55c0 1.867.582 3.038 2.16 3.038.756 0 1.293-.1 1.67-.23l.173 1.124c-.473.2-1.14.353-2.025.353-1.073 0-1.962-.337-2.537-1.042-.663-.77-.892-2.004-.892-3.502v-9.29h-2.48v-1.18h2.48v-2.7l1.452-.537z"/><g fill="#FFF"><path d="M132.194 31.96h.192l.292.478h.188l-.314-.49c.163-.018.287-.103.287-.3 0-.22-.132-.315-.393-.315h-.422v1.105h.168v-.478zm0-.144v-.342h.227c.116 0 .243.025.243.16 0 .17-.127.182-.27.182h-.2z"/><path d="M133.477 31.885a1.085 1.085 0 0 1-2.168 0 1.084 1.084 0 1 1 2.167 0zm-1.085-.89z"/></g><path d="M26.146 31.11c.11.106.3.47.067.926-.13.245-.27.415-.52.614-.303.242-.892.52-1.7.01-.433-.274-.46-.37-1.06-.29-.43.056-.6-.377-.445-.737.154-.357.788-.65 1.574-.188.354.208.906.647 1.39.258.2-.16.32-.267.598-.59a.067.067 0 0 1 .05-.02.07.07 0 0 1 .046.017z"/><path fill="#EE352A" d="M19.76 10.202c-2.475.18-2.73.446-3.195.94-.653.696-1.516-.902-1.516-.902-.518-.11-1.144-.94-.806-1.722.333-.768.947-.536 1.14-.3.235.294.736.772 1.386.753.65-.016 1.398-.15 2.444-.15 1.06 0 1.77.395 1.81.734.036.29-.086.563-1.264.648zm2.6-4.09l-.012.002c-.04 0-.068-.028-.068-.064 0-.027.015-.05.038-.06.48-.254 1.196-.455 2.015-.54a8.15 8.15 0 0 1 .84-.037c1.373.03 2.474.576 2.457 1.218-.016.645-1.143 1.14-2.517 1.11a4.874 4.874 0 0 1-1.22-.18c-.043-.01-.073-.047-.073-.09s.03-.08.073-.09c.856-.198 1.436-.52 1.395-.827-.054-.407-1.175-.628-2.504-.494a8.746 8.746 0 0 0-.424.053zm11.16 9.615c-.213.71-.514 1.622-1.853 2.31-.196.1-.27-.064-.18-.22.505-.86.595-1.075.743-1.415.205-.496.312-1.203-.097-2.676-.806-2.9-2.486-6.776-3.71-8.034-1.178-1.213-3.314-1.554-5.245-1.06-.71.183-2.103.905-4.684.325-4.466-1.006-5.128 1.23-5.384 2.204-.257.976-.872 3.744-.872 3.744-.205 1.13-.474 3.09 6.462 4.41 3.23.615 3.395 1.45 3.537 2.05.257 1.076.666 1.693 1.128 2 .46.31 0 .564-.513.615-1.376.144-6.46-1.315-9.47-3.025-2.46-1.503-2.5-2.858-1.938-4.007-3.718-.403-6.51.348-7.014 2.107-.87 3.02 6.64 8.18 15.19 10.77 8.975 2.718 18.204.82 19.23-4.82.467-2.563-1.692-4.457-5.33-5.278z"/></svg>