<svg id="Layer_1" data-name="Layer 1" xmlns="http://www.w3.org/2000/svg" viewBox="0 0 1135 135"><defs><style>.cls-1{fill:#a3dbe8}.cls-2{fill:#fff}</style></defs><title>RHDev_homepage_jointext</title><path class="cls-1" d="M45 133.1a44.4 44.4 0 0 1-12.86-1.85 43.36 43.36 0 0 1-11.44-5.33 46.47 46.47 0 0 1-9.7-8.51 51.66 51.66 0 0 1-7.44-11.48L24.4 96.3a28 28 0 0 0 8.6 10.23 20.27 20.27 0 0 0 12 3.61 24.49 24.49 0 0 0 7-1 13.46 13.46 0 0 0 5.93-3.66A18.93 18.93 0 0 0 62 98.14a39.3 39.3 0 0 0 1.55-12.08V7.63h23.71v80.5a60.79 60.79 0 0 1-1.81 15.57 43.35 43.35 0 0 1-4.9 11.78 33.85 33.85 0 0 1-7.22 8.38 36.36 36.36 0 0 1-8.86 5.42 45.09 45.09 0 0 1-9.72 2.92 55 55 0 0 1-9.75.9zM161.06 133.1a56.71 56.71 0 0 1-17.89-2.62 49 49 0 0 1-14-7.14 46.26 46.26 0 0 1-10.36-10.66 60.89 60.89 0 0 1-7-13.24 74.86 74.86 0 0 1-4-14.79 94.57 94.57 0 0 1 0-30.61 74.88 74.88 0 0 1 4-14.79 60.92 60.92 0 0 1 7-13.24 46.3 46.3 0 0 1 10.36-10.66 49 49 0 0 1 14-7.14 56.71 56.71 0 0 1 17.89-2.62 56.32 56.32 0 0 1 17.84 2.6 48.55 48.55 0 0 1 13.89 7.14A46.77 46.77 0 0 1 203.11 26a61 61 0 0 1 7 13.24 75 75 0 0 1 4 14.79 94.57 94.57 0 0 1 0 30.61 75 75 0 0 1-4 14.79 61 61 0 0 1-7 13.24 46.73 46.73 0 0 1-10.32 10.66 48.5 48.5 0 0 1-13.89 7.14 56.32 56.32 0 0 1-17.84 2.63zm0-23a23.94 23.94 0 0 0 13.89-3.87 30.15 30.15 0 0 0 9.12-9.89 45.18 45.18 0 0 0 5-13.2 65.84 65.84 0 0 0 1.55-13.89 72.79 72.79 0 0 0-.62-9.55 53.07 53.07 0 0 0-2.11-9.37 43.79 43.79 0 0 0-3.78-8.51 29 29 0 0 0-5.59-7 24.83 24.83 0 0 0-7.61-4.69 26.58 26.58 0 0 0-9.85-1.72 25 25 0 0 0-17.59 6.67 29.71 29.71 0 0 0-5.63 7.09 44.49 44.49 0 0 0-3.78 8.6 54.32 54.32 0 0 0-2.11 9.29 66.58 66.58 0 0 0 .9 23.52 43.41 43.41 0 0 0 5 13.16 29.15 29.15 0 0 0 9.15 9.66q5.71 3.74 14.06 3.74zM236.48 131V7.63h23.73V131h-23.73zM362.9 131L314 59.06q-1.21-1.81-2.62-4.43t-2.45-4.86q.26 2 .39 4.64t.13 4.64V131h-23.69V7.63h22.36l47.73 71q1.12 1.72 2.58 4.3T361 88q-.26-2.49-.39-5t-.13-4.26v-71h23.56V131H362.9zM409.73 9.77v18.37h-4.34V9.77h-6.45v-4.2h17.25v4.2h-6.45zM433 28.14V18.6h-9.4v9.54h-4.36V5.57h4.36v8.91h9.4V5.57h4.34v22.57H433zM441.9 28.14V5.57h15.41v4.14h-11v4.74h6.5v4.12h-6.5V24H458v4.12h-16.1zM465.34 43.8V5.57h17.76a16 16 0 0 1 6.06 1 10.62 10.62 0 0 1 3.93 2.65 9.75 9.75 0 0 1 2.14 3.78 15.78 15.78 0 0 1 .64 4.51 12.15 12.15 0 0 1-4.19 9.16 10 10 0 0 1-3.23 1.88l7.41 15.22h-8.29l-7.14-14.26h-7.7V43.8h-7.38zm17.86-21.25a6 6 0 0 0 2.37-.41 4.11 4.11 0 0 0 1.55-1.14 4.2 4.2 0 0 0 .84-1.6 7 7 0 0 0 .25-1.89 7.3 7.3 0 0 0-.23-1.8 4.21 4.21 0 0 0-.79-1.6 3.91 3.91 0 0 0-1.52-1.11 6.18 6.18 0 0 0-2.47-.43h-10.47v10h10.47zM502.13 43.8V5.57h26.1v7h-18.71v8h11v7h-11v9.22h19.86v7h-27.25zM535.11 5.57H548a21.87 21.87 0 0 1 6 .76 17.52 17.52 0 0 1 4.73 2.09 14.74 14.74 0 0 1 3.53 3.16 18.06 18.06 0 0 1 2.41 3.94 19.93 19.93 0 0 1 1.4 4.48 25.42 25.42 0 0 1 .44 4.69 25 25 0 0 1-.41 4.47 20.47 20.47 0 0 1-1.32 4.4 18 18 0 0 1-2.36 4 15 15 0 0 1-3.55 3.27A17.39 17.39 0 0 1 554 43a22.41 22.41 0 0 1-6.26.8h-12.63V5.57zm13.54 31.24a9.57 9.57 0 0 0 4.8-1.11 9.35 9.35 0 0 0 3.15-2.85 11.85 11.85 0 0 0 1.73-3.91 17.5 17.5 0 0 0 0-8.68 12.29 12.29 0 0 0-1.72-3.88 9 9 0 0 0-3-2.76 8.53 8.53 0 0 0-4.33-1.05h-6.77v24.24h6.16zM606.53 43.8V27.64h-16V43.8h-7.38V5.57h7.38v15.09h16V5.57h7.36V43.8h-7.36zM647.21 43.8l-3-7.92h-14.7l-2.93 7.92h-7.92l14.63-38.23h7.2l14.64 38.23h-7.92zm-9.12-24.58q-.29-.69-.63-1.65t-.57-1.79q-.21.83-.56 1.79t-.64 1.65l-3.79 9.94h9.94zM671.34 12.69V43.8H664V12.69h-10.95V5.57h29.22v7.12h-10.93z"/><path class="cls-1" d="M531.26 43.71h14.81a25.16 25.16 0 0 1 6.89.87 20.15 20.15 0 0 1 5.43 2.4 16.92 16.92 0 0 1 4.06 3.63 20.74 20.74 0 0 1 2.77 4.53 22.83 22.83 0 0 1 1.59 5.13 29.19 29.19 0 0 1 .51 5.39 28.8 28.8 0 0 1-.47 5.13 23.49 23.49 0 0 1-1.52 5.05 20.59 20.59 0 0 1-2.71 4.58 17.28 17.28 0 0 1-4.07 3.75 20 20 0 0 1-5.55 2.51 25.74 25.74 0 0 1-7.19.92h-14.55V43.71zm15.55 35.87a11 11 0 0 0 5.51-1.27 10.75 10.75 0 0 0 3.61-3.31 13.6 13.6 0 0 0 2-4.48 20.09 20.09 0 0 0 0-10 14.11 14.11 0 0 0-2-4.45 10.33 10.33 0 0 0-3.44-3.07 9.79 9.79 0 0 0-5-1.21h-7.77v27.79h7.07zM574.51 87.6V43.71h30v8.05H583V61h12.64v8H583v10.58h22.8v8h-31.29zM632.95 87.6h-8.15l-15.55-43.89h9.15l9.6 28.71q.24.71.47 1.52t.41 1.52q.15-.67.37-1.47t.46-1.56l9.64-28.71h9zM654.07 87.6V43.71h30v8.05h-21.52V61h12.64v8h-12.64v10.58h22.8v8h-31.28zM691.93 87.6V43.71h8.48v35.75h21.18v8.14h-29.66zM743.48 88.36a20.18 20.18 0 0 1-6.37-.93 17.44 17.44 0 0 1-5-2.54 16.45 16.45 0 0 1-3.69-3.8 21.67 21.67 0 0 1-2.5-4.71 26.59 26.59 0 0 1-1.41-5.27 33.63 33.63 0 0 1 0-10.9A26.61 26.61 0 0 1 726 55a21.71 21.71 0 0 1 2.5-4.71 16.47 16.47 0 0 1 3.69-3.8 17.46 17.46 0 0 1 5-2.54 22.12 22.12 0 0 1 12.72 0 17.29 17.29 0 0 1 4.94 2.54 16.64 16.64 0 0 1 3.67 3.8 21.75 21.75 0 0 1 2.5 4.71 26.75 26.75 0 0 1 1.41 5.27 33.63 33.63 0 0 1 0 10.9 26.73 26.73 0 0 1-1.41 5.27 21.71 21.71 0 0 1-2.5 4.71 16.62 16.62 0 0 1-3.67 3.8 17.27 17.27 0 0 1-4.94 2.54 20 20 0 0 1-6.43.87zm0-8.17a8.52 8.52 0 0 0 4.94-1.38 10.73 10.73 0 0 0 3.24-3.52 16.06 16.06 0 0 0 1.79-4.7 23.44 23.44 0 0 0 .55-4.94 26 26 0 0 0-.23-3.41 19 19 0 0 0-.77-3.34 15.59 15.59 0 0 0-1.35-3 10.34 10.34 0 0 0-2-2.48 8.84 8.84 0 0 0-2.65-1.69 9.47 9.47 0 0 0-3.5-.61 8.9 8.9 0 0 0-6.26 2.37 10.58 10.58 0 0 0-2 2.53 15.88 15.88 0 0 0-1.35 3.06 19.35 19.35 0 0 0-.75 3.31 23.73 23.73 0 0 0 .32 8.37 15.44 15.44 0 0 0 1.79 4.68 10.37 10.37 0 0 0 3.26 3.43 8.87 8.87 0 0 0 4.97 1.32zM770 87.6V43.71h18.82a18 18 0 0 1 7 1.21 12.86 12.86 0 0 1 4.62 3.18 12 12 0 0 1 2.56 4.45 16.64 16.64 0 0 1 .78 5 14.7 14.7 0 0 1-.37 3.23 14.18 14.18 0 0 1-1.13 3.22 13.17 13.17 0 0 1-2 2.89 12.62 12.62 0 0 1-2.86 2.37 14.4 14.4 0 0 1-3.83 1.61 18.5 18.5 0 0 1-4.82.58h-10.3V87.6H770zm19.19-24.21a6.35 6.35 0 0 0 2.72-.52 5 5 0 0 0 2.79-3.21 7.35 7.35 0 0 0 .31-2.08 8 8 0 0 0-.26-2 5.16 5.16 0 0 0-.92-1.88 4.93 4.93 0 0 0-1.83-1.39 6.49 6.49 0 0 0-2.85-.55h-10.68v11.63h10.71zM809.42 87.6V43.71h30v8.05h-21.53V61h12.64v8h-12.64v10.58h22.8v8h-31.27zM847.28 87.6V43.71h20.38a18.44 18.44 0 0 1 7 1.15 12.19 12.19 0 0 1 4.51 3 11.18 11.18 0 0 1 2.45 4.38 18.13 18.13 0 0 1 .73 5.17A14 14 0 0 1 877.52 68a11.5 11.5 0 0 1-3.7 2.16l8.51 17.48h-9.52l-8.2-16.38h-8.85V87.6h-8.48zm20.51-24.4a6.88 6.88 0 0 0 2.72-.47 4.71 4.71 0 0 0 1.77-1.27 4.8 4.8 0 0 0 1-1.84 8 8 0 0 0 .29-2.17 8.39 8.39 0 0 0-.26-2.07 4.84 4.84 0 0 0-.9-1.84 4.5 4.5 0 0 0-1.76-1.3 7.09 7.09 0 0 0-2.83-.49h-12V63.2h12zM910.58 55.64a7.61 7.61 0 0 0-1.07-1.84 7 7 0 0 0-1.61-1.48 7.64 7.64 0 0 0-2.14-1 9.57 9.57 0 0 0-2.68-.35 7.3 7.3 0 0 0-4.3 1.1 3.58 3.58 0 0 0-1.55 3.09 2.85 2.85 0 0 0 1 2.2 9.83 9.83 0 0 0 2.56 1.64 32.83 32.83 0 0 0 3.63 1.36q2 .64 4.18 1.42a35.23 35.23 0 0 1 4.18 1.84 15.23 15.23 0 0 1 3.63 2.6 11.58 11.58 0 0 1 3.54 8.78 12.71 12.71 0 0 1-1.22 5.69 12.34 12.34 0 0 1-3.35 4.19 14.83 14.83 0 0 1-5 2.6 21.41 21.41 0 0 1-6.27.89 19.28 19.28 0 0 1-5.79-.84 17.11 17.11 0 0 1-4.88-2.4 16.6 16.6 0 0 1-3.81-3.79 18.79 18.79 0 0 1-2.57-5l7.71-2.88a14 14 0 0 0 1.7 2.8 11.45 11.45 0 0 0 2.22 2.17 10.16 10.16 0 0 0 2.65 1.41 9 9 0 0 0 3 .5 11.52 11.52 0 0 0 2.89-.34 6.61 6.61 0 0 0 2.23-1 4.61 4.61 0 0 0 1.44-1.67 5 5 0 0 0 .5-2.31 3.85 3.85 0 0 0-1-2.68 8.79 8.79 0 0 0-2.57-1.9 24.81 24.81 0 0 0-3.63-1.47q-2-.66-4.16-1.39a38.65 38.65 0 0 1-4.16-1.71 15.18 15.18 0 0 1-3.63-2.42 11.33 11.33 0 0 1 .34-16.87 14.06 14.06 0 0 1 4.65-2.62 19 19 0 0 1 6.31-1 17.68 17.68 0 0 1 5.37.77 14.39 14.39 0 0 1 4.24 2.13 13.19 13.19 0 0 1 3.09 3.21 14.35 14.35 0 0 1 1.9 4.06zM940.44 88a10.41 10.41 0 0 1-3.37-.5 8.66 8.66 0 0 1-2.61-1.4 8.9 8.9 0 0 1-1.91-2.1 11.91 11.91 0 0 1-1.29-2.58 15.4 15.4 0 0 1-.72-2.89 19.89 19.89 0 0 1-.23-3 17.76 17.76 0 0 1 .23-2.83 15.83 15.83 0 0 1 .73-2.84 12.59 12.59 0 0 1 1.3-2.61 9.52 9.52 0 0 1 1.92-2.15 8.73 8.73 0 0 1 2.6-1.46 9.76 9.76 0 0 1 3.35-.54 9.93 9.93 0 0 1 3.15.47 9.43 9.43 0 0 1 2.49 1.24 8.48 8.48 0 0 1 1.83 1.74 8.38 8.38 0 0 1 1.15 2l-4.17 1.9a12.22 12.22 0 0 0-.89-1.21 5.07 5.07 0 0 0-1-.9 4.15 4.15 0 0 0-1.15-.56 4.85 4.85 0 0 0-1.42-.19 4.34 4.34 0 0 0-3.18 1.28 5.42 5.42 0 0 0-1 1.38 9.3 9.3 0 0 0-.66 1.67 11.38 11.38 0 0 0-.36 1.82 15.53 15.53 0 0 0-.11 1.81 13.46 13.46 0 0 0 .3 2.83 9.11 9.11 0 0 0 .94 2.56 5.59 5.59 0 0 0 1.64 1.84 4 4 0 0 0 2.41.72 4 4 0 0 0 1.36-.23 4.39 4.39 0 0 0 1.15-.63 5.83 5.83 0 0 0 1-1 10.06 10.06 0 0 0 .87-1.26l4.3 1.62a12.37 12.37 0 0 1-1.38 2.43 8.68 8.68 0 0 1-1.88 1.88 8.54 8.54 0 0 1-2.41 1.22 9.61 9.61 0 0 1-2.98.47zM962.33 88a11.11 11.11 0 0 1-3.5-.51 9.58 9.58 0 0 1-2.73-1.4 9.06 9.06 0 0 1-2-2.09 12 12 0 0 1-1.37-2.59 14.66 14.66 0 0 1-.77-2.89 18.56 18.56 0 0 1 0-6 14.7 14.7 0 0 1 .77-2.89 12 12 0 0 1 1.37-2.59 9.1 9.1 0 0 1 2-2.09 9.61 9.61 0 0 1 2.73-1.4 12.16 12.16 0 0 1 7 0 9.49 9.49 0 0 1 2.72 1.4 9.14 9.14 0 0 1 2 2.09 12 12 0 0 1 1.37 2.59 14.77 14.77 0 0 1 .77 2.89 18.49 18.49 0 0 1 0 6 14.73 14.73 0 0 1-.77 2.89 11.91 11.91 0 0 1-1.36 2.59 9.1 9.1 0 0 1-2 2.09 9.47 9.47 0 0 1-2.72 1.4 11 11 0 0 1-3.51.51zm0-4.49a4.69 4.69 0 0 0 2.72-.76 5.9 5.9 0 0 0 1.78-1.94 8.82 8.82 0 0 0 1-2.58 12.89 12.89 0 0 0 .3-2.72 14.34 14.34 0 0 0-.13-1.88 10.43 10.43 0 0 0-.41-1.83 8.6 8.6 0 0 0-.74-1.67 5.68 5.68 0 0 0-1.09-1.36 4.86 4.86 0 0 0-1.49-.92 5.21 5.21 0 0 0-1.93-.34 4.9 4.9 0 0 0-3.44 1.3 5.84 5.84 0 0 0-1.1 1.39 8.71 8.71 0 0 0-.74 1.68 10.66 10.66 0 0 0-.41 1.82 13 13 0 0 0 .18 4.6 8.48 8.48 0 0 0 1 2.57 5.7 5.7 0 0 0 1.79 1.88 4.88 4.88 0 0 0 2.71.78zM994.62 87.6V75.2v-1.02-.51-.37q-.19.57-.36 1t-.26.9L988.11 88l-5.89-12.8q-.19-.42-.36-.87t-.36-1V87.6h-4.6V63.47h4.73l5.92 13.31.34.83q.16.39.29.82c.09-.28.19-.55.29-.82s.21-.54.34-.83l6-13.31h4.44V87.6h-4.64zM1021.81 87.6V75.2v-1.02-.51-.37q-.19.57-.36 1t-.36.87L1015.3 88l-5.89-12.82q-.19-.42-.36-.87t-.36-1V87.6h-4.66V63.47h4.73l5.92 13.31.34.83q.16.39.29.82c.09-.28.19-.55.29-.82s.21-.54.34-.83l6-13.31h4.44V87.6h-4.64zM1040.84 88a14.17 14.17 0 0 1-2.43-.21 9.92 9.92 0 0 1-2.28-.68 8.52 8.52 0 0 1-2-1.22 7.38 7.38 0 0 1-1.59-1.83 9.12 9.12 0 0 1-1.05-2.49 12.5 12.5 0 0 1-.38-3.23V63.47h4.66v14.89a7.76 7.76 0 0 0 .35 2.5 3.71 3.71 0 0 0 1 1.59 3.75 3.75 0 0 0 1.6.83 8.43 8.43 0 0 0 2.12.24 8.26 8.26 0 0 0 2.1-.24 3.82 3.82 0 0 0 1.6-.83 3.72 3.72 0 0 0 1-1.59 7.58 7.58 0 0 0 .35-2.5V63.47h4.64v14.89a11.29 11.29 0 0 1-.81 4.54 8 8 0 0 1-2.16 3 8.4 8.4 0 0 1-3.1 1.64 13.05 13.05 0 0 1-3.62.46zM1070.29 87.6l-9.57-14.07c-.16-.24-.33-.52-.51-.87s-.34-.66-.48-1c0 .26.06.56.07.91s0 .65 0 .91V87.6h-4.63V63.47h4.37l9.34 13.9q.22.34.51.84t.5 1c0-.32-.06-.65-.07-1s0-.61 0-.83V63.47h4.61V87.6h-4.14zM1079.43 87.6V63.47h4.64V87.6h-4.64zM1099.06 68v19.6h-4.64V68h-6.9v-4.53H1106V68h-6.9zM1116.09 87.6v-9.41l-8.93-14.72h5.28l6 9.86 6-9.86h5.28l-8.94 14.72v9.41h-4.61z"/><path class="cls-2" d="M479.76 129.92v-26.2h5.06v21.34h12.64v4.86h-17.7zM507.35 130.37a9.66 9.66 0 0 1-3.74-.69 7.62 7.62 0 0 1-2.81-2 8.88 8.88 0 0 1-1.78-3.16 14.49 14.49 0 0 1 0-8.39 8.71 8.71 0 0 1 1.79-3.14 7.76 7.76 0 0 1 2.82-2 9.61 9.61 0 0 1 3.72-.69 9.92 9.92 0 0 1 3.32.55 7.2 7.2 0 0 1 2.69 1.66 7.89 7.89 0 0 1 1.79 2.8 11 11 0 0 1 .66 4v1.34a13.15 13.15 0 0 1-.13 1.54H503.2a4.3 4.3 0 0 0 .44 1.64 4.06 4.06 0 0 0 .92 1.21 3.86 3.86 0 0 0 1.27.75 4.44 4.44 0 0 0 1.52.26 5.32 5.32 0 0 0 2.3-.47 5.11 5.11 0 0 0 1.81-1.51l3 3a8.9 8.9 0 0 1-3 2.36 9.17 9.17 0 0 1-4.11.94zm0-15.77a4.39 4.39 0 0 0-2.8.86 3.81 3.81 0 0 0-1.31 2.67h7.82a4.18 4.18 0 0 0-1.24-2.61 3.53 3.53 0 0 0-2.47-.91zM529.66 129.92v-1.39a5.33 5.33 0 0 1-.79.68 5.9 5.9 0 0 1-1.09.59 7.19 7.19 0 0 1-1.38.42 8.49 8.49 0 0 1-1.69.15 9.17 9.17 0 0 1-2.76-.4 6.33 6.33 0 0 1-2.23-1.21 5.72 5.72 0 0 1-1.5-2 6.46 6.46 0 0 1-.55-2.75 5.81 5.81 0 0 1 .66-2.84 5.92 5.92 0 0 1 1.73-2 7.31 7.31 0 0 1 2.43-1.14 10.72 10.72 0 0 1 2.79-.37 11 11 0 0 1 2.44.25 9.42 9.42 0 0 1 1.95.67v-1a2.8 2.8 0 0 0-.9-2.3 4 4 0 0 0-2.56-.73 9.49 9.49 0 0 0-3.12.49 11.54 11.54 0 0 0-2.78 1.42l-1.5-3.93a12.24 12.24 0 0 1 1.52-.87 13.57 13.57 0 0 1 1.84-.72 14.31 14.31 0 0 1 2.11-.48 15.3 15.3 0 0 1 2.35-.17q.86 0 1.77.09a8.87 8.87 0 0 1 1.78.37 6.62 6.62 0 0 1 1.64.79 5.22 5.22 0 0 1 1.36 1.32 6.41 6.41 0 0 1 .92 2 10.22 10.22 0 0 1 .34 2.8v12.2h-4.79zm-4-3.82a5.37 5.37 0 0 0 2.32-.47 7 7 0 0 0 1.7-1.1v-2.06A10.65 10.65 0 0 0 528 122a10.24 10.24 0 0 0-1.89-.17 8 8 0 0 0-1.42.12 4 4 0 0 0-1.17.38 2.19 2.19 0 0 0-.79.69 1.71 1.71 0 0 0-.29 1 1.74 1.74 0 0 0 .82 1.5 4.21 4.21 0 0 0 2.38.58zM538.19 129.92v-19.13H543v1.7a3.64 3.64 0 0 1 1.27-1.52 3.86 3.86 0 0 1 2.27-.61 5.6 5.6 0 0 1 2.13.38 6.58 6.58 0 0 1 1.76 1.08l-.66 4.44a7.37 7.37 0 0 0-1.53-.79 5.45 5.45 0 0 0-2-.32 4.18 4.18 0 0 0-1.23.18 2.52 2.52 0 0 0-1.05.64 3.22 3.22 0 0 0-.73 1.26 6.38 6.38 0 0 0-.27 2v10.67h-4.86zM564.57 129.92V118.7a4.83 4.83 0 0 0-.26-1.66 3.06 3.06 0 0 0-.71-1.14 2.81 2.81 0 0 0-1.06-.66 4 4 0 0 0-1.32-.21 5 5 0 0 0-1.41.19 3 3 0 0 0-1.15.62 2.94 2.94 0 0 0-.78 1.12 4.38 4.38 0 0 0-.28 1.67v11.29h-4.86v-19.13h4.86v1.81a5.89 5.89 0 0 1 2.17-1.66 7.07 7.07 0 0 1 2.95-.58 8.35 8.35 0 0 1 2.43.37 5.5 5.5 0 0 1 2.16 1.24 6.35 6.35 0 0 1 1.53 2.32 9.65 9.65 0 0 1 .58 3.6v12h-4.86zM602.9 129.92v-11.26a5.25 5.25 0 0 0-.29-1.93 2.87 2.87 0 0 0-.73-1.11 2.1 2.1 0 0 0-1-.49 5.05 5.05 0 0 0-1-.11 5.83 5.83 0 0 0-1.14.12 2.57 2.57 0 0 0-1.08.49 2.78 2.78 0 0 0-.8 1.09 4.72 4.72 0 0 0-.32 1.9v11.29h-4.86v-11.25a5.25 5.25 0 0 0-.29-1.93 2.87 2.87 0 0 0-.73-1.11 2.1 2.1 0 0 0-1-.49 5.19 5.19 0 0 0-1-.11 5.62 5.62 0 0 0-1.11.12 2.63 2.63 0 0 0-1.08.49 2.73 2.73 0 0 0-.81 1.09 4.72 4.72 0 0 0-.32 1.9v11.29h-4.86v-19.12h4.86v1.77a5.65 5.65 0 0 1 1.88-1.62 5.56 5.56 0 0 1 2.65-.59 6 6 0 0 1 3 .69 4.71 4.71 0 0 1 1.88 2 6 6 0 0 1 2.56-2 8.51 8.51 0 0 1 3.31-.64 10.33 10.33 0 0 1 2.83.37 5.59 5.59 0 0 1 2.27 1.25 5.94 5.94 0 0 1 1.51 2.33 10.3 10.3 0 0 1 .55 3.61v12h-4.88zM619.56 130.37a9.31 9.31 0 0 1-3.65-.69 7.54 7.54 0 0 1-2.77-2 8.93 8.93 0 0 1-1.76-3.14 14.49 14.49 0 0 1 0-8.39 9 9 0 0 1 1.76-3.16 7.51 7.51 0 0 1 2.77-2 10.08 10.08 0 0 1 7.31 0 7.52 7.52 0 0 1 2.77 2 8.93 8.93 0 0 1 1.75 3.16 14.69 14.69 0 0 1 0 8.39 8.83 8.83 0 0 1-1.75 3.14 7.55 7.55 0 0 1-2.77 2 9.31 9.31 0 0 1-3.66.69zm0-4.68a3.62 3.62 0 0 0 1.64-.37 3.39 3.39 0 0 0 1.23-1.05 5.09 5.09 0 0 0 .78-1.67 9.27 9.27 0 0 0 0-4.48 5.22 5.22 0 0 0-.78-1.68 3.38 3.38 0 0 0-1.23-1.06 3.88 3.88 0 0 0-3.29 0 3.37 3.37 0 0 0-1.23 1.06 5.22 5.22 0 0 0-.78 1.68 9.27 9.27 0 0 0 0 4.48 5.09 5.09 0 0 0 .78 1.67 3.38 3.38 0 0 0 1.23 1.05 3.61 3.61 0 0 0 1.65.38zM631.53 129.92v-19.13h4.86v1.7a3.64 3.64 0 0 1 1.27-1.52 3.86 3.86 0 0 1 2.27-.61 5.6 5.6 0 0 1 2.13.38 6.58 6.58 0 0 1 1.76 1.08l-.66 4.44a7.37 7.37 0 0 0-1.53-.79 5.45 5.45 0 0 0-2-.32 4.18 4.18 0 0 0-1.23.18 2.52 2.52 0 0 0-1.05.64 3.22 3.22 0 0 0-.73 1.26 6.38 6.38 0 0 0-.27 2v10.67h-4.86zM654.09 130.37a9.67 9.67 0 0 1-3.74-.69 7.64 7.64 0 0 1-2.81-2 8.88 8.88 0 0 1-1.78-3.16 14.49 14.49 0 0 1 0-8.39 8.71 8.71 0 0 1 1.79-3.14 7.75 7.75 0 0 1 2.82-2 9.61 9.61 0 0 1 3.72-.69 9.92 9.92 0 0 1 3.32.55 7.2 7.2 0 0 1 2.69 1.66 7.89 7.89 0 0 1 1.79 2.8 11 11 0 0 1 .66 4v1.34a13.15 13.15 0 0 1-.13 1.54h-12.48a4.28 4.28 0 0 0 .44 1.64 4.07 4.07 0 0 0 .92 1.21 3.87 3.87 0 0 0 1.27.75 4.44 4.44 0 0 0 1.52.26 5.32 5.32 0 0 0 2.3-.47 5.11 5.11 0 0 0 1.81-1.51l3 3a8.9 8.9 0 0 1-3 2.36 9.17 9.17 0 0 1-4.11.94zm0-15.77a4.39 4.39 0 0 0-2.8.86 3.81 3.81 0 0 0-1.31 2.67h7.82a4.18 4.18 0 0 0-1.24-2.61 3.53 3.53 0 0 0-2.47-.91zM667.23 130.37a3.27 3.27 0 0 1-1.25-.24 3.12 3.12 0 0 1-1-.65 2.93 2.93 0 0 1-.66-1 3.08 3.08 0 0 1-.24-1.21 3.13 3.13 0 0 1 .24-1.22 3 3 0 0 1 1.65-1.64 3.42 3.42 0 0 1 2.5 0 3.1 3.1 0 0 1 1.68 1.64 3 3 0 0 1 .25 1.22 3 3 0 0 1-.92 2.18 3.23 3.23 0 0 1-1 .65 3.27 3.27 0 0 1-1.25.27zM690.8 130.34a11.29 11.29 0 0 1-3.65-.55 9.39 9.39 0 0 1-2.83-1.52 9.66 9.66 0 0 1-2.08-2.27 13 13 0 0 1-1.4-2.8 16.72 16.72 0 0 1-.78-3.13 21.52 21.52 0 0 1-.25-3.25 19.18 19.18 0 0 1 .26-3.08 17.14 17.14 0 0 1 .8-3.08 13.66 13.66 0 0 1 1.41-2.83 10.35 10.35 0 0 1 2.08-2.34 9.49 9.49 0 0 1 2.82-1.59 10.59 10.59 0 0 1 3.64-.58 10.78 10.78 0 0 1 3.42.51 10.22 10.22 0 0 1 2.7 1.34 9.23 9.23 0 0 1 2 1.89 9.14 9.14 0 0 1 1.25 2.16l-4.53 2.06a13.41 13.41 0 0 0-1-1.32 5.49 5.49 0 0 0-1.06-1 4.48 4.48 0 0 0-1.25-.6 5.27 5.27 0 0 0-1.54-.21 4.72 4.72 0 0 0-3.45 1.39 5.88 5.88 0 0 0-1.08 1.5 10.11 10.11 0 0 0-.71 1.82 12.44 12.44 0 0 0-.39 2 16.78 16.78 0 0 0-.12 2 14.61 14.61 0 0 0 .33 3.07 9.89 9.89 0 0 0 1 2.78 6.08 6.08 0 0 0 1.78 2 4.39 4.39 0 0 0 2.62.78 4.31 4.31 0 0 0 1.48-.25 4.78 4.78 0 0 0 1.25-.69 6.32 6.32 0 0 0 1.08-1.06 10.89 10.89 0 0 0 .94-1.37l4.64 1.75a13.44 13.44 0 0 1-1.5 2.64 9.43 9.43 0 0 1-2 2 9.24 9.24 0 0 1-2.62 1.32 10.43 10.43 0 0 1-3.26.51zM711.24 130.37a9.31 9.31 0 0 1-3.65-.69 7.54 7.54 0 0 1-2.77-2 8.93 8.93 0 0 1-1.76-3.14 14.49 14.49 0 0 1 0-8.39 9 9 0 0 1 1.76-3.16 7.51 7.51 0 0 1 2.77-2 10.08 10.08 0 0 1 7.31 0 7.52 7.52 0 0 1 2.77 2 8.93 8.93 0 0 1 1.75 3.16 14.69 14.69 0 0 1 0 8.39 8.83 8.83 0 0 1-1.75 3.14 7.55 7.55 0 0 1-2.77 2 9.31 9.31 0 0 1-3.66.69zm0-4.68a3.62 3.62 0 0 0 1.64-.37 3.39 3.39 0 0 0 1.23-1.05 5.09 5.09 0 0 0 .78-1.67 9.27 9.27 0 0 0 0-4.48 5.22 5.22 0 0 0-.78-1.68 3.38 3.38 0 0 0-1.23-1.06 3.88 3.88 0 0 0-3.29 0 3.37 3.37 0 0 0-1.23 1.06 5.22 5.22 0 0 0-.78 1.68 9.27 9.27 0 0 0 0 4.48 5.09 5.09 0 0 0 .78 1.67 3.38 3.38 0 0 0 1.23 1.05 3.61 3.61 0 0 0 1.65.38zM730.17 130.37a7.83 7.83 0 0 1-3.25-.66 6.73 6.73 0 0 1-2.49-1.93 9.07 9.07 0 0 1-1.6-3.14 14.86 14.86 0 0 1-.57-4.3 13.53 13.53 0 0 1 .6-4.19 9.5 9.5 0 0 1 1.66-3.14 7.19 7.19 0 0 1 2.51-2 7.33 7.33 0 0 1 3.17-.69 5.45 5.45 0 0 1 2.43.5 4.51 4.51 0 0 1 1.64 1.32v-7.07l4.86-2.21v27h-4.86v-1.39a3.87 3.87 0 0 1-1.62 1.36 5.84 5.84 0 0 1-2.48.54zm.83-4.67a4.43 4.43 0 0 0 2-.4 3.63 3.63 0 0 0 1.33-1.13v-7.57a3.1 3.1 0 0 0-.49-.56 3.6 3.6 0 0 0-.74-.51 4.34 4.34 0 0 0-.95-.37A4.45 4.45 0 0 0 731 115a3.28 3.28 0 0 0-2.83 1.37 6.69 6.69 0 0 0-1 3.95 9.08 9.08 0 0 0 .25 2.21 5.13 5.13 0 0 0 .73 1.69 3.31 3.31 0 0 0 1.2 1.08 3.49 3.49 0 0 0 1.65.4zM751.27 130.37a9.67 9.67 0 0 1-3.74-.69 7.64 7.64 0 0 1-2.81-2 8.88 8.88 0 0 1-1.78-3.16 14.49 14.49 0 0 1 0-8.39 8.71 8.71 0 0 1 1.79-3.14 7.75 7.75 0 0 1 2.82-2 9.61 9.61 0 0 1 3.72-.69 9.92 9.92 0 0 1 3.32.55 7.2 7.2 0 0 1 2.69 1.66 7.89 7.89 0 0 1 1.79 2.8 11 11 0 0 1 .66 4v1.34a13.15 13.15 0 0 1-.13 1.54h-12.48a4.28 4.28 0 0 0 .44 1.64 4.07 4.07 0 0 0 .92 1.21 3.87 3.87 0 0 0 1.27.75 4.44 4.44 0 0 0 1.52.26 5.32 5.32 0 0 0 2.3-.47 5.11 5.11 0 0 0 1.81-1.51l3 3a8.9 8.9 0 0 1-3 2.36 9.17 9.17 0 0 1-4.11.94zm0-15.77a4.39 4.39 0 0 0-2.8.86 3.81 3.81 0 0 0-1.31 2.67H755a4.18 4.18 0 0 0-1.24-2.61 3.53 3.53 0 0 0-2.49-.91zM792.26 129.92v-11.26a5.25 5.25 0 0 0-.29-1.93 2.87 2.87 0 0 0-.73-1.11 2.1 2.1 0 0 0-1-.49 5.05 5.05 0 0 0-1-.11 5.83 5.83 0 0 0-1.14.12 2.57 2.57 0 0 0-1.08.49 2.78 2.78 0 0 0-.8 1.09 4.72 4.72 0 0 0-.32 1.9v11.29H781v-11.25a5.25 5.25 0 0 0-.29-1.93 2.87 2.87 0 0 0-.73-1.11 2.1 2.1 0 0 0-1-.49 5.19 5.19 0 0 0-1-.11 5.62 5.62 0 0 0-1.11.12 2.63 2.63 0 0 0-1.08.49 2.73 2.73 0 0 0-.81 1.09 4.72 4.72 0 0 0-.32 1.9v11.29h-4.86v-19.12h4.86v1.77a5.65 5.65 0 0 1 1.88-1.62 5.56 5.56 0 0 1 2.65-.59 6 6 0 0 1 3 .69 4.71 4.71 0 0 1 1.88 2 6 6 0 0 1 2.56-2 8.51 8.51 0 0 1 3.31-.64 10.33 10.33 0 0 1 2.83.37 5.59 5.59 0 0 1 2.27 1.25 5.94 5.94 0 0 1 1.51 2.33 10.3 10.3 0 0 1 .55 3.61v12h-4.88zM808.93 130.37a9.31 9.31 0 0 1-3.65-.69 7.54 7.54 0 0 1-2.77-2 8.93 8.93 0 0 1-1.76-3.14 14.49 14.49 0 0 1 0-8.39 9 9 0 0 1 1.76-3.16 7.51 7.51 0 0 1 2.77-2 10.08 10.08 0 0 1 7.31 0 7.52 7.52 0 0 1 2.77 2 8.93 8.93 0 0 1 1.75 3.16 14.69 14.69 0 0 1 0 8.39 8.83 8.83 0 0 1-1.75 3.14 7.55 7.55 0 0 1-2.77 2 9.31 9.31 0 0 1-3.66.69zm0-4.68a3.62 3.62 0 0 0 1.64-.37 3.39 3.39 0 0 0 1.23-1.05 5.09 5.09 0 0 0 .78-1.67 9.27 9.27 0 0 0 0-4.48 5.22 5.22 0 0 0-.78-1.68 3.38 3.38 0 0 0-1.23-1.06 3.88 3.88 0 0 0-3.29 0 3.37 3.37 0 0 0-1.23 1.06 5.22 5.22 0 0 0-.78 1.68 9.27 9.27 0 0 0 0 4.48 5.09 5.09 0 0 0 .78 1.67 3.38 3.38 0 0 0 1.23 1.05 3.61 3.61 0 0 0 1.65.38zM820.89 129.92v-19.13h4.86v1.7A3.64 3.64 0 0 1 827 111a3.86 3.86 0 0 1 2.27-.61 5.6 5.6 0 0 1 2.13.38 6.58 6.58 0 0 1 1.76 1.08l-.66 4.44a7.37 7.37 0 0 0-1.53-.79 5.45 5.45 0 0 0-2-.32 4.18 4.18 0 0 0-1.23.18 2.52 2.52 0 0 0-1.05.64 3.22 3.22 0 0 0-.73 1.26 6.38 6.38 0 0 0-.27 2v10.67h-4.86zM843.46 130.37a9.67 9.67 0 0 1-3.74-.69 7.64 7.64 0 0 1-2.81-2 8.88 8.88 0 0 1-1.78-3.16 14.49 14.49 0 0 1 0-8.39 8.71 8.71 0 0 1 1.79-3.14 7.75 7.75 0 0 1 2.82-2 9.61 9.61 0 0 1 3.72-.69 9.92 9.92 0 0 1 3.32.55 7.2 7.2 0 0 1 2.69 1.66 7.89 7.89 0 0 1 1.79 2.8 11 11 0 0 1 .66 4v1.34a13.15 13.15 0 0 1-.13 1.54h-12.48a4.28 4.28 0 0 0 .44 1.64 4.07 4.07 0 0 0 .92 1.21 3.87 3.87 0 0 0 1.27.75 4.44 4.44 0 0 0 1.52.26 5.32 5.32 0 0 0 2.3-.47 5.11 5.11 0 0 0 1.81-1.51l3 3a8.9 8.9 0 0 1-3 2.36 9.17 9.17 0 0 1-4.11.94zm0-15.77a4.39 4.39 0 0 0-2.8.86 3.81 3.81 0 0 0-1.31 2.67h7.82a4.18 4.18 0 0 0-1.24-2.61 3.53 3.53 0 0 0-2.47-.91zM856.59 130.37a3.27 3.27 0 0 1-1.25-.24 3.12 3.12 0 0 1-1-.65 2.93 2.93 0 0 1-.66-1 3.08 3.08 0 0 1-.24-1.21 3.13 3.13 0 0 1 .24-1.22 3 3 0 0 1 1.65-1.64 3.42 3.42 0 0 1 2.5 0 3.1 3.1 0 0 1 1.68 1.64 3 3 0 0 1 .25 1.22 3 3 0 0 1-.92 2.18 3.23 3.23 0 0 1-1 .65 3.27 3.27 0 0 1-1.25.27zM882.66 110.84a4.57 4.57 0 0 0-.64-1.1 4.2 4.2 0 0 0-1-.89 4.6 4.6 0 0 0-1.28-.58 5.74 5.74 0 0 0-1.6-.21 4.36 4.36 0 0 0-2.57.66 2.14 2.14 0 0 0-.92 1.85 1.7 1.7 0 0 0 .58 1.32 5.83 5.83 0 0 0 1.53 1 19.49 19.49 0 0 0 2.17.81q1.21.38 2.49.85a20.78 20.78 0 0 1 2.49 1.1 9.09 9.09 0 0 1 2.17 1.55 6.91 6.91 0 0 1 2.12 5.23 7.59 7.59 0 0 1-.73 3.4 7.36 7.36 0 0 1-2 2.5 8.84 8.84 0 0 1-3 1.55 12.78 12.78 0 0 1-3.74.53 11.49 11.49 0 0 1-3.45-.5 10.21 10.21 0 0 1-2.91-1.43 9.89 9.89 0 0 1-2.27-2.27 11.17 11.17 0 0 1-1.53-3l4.6-1.72a8.38 8.38 0 0 0 1 1.67 6.83 6.83 0 0 0 1.32 1.3 6 6 0 0 0 1.58.84 5.36 5.36 0 0 0 1.82.3 6.87 6.87 0 0 0 1.73-.2 3.93 3.93 0 0 0 1.33-.6 2.75 2.75 0 0 0 .86-1 3 3 0 0 0 .3-1.38 2.3 2.3 0 0 0-.58-1.6 5.24 5.24 0 0 0-1.53-1.13 14.76 14.76 0 0 0-2.16-.88l-2.48-.83a23 23 0 0 1-2.48-1 9 9 0 0 1-2.17-1.44 6.77 6.77 0 0 1 .2-10.07 8.41 8.41 0 0 1 2.78-1.56 11.39 11.39 0 0 1 3.76-.57 10.57 10.57 0 0 1 3.21.46 8.58 8.58 0 0 1 2.53 1.27 7.88 7.88 0 0 1 1.85 1.92 8.57 8.57 0 0 1 1.13 2.42zM903.62 129.92V118.7a4.83 4.83 0 0 0-.26-1.66 3.06 3.06 0 0 0-.71-1.14 2.81 2.81 0 0 0-1.06-.66 4 4 0 0 0-1.32-.21 5 5 0 0 0-1.41.19 3 3 0 0 0-1.15.62 2.94 2.94 0 0 0-.78 1.12 4.38 4.38 0 0 0-.28 1.67v11.29h-4.85v-24.78l4.86-2.25v9.7a5.89 5.89 0 0 1 2.17-1.66 7.07 7.07 0 0 1 2.95-.58 8.35 8.35 0 0 1 2.43.37 5.5 5.5 0 0 1 2.16 1.24 6.35 6.35 0 0 1 1.53 2.32 9.65 9.65 0 0 1 .58 3.6v12h-4.86zM923.26 129.92v-1.39a5.33 5.33 0 0 1-.79.68 5.9 5.9 0 0 1-1.09.59 7.19 7.19 0 0 1-1.38.42 8.49 8.49 0 0 1-1.69.15 9.17 9.17 0 0 1-2.76-.4 6.33 6.33 0 0 1-2.23-1.21 5.72 5.72 0 0 1-1.5-2 6.46 6.46 0 0 1-.55-2.75 5.81 5.81 0 0 1 .66-2.84 5.92 5.92 0 0 1 1.73-2 7.31 7.31 0 0 1 2.43-1.14 10.72 10.72 0 0 1 2.79-.37 11 11 0 0 1 2.44.25 9.42 9.42 0 0 1 1.95.67v-1a2.8 2.8 0 0 0-.9-2.3 4 4 0 0 0-2.56-.73 9.49 9.49 0 0 0-3.12.49 11.54 11.54 0 0 0-2.78 1.42l-1.5-3.93a12.24 12.24 0 0 1 1.52-.87 13.57 13.57 0 0 1 1.84-.72 14.31 14.31 0 0 1 2.11-.48 15.3 15.3 0 0 1 2.35-.17q.86 0 1.77.09a8.87 8.87 0 0 1 1.78.37 6.62 6.62 0 0 1 1.64.79 5.22 5.22 0 0 1 1.36 1.32 6.41 6.41 0 0 1 .92 2 10.22 10.22 0 0 1 .34 2.8v12.2h-4.79zm-4-3.82a5.37 5.37 0 0 0 2.32-.47 7 7 0 0 0 1.7-1.1v-2.06a10.65 10.65 0 0 0-1.67-.45 10.24 10.24 0 0 0-1.89-.17 8 8 0 0 0-1.42.12 4 4 0 0 0-1.17.38 2.19 2.19 0 0 0-.79.69 1.71 1.71 0 0 0-.29 1 1.74 1.74 0 0 0 .82 1.5 4.21 4.21 0 0 0 2.37.56zM931.79 129.92v-19.13h4.86v1.7a3.64 3.64 0 0 1 1.27-1.52 3.86 3.86 0 0 1 2.27-.61 5.6 5.6 0 0 1 2.13.38 6.58 6.58 0 0 1 1.76 1.08l-.66 4.44a7.37 7.37 0 0 0-1.53-.79 5.45 5.45 0 0 0-2-.32 4.18 4.18 0 0 0-1.23.18 2.52 2.52 0 0 0-1.05.64 3.22 3.22 0 0 0-.73 1.26 6.38 6.38 0 0 0-.27 2v10.67h-4.86zM954.35 130.37a9.67 9.67 0 0 1-3.74-.69 7.64 7.64 0 0 1-2.81-2 8.88 8.88 0 0 1-1.78-3.16 14.49 14.49 0 0 1 0-8.39 8.71 8.71 0 0 1 1.79-3.14 7.75 7.75 0 0 1 2.82-2 9.61 9.61 0 0 1 3.72-.69 9.92 9.92 0 0 1 3.32.55 7.2 7.2 0 0 1 2.69 1.66 7.89 7.89 0 0 1 1.79 2.8 11 11 0 0 1 .66 4v1.34a13.15 13.15 0 0 1-.13 1.54h-12.47a4.28 4.28 0 0 0 .44 1.64 4.07 4.07 0 0 0 .92 1.21 3.87 3.87 0 0 0 1.27.75 4.44 4.44 0 0 0 1.52.26 5.32 5.32 0 0 0 2.3-.47 5.11 5.11 0 0 0 1.81-1.51l3 3a8.9 8.9 0 0 1-3 2.36 9.17 9.17 0 0 1-4.12.94zm0-15.77a4.39 4.39 0 0 0-2.8.86 3.81 3.81 0 0 0-1.31 2.67h7.82a4.18 4.18 0 0 0-1.24-2.61 3.53 3.53 0 0 0-2.47-.91zM995.35 129.92v-11.26a5.25 5.25 0 0 0-.29-1.93 2.87 2.87 0 0 0-.73-1.11 2.1 2.1 0 0 0-1-.49 5.05 5.05 0 0 0-1-.11 5.83 5.83 0 0 0-1.14.12 2.57 2.57 0 0 0-1.08.49 2.78 2.78 0 0 0-.8 1.09 4.72 4.72 0 0 0-.32 1.9v11.29h-4.86v-11.25a5.25 5.25 0 0 0-.29-1.93 2.87 2.87 0 0 0-.73-1.11 2.1 2.1 0 0 0-1-.49 5.19 5.19 0 0 0-1-.11 5.62 5.62 0 0 0-1.11.12 2.63 2.63 0 0 0-1.08.49 2.73 2.73 0 0 0-.81 1.09 4.72 4.72 0 0 0-.32 1.9v11.29h-4.86v-19.12h4.86v1.77a5.65 5.65 0 0 1 1.88-1.62 5.56 5.56 0 0 1 2.65-.59 6 6 0 0 1 3 .69 4.71 4.71 0 0 1 1.88 2 6 6 0 0 1 2.56-2 8.51 8.51 0 0 1 3.31-.64 10.33 10.33 0 0 1 2.83.37 5.59 5.59 0 0 1 2.27 1.25 5.94 5.94 0 0 1 1.51 2.33 10.3 10.3 0 0 1 .55 3.61v12h-4.88zM1012 130.37a9.31 9.31 0 0 1-3.65-.69 7.54 7.54 0 0 1-2.77-2 8.93 8.93 0 0 1-1.76-3.14 14.49 14.49 0 0 1 0-8.39 9 9 0 0 1 1.76-3.16 7.51 7.51 0 0 1 2.77-2 10.08 10.08 0 0 1 7.31 0 7.52 7.52 0 0 1 2.77 2 8.93 8.93 0 0 1 1.75 3.16 14.69 14.69 0 0 1 0 8.39 8.83 8.83 0 0 1-1.75 3.14 7.55 7.55 0 0 1-2.77 2 9.31 9.31 0 0 1-3.66.69zm0-4.68a3.62 3.62 0 0 0 1.64-.37 3.39 3.39 0 0 0 1.23-1.05 5.09 5.09 0 0 0 .78-1.67 9.27 9.27 0 0 0 0-4.48 5.22 5.22 0 0 0-.78-1.68 3.38 3.38 0 0 0-1.23-1.06 3.88 3.88 0 0 0-3.29 0 3.37 3.37 0 0 0-1.23 1.06 5.22 5.22 0 0 0-.78 1.68 9.27 9.27 0 0 0 0 4.48 5.09 5.09 0 0 0 .78 1.67 3.38 3.38 0 0 0 1.23 1.05 3.61 3.61 0 0 0 1.65.38zM1024 129.92v-19.13h4.86v1.7a3.64 3.64 0 0 1 1.27-1.52 3.86 3.86 0 0 1 2.27-.61 5.6 5.6 0 0 1 2.13.38 6.58 6.58 0 0 1 1.76 1.08l-.66 4.44a7.37 7.37 0 0 0-1.53-.79 5.45 5.45 0 0 0-2-.32 4.18 4.18 0 0 0-1.23.18 2.52 2.52 0 0 0-1.05.64 3.22 3.22 0 0 0-.73 1.26 6.38 6.38 0 0 0-.27 2v10.67H1024zM1046.54 130.37a9.67 9.67 0 0 1-3.74-.69 7.64 7.64 0 0 1-2.81-2 8.88 8.88 0 0 1-1.78-3.16 14.49 14.49 0 0 1 0-8.39A8.71 8.71 0 0 1 1040 113a7.75 7.75 0 0 1 2.82-2 9.61 9.61 0 0 1 3.72-.69 9.92 9.92 0 0 1 3.32.55 7.2 7.2 0 0 1 2.69 1.66 7.89 7.89 0 0 1 1.79 2.8 11 11 0 0 1 .66 4v1.34a13.15 13.15 0 0 1-.13 1.54h-12.47a4.28 4.28 0 0 0 .44 1.64 4.07 4.07 0 0 0 .92 1.21 3.87 3.87 0 0 0 1.27.75 4.44 4.44 0 0 0 1.52.26 5.32 5.32 0 0 0 2.3-.47 5.11 5.11 0 0 0 1.81-1.51l3 3a8.9 8.9 0 0 1-3 2.36 9.17 9.17 0 0 1-4.12.93zm0-15.77a4.39 4.39 0 0 0-2.8.86 3.81 3.81 0 0 0-1.31 2.67h7.82a4.18 4.18 0 0 0-1.24-2.61 3.53 3.53 0 0 0-2.47-.91zM1059.68 130.37a3.27 3.27 0 0 1-1.25-.24 3.12 3.12 0 0 1-1-.65 2.93 2.93 0 0 1-.66-1 3.08 3.08 0 0 1-.24-1.21 3.13 3.13 0 0 1 .24-1.22 3 3 0 0 1 1.65-1.64 3.42 3.42 0 0 1 2.5 0 3.1 3.1 0 0 1 1.68 1.64 3 3 0 0 1 .25 1.22 3 3 0 0 1-.92 2.18 3.23 3.23 0 0 1-1 .65 3.27 3.27 0 0 1-1.25.27z"/></svg>