<svg id="Layer_1" xmlns="http://www.w3.org/2000/svg" viewBox="0 0 30 30"><style>.st0{fill:#FFF}</style><title>home_join_icons_</title><path class="st0" d="M15.2 23.7c-.1 0-.2 0-.2-.1l-7.5-9c-.3-.3-.4-.7-.3-1.1.2-.4.6-.6 1-.4l3.2.5V3c0-.2.1-.3.3-.3h7.1c.2 0 .3.2.3.3v10.6l3.2-.5h.2c.3 0 .6.1.8.4.1.4 0 .8-.3 1.1l-7.4 9c-.2.1-.3.1-.4.1zM8 13.7c-.1 0-.2 0-.2.1 0 .2.1.3.2.4l7.2 8.7 7.2-8.7c.1-.1.2-.3.2-.4-.1-.1-.2-.1-.3-.1l-3.5.5c-.2 0-.3-.1-.3-.3V3.3H12V14c0 .2-.1.3-.3.3l-3.5-.5-.2-.1zM22.4 27.8H8c-.2 0-.3-.1-.3-.3v-2.3c0-.2.1-.3.3-.3h14.4c.2 0 .3.1.3.3v2.3c0 .1-.1.2-.3.3zm-14.1-.7h13.9v-1.7H8.3v1.7z"/></svg>