<svg id="Layer_1" xmlns="http://www.w3.org/2000/svg" viewBox="0 0 30 30"><style>.st0{fill:#FFF}</style><title>home_join_icons_</title><path class="st0" d="M23.7 24.9H13.3c-.1 0-.2.1-.2.2v1.7c0 .1.1.2.2.2h10.4c.1 0 .2-.1.2-.2v-1.7c0-.1-.1-.2-.2-.2zm-.2 1.6h-10v-1.2h10v1.2zM24.7 7.4c-1.2-3.8-5.2-6-9.1-4.8-2.3.7-4.1 2.5-4.8 4.8-2.5-.9-5.3.4-6.2 2.9-.1.2-.1.3-.1.5-2 .1-3.7 1.5-4.2 3.5 0 .2.1.3.2.4h13l-.5.7c-.2.2-.3.5-.2.8.1.2.3.3.6.3h.1l2.3-.3v7.6c0 .1.1.2.2.2h5.1c.1 0 .2-.1.2-.2v-7.7l2.3.3c.3.1.6-.1.7-.3.1-.3-.1-.6-.3-.8l-.6-.8h5.8c.1 0 .3-.1.3-.2.5-3.1-1.6-6.2-4.8-6.9zm-.8 8.6H23.6l-2.5-.4c-.1 0-.2.1-.3.2v7.7h-4.7v-7.6c0-.1-.1-.2-.2-.2l-2.5.4h-.2c0-.1.1-.2.2-.3l5.2-6.3 5.2 6.3c0 .1 0 .2.1.2zm5-1.9h-6L18.7 9c-.1-.1-.2-.1-.3 0l-4.3 5.1H1c.5-1.6 2-2.6 3.7-2.6.2 0 .3-.1.3-.2.4-2.3 2.6-3.8 4.9-3.4.3.1.6.1.9.3.6.3 1.1.7 1.4 1.2 0 .1.1.1.2.1h.1c.1-.1.1-.2.1-.3-.3-.5-.7-.9-1.2-1.2 1-3.6 4.6-5.7 8.2-4.7 2.2.6 3.9 2.2 4.6 4.4-.5 0-1 .1-1.4.3-.1.1-.1.2-.1.3.1.1.1.1.2.1.5-.4 1.1-.5 1.7-.4 2.6.5 4.4 2.8 4.4 5.4 0 .3 0 .5-.1.7z"/></svg>