<?xml version="1.0" encoding="utf-8"?>
<!-- Generator: Adobe Illustrator 16.0.0, SVG Export Plug-In . SVG Version: 6.00 Build 0)  -->
<!DOCTYPE svg PUBLIC "-//W3C//DTD SVG 1.1//EN" "http://www.w3.org/Graphics/SVG/1.1/DTD/svg11.dtd">
<svg version="1.1" id="Layer_1" xmlns="http://www.w3.org/2000/svg" xmlns:xlink="http://www.w3.org/1999/xlink" x="0px" y="0px"
	 width="393.1px" height="126.2px" viewBox="122.4 337.6 393.1 126.2" enable-background="new 122.4 337.6 393.1 126.2"
	 xml:space="preserve">
<path fill="#FFFFFF" d="M238.5,435c-2.4-0.6-5-0.9-7.6-0.9c-4.5,0-8.5,0.801-11.5,2c-0.3,0.2-0.6,0.5-0.6,0.9c0,0.1,0,0.3,0.1,0.4
	c0.4,1-0.2,2.1-3.1,2.8c-4.3,0.899-7,5.399-8.6,6.899c-1.8,1.7-7,2.801-6.2,1.801c0.6-0.801,2.9-3.301,4.3-6
	c1.3-2.4,2.4-3.101,3.9-5.4c0.5-0.7,2.2-3.1,2.7-5c0.6-1.8,0.4-4.2,0.6-5.1c0.3-1.4,1.6-4.4,1.7-6c0.1-1-4,1.399-5.9,1.399
	c-1.9,0-3.8-1.1-5.5-1.2c-2.1-0.1-3.5,1.601-5.4,1.301c-1.1-0.2-2-1.101-3.9-1.2c-2.7-0.101-6,1.5-12.3,1.3
	c-6.1-0.2-11.8-7.8-12.6-9c-0.9-1.4-2-1.4-3.2-0.3c-1.2,1.1-2.7,0.2-3.1-0.5c-0.8-1.4-3-5.5-6.3-6.4c-4.6-1.2-7,2.601-6.6,5.5
	c0.3,3,2.3,3.9,3.2,5.5c0.9,1.601,1.4,2.601,3.1,3.4c1.2,0.5,1.7,1.3,1.3,2.2c-0.3,0.899-1.6,1.1-2.4,1.1c-1.8,0.1-3-0.4-3.9-1
	c-1-0.7-1.9-1.6-2.8-3.2c-1.1-1.7-2.7-2.5-4.7-2.5c-0.9,0-1.8,0.2-2.6,0.601c-3,1.6-6.6,2.5-10.5,2.5h-4.4
	c8.4,25,32,42.899,59.8,42.899C207.7,463.8,227.3,452.3,238.5,435L238.5,435z"/>
<path d="M248,431.6h0.6l0.9,1.4h0.6l-0.9-1.4c0.5-0.1,0.8-0.3,0.8-0.899c0-0.601-0.4-0.9-1.1-0.9h-1.2v3.3h0.5v-1.5H248z M248,431.2
	v-1h0.7c0.3,0,0.7,0.1,0.7,0.5c0,0.5-0.4,0.5-0.8,0.5H248z"/>
<path d="M251.8,431.4c0,1.8-1.4,3.199-3.2,3.199c-1.8,0-3.2-1.399-3.2-3.199c0-1.801,1.4-3.2,3.2-3.2
	C250.3,428.2,251.8,429.7,251.8,431.4z M248.6,428.8c-1.5,0-2.6,1.2-2.6,2.601c0,1.399,1.2,2.6,2.6,2.6s2.6-1.2,2.6-2.6
	C251.2,430,250,428.8,248.6,428.8z"/>
<path d="M238.5,435c-2.4-0.6-5-0.9-7.6-0.9c-4.5,0-8.5,0.801-11.5,2c-0.3,0.2-0.6,0.5-0.6,0.9c0,0.1,0,0.3,0.1,0.4
	c0.4,1-0.2,2.1-3.1,2.8c-4.3,0.899-7,5.399-8.6,6.899c-1.8,1.7-7,2.801-6.2,1.801c0.6-0.801,2.9-3.301,4.3-6
	c1.3-2.4,2.4-3.101,3.9-5.4c0.5-0.7,2.2-3.1,2.7-5c0.6-1.8,0.4-4.2,0.6-5.1c0.3-1.4,1.6-4.4,1.7-6c0.1-1-4,1.399-5.9,1.399
	c-1.9,0-3.8-1.1-5.5-1.2c-2.1-0.1-3.5,1.601-5.4,1.301c-1.1-0.2-2-1.101-3.9-1.2c-2.7-0.101-6,1.5-12.3,1.3
	c-6.1-0.2-11.8-7.8-12.6-9c-0.9-1.4-2-1.4-3.2-0.3c-1.2,1.1-2.7,0.2-3.1-0.5c-0.8-1.4-3-5.5-6.3-6.4c-4.6-1.2-7,2.601-6.6,5.5
	c0.3,3,2.3,3.9,3.2,5.5c0.9,1.601,1.4,2.7,3.1,3.4c1.2,0.5,1.7,1.2,1.3,2.2c-0.3,0.899-1.6,1.1-2.4,1.1c-1.8,0.1-3-0.4-3.9-1
	c-1-0.7-1.9-1.6-2.8-3.2c-1.1-1.7-2.7-2.5-4.7-2.5c-0.9,0-1.8,0.2-2.6,0.601c-3,1.6-6.6,2.5-10.5,2.5h-4.4
	c-2.1-6.301-3.3-13.101-3.3-20.2c0-34.8,28.2-63.1,63.1-63.1c34.8,0,63.1,28.2,63.1,63.1C248.6,413.4,244.9,425.1,238.5,435
	L238.5,435z"/>
<path d="M280.8,404.7c0-5.8-0.1-10-0.4-13.9h9.5l0.4,8.2h0.3c2.1-6.1,7.2-9.2,11.8-9.2c1.1,0,1.7,0,2.6,0.2v10.3
	c-1-0.2-2-0.3-3.3-0.3c-5.2,0-8.8,3.3-9.8,8.3c-0.2,1-0.3,2.101-0.3,3.3V434h-10.9L280.8,404.7z"/>
<path d="M318.2,415.4c0.3,7.8,6.399,11.3,13.399,11.3c5,0,8.601-0.8,11.9-2l1.6,7.5c-3.699,1.6-8.8,2.7-15.1,2.7
	c-14,0-22.3-8.7-22.3-21.9c0-11.9,7.2-23.2,21.1-23.2c14.101,0,18.601,11.601,18.601,21c0,2-0.2,3.7-0.4,4.7L318.2,415.4z
	 M337.2,407.7c0-4-1.7-10.5-9-10.5c-6.7,0-9.5,6.1-10,10.5H337.2z"/>
<path d="M383.7,415.3c0,1.101-0.101,2.2-0.3,3.2c-1.101,4.7-5,7.8-9.4,7.8c-6.9,0-10.8-5.8-10.8-13.7
	c0-8,3.899-14.199,10.899-14.199c4.9,0,8.4,3.5,9.4,7.699c0.2,0.9,0.2,2,0.2,2.9V415.3z M394.6,374.2l-10.899-3.1v24.4h-0.2
	c-1.9-3.2-6.2-5.6-12.1-5.6c-10.4,0-19.4,8.6-19.4,23.1c0,13.3,8.2,22.1,18.5,22.1c6.2,0,11.5-3,14-7.8h0.2l0.5,6.8h9.7
	c-0.2-2.899-0.4-7.699-0.4-12.1v-47.8H394.6z"/>
<path d="M423.5,389.8c-3.3,0-6.2,0.9-8.7,2.5c-2.6,1.5-4.7,3.8-5.899,6.2h-0.2v-20.2l-4.3-1.3v57h4.3v-26.5c0-1.8,0.1-3,0.6-4.3
	c1.8-5.4,6.9-9.8,13-9.8c8.9,0,11.9,7.1,11.9,14.9V434h4.3v-26.1C438.5,391.8,427.6,389.8,423.5,389.8L423.5,389.8z"/>
<path d="M476.9,423.8c0,3.4,0.1,7,0.6,10.3h-3.9L473,427.9h-0.2c-2.1,3.3-6.899,7.199-13.8,7.199c-8.7,0-12.8-6.1-12.8-11.899
	c0-10,8.8-16,26.399-15.8v-1.2c0-4.3-0.8-12.8-11.1-12.7c-3.8,0-7.7,1-10.9,3.2l-1.399-3.1c4-2.7,8.8-3.7,12.7-3.7
	c12.5,0,14.899,9.4,14.899,17.1v16.8H476.9z M472.7,410.9c-9.4-0.301-21.9,1.199-21.9,11.5c0,6.199,4.101,9,8.601,9
	c7.199,0,11.3-4.5,12.8-8.7c0.3-0.9,0.399-1.9,0.399-2.601V410.9H472.7z"/>
<path d="M494,381.2v9.5h12.3v3.5H494v28.1c0,5.5,1.7,8.9,6.4,8.9c2.199,0,3.8-0.3,4.899-0.7l0.5,3.3c-1.399,0.601-3.399,1-6,1
	c-3.2,0-5.8-1-7.5-3.1c-2-2.3-2.6-5.9-2.6-10.3V394h-7.3v-3.5h7.3v-8L494,381.2z"/>
<path d="M511.7,431.7h0.6l0.9,1.399h0.6L512.9,431.7c0.5-0.101,0.8-0.3,0.8-0.9c0-0.6-0.4-0.899-1.2-0.899h-1.2v3.3h0.5v-1.5H511.7z
	 M511.7,431.3v-1h0.7c0.3,0,0.699,0.101,0.699,0.5c0,0.5-0.399,0.5-0.8,0.5H511.7z"/>
<path d="M515.5,431.5c0,1.8-1.4,3.2-3.2,3.2s-3.2-1.4-3.2-3.2s1.4-3.2,3.2-3.2S515.5,429.8,515.5,431.5z M512.3,428.9
	c-1.5,0-2.6,1.199-2.6,2.6s1.2,2.6,2.6,2.6c1.4,0,2.601-1.199,2.601-2.6S513.7,428.9,512.3,428.9z"/>
<path d="M199.4,429.2c0.3,0.3,0.9,1.399,0.2,2.7c-0.4,0.699-0.8,1.199-1.5,1.8c-0.9,0.7-2.6,1.5-5,0c-1.3-0.8-1.4-1.101-3.1-0.9
	c-1.3,0.2-1.8-1.1-1.3-2.2c0.5-1.1,2.3-1.899,4.6-0.6c1,0.6,2.7,1.9,4.1,0.8c0.6-0.5,0.9-0.8,1.8-1.7l0.1-0.1
	C199.3,429.2,199.4,429.2,199.4,429.2L199.4,429.2z"/>
<path fill="#CC0000" d="M180.6,367.7c-7.3,0.5-8,1.3-9.4,2.8c-1.9,2.1-4.5-2.7-4.5-2.7c-1.5-0.3-3.4-2.8-2.4-5.1
	c1-2.3,2.8-1.6,3.4-0.9c0.7,0.9,2.2,2.3,4.1,2.2c1.9-0.1,4.1-0.5,7.2-0.5s5.2,1.2,5.3,2.2C184.4,366.6,184.1,367.4,180.6,367.7
	L180.6,367.7z M188.3,355.6c-0.1,0-0.2-0.1-0.2-0.2s0-0.1,0.1-0.2c1.4-0.7,3.5-1.3,5.9-1.6c0.7-0.1,1.4-0.1,2.1-0.1h0.4
	c4,0.1,7.3,1.7,7.2,3.6c0,1.9-3.4,3.4-7.4,3.3c-1.3,0-2.5-0.2-3.6-0.5c-0.1,0-0.2-0.1-0.2-0.3c0-0.1,0.1-0.2,0.2-0.3
	c2.5-0.6,4.2-1.5,4.1-2.4c-0.2-1.2-3.5-1.8-7.4-1.5C189.1,355.5,188.7,355.6,188.3,355.6L188.3,355.6z M221.1,383.9
	c-0.6,2.1-1.5,4.8-5.5,6.8c-0.6,0.3-0.8-0.2-0.5-0.6c1.5-2.5,1.8-3.2,2.2-4.2c0.6-1.5,0.9-3.5-0.3-7.9c-2.4-8.5-7.3-20-10.9-23.7
	c-3.5-3.6-9.8-4.6-15.5-3.1c-2.1,0.5-6.2,2.7-13.8,1c-13.2-3-15.1,3.6-15.9,6.5c-0.8,2.9-2.6,11-2.6,11c-0.6,3.3-1.4,9.1,19,13
	c9.5,1.8,10,4.3,10.4,6c0.8,3.2,2,5,3.3,5.9c1.4,0.9,0,1.7-1.5,1.8c-4.1,0.399-19-3.9-27.9-8.9c-7.2-4.4-7.4-8.4-5.7-11.8
	c-10.9-1.2-19.2,1-20.7,6.2c-2.6,8.9,19.6,24.1,44.7,31.7c26.4,8,53.6,2.4,56.6-14.199C238.2,391.9,231.9,386.3,221.1,383.9
	L221.1,383.9z"/>
</svg>
