<?xml version="1.0" encoding="utf-8"?>
<!-- Generator: Adobe Illustrator 16.0.4, SVG Export Plug-In . SVG Version: 6.00 Build 0)  -->
<!DOCTYPE svg PUBLIC "-//W3C//DTD SVG 1.1//EN" "http://www.w3.org/Graphics/SVG/1.1/DTD/svg11.dtd">
<svg version="1.1" id="Layer_1" xmlns="http://www.w3.org/2000/svg" xmlns:xlink="http://www.w3.org/1999/xlink" x="0px" y="0px"
	 width="97.495px" height="64.497px" viewBox="0 0 97.495 64.497" enable-background="new 0 0 97.495 64.497" xml:space="preserve">
<path fill="#231F20" d="M66.446,26.52c0.004-0.111,0.035-0.692,0.326-1.167c0.369-0.603,0.924-0.877,1.801-0.887
	c0.908-0.012,2.178-0.016,3.564-0.016h0.002c3.027,0,6.613,0.02,8.236,0.03l0.877-0.03c2.745,0,5.396,2.036,6.031,4.636l0.986,3.941
	c0.569,2.324,1.03,6.147,1.03,8.527v5.488c0,0.02-0.049,2.001-0.646,2.513c-0.268,0.23-0.296,0.254-2.632,0.254
	c-2.531,0-5.396-0.059-5.396-0.059l-1.052-0.004l-1.665,0.001c0.007,0.108,0.032,0.212,0.032,0.322c0,2.881-2.343,5.225-5.225,5.225
	c-2.881,0-5.227-2.344-5.227-5.225c0-0.107,0.025-0.209,0.032-0.315l-2.198,0.002H37.818h-1.75c0.009,0.128,0.039,0.251,0.039,0.381
	c0,2.882-2.345,5.227-5.226,5.227c-2.882,0-5.226-2.345-5.226-5.227c0-0.129,0.029-0.251,0.038-0.378l-2.227,0.001
	c-1.623,0.011-5.209,0.03-8.235,0.03c-0.001,0-0.002,0-0.002,0c-1.387,0-2.656-0.004-3.564-0.016
	c-0.877-0.01-1.433-0.284-1.802-0.887c-0.29-0.475-0.322-1.056-0.325-1.167l-0.024-5.414v-0.525v-0.297l0.013-1.145
	c0.003-0.111,0.035-0.692,0.325-1.167c0.369-0.603,0.925-0.877,1.802-0.887c0.908-0.012,2.178-0.016,3.564-0.016
	c0,0,0.001,0,0.002,0c3.026,0,6.612,0.02,8.235,0.03l0.979,0.012c1.621,0.01,34.942,0.029,37.965,0.029c0.001,0,0.001,0,0.001,0
	c1.38,0,2.642-0.002,3.546-0.014c0.298-0.004,0.376-0.051,0.408-0.096c0.04-0.068,0.077-0.244,0.082-0.328l0.013-4.092L66.446,26.52
	z M86.905,33.366l-0.986-3.94c-0.481-1.967-2.574-3.567-4.674-3.567l-0.877,0.029c-2.363-0.014-8.892-0.053-11.778-0.015
	c-0.28,0.003-0.491,0.038-0.621,0.22c-0.068,0.117-0.109,0.341-0.116,0.453l0.002,5.44l-0.013,5.94
	c-0.002,0.061-0.023,0.609-0.288,1.043c-0.324,0.529-0.801,0.758-1.592,0.768c-0.907,0.012-2.176,0.016-3.563,0.016
	c-3.233,0-36.343-0.02-37.972-0.031l-0.98-0.012c-2.362-0.014-8.892-0.052-11.776-0.015c-0.283,0.003-0.495,0.038-0.621,0.218
	c-0.071,0.12-0.111,0.346-0.117,0.452l-0.013,1.122l0.025,6.226c0.005,0.095,0.045,0.32,0.127,0.456
	c0.115,0.164,0.327,0.199,0.609,0.202c2.886,0.038,9.416,0,11.776-0.015l2.776-0.001l0.064-0.152
	c0.784-1.846,2.583-3.038,4.583-3.038c1.999,0,3.797,1.191,4.581,3.035l0.064,0.152l32.524-0.002l0.063-0.155
	c0.771-1.883,2.578-3.1,4.603-3.1c2.022,0,3.828,1.215,4.6,3.094l0.063,0.155l2.432-0.001c0.387,0.006,3.847,0.062,6.211,0.062
	c0.746,0,1.209-0.006,1.492-0.013l0.198-0.005l0.041-0.194c0.069-0.335,0.14-0.819,0.14-1.148v-5.488
	C87.894,39.267,87.45,35.594,86.905,33.366z M33.803,48.101c-0.646-0.922-1.712-1.53-2.922-1.53c-1.21,0-2.279,0.608-2.924,1.532
	c0,0-0.659,0.805-0.645,2.035c-0.013,0.126,0-0.13,0,0c0,1.969,1.602,3.569,3.569,3.569s3.568-1.601,3.568-3.569
	c0-0.13,0.014,0.126,0,0C34.485,49.033,33.803,48.101,33.803,48.101z M75.685,48.094c-0.64-0.959-1.73-1.593-2.968-1.593
	c-1.238,0-2.33,0.636-2.971,1.597c0,0-0.466,0.597-0.566,1.656c-0.01,0.106-0.032,0.208-0.032,0.316
	c0,1.968,1.602,3.567,3.569,3.567s3.568-1.6,3.568-3.567c0-0.11,0.01,0.107,0,0C76.235,48.783,75.685,48.094,75.685,48.094z"/>
<path fill="#231F20" d="M17.745,44.93c0.162,0.161,0.162,0.424,0,0.586c-0.081,0.081-0.187,0.121-0.293,0.121
	c-0.105,0-0.212-0.04-0.293-0.121l-3.952-3.951c-0.161-0.162-0.161-0.424,0-0.586"/>
<path fill="#231F20" d="M13.966,44.948c-0.105,0-0.212-0.04-0.292-0.121l-0.933-0.932c-0.162-0.162-0.162-0.424,0-0.586
	c0.162-0.161,0.424-0.161,0.586,0l0.932,0.932c0.162,0.162,0.162,0.425,0,0.586C14.178,44.908,14.072,44.948,13.966,44.948z"/>
<path fill="#231F20" d="M24.813,47.255H10.558c-0.229,0-0.414-0.186-0.414-0.415c0-0.229,0.186-0.413,0.414-0.413h14.256
	c0.229,0,0.414,0.185,0.414,0.413C25.228,47.07,25.042,47.255,24.813,47.255z"/>
<path fill="#231F20" d="M88.672,47.152H78.558c-0.229,0-0.414-0.186-0.414-0.414c0-0.229,0.185-0.415,0.414-0.415h10.114
	c0.229,0,0.415,0.186,0.415,0.415C89.087,46.966,88.901,47.152,88.672,47.152z"/>
<path fill="#231F20" d="M66.684,47.186H36.93c-0.229,0-0.414-0.186-0.414-0.415c0-0.229,0.185-0.413,0.414-0.413h29.754
	c0.229,0,0.414,0.185,0.414,0.413C67.098,47,66.912,47.186,66.684,47.186z"/>
<path fill="#231F20" d="M82.697,39.636l-11.215-0.01c-0.662,0-1.2-0.547-1.2-1.221v-9.434c0-0.673,0.547-1.22,1.22-1.22h9.436
	c0.538,0,1.215,0.303,1.572,0.705c0.091,0.102,0.909,1.092,1.697,4.462c0.096,0.354,0.182,0.728,0.269,1.102l0.062,0.264
	c0.238,1.013,0.394,2.037,0.503,2.816c0.048,0.335,0.063,0.6,0.05,0.854c-0.017,0.422-0.044,0.75-0.213,0.978
	c-0.173,0.234-0.393,0.497-0.814,0.631C83.993,39.585,83.832,39.636,82.697,39.636z M81.656,38.627l1.042,0.009
	c0.566,0,0.999-0.018,1.091-0.034c0.088-0.029,0.152-0.085,0.284-0.265c0.001-0.029,0.011-0.258,0.014-0.344
	c0.015-0.279,0.002-0.482-0.037-0.752c-0.106-0.76-0.258-1.755-0.486-2.729l-0.062-0.268c-0.084-0.362-0.167-0.724-0.264-1.083
	c-0.731-3.129-1.472-4.039-1.479-4.047c-0.164-0.184-0.565-0.364-0.82-0.364h-9.436c-0.119,0-0.22,0.101-0.22,0.22v9.434
	c0,0.119,0.092,0.221,0.2,0.221L81.656,38.627z"/>
<g>
	<path d="M64.755,11.164v23.64v0.933c0,0.388-0.315,0.702-0.703,0.702H10.873c-0.388,0-0.703-0.314-0.703-0.702v-0.933v-23.64
		c0-0.389,0.314-0.703,0.703-0.703h53.179C64.439,10.461,64.755,10.775,64.755,11.164z M63.35,11.867H11.575v22.234H63.35V11.867z"
		/>
	<path d="M17.028,32.331c0.194,0,0.351-0.157,0.351-0.351v-18c0-0.194-0.157-0.352-0.351-0.352s-0.352,0.157-0.352,0.352v18
		C16.677,32.174,16.834,32.331,17.028,32.331z"/>
	<path d="M23.826,32.331c0.194,0,0.351-0.157,0.351-0.351v-18c0-0.194-0.157-0.352-0.351-0.352s-0.352,0.157-0.352,0.352v18
		C23.475,32.174,23.632,32.331,23.826,32.331z"/>
	<path d="M30.644,32.331c0.194,0,0.352-0.157,0.352-0.351v-18c0-0.194-0.157-0.352-0.352-0.352c-0.194,0-0.351,0.157-0.351,0.352v18
		C30.293,32.174,30.45,32.331,30.644,32.331z"/>
	<path d="M37.462,32.453c0.194,0,0.351-0.157,0.351-0.352v-18c0-0.194-0.157-0.352-0.351-0.352s-0.352,0.157-0.352,0.352v18
		C37.111,32.296,37.268,32.453,37.462,32.453z"/>
	<path d="M44.28,32.331c0.194,0,0.352-0.157,0.352-0.351v-18c0-0.194-0.158-0.352-0.352-0.352c-0.195,0-0.351,0.157-0.351,0.352v18
		C43.929,32.174,44.085,32.331,44.28,32.331z"/>
	<path d="M51.1,32.331c0.193,0,0.351-0.157,0.351-0.351v-18c0-0.194-0.157-0.352-0.351-0.352c-0.195,0-0.352,0.157-0.352,0.352v18
		C50.748,32.174,50.904,32.331,51.1,32.331z"/>
	<path d="M57.917,32.331c0.194,0,0.351-0.157,0.351-0.351v-18c0-0.194-0.156-0.352-0.351-0.352c-0.193,0-0.352,0.157-0.352,0.352v18
		C57.565,32.174,57.724,32.331,57.917,32.331z"/>
</g>
</svg>
