<?xml version="1.0" encoding="utf-8"?>
<!-- Generator: Adobe Illustrator 16.0.4, SVG Export Plug-In . SVG Version: 6.00 Build 0)  -->
<!DOCTYPE svg PUBLIC "-//W3C//DTD SVG 1.1//EN" "http://www.w3.org/Graphics/SVG/1.1/DTD/svg11.dtd">
<svg version="1.1" id="Layer_1" xmlns="http://www.w3.org/2000/svg" xmlns:xlink="http://www.w3.org/1999/xlink" x="0px" y="0px"
	 width="81.818px" height="55.944px" viewBox="0 0 81.818 55.944" enable-background="new 0 0 81.818 55.944" xml:space="preserve">
<g>
	<path d="M67.866,6.204v23.64v0.934c0,0.388-0.315,0.702-0.703,0.702H13.984c-0.388,0-0.703-0.314-0.703-0.702v-0.934V6.204
		c0-0.389,0.314-0.703,0.703-0.703h53.179C67.551,5.501,67.866,5.815,67.866,6.204z M66.461,6.907H14.687v22.235h51.774V6.907z"/>
	<path d="M20.14,27.371c0.194,0,0.351-0.157,0.351-0.351v-18c0-0.194-0.157-0.352-0.351-0.352s-0.352,0.157-0.352,0.352v18
		C19.788,27.214,19.945,27.371,20.14,27.371z"/>
	<path d="M26.938,27.371c0.194,0,0.351-0.157,0.351-0.351v-18c0-0.194-0.157-0.352-0.351-0.352s-0.352,0.157-0.352,0.352v18
		C26.586,27.214,26.743,27.371,26.938,27.371z"/>
	<path d="M33.755,27.371c0.194,0,0.352-0.157,0.352-0.351v-18c0-0.194-0.157-0.352-0.352-0.352c-0.194,0-0.351,0.157-0.351,0.352v18
		C33.404,27.214,33.562,27.371,33.755,27.371z"/>
	<path d="M40.574,27.493c0.194,0,0.351-0.157,0.351-0.352v-18c0-0.194-0.157-0.352-0.351-0.352s-0.352,0.157-0.352,0.352v18
		C40.222,27.336,40.379,27.493,40.574,27.493z"/>
	<path d="M47.392,27.371c0.193,0,0.352-0.157,0.352-0.351v-18c0-0.194-0.158-0.352-0.352-0.352c-0.195,0-0.352,0.157-0.352,0.352v18
		C47.04,27.214,47.196,27.371,47.392,27.371z"/>
	<path d="M54.211,27.371c0.193,0,0.351-0.157,0.351-0.351v-18c0-0.194-0.157-0.352-0.351-0.352c-0.195,0-0.352,0.157-0.352,0.352v18
		C53.859,27.214,54.016,27.371,54.211,27.371z"/>
	<path d="M61.028,27.371c0.194,0,0.351-0.157,0.351-0.351v-18c0-0.194-0.156-0.352-0.351-0.352c-0.193,0-0.352,0.157-0.352,0.352v18
		C60.677,27.214,60.835,27.371,61.028,27.371z"/>
</g>
<g>
	<path d="M73.676,38.002H8.968c-0.276,0-0.5-0.225-0.5-0.5v-3.334c0-0.276,0.224-0.5,0.5-0.5h64.708c0.276,0,0.5,0.224,0.5,0.5
		v3.334C74.176,37.777,73.952,38.002,73.676,38.002z M9.468,37.002h63.708v-2.334H9.468V37.002z"/>
	<path d="M13.377,47.611c-2.374,0-4.305-1.932-4.305-4.305c0-2.374,1.931-4.305,4.305-4.305s4.305,1.931,4.305,4.305
		C17.682,45.68,15.75,47.611,13.377,47.611z M13.377,40.002c-1.822,0-3.305,1.482-3.305,3.305s1.482,3.305,3.305,3.305
		s3.305-1.482,3.305-3.305S15.199,40.002,13.377,40.002z"/>
	<path d="M59.148,47.611c-2.374,0-4.305-1.932-4.305-4.305c0-2.374,1.931-4.305,4.305-4.305s4.305,1.931,4.305,4.305
		C63.453,45.68,61.522,47.611,59.148,47.611z M59.148,40.002c-1.822,0-3.305,1.482-3.305,3.305s1.482,3.305,3.305,3.305
		s3.305-1.482,3.305-3.305S60.971,40.002,59.148,40.002z"/>
	<path d="M23.362,47.611c-2.374,0-4.305-1.932-4.305-4.305c0-2.374,1.931-4.305,4.305-4.305c2.374,0,4.305,1.931,4.305,4.305
		C27.667,45.68,25.736,47.611,23.362,47.611z M23.362,40.002c-1.822,0-3.305,1.482-3.305,3.305s1.482,3.305,3.305,3.305
		s3.305-1.482,3.305-3.305S25.185,40.002,23.362,40.002z"/>
	<path d="M69.135,47.611c-2.374,0-4.306-1.932-4.306-4.305c0-2.374,1.932-4.305,4.306-4.305c2.373,0,4.304,1.931,4.304,4.305
		C73.438,45.68,71.508,47.611,69.135,47.611z M69.135,40.002c-1.822,0-3.306,1.482-3.306,3.305s1.483,3.305,3.306,3.305
		c1.821,0,3.304-1.482,3.304-3.305S70.956,40.002,69.135,40.002z"/>
	<path d="M77.301,36.335h-3.625c-0.276,0-0.5-0.224-0.5-0.5s0.224-0.5,0.5-0.5h3.625c0.276,0,0.5,0.224,0.5,0.5
		S77.577,36.335,77.301,36.335z"/>
	<path d="M8.968,36.335H5.343c-0.276,0-0.5-0.224-0.5-0.5s0.224-0.5,0.5-0.5h3.625c0.276,0,0.5,0.224,0.5,0.5
		S9.244,36.335,8.968,36.335z"/>
</g>
</svg>
