<?xml version="1.0" encoding="utf-8"?>
<!-- Generated by IcoMoon.io -->
<!DOCTYPE svg PUBLIC "-//W3C//DTD SVG 1.1//EN" "http://www.w3.org/Graphics/SVG/1.1/DTD/svg11.dtd">
<svg version="1.1" xmlns="http://www.w3.org/2000/svg" xmlns:xlink="http://www.w3.org/1999/xlink" width="32" height="32" viewBox="0 0 32 32">
<g>
</g>
	<path d="M10.515 14.67c0.075 0.075 0.173 0.112 0.271 0.112s0.196-0.038 0.271-0.112l1.352-1.352 1.353 1.352c0.075 0.075 0.173 0.112 0.271 0.112s0.196-0.038 0.271-0.112c0.15-0.15 0.15-0.392 0-0.542l-1.352-1.352 1.352-1.352c0.15-0.15 0.15-0.392 0-0.542s-0.392-0.15-0.542 0l-1.353 1.352-1.353-1.352c-0.15-0.15-0.392-0.15-0.542 0s-0.15 0.392 0 0.542l1.352 1.352-1.352 1.352c-0.15 0.15-0.15 0.392 0 0.542zM26.162 13.758c-0.722-3.668-3.118-6.498-6.444-7.659l0.101-0.398c0.006-0.025 0-0.050-0.018-0.069-0.018-0.018-0.042-0.026-0.066-0.022l-1.431 0.258c-0.028 0.006-0.051 0.026-0.058 0.054v0c-0.007 0.028 0.002 0.057 0.025 0.075l1.135 0.92c0.019 0.016 0.045 0.021 0.069 0.013 0.025-0.008 0.042-0.028 0.048-0.052l0.083-0.327c3.148 1.115 5.417 3.811 6.102 7.296 0.753 3.826-0.824 8.102-3.928 10.748-0.332-0.384-0.821-0.628-1.367-0.628-0.998 0-1.81 0.812-1.81 1.809s0.812 1.809 1.81 1.809 1.809-0.812 1.809-1.809c0-0.284-0.067-0.551-0.184-0.79 3.258-2.751 4.914-7.225 4.126-11.23zM20.41 26.82c-0.575 0-1.043-0.468-1.043-1.043s0.468-1.043 1.043-1.043 1.043 0.468 1.043 1.043-0.467 1.043-1.043 1.043zM18.822 17.504c0.075 0.075 0.173 0.112 0.271 0.112s0.196-0.038 0.271-0.112l1.352-1.352 1.352 1.352c0.075 0.075 0.173 0.112 0.271 0.112s0.196-0.038 0.271-0.112c0.15-0.15 0.15-0.392 0-0.542l-1.352-1.352 1.353-1.353c0.15-0.15 0.15-0.392 0-0.542s-0.392-0.15-0.542 0l-1.352 1.353-1.352-1.353c-0.15-0.15-0.392-0.15-0.542 0-0.15 0.149-0.15 0.392 0 0.542l1.352 1.353-1.353 1.352c-0.15 0.15-0.15 0.392-0 0.542zM14.374 23.485c-0.15-0.15-0.392-0.15-0.542 0l-1.353 1.352-1.352-1.353c-0.15-0.15-0.392-0.15-0.542 0s-0.15 0.392 0 0.542l1.352 1.353-1.353 1.352c-0.15 0.15-0.15 0.392 0 0.542 0.075 0.075 0.173 0.112 0.271 0.112s0.196-0.038 0.271-0.112l1.353-1.352 1.352 1.352c0.075 0.075 0.173 0.112 0.271 0.112s0.196-0.038 0.271-0.112c0.15-0.15 0.15-0.392 0-0.542l-1.352-1.352 1.353-1.352c0.149-0.15 0.149-0.392-0.001-0.542zM17.172 20.128c-0.25 0-0.489 0.051-0.705 0.143l-2.182-3.993 1.11-0.606-0.22-0.403-2.622 1.433 0.22 0.403 1.11-0.606 2.189 4.006c-0.43 0.331-0.708 0.849-0.708 1.433 0 0.998 0.812 1.809 1.809 1.809 0.998 0 1.81-0.812 1.81-1.809 0.001-0.998-0.811-1.81-1.809-1.81zM17.172 22.981c-0.575 0-1.043-0.468-1.043-1.043s0.468-1.043 1.043-1.043 1.043 0.468 1.043 1.043-0.468 1.043-1.043 1.043zM9.401 20.672c-0.023-0.011-0.049-0.010-0.070 0.002l-0.319 0.19-3.835-5.552c-0.189-1.965 0.625-4.1 2.233-5.86 1.525-1.668 3.584-2.814 5.69-3.178 0.15 0.848 0.89 1.494 1.781 1.494 0.998 0 1.809-0.812 1.809-1.809s-0.812-1.809-1.809-1.809c-0.946 0-1.724 0.731-1.802 1.657-2.243 0.374-4.434 1.593-6.045 3.376-1.69 1.871-2.533 4.144-2.313 6.238l0.005 0.049 3.886 5.634-0.325 0.194c-0.022 0.013-0.036 0.036-0.036 0.060-0 0.026 0.011 0.048 0.032 0.063l1.195 0.829c0.023 0.016 0.054 0.018 0.079 0.003h0.001c0.025-0.015 0.039-0.042 0.036-0.071l-0.152-1.453c-0.003-0.026-0.018-0.048-0.041-0.059zM14.881 4.916c0.575 0 1.043 0.468 1.043 1.043s-0.468 1.043-1.043 1.043c-0.575 0-1.043-0.468-1.043-1.043s0.468-1.043 1.043-1.043z" fill="#000000" />
</svg>
