<?xml version="1.0" encoding="utf-8"?>
<!-- Generated by IcoMoon.io -->
<!DOCTYPE svg PUBLIC "-//W3C//DTD SVG 1.1//EN" "http://www.w3.org/Graphics/SVG/1.1/DTD/svg11.dtd">
<svg version="1.1" xmlns="http://www.w3.org/2000/svg" xmlns:xlink="http://www.w3.org/1999/xlink" width="32" height="32" viewBox="0 0 32 32">
<g>
</g>
	<path d="M9.258 16.030c-0.007 0-0.014-0.001-0.022-0.002-1.262-0.178-2.334-0.404-3.184-0.671-0.081-0.025-0.126-0.111-0.1-0.192 0.025-0.081 0.11-0.126 0.192-0.1 0.834 0.262 1.888 0.484 3.135 0.66 0.084 0.012 0.142 0.090 0.13 0.174-0.011 0.077-0.076 0.132-0.152 0.132zM15.658 16.516c-1.283 0-2.544-0.044-3.746-0.131-0.126-0.009-0.222-0.119-0.212-0.246 0.009-0.127 0.12-0.221 0.246-0.213 1.191 0.086 2.441 0.13 3.713 0.13 3.917 0 7.511-0.413 9.614-1.105 0.12-0.040 0.251 0.026 0.29 0.146 0.040 0.121-0.026 0.251-0.147 0.29-2.146 0.706-5.794 1.128-9.757 1.128zM15.658 23.62c-5.865 0-11.801-0.937-11.801-2.727l0-7.027c0-1.791 5.937-2.727 11.801-2.727 5.865 0 11.802 0.937 11.802 2.727v7.026c-0 1.791-5.937 2.728-11.802 2.728zM15.658 11.751c-6.932 0-11.188 1.232-11.188 2.114v7.026c0 0.883 4.257 2.114 11.188 2.114 6.932 0 11.189-1.232 11.189-2.114v-7.027c0-0.883-4.256-2.114-11.189-2.114z" fill="#000000" />
</svg>
