<?xml version="1.0" encoding="utf-8"?>
<!-- Generated by IcoMoon.io -->
<!DOCTYPE svg PUBLIC "-//W3C//DTD SVG 1.1//EN" "http://www.w3.org/Graphics/SVG/1.1/DTD/svg11.dtd">
<svg version="1.1" xmlns="http://www.w3.org/2000/svg" xmlns:xlink="http://www.w3.org/1999/xlink" width="32" height="32" viewBox="0 0 32 32">
<g>
</g>
	<path d="M18.25 15.758h-4.343v-4.342h3.994l-1.826 2.596-0.77-1.368c-0.062-0.11-0.202-0.15-0.313-0.088-0.111 0.062-0.15 0.202-0.087 0.313l0.949 1.686c0.038 0.069 0.11 0.113 0.189 0.117 0.004 0 0.008 0 0.011 0 0.075 0 0.145-0.036 0.189-0.097l2.008-2.854-0 4.037zM19.222 9.939c-0.104-0.073-0.248-0.048-0.32 0.056l-0.569 0.808h-4.733c-0.17 0-0.306 0.138-0.306 0.306v4.955c0 0.17 0.137 0.306 0.306 0.306l4.955 0c0.169 0 0.306-0.137 0.306-0.306v-4.955c0-0.066-0.026-0.123-0.061-0.174l0.476-0.677c0.073-0.104 0.048-0.247-0.056-0.32zM16.403 20.943l1.846-1.846v3.692l-1.846-1.846zM16.078 21.268l1.846 1.846h-3.692l1.845-1.846zM14.233 18.772h3.692l-1.846 1.846-1.846-1.846zM15.753 20.943l-1.846 1.846v-3.692l1.846 1.846zM18.556 18.159h-4.955c-0.17 0-0.306 0.137-0.306 0.306v4.956c0 0.17 0.137 0.306 0.306 0.306l4.955 0c0.169 0 0.306-0.137 0.306-0.306v-4.956c0-0.17-0.137-0.306-0.306-0.306zM23.247 4.294h-14.382c-0.811 0-1.471 0.66-1.471 1.472v20.884c0 0.811 0.66 1.471 1.471 1.471h14.382c0.812 0 1.472-0.66 1.472-1.471v-20.884c0-0.812-0.66-1.472-1.472-1.472zM24.106 26.65c0 0.473-0.385 0.858-0.858 0.858h-14.383c-0.474 0-0.858-0.385-0.858-0.858l-0-20.884c0-0.474 0.385-0.859 0.858-0.859h14.382c0.474 0 0.858 0.386 0.858 0.859l0 20.884zM22.323 7.039h-2.266v-1.054c0-0.313-0.255-0.568-0.568-0.568h-6.864c-0.314 0-0.568 0.255-0.568 0.568v1.054h-2.266c-0.49 0-0.889 0.371-0.889 0.828v17.832c0 0.457 0.398 0.829 0.889 0.829h12.533c0.49 0 0.888-0.372 0.888-0.829v-17.832c0-0.457-0.398-0.829-0.888-0.829zM12.516 7.039v-1.054c0-0.060 0.049-0.109 0.109-0.109h6.865c0.060 0 0.109 0.048 0.109 0.109v1.723c0 0.059-0.048 0.108-0.109 0.108h-6.865c-0.059 0-0.109-0.048-0.109-0.108v-0.209l0-0.46zM22.751 25.7c0 0.203-0.192 0.369-0.428 0.369h-12.533c-0.237 0-0.429-0.165-0.429-0.369l0-17.832c0-0.203 0.192-0.368 0.429-0.368h2.266v0.209c0 0.313 0.254 0.568 0.568 0.568h6.865c0.313 0 0.568-0.255 0.568-0.568v-0.209h2.266c0.236 0 0.428 0.165 0.428 0.368l-0 17.832z" fill="#000000" />
</svg>
