<?xml version="1.0" encoding="utf-8"?>
<!-- Generated by IcoMoon.io -->
<!DOCTYPE svg PUBLIC "-//W3C//DTD SVG 1.1//EN" "http://www.w3.org/Graphics/SVG/1.1/DTD/svg11.dtd">
<svg version="1.1" xmlns="http://www.w3.org/2000/svg" xmlns:xlink="http://www.w3.org/1999/xlink" width="32" height="32" viewBox="0 0 32 32">
<g>
</g>
	<path d="M12.602 8.811c1.281 0 2.323-1.042 2.323-2.323 0-1.281-1.042-2.323-2.323-2.323-1.281 0-2.323 1.042-2.323 2.323 0 1.281 1.042 2.323 2.323 2.323zM12.602 4.778c0.943 0 1.71 0.767 1.71 1.71 0 0.943-0.767 1.71-1.71 1.71-0.942 0-1.71-0.767-1.71-1.71 0-0.942 0.767-1.71 1.71-1.71zM22.859 23.094c-0.157 0-0.281 0.024-0.335 0.036l-0.682 0.071-1.521-4.65c-0.651-1.85-2.442-1.944-2.795-1.944-0.041 0-0.068 0.001-0.072 0.001h-2.387v-0.71h1.818c0.664 0 0.99-0.287 1.148-0.529 0.172-0.263 0.177-0.527 0.177-0.555 0-0.67-0.508-1.085-1.324-1.085h-1.818v-2.080c0-1.039-1.067-2.138-2.075-2.138h-0.442c-0.979 0-2.075 0.787-2.075 1.842 0 0-0.001 4.896-0.001 6.192-1.54 0.998-2.563 2.727-2.563 4.694 0 3.085 2.51 5.594 5.594 5.594 2.669 0 4.904-1.88 5.459-4.384l0.632 1.958c0.040 0.124 0.156 0.204 0.281 0.204 0.026 0 0.053-0.003 0.081-0.011l3.914-1.107c0.146-0.041 0.238-0.187 0.21-0.338-0.123-0.676-0.57-1.063-1.224-1.063zM11.066 11.354c0-0.693 0.811-1.251 1.484-1.251h0.442c0.679 0 1.484 0.838 1.484 1.547v2.080h-1.233c-0.163 0-0.294 0.132-0.294 0.295 0 0.163 0.132 0.295 0.294 0.295h3.642c0.486 0 0.734 0.166 0.734 0.49-0.003 0.083-0.050 0.498-0.734 0.498l-3.468 0.002c-0.006 0-0.553 0.047-0.92-0.287-0.239-0.218-0.361-0.562-0.361-1.023v-2.143c0-0.163-0.132-0.295-0.296-0.295-0.163 0-0.295 0.132-0.295 0.295v2.143c0 0.637 0.188 1.13 0.559 1.465 0.432 0.39 0.987 0.439 1.238 0.439 0.054 0 0.094-0.002 0.116-0.004h1.018v0.838c-0.316-0.055-0.639-0.090-0.971-0.090-0.875 0-1.702 0.208-2.44 0.568 0-1.642 0.001-5.862 0.001-5.862zM13.506 27.244c-2.759 0-5.003-2.245-5.003-5.003 0-2.758 2.244-5.003 5.003-5.003 2.759 0 5.003 2.244 5.003 5.003 0 2.759-2.244 5.003-5.003 5.003zM20.072 24.956l-0.989-3.062c-0.128-2.073-1.387-3.84-3.168-4.695l1.612-0.001c0.397 0 1.732 0.112 2.235 1.543l1.593 4.871c0.043 0.132 0.173 0.215 0.312 0.201l0.938-0.098c0.014-0.002 0.031-0.005 0.044-0.008 0.001-0 0.089-0.022 0.21-0.022 0.275 0 0.46 0.104 0.565 0.324l-3.352 0.947zM13.506 18.063c-2.303 0-4.178 1.874-4.178 4.178 0 2.304 1.874 4.177 4.178 4.177s4.177-1.874 4.177-4.177c-0-2.303-1.874-4.178-4.177-4.178zM13.506 25.827c-1.978 0-3.586-1.609-3.586-3.586 0-1.977 1.609-3.586 3.586-3.586 1.977 0 3.586 1.609 3.586 3.586 0 1.978-1.609 3.586-3.586 3.586z" fill="#000000" />
</svg>
