<?xml version="1.0" encoding="utf-8"?>
<!-- Generator: Adobe Illustrator 17.1.0, SVG Export Plug-In . SVG Version: 6.00 Build 0)  -->
<!DOCTYPE svg PUBLIC "-//W3C//DTD SVG 1.1//EN" "http://www.w3.org/Graphics/SVG/1.1/DTD/svg11.dtd">
<svg version="1.1" id="Layer_1" xmlns="http://www.w3.org/2000/svg" xmlns:xlink="http://www.w3.org/1999/xlink" x="0px" y="0px"
	 viewBox="0 0 512 512" enable-background="new 0 0 512 512" xml:space="preserve">
<path fill="#231F20" d="M437.3,170.1L259.4,87.9c-1.3-0.6-2.8-0.6-4.1,0L76.6,170.1c-2.1,1-3.2,3.2-2.7,5.5c0.5,2.2,2.5,3.8,4.8,3.8
	h22V210c0,2.7,2.2,4.9,4.9,4.9h17.1v147.8h-17.1c-2.7,0-4.9,2.2-4.9,4.9v35c0,2.7,2.2,4.9,4.9,4.9H401c2.7,0,4.9-2.2,4.9-4.9v-35
	c0-2.7-2.2-4.9-4.9-4.9h-11.4V214.9H401c2.7,0,4.9-2.2,4.9-4.9v-30.5h29.3c2.3,0,4.3-1.6,4.8-3.8
	C440.5,173.4,439.4,171.1,437.3,170.1z M382.3,347.1h-22.4v-118h22.4V347.1z M352.6,362.6h-31.3V214.9h31.3V362.6z M291.5,229.1
	h22.4v118h-22.4V229.1z M313.9,214.9v9.4h-22.4v-9.4H313.9z M291.5,352h22.4v10.6h-22.4V352z M284.2,362.6H228V214.9h56.2V362.6z
	 M198.3,229.1h22.4v118h-22.4V229.1z M220.7,214.9v9.4h-22.4v-9.4H220.7z M198.3,352h22.4v10.6h-22.4V352z M191,362.6h-31.3V214.9
	H191V362.6z M129.9,229.1h22.4v118h-22.4V229.1z M152.3,214.9v9.4h-22.4v-9.4H152.3z M129.9,352h22.4v10.6h-22.4V352z M110.4,397.6
	v-10.2h285.7v10.2H110.4z M396.1,382.5H110.4v-10.2h285.7V382.5z M359.9,362.6V352h22.4v10.6H359.9z M382.3,224.2h-22.4v-9.4h22.4
	V224.2z M396.1,205.1H110.4v-25.6h285.7V205.1z M101,169.7l156.4-72l155.7,72H101z M256.8,104.8c0.6-0.3,1.4-0.3,2,0l95.2,44.4
	c1.2,0.6,1.8,2,1.2,3.2c-0.4,0.9-1.3,1.4-2.2,1.4c-0.3,0-0.7-0.1-1-0.2l-94.2-43.9l-21,9.3c-1.2,0.5-2.7,0-3.2-1.2
	c-0.5-1.2,0-2.7,1.2-3.2L256.8,104.8z"/>
</svg>
