<?xml version="1.0" encoding="utf-8"?>
<!-- Generated by IcoMoon.io -->
<!DOCTYPE svg PUBLIC "-//W3C//DTD SVG 1.1//EN" "http://www.w3.org/Graphics/SVG/1.1/DTD/svg11.dtd">
<svg version="1.1" xmlns="http://www.w3.org/2000/svg" xmlns:xlink="http://www.w3.org/1999/xlink" width="32" height="32" viewBox="0 0 32 32">
<g>
</g>
	<path d="M22.053 23.842h-0.65c-2.574 0-3.344-1.493-3.557-2.146h-11.14c-0.666 0-1.208-0.542-1.208-1.208v-8.713c0-0.667 0.542-1.209 1.208-1.209h18.207c0.666 0 1.209 0.542 1.209 1.209v8.713c0 0.667-0.543 1.208-1.209 1.208h-3.171c-0.191 0.121-0.307 0.273-0.352 0.46-0.123 0.513 0.293 1.143 0.297 1.15l0.365 0.537zM6.707 11.253c-0.287 0-0.521 0.234-0.521 0.522v8.713c0 0.288 0.234 0.521 0.521 0.521h11.707l0.039 0.3c0.010 0.068 0.253 1.585 2.383 1.817-0.119-0.317-0.21-0.729-0.112-1.131 0.097-0.402 0.354-0.72 0.762-0.943l0.077-0.042h3.351c0.287 0 0.522-0.234 0.522-0.521l0-8.714c0-0.288-0.234-0.522-0.522-0.522l-18.208-0z" fill="#000000" />
</svg>
