<?xml version="1.0" encoding="utf-8"?>
<!-- Generated by IcoMoon.io -->
<!DOCTYPE svg PUBLIC "-//W3C//DTD SVG 1.1//EN" "http://www.w3.org/Graphics/SVG/1.1/DTD/svg11.dtd">
<svg version="1.1" xmlns="http://www.w3.org/2000/svg" xmlns:xlink="http://www.w3.org/1999/xlink" width="32" height="32" viewBox="0 0 32 32">
<g>
</g>
	<path d="M7.478 7.398c0.148 0 0.268-0.12 0.268-0.268s-0.12-0.268-0.268-0.268l-1.44 0c-0.148 0-0.268 0.12-0.268 0.268s0.12 0.268 0.268 0.268h0.473v15.224l-0.473-0c-0.148 0-0.268 0.12-0.268 0.268s0.12 0.268 0.268 0.268h1.44c0.148 0 0.268-0.12 0.268-0.268s-0.12-0.268-0.268-0.268h-0.43v-15.223h0.43zM25.961 23.162c-0.148 0-0.268 0.12-0.268 0.268v0.43l-16.77 0.021v-0.451c0-0.148-0.12-0.268-0.268-0.268-0.148 0-0.268 0.12-0.268 0.268v1.44c0 0.148 0.12 0.268 0.268 0.268 0.148 0 0.268-0.12 0.268-0.268v-0.452l16.77-0.021v0.473c0 0.148 0.12 0.268 0.268 0.268s0.268-0.12 0.268-0.268v-1.44c0-0.148-0.12-0.268-0.268-0.268zM17.763 20.060c0.313 0 0.568-0.304 0.568-0.679v-1.466c0-0.374-0.255-0.679-0.568-0.679-0.071 0-0.138 0.018-0.201 0.046-0.285-0.56-0.866-0.945-1.536-0.945h-1.588c-0.672 0-1.254 0.387-1.539 0.95-0.066-0.032-0.138-0.051-0.213-0.051-0.313 0-0.568 0.305-0.568 0.679v1.466c0 0.374 0.255 0.679 0.568 0.679 0.034 0 0.068-0.005 0.1-0.012 0.039 0.13 0.094 0.254 0.161 0.369-0.074 0.104-0.122 0.258-0.122 0.487 0 0.498 0.845 0.854 1.34 1.019 0.016 0.006 0.402 0.151 1.067 0.151 0.665 0 1.050-0.145 1.058-0.148 0.504-0.168 1.348-0.524 1.348-1.022 0-0.23-0.049-0.383-0.122-0.487 0.067-0.115 0.121-0.238 0.16-0.368 0.029 0.006 0.057 0.010 0.086 0.010zM12.948 19.381c0 0.183-0.1 0.333-0.223 0.361-0.013 0.003-0.025 0.011-0.038 0.011-0.142 0-0.262-0.171-0.262-0.372v-1.466c0-0.202 0.12-0.373 0.262-0.373 0.035 0 0.069 0.011 0.099 0.030 0.094 0.057 0.162 0.191 0.162 0.343v1.466zM16.163 21.565c-0.004 0.002-0.343 0.126-0.93 0.126-0.588 0-0.927-0.124-0.938-0.128-0.749-0.25-1.086-0.535-1.086-0.658 0-0.056 0.004-0.098 0.008-0.135 0.021-0.162 0.083-0.166 0.145-0.166 0.066 0 0.15 0.016 0.226 0.032 0.006 0.002 0.038 0.009 0.088 0.019 0.234 0.050 0.902 0.177 1.557 0.177 0.656 0 1.326-0.129 1.556-0.177 0.048-0.010 0.078-0.017 0.084-0.018 0.081-0.017 0.165-0.033 0.231-0.033 0.061 0 0.123 0.003 0.144 0.166 0.005 0.037 0.008 0.080 0.008 0.135 0 0.123-0.337 0.409-1.093 0.661zM17.18 20.226c-0.026-0.003-0.051-0.005-0.077-0.005-0.096 0-0.194 0.016-0.314 0.042-0.008 0.002-0.808 0.186-1.557 0.186-0.749 0-1.55-0.185-1.561-0.187-0.117-0.025-0.214-0.041-0.31-0.041-0.026 0-0.051 0.002-0.077 0.005-0.075-0.127-0.132-0.266-0.162-0.415 0.081-0.118 0.132-0.266 0.132-0.429v-1.466c0-0.116-0.026-0.223-0.070-0.318 0.19-0.51 0.678-0.876 1.254-0.876h1.588c0.568 0 1.052 0.357 1.247 0.857-0.048 0.1-0.078 0.214-0.078 0.338v1.466c0 0.172 0.055 0.327 0.143 0.446-0.029 0.143-0.087 0.275-0.159 0.398zM17.502 19.381v-1.466c0-0.159 0.075-0.295 0.175-0.347 0.028-0.014 0.056-0.026 0.086-0.026 0.142 0 0.262 0.171 0.262 0.373v1.466c0 0.202-0.12 0.372-0.262 0.372-0.008 0-0.016-0.006-0.024-0.007-0.13-0.018-0.237-0.175-0.237-0.365zM25.961 6.862h-17.225c-0.119 0-0.215 0.078-0.251 0.184-0.013 0.026-0.022 0.054-0.022 0.084v7.56c0 0.106 0.086 0.192 0.192 0.192h12.466v7.001c0 0.106 0.086 0.192 0.192 0.192h4.554c0.030 0.011 0.060 0.019 0.094 0.019 0.148 0 0.268-0.12 0.268-0.268l-0-14.695c-0-0.148-0.12-0.268-0.269-0.268zM25.693 21.692h-4.189v-6.81h4.189v6.81zM25.693 14.499h-16.847v-7.1h16.846l0 7.1z" fill="#000000" />
</svg>
