<?xml version="1.0" encoding="utf-8"?>
<!-- Generated by IcoMoon.io -->
<!DOCTYPE svg PUBLIC "-//W3C//DTD SVG 1.1//EN" "http://www.w3.org/Graphics/SVG/1.1/DTD/svg11.dtd">
<svg version="1.1" xmlns="http://www.w3.org/2000/svg" xmlns:xlink="http://www.w3.org/1999/xlink" width="32" height="32" viewBox="0 0 32 32">
<g>
</g>
	<path d="M26.782 13.523c-0.003-0.018-0.004-0.035-0.010-0.052-0.006-0.017-0.016-0.031-0.026-0.045-0.008-0.014-0.015-0.027-0.026-0.039-0.014-0.015-0.031-0.026-0.047-0.037-0.009-0.006-0.016-0.015-0.026-0.021l-3.619-1.822c-0.037-0.018-0.077-0.028-0.118-0.028l-14.107 0c-0.041 0-0.081 0.010-0.118 0.028l-3.619 1.822c-0.011 0.006-0.018 0.015-0.028 0.022-0.016 0.011-0.033 0.022-0.046 0.036-0.012 0.013-0.020 0.028-0.029 0.043-0.008 0.014-0.018 0.026-0.023 0.041-0.007 0.019-0.009 0.039-0.012 0.059-0.002 0.011-0.006 0.021-0.006 0.033v6.112c0 0.145 0.117 0.262 0.262 0.262h21.346c0.145 0 0.262-0.117 0.262-0.262v-6.112c-0-0.014-0.006-0.026-0.008-0.039zM26.268 17.263h-2.312c-0.355 0-0.645-0.289-0.645-0.645 0-0.356 0.289-0.645 0.645-0.645h2.312v1.29zM8.864 12.002h13.983l2.581 1.299h-19.144l2.581-1.299zM5.444 19.412v-5.589h20.824v1.888h-2.312c-0.5 0-0.906 0.407-0.906 0.906 0 0.5 0.406 0.906 0.906 0.906h2.312v1.888l-20.824 0zM6.473 16.363c-0.066 0.068-0.105 0.159-0.105 0.253 0 0.094 0.039 0.189 0.105 0.254 0.068 0.068 0.159 0.108 0.256 0.108 0.094 0 0.188-0.040 0.253-0.108 0.065-0.065 0.105-0.157 0.105-0.254 0-0.094-0.039-0.186-0.105-0.253-0.133-0.133-0.376-0.133-0.51 0zM12.75 16.259c-0.199 0-0.361 0.159-0.361 0.358s0.162 0.361 0.361 0.361c0.199 0 0.358-0.162 0.358-0.361s-0.16-0.358-0.358-0.358zM17.264 16.259c-0.199 0-0.358 0.159-0.358 0.358s0.159 0.361 0.358 0.361c0.198 0 0.361-0.162 0.361-0.361s-0.162-0.358-0.361-0.358zM11.244 16.259c-0.199 0-0.359 0.159-0.359 0.358s0.16 0.361 0.359 0.361 0.36-0.162 0.36-0.361-0.162-0.358-0.36-0.358zM9.738 16.259c-0.199 0-0.359 0.159-0.359 0.358s0.16 0.361 0.359 0.361c0.198 0 0.36-0.162 0.36-0.361s-0.162-0.358-0.36-0.358zM14.255 16.259c-0.199 0-0.36 0.159-0.36 0.358s0.162 0.361 0.36 0.361 0.358-0.162 0.358-0.361-0.16-0.358-0.358-0.358zM15.758 16.259c-0.199 0-0.358 0.159-0.358 0.358s0.159 0.361 0.358 0.361 0.361-0.162 0.361-0.361-0.162-0.358-0.361-0.358zM8.235 16.259c-0.199 0-0.361 0.159-0.361 0.358s0.162 0.361 0.361 0.361c0.196 0 0.358-0.162 0.358-0.361s-0.162-0.358-0.358-0.358zM20.275 16.259c-0.199 0-0.36 0.159-0.36 0.358s0.162 0.361 0.36 0.361c0.199 0 0.358-0.162 0.358-0.361s-0.159-0.358-0.358-0.358zM18.769 16.259c-0.199 0-0.36 0.159-0.36 0.358s0.162 0.361 0.36 0.361c0.198 0 0.358-0.162 0.358-0.361s-0.16-0.358-0.358-0.358zM21.525 16.363c-0.065 0.068-0.105 0.159-0.105 0.253 0 0.097 0.039 0.189 0.105 0.254 0.068 0.068 0.16 0.108 0.253 0.108 0.097 0 0.188-0.040 0.257-0.105 0.065-0.068 0.105-0.159 0.105-0.256 0-0.094-0.039-0.186-0.105-0.253-0.134-0.133-0.374-0.133-0.51 0zM6.473 14.905c-0.066 0.065-0.105 0.159-0.105 0.254 0 0.094 0.039 0.188 0.105 0.254 0.068 0.068 0.159 0.107 0.256 0.107 0.094 0 0.185-0.039 0.253-0.107 0.065-0.065 0.105-0.159 0.105-0.254 0-0.094-0.039-0.188-0.105-0.254-0.133-0.134-0.374-0.134-0.51 0zM9.738 14.8c-0.199 0-0.359 0.159-0.359 0.358 0 0.199 0.16 0.361 0.359 0.361 0.198 0 0.36-0.162 0.36-0.361 0-0.199-0.162-0.358-0.36-0.358zM11.244 14.8c-0.199 0-0.359 0.159-0.359 0.358 0 0.199 0.16 0.361 0.359 0.361s0.36-0.162 0.36-0.361c0-0.199-0.162-0.358-0.36-0.358zM12.75 14.8c-0.199 0-0.361 0.159-0.361 0.358 0 0.199 0.162 0.361 0.361 0.361 0.199 0 0.358-0.162 0.358-0.361-0-0.199-0.16-0.358-0.358-0.358zM8.235 14.8c-0.199 0-0.361 0.159-0.361 0.358 0 0.199 0.162 0.361 0.361 0.361 0.196 0 0.358-0.162 0.358-0.361 0-0.199-0.162-0.358-0.358-0.358zM17.264 14.8c-0.199 0-0.358 0.159-0.358 0.358 0 0.199 0.159 0.361 0.358 0.361 0.198 0 0.361-0.162 0.361-0.361 0-0.199-0.162-0.358-0.361-0.358zM20.275 14.8c-0.199 0-0.36 0.159-0.36 0.358 0 0.199 0.162 0.361 0.36 0.361 0.199 0 0.358-0.162 0.358-0.361-0-0.199-0.159-0.358-0.358-0.358zM14.255 14.8c-0.199 0-0.36 0.159-0.36 0.358 0 0.199 0.162 0.361 0.36 0.361s0.358-0.162 0.358-0.361c-0-0.199-0.16-0.358-0.358-0.358zM18.769 14.8c-0.199 0-0.36 0.159-0.36 0.358 0 0.199 0.162 0.361 0.36 0.361 0.198 0 0.358-0.162 0.358-0.361 0-0.199-0.16-0.358-0.358-0.358zM15.758 14.8c-0.199 0-0.358 0.159-0.358 0.358 0 0.199 0.159 0.361 0.358 0.361s0.361-0.162 0.361-0.361c0-0.199-0.162-0.358-0.361-0.358zM21.525 14.905c-0.065 0.068-0.105 0.159-0.105 0.254 0 0.094 0.039 0.188 0.105 0.254 0.068 0.068 0.162 0.107 0.253 0.107 0.097 0 0.188-0.039 0.257-0.107 0.065-0.065 0.105-0.159 0.105-0.254 0-0.094-0.039-0.188-0.105-0.254-0.134-0.134-0.374-0.136-0.51 0zM6.473 17.822c-0.066 0.068-0.105 0.159-0.105 0.256 0 0.094 0.039 0.186 0.105 0.254 0.068 0.065 0.159 0.105 0.256 0.105 0.094 0 0.185-0.039 0.253-0.105 0.065-0.068 0.105-0.16 0.105-0.254 0-0.097-0.039-0.188-0.105-0.256-0.133-0.133-0.374-0.133-0.51 0zM8.235 17.718c-0.199 0-0.361 0.162-0.361 0.361s0.162 0.358 0.361 0.358c0.196 0 0.358-0.159 0.358-0.358s-0.162-0.361-0.358-0.361zM17.264 17.718c-0.199 0-0.358 0.162-0.358 0.361s0.159 0.358 0.358 0.358c0.198 0 0.361-0.159 0.361-0.358s-0.162-0.361-0.361-0.361zM15.758 17.718c-0.199 0-0.358 0.162-0.358 0.361s0.159 0.358 0.358 0.358 0.361-0.159 0.361-0.358-0.162-0.361-0.361-0.361zM18.769 17.718c-0.199 0-0.36 0.162-0.36 0.361s0.162 0.358 0.36 0.358c0.198 0 0.358-0.159 0.358-0.358s-0.16-0.361-0.358-0.361zM20.275 17.718c-0.199 0-0.36 0.162-0.36 0.361s0.162 0.358 0.36 0.358c0.199 0 0.358-0.159 0.358-0.358s-0.159-0.361-0.358-0.361zM14.255 17.718c-0.199 0-0.36 0.162-0.36 0.361s0.162 0.358 0.36 0.358 0.358-0.159 0.358-0.358-0.16-0.361-0.358-0.361zM11.244 17.718c-0.199 0-0.359 0.162-0.359 0.361s0.16 0.358 0.359 0.358 0.36-0.159 0.36-0.358-0.162-0.361-0.36-0.361zM12.75 17.718c-0.199 0-0.361 0.162-0.361 0.361s0.162 0.358 0.361 0.358c0.199 0 0.358-0.159 0.358-0.358s-0.16-0.361-0.358-0.361zM9.738 17.718c-0.199 0-0.359 0.162-0.359 0.361s0.16 0.358 0.359 0.358c0.198 0 0.36-0.159 0.36-0.358s-0.162-0.361-0.36-0.361zM21.525 17.822c-0.065 0.068-0.105 0.159-0.105 0.256 0 0.094 0.039 0.186 0.105 0.254 0.068 0.065 0.162 0.105 0.253 0.105 0.097 0 0.188-0.039 0.257-0.105 0.065-0.068 0.105-0.16 0.105-0.254 0-0.097-0.039-0.188-0.105-0.254-0.134-0.136-0.374-0.136-0.51-0.003z" fill="#000000" />
</svg>
