<?xml version="1.0" encoding="utf-8"?>
<!-- Generator: Adobe Illustrator 17.1.0, SVG Export Plug-In . SVG Version: 6.00 Build 0)  -->
<!DOCTYPE svg PUBLIC "-//W3C//DTD SVG 1.1//EN" "http://www.w3.org/Graphics/SVG/1.1/DTD/svg11.dtd">
<svg version="1.1" id="Layer_1" xmlns="http://www.w3.org/2000/svg" xmlns:xlink="http://www.w3.org/1999/xlink" x="0px" y="0px"
	 viewBox="0 0 512 512" enable-background="new 0 0 512 512" xml:space="preserve">
<path d="M239.7,378l-18.3-26.3c1.7-2,2.7-4.5,2.7-7.3v-75.1c0-6.2-5.1-11.3-11.3-11.3H93.2c-6.2,0-11.3,5.1-11.3,11.3v75.1
	c0,2.8,1.1,5.3,2.8,7.3L66.5,378c-2.8,3.8-3.3,8.1-1.6,11.6c1.8,3.5,5.6,5.5,10.4,5.5h155.5c4.8,0,8.6-2,10.4-5.5
	C243,386.1,242.4,381.7,239.7,378z M91.7,269.3c0-0.8,0.7-1.5,1.5-1.5h119.7c0.8,0,1.5,0.7,1.5,1.5v75.1c0,0.8-0.7,1.5-1.5,1.5H93.2
	c-0.8,0-1.5-0.7-1.5-1.5V269.3z M230.8,385.3H75.3c-1,0-1.5-0.2-1.6-0.1c0-0.2,0.2-0.8,0.8-1.5l19.4-27.9h118.5l19.4,28
	c0.6,0.8,0.7,1.5,0.8,1.3C232.4,385.1,232,385.3,230.8,385.3z M102.1,337.9H204c1.3,0,2.4-1.1,2.4-2.4v-57.1c0-1.4-1.1-2.4-2.4-2.4
	H102.1c-1.4,0-2.4,1.1-2.4,2.4v57.1C99.7,336.8,100.8,337.9,102.1,337.9z M104.6,280.8h97V333h-97V280.8z M209.6,369.2
	c1.4,0,2.4,1.1,2.4,2.4c0,1.4-1.1,2.4-2.4,2.4H96.5c-1.4,0-2.4-1.1-2.4-2.4c0-1.3,1.1-2.4,2.4-2.4H209.6z M442.4,378l-18.3-26.3
	c1.7-2,2.7-4.5,2.7-7.3v-75.1c0-6.2-5.1-11.3-11.3-11.3H295.9c-6.2,0-11.3,5.1-11.3,11.3v75.1c0,2.8,1.1,5.3,2.8,7.3L269.2,378
	c-2.8,3.8-3.3,8.1-1.6,11.6c1.8,3.5,5.6,5.5,10.4,5.5h155.5c4.8,0,8.6-2,10.4-5.5C445.7,386.1,445.1,381.7,442.4,378z M294.4,269.3
	c0-0.8,0.7-1.5,1.5-1.5h119.7c0.8,0,1.5,0.7,1.5,1.5v75.1c0,0.8-0.7,1.5-1.5,1.5H295.9c-0.8,0-1.5-0.7-1.5-1.5V269.3z M433.5,385.3
	H278c-1,0-1.5-0.2-1.6-0.1c0-0.2,0.2-0.8,0.8-1.5l19.4-27.9H415l19.4,28c0.6,0.8,0.7,1.5,0.8,1.3
	C435.1,385.1,434.7,385.3,433.5,385.3z M304.8,337.9h101.9c1.3,0,2.4-1.1,2.4-2.4v-57.1c0-1.4-1.1-2.4-2.4-2.4H304.8
	c-1.4,0-2.4,1.1-2.4,2.4v57.1C302.4,336.8,303.5,337.9,304.8,337.9z M307.3,280.8h97V333h-97V280.8z M296.7,371.7
	c0-1.3,1.1-2.4,2.4-2.4h113.2c1.4,0,2.4,1.1,2.4,2.4c0,1.4-1.1,2.4-2.4,2.4H299.2C297.8,374.1,296.7,373,296.7,371.7z M360.6,207.1
	l-23.1-33.3c2.3-2.3,3.7-5.5,3.7-8.9V72c0-7-5.7-12.8-12.8-12.8h-148c-7,0-12.8,5.7-12.8,12.8v92.9c0,3.5,1.4,6.7,3.7,9l-23,33.1
	c-3.1,4.3-3.8,9.2-1.8,13.2c2,3.9,6.3,6.2,11.8,6.2h192.3c5.5,0,9.8-2.3,11.8-6.2C364.3,216.2,363.7,211.3,360.6,207.1z M177.4,72
	c0-1.7,1.3-3,3-3h148c1.7,0,3,1.3,3,3v92.9c0,1.7-1.3,3-3,3h-148c-1.7,0-3-1.3-3-3V72z M353.6,215.7c-0.2,0.3-1.1,0.9-3.1,0.9H158.3
	c-2,0-3-0.5-3.1-0.8c-0.2-0.3-0.1-1.4,1.1-3.1l24.3-35h147.7l24.4,35.1C353.7,214.3,353.8,215.4,353.6,215.7z M191.4,156.2h125.9
	c1.4,0,2.4-1.1,2.4-2.4V83.2c0-1.4-1.1-2.4-2.4-2.4H191.4c-1.4,0-2.4,1.1-2.4,2.4v70.6C189,155.1,190.1,156.2,191.4,156.2z
	 M193.9,85.6h121.1v65.7H193.9V85.6z M182,190.2c0-1.4,1.1-2.4,2.4-2.4h139.9c1.4,0,2.4,1.1,2.4,2.4c0,1.3-1.1,2.4-2.4,2.4H184.5
	C183.1,192.6,182,191.5,182,190.2z M332.8,202.7c0,1.4-1.1,2.4-2.4,2.4h-152c-1.4,0-2.4-1.1-2.4-2.4s1.1-2.4,2.4-2.4h152
	C331.8,200.2,332.8,201.3,332.8,202.7z"/>
</svg>
