<?xml version="1.0" encoding="utf-8"?>
<!-- Generated by IcoMoon.io -->
<!DOCTYPE svg PUBLIC "-//W3C//DTD SVG 1.1//EN" "http://www.w3.org/Graphics/SVG/1.1/DTD/svg11.dtd">
<svg version="1.1" xmlns="http://www.w3.org/2000/svg" xmlns:xlink="http://www.w3.org/1999/xlink" width="32" height="32" viewBox="0 0 32 32">
<g>
</g>
	<path d="M26.164 11.9c-0.898-2.934-3.636-4.968-6.72-4.968-3.092 0-5.806 2.016-6.713 4.941-0.505-0.18-1.030-0.271-1.569-0.271-2.187 0-4.068 1.504-4.564 3.612-1.954 0.072-3.6 1.429-4.036 3.351-0.019 0.086 0.001 0.177 0.057 0.247 0.055 0.069 0.139 0.109 0.227 0.109h10.051c-0.045 0.313-0.070 0.631-0.070 0.955 0 3.665 2.982 6.647 6.647 6.647s6.647-2.982 6.647-6.647c0-0.325-0.025-0.643-0.070-0.955h4.39c0.142 0 0.263-0.102 0.287-0.242 0.061-0.357 0.092-0.685 0.092-1.004 0.001-2.79-1.948-5.189-4.658-5.774zM19.476 25.91c-3.327 0-6.034-2.706-6.034-6.034s2.707-6.035 6.034-6.035c3.327 0 6.034 2.707 6.034 6.035s-2.707 6.034-6.034 6.034zM30.194 18.338h-4.252c-0.696-2.926-3.33-5.109-6.466-5.109-3.135 0-5.769 2.183-6.465 5.109h-9.781c0.502-1.514 1.905-2.543 3.551-2.543h0.002l0.045 0.002c0.147 0.014 0.268-0.098 0.294-0.239 0.354-1.954 2.052-3.372 4.040-3.372 0.532 0 1.049 0.105 1.541 0.305 0.304 0.147 0.954 0.524 1.355 1.198 0.047 0.080 0.138 0.119 0.226 0.103 0.025-0.005 0.050-0.013 0.074-0.028 0.104-0.061 0.138-0.196 0.076-0.299-0.346-0.58-0.837-0.962-1.21-1.188 0.758-2.806 3.305-4.761 6.22-4.761 2.802 0 5.273 1.791 6.12 4.441-0.753-0.005-1.312 0.267-1.346 0.281-0.11 0.046-0.165 0.174-0.118 0.286 0.046 0.111 0.174 0.165 0.285 0.119 0.008-0.004 0.779-0.31 1.655-0.165 2.441 0.528 4.198 2.685 4.198 5.198 0.001 0.213-0.014 0.431-0.045 0.664zM17.72 16.814c-0.186-0.141-0.337-0.208-0.459-0.208-0.138 0-0.206 0.088-0.225 0.14-0.007 0.023-0.007 0.047 0.001 0.070l0.271 0.739-0.042 0.332-0.332 0.154-0.255-0.222c-0.010-0.026-0.026-0.070-0.045-0.122-0.048-0.132-0.118-0.322-0.159-0.44-0.055-0.154-0.116-0.229-0.198-0.241-0.049-0.008-0.095 0.010-0.124 0.042-0.606 0.527-0.112 1.47-0.091 1.508 0.011 0.024 0.051 0.104 0.11 0.2l-0.014 0.006c-0.057 0.027-0.097 0.071-0.118 0.128-0.024 0.068-0.017 0.148 0.020 0.226 0.065 0.138 0.198 0.192 0.327 0.132l0.124-0.058c0.017 0.016 0.034 0.032 0.052 0.047 0.119 0.1 0.159 0.159 0.149 0.429l-0.109 3.184c-0.004 0.053-0.016 0.327 0.154 0.515 0.101 0.111 0.242 0.168 0.42 0.168 0.169 0 0.302-0.054 0.399-0.161 0.184-0.204 0.149-0.516 0.149-0.516l-0.102-3.182c0-0.036-0.001-0.070-0.003-0.104-0.006-0.224-0.011-0.36 0.336-0.634 0.466-0.367 0.381-1.012 0.37-1.085-0.107-0.659-0.584-1.031-0.604-1.046zM16.248 17.249c0.011 0.021 0.021 0.046 0.032 0.077 0.070 0.196 0.215 0.589 0.215 0.589 0.006 0.016 0.016 0.031 0.029 0.041l0.206 0.18-0.527 0.246c-0.092-0.212-0.293-0.787 0.045-1.134zM16.315 19.105c-0.058 0.026-0.085-0.016-0.102-0.051-0.002-0.004-0.045-0.099 0.018-0.128l0.035-0.017c0.040 0.058 0.082 0.112 0.123 0.162l-0.073 0.035zM17.828 18.784c-0.429 0.339-0.422 0.564-0.414 0.803 0.001 0.032 0.002 0.063 0.002 0.101l0.103 3.194c0 0.002 0.019 0.234-0.097 0.363-0.056 0.062-0.137 0.093-0.246 0.093-0.117 0-0.207-0.034-0.267-0.1-0.107-0.117-0.105-0.306-0.102-0.364l0.11-3.188c0.012-0.306-0.038-0.44-0.222-0.595-0.185-0.156-0.334-0.4-0.402-0.522l1.11-0.518c0.032-0.016 0.054-0.045 0.058-0.081l0.052-0.413c0.003-0.015 0.002-0.031-0.005-0.049l-0.254-0.695c0.002 0 0.004-0.001 0.006-0.001 0.034 0 0.135 0.017 0.335 0.168 0.005 0.003 0.432 0.336 0.526 0.916 0.009 0.060 0.075 0.597-0.293 0.888zM17.571 18.215c-0.028-0.037-0.083-0.045-0.119-0.018-0.018 0.014-0.030 0.034-0.033 0.056-0.003 0.022 0.003 0.045 0.016 0.063l0.211 0.282c0.016 0.022 0.041 0.034 0.068 0.034 0.019 0 0.036-0.006 0.050-0.017 0.038-0.028 0.045-0.082 0.017-0.119l-0.211-0.282zM17.376 18.309c-0.028-0.036-0.083-0.044-0.119-0.017-0.018 0.014-0.030 0.034-0.033 0.056-0.003 0.023 0.003 0.045 0.016 0.063l0.211 0.283c0.017 0.021 0.042 0.033 0.068 0.033 0.019 0 0.037-0.006 0.051-0.017 0.038-0.028 0.045-0.082 0.018-0.119l-0.212-0.282zM17.255 18.789c0.016 0.021 0.041 0.034 0.068 0.034 0.019 0 0.036-0.006 0.051-0.017 0.038-0.028 0.045-0.082 0.018-0.119l-0.211-0.282c-0.026-0.036-0.081-0.045-0.12-0.018-0.037 0.029-0.045 0.082-0.017 0.119l0.211 0.283zM17.128 18.918c0.019 0 0.037-0.006 0.050-0.016 0.038-0.029 0.045-0.082 0.017-0.12l-0.211-0.282c-0.027-0.037-0.082-0.045-0.119-0.018-0.018 0.014-0.030 0.034-0.033 0.056-0.003 0.022 0.003 0.045 0.016 0.063l0.211 0.281c0.015 0.022 0.041 0.035 0.069 0.035zM17.172 22.664c-0.056 0-0.11 0.016-0.158 0.046-0.066 0.042-0.112 0.107-0.129 0.185-0.017 0.077-0.003 0.155 0.039 0.222 0.054 0.085 0.147 0.136 0.249 0.136 0.056 0 0.111-0.016 0.158-0.046 0.137-0.087 0.178-0.27 0.090-0.407-0.054-0.085-0.147-0.136-0.249-0.136zM17.295 22.985c-0.008 0.032-0.027 0.060-0.056 0.078-0.054 0.035-0.138 0.016-0.172-0.038-0.037-0.058-0.019-0.135 0.038-0.173 0.020-0.013 0.043-0.019 0.066-0.019 0.043 0 0.083 0.022 0.106 0.058 0.018 0.028 0.023 0.061 0.017 0.094zM20.008 20.973c0.003-0.095 0.064-0.161 0.083-0.18l0.001-0.001c0.022-0.019 0.036-0.047 0.036-0.077v-0.465c0-0.057-0.046-0.103-0.103-0.103h-0.351v-1.952l0.13-0.36c0.006-0.016 0.007-0.034 0.005-0.053l-0.169-0.963c-0.010-0.050-0.052-0.085-0.102-0.085h-0.345c-0.050 0-0.093 0.036-0.102 0.086l-0.17 0.963c-0.003 0.018-0.001 0.036 0.005 0.052l0.129 0.36v1.952h-0.35c-0.057 0-0.104 0.046-0.104 0.103v0.465c0 0.030 0.013 0.058 0.036 0.078 0.013 0.013 0.080 0.080 0.084 0.178 0.004 0.095-0.048 0.197-0.154 0.302-0.019 0.019-0.030 0.046-0.030 0.072v1.873c-0.001 0.034 0.007 0.121 0.087 0.207 0.13 0.138 0.378 0.208 0.739 0.208s0.609-0.070 0.738-0.208c0.096-0.103 0.088-0.203 0.088-0.203v-1.878c0-0.027-0.011-0.054-0.031-0.073-0.102-0.105-0.154-0.206-0.15-0.3zM19.279 16.942h0.172l0.15 0.85-0.127 0.35c-0.004 0.011-0.006 0.023-0.006 0.036v1.97h-0.206v-1.97c0-0.013-0.002-0.025-0.006-0.035l-0.126-0.351 0.149-0.85zM19.044 23.403c-0.018-0.004-0.035-0.007-0.052-0.011v-1.575c0-0.061 0-0.119 0.011-0.151 0-0.001 0.005-0.003 0.021-0.003l0.006 0.001c0.009 0.009 0.014 0.062 0.014 0.156l-0 1.583zM19.747 23.39c-0.018 0.005-0.035 0.009-0.053 0.012v-1.582c0-0.095 0.005-0.147 0.014-0.156 0 0 0.001-0.001 0.006-0.001 0.014 0 0.017 0.002 0.017 0.002s0.002 0.002 0.004 0.010c0.010 0.031 0.010 0.086 0.010 0.145l-0 1.57zM19.917 23.317v-1.5c0-0.072 0-0.14-0.019-0.196-0.028-0.083-0.092-0.127-0.182-0.127-0.19 0-0.19 0.196-0.19 0.326v1.604c-0.103 0.007-0.206 0.008-0.312 0.001v-1.605c0-0.13 0-0.326-0.19-0.326-0.091 0-0.153 0.041-0.182 0.12-0.019 0.055-0.019 0.121-0.019 0.206v1.502c-0.072-0.050-0.076-0.097-0.077-0.097v-1.836c0.128-0.138 0.189-0.281 0.184-0.426-0.006-0.144-0.081-0.245-0.12-0.289v-0.319h1.114v0.319c-0.040 0.044-0.114 0.146-0.12 0.289-0.006 0.144 0.055 0.287 0.183 0.426v1.837h0.001c-0 0.002-0.005 0.045-0.069 0.091zM22.876 16.736l-0.29 0.005c-0.013 0-0.026 0.002-0.038 0.007l-0.005 0.002c-0.021 0.007-0.126 0.045-0.245 0.045-0.111 0-0.2-0.032-0.263-0.096-0.019-0.019-0.045-0.030-0.072-0.030h-0.573c-0.009 0.001-0.909 0.071-1.139 1.023-0.017 0.066-0.012 0.192 0.070 0.252 0.022 0.015 0.048 0.023 0.075 0.023 0.103 0 0.192-0.11 0.203-0.125 0.002-0.003 0.202-0.303 0.359-0.422 0.028-0.021 0.098-0.064 0.142-0.064 0.010 0 0.018 0 0.029 0.026 0.044 0.109 0.086 0.339 0.12 0.524l0.007 0.045c0.007 0.037 0.034 0.066 0.069 0.078v1.951c-0.077 0.051-0.121 0.131-0.121 0.218l-0.008 3.078c0 0.178 0.265 0.271 0.408 0.271h0.157c0.145 0 0.414-0.094 0.414-0.271l-0.007-3.078c0-0.087-0.045-0.168-0.122-0.218v-1.958c0.031-0.015 0.052-0.045 0.057-0.078l0.052-0.418c0.042-0.033 0.088-0.050 0.14-0.050 0.12 0 0.227 0.083 0.23 0.086 0.019 0.014 0.040 0.021 0.062 0.022l0.293 0.005c0.039-0.003 0.072-0.022 0.089-0.052 0.007-0.013 0.073-0.134 0.073-0.38 0-0.21-0.054-0.335-0.072-0.37-0.019-0.033-0.054-0.053-0.094-0.053zM21.761 23.342h-0.157c-0.084 0-0.184-0.050-0.202-0.072l0.008-3.071c0-0.034 0.045-0.065 0.096-0.065h0.358c0.052 0 0.097 0.030 0.097 0.065l0.008 3.069c-0.019 0.023-0.125 0.073-0.208 0.073zM21.532 19.929v-1.893h0.308v1.893h-0.308zM22.471 17.305c-0.186-0.067-0.356-0.031-0.487 0.1-0.015 0.016-0.025 0.035-0.030 0.060l-0.045 0.365h-0.463c-0.037-0.202-0.077-0.406-0.124-0.524-0.041-0.1-0.119-0.154-0.219-0.154-0.12 0-0.236 0.082-0.268 0.106-0.139 0.105-0.29 0.307-0.361 0.407 0.213-0.704 0.853-0.783 0.925-0.79h0.526c0.099 0.084 0.225 0.126 0.375 0.126 0.062 0 0.12-0.007 0.164-0.016 0.007 0.052 0.013 0.124 0.013 0.207-0 0.042-0.002 0.079-0.005 0.112zM22.807 17.384l-0.175-0.003c0.008-0.056 0.012-0.119 0.012-0.188 0-0.079-0.006-0.162-0.016-0.247l0.179-0.004c0.012 0.043 0.027 0.116 0.027 0.215 0 0.104-0.014 0.178-0.027 0.226z" fill="#000000" />
</svg>
