<?xml version="1.0" encoding="utf-8"?>
<!-- Generated by IcoMoon.io -->
<!DOCTYPE svg PUBLIC "-//W3C//DTD SVG 1.1//EN" "http://www.w3.org/Graphics/SVG/1.1/DTD/svg11.dtd">
<svg version="1.1" xmlns="http://www.w3.org/2000/svg" xmlns:xlink="http://www.w3.org/1999/xlink" width="32" height="32" viewBox="0 0 32 32">
<g>
</g>
	<path d="M25.43 10.702c-0.026-0.041-0.634-1.027 0.055-2.214 0.047-0.083 0.040-0.186-0.020-0.26-0.060-0.074-0.16-0.104-0.25-0.074-0.046 0.015-1.026 0.348-1.359 1.483-0.354-0.427-0.842-1.384-0.108-2.976 0.041-0.089 0.022-0.194-0.048-0.262-0.070-0.068-0.176-0.084-0.263-0.040-0.067 0.034-1.63 0.836-1.539 2.705 0.002 0.019 0.054 0.484 0.351 1.27 0.009 0.026 0.172 0.511-0.014 0.871-0.135-0.562-0.504-1.486-1.498-1.887-0.093-0.038-0.198-0.010-0.262 0.066-0.064 0.076-0.071 0.185-0.019 0.27 0.020 0.032 0.482 0.8 0.059 2.211-0.007 0.028-0.637 2.829 2.748 3.85 0.022 0.006 0.044 0.010 0.066 0.010 0.030 0 0.059-0.005 0.087-0.017 0.069-0.029 1.705-0.711 2.275-2.216 0.322-0.848 0.238-1.779-0.262-2.79zM25.264 13.327c-0.435 1.151-1.641 1.779-1.949 1.923-2.87-0.91-2.374-3.18-2.355-3.264 0.249-0.83 0.218-1.478 0.125-1.918 0.689 0.614 0.765 1.612 0.766 1.624 0.005 0.078 0.050 0.149 0.119 0.187 0.069 0.038 0.153 0.038 0.221-0.001 0.721-0.397 0.636-1.283 0.489-1.7-0.273-0.722-0.325-1.15-0.325-1.15-0.041-0.855 0.338-1.445 0.695-1.807-0.577 2.063 0.8 3.048 0.815 3.059 0.066 0.046 0.152 0.053 0.225 0.021 0.073-0.033 0.124-0.102 0.134-0.182 0.069-0.562 0.319-0.931 0.567-1.166-0.306 1.11 0.222 1.952 0.238 1.975 0.429 0.868 0.508 1.675 0.234 2.398zM20.698 15.037h-4.066c-0.164 0-0.297 0.133-0.297 0.298v4.066h-4.061c-0.165 0-0.298 0.134-0.298 0.298v4.191l-4.164 0 0.171-0.973c0.032-0.090 0-0.147-0.074-0.197-0.033-0.024-0.098-0.024-0.171 0.025l-1.622 1.439 1.374 1.278 0.24 0.17c0.074 0.040 0.147 0.040 0.18 0.016 0.074-0.049 0.106-0.106 0.074-0.204l-0.171-0.966h0.283l0.595 0.006h3.592c0.165 0 0.298-0.133 0.298-0.297l-0-4.192h4.060c0.165 0 0.297-0.133 0.297-0.298l0-4.067h3.761c0.165 0 0.298-0.133 0.298-0.297 0-0.006-0.003-0.011-0.003-0.018-0.009-0.156-0.135-0.28-0.294-0.28z" fill="#000000" />
</svg>
