<?xml version="1.0" encoding="utf-8"?>
<!-- Generated by IcoMoon.io -->
<!DOCTYPE svg PUBLIC "-//W3C//DTD SVG 1.1//EN" "http://www.w3.org/Graphics/SVG/1.1/DTD/svg11.dtd">
<svg version="1.1" xmlns="http://www.w3.org/2000/svg" xmlns:xlink="http://www.w3.org/1999/xlink" width="32" height="32" viewBox="0 0 32 32">
<g>
</g>
	<path d="M28.905 10.959l-1.523-0.887c-0.035-0.020-0.077-0.026-0.116-0.016-0.040 0.010-0.073 0.036-0.093 0.070l-0.304 0.522-1.112 1.909c-0.359-0.443-0.354-0.437-0.795-0.989-1.306-1.529-3.24-2.476-5.339-2.476-3.091 0-5.806 2.015-6.713 4.941-0.504-0.18-1.030-0.271-1.569-0.271-2.187 0-4.068 1.505-4.564 3.612-1.954 0.072-3.6 1.429-4.036 3.351-0.019 0.086 0.001 0.177 0.057 0.247 0.055 0.069 0.139 0.109 0.227 0.109h18.82c0-0 0.001-0.001 0.001-0.001 0.030 0.006 0.084 0.009 0.117 0.006 0.008-0.001 0.014-0.006 0.021-0.007 0.006 0.002 0.012 0.006 0.018 0.006 0.033 0.004 0.067-0.003 0.097-0.020l1.64-0.97c0.002-0.001 0.003-0.004 0.005-0.006 0.020-0.013 0.038-0.029 0.049-0.049l0.001-0.001c0-0 0 0 0-0.001l5.167-8.871c0.041-0.073 0.017-0.167-0.056-0.209zM22.005 19c-0.012 0.020-0.018 0.042-0.019 0.063-0 0.001-0.001 0.002-0.002 0.004l-0.090 1.431h-18.486c0.502-1.514 1.906-2.542 3.551-2.542h0.003l0.044 0.002c0.148 0.014 0.268-0.098 0.293-0.239 0.355-1.954 2.053-3.373 4.040-3.373 0.531 0 1.050 0.106 1.541 0.305 0.303 0.147 0.954 0.524 1.355 1.198 0.048 0.080 0.139 0.119 0.226 0.103 0.026-0.006 0.051-0.013 0.074-0.028 0.104-0.062 0.138-0.196 0.076-0.299-0.346-0.58-0.837-0.962-1.21-1.188 0.758-2.807 3.305-4.762 6.22-4.762 2.037 0 3.897 0.948 5.086 2.484 0.432 0.498 0.704 0.986 0.705 0.987l-3.409 5.853zM22.888 20.243l-0.67-0.022 0.056-0.886 1.083 0.631-0.469 0.278zM23.605 19.754l-1.258-0.732 5.013-8.609 1.258 0.733-5.013 8.608z" fill="#000000" />
</svg>
