<?xml version="1.0" encoding="utf-8"?>
<!-- Generator: Adobe Illustrator 16.0.0, SVG Export Plug-In . SVG Version: 6.00 Build 0)  -->
<!DOCTYPE svg PUBLIC "-//W3C//DTD SVG 1.0//EN" "http://www.w3.org/TR/2001/REC-SVG-20010904/DTD/svg10.dtd">
<svg version="1.0" id="Layer_1" xmlns="http://www.w3.org/2000/svg" xmlns:xlink="http://www.w3.org/1999/xlink" x="0px" y="0px"
	 width="32px" height="32px" viewBox="0 0 32 32" enable-background="new 0 0 32 32" xml:space="preserve">
<g>
	<path d="M17.61,10.023c-0.106-0.046-0.229-0.023-0.313,0.058l-4.133,3.975H9.289C9.13,14.056,9,14.186,9,14.345v4.693
		c0,0.16,0.13,0.29,0.289,0.29H12.6h0.024h0.48l4.193,4.006c0.056,0.051,0.128,0.079,0.201,0.079c0.037,0,0.076-0.008,0.113-0.022
		c0.105-0.047,0.176-0.15,0.176-0.267v-8.672v-0.312v-3.852C17.787,10.173,17.717,10.069,17.61,10.023z M17.208,14.808v7.64
		l-3.789-3.618c-0.054-0.052-0.125-0.08-0.2-0.08h-0.017h-0.025H9.579v-4.116h3.702c0.075,0,0.146-0.029,0.2-0.081l3.727-3.585v3.75
		V14.808z"/>
	<path d="M20.495,14.052c-0.057-0.053-0.144-0.05-0.197,0.005c-0.053,0.056-0.05,0.144,0.005,0.197
		c0.564,0.536,0.875,1.256,0.875,2.027c0,0.793-0.343,1.555-0.939,2.087c-0.057,0.052-0.062,0.14-0.011,0.197
		c0.027,0.031,0.065,0.047,0.104,0.047c0.033,0,0.065-0.012,0.093-0.035c0.654-0.586,1.031-1.423,1.031-2.296
		C21.455,15.433,21.113,14.642,20.495,14.052z"/>
	<path d="M22.34,11.19c-0.074,0.077-0.072,0.201,0.006,0.275c1.324,1.275,2.055,2.985,2.055,4.815c0,1.865-0.791,3.659-2.168,4.926
		c-0.08,0.072-0.084,0.195-0.012,0.275c0.038,0.041,0.09,0.062,0.143,0.062c0.048,0,0.094-0.017,0.131-0.05
		c1.459-1.341,2.295-3.24,2.295-5.213c0-1.937-0.771-3.747-2.174-5.096C22.538,11.11,22.414,11.113,22.34,11.19z"/>
	<path d="M21.379,12.421c-0.067-0.064-0.173-0.062-0.236,0.006c-0.064,0.066-0.061,0.172,0.006,0.236
		c1.004,0.955,1.559,2.24,1.559,3.619c0,1.419-0.611,2.777-1.674,3.727c-0.068,0.061-0.074,0.166-0.012,0.234
		c0.032,0.037,0.077,0.057,0.123,0.057c0.04,0,0.08-0.015,0.111-0.043c1.133-1.012,1.785-2.461,1.785-3.975
		C23.041,14.81,22.449,13.439,21.379,12.421z"/>
</g>
</svg>
