<?xml version="1.0" encoding="utf-8"?>
<!-- Generated by IcoMoon.io -->
<!DOCTYPE svg PUBLIC "-//W3C//DTD SVG 1.1//EN" "http://www.w3.org/Graphics/SVG/1.1/DTD/svg11.dtd">
<svg version="1.1" xmlns="http://www.w3.org/2000/svg" xmlns:xlink="http://www.w3.org/1999/xlink" width="32" height="32" viewBox="0 0 32 32">
<g>
</g>
	<path d="M21.234 18.796c-0.127 0-0.23 0.103-0.23 0.23 0 2.998-2.439 5.436-5.437 5.436-0.127 0-0.23 0.103-0.23 0.23s0.103 0.23 0.23 0.23c3.251 0 5.896-2.645 5.896-5.896 0-0.127-0.103-0.23-0.23-0.23zM23.199 16.049c1.188-0.825 1.888-2.154 1.888-3.609 0-0.324-0.014-0.714-0.178-1.236-0.089-0.306-0.211-0.599-0.367-0.884l-0.013-0.024c-0.211-0.412-0.642-1.008-1.141-1.698-0.809-1.119-1.813-2.51-2.227-3.618l-0.018-0.052c-0.081-0.18-0.259-0.296-0.455-0.296s-0.374 0.116-0.455 0.296l-0.017 0.045c-0.375 1.029-1.305 2.344-2.097 3.442-1.023-1.57-1.702-2.838-2.072-3.867l-0.014-0.037c-0.111-0.25-0.359-0.411-0.63-0.411-0.272 0-0.519 0.161-0.631 0.411l-0.014 0.039c-0.798 2.218-2.854 5.066-4.507 7.354-0.99 1.371-1.845 2.554-2.266 3.376-0.309 0.554-0.556 1.144-0.732 1.75-0.314 1.010-0.341 1.759-0.341 2.382 0 4.682 3.809 8.49 8.491 8.49s8.492-3.809 8.492-8.49c0-0.625-0.027-1.377-0.342-2.386-0.095-0.326-0.213-0.654-0.352-0.976zM18.483 8.959c0.783-1.084 1.744-2.414 2.206-3.514 0.474 1.116 1.426 2.434 2.203 3.511 0.478 0.662 0.892 1.235 1.086 1.606l0.019 0.038c0.135 0.242 0.244 0.503 0.326 0.781 0.139 0.445 0.151 0.767 0.151 1.058 0 1.285-0.641 2.454-1.714 3.159l-4.376-6.501 0.099-0.138zM15.403 27.288c-4.344 0-7.878-3.534-7.878-7.878 0-0.578 0.024-1.271 0.315-2.204 0.165-0.567 0.394-1.115 0.68-1.628l0.018-0.036c0.393-0.762 1.235-1.929 2.21-3.279 1.675-2.319 3.76-5.206 4.585-7.503 0.010-0.022 0.034-0.048 0.071-0.048 0.031 0 0.054 0.019 0.066 0.039l0.002 0.006c0.413 1.149 1.153 2.51 2.319 4.271l-0.006 0.004 4.745 7.049 0.007-0.006c0.172 0.368 0.316 0.745 0.428 1.127 0.291 0.932 0.316 1.629 0.316 2.208 0.001 4.343-3.534 7.877-7.878 7.877z" fill="#000000" />
</svg>
