<?xml version="1.0" encoding="utf-8"?>
<!-- Generated by IcoMoon.io -->
<!DOCTYPE svg PUBLIC "-//W3C//DTD SVG 1.1//EN" "http://www.w3.org/Graphics/SVG/1.1/DTD/svg11.dtd">
<svg version="1.1" xmlns="http://www.w3.org/2000/svg" xmlns:xlink="http://www.w3.org/1999/xlink" width="32" height="32" viewBox="0 0 32 32">
<g>
</g>
	<path d="M25.576 9.326c-0.028-0.058-0.078-0.102-0.139-0.121l-0.819-0.259c-0.114-0.037-0.236 0.022-0.282 0.132l-2.341 5.727-11.991 0-2.34-5.727c-0.046-0.11-0.168-0.169-0.282-0.132l-0.82 0.259c-0.061 0.019-0.111 0.063-0.139 0.121s-0.029 0.125-0.005 0.185l2.164 5.294h-0.536c-0.127 0-0.23 0.103-0.23 0.23v1.156c0 0.127 0.103 0.23 0.23 0.23h0.306l0.497 7.027c0.004 0.055 0.026 0.102 0.055 0.145 0 0-0 0-0 0-0.469 0.242-0.793 0.726-0.793 1.289 0 0.802 0.652 1.454 1.455 1.454 0.802 0 1.454-0.653 1.454-1.454 0-0.469-0.226-0.882-0.572-1.149-0.246-0.189-0.549-0.306-0.882-0.306v0c0.333 0 0.637 0.118 0.882 0.306h11.242c0.246-0.189 0.549-0.306 0.882-0.306 0 0 0 0 0 0-0.334 0-0.637 0.118-0.882 0.306-0.346 0.266-0.572 0.68-0.572 1.149 0 0.802 0.653 1.454 1.455 1.454 0.802 0 1.455-0.653 1.455-1.454 0-0.563-0.325-1.047-0.793-1.289l-0-0c0.029-0.043 0.051-0.090 0.055-0.145l0.497-7.027h0.211c0.127 0 0.23-0.103 0.23-0.23v-1.156c0-0.127-0.103-0.23-0.23-0.23l-0.579 0 2.164-5.294c0.024-0.060 0.022-0.127-0.005-0.185zM6.939 9.568l0.379-0.12 2.19 5.357h-0.428l-2.141-5.237zM10.572 24.882c0 0.555-0.452 1.007-1.007 1.007s-1.007-0.452-1.007-1.007c0-0.555 0.452-1.007 1.007-1.007s1.007 0.452 1.007 1.007zM9.166 23.489c0.072-0.022 0.146-0.040 0.223-0.050-0.077 0.010-0.15 0.029-0.223 0.050zM9.441 23.12l-0.468-6.622h1.672l0.238 1.486c0.018 0.112 0.114 0.194 0.226 0.194h1.195c0.126 0 0.23-0.103 0.23-0.23v-1.45h7.206v1.45c0 0.127 0.103 0.23 0.23 0.23h1.194c0.113 0 0.209-0.082 0.227-0.194l0.237-1.486h1.535l-0.467 6.622h-13.257zM23.58 24.882c0 0.555-0.452 1.007-1.007 1.007-0.556 0-1.006-0.452-1.006-1.007 0-0.555 0.451-1.007 1.006-1.007 0.555-0 1.007 0.452 1.007 1.007zM23.766 15.265v0.696h-2.32c-0.113 0-0.209 0.082-0.226 0.194l-0.25 1.563h-0.769v-1.527c0-0.127-0.103-0.23-0.23-0.23h-7.666c-0.127 0-0.23 0.103-0.23 0.23v1.527h-0.769l-0.25-1.563c-0.018-0.112-0.114-0.194-0.227-0.194h-2.552v-0.696h15.489zM22.921 14.805h-0.428l2.19-5.357 0.378 0.12-2.14 5.237zM15.843 13.776c0.058 0.065 0.141 0.102 0.227 0.102 0.087 0 0.17-0.037 0.228-0.102l3.109-3.454c0.163-0.217 0.187-0.458 0.062-0.645-0.137-0.206-0.354-0.284-0.567-0.21l-1.137 0.11 0-3.607c0-0.17-0.137-0.306-0.306-0.306s-0.306 0.137-0.306 0.306v3.946c0 0.086 0.037 0.169 0.101 0.227s0.149 0.086 0.236 0.078l1.3-0.125-2.718 3.018-2.72-3.018 1.302 0.126c0.087 0.008 0.172-0.020 0.236-0.078s0.101-0.14 0.101-0.227l-0-3.946c0-0.17-0.137-0.306-0.306-0.306-0.17 0-0.306 0.137-0.306 0.306v3.608l-1.137-0.11c-0.212-0.074-0.43 0.003-0.567 0.21-0.125 0.186-0.101 0.428 0.080 0.666l3.091 3.432z" fill="#000000" />
</svg>
