<?xml version="1.0" encoding="utf-8"?>
<!-- Generated by IcoMoon.io -->
<!DOCTYPE svg PUBLIC "-//W3C//DTD SVG 1.1//EN" "http://www.w3.org/Graphics/SVG/1.1/DTD/svg11.dtd">
<svg version="1.1" xmlns="http://www.w3.org/2000/svg" xmlns:xlink="http://www.w3.org/1999/xlink" width="32" height="32" viewBox="0 0 32 32">
<g>
</g>
	<path d="M9.68 14.862c-1.246-0.176-2.301-0.398-3.135-0.66-0.082-0.026-0.167 0.019-0.192 0.1-0.026 0.081 0.019 0.167 0.1 0.192 0.85 0.267 1.921 0.493 3.184 0.671 0.007 0.001 0.014 0.002 0.022 0.002 0.075 0 0.141-0.055 0.151-0.132 0.012-0.084-0.046-0.162-0.13-0.174zM25.816 14.525c0.121-0.040 0.186-0.17 0.147-0.29-0.040-0.12-0.17-0.186-0.29-0.146-2.103 0.691-5.697 1.105-9.614 1.105-1.272 0-2.522-0.044-3.713-0.13-0.126-0.008-0.237 0.086-0.246 0.213-0.009 0.126 0.086 0.236 0.212 0.246 1.203 0.087 2.463 0.131 3.746 0.131 3.963 0 7.611-0.421 9.758-1.128zM27.861 20.030v-7.027c0-1.79-5.937-2.727-11.802-2.727-5.865 0-11.801 0.937-11.801 2.727v7.026c0 1.791 5.937 2.727 11.801 2.727 5.865 0.001 11.802-0.936 11.802-2.727zM4.87 20.030v-7.027c0-0.883 4.257-2.114 11.188-2.114 6.932 0 11.189 1.231 11.189 2.114v7.026c0 0.883-4.257 2.114-11.189 2.114-6.932 0-11.188-1.231-11.188-2.114zM21.35 9.65c0.2 0.021 0.401 0.042 0.601 0.066 0.009 0.001 0.019 0.002 0.028 0.002 0.115 0 0.214-0.086 0.228-0.203 0.015-0.126-0.075-0.24-0.201-0.255-0.202-0.024-0.406-0.046-0.608-0.067-0.122-0.011-0.239 0.079-0.252 0.205-0.013 0.127 0.079 0.24 0.205 0.253zM14.543 23.611c-0.197-0.005-0.398-0.011-0.605-0.018-0.129-0.014-0.234 0.094-0.238 0.221-0.005 0.127 0.095 0.234 0.222 0.238 0.209 0.008 0.413 0.014 0.611 0.019 0.002 0 0.004 0 0.006 0 0.124 0 0.226-0.099 0.23-0.224 0.002-0.127-0.098-0.232-0.225-0.236zM17.576 23.611c-0.002 0-0.004 0-0.006 0-0.209 0.005-0.411 0.009-0.606 0.012-0.127 0.002-0.228 0.107-0.226 0.234 0.002 0.126 0.105 0.226 0.23 0.226 0.001 0 0.002 0 0.004 0 0.196-0.003 0.4-0.007 0.61-0.012 0.127-0.003 0.227-0.109 0.224-0.236-0.003-0.125-0.105-0.224-0.23-0.224zM16.059 23.63c-0.19 0-0.393-0.001-0.606-0.003-0.131 0.009-0.231 0.101-0.232 0.227-0.001 0.127 0.101 0.231 0.228 0.232 0.215 0.002 0.419 0.003 0.611 0.003 0.127 0 0.23-0.103 0.23-0.23s-0.103-0.23-0.23-0.23zM19.084 23.554c-0.205 0.011-0.407 0.020-0.604 0.028-0.127 0.005-0.226 0.112-0.221 0.238 0.005 0.124 0.107 0.221 0.229 0.221 0.003 0 0.006 0 0.009-0 0.199-0.008 0.403-0.017 0.61-0.028 0.127-0.006 0.224-0.115 0.218-0.242-0.006-0.127-0.118-0.227-0.241-0.218zM20.594 23.453c-0.202 0.017-0.403 0.032-0.603 0.046-0.126 0.009-0.222 0.118-0.213 0.245 0.008 0.121 0.109 0.214 0.229 0.214 0.006 0 0.011-0 0.016-0.001 0.201-0.014 0.405-0.030 0.61-0.046 0.126-0.010 0.221-0.121 0.21-0.248-0.011-0.127-0.123-0.22-0.248-0.21zM11.52 23.452c-0.2-0.017-0.401-0.035-0.602-0.054-0.127-0.016-0.239 0.080-0.251 0.206-0.012 0.126 0.080 0.239 0.206 0.251 0.204 0.020 0.407 0.038 0.609 0.055 0.006 0.001 0.013 0.001 0.019 0.001 0.118 0 0.219-0.091 0.229-0.211 0.010-0.127-0.083-0.238-0.21-0.248zM7.056 22.763c-0.197-0.050-0.389-0.104-0.576-0.16-0.12-0.037-0.25 0.032-0.286 0.154s0.032 0.25 0.154 0.286c0.193 0.058 0.392 0.114 0.595 0.166 0.019 0.005 0.038 0.007 0.057 0.007 0.102 0 0.196-0.069 0.222-0.173 0.031-0.123-0.043-0.248-0.166-0.28zM8.525 23.077c-0.199-0.035-0.397-0.073-0.591-0.112-0.123-0.026-0.246 0.055-0.271 0.179-0.026 0.124 0.055 0.246 0.179 0.271 0.198 0.041 0.4 0.079 0.603 0.115 0.014 0.002 0.027 0.004 0.040 0.004 0.11 0 0.206-0.078 0.226-0.19 0.023-0.125-0.061-0.245-0.186-0.267zM22.098 23.298c-0.2 0.025-0.4 0.047-0.6 0.069-0.126 0.014-0.218 0.126-0.205 0.253 0.013 0.118 0.112 0.206 0.228 0.206 0.008 0 0.016-0 0.024-0.001 0.203-0.022 0.406-0.045 0.609-0.070 0.126-0.016 0.215-0.13 0.2-0.256-0.016-0.125-0.129-0.215-0.256-0.2zM13.030 23.554c-0.199-0.010-0.401-0.022-0.605-0.035-0.124-0.015-0.236 0.088-0.244 0.215s0.088 0.236 0.215 0.244c0.205 0.013 0.409 0.025 0.61 0.035 0.004 0 0.008 0 0.012 0 0.121 0 0.223-0.095 0.23-0.218 0.006-0.127-0.091-0.235-0.218-0.241zM10.017 23.298c-0.2-0.025-0.4-0.051-0.599-0.079-0.126-0.022-0.242 0.070-0.26 0.195s0.070 0.242 0.195 0.26c0.201 0.029 0.404 0.056 0.607 0.081 0.010 0.001 0.019 0.002 0.029 0.002 0.114 0 0.214-0.085 0.228-0.202 0.016-0.127-0.074-0.241-0.2-0.257zM26.479 22.313c-0.18 0.070-0.366 0.138-0.56 0.201-0.121 0.040-0.186 0.17-0.147 0.29 0.032 0.097 0.122 0.158 0.218 0.158 0.024 0 0.048-0.004 0.072-0.011 0.202-0.066 0.397-0.136 0.585-0.21 0.118-0.046 0.176-0.18 0.13-0.298-0.047-0.118-0.18-0.175-0.298-0.13zM28.964 17.427c-0.127 0-0.23 0.103-0.23 0.23v0.607c0 0.127 0.103 0.23 0.23 0.23s0.23-0.103 0.23-0.23v-0.607c-0-0.127-0.103-0.23-0.23-0.23zM28.964 15.909c-0.127 0-0.23 0.103-0.23 0.23v0.607c0 0.127 0.103 0.23 0.23 0.23s0.23-0.103 0.23-0.23v-0.607c-0-0.127-0.103-0.23-0.23-0.23zM28.964 18.945c-0.127 0-0.23 0.103-0.23 0.23v0.607c0 0.127 0.103 0.23 0.23 0.23s0.23-0.103 0.23-0.23v-0.607c-0-0.127-0.103-0.23-0.23-0.23zM27.153 11.022c0.182 0.094 0.351 0.193 0.501 0.293 0.039 0.026 0.084 0.039 0.128 0.039 0.074 0 0.147-0.036 0.191-0.102 0.070-0.106 0.042-0.248-0.063-0.319-0.165-0.111-0.349-0.218-0.546-0.32-0.114-0.058-0.251-0.014-0.31 0.099-0.058 0.113-0.014 0.252 0.099 0.31zM28.964 12.873c-0.127 0-0.23 0.103-0.23 0.23v0.607c0 0.127 0.103 0.23 0.23 0.23s0.23-0.103 0.23-0.23v-0.607c-0-0.127-0.103-0.23-0.23-0.23zM27.77 21.637c-0.146 0.106-0.311 0.209-0.49 0.306-0.111 0.061-0.152 0.2-0.091 0.312 0.042 0.076 0.121 0.12 0.202 0.12 0.037 0 0.075-0.009 0.11-0.028 0.196-0.107 0.377-0.221 0.538-0.337 0.103-0.074 0.126-0.218 0.052-0.321-0.073-0.102-0.217-0.126-0.321-0.052zM28.93 20.458c-0.119-0.044-0.251 0.017-0.295 0.136-0.059 0.16-0.146 0.317-0.259 0.466-0.077 0.102-0.056 0.246 0.045 0.322 0.042 0.032 0.090 0.046 0.138 0.046 0.070 0 0.138-0.032 0.184-0.091 0.14-0.186 0.249-0.382 0.323-0.585 0.044-0.118-0.017-0.25-0.136-0.294zM5.636 22.312c-0.191-0.076-0.373-0.155-0.541-0.237-0.114-0.055-0.252-0.008-0.307 0.106-0.055 0.114-0.008 0.252 0.106 0.307 0.178 0.086 0.37 0.171 0.573 0.25 0.028 0.011 0.056 0.016 0.085 0.016 0.091 0 0.178-0.055 0.214-0.146 0.046-0.118-0.012-0.252-0.13-0.298zM25.059 22.764c-0.191 0.049-0.386 0.095-0.584 0.138-0.124 0.028-0.202 0.15-0.175 0.274 0.024 0.107 0.119 0.18 0.224 0.18 0.017 0 0.033-0.002 0.050-0.006 0.203-0.045 0.403-0.092 0.599-0.142 0.123-0.032 0.198-0.157 0.166-0.28s-0.157-0.197-0.279-0.166zM23.589 23.077c-0.197 0.035-0.395 0.067-0.595 0.098-0.125 0.019-0.211 0.136-0.193 0.262 0.018 0.114 0.115 0.195 0.227 0.195 0.012 0 0.023-0.001 0.035-0.003 0.203-0.031 0.406-0.064 0.606-0.1 0.125-0.022 0.208-0.141 0.186-0.266-0.022-0.125-0.138-0.208-0.266-0.186zM28.794 12.452c0.032 0 0.065-0.007 0.096-0.021 0.115-0.053 0.166-0.19 0.113-0.305-0.089-0.194-0.211-0.381-0.362-0.558-0.083-0.097-0.228-0.108-0.324-0.026-0.096 0.082-0.108 0.228-0.026 0.324 0.123 0.144 0.222 0.296 0.293 0.451 0.039 0.085 0.122 0.134 0.209 0.134zM28.964 14.391c-0.127 0-0.23 0.103-0.23 0.23v0.607c0 0.127 0.103 0.23 0.23 0.23s0.23-0.103 0.23-0.23v-0.607c-0-0.127-0.103-0.23-0.23-0.23zM9.237 9.838c0.011 0 0.023-0.001 0.034-0.002 0.198-0.029 0.397-0.057 0.597-0.082 0.126-0.016 0.215-0.131 0.199-0.257-0.016-0.126-0.13-0.216-0.257-0.199-0.203 0.026-0.405 0.054-0.606 0.083-0.126 0.019-0.212 0.135-0.194 0.261 0.016 0.114 0.115 0.196 0.227 0.196zM16.817 9.406c0.194 0.002 0.396 0.006 0.606 0.011 0.002 0 0.004 0 0.006 0 0.124 0 0.227-0.099 0.23-0.224 0.003-0.127-0.098-0.232-0.224-0.235-0.211-0.005-0.415-0.008-0.611-0.011-0.142-0.004-0.231 0.1-0.233 0.227s0.099 0.231 0.227 0.233zM15.299 9.406c0.001 0 0.002 0 0.003 0 0.212-0.003 0.415-0.004 0.606-0.005 0.127-0 0.23-0.103 0.23-0.23-0.001-0.127-0.103-0.229-0.23-0.229 0 0-0 0-0.001 0-0.193 0-0.397 0.002-0.611 0.005-0.127 0.002-0.229 0.106-0.227 0.233 0.002 0.126 0.104 0.227 0.23 0.227zM10.745 9.651c0.008 0 0.016-0 0.024-0.001 0.201-0.021 0.402-0.039 0.602-0.057 0.126-0.011 0.22-0.122 0.209-0.249-0.011-0.126-0.126-0.222-0.249-0.209-0.202 0.018-0.406 0.037-0.609 0.058-0.126 0.013-0.218 0.126-0.205 0.252 0.012 0.118 0.112 0.207 0.229 0.207zM12.26 9.524c0.005 0 0.010 0 0.016-0 0.204-0.014 0.405-0.026 0.604-0.037 0.127-0.007 0.224-0.115 0.217-0.242-0.007-0.126-0.111-0.222-0.242-0.217-0.201 0.011-0.404 0.023-0.61 0.037-0.127 0.009-0.222 0.118-0.214 0.245 0.008 0.121 0.109 0.214 0.229 0.214zM13.778 9.445c0.003 0 0.006 0 0.009 0 0.206-0.008 0.409-0.014 0.605-0.020 0.127-0.003 0.227-0.109 0.223-0.236-0.003-0.127-0.115-0.236-0.236-0.223-0.198 0.006-0.402 0.012-0.61 0.020-0.127 0.005-0.226 0.112-0.221 0.238 0.005 0.124 0.107 0.221 0.23 0.221zM24.331 10.099c0.198 0.042 0.394 0.087 0.586 0.134 0.019 0.005 0.037 0.007 0.055 0.007 0.103 0 0.198-0.070 0.223-0.175 0.030-0.123-0.045-0.248-0.168-0.278-0.197-0.048-0.397-0.094-0.6-0.137-0.123-0.026-0.246 0.053-0.273 0.177-0.026 0.124 0.053 0.246 0.177 0.273zM25.782 10.474c0.194 0.061 0.382 0.126 0.563 0.194 0.026 0.010 0.054 0.015 0.081 0.015 0.093 0 0.181-0.057 0.215-0.149 0.045-0.119-0.016-0.251-0.134-0.296-0.189-0.071-0.384-0.138-0.587-0.201-0.121-0.040-0.25 0.030-0.288 0.15s0.029 0.25 0.15 0.287zM18.331 9.445c0.198 0.007 0.4 0.016 0.605 0.026 0.004 0 0.007 0 0.011 0 0.122 0 0.223-0.096 0.229-0.218 0.006-0.127-0.092-0.235-0.218-0.241-0.207-0.010-0.41-0.019-0.61-0.026-0.127-0.007-0.234 0.094-0.238 0.221-0.005 0.127 0.093 0.233 0.221 0.238zM22.849 9.835c0.2 0.030 0.398 0.061 0.595 0.095 0.013 0.002 0.026 0.003 0.039 0.003 0.11 0 0.207-0.079 0.226-0.191 0.022-0.125-0.062-0.244-0.188-0.266-0.2-0.034-0.402-0.066-0.606-0.096-0.126-0.019-0.242 0.068-0.261 0.194s0.069 0.242 0.194 0.261zM19.843 9.523c0.199 0.013 0.401 0.028 0.603 0.044 0.006 0 0.012 0.001 0.019 0.001 0.119 0 0.219-0.091 0.229-0.211 0.010-0.126-0.084-0.237-0.211-0.248-0.204-0.017-0.408-0.031-0.609-0.045-0.118-0.005-0.236 0.087-0.245 0.214-0.009 0.127 0.087 0.236 0.214 0.245zM3.154 16.366c0.127 0 0.23-0.103 0.23-0.23v-0.607c0-0.127-0.103-0.23-0.23-0.23s-0.23 0.103-0.23 0.23v0.607c-0 0.127 0.103 0.23 0.23 0.23zM3.154 17.884c0.127 0 0.23-0.103 0.23-0.23v-0.607c0-0.127-0.103-0.23-0.23-0.23s-0.23 0.103-0.23 0.23v0.607c-0 0.127 0.103 0.23 0.23 0.23zM3.919 21.267c-0.088-0.092-0.233-0.094-0.325-0.006-0.092 0.088-0.095 0.234-0.007 0.325 0.14 0.146 0.305 0.288 0.49 0.422 0.041 0.030 0.088 0.044 0.134 0.044 0.071 0 0.141-0.033 0.186-0.095 0.074-0.103 0.051-0.247-0.051-0.321-0.162-0.118-0.306-0.241-0.427-0.368zM3.154 19.402c0.127 0 0.23-0.103 0.23-0.23v-0.607c0-0.127-0.103-0.23-0.23-0.23s-0.23 0.103-0.23 0.23v0.607c-0 0.127 0.103 0.23 0.23 0.23zM3.385 20.077c-0.003-0.127-0.113-0.229-0.236-0.223-0.127 0.004-0.227 0.109-0.223 0.236 0.006 0.227 0.048 0.45 0.126 0.661 0.034 0.093 0.122 0.151 0.216 0.151 0.026 0 0.053-0.005 0.079-0.014 0.119-0.044 0.181-0.176 0.137-0.295-0.060-0.164-0.093-0.338-0.098-0.515zM3.827 11.867c0.113-0.132 0.25-0.261 0.406-0.384 0.1-0.078 0.118-0.223 0.039-0.323-0.078-0.1-0.222-0.118-0.323-0.039-0.181 0.141-0.339 0.292-0.472 0.447-0.082 0.096-0.071 0.242 0.025 0.324 0.043 0.037 0.097 0.055 0.149 0.055 0.065 0 0.129-0.027 0.175-0.080zM4.861 11.047c0.036 0 0.071-0.008 0.105-0.026 0.164-0.085 0.344-0.168 0.534-0.247 0.118-0.049 0.173-0.183 0.124-0.3-0.049-0.117-0.184-0.173-0.3-0.124-0.202 0.084-0.393 0.172-0.569 0.262-0.113 0.058-0.157 0.197-0.099 0.31 0.041 0.079 0.121 0.125 0.205 0.125zM7.74 10.104c0.016 0 0.032-0.002 0.048-0.005 0.194-0.041 0.391-0.080 0.59-0.117 0.125-0.023 0.208-0.142 0.185-0.268-0.023-0.125-0.143-0.208-0.268-0.185-0.203 0.038-0.405 0.077-0.603 0.119-0.124 0.026-0.203 0.148-0.177 0.273 0.023 0.108 0.119 0.182 0.225 0.182zM6.27 10.484c0.023 0 0.046-0.003 0.069-0.010 0.186-0.058 0.378-0.114 0.574-0.166 0.122-0.033 0.196-0.159 0.163-0.281s-0.159-0.196-0.281-0.163c-0.203 0.054-0.401 0.111-0.594 0.172-0.121 0.038-0.189 0.167-0.15 0.288 0.031 0.098 0.122 0.161 0.219 0.161zM3.154 14.848c0.127 0 0.23-0.103 0.23-0.23v-0.607c0-0.127-0.103-0.23-0.23-0.23s-0.23 0.103-0.23 0.23v0.607c-0 0.127 0.103 0.23 0.23 0.23zM3.154 13.33c0.127 0 0.23-0.103 0.23-0.23v-0.097c0-0.15 0.020-0.298 0.058-0.437 0.034-0.122-0.038-0.249-0.16-0.283-0.122-0.034-0.249 0.038-0.283 0.16-0.050 0.18-0.075 0.368-0.075 0.56v0.097c-0 0.127 0.103 0.23 0.23 0.23z" fill="#000000" />
</svg>
