<?xml version="1.0" encoding="utf-8"?>
<!-- Generated by IcoMoon.io -->
<!DOCTYPE svg PUBLIC "-//W3C//DTD SVG 1.1//EN" "http://www.w3.org/Graphics/SVG/1.1/DTD/svg11.dtd">
<svg version="1.1" xmlns="http://www.w3.org/2000/svg" xmlns:xlink="http://www.w3.org/1999/xlink" width="32" height="32" viewBox="0 0 32 32">
<g>
</g>
	<path d="M15.074 3.523c-0 0.001-0 0.002-0 0.003 0 0.088 0.438 0.16 0.978 0.16 0.54 0 0.978-0.071 0.978-0.16 0-0.001-0-0.002-0-0.003 0-0.001 0-0.002 0-0.003 0-0.088-0.438-0.16-0.978-0.16-0.54 0-0.978 0.071-0.978 0.16 0 0.001 0 0.002 0 0.003zM11.881 15.901l0.002 0.109c0.002 0.030 0.002-0.397-0.002-0.109zM17.958 9.637l-0.341-4.015c0-0.054-0.003-0.107-0.008-0.159 0.169-0.103 0.273-0.241 0.273-0.426l-0-1.73c0-0.582-1.024-0.704-1.883-0.704s-1.883 0.122-1.883 0.704v1.73c0 0.185 0.104 0.323 0.273 0.426-0.005 0.052-0.008 0.105-0.008 0.159l-0.341 4.014c-2.22 1.347-2.683 3.67-2.71 6.267-0.011 0.043 0.159 12.069 0.159 12.069 0 0.249 0.21 0.473 0.557 0.666l0.377 0.178c0.614 0.246 1.473 0.424 2.393 0.514 0.439 0.042 0.721 0.066 1.167 0.066 0.452 0 0.74-0.024 1.184-0.068 0.216-0.022 0.429-0.047 0.635-0.078 0.412-0.062 0.801-0.141 1.148-0.237 0.214-0.059 0.414-0.124 0.592-0.196l0.376-0.178c0.348-0.194 0.558-0.418 0.558-0.667l0.024-2.799c0.015-0.334 0.17-8.096 0.17-8.129v-1.027c0-2.947-0.721-5.247-2.712-6.381zM14.667 3.358c0.097-0.067 0.471-0.204 1.333-0.204s1.236 0.137 1.333 0.204v1.63c-0.097 0.067-0.47 0.204-1.333 0.204s-1.236-0.137-1.333-0.204v-1.63zM19.901 27.874c-0.031 0.124-0.289 0.311-0.857 0.488-0.732 0.229-1.684 0.432-3.061 0.432-1.379 0-2.333-0.204-3.064-0.432-0.214-0.066-0.394-0.135-0.537-0.201-0.236-0.11-0.291-0.212-0.31-0.287l-0.189-11.863c-0.001-0.007-0.001-0.039-0.002-0.109-0.022-2.305 0.496-4.646 2.52-5.807 0.107-0.061 0.194-0.171 0.19-0.293l0.341-4.146c0.328 0.066 0.712 0.088 1.068 0.088 0.356 0 0.739-0.022 1.068-0.088l0.341 4.178c0 0.12 0.084 0.209 0.191 0.262 1.753 0.869 2.534 2.906 2.534 5.906l-0.233 11.873zM18.286 18.262c-0.022-0.006-0.046-0.003-0.067 0.009l-1.175 0.696c-0.040 0.024-0.054 0.075-0.032 0.116l0.616 1.102h-0.666l0.003-0.265c0-0.042 0-0.083-0.054-0.118-0.045-0.030-0.104-0.026-0.156 0.013-0.007 0.005-0.014 0.012-0.019 0.020l-0.679 0.978c-0.021 0.030-0.021 0.069 0 0.098l0.679 0.979c0.005 0.008 0.012 0.014 0.019 0.020 0.029 0.022 0.059 0.033 0.090 0.033 0.023 0 0.046-0.007 0.066-0.020 0.054-0.036 0.054-0.076 0.054-0.119l-0.003-0.264h0.488c0.515 0 0.682-0.291 0.691-0.306l0.613-1.179c0-0.001-0-0.002 0-0.003 0-0.001 0.001-0.001 0.002-0.002 0.243-0.534 0.037-0.912 0.029-0.926l-0.447-0.821c-0.011-0.020-0.031-0.035-0.053-0.041zM17.989 21.152c-0.001 0.002-0.131 0.215-0.539 0.215h-0.575c-0.023 0-0.045 0.009-0.061 0.026-0.017 0.016-0.026 0.039-0.025 0.062l0.002 0.213-0.558-0.806 0.559-0.805-0.002 0.213c-0 0.023 0.009 0.045 0.025 0.062 0.016 0.016 0.038 0.026 0.061 0.026h1.19c0.049 0 0.209-0.005 0.368-0.057l-0.443 0.854zM18.601 19.976c-0.087 0.165-0.388 0.209-0.539 0.209h-0.236l-0.622-1.112 1.027-0.608 0.404 0.743c0.006 0.013 0.169 0.319-0.034 0.768zM15.603 20.024l-1.278-0.002 0.351-0.604 0.231 0.141c0.026 0.015 0.046 0.027 0.076 0.027 0.025 0 0.042-0.009 0.052-0.014 0.049-0.024 0.075-0.076 0.069-0.14-0.001-0.010-0.004-0.019-0.007-0.028l-0.499-1.082c-0.015-0.033-0.049-0.052-0.085-0.050l-1.188 0.088c-0.009 0.001-0.018 0.003-0.027 0.006-0.059 0.026-0.093 0.073-0.090 0.128 0.004 0.065 0.038 0.085 0.076 0.107l0.224 0.127-0.244 0.424c-0.068 0.115-0.113 0.23-0.134 0.344v0.001l-0 0.001c-0.001 0.005-0 0.009-0.001 0.014v0.001c-0.035 0.242 0.121 0.508 0.129 0.52l0.626 1.001c0.337 0.481 0.766 0.495 0.783 0.495l0.935 0.032c0.022 0 0.044-0.009 0.060-0.024 0.017-0.016 0.026-0.038 0.026-0.062v-1.366c0.001-0.049-0.038-0.087-0.085-0.087zM13.302 19.522c0.018-0.091 0.055-0.186 0.112-0.282l0.287-0.5c0.011-0.020 0.014-0.044 0.008-0.066-0.006-0.022-0.021-0.041-0.041-0.051l-0.179-0.102 0.977-0.072 0.41 0.889-0.186-0.114c-0.020-0.012-0.044-0.016-0.066-0.010-0.022 0.006-0.042 0.020-0.053 0.040l-0.446 0.768h-0.001c-0.127 0-0.445-0.016-0.647-0.161-0.117-0.083-0.174-0.194-0.175-0.34zM15.517 21.388l-0.844-0.029c-0.015-0.001-0.362-0.016-0.645-0.418l-0.547-0.875c0.017 0.008 0.037 0.013 0.054 0.021 0.024 0.010 0.047 0.020 0.072 0.028 0.042 0.014 0.082 0.026 0.123 0.035 0.023 0.006 0.045 0.011 0.067 0.015 0.045 0.008 0.087 0.014 0.129 0.018 0.017 0.002 0.034 0.005 0.050 0.006 0.055 0.004 0.106 0.006 0.146 0.006 0.023 0 0.042-0.001 0.054-0.001l0.014-0.001 1.324 0.002 0.001 1.191zM16.389 17.89l-0.224 0.121c-0.036 0.019-0.073 0.038-0.080 0.102-0.006 0.055 0.026 0.104 0.083 0.133 0.008 0.004 0.018 0.006 0.027 0.008l1.182 0.15c0.004 0 0.007 0.001 0.011 0.001 0.032 0 0.061-0.018 0.076-0.046l0.554-1.054c0.004-0.008 0.007-0.017 0.009-0.026 0.011-0.064-0.012-0.118-0.060-0.145-0.011-0.006-0.030-0.017-0.057-0.017-0.028 0-0.047 0.010-0.071 0.023l-0.246 0.124-0.214-0.431c-0.238-0.456-0.574-0.471-0.591-0.471l-1.334 0.001c-0.587 0.032-0.826 0.388-0.835 0.402l-0.522 0.775c-0.013 0.019-0.018 0.043-0.013 0.066s0.019 0.042 0.039 0.055l1.16 0.721c0.014 0.009 0.030 0.013 0.045 0.013 0.028 0 0.055-0.014 0.072-0.039l0.69-1.052 0.299 0.586zM15.303 18.192l-1.014-0.63 0.472-0.702c0.008-0.012 0.205-0.298 0.698-0.326 0.198 0.002 0.379 0.275 0.433 0.381l0.109 0.212-0.698 1.064zM15.822 16.535l0.962-0.001c0.010 0.001 0.253 0.018 0.441 0.377l0.252 0.507c0.010 0.021 0.028 0.037 0.050 0.043 0.022 0.007 0.045 0.006 0.066-0.005l0.206-0.104-0.459 0.873-0.978-0.124 0.185-0.099c0.041-0.022 0.057-0.073 0.036-0.115l-0.534-1.049c-0.006-0.011-0.088-0.172-0.225-0.303z" fill="#000000" />
</svg>
