<?xml version="1.0" encoding="utf-8"?>
<!-- Generated by IcoMoon.io -->
<!DOCTYPE svg PUBLIC "-//W3C//DTD SVG 1.1//EN" "http://www.w3.org/Graphics/SVG/1.1/DTD/svg11.dtd">
<svg version="1.1" xmlns="http://www.w3.org/2000/svg" xmlns:xlink="http://www.w3.org/1999/xlink" width="32" height="32" viewBox="0 0 32 32">
<g>
</g>
	<path d="M11.801 19.643h-1.834c-0.085 0-0.153 0.069-0.153 0.153s0.069 0.153 0.153 0.153h1.834c0.085 0 0.153-0.069 0.153-0.153s-0.069-0.153-0.153-0.153zM15.964 27.739c-0.33 0-0.597 0.268-0.597 0.598 0 0.329 0.268 0.597 0.597 0.597 0.329 0 0.597-0.268 0.597-0.597 0-0.33-0.268-0.598-0.597-0.598zM15.964 28.627c-0.16 0-0.29-0.13-0.29-0.29 0-0.16 0.13-0.291 0.29-0.291s0.29 0.13 0.29 0.291c0 0.16-0.13 0.29-0.29 0.29zM11.801 21.278h-1.834c-0.085 0-0.153 0.068-0.153 0.153 0 0.084 0.069 0.153 0.153 0.153h1.834c0.085 0 0.153-0.069 0.153-0.153 0-0.085-0.069-0.153-0.153-0.153zM11.801 18.008h-1.834c-0.085 0-0.153 0.069-0.153 0.153s0.069 0.153 0.153 0.153h1.834c0.085 0 0.153-0.069 0.153-0.153s-0.069-0.153-0.153-0.153zM21.97 21.202h-8.694c-0.127 0-0.23 0.103-0.23 0.23s0.103 0.23 0.23 0.23h8.694c0.127 0 0.23-0.103 0.23-0.23s-0.103-0.23-0.23-0.23zM13.046 14.892c0 0.127 0.103 0.23 0.23 0.23h8.694c0.127 0 0.23-0.103 0.23-0.23s-0.103-0.23-0.23-0.23l-8.694 0c-0.127 0-0.23 0.103-0.23 0.23zM23.39 12.914c-0.029-0.003-2.883-0.308-7.39-0.308-1.059 0-2.023 0.018-2.885 0.043v-4.186c0-1.59 1.294-2.884 2.885-2.884s2.885 1.294 2.885 2.884v2.137c0 0.17 0.137 0.306 0.306 0.306h2.452c0.169 0 0.306-0.137 0.306-0.306v-2.137c0-3.281-2.669-5.95-5.95-5.95s-5.95 2.669-5.95 5.95v4.332c-0.915 0.062-1.428 0.117-1.44 0.118-0.155 0.017-0.274 0.148-0.274 0.305v9.808c0 0.156 0.116 0.286 0.271 0.304 0.029 0.003 2.517 0.288 5.795 0.366v0.898c-0.888 0.543-1.431 1.504-1.431 2.552 0 1.65 1.342 2.992 2.993 2.992s2.992-1.342 2.992-2.992c0-1.084-0.599-2.090-1.541-2.614v-0.831c3.367-0.071 5.948-0.366 5.977-0.37 0.155-0.018 0.271-0.149 0.271-0.304v-9.808c-0-0.156-0.118-0.288-0.273-0.305zM10.663 8.464c0-2.942 2.394-5.336 5.337-5.336 2.942 0 5.337 2.394 5.337 5.336v1.83h-1.839v-0.69h0.877c0.127 0 0.23-0.103 0.23-0.23s-0.103-0.23-0.23-0.23h-0.877v-0.681c0-1.929-1.569-3.497-3.498-3.497s-3.498 1.569-3.498 3.497v4.206c-0.697 0.026-1.316 0.056-1.839 0.087v-4.293zM18.343 27.147c0 1.312-1.067 2.379-2.379 2.379-1.312 0-2.379-1.067-2.379-2.379 0-0.883 0.486-1.689 1.268-2.103 0.1-0.053 0.163-0.158 0.163-0.271v-1.064c0.091 0.001 0.182 0.002 0.274 0.004v0.808c0 0.127 0.103 0.23 0.23 0.23s0.23-0.103 0.23-0.23v-0.804c0.083 0 0.166 0.001 0.25 0.001 0.271 0 0.538-0.002 0.802-0.005v1.008c0 0.119 0.068 0.226 0.175 0.277 0.829 0.393 1.365 1.237 1.365 2.15zM23.050 22.752c-0.768 0.079-3.086 0.293-5.92 0.342-0.007-0.001-0.014-0.004-0.021-0.004h-2.401c0 0-0.002 0.001-0.004 0.001-2.758-0.054-5-0.262-5.753-0.339v-9.255c0.23-0.021 0.604-0.053 1.1-0.087 0.098-0.007 0.199-0.014 0.306-0.021 0.098-0.006 0.2-0.013 0.306-0.019 0.522-0.032 1.138-0.062 1.839-0.089 0.101-0.004 0.202-0.007 0.306-0.011 0.1-0.003 0.203-0.006 0.306-0.010 0.86-0.026 1.824-0.043 2.885-0.043 3.676 0 6.239 0.204 7.050 0.278l0 9.255zM21.97 16.297h-8.694c-0.127 0-0.23 0.103-0.23 0.23s0.103 0.23 0.23 0.23h8.694c0.127 0 0.23-0.103 0.23-0.23s-0.103-0.23-0.23-0.23zM11.801 14.738h-1.834c-0.085 0-0.153 0.069-0.153 0.153 0 0.085 0.069 0.153 0.153 0.153h1.834c0.083 0 0.151-0.067 0.153-0.15 0-0.001 0.001-0.002 0.001-0.003-0-0.084-0.069-0.153-0.154-0.153zM11.801 16.373h-1.834c-0.085 0-0.153 0.069-0.153 0.153s0.069 0.153 0.153 0.153h1.834c0.085 0 0.153-0.069 0.153-0.153s-0.069-0.153-0.153-0.153zM21.97 19.566h-8.694c-0.127 0-0.23 0.103-0.23 0.23s0.103 0.23 0.23 0.23h8.694c0.127 0 0.23-0.103 0.23-0.23s-0.103-0.23-0.23-0.23zM21.97 17.932h-8.694c-0.127 0-0.23 0.103-0.23 0.23s0.103 0.23 0.23 0.23h8.694c0.127 0 0.23-0.103 0.23-0.23s-0.103-0.23-0.23-0.23z" fill="#000000" />
</svg>
