<?xml version="1.0" encoding="utf-8"?>
<!-- Generated by IcoMoon.io -->
<!DOCTYPE svg PUBLIC "-//W3C//DTD SVG 1.1//EN" "http://www.w3.org/Graphics/SVG/1.1/DTD/svg11.dtd">
<svg version="1.1" xmlns="http://www.w3.org/2000/svg" xmlns:xlink="http://www.w3.org/1999/xlink" width="32" height="32" viewBox="0 0 32 32">
<g>
</g>
	<path d="M24.982 11.901c-0.898-2.934-3.635-4.969-6.719-4.969-3.092 0-5.807 2.016-6.713 4.941-0.504-0.18-1.030-0.271-1.569-0.271-2.187 0-4.068 1.504-4.564 3.612-1.954 0.072-3.601 1.429-4.036 3.351-0.019 0.086 0.001 0.177 0.057 0.247 0.056 0.069 0.139 0.11 0.228 0.11h10.051c-0.045 0.312-0.070 0.631-0.070 0.956 0 3.665 2.982 6.647 6.646 6.647 3.666 0 6.648-2.982 6.648-6.647 0-0.325-0.025-0.643-0.070-0.955h4.39c0.142 0 0.264-0.102 0.287-0.242 0.061-0.357 0.092-0.685 0.092-1.004 0-2.79-1.948-5.19-4.658-5.774zM18.294 25.91c-3.327 0-6.033-2.707-6.033-6.033 0-3.327 2.706-6.034 6.034-6.034 3.327 0 6.035 2.707 6.035 6.034-0 3.326-2.707 6.033-6.035 6.033zM29.011 18.338h-4.251c-0.696-2.926-3.33-5.109-6.466-5.109-3.135 0-5.769 2.183-6.465 5.109h-9.78c0.502-1.514 1.905-2.542 3.551-2.542h0.003l0.045 0.002c0.148 0.014 0.268-0.098 0.294-0.239 0.354-1.954 2.053-3.372 4.040-3.372 0.532 0 1.050 0.106 1.541 0.305 0.304 0.148 0.954 0.524 1.356 1.198 0.048 0.080 0.138 0.119 0.226 0.103 0.026-0.005 0.050-0.013 0.074-0.028 0.104-0.062 0.137-0.196 0.076-0.299-0.346-0.58-0.837-0.962-1.21-1.188 0.757-2.806 3.305-4.762 6.22-4.762 2.801 0 5.272 1.791 6.119 4.441-0.753-0.005-1.312 0.267-1.345 0.281-0.111 0.046-0.165 0.174-0.118 0.286 0.046 0.111 0.173 0.165 0.285 0.119 0.008-0.004 0.779-0.31 1.655-0.165 2.442 0.527 4.198 2.685 4.198 5.198 0 0.213-0.015 0.432-0.046 0.664zM21.266 16.885c0.010-0.063-0.020-0.125-0.077-0.153l-0.905-0.442c-0.020-0.010-0.041-0.014-0.063-0.014h-3.715c-0.020 0-0.039 0.004-0.057 0.011l-1.041 0.442c-0.062 0.026-0.096 0.091-0.085 0.157-0.002 0.007-0.003 0.016-0.003 0.026l0 3.259c0 0.002 0 0.004 0 0.006l-0 3.266c0 0.080 0.065 0.145 0.144 0.145h5.662c0.080 0 0.144-0.065 0.144-0.145v-3.259c0-0.002-0-0.004-0-0.005l0-3.266c0-0.010-0.002-0.019-0.004-0.027zM16.534 16.563h3.652l0.419 0.204h-4.552l0.481-0.204zM20.98 22.729h-0.447c-0.055 0-0.101-0.045-0.101-0.1s0.045-0.101 0.101-0.101h0.447l0 0.201zM20.98 22.338h-0.447c-0.16 0-0.29 0.131-0.29 0.291s0.13 0.291 0.29 0.291h0.447v0.379l-5.372 0v-1.34h5.372v0.379zM20.98 21.136h-0.447c-0.055 0-0.101-0.045-0.101-0.101s0.045-0.1 0.101-0.1h0.447l0 0.201zM20.98 20.745h-0.447c-0.16 0-0.29 0.13-0.29 0.291 0 0.16 0.13 0.291 0.29 0.291h0.447v0.343l-5.372 0v-1.341h5.372v0.416zM20.98 19.457h-0.447c-0.055 0-0.101-0.045-0.101-0.1s0.045-0.101 0.101-0.101h0.447l0 0.201zM20.98 19.066h-0.447c-0.16 0-0.29 0.131-0.29 0.291s0.13 0.29 0.29 0.29h0.447v0.379l-5.372 0v-1.34h5.372v0.379zM20.98 17.864h-0.447c-0.055 0-0.101-0.045-0.101-0.101s0.045-0.101 0.101-0.101h0.447l0 0.201zM20.98 17.472h-0.447c-0.16 0-0.29 0.131-0.29 0.291s0.13 0.291 0.29 0.291h0.447v0.343l-5.372 0v-1.34h5.372v0.416z" fill="#000000" />
</svg>
