<?xml version="1.0" encoding="utf-8"?>
<!-- Generated by IcoMoon.io -->
<!DOCTYPE svg PUBLIC "-//W3C//DTD SVG 1.1//EN" "http://www.w3.org/Graphics/SVG/1.1/DTD/svg11.dtd">
<svg version="1.1" xmlns="http://www.w3.org/2000/svg" xmlns:xlink="http://www.w3.org/1999/xlink" width="32" height="32" viewBox="0 0 32 32">
<g>
</g>
	<path d="M24.369 8.77h-16.75c-0.684 0-1.24 0.557-1.24 1.241v10.406c0 0.684 0.556 1.241 1.24 1.241h5.443v1.034h-1.673c-0.17 0-0.306 0.137-0.306 0.306s0.137 0.306 0.306 0.306h9.21c0.17 0 0.306-0.137 0.306-0.306s-0.137-0.306-0.306-0.306h-1.673l-0-1.034h5.443c0.684 0 1.24-0.557 1.24-1.241v-10.406c0-0.684-0.556-1.241-1.241-1.241zM13.675 22.692v-0.922h4.638v0.922h-4.638zM24.997 20.447c0 0.346-0.281 0.627-0.627 0.627l-16.75 0c-0.346 0-0.627-0.281-0.627-0.627v-10.437c0-0.346 0.281-0.628 0.627-0.628h16.75c0.346 0 0.627 0.282 0.627 0.628l0 10.436zM8.444 20.486h15.104c0.422 0 0.765-0.367 0.765-0.818v-8.757c0-0.451-0.343-0.818-0.765-0.818l-15.104 0c-0.422 0-0.765 0.367-0.765 0.818v8.757c0 0.451 0.344 0.818 0.765 0.818zM8.138 10.911c0-0.198 0.137-0.359 0.306-0.359h15.104c0.169 0 0.305 0.161 0.305 0.359v8.757c0 0.198-0.137 0.359-0.305 0.359l-15.104-0c-0.168 0-0.306-0.161-0.306-0.359v-8.757zM15.003 17.998h-4.825c-0.571 0-1.036-0.465-1.036-1.036v-2.995c0-0.571 0.465-1.036 1.036-1.036h4.825c0.571 0 1.036 0.465 1.036 1.036v2.995c0 0.571-0.465 1.036-1.036 1.036zM10.178 13.238c-0.402 0-0.73 0.327-0.73 0.73v2.995c0 0.402 0.327 0.729 0.73 0.729h4.825c0.402 0 0.73-0.327 0.73-0.729v-2.995c0-0.402-0.327-0.73-0.73-0.73h-4.825zM22.805 14.185h-5.782c-0.085 0-0.153-0.069-0.153-0.153s0.069-0.153 0.153-0.153h5.782c0.085 0 0.153 0.069 0.153 0.153s-0.068 0.153-0.153 0.153zM22.805 15.618h-5.782c-0.085 0-0.153-0.069-0.153-0.153s0.069-0.153 0.153-0.153h5.782c0.085 0 0.153 0.069 0.153 0.153s-0.068 0.153-0.153 0.153zM22.805 17.051h-5.782c-0.085 0-0.153-0.069-0.153-0.153s0.069-0.153 0.153-0.153l5.782 0c0.085 0 0.153 0.069 0.153 0.153s-0.068 0.153-0.153 0.153zM12.591 17.034c-0.893 0-1.619-0.726-1.619-1.619 0-0.893 0.726-1.619 1.619-1.619s1.619 0.726 1.619 1.619c-0 0.893-0.726 1.619-1.619 1.619zM12.591 14.103c-0.724 0-1.313 0.589-1.313 1.313 0 0.723 0.589 1.312 1.313 1.312s1.313-0.589 1.313-1.312c-0-0.724-0.589-1.313-1.313-1.313zM12.138 16.195c-0.028 0-0.055-0.007-0.080-0.022-0.045-0.028-0.073-0.077-0.073-0.131v-1.253c0-0.053 0.028-0.103 0.073-0.13 0.045-0.028 0.102-0.030 0.149-0.006l1.231 0.621c0.051 0.026 0.084 0.078 0.084 0.136 0 0.058-0.032 0.111-0.083 0.137l-1.231 0.632c-0.022 0.012-0.046 0.017-0.070 0.017zM12.291 15.038v0.753l0.74-0.38-0.74-0.374z" fill="#000000" />
</svg>
