<?xml version="1.0" encoding="utf-8"?>
<!-- Generator: Adobe Illustrator 17.1.0, SVG Export Plug-In . SVG Version: 6.00 Build 0)  -->
<!DOCTYPE svg PUBLIC "-//W3C//DTD SVG 1.1//EN" "http://www.w3.org/Graphics/SVG/1.1/DTD/svg11.dtd">
<svg version="1.1" id="Layer_1" xmlns="http://www.w3.org/2000/svg" xmlns:xlink="http://www.w3.org/1999/xlink" x="0px" y="0px"
	 viewBox="0 0 512 512" enable-background="new 0 0 512 512" xml:space="preserve">
<path d="M254.5,447.3c-0.2,0-0.4,0-0.6,0c-93.2-10.9-158.3-84.9-158.3-180.1V120c0-2.1,1.3-4,3.3-4.6
	c28.3-9.6,143.5-31.6,155.7-31.6c10.2,0,124.6,21.3,155.1,31.6c2,0.7,3.3,2.5,3.3,4.6v147.1c0,95.2-65,169.2-158,180.1
	C254.9,447.3,254.7,447.3,254.5,447.3z M105.4,123.6v143.6c0,105.3,74.8,161.4,149.1,170.3c74.2-8.9,148.8-64.9,148.8-170.3V123.6
	c-33.3-10.2-139.4-30-148.7-30C245.2,93.6,138.7,113.4,105.4,123.6z M254.5,420.2c-0.2,0-0.3,0-0.5,0c-66.1-9-132.8-59.8-132.8-153
	V158.5c0-1.7,1.1-3.2,2.8-3.6c38.7-9.5,115.6-23.9,130.2-25.2c0.2,0,0.5,0,0.7,0c12.5,1.3,89.8,15.3,129.7,25.2
	c1.6,0.4,2.8,1.9,2.8,3.6v108.7c0,93.2-66.5,144-132.5,153C254.8,420.2,254.6,420.2,254.5,420.2z M128.6,161.4v105.8
	c0,88.6,63.2,136.9,125.9,145.7c62.6-8.7,125.6-57.1,125.6-145.7V161.4c-39.2-9.5-112.8-22.9-125.6-24.3
	C241.1,138.4,168.7,151.7,128.6,161.4z M266,321.4c-0.6,0-1.1-0.2-1.5-0.5c-0.6-0.5-0.9-1.2-0.9-1.9v-38.2c0-0.8,0.4-1.6,1.1-2
	c0.7-0.5,1.5-0.6,2.3-0.3c9,3.4,19.3,9,19.3,22.1c0,10.6-7,18-19.7,20.8C266.3,321.4,266.2,321.4,266,321.4z M268.4,284.4v31.4
	c6.4-2,12.9-6.2,12.9-15.2C281.3,293.3,277.5,288.5,268.4,284.4z M246.3,254.3c-0.3,0-0.6-0.1-0.9-0.2c-8.3-3.2-17.9-8.3-17.9-19.5
	c0-6.9,3.2-15.6,18.3-18.4c0.7-0.1,1.4,0.1,2,0.5c0.6,0.5,0.9,1.2,0.9,1.9v33.2c0,0.8-0.4,1.6-1.1,2
	C247.2,254.2,246.8,254.3,246.3,254.3z M243.8,221.7c-7.7,2.1-11.5,6.4-11.5,13c0,5.8,3.4,9.9,11.5,13.6V221.7z M266,362.7h-19.7
	c-1.3,0-2.4-1.1-2.4-2.4v-18.5c-21.8-2.7-33.1-13.8-40-20.5l-1.6-1.5c-0.5-0.5-0.7-1.1-0.7-1.8c0-0.7,0.3-1.3,0.7-1.8l15.2-14.6
	c0.5-0.5,1.1-0.7,1.8-0.7c0.7,0,1.3,0.3,1.7,0.8c5.6,6.3,13.9,11.3,22.8,13.9v-39.3c-18.3-5.7-37.2-14.2-37.2-40.1
	c0-21.1,14.2-36.4,37.2-40.3v-15.4c0-1.3,1.1-2.4,2.4-2.4H266c1.3,0,2.4,1.1,2.4,2.4v15.6c16.5,3.1,26.7,11.8,33.1,18.1
	c0.9,0.9,1,2.5,0,3.4l-14.4,14.9c-0.9,1-2.4,1-3.4,0.1c-4.3-4-9.1-7.9-15.3-10.3v33.9c19,6.1,38.6,15.3,38.6,42.2
	c0,13.8-5.1,37.3-38.6,42.7v19C268.4,361.7,267.3,362.7,266,362.7z M248.7,357.9h14.8v-18.6c0-1.2,0.9-2.3,2.1-2.4
	c30.1-4,36.5-23,36.5-38.2c0-24.4-18.2-32.2-36.9-38.1c-1-0.3-1.7-1.3-1.7-2.3v-39.1c0-0.8,0.4-1.5,1-1.9c0.6-0.5,1.4-0.6,2.1-0.4
	c7.8,2.2,13.6,6.4,18.7,10.8l11-11.5c-6.2-5.9-15.9-13.1-30.7-15.4c-1.2-0.2-2.1-1.2-2.1-2.4V183h-14.8v15.1c0,1.2-0.9,2.3-2.1,2.4
	c-22,3-35.1,16.4-35.1,35.8c0,23.4,17.5,30.6,35.4,36c1,0.3,1.7,1.3,1.7,2.3v44.2c0,0.7-0.3,1.4-0.9,1.9c-0.6,0.5-1.3,0.6-2.1,0.5
	c-10-2.3-19.8-7.6-26.6-14.4l-11.6,11.2c6.6,6.5,17.7,17.1,39,19.1c1.3,0.1,2.2,1.2,2.2,2.4V357.9z"/>
</svg>
