<?xml version="1.0" encoding="utf-8"?>
<!-- Generated by IcoMoon.io -->
<!DOCTYPE svg PUBLIC "-//W3C//DTD SVG 1.1//EN" "http://www.w3.org/Graphics/SVG/1.1/DTD/svg11.dtd">
<svg version="1.1" xmlns="http://www.w3.org/2000/svg" xmlns:xlink="http://www.w3.org/1999/xlink" width="32" height="32" viewBox="0 0 32 32">
<g>
</g>
	<path d="M23.534 9.94h-0.044l-6.358-3.505c-0.003-0.002-0.007-0.002-0.011-0.003l-0.057-0.032c-0.034-0.019-0.071-0.023-0.106-0.016h-0.001c-0.007 0.001-0.015 0.004-0.022 0.006-0.032 0.012-0.059 0.034-0.078 0.065v0.001h-0c-0.001 0.002-0.003 0.005-0.004 0.007 0 0-0 0-0 0.001-0.011 0.022-0.017 0.045-0.018 0.068l-0.033 0.901c-0.014 0.097 0.006 0.271 0.133 0.378-0.018-0.024-0.029-0.052-0.031-0.081 0.002 0.029 0.013 0.058 0.031 0.081 0.012 0.016 0.028 0.031 0.046 0.041l3.672 2.089-9.294 0 3.672-2.089c0.019-0.010 0.034-0.025 0.046-0.040 0.127-0.108 0.148-0.28 0.135-0.362l-0.035-0.917c-0-0.025-0.007-0.050-0.020-0.072v-0.001c-0.019-0.033-0.048-0.057-0.082-0.069-0.006-0.002-0.014-0.004-0.020-0.006h-0.001c-0.035-0.007-0.072-0.002-0.106 0.017l-0.057 0.032c-0.004 0.001-0.007 0.001-0.011 0.003l-6.357 3.505h-0.055c-0.17 0-0.306 0.137-0.306 0.306v15.067c0 0.17 0.137 0.306 0.306 0.306h15.067c0.17 0 0.306-0.137 0.306-0.306v-15.067c0-0.169-0.137-0.306-0.306-0.306zM22.855 9.94h-0.352l0.015-0.166c0.001-0.006 0.002-0.013 0.002-0.019l0.335 0.185zM22.153 9.634c0.061 0.035 0.065 0.070 0.062 0.095l-0.019 0.211h-0.539l0.434-0.32c0.002-0.002 0.022-0.010 0.063 0.014zM21.874 9.399l-0.59 0.434c-0.016 0.012-0.073 0.046-0.142 0.008-0.026-0.015-0.031-0.080-0.026-0.117l0.063-0.703c0-0.001 0-0.003 0.001-0.005l0.694 0.382zM20.526 8.656l-0.581 0.427c0 0.001-0.062 0.049-0.139 0.006-0.026-0.014-0.030-0.079-0.025-0.116l0.062-0.693 0.683 0.376zM19.177 7.912l-0.566 0.416c-0.011 0.009-0.070 0.048-0.142 0.008-0.026-0.015-0.030-0.080-0.026-0.116l0.061-0.678 0.673 0.371zM17.828 7.169l-0.556 0.41c-0.001 0-0.062 0.048-0.139 0.005-0.025-0.014-0.031-0.077-0.025-0.124l0.026-0.674 0.695 0.383zM17.498 7.792l0.582-0.429c0.002-0.001 0.022-0.008 0.062 0.014 0 0 0.001 0 0.001 0.001 0.061 0.034 0.065 0.070 0.062 0.094l-0.063 0.686-0.643-0.366zM18.829 8.549l0.59-0.434c0.002-0.001 0.021-0.008 0.062 0.014 0.061 0.034 0.064 0.070 0.062 0.094l-0.063 0.695-0.65-0.37zM20.159 9.306l0.595-0.439c0.002-0.001 0.022-0.008 0.062 0.015h0c0.061 0.034 0.064 0.070 0.061 0.095l-0.064 0.702-0.655-0.373zM11.197 9.678l-0.067-0.72c0 0-0.001-0.041 0.064-0.077h0c0.039-0.022 0.058-0.016 0.052-0.021l0.606 0.445-0.655 0.373zM9.794 9.712c0-0.001-0.001-0.041 0.065-0.078 0.038-0.022 0.058-0.015 0.052-0.021l0.444 0.327h-0.54l-0.021-0.228zM12.534 8.918l-0.066-0.712c0-0.001 0-0.041 0.064-0.077 0.038-0.022 0.058-0.016 0.052-0.021l0.599 0.441-0.649 0.369zM13.87 8.158l-0.064-0.697c-0.001-0.014 0.002-0.050 0.063-0.084 0.001-0.001 0.001-0.001 0.001-0.001 0.038-0.022 0.058-0.016 0.052-0.021l0.593 0.436-0.644 0.366zM14.879 6.785l0.027 0.691c0.003 0.020 0.001 0.092-0.027 0.108 0 0-0 0-0.001 0l-0.001 0.001c-0.068 0.038-0.124 0.003-0.144-0.011l-0.55-0.405 0.695-0.383zM13.506 7.542l0.063 0.686c0.003 0.020 0.001 0.092-0.026 0.108-0.072 0.040-0.131 0.001-0.146-0.011l-0.562-0.413 0.671-0.37zM12.167 8.28l0.064 0.7c0.004 0.030 0 0.094-0.027 0.109-0.069 0.040-0.125 0.005-0.145-0.010l-0.574-0.423 0.682-0.375zM10.829 9.018l0.066 0.714c0.004 0.030-0 0.095-0.026 0.11-0.069 0.038-0.126 0.004-0.146-0.011l-0.586-0.431 0.692-0.381zM9.49 9.755c0 0.001 0 0.001 0 0.002l0.017 0.183h-0.352l0.334-0.185zM23.227 25.007h-14.454v-14.454h14.454l0 14.454zM17.604 17.866l0.826 1.477h-0.892l0.004-0.356c0-0.057 0-0.11-0.072-0.158-0.060-0.040-0.139-0.035-0.209 0.017-0.010 0.008-0.019 0.017-0.026 0.027l-0.91 1.312c-0.028 0.040-0.028 0.092 0 0.132l0.91 1.313c0.007 0.010 0.016 0.019 0.026 0.027 0.039 0.029 0.080 0.044 0.121 0.044 0.032 0 0.062-0.010 0.088-0.027 0.072-0.048 0.072-0.102 0.072-0.159l-0.004-0.354h0.654c0.69 0 0.915-0.39 0.926-0.41l0.822-1.582c0.001-0.001 0-0.002 0.001-0.003s0.002-0.002 0.002-0.002c0.326-0.717 0.050-1.222 0.039-1.242l-0.599-1.1c-0.015-0.028-0.040-0.048-0.070-0.056s-0.062-0.004-0.090 0.012l-1.577 0.934c-0.054 0.032-0.073 0.1-0.042 0.156zM18.915 20.641c-0.002 0.003-0.176 0.289-0.723 0.289h-0.771c-0.031 0-0.060 0.012-0.082 0.034-0.022 0.021-0.034 0.051-0.033 0.082l0.003 0.286-0.749-1.080 0.749-1.080-0.003 0.286c-0 0.031 0.012 0.060 0.033 0.083 0.022 0.022 0.051 0.034 0.082 0.034h1.595c0.066 0 0.28-0.006 0.493-0.077l-0.595 1.143zM19.238 17.037l0.542 0.996c0.009 0.018 0.227 0.428-0.045 1.031-0.118 0.221-0.52 0.28-0.722 0.28h-0.317l-0.835-1.491 1.376-0.816zM13.411 20.485c0.452 0.645 1.027 0.663 1.050 0.664l1.254 0.042c0.030 0 0.058-0.011 0.081-0.032 0.022-0.022 0.035-0.051 0.035-0.083v-1.832c0-0.063-0.051-0.116-0.115-0.116l-1.714-0.002 0.47-0.811 0.31 0.19c0.035 0.020 0.062 0.037 0.103 0.037 0.033 0 0.057-0.011 0.070-0.018 0.066-0.032 0.101-0.102 0.092-0.188-0.001-0.013-0.005-0.026-0.010-0.037l-0.669-1.45c-0.020-0.044-0.066-0.070-0.113-0.067l-1.593 0.118c-0.012 0.001-0.025 0.004-0.036 0.008-0.079 0.034-0.125 0.098-0.121 0.172 0.005 0.087 0.051 0.114 0.102 0.144l0.301 0.171-0.327 0.569c-0.091 0.154-0.151 0.309-0.179 0.461v0.001l-0 0.001c-0.001 0.002 0 0.006-0.001 0.008s-0.001 0.006-0.001 0.010c0 0-0 0-0 0.001v0.003c-0.047 0.324 0.163 0.68 0.173 0.697l0.84 1.342zM15.6 19.359v1.598l-1.132-0.039c-0.020-0.001-0.486-0.021-0.864-0.56l-0.734-1.173c0.006 0.003 0.013 0.004 0.019 0.007 0.063 0.031 0.129 0.056 0.196 0.077 0.008 0.002 0.017 0.006 0.025 0.009 0.070 0.019 0.138 0.034 0.206 0.046 0.014 0.002 0.026 0.005 0.040 0.006 0.065 0.010 0.128 0.018 0.186 0.022 0.011 0.001 0.020 0.001 0.032 0.002 0.058 0.004 0.113 0.006 0.158 0.006 0.031 0 0.056-0.001 0.073-0.001l0.019-0.001 1.776 0.003zM12.779 18.078l0.386-0.671c0.015-0.026 0.019-0.058 0.011-0.088-0.008-0.030-0.028-0.054-0.054-0.070l-0.239-0.136 1.309-0.096 0.55 1.192-0.249-0.153c-0.027-0.016-0.058-0.021-0.089-0.013-0.030 0.008-0.056 0.027-0.072 0.054l-0.598 1.030h-0.001c-0.171 0-0.598-0.021-0.869-0.215-0.156-0.112-0.233-0.261-0.234-0.456 0.023-0.123 0.073-0.25 0.149-0.378zM13.73 15.961l1.556 0.967c0.019 0.011 0.040 0.018 0.061 0.018 0.038 0 0.074-0.019 0.097-0.052l0.925-1.41 0.4 0.784-0.301 0.163c-0.048 0.025-0.098 0.051-0.107 0.137-0.008 0.073 0.034 0.139 0.112 0.177 0.011 0.006 0.024 0.009 0.036 0.011l1.585 0.2c0.005 0.001 0.010 0.001 0.014 0.001 0.042 0 0.082-0.023 0.102-0.062l0.743-1.413c0.006-0.011 0.010-0.023 0.012-0.035 0.014-0.086-0.016-0.158-0.081-0.194-0.015-0.008-0.041-0.022-0.077-0.022-0.037 0-0.063 0.014-0.096 0.031l-0.33 0.166-0.287-0.578c-0.319-0.612-0.77-0.632-0.792-0.632l-1.789 0.001c-0.786 0.042-1.106 0.52-1.119 0.539l-0.699 1.040c-0.018 0.026-0.024 0.058-0.017 0.089s0.026 0.057 0.052 0.074zM17.298 14.449c0.014 0.001 0.339 0.023 0.591 0.506l0.338 0.68c0.014 0.028 0.038 0.048 0.067 0.058 0.030 0.010 0.061 0.008 0.089-0.006l0.277-0.139-0.616 1.17-1.312-0.166 0.247-0.134c0.055-0.030 0.077-0.098 0.048-0.154l-0.531-1.044c-0.004-0.014-0.011-0.028-0.020-0.040l-0.164-0.323c-0.008-0.016-0.118-0.231-0.301-0.407l1.289-0.001zM14.587 14.887c0.011-0.017 0.275-0.4 0.936-0.437 0.265 0.002 0.509 0.369 0.581 0.511l0.145 0.285-0.935 1.426-1.359-0.844 0.633-0.941z" fill="#000000" />
</svg>
