<?xml version="1.0" encoding="utf-8"?>
<!-- Generated by IcoMoon.io -->
<!DOCTYPE svg PUBLIC "-//W3C//DTD SVG 1.1//EN" "http://www.w3.org/Graphics/SVG/1.1/DTD/svg11.dtd">
<svg version="1.1" xmlns="http://www.w3.org/2000/svg" xmlns:xlink="http://www.w3.org/1999/xlink" width="32" height="32" viewBox="0 0 32 32">
<g>
</g>
	<path d="M24.158 8.795l-3.635-3.746c-0.058-0.059-0.137-0.093-0.22-0.093h-11.261c-0.17 0-0.306 0.137-0.306 0.306v20.427c0 0.17 0.137 0.306 0.306 0.306h14.896c0.169 0 0.306-0.137 0.306-0.306l0-16.68c0-0.080-0.031-0.156-0.087-0.214zM20.609 6.019l2.767 2.852h-2.767v-2.852zM23.631 25.382h-14.283v-19.814h10.648v3.477c0 0.023 0.008 0.044 0.013 0.066-0.005 0.022-0.013 0.042-0.013 0.066 0 0.17 0.137 0.306 0.306 0.306h3.328l0 15.898zM19.55 14.644c-0.015-0.028-0.040-0.047-0.070-0.056s-0.062-0.004-0.090 0.012l-1.577 0.934c-0.054 0.032-0.073 0.101-0.042 0.156l0.826 1.477h-0.892l0.004-0.355c0-0.057 0-0.11-0.072-0.158-0.060-0.040-0.139-0.035-0.209 0.017-0.010 0.008-0.019 0.017-0.026 0.027l-0.91 1.312c-0.028 0.040-0.028 0.092 0 0.132l0.91 1.313c0.007 0.010 0.016 0.019 0.026 0.027 0.039 0.029 0.080 0.044 0.121 0.044 0.032 0 0.062-0.009 0.088-0.027 0.072-0.048 0.072-0.102 0.072-0.16l-0.004-0.354h0.654c0.69 0 0.915-0.39 0.926-0.41l0.822-1.581c0.001-0.001 0-0.002 0.001-0.003 0.001-0.001 0.002-0.002 0.002-0.002 0.326-0.717 0.050-1.222 0.039-1.242l-0.599-1.1zM19.082 18.463c-0.002 0.003-0.176 0.289-0.723 0.289h-0.771c-0.031 0-0.060 0.012-0.082 0.034-0.022 0.022-0.034 0.052-0.033 0.083l0.003 0.286-0.749-1.080 0.749-1.080-0.003 0.286c-0.001 0.031 0.012 0.060 0.033 0.083 0.022 0.022 0.051 0.034 0.082 0.034h1.596c0.066 0 0.28-0.006 0.493-0.077l-0.595 1.143zM19.902 16.886c-0.118 0.221-0.52 0.28-0.722 0.28h-0.317l-0.835-1.491 1.377-0.815 0.542 0.996c0.009 0.017 0.227 0.427-0.045 1.030zM15.882 16.951l-1.714-0.003 0.47-0.81 0.31 0.19c0.035 0.021 0.062 0.037 0.102 0.037 0.033 0 0.057-0.012 0.070-0.018 0.066-0.032 0.101-0.102 0.092-0.188-0.001-0.013-0.005-0.026-0.010-0.037l-0.669-1.45c-0.020-0.043-0.066-0.070-0.114-0.067l-1.593 0.118c-0.013 0.001-0.025 0.004-0.036 0.009-0.079 0.034-0.125 0.098-0.121 0.172 0.005 0.086 0.051 0.114 0.102 0.143l0.301 0.171-0.327 0.569c-0.091 0.154-0.151 0.309-0.179 0.461 0 0.001 0 0.001-0 0.002v0c-0.001 0.003-0 0.006-0.001 0.008-0.001 0.003-0.001 0.006-0.001 0.010 0 0-0 0-0 0v0.003c-0.047 0.324 0.163 0.68 0.173 0.697l0.839 1.342c0.452 0.645 1.027 0.663 1.050 0.664l1.25 0.042c0.002 0 0.002 0 0.004 0 0.030 0 0.058-0.012 0.081-0.033 0.022-0.022 0.035-0.051 0.035-0.083l0-1.832c0-0.064-0.051-0.115-0.115-0.115zM12.796 16.279c0.024-0.122 0.074-0.249 0.15-0.378l0.386-0.671c0.015-0.027 0.019-0.058 0.011-0.088-0.008-0.030-0.028-0.055-0.055-0.070l-0.239-0.135 1.309-0.096 0.55 1.192-0.249-0.153c-0.027-0.016-0.058-0.021-0.089-0.014-0.031 0.008-0.056 0.027-0.072 0.054l-0.598 1.030h-0.001c-0.171 0-0.598-0.021-0.868-0.215-0.156-0.113-0.233-0.261-0.235-0.457zM15.766 18.779l-1.132-0.039c-0.020-0.001-0.486-0.021-0.864-0.56l-0.734-1.173c0.006 0.003 0.013 0.005 0.019 0.007 0.063 0.031 0.129 0.056 0.196 0.076 0.008 0.003 0.017 0.006 0.025 0.008 0.070 0.020 0.138 0.035 0.206 0.046 0.014 0.002 0.026 0.005 0.040 0.006 0.065 0.010 0.128 0.017 0.186 0.022 0.011 0.001 0.021 0.001 0.032 0.002 0.058 0.003 0.113 0.006 0.158 0.006 0.031 0 0.056-0.001 0.073-0.001l0.019-0.001 1.776 0.003-0.001 1.598zM13.897 13.784l1.556 0.966c0.019 0.012 0.040 0.018 0.061 0.018 0.038 0 0.074-0.018 0.097-0.052l0.925-1.41 0.4 0.785-0.301 0.162c-0.048 0.025-0.098 0.051-0.107 0.137-0.008 0.073 0.034 0.139 0.112 0.178 0.011 0.006 0.023 0.009 0.036 0.010l1.585 0.201c0.005 0.001 0.010 0.001 0.014 0.001 0.042 0 0.082-0.023 0.102-0.062l0.743-1.413c0.006-0.011 0.010-0.023 0.012-0.035 0.014-0.086-0.017-0.158-0.081-0.194-0.015-0.008-0.041-0.022-0.077-0.022-0.037 0-0.063 0.014-0.096 0.031l-0.33 0.166-0.287-0.578c-0.319-0.612-0.77-0.632-0.792-0.632l-1.787 0.002c-0.001 0-0.001-0-0.002-0-0.786 0.042-1.106 0.52-1.118 0.539l-0.699 1.040c-0.018 0.026-0.024 0.058-0.017 0.089 0.007 0.031 0.026 0.057 0.052 0.074zM17.465 12.271c0.014 0.001 0.339 0.023 0.59 0.506l0.338 0.68c0.014 0.028 0.038 0.049 0.067 0.058 0.030 0.010 0.061 0.007 0.089-0.006l0.277-0.139-0.616 1.17-1.312-0.166 0.247-0.134c0.055-0.030 0.077-0.098 0.048-0.154l-0.531-1.044c-0.004-0.015-0.011-0.028-0.020-0.040l-0.164-0.323c-0.008-0.015-0.118-0.231-0.301-0.407l1.289-0.001zM14.754 12.71c0.011-0.017 0.275-0.4 0.936-0.437 0.265 0.002 0.509 0.369 0.581 0.511l0.145 0.285-0.935 1.426-1.359-0.844 0.633-0.941z" fill="#000000" />
</svg>
