<?xml version="1.0" encoding="utf-8"?>
<!-- Generated by IcoMoon.io -->
<!DOCTYPE svg PUBLIC "-//W3C//DTD SVG 1.1//EN" "http://www.w3.org/Graphics/SVG/1.1/DTD/svg11.dtd">
<svg version="1.1" xmlns="http://www.w3.org/2000/svg" xmlns:xlink="http://www.w3.org/1999/xlink" width="32" height="32" viewBox="0 0 32 32">
<g>
</g>
	<path d="M25.604 11.669c-0.898-2.934-3.636-4.969-6.719-4.969-3.093 0-5.807 2.016-6.713 4.941-0.504-0.18-1.030-0.271-1.569-0.271-2.187 0-4.068 1.505-4.564 3.612-1.954 0.071-3.601 1.429-4.036 3.35-0.019 0.086 0.001 0.177 0.057 0.247 0.056 0.069 0.139 0.109 0.228 0.109h10.051c-0.045 0.313-0.070 0.631-0.070 0.955 0 3.665 2.982 6.647 6.647 6.647s6.647-2.982 6.647-6.647c0-0.325-0.025-0.643-0.070-0.955h4.39c0.142 0 0.263-0.102 0.287-0.242 0.062-0.357 0.092-0.685 0.092-1.004 0-2.79-1.948-5.189-4.658-5.774zM18.916 25.678c-3.327 0-6.034-2.707-6.034-6.034 0-3.327 2.707-6.034 6.034-6.034 3.327 0 6.034 2.707 6.034 6.034-0.001 3.327-2.707 6.034-6.034 6.034zM29.633 18.106h-4.252c-0.696-2.926-3.33-5.109-6.466-5.109-3.135 0-5.769 2.183-6.465 5.109h-9.78c0.501-1.514 1.905-2.542 3.551-2.542h0.002l0.045 0.002c0.148 0.014 0.268-0.098 0.294-0.239 0.354-1.954 2.053-3.372 4.040-3.372 0.532 0 1.050 0.105 1.541 0.305 0.304 0.148 0.954 0.524 1.356 1.198 0.048 0.080 0.138 0.119 0.226 0.103 0.026-0.005 0.051-0.013 0.074-0.028 0.104-0.062 0.138-0.196 0.076-0.299-0.346-0.58-0.837-0.962-1.21-1.188 0.758-2.807 3.305-4.762 6.221-4.762 2.801 0 5.272 1.792 6.12 4.442-0.753-0.005-1.312 0.267-1.345 0.281-0.111 0.046-0.165 0.173-0.118 0.285 0.046 0.112 0.174 0.165 0.285 0.119 0.008-0.004 0.779-0.31 1.655-0.165 2.441 0.528 4.198 2.685 4.198 5.198 0 0.213-0.015 0.432-0.046 0.664zM22.449 19.302c-0.302 0-0.563 0.171-0.698 0.42l-1.062-0.306c0.001-0.023 0.004-0.046 0.004-0.069 0-0.616-0.293-1.163-0.747-1.514l0.576-0.858c0.026 0.003 0.051 0.007 0.077 0.007 0.349 0 0.632-0.283 0.632-0.632s-0.283-0.632-0.632-0.632-0.632 0.283-0.632 0.632c0 0.188 0.084 0.355 0.215 0.471l-0.547 0.816c-0.258-0.13-0.547-0.204-0.855-0.204-0.581 0-1.102 0.262-1.453 0.672l-0.786-0.65c0.056-0.109 0.090-0.23 0.090-0.361 0-0.438-0.356-0.794-0.794-0.794-0.438 0-0.794 0.356-0.794 0.794 0 0.438 0.357 0.794 0.794 0.794 0.174 0 0.335-0.058 0.466-0.154l0.813 0.672c-0.158 0.278-0.249 0.598-0.249 0.939 0 0.456 0.161 0.876 0.429 1.205l-0.531 0.441c-0.107-0.071-0.235-0.114-0.372-0.114-0.369 0-0.67 0.301-0.67 0.67 0 0.37 0.3 0.671 0.67 0.671 0.37 0 0.671-0.301 0.671-0.671 0-0.098-0.023-0.192-0.061-0.276l0.553-0.46c0.332 0.278 0.759 0.445 1.225 0.445 0.229 0 0.448-0.042 0.651-0.117l0.45 1.199c-0.337 0.184-0.569 0.536-0.569 0.947 0 0.597 0.485 1.081 1.081 1.081s1.080-0.485 1.080-1.081c0-0.596-0.484-1.081-1.080-1.081-0.056 0-0.11 0.008-0.164 0.017l-0.465-1.24c0.435-0.262 0.757-0.692 0.876-1.2l1.012 0.292c0 0.009-0.002 0.018-0.002 0.026 0 0.441 0.359 0.799 0.799 0.799 0.441 0 0.8-0.359 0.8-0.799-0-0.441-0.359-0.8-0.8-0.8zM20.599 16.086c0.146 0 0.264 0.118 0.264 0.264s-0.119 0.264-0.264 0.264-0.265-0.119-0.265-0.264c0-0.146 0.119-0.264 0.265-0.264zM15.836 17.521c-0.235 0-0.427-0.192-0.427-0.427 0-0.235 0.191-0.426 0.427-0.426s0.427 0.192 0.427 0.426c0 0.235-0.192 0.427-0.427 0.427zM16.392 21.853c-0.166 0-0.302-0.136-0.302-0.303 0-0.166 0.135-0.302 0.302-0.302 0.167 0 0.303 0.136 0.303 0.302 0 0.167-0.136 0.303-0.303 0.303zM20.392 22.575c0.393 0 0.713 0.32 0.713 0.714 0 0.394-0.32 0.713-0.713 0.713s-0.714-0.32-0.714-0.713c0-0.393 0.32-0.714 0.714-0.714zM18.78 20.892c-0.852 0-1.546-0.693-1.546-1.546 0-0.852 0.694-1.546 1.546-1.546s1.545 0.694 1.545 1.546c0 0.852-0.693 1.546-1.545 1.546zM22.449 20.534c-0.238 0-0.432-0.194-0.432-0.432 0-0.238 0.194-0.433 0.432-0.433 0.238 0 0.432 0.195 0.432 0.433 0 0.238-0.194 0.432-0.432 0.432z" fill="#000000" />
</svg>
