<?xml version="1.0" encoding="utf-8"?>
<!-- Generator: Adobe Illustrator 17.1.0, SVG Export Plug-In . SVG Version: 6.00 Build 0)  -->
<!DOCTYPE svg PUBLIC "-//W3C//DTD SVG 1.1//EN" "http://www.w3.org/Graphics/SVG/1.1/DTD/svg11.dtd">
<svg version="1.1" id="Layer_1" xmlns="http://www.w3.org/2000/svg" xmlns:xlink="http://www.w3.org/1999/xlink" x="0px" y="0px"
	 viewBox="0 0 32 32" enable-background="new 0 0 32 32" xml:space="preserve">
<g>
	<path d="M8.2,13.8c1.3,0,2.3-1,2.3-2.3c0-1.3-1-2.3-2.3-2.3s-2.3,1-2.3,2.3C5.9,12.8,6.9,13.8,8.2,13.8z M8.2,9.8
		c0.9,0,1.7,0.8,1.7,1.7c0,0.9-0.8,1.7-1.7,1.7c-0.9,0-1.7-0.8-1.7-1.7C6.5,10.6,7.3,9.8,8.2,9.8z"/>
	<path d="M28.3,7.8H14.8c-0.4,0-0.7,0.3-0.7,0.7v6H7.8c-3.1,0-4.5,1.1-4.5,3.7v1.7c0,0,0,0,0,0.1c0,0.4-0.1,1.6,1.7,2.7v0.7l0.2,0.1
		c1,0.4,2,0.5,3.1,0.5c1,0,2.1-0.2,3.1-0.5l0.2-0.1v-4.9c0-0.5,0.3-0.9,0.8-1c0.2,0,1-0.1,1.8-0.3v6.5c0,0.4,0.3,0.7,0.7,0.7h13.4
		c0.4,0,0.7-0.3,0.7-0.7V8.5C29,8.1,28.7,7.8,28.3,7.8z M8.1,15.8h0.2l0.4,6l-0.5,0.4l-0.5-0.4L8.1,15.8z M8.3,15.5H8.1l-0.2-0.5
		h0.6L8.3,15.5z M12.2,16.8c-0.8,0.1-1.4,0.7-1.4,1.6v4.5c-0.9,0.3-1.8,0.4-2.7,0.4c-1,0-1.8-0.1-2.7-0.4v-0.3c0,0,0,0,0-0.1v-4.4
		c0-0.1-0.1-0.2-0.2-0.2S5.1,18,5.1,18.1V22c-1.3-0.9-1.2-1.7-1.2-2c0,0,0-0.1,0-0.1v-1.7c0-2.1,1.1-3.1,3.7-3.1l0.3,0.6l-0.4,6.2
		c0,0,0,0.1,0.1,0.1l0.7,0.5c0,0,0.1,0,0.1,0s0.1,0,0.1,0L8.9,22c0,0,0.1-0.1,0.1-0.1l-0.4-6.2l0.3-0.6h9.5c0.2,0,0.4,0.2,0.4,0.4
		c0,0.3-0.3,0.4-0.5,0.4c-0.3,0-1.5,0.2-2.8,0.4C14.1,16.6,12.6,16.8,12.2,16.8z M28.4,23.7C28.4,23.7,28.3,23.8,28.4,23.7
		l-13.5,0.1c-0.1,0-0.1,0-0.1-0.1v-6.6c0.3,0,0.6-0.1,0.8-0.1c1.2-0.2,2.4-0.4,2.8-0.4c0.6-0.1,1-0.5,1-1.1c0-0.6-0.5-1.1-1.1-1.1
		h-3.6v-6c0-0.1,0-0.1,0.1-0.1h13.4c0.1,0,0.1,0,0.1,0.1V23.7z"/>
	<path d="M28,22.9H15.1c-0.1,0-0.2,0.1-0.2,0.2s0.1,0.2,0.2,0.2H28c0.1,0,0.2-0.1,0.2-0.2S28.1,22.9,28,22.9z"/>
</g>
</svg>
