<?xml version="1.0" encoding="utf-8"?>
<!-- Generated by IcoMoon.io -->
<!DOCTYPE svg PUBLIC "-//W3C//DTD SVG 1.1//EN" "http://www.w3.org/Graphics/SVG/1.1/DTD/svg11.dtd">
<svg version="1.1" xmlns="http://www.w3.org/2000/svg" xmlns:xlink="http://www.w3.org/1999/xlink" width="32" height="32" viewBox="0 0 32 32">
<g>
</g>
	<path d="M15.474 27.567c-0.029 0-0.058-0.008-0.083-0.024l-3.938-2.518c-0.072-0.046-0.094-0.142-0.046-0.214 0.046-0.072 0.141-0.094 0.214-0.047l3.938 2.518c0.072 0.046 0.094 0.142 0.047 0.214-0.030 0.046-0.080 0.071-0.131 0.071zM15.531 23.334c-0.031 0-0.062-0.009-0.089-0.029l-3.056-2.041c-0.070-0.049-0.087-0.146-0.038-0.216 0.049-0.070 0.145-0.087 0.215-0.038l3.056 2.041c0.070 0.049 0.087 0.146 0.038 0.216-0.030 0.044-0.078 0.067-0.127 0.067zM15.587 19.101c-0.033 0-0.066-0.011-0.094-0.032l-2.174-1.565c-0.068-0.052-0.080-0.149-0.028-0.217 0.052-0.067 0.148-0.081 0.217-0.028l2.174 1.565c0.068 0.052 0.081 0.149 0.029 0.217-0.031 0.040-0.076 0.061-0.123 0.061zM15.644 14.867c-0.035 0-0.070-0.012-0.1-0.037l-1.293-1.089c-0.066-0.055-0.074-0.153-0.019-0.218 0.054-0.065 0.152-0.074 0.218-0.019l1.293 1.089c0.066 0.055 0.074 0.153 0.019 0.218-0.031 0.037-0.074 0.055-0.119 0.055zM20.532 27.004c-0.024 0-0.047-0.006-0.070-0.017l-4.598-2.35c-0.075-0.039-0.106-0.131-0.067-0.206 0.039-0.075 0.131-0.105 0.206-0.067l4.598 2.35c0.075 0.039 0.106 0.131 0.067 0.206-0.027 0.053-0.080 0.084-0.136 0.084zM19.678 23.716c-0.026 0-0.051-0.006-0.075-0.020l-3.744-1.98c-0.074-0.041-0.1-0.134-0.058-0.208s0.135-0.1 0.208-0.058l3.744 1.98c0.073 0.041 0.1 0.134 0.058 0.208-0.028 0.049-0.079 0.078-0.133 0.078zM18.825 20.427c-0.028 0-0.055-0.007-0.081-0.023l-2.89-1.61c-0.072-0.044-0.094-0.138-0.050-0.21 0.045-0.072 0.138-0.094 0.21-0.050l2.89 1.61c0.071 0.044 0.094 0.138 0.050 0.21-0.029 0.047-0.079 0.073-0.13 0.073zM17.97 17.138c-0.030 0-0.059-0.008-0.086-0.026l-2.036-1.239c-0.070-0.047-0.089-0.142-0.041-0.212 0.047-0.070 0.142-0.088 0.212-0.041l2.036 1.239c0.070 0.047 0.088 0.142 0.041 0.212-0.030 0.044-0.078 0.068-0.127 0.068zM17.117 13.85c-0.032 0-0.063-0.010-0.091-0.030l-1.182-0.869c-0.068-0.050-0.083-0.146-0.033-0.214s0.146-0.083 0.214-0.033l1.182 0.869c0.068 0.050 0.083 0.146 0.032 0.214-0.030 0.041-0.077 0.063-0.123 0.063zM11.717 10.717c0.039 0.026 0.083 0.038 0.127 0.038 0.074 0 0.147-0.036 0.192-0.103 0.070-0.106 0.041-0.249-0.065-0.318-1.048-0.695-1.673-1.855-1.673-3.103 0-1.24 0.619-2.395 1.656-3.090 0.106-0.070 0.134-0.213 0.063-0.319-0.071-0.106-0.214-0.134-0.319-0.063-1.164 0.78-1.859 2.078-1.859 3.472 0 1.402 0.702 2.705 1.879 3.486zM11.358 7.234c0 0.88 0.442 1.696 1.179 2.187 0.039 0.026 0.083 0.038 0.127 0.038 0.074 0 0.147-0.036 0.192-0.103 0.070-0.106 0.041-0.249-0.065-0.318-0.609-0.404-0.973-1.078-0.973-1.803 0-0.721 0.36-1.392 0.963-1.796 0.106-0.071 0.134-0.213 0.063-0.319-0.071-0.106-0.214-0.134-0.319-0.063-0.73 0.489-1.166 1.303-1.166 2.178zM13.357 8.123c0.039 0.026 0.083 0.038 0.127 0.038 0.074 0 0.147-0.036 0.192-0.103 0.070-0.106 0.041-0.249-0.065-0.318-0.171-0.113-0.273-0.301-0.273-0.504 0-0.201 0.101-0.389 0.27-0.502 0.106-0.071 0.134-0.214 0.063-0.319-0.070-0.106-0.214-0.134-0.319-0.063-0.296 0.199-0.473 0.529-0.473 0.884 0 0.357 0.179 0.689 0.479 0.887zM21.052 7.231c0 1.248-0.626 2.408-1.673 3.103-0.106 0.070-0.134 0.213-0.065 0.318 0.044 0.067 0.118 0.103 0.192 0.103 0.044 0 0.088-0.012 0.127-0.038 1.176-0.78 1.879-2.084 1.879-3.486 0-1.394-0.695-2.692-1.859-3.472-0.106-0.070-0.249-0.042-0.319 0.063-0.070 0.106-0.042 0.249 0.063 0.319 1.037 0.695 1.656 1.85 1.656 3.091zM19.532 7.234c0 0.725-0.364 1.399-0.973 1.803-0.106 0.070-0.134 0.213-0.065 0.318 0.044 0.067 0.118 0.103 0.192 0.103 0.044 0 0.088-0.012 0.127-0.038 0.737-0.491 1.179-1.307 1.179-2.187 0-0.874-0.436-1.689-1.166-2.178-0.106-0.070-0.249-0.043-0.319 0.063s-0.042 0.248 0.063 0.319c0.603 0.404 0.963 1.076 0.963 1.796zM17.738 7.74c-0.106 0.070-0.134 0.213-0.065 0.318 0.044 0.067 0.118 0.103 0.192 0.103 0.044 0 0.088-0.012 0.127-0.038 0.299-0.198 0.478-0.53 0.478-0.887 0-0.354-0.177-0.685-0.473-0.884-0.106-0.070-0.249-0.043-0.319 0.063-0.070 0.106-0.042 0.248 0.063 0.319 0.169 0.113 0.27 0.301 0.27 0.502 0 0.203-0.102 0.391-0.273 0.504zM16.196 8.087c0.303-0.165 0.511-0.482 0.511-0.849 0-0.535-0.435-0.97-0.97-0.97s-0.97 0.435-0.97 0.97c0 0.368 0.208 0.685 0.511 0.849l-5.005 20.256c-0.041 0.164 0.060 0.33 0.224 0.371 0.025 0.006 0.049 0.009 0.074 0.009 0.138 0 0.263-0.094 0.297-0.233l0.402-1.627 4.161-2.126v5.31c0 0.17 0.137 0.306 0.306 0.306s0.306-0.137 0.306-0.306v-2.486c0.016-0.003 0.032-0.004 0.046-0.012l3.762-2.113 0.755 3.054c0.034 0.139 0.159 0.233 0.297 0.233 0.025 0 0.049-0.003 0.074-0.009 0.164-0.041 0.265-0.207 0.224-0.371l-5.005-20.256zM18.823 21.276l-2.781 1.671v-3.911l1.91-1.285 0.871 3.525zM17.874 17.432l-1.831 1.232-0-3.917 0.967-0.814 0.865 3.499zM16.926 13.598l-0.884 0.745v-4.321l0.884 3.577zM15.43 24.392l-4.064 2.077 0.71-2.875 3.354-1.774v2.571zM15.43 21.475l-3.255 1.722 0.709-2.871 2.546-1.418 0 2.567zM15.43 18.559l-2.446 1.362 0.708-2.862 1.738-1.058 0 2.559zM15.43 15.642l-1.635 0.995 0.703-2.843 0.932-0.685 0 2.533zM15.43 12.729l-0.817 0.601 0.817-3.308v2.707zM16.003 7.47c-0.008 0.009-0.014 0.018-0.023 0.026-0.007 0.006-0.016 0.010-0.024 0.016-0.061 0.049-0.136 0.083-0.22 0.083s-0.159-0.034-0.22-0.083c-0.007-0.006-0.017-0.010-0.024-0.017-0.008-0.008-0.015-0.018-0.022-0.026-0.055-0.063-0.091-0.142-0.091-0.232 0-0.197 0.16-0.358 0.358-0.358 0.198 0 0.358 0.16 0.358 0.358-0 0.090-0.036 0.169-0.091 0.232zM16.042 27.218v-3.911l2.858-1.718 0.873 3.534-3.731 2.096z" fill="#000000" />
</svg>
