<?xml version="1.0" encoding="utf-8"?>
<!-- Generator: Adobe Illustrator 16.0.4, SVG Export Plug-In . SVG Version: 6.00 Build 0)  -->
<!DOCTYPE svg PUBLIC "-//W3C//DTD SVG 1.1//EN" "http://www.w3.org/Graphics/SVG/1.1/DTD/svg11.dtd">
<svg version="1.1" id="Layer_1" xmlns="http://www.w3.org/2000/svg" xmlns:xlink="http://www.w3.org/1999/xlink" x="0px" y="0px"
	 width="61.538px" height="32.167px" viewBox="0 0 61.538 32.167" enable-background="new 0 0 61.538 32.167" xml:space="preserve">
<g>
	<path d="M57.979,3.882v23.64v0.934c0,0.388-0.315,0.702-0.703,0.702H4.096c-0.388,0-0.703-0.314-0.703-0.702v-0.934V3.882
		c0-0.389,0.314-0.703,0.703-0.703h53.179C57.663,3.18,57.979,3.494,57.979,3.882z M56.573,4.585H4.799V26.82h51.774V4.585z"/>
	<path d="M10.252,25.049c0.194,0,0.351-0.157,0.351-0.352v-18c0-0.194-0.157-0.352-0.351-0.352S9.9,6.504,9.9,6.698v18
		C9.9,24.892,10.058,25.049,10.252,25.049z"/>
	<path d="M17.05,25.049c0.194,0,0.351-0.157,0.351-0.352v-18c0-0.194-0.157-0.352-0.351-0.352s-0.352,0.157-0.352,0.352v18
		C16.698,24.892,16.855,25.049,17.05,25.049z"/>
	<path d="M23.868,25.049c0.194,0,0.352-0.157,0.352-0.352v-18c0-0.194-0.157-0.352-0.352-0.352c-0.194,0-0.351,0.157-0.351,0.352v18
		C23.517,24.892,23.674,25.049,23.868,25.049z"/>
	<path d="M30.686,25.171c0.194,0,0.351-0.157,0.351-0.352v-18c0-0.194-0.157-0.352-0.351-0.352s-0.352,0.157-0.352,0.352v18
		C30.334,25.014,30.492,25.171,30.686,25.171z"/>
	<path d="M37.504,25.049c0.193,0,0.352-0.157,0.352-0.352v-18c0-0.194-0.158-0.352-0.352-0.352c-0.195,0-0.352,0.157-0.352,0.352v18
		C37.152,24.892,37.309,25.049,37.504,25.049z"/>
	<path d="M44.323,25.049c0.193,0,0.351-0.157,0.351-0.352v-18c0-0.194-0.157-0.352-0.351-0.352c-0.195,0-0.352,0.157-0.352,0.352v18
		C43.972,24.892,44.128,25.049,44.323,25.049z"/>
	<path d="M51.141,25.049c0.194,0,0.351-0.157,0.351-0.352v-18c0-0.194-0.156-0.352-0.351-0.352c-0.193,0-0.352,0.157-0.352,0.352v18
		C50.789,24.892,50.947,25.049,51.141,25.049z"/>
</g>
</svg>
