<?xml version="1.0" encoding="utf-8"?>
<!-- Generated by IcoMoon.io -->
<!DOCTYPE svg PUBLIC "-//W3C//DTD SVG 1.1//EN" "http://www.w3.org/Graphics/SVG/1.1/DTD/svg11.dtd">
<svg version="1.1" xmlns="http://www.w3.org/2000/svg" xmlns:xlink="http://www.w3.org/1999/xlink" width="32" height="32" viewBox="0 0 32 32">
<g>
</g>
	<path d="M14.217 22.14c0.066-0.015 0.12-0.059 0.147-0.121l2.385-5.434c0.029-0.065 0.022-0.14-0.017-0.2-0.039-0.060-0.105-0.096-0.176-0.096l-2.474-0.012 3.929-5.11-1.438 4.1c-0.022 0.064-0.013 0.136 0.027 0.192 0.040 0.056 0.104 0.089 0.171 0.090l2.626 0.013-4.539 6.985c-0.062 0.089-0.046 0.211 0.037 0.281l0.088 0.076c0.357 0.305 0.505 0.432 0.949 0.799 0.039 0.032 0.087 0.048 0.134 0.048 0.048 0 0.096-0.016 0.134-0.048 6.273-5.196 7.374-7.266 7.482-7.492 1.396-2.14 1.079-3.914 0.567-5.026-0.554-1.202-1.43-1.886-1.472-1.919-0.925-0.675-1.873-1.017-2.818-1.017-2.047 0-3.494 1.575-3.978 2.186-0.484-0.611-1.931-2.186-3.977-2.186-0.946 0-1.894 0.342-2.822 1.019-0.037 0.027-0.894 0.683-1.437 1.87-0.503 1.097-0.817 2.868 0.537 5.076 0.075 0.138 1.021 1.777 5.75 5.881 0.051 0.043 0.12 0.060 0.185 0.045zM8.653 16.010c-0.002-0.005-0.005-0.008-0.007-0.013-1.008-1.64-1.184-3.211-0.522-4.668 0.497-1.096 1.307-1.719 1.312-1.723 0.851-0.621 1.715-0.936 2.57-0.936 2.261 0 3.787 2.212 3.802 2.235 0.039 0.058 0.105 0.092 0.175 0.092 0.070 0 0.135-0.035 0.174-0.092 0.016-0.023 1.542-2.235 3.803-2.235 0.854 0 1.718 0.314 2.565 0.932 0.008 0.006 0.84 0.66 1.348 1.773 0.674 1.476 0.489 3.029-0.551 4.616-0.006 0.010-0.011 0.020-0.016 0.030-0.009 0.020-0.958 2.024-7.239 7.243-0.32-0.266-0.473-0.396-0.753-0.634l4.658-7.158c0.045-0.064 0.050-0.148 0.014-0.218-0.037-0.069-0.108-0.113-0.186-0.114l-2.73-0.014 1.73-4.932c0.034-0.097-0.006-0.203-0.095-0.254-0.089-0.050-0.201-0.030-0.267 0.049l-4.965 6.36c-0.052 0.063-0.063 0.15-0.029 0.224 0.035 0.074 0.109 0.121 0.19 0.122l2.599 0.013-2.14 4.877c-4.566-3.987-5.433-5.561-5.44-5.576z" fill="#000000" />
</svg>
