<?xml version="1.0" encoding="utf-8"?>
<!-- Generated by IcoMoon.io -->
<!DOCTYPE svg PUBLIC "-//W3C//DTD SVG 1.1//EN" "http://www.w3.org/Graphics/SVG/1.1/DTD/svg11.dtd">
<svg version="1.1" xmlns="http://www.w3.org/2000/svg" xmlns:xlink="http://www.w3.org/1999/xlink" width="32" height="32" viewBox="0 0 32 32">
<g>
</g>
	<path d="M22.335 3.666c-0.054-0.090-0.15-0.145-0.254-0.148-0.102-0.005-0.203 0.048-0.262 0.134-0.009 0.014-0.957 1.402-2.942 3.144-2.505 2.198-3.592 5.046-3.942 7.832-2.12-3.534-5.926-5.165-6.099-5.238-0.096-0.040-0.206-0.029-0.292 0.031-0.086 0.059-0.136 0.158-0.132 0.263 0 0.013 0.037 1.27-0.393 3.183-1.497 6.67 5.5 11.605 6.377 12.193 0.099 0.302 0.398 1.399 0.111 2.845-0.286 0.324-0.491 0.513-0.497 0.518-0.126 0.113-0.136 0.307-0.024 0.433 0.061 0.068 0.144 0.102 0.228 0.102 0.073 0 0.146-0.026 0.204-0.078 0.074-0.066 1.784-1.62 2.38-3.812 4.031-2.177 6.58-5.106 7.573-8.713 1.745-6.334-1.88-12.433-2.035-12.689zM8.615 13.002c0.291-1.295 0.377-2.292 0.401-2.847 1.136 0.573 4.293 2.394 5.818 5.578-0.142 2.338 0.178 4.564 0.552 6.246-0.194 0.788-0.482 1.603-0.861 2.428-1.385-0.976-7.235-5.499-5.909-11.405zM14.979 24.877c0.276-0.579 0.507-1.155 0.698-1.722 0.241 0.887 0.456 1.498 0.538 1.721-0.212 0.798-0.593 1.512-0.982 2.088 0.043-1.038-0.161-1.798-0.255-2.086zM23.778 16.197c-0.932 3.378-3.311 6.145-7.074 8.226-0.663-1.906-3.657-11.695 2.577-17.166 1.428-1.253 2.328-2.318 2.754-2.866 0.769 1.463 3.169 6.634 1.743 11.806zM21.718 6c-0.078 1.718-0.425 3.702-0.892 5.693-1.251-1.854-0.977-3.439-0.974-3.456 0.015-0.083-0.039-0.163-0.122-0.179-0.082-0.015-0.163 0.039-0.179 0.122-0.015 0.076-0.324 1.853 1.181 3.908-0.539 2.226-1.218 4.437-1.834 6.279-1.508-1.528-2.067-3.853-2.073-3.878-0.019-0.082-0.101-0.134-0.184-0.115-0.083 0.019-0.134 0.102-0.115 0.184 0.025 0.106 0.611 2.546 2.263 4.131-0.837 2.478-1.531 4.21-1.548 4.252-0.047 0.118 0.009 0.252 0.127 0.299 0.028 0.011 0.057 0.017 0.086 0.017 0.091 0 0.177-0.054 0.213-0.144 0.022-0.054 1.132-2.826 2.247-6.401 2.709-1.26 3.521-2.684 3.555-2.745 0.041-0.074 0.014-0.167-0.060-0.208-0.075-0.042-0.167-0.014-0.208 0.060-0.008 0.014-0.754 1.311-3.162 2.495 1.013-3.303 1.998-7.214 2.138-10.294 0.006-0.127-0.092-0.234-0.219-0.24-0.128-0.002-0.234 0.092-0.24 0.219zM14.675 22.986c-0.249-1.51-0.693-3.038-1.222-4.492 0.070-0.48 0.359-1.751 0.958-2.335 0.060-0.059 0.062-0.156 0.002-0.217-0.059-0.060-0.156-0.061-0.217-0.003-0.491 0.479-0.795 1.362-0.947 2.006-0.994-2.591-2.227-4.895-3.068-6.342-0.063-0.11-0.204-0.147-0.314-0.083-0.11 0.064-0.147 0.204-0.083 0.314 0.502 0.863 1.145 2.035 1.792 3.39-0.475-0.313-1.169-0.649-1.969-0.649-0.085 0-0.153 0.068-0.153 0.153 0 0.085 0.068 0.153 0.153 0.153 1.030 0 1.896 0.636 2.246 0.934 0.422 0.92 0.836 1.91 1.206 2.936-0.346-0.249-0.846-0.497-1.527-0.58-0.084-0.012-0.161 0.050-0.171 0.134-0.010 0.084 0.050 0.16 0.134 0.171 0.95 0.115 1.518 0.594 1.768 0.863 0.412 1.219 0.754 2.477 0.959 3.721 0.018 0.113 0.116 0.193 0.226 0.193 0.013 0 0.025-0.001 0.038-0.003 0.124-0.020 0.209-0.139 0.188-0.264z" fill="#000000" />
</svg>
