<?xml version="1.0" encoding="utf-8"?>
<!-- Generated by IcoMoon.io -->
<!DOCTYPE svg PUBLIC "-//W3C//DTD SVG 1.1//EN" "http://www.w3.org/Graphics/SVG/1.1/DTD/svg11.dtd">
<svg version="1.1" xmlns="http://www.w3.org/2000/svg" xmlns:xlink="http://www.w3.org/1999/xlink" width="32" height="32" viewBox="0 0 32 32">
<g>
</g>
	<path d="M13.476 15.554c0.899 0.077 1.844 0.115 2.809 0.115 2.665 0 5.17-0.304 6.702-0.814 0.12-0.040 0.186-0.17 0.146-0.291-0.040-0.12-0.17-0.185-0.291-0.146-1.488 0.495-3.939 0.791-6.557 0.791-0.952 0-1.884-0.038-2.77-0.114-0.126-0.011-0.238 0.083-0.249 0.21-0.010 0.127 0.083 0.238 0.21 0.248zM9.29 14.668c0.593 0.231 1.371 0.426 2.313 0.58 0.008 0.002 0.017 0.002 0.025 0.002 0.074 0 0.139-0.053 0.151-0.128 0.014-0.083-0.042-0.162-0.126-0.176-0.908-0.149-1.686-0.344-2.251-0.563-0.079-0.031-0.168 0.008-0.199 0.087-0.031 0.079 0.008 0.168 0.087 0.198zM9.282 8.105c0.592 0.23 1.37 0.426 2.313 0.58 0.008 0.002 0.017 0.002 0.025 0.002 0.074 0 0.139-0.053 0.151-0.128 0.014-0.083-0.042-0.162-0.126-0.176-0.91-0.149-1.688-0.344-2.251-0.563-0.079-0.031-0.168 0.008-0.198 0.087-0.031 0.079 0.008 0.168 0.087 0.198zM13.468 8.991c0.902 0.077 1.847 0.115 2.809 0.115 2.665 0 5.17-0.304 6.702-0.814 0.12-0.040 0.186-0.17 0.146-0.291s-0.17-0.185-0.291-0.146c-1.488 0.495-3.939 0.791-6.557 0.791-0.949 0-1.88-0.038-2.77-0.114-0.123-0.010-0.238 0.083-0.249 0.21-0.011 0.127 0.083 0.238 0.21 0.248zM11.652 21.485c-0.91-0.15-1.688-0.344-2.251-0.563-0.079-0.031-0.168 0.008-0.199 0.087-0.031 0.079 0.008 0.168 0.087 0.199 0.592 0.23 1.37 0.425 2.313 0.58 0.008 0.001 0.017 0.002 0.025 0.002 0.074 0 0.139-0.053 0.151-0.128 0.014-0.084-0.043-0.163-0.126-0.176zM24.508 25.166v-4.673c0-0.362-0.26-0.671-0.697-0.933 0.438-0.262 0.697-0.571 0.697-0.933v-4.672c0-0.368-0.27-0.682-0.722-0.948 0.448-0.265 0.714-0.577 0.714-0.943v-4.672c0-1.596-5.010-2.175-8.378-2.175-3.368 0-8.378 0.579-8.378 2.175v4.672c0 0.368 0.27 0.682 0.722 0.948-0.448 0.265-0.715 0.577-0.715 0.943v4.672c0 0.362 0.26 0.671 0.697 0.933-0.438 0.263-0.697 0.572-0.697 0.933v4.673c0 1.596 5.010 2.175 8.378 2.175 3.367-0 8.378-0.579 8.378-2.175zM8.357 12.063v-4.672c0-0.545 2.667-1.562 7.765-1.562s7.765 1.017 7.765 1.562v4.672c0 0.174-0.274 0.395-0.808 0.617-0.269 0.112-0.609 0.222-1.010 0.328-1.303 0.341-3.292 0.618-5.946 0.618-2.649 0-4.635-0.275-5.939-0.616-0.402-0.105-0.741-0.215-1.010-0.326-0.54-0.223-0.817-0.446-0.817-0.62zM8.365 18.626v-4.672c0-0.174 0.274-0.395 0.809-0.617 1.734 0.643 4.705 0.901 6.949 0.901 2.247 0 5.223-0.258 6.956-0.904 0.539 0.222 0.817 0.445 0.817 0.62v4.672c0 0.171-0.263 0.389-0.781 0.606-0.264 0.111-0.602 0.222-0.998 0.327-1.302 0.347-3.304 0.629-5.987 0.629s-4.686-0.282-5.988-0.629c-0.396-0.106-0.733-0.215-0.997-0.327-0.517-0.218-0.781-0.435-0.781-0.606zM23.895 25.166c0 0.545-2.667 1.562-7.765 1.562s-7.765-1.017-7.765-1.562v-4.673c0-0.171 0.263-0.388 0.781-0.606 1.729 0.653 4.725 0.914 6.985 0.914 2.259 0 5.255-0.261 6.985-0.914 0.518 0.218 0.781 0.435 0.781 0.606l-0 4.673zM22.842 20.958c-1.488 0.495-3.939 0.791-6.557 0.791-0.949 0-1.88-0.038-2.77-0.113-0.126-0.011-0.238 0.083-0.249 0.21-0.010 0.126 0.083 0.238 0.21 0.249 0.902 0.077 1.847 0.115 2.809 0.115 2.665 0 5.17-0.304 6.702-0.814 0.12-0.040 0.186-0.171 0.146-0.291s-0.169-0.186-0.291-0.146zM7.026 19.202c-0.045-0.119-0.178-0.179-0.296-0.134-0.119 0.045-0.179 0.178-0.134 0.296 0.025 0.066 0.054 0.132 0.086 0.196-0.032 0.065-0.061 0.13-0.086 0.197-0.045 0.119 0.015 0.251 0.134 0.296 0.027 0.010 0.054 0.015 0.081 0.015 0.093 0 0.18-0.056 0.215-0.148 0.031-0.083 0.070-0.165 0.115-0.244 0.040-0.070 0.040-0.158 0-0.228-0.045-0.079-0.084-0.162-0.115-0.245zM6.921 18.294v-0.669c0-0.127-0.103-0.23-0.23-0.23s-0.23 0.103-0.23 0.23v0.669c0 0.127 0.103 0.23 0.23 0.23s0.23-0.103 0.23-0.23zM6.921 14.28c0-0.127-0.103-0.23-0.23-0.23s-0.23 0.103-0.23 0.23v0.669c0 0.127 0.103 0.23 0.23 0.23s0.23-0.103 0.23-0.23v-0.669zM6.921 15.953c0-0.127-0.103-0.23-0.23-0.23s-0.23 0.103-0.23 0.23v0.669c0 0.127 0.103 0.23 0.23 0.23s0.23-0.103 0.23-0.23v-0.669zM7.025 12.656c-0.046-0.118-0.179-0.177-0.298-0.13-0.118 0.046-0.177 0.179-0.13 0.298 0.026 0.065 0.054 0.13 0.087 0.194-0.032 0.063-0.060 0.128-0.085 0.194-0.045 0.119 0.014 0.251 0.133 0.297 0.027 0.010 0.054 0.015 0.082 0.015 0.093 0 0.18-0.056 0.215-0.148 0.032-0.083 0.070-0.165 0.116-0.244 0.041-0.072 0.041-0.16-0.001-0.231-0.047-0.079-0.086-0.161-0.119-0.244zM25.646 10.942c-0.127 0-0.23 0.103-0.23 0.23v0.627c0 0.127 0.103 0.23 0.23 0.23s0.23-0.103 0.23-0.23v-0.627c0-0.127-0.103-0.23-0.23-0.23zM25.876 8.037c0-0.127-0.103-0.23-0.23-0.23s-0.23 0.103-0.23 0.23v0.627c0 0.127 0.103 0.23 0.23 0.23s0.23-0.103 0.23-0.23v-0.627zM25.396 7.134c0.018 0.114 0.116 0.195 0.227 0.195 0.012 0 0.024-0.001 0.036-0.003 0.125-0.020 0.211-0.137 0.192-0.262-0.036-0.23-0.112-0.453-0.227-0.662-0.061-0.111-0.201-0.152-0.312-0.090-0.111 0.061-0.152 0.201-0.091 0.312 0.089 0.161 0.148 0.333 0.176 0.511zM25.876 9.604c0-0.127-0.103-0.23-0.23-0.23s-0.23 0.103-0.23 0.23v0.627c0 0.127 0.103 0.23 0.23 0.23s0.23-0.103 0.23-0.23v-0.627zM11.929 4.598c0.010 0 0.020-0.001 0.031-0.002 0.206-0.028 0.412-0.052 0.618-0.074 0.126-0.014 0.218-0.127 0.204-0.253-0.014-0.126-0.129-0.217-0.253-0.204-0.209 0.022-0.419 0.047-0.629 0.075-0.126 0.017-0.214 0.132-0.198 0.258 0.016 0.115 0.114 0.199 0.228 0.199zM6.67 7.342c0.011 0.002 0.023 0.002 0.034 0.002 0.112 0 0.21-0.082 0.227-0.196 0.026-0.179 0.084-0.351 0.171-0.513 0.060-0.112 0.018-0.251-0.094-0.311-0.112-0.059-0.251-0.018-0.311 0.094-0.113 0.209-0.187 0.432-0.221 0.664-0.019 0.126 0.067 0.242 0.193 0.261zM13.49 4.438c0.006 0 0.012 0 0.017-0.001 0.211-0.016 0.419-0.029 0.622-0.040 0.127-0.007 0.224-0.115 0.217-0.242-0.007-0.127-0.119-0.223-0.242-0.217-0.206 0.011-0.417 0.025-0.631 0.040-0.126 0.010-0.222 0.12-0.212 0.246 0.009 0.121 0.11 0.213 0.229 0.213zM10.382 4.866c0.017 0 0.033-0.002 0.050-0.006 0.199-0.044 0.402-0.085 0.607-0.122 0.125-0.023 0.208-0.142 0.185-0.267-0.023-0.125-0.144-0.209-0.267-0.185-0.211 0.038-0.419 0.080-0.624 0.125-0.124 0.028-0.202 0.15-0.175 0.274 0.024 0.107 0.119 0.18 0.225 0.18zM6.683 8.91c0.127 0 0.23-0.103 0.23-0.23v-0.627c0-0.127-0.103-0.23-0.23-0.23s-0.23 0.103-0.23 0.23v0.627c0 0.127 0.103 0.23 0.23 0.23zM24.178 5.662c0.183 0.103 0.347 0.213 0.489 0.327 0.042 0.034 0.094 0.050 0.144 0.050 0.067 0 0.134-0.030 0.179-0.086 0.079-0.099 0.064-0.244-0.035-0.323-0.161-0.13-0.347-0.254-0.551-0.369-0.11-0.062-0.25-0.023-0.313 0.087-0.063 0.111-0.024 0.251 0.087 0.313zM7.506 6.050c0.051 0 0.102-0.017 0.145-0.051 0.142-0.115 0.306-0.226 0.488-0.33 0.11-0.063 0.149-0.203 0.086-0.314-0.063-0.11-0.203-0.148-0.314-0.086-0.203 0.116-0.388 0.241-0.549 0.371-0.099 0.080-0.114 0.225-0.034 0.323 0.046 0.056 0.112 0.085 0.179 0.085zM6.683 12.044c0.127 0 0.23-0.103 0.23-0.23v-0.627c0-0.127-0.103-0.23-0.23-0.23s-0.23 0.103-0.23 0.23v0.627c0 0.127 0.103 0.23 0.23 0.23zM6.683 10.477c0.127 0 0.23-0.103 0.23-0.23v-0.627c0-0.127-0.103-0.23-0.23-0.23s-0.23 0.103-0.23 0.23v0.627c0 0.127 0.103 0.23 0.23 0.23zM8.877 5.304c0.027 0 0.055-0.005 0.082-0.015 0.181-0.069 0.375-0.135 0.579-0.197 0.121-0.037 0.19-0.165 0.153-0.286s-0.166-0.19-0.286-0.153c-0.214 0.065-0.419 0.134-0.609 0.206-0.119 0.045-0.178 0.178-0.133 0.297 0.034 0.092 0.122 0.148 0.214 0.148zM18.185 4.397c0.203 0.011 0.411 0.024 0.622 0.040 0.006 0 0.011 0.001 0.017 0.001 0.119 0 0.22-0.092 0.229-0.213 0.009-0.126-0.086-0.237-0.212-0.246-0.214-0.016-0.425-0.029-0.631-0.040-0.126-0.005-0.235 0.090-0.242 0.217-0.007 0.127 0.090 0.235 0.218 0.242zM21.274 4.736c0.205 0.037 0.408 0.077 0.607 0.121 0.017 0.004 0.033 0.006 0.050 0.006 0.106 0 0.2-0.073 0.224-0.181 0.027-0.124-0.051-0.247-0.175-0.274-0.205-0.045-0.414-0.086-0.624-0.124-0.124-0.022-0.245 0.061-0.267 0.186s0.061 0.244 0.186 0.267zM19.738 4.52c0.205 0.022 0.412 0.046 0.618 0.074 0.010 0.001 0.020 0.002 0.031 0.002 0.114 0 0.212-0.084 0.227-0.2 0.017-0.126-0.072-0.242-0.198-0.258-0.21-0.028-0.42-0.053-0.629-0.075-0.13-0.015-0.24 0.078-0.253 0.204-0.013 0.126 0.078 0.24 0.204 0.253zM22.776 5.088c0.204 0.061 0.399 0.127 0.579 0.196 0.027 0.010 0.054 0.015 0.082 0.015 0.093 0 0.18-0.057 0.215-0.148 0.045-0.119-0.015-0.251-0.134-0.296-0.19-0.072-0.395-0.141-0.61-0.206-0.121-0.037-0.25 0.033-0.286 0.154-0.037 0.121 0.032 0.249 0.154 0.286zM15.058 4.359c0.002 0 0.005 0 0.007 0 0.218-0.006 0.428-0.010 0.625-0.013 0.127-0.002 0.229-0.106 0.227-0.233-0.002-0.126-0.104-0.227-0.23-0.227-0.001 0-0.002 0-0.003 0-0.199 0.002-0.41 0.007-0.632 0.013-0.127 0.004-0.227 0.11-0.223 0.236 0.004 0.124 0.106 0.223 0.23 0.223zM16.625 4.346c0.197 0.002 0.405 0.006 0.624 0.013 0.002 0 0.005 0 0.006 0 0.124 0 0.226-0.099 0.23-0.223 0.004-0.127-0.096-0.233-0.223-0.236-0.221-0.006-0.433-0.010-0.632-0.013-0.134-0.014-0.231 0.1-0.233 0.227-0.001 0.127 0.101 0.231 0.228 0.233zM25.314 13.362c0.035 0.091 0.122 0.146 0.214 0.146 0.028 0 0.056-0.005 0.084-0.016 0.118-0.046 0.177-0.18 0.13-0.298-0.025-0.065-0.054-0.129-0.087-0.193 0.032-0.063 0.060-0.128 0.085-0.194 0.045-0.119-0.014-0.251-0.133-0.297-0.119-0.046-0.251 0.014-0.297 0.133-0.032 0.084-0.071 0.166-0.116 0.244-0.041 0.072-0.041 0.16 0.001 0.231 0.047 0.079 0.086 0.161 0.119 0.243zM25.654 14.039c-0.127 0-0.23 0.103-0.23 0.23v0.671c0 0.127 0.103 0.23 0.23 0.23s0.23-0.103 0.23-0.23v-0.671c0-0.127-0.103-0.23-0.23-0.23zM25.654 15.715c-0.127 0-0.23 0.103-0.23 0.23v0.671c0 0.127 0.103 0.23 0.23 0.23s0.23-0.102 0.23-0.23v-0.671c0-0.127-0.103-0.23-0.23-0.23zM25.654 17.392c-0.127 0-0.23 0.103-0.23 0.23v0.671c0 0.127 0.103 0.23 0.23 0.23s0.23-0.103 0.23-0.23v-0.671c0-0.127-0.103-0.23-0.23-0.23zM25.32 19.918c0.035 0.092 0.122 0.149 0.215 0.149 0.027 0 0.054-0.005 0.081-0.014 0.119-0.045 0.179-0.177 0.134-0.296-0.025-0.066-0.054-0.132-0.086-0.197 0.032-0.065 0.061-0.13 0.086-0.197 0.045-0.119-0.016-0.251-0.134-0.296-0.118-0.044-0.251 0.016-0.296 0.134-0.031 0.083-0.070 0.165-0.115 0.244-0.040 0.070-0.040 0.158 0 0.228 0.046 0.080 0.085 0.163 0.115 0.244zM20.368 27.963c-0.206 0.027-0.412 0.051-0.617 0.074-0.126 0.013-0.218 0.127-0.204 0.253 0.013 0.118 0.113 0.205 0.228 0.205 0.008 0 0.017-0.001 0.025-0.001 0.209-0.023 0.419-0.048 0.629-0.075 0.126-0.017 0.214-0.132 0.198-0.258-0.017-0.126-0.134-0.215-0.259-0.197zM25.654 23.666c-0.127 0-0.23 0.103-0.23 0.23v0.626c0 0.127 0.103 0.23 0.23 0.23s0.23-0.103 0.23-0.23v-0.626c0-0.127-0.103-0.23-0.23-0.23zM24.677 26.567c-0.142 0.114-0.306 0.224-0.489 0.327-0.11 0.063-0.149 0.203-0.086 0.314 0.042 0.074 0.12 0.116 0.2 0.116 0.038 0 0.077-0.010 0.113-0.030 0.204-0.116 0.389-0.239 0.55-0.369 0.099-0.079 0.115-0.224 0.036-0.323-0.079-0.099-0.224-0.115-0.323-0.036zM25.654 20.534c-0.127 0-0.23 0.103-0.23 0.23v0.627c0 0.127 0.103 0.23 0.23 0.23s0.23-0.103 0.23-0.23v-0.627c0-0.127-0.103-0.23-0.23-0.23zM25.667 25.231c-0.123-0.018-0.243 0.066-0.263 0.192-0.028 0.178-0.087 0.35-0.176 0.51-0.061 0.111-0.021 0.251 0.090 0.313 0.035 0.019 0.073 0.029 0.111 0.029 0.081 0 0.16-0.043 0.202-0.119 0.114-0.208 0.191-0.43 0.227-0.661 0.020-0.126-0.066-0.243-0.191-0.263zM25.654 22.1c-0.127 0-0.23 0.103-0.23 0.23v0.626c0 0.127 0.103 0.23 0.23 0.23s0.23-0.103 0.23-0.23v-0.626c0-0.127-0.103-0.23-0.23-0.23zM23.366 27.273c-0.182 0.069-0.377 0.134-0.579 0.195-0.121 0.037-0.191 0.165-0.154 0.287 0.030 0.099 0.121 0.163 0.22 0.163 0.022 0 0.044-0.003 0.066-0.010 0.212-0.064 0.418-0.133 0.609-0.206 0.119-0.045 0.178-0.177 0.134-0.296s-0.179-0.179-0.296-0.134zM21.894 27.699c-0.199 0.044-0.402 0.084-0.606 0.121-0.125 0.022-0.208 0.142-0.186 0.267 0.020 0.111 0.117 0.189 0.226 0.189 0.014 0 0.027-0.001 0.041-0.004 0.211-0.038 0.419-0.080 0.624-0.124 0.124-0.028 0.202-0.15 0.175-0.274s-0.151-0.202-0.274-0.175zM14.147 28.16c-0.203-0.011-0.411-0.024-0.622-0.040-0.124-0.008-0.237 0.085-0.246 0.212-0.010 0.127 0.086 0.237 0.212 0.247 0.214 0.016 0.425 0.030 0.631 0.040 0.004 0.001 0.008 0.001 0.013 0.001 0.121 0 0.223-0.095 0.23-0.217 0.007-0.126-0.090-0.235-0.217-0.242zM8.16 26.896c-0.182-0.103-0.347-0.213-0.489-0.327-0.099-0.079-0.244-0.063-0.323 0.036-0.079 0.099-0.063 0.244 0.036 0.323 0.162 0.129 0.347 0.253 0.55 0.368 0.036 0.020 0.075 0.030 0.113 0.030 0.080 0 0.158-0.042 0.2-0.117 0.062-0.11 0.024-0.25-0.087-0.313zM18.821 28.12c-0.211 0.016-0.419 0.028-0.622 0.040-0.126 0.007-0.223 0.116-0.217 0.242 0.007 0.122 0.109 0.217 0.229 0.217 0.005 0 0.009 0 0.013-0.001 0.206-0.011 0.416-0.025 0.63-0.040 0.126-0.010 0.222-0.12 0.212-0.246-0.009-0.127-0.119-0.217-0.246-0.213zM6.691 24.753c0.127 0 0.23-0.103 0.23-0.23v-0.626c0-0.127-0.103-0.23-0.23-0.23s-0.23 0.103-0.23 0.23v0.626c0 0.127 0.103 0.23 0.23 0.23zM6.691 22.101c-0.127 0-0.23 0.103-0.23 0.23v0.626c0 0.127 0.103 0.23 0.23 0.23s0.23-0.103 0.23-0.23v-0.626c0-0.127-0.103-0.23-0.23-0.23zM6.921 20.764c0-0.127-0.103-0.23-0.23-0.23s-0.23 0.103-0.23 0.23v0.627c0 0.127 0.103 0.23 0.23 0.23s0.23-0.103 0.23-0.23v-0.627zM6.941 25.425c-0.020-0.126-0.137-0.21-0.263-0.192-0.125 0.020-0.211 0.138-0.191 0.263 0.037 0.23 0.113 0.453 0.228 0.661 0.042 0.076 0.12 0.119 0.201 0.119 0.038 0 0.076-0.009 0.111-0.028 0.111-0.062 0.152-0.201 0.090-0.313-0.088-0.161-0.148-0.333-0.176-0.51zM17.265 28.199c-0.218 0.006-0.427 0.010-0.623 0.013-0.127 0.002-0.229 0.106-0.227 0.233 0.002 0.126 0.104 0.227 0.23 0.227 0.001 0 0.002 0 0.003 0 0.199-0.002 0.41-0.006 0.631-0.013 0.127-0.004 0.227-0.11 0.223-0.236s-0.097-0.22-0.237-0.223zM15.706 28.211c-0.197-0.002-0.405-0.006-0.624-0.013-0.129-0.001-0.233 0.096-0.236 0.223-0.004 0.127 0.096 0.233 0.223 0.236 0.221 0.006 0.433 0.011 0.631 0.013 0.001 0 0.002 0 0.003 0 0.126 0 0.228-0.101 0.23-0.227 0.002-0.127-0.1-0.231-0.227-0.232zM9.56 27.469c-0.202-0.060-0.397-0.126-0.579-0.195-0.118-0.044-0.251 0.015-0.296 0.134-0.045 0.119 0.015 0.251 0.134 0.296 0.192 0.072 0.397 0.141 0.609 0.205 0.022 0.006 0.044 0.010 0.066 0.010 0.099 0 0.19-0.064 0.22-0.164 0.037-0.121-0.032-0.25-0.154-0.286zM12.596 28.037c-0.205-0.022-0.411-0.046-0.617-0.074-0.128-0.019-0.242 0.072-0.258 0.198-0.017 0.126 0.072 0.242 0.198 0.258 0.21 0.028 0.42 0.053 0.628 0.075 0.008 0.001 0.017 0.001 0.025 0.001 0.116 0 0.216-0.087 0.228-0.205 0.013-0.127-0.079-0.24-0.205-0.254zM11.060 27.821c-0.204-0.037-0.407-0.077-0.606-0.121-0.123-0.026-0.247 0.051-0.274 0.175-0.027 0.124 0.051 0.247 0.175 0.274 0.205 0.045 0.413 0.086 0.624 0.124 0.014 0.002 0.027 0.004 0.041 0.004 0.109 0 0.206-0.078 0.226-0.189 0.023-0.125-0.060-0.245-0.185-0.267z" fill="#000000" />
</svg>
