<?xml version="1.0" encoding="utf-8"?>
<!-- Generated by IcoMoon.io -->
<!DOCTYPE svg PUBLIC "-//W3C//DTD SVG 1.1//EN" "http://www.w3.org/Graphics/SVG/1.1/DTD/svg11.dtd">
<svg version="1.1" xmlns="http://www.w3.org/2000/svg" xmlns:xlink="http://www.w3.org/1999/xlink" width="32" height="32" viewBox="0 0 32 32">
<g>
</g>
	<path d="M23.471 6.521h-14.942c-0.17 0-0.306 0.137-0.306 0.306v18.344c0 0.17 0.137 0.306 0.306 0.306h14.942c0.17 0 0.306-0.137 0.306-0.306l0-18.344c0-0.169-0.137-0.307-0.306-0.307zM23.164 24.866h-14.328v-17.731h14.329l-0 17.731zM11.198 22.695h9.605c0.106 0 0.192-0.086 0.192-0.192l-0-13.007c0-0.106-0.086-0.192-0.192-0.192l-9.605 0c-0.106 0-0.192 0.086-0.192 0.192v13.007c-0 0.106 0.086 0.191 0.192 0.191zM20.611 22.312h-5.57c0.233-0.436 0.442-0.654 0.448-0.66 0.432-0.469 0.877-0.706 1.322-0.707 0.3 0.236 0.677 0.378 1.087 0.378 0.412 0 0.79-0.143 1.090-0.38 0.003 0 0.006 0.002 0.010 0.002 0.503 0 1.285 0.433 1.613 0.804l0 0.563zM16.442 19.561c0-0.803 0.653-1.456 1.456-1.456 0.803 0 1.456 0.653 1.456 1.456 0 0.803-0.653 1.456-1.456 1.456-0.803 0-1.456-0.653-1.456-1.456zM11.39 9.688h9.222v6.702c-0.404-0.685-1.2-1.663-2.527-1.849 0.265-0.397 0.419-0.873 0.419-1.384 0-1.38-1.123-2.503-2.503-2.503s-2.503 1.123-2.503 2.503c0 0.499 0.148 0.962 0.4 1.353-1.345 0.114-2.114 1.172-2.508 1.97l-0-6.791zM18.043 13.156c0 1.127-0.917 2.043-2.043 2.043s-2.043-0.917-2.043-2.043c0-1.127 0.917-2.043 2.043-2.043s2.043 0.917 2.043 2.043zM11.39 17.629c0.013-0.020 0.024-0.042 0.030-0.067 0.030-0.112 0.745-2.706 2.856-2.595 0.449 0.428 1.056 0.693 1.724 0.693 0.664 0 1.267-0.262 1.716-0.686 1.784 0.058 2.69 1.882 2.895 2.36v3.993c-0.361-0.297-0.888-0.573-1.342-0.659 0.245-0.303 0.392-0.687 0.392-1.106 0-0.972-0.791-1.763-1.763-1.763s-1.762 0.791-1.762 1.763c0 0.157 0.022 0.308 0.061 0.453-0.317-0.298-0.744-0.514-1.145-0.597 0.272-0.31 0.438-0.715 0.438-1.159 0-0.972-0.791-1.763-1.763-1.763s-1.762 0.791-1.762 1.763c0 0.444 0.166 0.849 0.439 1.16-0.382 0.078-0.738 0.27-1.013 0.487l-0-2.277zM13.726 19.714c-0.803 0-1.456-0.653-1.456-1.456 0-0.803 0.653-1.456 1.456-1.456 0.803 0 1.456 0.653 1.456 1.456 0 0.803-0.653 1.456-1.456 1.456zM11.39 20.314c0.323-0.315 0.825-0.609 1.311-0.625 0.289 0.208 0.643 0.332 1.026 0.332 0.382 0 0.736-0.124 1.025-0.331 0.573 0.021 1.362 0.467 1.568 1.030-0.362 0.115-0.714 0.355-1.052 0.721-0.013 0.012-0.288 0.297-0.57 0.871h-3.308v-1.998z" fill="#000000" />
</svg>
