<?xml version="1.0" encoding="utf-8"?>
<!-- Generated by IcoMoon.io -->
<!DOCTYPE svg PUBLIC "-//W3C//DTD SVG 1.1//EN" "http://www.w3.org/Graphics/SVG/1.1/DTD/svg11.dtd">
<svg version="1.1" xmlns="http://www.w3.org/2000/svg" xmlns:xlink="http://www.w3.org/1999/xlink" width="32" height="32" viewBox="0 0 32 32">
<g>
</g>
	<path d="M12.14 21.096h-7.031c-0.175 0-0.318-0.143-0.318-0.318v-1.91c0-0.175 0.143-0.318 0.318-0.318h7.031c0.175 0 0.318 0.143 0.318 0.318v1.91c0 0.175-0.143 0.318-0.318 0.318v0zM5.25 20.636h6.748v-1.627h-6.748v1.627zM12.139 24.275h-7.031c-0.175 0-0.318-0.143-0.318-0.318l-0-1.906c0-0.175 0.143-0.318 0.318-0.318h7.031c0.175 0 0.318 0.143 0.318 0.318v1.906c0 0.175-0.142 0.318-0.318 0.318v0zM5.25 23.815h6.748v-1.623l-6.748 0v1.622zM12.14 14.657h-7.031c-0.175 0-0.318-0.143-0.318-0.318v-1.832c0-0.175 0.143-0.318 0.318-0.318h7.031c0.175 0 0.318 0.143 0.318 0.318v1.832c0 0.176-0.143 0.318-0.318 0.318v0zM5.25 14.197h6.748v-1.549h-6.748v1.549zM12.139 17.913h-7.031c-0.175 0-0.318-0.143-0.318-0.318v-1.983c0-0.175 0.143-0.318 0.318-0.318h7.031c0.175 0 0.318 0.143 0.318 0.318v1.983c0 0.176-0.142 0.318-0.318 0.318v0zM5.25 17.453h6.748v-1.7h-6.748v1.7zM9.76 13.578c0.085 0 0.153-0.069 0.153-0.153s-0.069-0.153-0.153-0.153h-2.371c-0.085 0-0.153 0.069-0.153 0.153s0.069 0.153 0.153 0.153h2.371zM9.76 16.779c0.085 0 0.153-0.069 0.153-0.153s-0.069-0.153-0.153-0.153h-2.371c-0.085 0-0.153 0.069-0.153 0.153s0.069 0.153 0.153 0.153h2.371zM9.794 20.025c0.085 0 0.153-0.069 0.153-0.153s-0.069-0.153-0.153-0.153h-2.371c-0.085 0-0.153 0.069-0.153 0.153s0.069 0.153 0.153 0.153h2.371zM9.794 23.204c0.085 0 0.153-0.069 0.153-0.153s-0.069-0.153-0.153-0.153h-2.371c-0.085 0-0.153 0.069-0.153 0.153s0.069 0.153 0.153 0.153h2.371zM12.792 25.779h-8.573c-0.412 0-0.748-0.336-0.748-0.748l0-12.015c0-0.073-0.062-0.135-0.135-0.135h-0.177c-0.412 0-0.748-0.336-0.748-0.748v-1.992c0-0.412 0.336-0.748 0.748-0.748h25.669c0.412 0 0.748 0.336 0.748 0.748v1.992c0 0.412-0.336 0.748-0.748 0.748h-0.139c-0.073 0-0.134 0.062-0.134 0.135v11.977c0 0.413-0.336 0.748-0.748 0.748h-1.349c-0.413 0-0.748-0.336-0.748-0.748l0-11.977c0-0.073-0.062-0.135-0.135-0.135h-11.902c-0.073 0-0.135 0.062-0.135 0.135v12.015c0 0.413-0.335 0.748-0.748 0.748v0zM3.16 10.007c-0.073 0-0.135 0.062-0.135 0.135v1.992c0 0.073 0.062 0.135 0.135 0.135h0.176c0.412 0 0.748 0.336 0.748 0.748v12.015c0 0.073 0.062 0.135 0.135 0.135h8.573c0.073 0 0.135-0.062 0.135-0.135v-12.015c0-0.412 0.336-0.748 0.748-0.748h11.901c0.413 0 0.748 0.336 0.748 0.748v11.977c0 0.073 0.062 0.135 0.135 0.135h1.349c0.073 0 0.134-0.062 0.134-0.135l0-11.977c0-0.412 0.336-0.748 0.748-0.748h0.139c0.073 0 0.134-0.062 0.134-0.135v-1.992c0-0.073-0.062-0.135-0.134-0.135l-25.669-0z" fill="#000000" />
</svg>
