<?xml version="1.0" encoding="utf-8"?>
<!-- Generated by IcoMoon.io -->
<!DOCTYPE svg PUBLIC "-//W3C//DTD SVG 1.1//EN" "http://www.w3.org/Graphics/SVG/1.1/DTD/svg11.dtd">
<svg version="1.1" xmlns="http://www.w3.org/2000/svg" xmlns:xlink="http://www.w3.org/1999/xlink" width="32" height="32" viewBox="0 0 32 32">
<g>
</g>
	<path d="M13.353 22.266c0.89 0.075 1.821 0.113 2.77 0.113 2.618 0 5.069-0.296 6.557-0.791 0.121-0.040 0.251 0.025 0.291 0.146s-0.025 0.251-0.146 0.291c-1.533 0.51-4.038 0.814-6.702 0.814-0.962 0-1.907-0.038-2.809-0.115-0.126-0.011-0.22-0.122-0.21-0.249 0.011-0.126 0.123-0.221 0.248-0.209zM11.49 22.115c-0.91-0.15-1.688-0.344-2.251-0.563-0.079-0.031-0.168 0.008-0.199 0.087-0.031 0.079 0.008 0.168 0.087 0.199 0.592 0.23 1.37 0.425 2.313 0.58 0.008 0.001 0.017 0.002 0.025 0.002 0.074 0 0.139-0.053 0.151-0.128 0.014-0.084-0.042-0.163-0.126-0.176zM23.649 20.19c0.438 0.263 0.697 0.572 0.697 0.933v4.673c0 1.596-5.011 2.175-8.378 2.175-3.368 0-8.378-0.579-8.378-2.175l-0-4.673c0-0.362 0.26-0.671 0.697-0.933-0.438-0.262-0.697-0.571-0.697-0.933v-4.672c0-0.366 0.266-0.679 0.715-0.943-0.453-0.266-0.722-0.579-0.722-0.948v-4.672c0-1.596 5.010-2.175 8.378-2.175 3.367 0 8.378 0.579 8.378 2.175v4.672c0 0.366-0.266 0.679-0.714 0.943 0.453 0.266 0.722 0.579 0.722 0.948v4.672c0.001 0.362-0.259 0.671-0.697 0.933zM9.011 13.314c0.27 0.111 0.608 0.222 1.010 0.326 1.303 0.341 3.29 0.616 5.939 0.616 2.654 0 4.643-0.276 5.946-0.618 0.401-0.106 0.741-0.216 1.010-0.328 0.534-0.222 0.808-0.443 0.808-0.617v-4.672c0-0.545-2.666-1.562-7.765-1.562s-7.765 1.017-7.765 1.562v4.672c0 0.174 0.278 0.397 0.817 0.62zM22.953 20.518c-1.73 0.653-4.726 0.914-6.985 0.914-2.259 0-5.255-0.261-6.985-0.914-0.518 0.218-0.781 0.435-0.781 0.606v4.673c0 0.545 2.667 1.562 7.765 1.562s7.765-1.017 7.765-1.562v-4.673c0-0.171-0.263-0.388-0.781-0.606zM23.733 14.585c0-0.174-0.277-0.398-0.817-0.62-1.733 0.645-4.71 0.904-6.957 0.904-2.244 0-5.214-0.258-6.949-0.901-0.534 0.222-0.809 0.443-0.809 0.617v4.672c0 0.171 0.263 0.389 0.781 0.606 0.264 0.111 0.601 0.222 0.997 0.327 1.302 0.347 3.305 0.629 5.988 0.629s4.685-0.282 5.987-0.629c0.396-0.106 0.734-0.215 0.998-0.327 0.518-0.218 0.781-0.435 0.781-0.606v-4.672zM22.68 15.049c-1.488 0.495-3.939 0.791-6.557 0.791-0.952 0-1.884-0.038-2.77-0.114-0.126-0.011-0.238 0.083-0.248 0.21-0.010 0.126 0.083 0.238 0.21 0.249 0.899 0.077 1.844 0.115 2.809 0.115 2.665 0 5.17-0.304 6.702-0.814 0.12-0.040 0.186-0.17 0.146-0.291-0.040-0.121-0.169-0.186-0.291-0.146zM11.49 15.576c-0.908-0.149-1.686-0.344-2.251-0.563-0.079-0.031-0.168 0.008-0.199 0.087-0.031 0.079 0.008 0.168 0.087 0.198 0.593 0.231 1.371 0.426 2.313 0.58 0.008 0.002 0.017 0.002 0.025 0.002 0.074 0 0.139-0.053 0.151-0.128 0.014-0.084-0.042-0.163-0.126-0.176zM13.306 9.622c0.902 0.077 1.847 0.115 2.809 0.115 2.665 0 5.17-0.304 6.702-0.814 0.12-0.040 0.186-0.17 0.146-0.291s-0.17-0.185-0.291-0.146c-1.488 0.495-3.939 0.791-6.557 0.791-0.949 0-1.88-0.038-2.77-0.114-0.123-0.010-0.238 0.083-0.249 0.21-0.011 0.126 0.083 0.237 0.21 0.248zM11.458 9.318c0.074 0 0.139-0.053 0.151-0.128 0.014-0.083-0.042-0.162-0.126-0.176-0.91-0.149-1.688-0.344-2.251-0.563-0.079-0.031-0.168 0.008-0.198 0.087-0.031 0.079 0.008 0.168 0.087 0.198 0.592 0.23 1.37 0.426 2.313 0.58 0.008 0.001 0.017 0.002 0.025 0.002z" fill="#000000" />
</svg>
