<?xml version="1.0" encoding="utf-8"?>
<!-- Generated by IcoMoon.io -->
<!DOCTYPE svg PUBLIC "-//W3C//DTD SVG 1.1//EN" "http://www.w3.org/Graphics/SVG/1.1/DTD/svg11.dtd">
<svg version="1.1" xmlns="http://www.w3.org/2000/svg" xmlns:xlink="http://www.w3.org/1999/xlink" width="32" height="32" viewBox="0 0 32 32">
<g>
</g>
	<path d="M24.637 17.946c-0.646-9.114-7.89-8.849-7.945-8.845-4.396-0.082-6.274 1.632-6.546 1.905-0.273 0.165-0.325 0.482-0.31 0.67l-0.163 2.143c-0.001 0.015 0.004 0.028 0.005 0.042-0.983 1.64-1.136 3.327-1.156 3.97-0.017 0.004-0.033 0.008-0.048 0.014l-2.674 1.193c-0.121 0.054-0.185 0.188-0.15 0.315 0.095 0.348 0.468 0.925 1.246 0.925 0.11 0 0.228-0.011 0.354-0.037 0.018-0.004 1.762-0.445 3.843-0.485l5.299-0.041c0.23 0.004 5.653 0.107 7.869-0.401 0.374-0.067 1.009-0.243 1.048-0.664 0.032-0.336-0.315-0.552-0.675-0.706zM24.156 18.791c-2.165 0.495-7.696 0.39-7.758 0.39l-5.31 0.041c-2.146 0.042-3.895 0.483-3.955 0.499-0.496 0.1-0.747-0.117-0.867-0.301l2.298-1.025c0.667 0.366 1.728 0.296 1.776 0.293 0.148-0.010 0.259-0.138 0.248-0.286-0.010-0.148-0.135-0.255-0.286-0.249-0.234 0.016-0.811 0.011-1.246-0.131-0.015-0.669 0.049-6.437 6.875-7.29 0.147-0.018 0.25-0.152 0.233-0.299-0.019-0.146-0.154-0.252-0.299-0.233-2.789 0.348-4.517 1.498-5.591 2.816l0.101-1.321c0.002-0.018 0.001-0.036-0.001-0.054 0-0.001-0.010-0.145 0.059-0.179 0.029-0.014 0.056-0.035 0.078-0.058 0.017-0.018 1.769-1.853 6.193-1.765 0.277-0.017 6.757-0.248 7.395 8.28-0.391 0.080-1.2 0.234-1.691 0.234-0.148 0-0.268 0.12-0.268 0.268s0.12 0.268 0.268 0.268c0.625 0 1.655-0.212 1.953-0.277 0.21 0.085 0.319 0.151 0.374 0.194-0.114 0.065-0.354 0.145-0.577 0.186zM20.624 13.995c-0.121 0.039-0.187 0.168-0.149 0.289 0.008 0.024 0.759 2.399 0.595 3.843-0.069 0.029-0.256 0.079-0.716 0.079-0.81 0-1.957-0.011-2.438-0.016v-0.39c0-0.127-0.103-0.23-0.23-0.23l-2.406 0c-0.127 0-0.23 0.103-0.23 0.23v0.394c-1.021 0.029-2.029-0.007-2.045-0.007-0.796-0.010-1.054-0.111-1.126-0.152 0.002-1.795 0.476-3.165 0.481-3.178 0.042-0.12-0.021-0.251-0.141-0.293-0.12-0.042-0.251 0.021-0.293 0.14-0.020 0.059-0.504 1.454-0.506 3.33-0.011 0.068-0.002 0.154 0.051 0.237 0.108 0.168 0.378 0.362 1.523 0.376 0.012 0 1.187 0.041 2.294-0 0.123-0.005 0.222-0.106 0.222-0.23v-0.387h1.947v0.387c0 0.126 0.101 0.228 0.227 0.23 0 0 1.62 0.018 2.671 0.018 0.656 0 1.005-0.093 1.131-0.302 0.045-0.075 0.054-0.151 0.045-0.215 0.161-1.542-0.585-3.903-0.617-4.004-0.038-0.121-0.168-0.187-0.289-0.149z" fill="#000000" />
</svg>
