<?xml version="1.0" encoding="utf-8"?>
<!-- Generated by IcoMoon.io -->
<!DOCTYPE svg PUBLIC "-//W3C//DTD SVG 1.1//EN" "http://www.w3.org/Graphics/SVG/1.1/DTD/svg11.dtd">
<svg version="1.1" xmlns="http://www.w3.org/2000/svg" xmlns:xlink="http://www.w3.org/1999/xlink" width="32" height="32" viewBox="0 0 32 32">
<g>
</g>
	<path d="M16.387 10.545c2.346 0 4.255-1.909 4.255-4.255 0-2.346-1.909-4.254-4.255-4.254-2.346 0-4.254 1.909-4.254 4.254 0 2.346 1.908 4.255 4.254 4.255zM16.387 2.649c2.008 0 3.642 1.634 3.642 3.641 0 2.008-1.634 3.642-3.642 3.642s-3.641-1.634-3.641-3.642c0-2.008 1.633-3.641 3.641-3.641zM18.721 11.37h-4.662c-0.001 0-0.001 0-0.002 0h-0.003c-4.338 0-6.726 2.389-6.726 6.726v3.747c0 2.124 1.411 3.162 2.906 4.261l0.198 0.146v1.706c0 0.074 0.027 0.147 0.077 0.202 0.292 0.332 1.579 1.413 5.88 1.413 4.3 0 5.587-1.082 5.88-1.413 0.050-0.056 0.077-0.128 0.077-0.202v-1.706l0.197-0.145c1.495-1.099 2.908-2.137 2.908-4.262l-0-3.747c-0-4.338-2.389-6.726-6.727-6.726zM17.896 11.983c-0.451 1.175-1.359 2.126-1.735 2.485-0.634-0.498-1.284-1.715-1.639-2.485h3.374zM24.834 21.844c0 1.814-1.23 2.719-2.656 3.767v-7.808c0-0.148-0.12-0.268-0.268-0.268-0.148 0-0.268 0.12-0.268 0.268v10.101c-0.44 0.346-1.768 1.055-5.255 1.055-3.617 0-4.91-0.762-5.3-1.091 0.007-0.024 0.015-0.048 0.015-0.075v-9.99c0-0.148-0.12-0.268-0.268-0.268s-0.268 0.12-0.268 0.268v7.786c-1.412-1.038-2.626-1.944-2.626-3.745l0-3.747c0-2.751 1.035-6.021 5.912-6.11 0.273 0.626 1.183 2.575 2.188 3.137 0.046 0.026 0.098 0.039 0.15 0.039 0.071 0 0.141-0.025 0.198-0.072 0.067-0.057 1.58-1.351 2.162-3.108h0.172c5.053 0 6.114 3.324 6.114 6.114l-0 3.747z" fill="#000000" />
</svg>
