<?xml version="1.0" encoding="utf-8"?>
<!-- Generated by IcoMoon.io -->
<!DOCTYPE svg PUBLIC "-//W3C//DTD SVG 1.1//EN" "http://www.w3.org/Graphics/SVG/1.1/DTD/svg11.dtd">
<svg version="1.1" xmlns="http://www.w3.org/2000/svg" xmlns:xlink="http://www.w3.org/1999/xlink" width="32" height="32" viewBox="0 0 32 32">
<g>
</g>
	<path d="M8.677 21.177c-1.656 0-3.003 1.347-3.003 3.003 0 1.655 1.347 3.002 3.003 3.002 1.655 0 3.002-1.347 3.002-3.002 0-1.656-1.347-3.003-3.002-3.003zM8.677 26.722c-1.402 0-2.543-1.141-2.543-2.542s1.141-2.543 2.543-2.543c1.402 0 2.542 1.141 2.542 2.543s-1.141 2.542-2.542 2.542zM8.677 22.244c-1.068 0-1.936 0.868-1.936 1.935 0 1.067 0.869 1.935 1.936 1.935 1.067 0 1.935-0.869 1.935-1.935 0-1.067-0.868-1.935-1.935-1.935zM8.677 25.808c-0.899 0-1.63-0.731-1.63-1.629 0-0.899 0.731-1.629 1.63-1.629 0.898 0 1.629 0.73 1.629 1.629 0 0.898-0.731 1.629-1.629 1.629zM16.246 5.332c-0.004 0-0.006 0-0.010 0s-0.006-0-0.010-0c-1.656 0-3.002 1.347-3.002 3.002s1.347 3.002 3.002 3.002c0.004 0 0.006-0.001 0.010-0.001s0.006 0.001 0.010 0.001c1.656 0 3.003-1.347 3.003-3.002s-1.346-3.002-3.003-3.002zM16.246 10.878c-0.004 0-0.006-0.001-0.010-0.001s-0.006 0.001-0.010 0.001c-1.402 0-2.543-1.141-2.543-2.543 0-1.402 1.141-2.543 2.543-2.543 0.004 0 0.006 0 0.010 0s0.006-0 0.010-0c1.402 0 2.543 1.141 2.543 2.543 0 1.402-1.141 2.543-2.543 2.543zM16.246 6.399c-0.004 0-0.006 0.001-0.010 0.001s-0.006-0.001-0.010-0.001c-1.067 0-1.936 0.869-1.936 1.936s0.869 1.936 1.936 1.936c0.004 0 0.006-0.001 0.010-0.001s0.006 0.001 0.010 0.001c1.067 0 1.936-0.869 1.936-1.936s-0.869-1.936-1.936-1.936zM16.246 9.964c-0.004 0-0.006-0.001-0.010-0.001s-0.006 0.001-0.010 0.001c-0.899 0-1.63-0.731-1.63-1.629s0.731-1.629 1.63-1.629c0.004 0 0.006 0.001 0.010 0.001s0.006-0.001 0.010-0.001c0.899 0 1.63 0.731 1.63 1.629s-0.731 1.629-1.63 1.629zM16.247 14.996c-0.004 0-0.007 0.001-0.011 0.001s-0.007-0.001-0.010-0.001c-1.163 0-2.108 0.946-2.108 2.108 0 1.162 0.945 2.109 2.108 2.109 0.003 0 0.006-0.001 0.010-0.001s0.007 0.001 0.011 0.001c1.162 0 2.108-0.946 2.108-2.109 0-1.162-0.946-2.108-2.108-2.108zM16.247 18.753c-0.004 0-0.007-0.001-0.011-0.001-0.004 0.001-0.007 0.001-0.010 0.001-0.91 0-1.648-0.739-1.648-1.649 0-0.909 0.739-1.648 1.648-1.648 0.003 0 0.006 0.001 0.010 0.001s0.007-0.001 0.011-0.001c0.909 0 1.648 0.739 1.648 1.648 0 0.909-0.739 1.649-1.648 1.649zM16.247 16.063c-0.004 0-0.007 0.001-0.011 0.001s-0.007-0.001-0.010-0.001c-0.575 0-1.042 0.467-1.042 1.041 0 0.575 0.467 1.042 1.042 1.042 0.003 0 0.006-0.001 0.010-0.001 0.004 0.001 0.007 0.001 0.011 0.001 0.574 0 1.041-0.467 1.041-1.042 0-0.574-0.467-1.041-1.041-1.041zM16.247 17.839c-0.004 0-0.007-0.001-0.011-0.001-0.004 0.001-0.007 0.001-0.010 0.001-0.406 0-0.735-0.33-0.735-0.735 0-0.405 0.329-0.734 0.735-0.734 0.003 0 0.006 0.001 0.010 0.001s0.007-0.001 0.011-0.001c0.405 0 0.734 0.33 0.734 0.734 0 0.405-0.329 0.735-0.734 0.735zM23.795 21.177c-1.655 0-3.002 1.347-3.002 3.003 0 1.655 1.346 3.002 3.002 3.002 1.656 0 3.003-1.347 3.003-3.002 0-1.656-1.347-3.003-3.003-3.003zM23.795 26.722c-1.401 0-2.542-1.141-2.542-2.542s1.141-2.543 2.542-2.543c1.402 0 2.544 1.141 2.544 2.543s-1.141 2.542-2.544 2.542zM23.795 22.244c-1.067 0-1.935 0.868-1.935 1.935 0 1.067 0.868 1.935 1.935 1.935 1.068 0 1.937-0.869 1.937-1.935-0-1.067-0.869-1.935-1.937-1.935zM23.795 25.808c-0.898 0-1.628-0.731-1.628-1.629 0-0.899 0.731-1.629 1.628-1.629 0.899 0 1.63 0.73 1.63 1.629-0 0.898-0.732 1.629-1.63 1.629zM27.403 22.297c-0.008-0.016-0.022-0.026-0.033-0.040-0.004-0.011-0.003-0.023-0.008-0.035l-7.352-15.431c-0.006-0.012-0.017-0.020-0.023-0.031-0.005-0.022-0.006-0.044-0.014-0.065-0.652-1.477-2.114-2.431-3.726-2.431-0.004 0-0.006 0-0.010 0s-0.006-0-0.010-0c-1.611 0-3.074 0.954-3.726 2.431-0.009 0.021-0.010 0.043-0.014 0.065-0.007 0.011-0.018 0.019-0.023 0.031l-7.353 15.43c-0.006 0.011-0.005 0.023-0.009 0.035-0.011 0.014-0.024 0.025-0.033 0.040-0.302 0.578-0.462 1.229-0.462 1.882 0 2.244 1.826 4.070 4.070 4.070 2.128 0 3.911-1.662 4.059-3.784 0.001-0.013-0.004-0.024-0.005-0.037 0.002-0.007 0.006-0.014 0.007-0.022l0.978-7.813c0.24-1.171 1.29-2.052 2.51-2.052 0.003 0 0.006 0.001 0.010 0.001s0.007-0.001 0.011-0.001c1.22 0 2.27 0.881 2.509 2.052l0.978 7.813c0.001 0.008 0.006 0.014 0.007 0.022-0.001 0.013-0.006 0.024-0.005 0.037 0.148 2.122 1.931 3.784 4.059 3.784 2.244 0 4.070-1.826 4.070-4.070 0.001-0.653-0.158-1.304-0.461-1.882zM23.795 27.636c-1.807 0-3.322-1.411-3.447-3.214-0.001-0.013-0.008-0.023-0.010-0.035 0.001-0.019 0.006-0.037 0.004-0.056l-0.936-7.478c0-0.010 0.004-0.019 0.004-0.030-0.010-0.113-0.027-0.223-0.049-0.332v-0.002c0-0.001-0.001-0.001-0.001-0.002-0.291-1.46-1.597-2.559-3.113-2.559-0.004 0-0.007 0-0.011 0.001-0.004-0.001-0.007-0.001-0.010-0.001-1.517 0-2.823 1.1-3.114 2.559 0 0.001-0.001 0.001-0.001 0.002l-0.001 0.002c-0.021 0.109-0.038 0.219-0.048 0.332-0.001 0.011 0.003 0.020 0.003 0.030l-0.937 7.478c-0.002 0.020 0.003 0.038 0.004 0.056-0.002 0.013-0.009 0.023-0.010 0.035-0.126 1.802-1.64 3.214-3.448 3.214-1.906 0-3.457-1.551-3.457-3.457 0-0.555 0.135-1.107 0.391-1.598 0.006-0.010 0.006-0.022 0.010-0.033 0.016-0.019 0.031-0.039 0.042-0.063l7.352-15.43c0.011-0.024 0.014-0.050 0.019-0.075 0.008-0.013 0.020-0.023 0.026-0.038 0.554-1.255 1.797-2.066 3.165-2.066 0.004 0 0.006 0 0.010 0s0.006-0 0.010-0c1.369 0 2.611 0.811 3.165 2.066 0.006 0.015 0.018 0.024 0.026 0.038 0.006 0.025 0.008 0.050 0.019 0.075l7.352 15.43c0.011 0.024 0.026 0.044 0.042 0.063 0.004 0.011 0.004 0.023 0.009 0.033 0.257 0.49 0.392 1.042 0.392 1.598 0 1.906-1.55 3.457-3.457 3.457z" fill="#000000" />
</svg>
