<?xml version="1.0" encoding="utf-8"?>
<!-- Generated by IcoMoon.io -->
<!DOCTYPE svg PUBLIC "-//W3C//DTD SVG 1.1//EN" "http://www.w3.org/Graphics/SVG/1.1/DTD/svg11.dtd">
<svg version="1.1" xmlns="http://www.w3.org/2000/svg" xmlns:xlink="http://www.w3.org/1999/xlink" width="32" height="32" viewBox="0 0 32 32">
<g>
</g>
	<path d="M15.527 12.925c1.778 0 3.225-1.447 3.225-3.225 0-1.778-1.447-3.225-3.225-3.225-1.778 0-3.224 1.447-3.224 3.225 0.001 1.778 1.447 3.225 3.224 3.225zM15.527 7.088c1.44 0 2.612 1.171 2.612 2.612 0 1.44-1.171 2.611-2.612 2.611-1.44 0-2.611-1.171-2.611-2.611 0-1.44 1.171-2.612 2.611-2.612zM22.816 17.753c-1.477-3.505-2.767-3.8-6.373-3.8h-1.831c-3.471 0-5.322 1.498-6.003 4.866-0.753 4.387 0.43 5.664 2.562 6.297 0.029 0.011 0.735 0.271 2.994 0.379 0.057 0.008 0.232 0.030 0.464 0.030 0.426 0 1.042-0.072 1.466-0.436 0.314-0.27 0.474-0.643 0.473-1.11 0-0.049-0.010-0.49-0.403-0.875-0.381-0.373-0.97-0.557-1.758-0.535-0.014-0.001-0.856 0.008-1.755-0.232l1.565-0.867c0.054-0.030 0.094-0.081 0.11-0.14 0.016-0.060 0.008-0.123-0.023-0.177-0.271-0.46-0.922-1.793-0.698-2.431 0.049-0.139 0.136-0.229 0.274-0.282 0.002-0.001 0.174-0.058 0.34 0.031 0.156 0.083 0.274 0.28 0.338 0.543 0.004 0.030 0.367 2.787 4.142 2.992-0.136 0.089-0.273 0.177-0.402 0.258-1.23 0.768-0.873 1.676-0.744 1.915 0.165 0.375 0.821 0.961 2.125 0.494 0.752-0.269 2.034-0.922 3.172-1.878 1.719-1.443 0.032-4.913-0.033-5.044zM22.454 22.327c-1.151 0.966-2.418 1.566-2.985 1.77-1.070 0.383-1.348-0.147-1.367-0.185-0.214-0.4-0.039-0.779 0.518-1.128 0.702-0.439 1.584-1.059 1.586-1.061l0.723-0.48c0.141-0.094 0.18-0.284 0.086-0.425-0.094-0.141-0.283-0.18-0.425-0.086l-0.73 0.485c-0.005 0.003-0.205 0.144-0.488 0.337-0.313 0.008-0.606 0.002-0.876-0.021 0.758-0.245 1.308-0.956 1.308-1.794 0-1.039-0.845-1.885-1.885-1.885-1.039 0-1.885 0.846-1.885 1.885 0 0.464 0.169 0.888 0.448 1.218-1.294-0.746-1.461-1.929-1.473-2.021-0.102-0.428-0.294-0.721-0.573-0.87-0.347-0.185-0.681-0.070-0.72-0.055-0.263 0.101-0.452 0.294-0.545 0.56-0.278 0.794 0.343 2.092 0.621 2.61l-1.734 0.961c-0.238-0.097-0.468-0.215-0.674-0.362-0.138-0.098-0.33-0.065-0.427 0.073-0.098 0.138-0.065 0.33 0.073 0.428 1.312 0.928 3.305 0.902 3.39 0.903 1.464-0.042 1.534 0.716 1.536 0.797 0.001 0.283-0.084 0.494-0.258 0.643-0.396 0.34-1.185 0.306-1.456 0.265-0.010-0.002-0.022-0.003-0.033-0.003-2.138-0.102-2.816-0.339-2.842-0.348-1.622-0.482-2.904-1.237-2.155-5.604 0.619-3.060 2.234-4.365 5.401-4.365h1.831c3.538 0 4.498 0.316 5.816 3.442 0.016 0.032 1.548 3.184 0.196 4.319zM16.493 19.739c0-0.786 0.639-1.425 1.425-1.425 0.786 0 1.425 0.639 1.425 1.425 0 0.786-0.639 1.425-1.425 1.425-0.785 0-1.425-0.639-1.425-1.425z" fill="#000000" />
</svg>
