<?xml version="1.0" encoding="utf-8"?>
<!-- Generated by IcoMoon.io -->
<!DOCTYPE svg PUBLIC "-//W3C//DTD SVG 1.1//EN" "http://www.w3.org/Graphics/SVG/1.1/DTD/svg11.dtd">
<svg version="1.1" xmlns="http://www.w3.org/2000/svg" xmlns:xlink="http://www.w3.org/1999/xlink" width="32" height="32" viewBox="0 0 32 32">
<g>
</g>
	<path d="M24.634 15.131c-0.809 0-1.498 0.518-1.759 1.239l-3.033-0.528c0.044-0.261 0.072-0.527 0.072-0.801 0-1.646-0.831-3.101-2.094-3.971l1.634-2.437c0.119 0.032 0.242 0.054 0.37 0.054 0.79 0 1.434-0.644 1.434-1.435 0-0.791-0.643-1.434-1.434-1.434-0.791 0-1.435 0.643-1.435 1.434 0 0.516 0.276 0.965 0.686 1.218l-1.599 2.385c-0.703-0.402-1.514-0.634-2.38-0.634-1.562 0-2.95 0.751-3.831 1.906l-2.29-1.893c0.205-0.299 0.326-0.66 0.326-1.049 0-1.023-0.834-1.855-1.858-1.855-1.023 0-1.857 0.832-1.857 1.855 0 1.024 0.833 1.858 1.857 1.858 0.49 0 0.935-0.192 1.267-0.503l2.322 1.919c-0.476 0.747-0.756 1.63-0.756 2.58 0 1.248 0.481 2.383 1.262 3.239l-1.626 1.351c-0.272-0.245-0.628-0.398-1.022-0.398-0.846 0-1.534 0.689-1.534 1.535 0 0.846 0.688 1.535 1.534 1.535 0.846 0 1.534-0.689 1.534-1.535 0-0.306-0.092-0.59-0.248-0.83l1.647-1.369c0.861 0.798 2.009 1.29 3.272 1.29 0.674 0 1.314-0.14 1.897-0.39l1.282 3.421c-0.933 0.396-1.59 1.322-1.59 2.398 0 1.435 1.167 2.602 2.602 2.602s2.602-1.167 2.602-2.602c0-1.435-1.167-2.603-2.602-2.603-0.216 0-0.426 0.030-0.627 0.080l-1.301-3.472c1.177-0.629 2.059-1.734 2.398-3.054l3.021 0.526c-0.010 0.079-0.018 0.159-0.018 0.241 0 1.031 0.84 1.87 1.872 1.87 1.031 0 1.87-0.839 1.87-1.87 0.002-1.034-0.837-1.875-1.869-1.875zM19.825 6.358c0.493 0 0.894 0.401 0.894 0.894 0 0.494-0.401 0.895-0.894 0.895-0.494 0-0.895-0.402-0.895-0.895 0-0.493 0.401-0.894 0.895-0.894zM7.444 10.504c-0.726 0-1.317-0.591-1.317-1.318 0-0.725 0.591-1.315 1.317-1.315 0.727 0 1.318 0.59 1.318 1.315-0 0.727-0.591 1.318-1.318 1.318zM21.349 25.288c0 1.137-0.925 2.062-2.062 2.062s-2.062-0.925-2.062-2.062c0-1.138 0.925-2.063 2.062-2.063s2.062 0.925 2.062 2.063zM8.891 21.762c-0.548 0-0.994-0.446-0.994-0.995 0-0.549 0.446-0.995 0.994-0.995 0.548 0 0.994 0.446 0.994 0.995-0 0.549-0.446 0.995-0.994 0.995zM15.097 19.211c-2.301 0-4.172-1.871-4.172-4.171s1.872-4.171 4.172-4.171c2.299 0 4.17 1.871 4.17 4.171s-1.87 4.171-4.17 4.171zM24.634 18.335c-0.734 0-1.332-0.597-1.332-1.33 0-0.736 0.598-1.334 1.332-1.334 0.734 0 1.33 0.598 1.33 1.334 0 0.733-0.597 1.33-1.33 1.33z" fill="#000000" />
</svg>
