<?xml version="1.0" encoding="utf-8"?>
<!-- Generated by IcoMoon.io -->
<!DOCTYPE svg PUBLIC "-//W3C//DTD SVG 1.1//EN" "http://www.w3.org/Graphics/SVG/1.1/DTD/svg11.dtd">
<svg version="1.1" xmlns="http://www.w3.org/2000/svg" xmlns:xlink="http://www.w3.org/1999/xlink" width="32" height="32" viewBox="0 0 32 32">
<g>
</g>
	<path d="M30.36 19.954c-0.062-0.499-0.236-1.294-0.387-1.772l-1.326-4.189c-0.096-0.304-0.305-0.549-0.589-0.689-0.283-0.14-0.605-0.158-0.905-0.050l-0.785 0.283c-0.324 0.116-0.776-0.031-0.969-0.315l-4.391-6.466c-0.188-0.277-0.461-0.436-0.75-0.436-0.001 0-0.001 0-0.002 0-0.288 0-0.561 0.158-0.75 0.434l-1.546 2.261c-0.245 0.358-0.783 0.812-1.175 0.994l-0.942 0.435c-0.514 0.237-1.072 0.838-1.271 1.366l-1.058 2.815c-0.026 0.070-0.054 0.113-0.076 0.139-0.111-0.066-0.208-0.147-0.271-0.236l-0.346-0.489-2.675-3.909c-0.067-0.098-0.176-0.15-0.294-0.153-0.227 0-0.506 0.24-0.826 0.713l-0.934 1.377c-0.243 0.358-0.779 0.815-1.172 0.998l-0.334 0.156c-0.513 0.239-1.069 0.841-1.266 1.371l-2.63 7.055c-0.117 0.312-0.088 0.628 0.077 0.866s0.451 0.374 0.785 0.374h13.914c0.105 0 0.193-0.056 0.248-0.136 0.101-0.039 0.191-0.099 0.268-0.176 0.010 0.001 0.019 0.006 0.029 0.006h11.446c0.324 0 0.615-0.128 0.821-0.361s0.297-0.538 0.257-0.859l-0.176-1.405zM3.271 22.161c-0.050-0.072-0.052-0.179-0.006-0.302l2.63-7.055c0.141-0.378 0.585-0.859 0.951-1.029l0.334-0.156c0.492-0.229 1.115-0.76 1.42-1.209l0.934-1.377c0.101-0.148 0.19-0.258 0.26-0.334l2.945 4.304c0.198 0.289 0.465 0.436 0.733 0.403 0.069-0.008 0.134-0.029 0.197-0.059 0.126 0.029 0.252 0.042 0.371 0.034l1.279-0.097c0.26-0.020 0.558 0.178 0.643 0.422l1.331 3.834c0.114 0.327 0.249 0.894 0.296 1.237l0.161 1.178c0.015 0.108-0.012 0.207-0.077 0.281-0.024 0.027-0.055 0.045-0.087 0.062-0.037-0.016-0.078-0.026-0.121-0.026h-0.257l-0.173-1.329c-0.017-0.126-0.131-0.216-0.258-0.198-0.126 0.016-0.214 0.132-0.198 0.258l0.165 1.27-13.193 0c-0.132 0.001-0.232-0.039-0.281-0.111zM29.819 21.812c-0.087 0.099-0.216 0.154-0.362 0.154h-11.248c-0.002-0.025 0.001-0.049-0.003-0.074l-0.161-1.178c-0.051-0.374-0.194-0.97-0.317-1.326l-1.331-3.834c-0.154-0.444-0.641-0.764-1.112-0.729l-1.236 0.094c0.012-0.027 0.028-0.049 0.039-0.078l1.058-2.815c0.142-0.377 0.588-0.857 0.954-1.026l0.942-0.435c0.492-0.227 1.118-0.756 1.424-1.204l1.547-2.261c0.074-0.108 0.16-0.166 0.244-0.166h0c0.084 0 0.17 0.059 0.244 0.167l4.39 6.466c0.353 0.52 1.092 0.76 1.684 0.548l0.785-0.283c0.142-0.051 0.292-0.043 0.425 0.022 0.132 0.066 0.23 0.181 0.276 0.324l1.326 4.189c0.14 0.441 0.306 1.202 0.363 1.663l0.175 1.405c0.018 0.144-0.020 0.278-0.108 0.377zM21.642 9.926c-0.068-0.107-0.21-0.138-0.318-0.069-0.107 0.069-0.138 0.211-0.069 0.318l2.644 4.118c0.044 0.068 0.118 0.106 0.194 0.106 0.042 0 0.085-0.012 0.124-0.037 0.107-0.069 0.138-0.211 0.069-0.318l-2.644-4.118zM21.664 12.258c-0.068-0.107-0.21-0.14-0.317-0.072-0.108 0.068-0.139 0.21-0.071 0.317l0.867 1.374c0.046 0.074 0.069 0.128 0.080 0.164-0.037-0.002-0.095-0.011-0.178-0.039l-1.485-0.499c-0.427-0.143-0.635 0.001-0.722 0.101-0.086 0.099-0.2 0.326 0.002 0.728l1.796 3.576c0.040 0.080 0.121 0.127 0.206 0.127 0.034 0 0.070-0.008 0.103-0.025 0.114-0.057 0.159-0.195 0.102-0.309l-1.796-3.576c-0.069-0.137-0.068-0.212-0.071-0.216 0.015-0.008 0.088-0.020 0.233 0.029l1.485 0.499c0.413 0.138 0.612 0.024 0.707-0.097 0.095-0.12 0.159-0.342-0.074-0.709l-0.868-1.374zM10.89 13.276c-0.068-0.108-0.21-0.14-0.317-0.072-0.108 0.068-0.139 0.21-0.071 0.317l1.338 2.121c0.044 0.069 0.118 0.107 0.195 0.107 0.042 0 0.084-0.011 0.122-0.036 0.108-0.068 0.139-0.21 0.071-0.317l-1.338-2.121z" fill="#000000" />
</svg>
