<?xml version="1.0" encoding="utf-8"?>
<!-- Generated by IcoMoon.io -->
<!DOCTYPE svg PUBLIC "-//W3C//DTD SVG 1.1//EN" "http://www.w3.org/Graphics/SVG/1.1/DTD/svg11.dtd">
<svg version="1.1" xmlns="http://www.w3.org/2000/svg" xmlns:xlink="http://www.w3.org/1999/xlink" width="32" height="32" viewBox="0 0 32 32">
<g>
</g>
	<path d="M25.106 15.037c0.037-0.139-0.022-0.287-0.156-0.353l-2.818-1.379c-0.042-0.020-0.088-0.031-0.134-0.031l-11.571 0c-0.041 0-0.082 0.008-0.12 0.024l-3.244 1.38c-0.142 0.060-0.21 0.215-0.171 0.36-0.007 0.026-0.016 0.051-0.016 0.079v5.152c0 0.169 0.137 0.306 0.306 0.306h17.634c0.17 0 0.307-0.137 0.307-0.306v-5.152c0-0.028-0.009-0.054-0.017-0.080zM10.488 13.886h11.438l1.888 0.924-15.499 0 2.173-0.925zM24.509 19.961h-17.021v-4.463h17.021v4.463zM8.617 17.714c-0 0.002-0 0.003-0 0.005 0 0.233 0.189 0.422 0.422 0.422 0.233 0 0.422-0.189 0.422-0.422 0-0.002 0-0.004-0-0.005 0-0.001 0-0.003 0-0.005 0-0.233-0.189-0.422-0.422-0.422-0.233 0-0.422 0.189-0.422 0.422 0 0.002 0 0.004 0 0.005zM10.112 17.714c-0 0.004-0 0.008-0 0.013 0 0.233 0.189 0.422 0.422 0.422 0.233 0 0.422-0.189 0.422-0.422 0-0.004-0-0.009-0-0.013 0-0.003 0-0.008 0-0.012 0-0.233-0.189-0.422-0.422-0.422-0.233 0-0.422 0.189-0.422 0.422 0 0.004 0 0.009 0 0.013zM23.682 18.912c0 0.085-0.069 0.153-0.154 0.153h-0.919c-0.085 0-0.154-0.069-0.154-0.153v-2.452c0-0.085 0.069-0.153 0.154-0.153h0.919c0.085 0 0.154 0.069 0.154 0.153v2.452zM22.762 18.759h0.613v-2.146h-0.613v2.146zM21.843 18.912c0 0.085-0.069 0.153-0.153 0.153h-0.92c-0.085 0-0.153-0.069-0.153-0.153v-2.452c0-0.085 0.069-0.153 0.153-0.153h0.92c0.085 0 0.153 0.069 0.153 0.153v2.452zM20.923 18.759h0.613v-2.146h-0.613v2.146z" fill="#000000" />
</svg>
