<?xml version="1.0" encoding="utf-8"?>
<!-- Generated by IcoMoon.io -->
<!DOCTYPE svg PUBLIC "-//W3C//DTD SVG 1.1//EN" "http://www.w3.org/Graphics/SVG/1.1/DTD/svg11.dtd">
<svg version="1.1" xmlns="http://www.w3.org/2000/svg" xmlns:xlink="http://www.w3.org/1999/xlink" width="32" height="32" viewBox="0 0 32 32">
<g>
</g>
	<path d="M25.295 8.937h-16.75c-0.684 0-1.24 0.557-1.24 1.241v10.406c0 0.684 0.556 1.241 1.24 1.241h5.443v1.034h-1.673c-0.17 0-0.306 0.137-0.306 0.306s0.137 0.306 0.306 0.306h9.21c0.17 0 0.306-0.137 0.306-0.306s-0.137-0.306-0.306-0.306h-1.673v-1.034h5.443c0.684 0 1.24-0.557 1.24-1.241v-10.406c-0-0.684-0.556-1.241-1.241-1.241zM14.601 22.859v-0.922h4.638v0.922h-4.638zM25.922 20.614c0 0.346-0.281 0.627-0.627 0.627l-16.75 0c-0.346 0-0.627-0.281-0.627-0.627v-10.436c0-0.346 0.281-0.628 0.627-0.628h16.75c0.346 0 0.627 0.282 0.627 0.628v10.436zM18.247 16.146c0.030 0 0.060-0.009 0.086-0.026l4.413-2.963c0.070-0.047 0.088-0.142 0.041-0.212-0.047-0.070-0.143-0.089-0.213-0.041l-4.413 2.963c-0.070 0.047-0.088 0.142-0.041 0.212 0.030 0.044 0.078 0.068 0.126 0.068zM16.936 18.186c0.030 0 0.059-0.009 0.086-0.026l3.494-2.361c0.070-0.047 0.089-0.143 0.041-0.213-0.047-0.070-0.143-0.088-0.213-0.041l-3.495 2.36c-0.070 0.048-0.089 0.143-0.041 0.213 0.029 0.044 0.078 0.068 0.127 0.068zM9.37 20.653h15.104c0.422 0 0.765-0.367 0.765-0.818l0-8.757c0-0.451-0.343-0.818-0.765-0.818l-15.105-0c-0.422 0-0.765 0.367-0.765 0.818v8.757c-0 0.451 0.343 0.818 0.765 0.818zM9.064 11.078c0-0.198 0.137-0.359 0.306-0.359h15.104c0.169 0 0.305 0.161 0.305 0.359v8.757c0 0.198-0.137 0.359-0.305 0.359l-15.104-0c-0.168 0-0.306-0.161-0.306-0.359v-8.757z" fill="#000000" />
</svg>
