<?xml version="1.0" encoding="utf-8"?>
<!-- Generated by IcoMoon.io -->
<!DOCTYPE svg PUBLIC "-//W3C//DTD SVG 1.1//EN" "http://www.w3.org/Graphics/SVG/1.1/DTD/svg11.dtd">
<svg version="1.1" xmlns="http://www.w3.org/2000/svg" xmlns:xlink="http://www.w3.org/1999/xlink" width="32" height="32" viewBox="0 0 32 32">
<g>
</g>
	<path d="M26.313 10.197c-0-0.008-0.002-0.016-0.003-0.025-0.004-0.030-0.011-0.057-0.023-0.084-0.002-0.006-0.002-0.011-0.005-0.017-0.002-0.003-0.005-0.006-0.007-0.009-0.017-0.031-0.038-0.059-0.064-0.083-0.006-0.006-0.014-0.009-0.021-0.014-0.014-0.011-0.028-0.023-0.045-0.031l-9.697-4.849c-0.086-0.043-0.188-0.043-0.274 0l-9.695 4.849c-0.017 0.009-0.032 0.021-0.046 0.032-0.006 0.005-0.013 0.008-0.019 0.013-0.027 0.024-0.048 0.052-0.065 0.083-0.002 0.003-0.005 0.005-0.006 0.008-0.003 0.006-0.002 0.011-0.005 0.017-0.012 0.026-0.019 0.054-0.023 0.083-0.001 0.009-0.003 0.017-0.004 0.026 0 0.004-0.002 0.007-0.002 0.011v12.12c0 0.116 0.066 0.223 0.17 0.274l9.696 4.848c0.003 0.001 0.006 0.001 0.008 0.002 0.040 0.018 0.082 0.030 0.129 0.030s0.089-0.012 0.129-0.030c0.003-0.002 0.006-0.001 0.008-0.002l9.697-4.848c0.104-0.051 0.17-0.158 0.17-0.274l-0-12.12c0-0.004-0.002-0.008-0.002-0.012zM16.311 5.703l9.011 4.505-9.011 4.505-9.011-4.505 9.011-4.505zM6.922 10.705l9.083 4.541v11.435l-9.083-4.542v-11.434zM16.618 26.681v-11.435l9.083-4.541v11.435l-9.083 4.541z" fill="#000000" />
</svg>
