<?xml version="1.0" encoding="utf-8"?>
<!-- Generated by IcoMoon.io -->
<!DOCTYPE svg PUBLIC "-//W3C//DTD SVG 1.1//EN" "http://www.w3.org/Graphics/SVG/1.1/DTD/svg11.dtd">
<svg version="1.1" xmlns="http://www.w3.org/2000/svg" xmlns:xlink="http://www.w3.org/1999/xlink" width="32" height="32" viewBox="0 0 32 32">
<g>
</g>
	<path d="M17.134 9.422l-0.945-1.405c-0.032-0.049-0.066-0.101-0.101-0.157-0.036-0.055-0.062-0.1-0.079-0.134 0 0.025 0.001 0.061 0.002 0.109 0.001 0.048 0.002 0.1 0.002 0.157 0 0.054 0.001 0.108 0.002 0.162 0.001 0.054 0.002 0.099 0.002 0.136v1.133h-0.511v-2.574h0.497l0.909 1.361c0.032 0.049 0.065 0.101 0.101 0.156 0.035 0.055 0.062 0.1 0.079 0.134 0-0.024-0.001-0.060-0.002-0.109s-0.002-0.099-0.002-0.153c0-0.056-0.001-0.112-0.002-0.166s-0.002-0.099-0.002-0.136v-1.089h0.511v2.574l-0.46-0zM17.38 25.545c-0.039 0.101-0.101 0.187-0.184 0.259-0.083 0.072-0.188 0.128-0.314 0.167-0.126 0.040-0.278 0.058-0.454 0.058-0.216 0-0.412-0.041-0.589-0.124-0.177-0.084-0.314-0.198-0.412-0.342l0.371-0.331c0.091 0.106 0.192 0.181 0.303 0.226 0.112 0.045 0.23 0.068 0.355 0.068 0.154 0 0.268-0.022 0.34-0.066 0.072-0.044 0.109-0.115 0.109-0.213 0-0.042-0.007-0.078-0.022-0.109-0.015-0.031-0.042-0.060-0.083-0.087s-0.098-0.053-0.174-0.077-0.174-0.050-0.294-0.077c-0.118-0.027-0.226-0.058-0.326-0.096-0.099-0.037-0.185-0.083-0.256-0.139s-0.126-0.127-0.166-0.213c-0.039-0.086-0.058-0.193-0.058-0.32 0-0.118 0.024-0.223 0.071-0.316 0.048-0.094 0.114-0.172 0.197-0.238 0.083-0.065 0.181-0.114 0.293-0.148 0.111-0.035 0.231-0.052 0.359-0.052 0.201 0 0.377 0.036 0.527 0.108 0.151 0.072 0.287 0.172 0.41 0.3l-0.371 0.362c-0.083-0.086-0.172-0.151-0.267-0.197s-0.201-0.069-0.318-0.069c-0.069 0-0.126 0.007-0.173 0.020s-0.084 0.031-0.114 0.053c-0.030 0.022-0.050 0.046-0.063 0.074-0.012 0.027-0.018 0.055-0.018 0.084 0 0.041 0.008 0.076 0.024 0.104s0.043 0.053 0.083 0.075c0.039 0.022 0.092 0.043 0.158 0.062 0.066 0.020 0.151 0.042 0.254 0.066s0.205 0.053 0.307 0.086 0.194 0.079 0.276 0.138c0.082 0.058 0.149 0.134 0.2 0.224s0.077 0.206 0.077 0.346c0 0.122-0.020 0.234-0.059 0.335zM16.311 28.621c-6.943 0-12.593-5.649-12.593-12.593 0-6.943 5.649-12.593 12.593-12.593s12.593 5.649 12.593 12.593c0 6.944-5.649 12.593-12.593 12.593zM16.311 4.049c-6.605 0-11.979 5.374-11.979 11.979 0 6.605 5.374 11.979 11.979 11.979 6.606 0 11.979-5.374 11.979-11.979 0-6.605-5.373-11.979-11.979-11.979zM16.295 26.937c-6.051 0-10.974-4.923-10.974-10.974 0-6.050 4.922-10.973 10.974-10.973 6.050 0 10.974 4.922 10.974 10.973 0 6.051-4.923 10.974-10.974 10.974zM16.295 5.45c-5.798 0-10.514 4.716-10.514 10.514 0 5.798 4.716 10.514 10.514 10.514 5.797 0 10.514-4.716 10.514-10.514 0-5.797-4.717-10.514-10.514-10.514zM16.567 14.548v-0.001l-0.001 0.001zM23.549 8.861c-0.082-0.081-0.211-0.088-0.301-0.019l-6.681 5.125v-3.816c0-0.127-0.103-0.23-0.23-0.23s-0.23 0.103-0.23 0.23v4.169l-0.493 0.378c-0.397 0.193-0.707 0.538-0.85 0.971l-0.214 0.288-4.25 0c-0.127 0-0.23 0.103-0.23 0.23 0 0.127 0.103 0.23 0.23 0.23h3.908l-4.884 6.586c-0.068 0.092-0.058 0.22 0.024 0.301 0.044 0.044 0.103 0.066 0.161 0.066 0.049 0 0.099-0.016 0.14-0.047l6.457-4.954v3.854c0 0.127 0.103 0.23 0.23 0.23s0.23-0.103 0.23-0.23l0-4.206 0.368-0.282c0.386-0.15 0.702-0.442 0.886-0.817l0.371-0.5h4.18c0.127 0 0.23-0.103 0.23-0.23 0-0.127-0.103-0.23-0.23-0.23l-3.839 0 5.039-6.796c0.068-0.092 0.059-0.221-0.023-0.301zM10.672 21.96l4.038-5.446c0.13 0.646 0.641 1.181 1.328 1.307 0.009 0.001 0.018 0.001 0.026 0.002l-5.393 4.137zM16.567 17.362c-0.144 0.030-0.294 0.035-0.446 0.006-0.005-0.001-0.009-0.003-0.014-0.004-0.492-0.096-0.854-0.482-0.946-0.947-0.028-0.144-0.033-0.294-0.006-0.446 0.001-0.005 0.003-0.009 0.004-0.014 0.095-0.487 0.475-0.856 0.947-0.948 0.074-0.014 0.15-0.023 0.228-0.023 0.072 0 0.145 0.006 0.217 0.020 0.005 0.001 0.010 0.003 0.014 0.004 0.31 0.060 0.578 0.235 0.758 0.494 0.096 0.138 0.158 0.292 0.189 0.453 0.029 0.145 0.032 0.295 0.004 0.445-0.001 0.006-0.003 0.010-0.004 0.015-0.095 0.484-0.483 0.85-0.947 0.944zM17.972 15.942c-0.037-0.248-0.123-0.486-0.27-0.698-0.252-0.365-0.631-0.61-1.068-0.689-0.023-0.004-0.045-0.003-0.068-0.006 0 0-0.001 0-0.001 0l0.001-0.001 5.659-4.341-4.253 5.736zM6.894 16.4c-0.127 0-0.23-0.103-0.23-0.23 0-3.44 1.752-6.57 4.687-8.374 0.108-0.066 0.25-0.033 0.316 0.075 0.066 0.109 0.033 0.25-0.076 0.316-2.798 1.719-4.468 4.703-4.468 7.982 0 0.127-0.103 0.23-0.23 0.23zM22.293 24.032c-0.070 0-0.138-0.031-0.183-0.090-0.077-0.101-0.058-0.245 0.043-0.322 2.346-1.788 3.691-4.504 3.691-7.45 0-0.127 0.103-0.23 0.23-0.23s0.23 0.103 0.23 0.23c0 3.091-1.411 5.939-3.872 7.815-0.041 0.032-0.090 0.047-0.139 0.047z" fill="#000000" />
</svg>
