<?xml version="1.0" encoding="utf-8"?>
<!-- Generated by IcoMoon.io -->
<!DOCTYPE svg PUBLIC "-//W3C//DTD SVG 1.1//EN" "http://www.w3.org/Graphics/SVG/1.1/DTD/svg11.dtd">
<svg version="1.1" xmlns="http://www.w3.org/2000/svg" xmlns:xlink="http://www.w3.org/1999/xlink" width="32" height="32" viewBox="0 0 32 32">
<g>
</g>
	<path d="M25.679 6.511c-7.305-1.709-9.113-1.894-9.552-1.894-0.046 0-0.088 0.001-0.127 0.006-0.038-0.005-0.081-0.006-0.127-0.006-0.439 0-2.249 0.185-9.553 1.894-0.138 0.033-0.237 0.156-0.237 0.299v10.108c0.002 0.087 0.348 8.774 9.863 10.46 0.018 0.004 0.035 0.005 0.053 0.005 0.013 0 0.025-0.001 0.038-0.002 9.766-1.202 9.878-10.378 9.878-10.47l-0-10.1c-0-0.142-0.098-0.266-0.237-0.299zM25.303 16.91c0 0.087-0.106 8.697-9.294 9.857-8.97-1.615-9.302-9.529-9.311-9.857v-9.856c7.687-1.794 9.041-1.837 9.222-1.821 0.054 0.015 0.111 0.014 0.165-0.001 0.183-0.010 1.538 0.030 9.219 1.822l-0 9.856zM15.519 7.94c-0.707 0.083-2.647 0.395-7.702 1.56-0.105 0.024-0.178 0.117-0.178 0.224l0 7.17c0.029 0.742 0.509 7.287 8.318 8.785 0.014 0.002 0.029 0.004 0.043 0.004 0.011 0 0.021-0.001 0.031-0.002 5.434-0.753 7.321-4.248 7.978-6.596l0.002-0.003h-0.001c0.329-1.178 0.35-2.066 0.351-2.171l0-5.041c0.002-0.003 0.004-0.007 0.006-0.010l-0.006-0.002v-2.132c0-0.107-0.074-0.2-0.178-0.224-5.060-1.166-6.994-1.477-7.722-1.56l-0.455-0.001-0.488 0.002zM23.902 13.131v3.777c0 0-0.089 2.293-1.104 3.958l-0.316 0.531c0 0-0.606 0.933-1.228 1.48l-0.43 0.374c-1.136 0.924-2.688 1.667-4.818 1.968-1.496-0.291-2.704-0.776-3.687-1.37 6.488-4.556 10.138-9.207 11.582-11.294v0.575zM21.838 9.442c0.62 0.137 1.306 0.291 2.063 0.465v1.529l-0.062 0.109c-0.963 1.504-4.672 6.796-12.071 11.944-0.093-0.066-0.188-0.131-0.276-0.199l-0.487-0.4c-0.463-0.411-0.853-0.847-1.181-1.289l-0.309-0.446c7.142-5.001 10.937-10.191 12.002-11.782l0.32 0.069zM20.873 9.231c-1.209 1.765-4.916 6.657-11.673 11.397-0.971-1.763-1.088-3.405-1.102-3.743l0.006-2.924v-0.723l-0.006-3.33 1.995-0.45c0 0 4.927-0.996 5.451-1.058l0.888-0.001c0.52 0.060 1.735 0.251 4.439 0.832z" fill="#000000" />
</svg>
