<?xml version="1.0" encoding="utf-8"?>
<!-- Generated by IcoMoon.io -->
<!DOCTYPE svg PUBLIC "-//W3C//DTD SVG 1.1//EN" "http://www.w3.org/Graphics/SVG/1.1/DTD/svg11.dtd">
<svg version="1.1" xmlns="http://www.w3.org/2000/svg" xmlns:xlink="http://www.w3.org/1999/xlink" width="32" height="32" viewBox="0 0 32 32">
<g>
</g>
	<path d="M23.086 4.050h-14.382c-0.811 0-1.471 0.66-1.471 1.472v20.884c0 0.811 0.66 1.471 1.471 1.471h14.383c0.811 0 1.472-0.66 1.472-1.471v-20.884c-0-0.812-0.66-1.472-1.472-1.472zM23.945 26.405c0 0.473-0.385 0.858-0.858 0.858h-14.383c-0.474 0-0.858-0.385-0.858-0.858v-20.884c0-0.474 0.385-0.859 0.858-0.859h14.383c0.474 0 0.858 0.385 0.858 0.859l0 20.884zM22.162 6.794h-2.266v-1.055c0-0.313-0.255-0.568-0.568-0.568h-6.865c-0.314 0-0.568 0.255-0.568 0.568v1.055h-2.266c-0.49 0-0.888 0.371-0.888 0.828v17.833c0 0.457 0.398 0.828 0.888 0.828h12.533c0.49 0 0.888-0.371 0.888-0.828l0-17.833c0-0.457-0.399-0.828-0.888-0.828zM12.355 6.794v-1.055c0-0.059 0.049-0.108 0.109-0.108h6.865c0.059 0 0.108 0.048 0.108 0.108v1.723c0 0.059-0.048 0.108-0.108 0.108h-6.865c-0.060 0-0.109-0.048-0.109-0.108v-0.209l0-0.46zM22.59 25.455c0 0.203-0.193 0.368-0.428 0.368h-12.533c-0.236 0-0.428-0.165-0.428-0.368v-17.833c0-0.203 0.192-0.368 0.428-0.368h2.266v0.209c0 0.313 0.255 0.568 0.568 0.568h6.865c0.313 0 0.568-0.255 0.568-0.568v-0.209h2.266c0.236 0 0.428 0.165 0.428 0.368l-0 17.833zM21.84 11.13c0 0.127-0.103 0.23-0.23 0.23h-6.292c-0.127 0-0.23-0.103-0.23-0.23s0.103-0.23 0.23-0.23h6.292c0.127 0 0.23 0.102 0.23 0.23zM21.84 12.673c0 0.127-0.103 0.23-0.23 0.23l-6.292-0c-0.127 0-0.23-0.103-0.23-0.23s0.103-0.23 0.23-0.23h6.292c0.127-0 0.23 0.103 0.23 0.23zM21.84 16.285c0 0.127-0.103 0.23-0.23 0.23l-6.292 0c-0.127 0-0.23-0.103-0.23-0.23s0.103-0.23 0.23-0.23h6.292c0.127-0 0.23 0.103 0.23 0.23zM21.84 17.827c0 0.127-0.103 0.23-0.23 0.23h-6.292c-0.127 0-0.23-0.103-0.23-0.23s0.103-0.23 0.23-0.23h6.292c0.127 0 0.23 0.103 0.23 0.23zM21.84 21.539c0 0.127-0.103 0.23-0.23 0.23h-6.292c-0.127 0-0.23-0.103-0.23-0.23s0.103-0.23 0.23-0.23h6.292c0.127 0 0.23 0.102 0.23 0.23zM21.84 23.081c0 0.127-0.103 0.23-0.23 0.23l-6.292 0c-0.127 0-0.23-0.103-0.23-0.23s0.103-0.23 0.23-0.23h6.292c0.127-0 0.23 0.103 0.23 0.23zM10.427 13.515h3.085c0.127 0 0.23-0.103 0.23-0.23l-0-3.085c0-0.015-0.006-0.029-0.009-0.043l0.422-0.709c0.087-0.146 0.039-0.334-0.106-0.42-0.146-0.087-0.334-0.038-0.42 0.107l-0.498 0.837h-2.704c-0.126 0-0.23 0.103-0.23 0.23v3.085c0 0.127 0.103 0.23 0.23 0.23zM10.658 10.43h2.2l-0.873 1.467-0.285-0.535c-0.080-0.149-0.266-0.206-0.415-0.126-0.149 0.080-0.206 0.265-0.126 0.415l0.541 1.014c0.005 0.008 0.011 0.014 0.016 0.022 0.006 0.009 0.012 0.018 0.019 0.026 0.021 0.026 0.045 0.050 0.075 0.068 0.001 0.001 0.002 0.002 0.003 0.003 0 0 0.001 0 0.001 0 0.010 0.006 0.021 0.009 0.032 0.014 0.039 0.018 0.081 0.029 0.124 0.030h0.001c0.025 0 0.050-0.003 0.075-0.010 0.009-0.002 0.018-0.007 0.027-0.010 0.014-0.005 0.029-0.009 0.042-0.016 0 0 0.001-0.001 0.002-0.001 0.033-0.018 0.059-0.042 0.082-0.068 0.006-0.007 0.012-0.014 0.017-0.021 0.006-0.008 0.013-0.014 0.018-0.023l1.049-1.763v2.14h-2.626v-2.626zM13.513 20.554h-3.085c-0.126 0-0.23 0.103-0.23 0.23v3.085c0 0.127 0.103 0.23 0.23 0.23h3.085c0.127 0 0.23-0.103 0.23-0.23l-0-3.085c0-0.127-0.103-0.23-0.23-0.23zM12.404 22.326l0.879-0.879v1.758l-0.879-0.879zM12.849 21.014l-0.879 0.879-0.879-0.879h1.758zM10.658 21.446l0.879 0.88-0.879 0.88v-1.759zM11.091 23.639l0.879-0.879 0.879 0.879h-1.758zM14.044 14.178c-0.148-0.084-0.334-0.032-0.418 0.115l-0.565 0.991h-2.634c-0.126 0-0.23 0.103-0.23 0.23v3.084c0 0.127 0.103 0.23 0.23 0.23h3.085c0.127 0 0.23-0.103 0.23-0.23l0-3.085c0-0.045-0.016-0.084-0.038-0.12l0.454-0.798c0.085-0.146 0.033-0.334-0.114-0.418zM13.283 18.368h-2.625v-2.625h2.142l-0.809 1.419-0.286-0.582c-0.074-0.151-0.257-0.214-0.41-0.14-0.152 0.074-0.214 0.258-0.14 0.41l0.541 1.101c0.006 0.013 0.015 0.022 0.023 0.034 0.006 0.008 0.011 0.017 0.017 0.025 0.022 0.027 0.049 0.051 0.081 0.070 0.001 0.001 0.002 0.002 0.003 0.003 0.015 0.009 0.032 0.014 0.048 0.019 0.008 0.003 0.015 0.007 0.023 0.010 0.027 0.007 0.054 0.011 0.081 0.011h0.001l0-0c0.042 0 0.083-0.011 0.123-0.029 0.004-0.002 0.008-0.001 0.012-0.003 0.002-0.001 0.004-0.003 0.006-0.005 0.032-0.017 0.060-0.039 0.083-0.064 0.006-0.006 0.011-0.014 0.016-0.020 0.009-0.011 0.019-0.021 0.026-0.034l1.046-1.835-0 2.234z" fill="#000000" />
</svg>
