<?xml version="1.0" encoding="utf-8"?>
<!-- Generated by IcoMoon.io -->
<!DOCTYPE svg PUBLIC "-//W3C//DTD SVG 1.1//EN" "http://www.w3.org/Graphics/SVG/1.1/DTD/svg11.dtd">
<svg version="1.1" xmlns="http://www.w3.org/2000/svg" xmlns:xlink="http://www.w3.org/1999/xlink" width="32" height="32" viewBox="0 0 32 32">
<g>
</g>
	<path d="M24.369 8.521h-16.738c-0.169 0-0.306 0.137-0.306 0.306v14.346c0 0.17 0.138 0.306 0.306 0.306h16.738c0.169 0 0.306-0.137 0.306-0.306v-14.345c0-0.169-0.137-0.307-0.306-0.307zM18.188 18.908v-0.086c0-0.127-0.103-0.23-0.23-0.23h-3.915c-0.127 0-0.23 0.103-0.23 0.23v0.086h-5.875v-1.33h16.124v1.33h-5.874zM20.869 19.214v2.267h-2.681v-2.267h2.681zM14.273 22.914v-3.863h1.498v3.863h-1.498zM17.728 22.914h-1.498v-3.863h1.498v3.863zM13.813 21.481h-2.606v-2.267h2.606v2.267zM7.938 19.214v0h2.963v2.267h-2.963v-2.267zM7.938 13.256v0h16.124v1.358h-16.124v-1.358zM7.938 10.794v0h3.059v2.156h-3.059v-2.156zM11.304 12.95v-2.156h2.918v2.156h-2.918zM14.527 12.95v-2.156h3.218v2.156h-3.218zM18.052 12.95v-2.156h2.912v2.156h-2.912zM21.167 14.921h2.895v2.35h-2.887v-2.309c0-0.014-0.004-0.028-0.008-0.041zM24.062 12.95h-2.791v-2.156h2.791v2.156zM17.949 14.921h2.928c-0.004 0.013-0.008 0.026-0.008 0.041v2.309h-2.912v-2.309c0-0.014-0.004-0.027-0.008-0.041zM14.424 14.921h3.234c-0.004 0.013-0.008 0.026-0.008 0.041v2.309h-3.218v-2.309c0-0.014-0.004-0.027-0.008-0.041zM11.199 14.921h2.934c-0.003 0.013-0.008 0.026-0.008 0.041v2.309h-2.918v-2.309c0-0.014-0.004-0.027-0.008-0.041zM7.938 14.921h2.971c-0.004 0.013-0.008 0.026-0.008 0.041v2.309h-2.963v-2.35zM21.175 19.214h2.887v2.267h-2.887v-2.267zM7.938 9.134h16.124v1.353l-16.124-0 0-1.353zM7.938 21.787v0h5.875v1.079l-5.875-0v-1.079zM24.062 22.866h-5.875v-1.079h5.875l-0 1.079zM16.699 21.384c0.085 0 0.153-0.069 0.153-0.153v-0.248c0-0.085-0.069-0.153-0.153-0.153s-0.153 0.069-0.153 0.153v0.248c0 0.085 0.069 0.153 0.153 0.153zM15.269 20.829c-0.085 0-0.153 0.069-0.153 0.153v0.248c0 0.085 0.069 0.153 0.153 0.153 0.084 0 0.153-0.069 0.153-0.153v-0.248c0-0.085-0.069-0.153-0.153-0.153z" fill="#000000" />
</svg>
