<?xml version="1.0" encoding="utf-8"?>
<!-- Generated by IcoMoon.io -->
<!DOCTYPE svg PUBLIC "-//W3C//DTD SVG 1.1//EN" "http://www.w3.org/Graphics/SVG/1.1/DTD/svg11.dtd">
<svg version="1.1" xmlns="http://www.w3.org/2000/svg" xmlns:xlink="http://www.w3.org/1999/xlink" width="32" height="32" viewBox="0 0 32 32">
<g>
</g>
	<path d="M17.258 19.969c-0.127 0-0.23 0.103-0.23 0.23v3.908c0 0.127 0.103 0.23 0.23 0.23s0.23-0.103 0.23-0.23l-0-3.908c0-0.127-0.103-0.23-0.23-0.23zM15.949 10.877h-1.073c-0.127 0-0.23 0.103-0.23 0.23v3.908c0 0.127 0.103 0.23 0.23 0.23s0.23-0.103 0.23-0.23v-3.678h0.843c0.127 0 0.23-0.103 0.23-0.23s-0.103-0.23-0.23-0.23zM22.65 7.75c-0.057-0.083-0.151-0.131-0.251-0.131l-2.994-0c-0.028-0.565-0.18-0.978-0.349-1.269 0.081-0.142 0.107-0.323 0.071-0.518-0.044-0.235-0.174-0.476-0.365-0.678-0.406-0.427-1.011-0.548-1.317-0.258-0.16 0.151-0.223 0.389-0.174 0.651 0.044 0.235 0.173 0.476 0.364 0.677 0.253 0.266 0.579 0.426 0.871 0.426 0.092 0 0.177-0.016 0.254-0.046 0.125 0.238 0.235 0.57 0.26 1.015h-9.42c-0.1 0-0.194 0.048-0.252 0.131-0.057 0.082-0.070 0.187-0.036 0.281l1.036 2.818c0.044 0.121 0.159 0.201 0.288 0.201h2.944v12.775h-1.093c-0.155 0-0.286 0.116-0.304 0.27l-0.337 2.824c-0.011 0.086 0.017 0.174 0.075 0.239 0.058 0.066 0.142 0.103 0.229 0.103h7.694c0.087 0 0.171-0.038 0.229-0.103 0.058-0.066 0.086-0.153 0.075-0.239l-0.337-2.824c-0.019-0.154-0.149-0.27-0.304-0.27h-1.093l0-12.774h2.945c0.128 0 0.243-0.080 0.287-0.201l1.036-2.818c0.035-0.094 0.021-0.199-0.036-0.282zM18.556 5.772c-0.088-0.056-0.206-0.032-0.263 0.057-0.058 0.088-0.033 0.206 0.054 0.265 0.010 0.006 0.086 0.058 0.183 0.17-0.178 0.007-0.429-0.106-0.615-0.302-0.139-0.146-0.236-0.323-0.266-0.484-0.015-0.078-0.026-0.22 0.061-0.302 0.043-0.041 0.104-0.061 0.182-0.061 0.186 0 0.414 0.118 0.594 0.306 0.139 0.146 0.236 0.323 0.266 0.484 0.002 0.012 0.004 0.028 0.005 0.043-0.109-0.112-0.191-0.168-0.202-0.175zM19.238 24.438l0.263 2.211h-7.004l0.264-2.211h0.821v0.989c0 0.169 0.137 0.306 0.306 0.306h4.222c0.17 0 0.306-0.138 0.306-0.306v-0.989h0.821zM14.195 25.119v-14.682h3.61v14.682h-3.61zM21.15 10.437l-2.732-0v-0.306c0-0.169-0.137-0.306-0.306-0.306l-4.223-0c-0.169 0-0.306 0.137-0.306 0.306v0.306h-2.731l-0.811-2.205h11.919l-0.81 2.205z" fill="#000000" />
</svg>
