<?xml version="1.0" encoding="utf-8"?>
<!-- Generated by IcoMoon.io -->
<!DOCTYPE svg PUBLIC "-//W3C//DTD SVG 1.1//EN" "http://www.w3.org/Graphics/SVG/1.1/DTD/svg11.dtd">
<svg version="1.1" xmlns="http://www.w3.org/2000/svg" xmlns:xlink="http://www.w3.org/1999/xlink" width="32" height="32" viewBox="0 0 32 32">
<g>
</g>
	<path d="M27.088 8.708h-22.175c-0.149 0-0.271 0.121-0.271 0.27v14.044c0 0.149 0.121 0.27 0.271 0.27h2.19c0.022 0 0.042-0.002 0.063-0.007l4.92-1.191c0.145-0.036 0.234-0.182 0.199-0.326-0.035-0.146-0.181-0.234-0.326-0.199l-4.889 1.184h-1.887l-0-13.504h21.635v13.504h-14.363c-0.15 0-0.27 0.12-0.27 0.27 0 0.149 0.121 0.27 0.27 0.27h14.633c0.15 0 0.271-0.121 0.271-0.27l-0-14.044c-0-0.149-0.121-0.27-0.271-0.27zM11.292 14.676h0.828c0.174 0 0.316-0.142 0.316-0.315v-2.276c0-0.174-0.142-0.316-0.316-0.316h-4.755c-0.174 0-0.316 0.142-0.316 0.316v2.276c0 0.174 0.142 0.315 0.316 0.315h2.91c0.055 0.171 0.257 0.56 0.929 0.56h0.17l-0.096-0.14c-0.001-0.002-0.11-0.166-0.078-0.3 0.012-0.049 0.042-0.089 0.092-0.12zM11.026 14.754c-0.025 0.106-0.002 0.212 0.030 0.296-0.556-0.061-0.62-0.457-0.622-0.475l-0.010-0.078h-3.058c-0.075 0-0.136-0.061-0.136-0.136v-2.276c0-0.075 0.061-0.136 0.136-0.136h4.755c0.075 0 0.136 0.061 0.136 0.136v2.276c0 0.075-0.061 0.136-0.136 0.136h-0.875l-0.021 0.011c-0.107 0.059-0.174 0.141-0.199 0.246zM17.619 14.676h0.828c0.174 0 0.315-0.142 0.315-0.315v-2.276c0-0.174-0.142-0.316-0.315-0.316h-4.756c-0.174 0-0.315 0.142-0.315 0.316v2.276c0 0.174 0.142 0.315 0.315 0.315h2.91c0.056 0.171 0.257 0.56 0.929 0.56h0.17l-0.096-0.14c-0.001-0.002-0.11-0.166-0.077-0.3 0.011-0.049 0.042-0.089 0.092-0.12zM17.353 14.754c-0.025 0.106-0.002 0.212 0.030 0.296-0.556-0.061-0.619-0.457-0.622-0.475l-0.010-0.078-3.058-0c-0.075 0-0.136-0.061-0.136-0.136v-2.276c0-0.075 0.061-0.136 0.136-0.136h4.756c0.075 0 0.136 0.061 0.136 0.136v2.276c0 0.075-0.061 0.136-0.136 0.136h-0.876l-0.020 0.011c-0.106 0.059-0.174 0.141-0.199 0.246zM23.852 14.676h0.828c0.174 0 0.315-0.142 0.315-0.315v-2.276c0-0.174-0.142-0.316-0.315-0.316h-4.756c-0.174 0-0.315 0.142-0.315 0.316v2.276c0 0.174 0.142 0.315 0.315 0.315h2.91c0.056 0.171 0.257 0.56 0.929 0.56h0.17l-0.096-0.14c-0.001-0.002-0.11-0.166-0.077-0.3 0.011-0.049 0.042-0.089 0.092-0.12zM23.585 14.754c-0.025 0.106-0.002 0.212 0.030 0.296-0.556-0.061-0.619-0.457-0.622-0.475l-0.010-0.078h-3.058c-0.075 0-0.136-0.061-0.136-0.136v-2.276c0-0.075 0.061-0.136 0.136-0.136l4.756-0c0.075 0 0.136 0.061 0.136 0.136v2.276c0 0.075-0.061 0.136-0.136 0.136h-0.875l-0.020 0.011c-0.107 0.059-0.174 0.141-0.2 0.246zM11.292 19.314h0.828c0.174 0 0.316-0.142 0.316-0.315v-2.276c0-0.174-0.142-0.316-0.316-0.316h-4.755c-0.174 0-0.316 0.142-0.316 0.316v2.276c0 0.174 0.142 0.315 0.316 0.315h2.91c0.055 0.171 0.257 0.56 0.929 0.56h0.17l-0.096-0.14c-0.001-0.002-0.11-0.166-0.078-0.3 0.012-0.049 0.042-0.089 0.092-0.12zM11.026 19.392c-0.025 0.106-0.002 0.212 0.030 0.296-0.556-0.061-0.62-0.457-0.622-0.475l-0.010-0.078h-3.058c-0.075 0-0.136-0.061-0.136-0.136v-2.276c0-0.075 0.061-0.136 0.136-0.136h4.755c0.075 0 0.136 0.061 0.136 0.136v2.276c0 0.075-0.061 0.136-0.136 0.136h-0.875l-0.021 0.011c-0.107 0.058-0.174 0.141-0.2 0.246zM13.377 18.998c0 0.174 0.142 0.315 0.315 0.315h2.91c0.056 0.171 0.257 0.56 0.929 0.56h0.17l-0.096-0.14c-0.001-0.002-0.11-0.166-0.077-0.3 0.012-0.049 0.042-0.088 0.092-0.12h0.828c0.174 0 0.315-0.142 0.315-0.315v-2.276c0-0.174-0.142-0.316-0.315-0.316l-4.756-0c-0.174 0-0.315 0.142-0.315 0.316v2.276zM13.556 16.723c0-0.075 0.061-0.136 0.136-0.136h4.756c0.075 0 0.136 0.061 0.136 0.136v2.276c0 0.075-0.061 0.136-0.136 0.136h-0.876l-0.020 0.011c-0.107 0.058-0.174 0.141-0.199 0.246-0.025 0.106-0.002 0.212 0.030 0.296-0.556-0.061-0.619-0.457-0.622-0.475l-0.010-0.078h-3.058c-0.075 0-0.136-0.061-0.136-0.136v-2.276zM19.609 18.998c0 0.174 0.142 0.315 0.315 0.315h2.91c0.056 0.171 0.257 0.56 0.929 0.56h0.17l-0.096-0.14c-0.001-0.002-0.11-0.166-0.077-0.3 0.012-0.049 0.042-0.088 0.092-0.12h0.828c0.174 0 0.315-0.142 0.315-0.315v-2.276c0-0.174-0.142-0.316-0.315-0.316l-4.756-0c-0.174 0-0.315 0.142-0.315 0.316v2.276zM19.789 16.723c0-0.075 0.061-0.136 0.136-0.136h4.756c0.075 0 0.136 0.061 0.136 0.136v2.276c0 0.075-0.061 0.136-0.136 0.136h-0.875l-0.020 0.011c-0.107 0.058-0.174 0.141-0.199 0.246-0.025 0.106-0.002 0.212 0.030 0.296-0.556-0.061-0.619-0.457-0.622-0.475l-0.010-0.078h-3.058c-0.075 0-0.136-0.061-0.136-0.136l0-2.276z" fill="#000000" />
</svg>
