<?xml version="1.0" encoding="utf-8"?>
<!-- Generated by IcoMoon.io -->
<!DOCTYPE svg PUBLIC "-//W3C//DTD SVG 1.1//EN" "http://www.w3.org/Graphics/SVG/1.1/DTD/svg11.dtd">
<svg version="1.1" xmlns="http://www.w3.org/2000/svg" xmlns:xlink="http://www.w3.org/1999/xlink" width="32" height="32" viewBox="0 0 32 32">
<g>
</g>
	<path d="M8.359 19.852h15.105c0.422 0 0.764-0.367 0.764-0.818v-8.757c0-0.451-0.343-0.818-0.764-0.818l-7.077 0c0.003-0.021 0.006-0.041 0.006-0.063 0-0.267-0.216-0.482-0.482-0.482s-0.482 0.216-0.482 0.482c0 0.022 0.004 0.042 0.006 0.063h-7.076c-0.422 0-0.765 0.367-0.765 0.818v8.757c-0 0.451 0.343 0.818 0.765 0.818zM23.464 19.392h-6.366c0.177-0.115 0.342-0.249 0.492-0.402l5.702-4.899c0.009-0.007 0.019-0.013 0.028-0.020 0.178-0.137 0.326-0.287 0.449-0.445v5.408c0 0.197-0.136 0.358-0.305 0.358zM19.050 15.026c0.717 0.109 1.776 0.048 2.745-0.23l-3.348 2.876c0.38-0.867 0.557-1.845 0.603-2.646zM8.054 10.276c0-0.198 0.137-0.359 0.305-0.359h15.105c0.168 0 0.305 0.161 0.305 0.359v2.211c-0.001 0.010-0.004 0.018-0.004 0.028 0 0.41-0.214 0.759-0.563 1.079-0.009 0.006-0.019 0.008-0.028 0.016l-0.16 0.138c-1.117 0.835-3.178 1.034-4.121 0.801-0.066-0.016-0.134-0.002-0.189 0.038-0.054 0.040-0.086 0.103-0.088 0.169-0.001 0.022-0.004 0.107-0.012 0.23h-2.034c-0.101 0-0.184 0.082-0.184 0.184s0.083 0.184 0.184 0.184h2c-0.028 0.249-0.072 0.555-0.145 0.891h-1.855c-0.101 0-0.184 0.082-0.184 0.184 0 0.102 0.083 0.184 0.184 0.184h1.767c-0.078 0.293-0.178 0.596-0.305 0.89h-1.462c-0.101 0-0.184 0.083-0.184 0.184s0.083 0.184 0.184 0.184h1.285c-0.157 0.292-0.344 0.567-0.571 0.801l-0.147 0.126c-0.016 0.014-0.026 0.031-0.037 0.048-0.359 0.309-0.803 0.498-1.352 0.546l-7.388-0.001c-0.168 0-0.305-0.161-0.305-0.359l-0-8.758zM7.546 21.974h16.759c0.085 0 0.153-0.069 0.153-0.153 0-0.085-0.068-0.153-0.153-0.153h-16.759c-0.085 0-0.153 0.068-0.153 0.153 0 0.085 0.068 0.153 0.153 0.153zM5.946 23.889c0 0.084 0.069 0.153 0.153 0.153h19.267c0.085 0 0.153-0.069 0.153-0.153 0-0.085-0.068-0.153-0.153-0.153h-19.267c-0.085 0-0.153 0.068-0.153 0.153zM27.907 24.546l-2.387-2.978c-0.031-0.328-0.19-0.617-0.426-0.822 0.262-0.227 0.431-0.559 0.431-0.932v-10.436c0-0.684-0.557-1.241-1.241-1.241l-16.75-0c-0.684 0-1.241 0.557-1.241 1.241v10.437c0 0.373 0.169 0.705 0.431 0.932-0.234 0.203-0.394 0.49-0.425 0.815l-2.576 2.976c-0.048 0.056-0.075 0.127-0.075 0.2 0 0.823 0.314 1.241 0.934 1.241h22.458c0.619 0 0.934-0.418 0.934-1.241 0-0.069-0.023-0.137-0.067-0.191zM6.906 9.377c0-0.346 0.282-0.628 0.628-0.628h16.75c0.347 0 0.628 0.282 0.628 0.628v10.437c0 0.346-0.281 0.627-0.628 0.627l-16.75-0c-0.346 0-0.628-0.281-0.628-0.627l-0-10.436zM27.040 25.365h-22.458c-0.134 0-0.299 0-0.319-0.516l2.568-2.967c0.048-0.056 0.075-0.127 0.075-0.2 0-0.347 0.282-0.628 0.628-0.628h16.75c0.347 0 0.628 0.281 0.628 0.628 0 0.070 0.024 0.137 0.068 0.192l2.38 2.97c-0.020 0.522-0.185 0.522-0.319 0.522zM6.998 23.008h17.776c0.085 0 0.153-0.069 0.153-0.153 0-0.085-0.068-0.153-0.153-0.153l-17.776 0c-0.085 0-0.153 0.068-0.153 0.153-0 0.085 0.068 0.153 0.153 0.153zM10.192 11.578h4.995c0.102 0 0.184-0.082 0.184-0.184 0-0.102-0.082-0.184-0.184-0.184l-4.995 0c-0.102 0-0.184 0.082-0.184 0.184 0 0.102 0.082 0.184 0.184 0.184zM10.192 12.837h4.995c0.102 0 0.184-0.083 0.184-0.184s-0.082-0.184-0.184-0.184h-4.995c-0.102 0-0.184 0.083-0.184 0.184s0.082 0.184 0.184 0.184zM10.192 14.095h4.995c0.102 0 0.184-0.082 0.184-0.184 0-0.102-0.082-0.184-0.184-0.184h-4.995c-0.102 0-0.184 0.082-0.184 0.184 0 0.102 0.082 0.184 0.184 0.184zM10.192 15.353h4.995c0.102 0 0.184-0.082 0.184-0.184s-0.082-0.184-0.184-0.184l-4.995 0c-0.102 0-0.184 0.082-0.184 0.184s0.082 0.184 0.184 0.184zM10.192 16.612h4.995c0.102 0 0.184-0.082 0.184-0.184 0-0.102-0.082-0.184-0.184-0.184l-4.995 0c-0.102 0-0.184 0.082-0.184 0.184 0 0.102 0.082 0.184 0.184 0.184zM10.192 17.871h4.995c0.102 0 0.184-0.083 0.184-0.184s-0.082-0.184-0.184-0.184h-4.995c-0.102 0-0.184 0.083-0.184 0.184s0.082 0.184 0.184 0.184zM16.57 11.578h4.995c0.101 0 0.184-0.082 0.184-0.184 0-0.102-0.083-0.184-0.184-0.184l-4.995 0c-0.101 0-0.184 0.082-0.184 0.184 0 0.102 0.083 0.184 0.184 0.184zM16.57 12.837h4.995c0.101 0 0.184-0.083 0.184-0.184s-0.083-0.184-0.184-0.184h-4.995c-0.101 0-0.184 0.083-0.184 0.184s0.083 0.184 0.184 0.184zM16.57 14.095h4.995c0.101 0 0.184-0.082 0.184-0.184 0-0.102-0.083-0.184-0.184-0.184h-4.995c-0.101 0-0.184 0.082-0.184 0.184s0.083 0.184 0.184 0.184z" fill="#000000" />
</svg>
