<?xml version="1.0" encoding="utf-8"?>
<!-- Generated by IcoMoon.io -->
<!DOCTYPE svg PUBLIC "-//W3C//DTD SVG 1.1//EN" "http://www.w3.org/Graphics/SVG/1.1/DTD/svg11.dtd">
<svg version="1.1" xmlns="http://www.w3.org/2000/svg" xmlns:xlink="http://www.w3.org/1999/xlink" width="32" height="32" viewBox="0 0 32 32">
<g>
</g>
	<path d="M25.418 16.53h-1.228v-4.385c0-0.169-0.137-0.306-0.306-0.306l-5.339-0v-7.183c0-0.127-0.103-0.23-0.23-0.23h-1.347c-0.126 0-0.23 0.103-0.23 0.23v7.183h-0.899v-7.183c0-0.127-0.103-0.23-0.23-0.23h-1.347c-0.127 0-0.23 0.103-0.23 0.23v7.183h-1.286c-0.169 0-0.306 0.137-0.306 0.306l0 4.385h-2.373l-0-9.755c0-0.127-0.103-0.23-0.23-0.23h-1.737c-0.127 0-0.23 0.103-0.23 0.23l0 9.755h-1.288c-0.17 0-0.306 0.137-0.306 0.306v10.431c0 0.17 0.137 0.306 0.306 0.306h18.837c0.169 0 0.306-0.137 0.306-0.306l-0-10.43c0-0.17-0.138-0.307-0.306-0.307zM25.112 25.399h-3.401v-2.324h3.402v2.324zM25.111 22.768h-18.223v-1.328h18.224v1.328h-0.001zM21.404 23.075v2.324h-3.167v-2.324h3.167zM17.93 23.075v2.324h-3.5v-2.324h3.5zM14.124 23.075v2.324h-3.193v-2.324h3.193zM6.888 18.809h3.737v2.324h-3.737v-2.324zM6.888 24.952v-1.878h3.737v2.324h-3.737v-0.447zM10.931 21.134v-2.324h3.193v2.324h-3.193zM14.431 21.134v-2.324h3.499v2.324h-3.499zM18.237 21.134v-2.324h3.167v2.324h-3.167zM25.112 21.082v0.051l-3.401 0v-2.324h3.402v2.273zM13.053 15.949h10.524v0.582l-10.524-0 0-0.581zM13.053 15.565v-2.222l3.14-0v2.299l-3.14 0v-0.077zM16.5 15.642v-2.299h3.5v2.299h-3.5zM23.577 13.42v2.222l-3.271 0v-2.299l3.271-0v0.077zM17.198 4.886h0.887v6.954h-0.887v-6.954zM14.492 4.886h0.887v6.954h-0.887v-6.954zM13.053 12.452h10.524v0.585h-10.524v-0.585zM8.33 7.005h1.278l-0 9.525h-1.278l0-9.525zM6.888 18.069v-0.926h18.224v1.36h-18.224v-0.434zM6.436 21.44v-0.306h0l-0 0.306zM25.112 26.961h-18.223v-1.255h18.224v1.255z" fill="#000000" />
</svg>
