<?xml version="1.0" encoding="utf-8"?>
<!-- Generated by IcoMoon.io -->
<!DOCTYPE svg PUBLIC "-//W3C//DTD SVG 1.1//EN" "http://www.w3.org/Graphics/SVG/1.1/DTD/svg11.dtd">
<svg version="1.1" xmlns="http://www.w3.org/2000/svg" xmlns:xlink="http://www.w3.org/1999/xlink" width="32" height="32" viewBox="0 0 32 32">
<g>
</g>
	<path d="M7.303 6.483c-0.142 0.061-0.21 0.215-0.171 0.36-0.007 0.026-0.016 0.051-0.016 0.079v10.152c0 0.007 0.003 0.013 0.004 0.020-0.001 0.007-0.004 0.013-0.004 0.020v10.153c0 0.169 0.137 0.306 0.306 0.306h17.633c0.17 0 0.307-0.137 0.307-0.306v-10.153c0-0.007-0.004-0.013-0.005-0.020 0.001-0.007 0.005-0.013 0.005-0.020v-10.151c0-0.029-0.009-0.054-0.017-0.080 0.037-0.138-0.022-0.287-0.156-0.353l-2.818-1.379c-0.042-0.020-0.088-0.031-0.134-0.031l-11.571 0.001c-0.041 0-0.082 0.008-0.12 0.024l-3.244 1.379zM24.75 26.96h-17.021l-0-4.463h17.021l0 4.463zM24.75 21.884h-17.021l-0-4.463h17.021l0 4.463zM24.75 16.767h-17.021l-0-4.462h17.021l0 4.462zM24.75 9.116v2.576h-17.021l-0-4.463h17.021l0 1.887zM10.729 5.692h11.438l1.888 0.924h-15.499l2.173-0.924zM8.857 9.386c-0 0.002-0 0.003-0 0.005 0 0.233 0.189 0.422 0.422 0.422 0.233 0 0.422-0.189 0.422-0.422 0-0.002 0-0.004-0-0.005 0-0.001 0-0.003 0-0.005 0-0.233-0.189-0.422-0.422-0.422-0.233 0-0.422 0.189-0.422 0.422 0 0.002 0 0.004 0 0.005zM10.353 9.386c-0 0.004-0 0.008-0 0.013 0 0.233 0.189 0.422 0.422 0.422 0.233 0 0.422-0.189 0.422-0.422 0-0.004-0-0.009-0-0.013 0-0.003 0-0.008 0-0.012 0-0.233-0.189-0.422-0.422-0.422-0.233 0-0.422 0.189-0.422 0.422 0 0.004 0 0.009 0 0.013zM8.857 14.597c-0 0.002-0 0.003-0 0.005 0 0.233 0.189 0.422 0.422 0.422 0.233 0 0.422-0.189 0.422-0.422 0-0.002 0-0.004-0-0.005 0-0.001 0-0.003 0-0.005 0-0.233-0.189-0.422-0.422-0.422-0.233 0-0.422 0.189-0.422 0.422 0 0.002 0 0.004 0 0.005zM10.353 14.597c-0 0.004-0 0.008-0 0.013 0 0.233 0.189 0.422 0.422 0.422 0.233 0 0.422-0.189 0.422-0.422 0-0.004-0-0.009-0-0.013 0-0.003 0-0.008 0-0.012 0-0.233-0.189-0.422-0.422-0.422-0.233 0-0.422 0.189-0.422 0.422 0 0.004 0 0.009 0 0.013zM8.858 19.501c-0 0.002-0 0.003-0 0.005 0 0.233 0.189 0.421 0.421 0.421 0.233 0 0.421-0.189 0.421-0.421 0-0.002 0-0.004-0-0.005 0-0.001 0-0.003 0-0.005 0-0.233-0.189-0.421-0.421-0.421-0.233 0-0.421 0.189-0.421 0.421 0 0.002 0 0.004 0 0.005zM10.353 19.501c-0 0.004-0 0.008-0 0.013 0 0.233 0.189 0.421 0.421 0.421 0.233 0 0.421-0.189 0.421-0.421 0-0.004-0-0.009-0-0.013 0-0.003 0-0.008 0-0.012 0-0.233-0.189-0.421-0.421-0.421-0.233 0-0.421 0.189-0.421 0.421 0 0.004 0 0.009 0 0.013zM8.857 24.712c-0 0.002-0 0.003-0 0.005 0 0.233 0.189 0.422 0.422 0.422 0.233 0 0.422-0.189 0.422-0.422 0-0.002 0-0.004-0-0.005 0-0.001 0-0.003 0-0.005 0-0.233-0.189-0.422-0.422-0.422-0.233 0-0.422 0.189-0.422 0.422 0 0.002 0 0.004 0 0.005zM10.353 24.712c-0 0.004-0 0.008-0 0.013 0 0.233 0.189 0.422 0.422 0.422 0.233 0 0.422-0.189 0.422-0.422 0-0.004-0-0.009-0-0.013 0-0.003 0-0.008 0-0.012 0-0.233-0.189-0.422-0.422-0.422-0.233 0-0.422 0.189-0.422 0.422 0 0.004 0 0.009 0 0.013zM22.83 10.809h0.919c0.085 0 0.154-0.069 0.154-0.153v-2.452c0-0.085-0.069-0.153-0.154-0.153h-0.919c-0.085 0-0.154 0.069-0.154 0.153v2.452c0 0.085 0.069 0.153 0.154 0.153zM22.983 8.357h0.613v2.146h-0.613v-2.146zM20.99 10.809h0.92c0.085 0 0.153-0.069 0.153-0.153v-2.452c0-0.085-0.069-0.153-0.153-0.153h-0.92c-0.085 0-0.153 0.069-0.153 0.153v2.452c0 0.085 0.069 0.153 0.153 0.153zM21.144 8.357h0.613v2.146h-0.613v-2.146zM22.83 16.019h0.919c0.085 0 0.154-0.069 0.154-0.153v-2.452c0-0.085-0.069-0.153-0.154-0.153h-0.919c-0.085 0-0.154 0.069-0.154 0.153v2.452c0 0.085 0.069 0.153 0.154 0.153zM22.983 13.567h0.613v2.146h-0.613v-2.146zM20.99 16.019h0.92c0.085 0 0.153-0.069 0.153-0.153v-2.452c0-0.085-0.069-0.153-0.153-0.153h-0.92c-0.085 0-0.153 0.069-0.153 0.153v2.452c0 0.085 0.069 0.153 0.153 0.153zM21.144 13.567h0.613v2.146h-0.613v-2.146zM22.83 20.923h0.919c0.085 0 0.154-0.126 0.154-0.211v-2.452c0-0.084-0.069-0.095-0.154-0.095h-0.919c-0.085 0-0.154 0.011-0.154 0.095v2.452c0 0.085 0.069 0.211 0.154 0.211zM22.983 18.471h0.613v2.146h-0.613v-2.146zM20.99 20.923h0.92c0.085 0 0.153-0.126 0.153-0.211v-2.452c0-0.084-0.069-0.095-0.153-0.095h-0.92c-0.085 0-0.153 0.011-0.153 0.095v2.452c0 0.085 0.069 0.211 0.153 0.211zM21.144 18.471h0.613v2.146h-0.613v-2.146zM22.83 26.134h0.919c0.085 0 0.154-0.126 0.154-0.211v-2.452c0-0.084-0.069-0.095-0.154-0.095h-0.919c-0.085 0-0.154 0.011-0.154 0.095v2.452c0 0.085 0.069 0.211 0.154 0.211zM22.983 23.682h0.613v2.146h-0.613v-2.146zM20.99 26.134h0.92c0.085 0 0.153-0.126 0.153-0.211v-2.452c0-0.084-0.069-0.095-0.153-0.095h-0.92c-0.085 0-0.153 0.011-0.153 0.095v2.452c0 0.085 0.069 0.211 0.153 0.211zM21.144 23.682h0.613v2.146h-0.613v-2.146zM6.079 5.832c-0.134 0.195-0.225 0.421-0.266 0.653-0.022 0.125 0.062 0.244 0.187 0.266 0.013 0.002 0.026 0.003 0.040 0.003 0.11 0 0.206-0.079 0.226-0.191 0.030-0.168 0.096-0.331 0.192-0.472 0.072-0.105 0.045-0.248-0.059-0.32-0.105-0.071-0.248-0.045-0.32 0.060zM22.742 28.446h-0.612c-0.127 0-0.23 0.103-0.23 0.23s0.103 0.23 0.23 0.23h0.612c0.127 0 0.23-0.103 0.23-0.23s-0.103-0.23-0.23-0.23zM21.211 28.446h-0.612c-0.127 0-0.23 0.103-0.23 0.23s0.103 0.23 0.23 0.23h0.612c0.127 0 0.23-0.103 0.23-0.23s-0.103-0.23-0.23-0.23zM18.15 28.446h-0.612c-0.127 0-0.23 0.103-0.23 0.23s0.103 0.23 0.23 0.23h0.612c0.127 0 0.23-0.103 0.23-0.23s-0.103-0.23-0.23-0.23zM19.681 28.446h-0.612c-0.127 0-0.23 0.103-0.23 0.23s0.103 0.23 0.23 0.23h0.612c0.127 0 0.23-0.103 0.23-0.23s-0.103-0.23-0.23-0.23zM25.652 28.284c-0.149 0.087-0.312 0.139-0.483 0.156-0.126 0.012-0.219 0.124-0.207 0.251 0.011 0.119 0.111 0.208 0.228 0.208 0.007 0 0.015 0 0.022-0.001 0.239-0.023 0.465-0.096 0.672-0.217 0.11-0.065 0.146-0.205 0.082-0.315-0.064-0.109-0.205-0.146-0.315-0.082zM24.272 28.446h-0.613c-0.127 0-0.23 0.103-0.23 0.23s0.103 0.23 0.23 0.23h0.612c0.127 0 0.23-0.103 0.23-0.23s-0.102-0.23-0.229-0.23zM16.62 28.446h-0.612c-0.127 0-0.23 0.103-0.23 0.23s0.103 0.23 0.23 0.23h0.612c0.127 0 0.23-0.103 0.23-0.23s-0.103-0.23-0.23-0.23zM12.028 28.446h-0.612c-0.127 0-0.23 0.103-0.23 0.23s0.103 0.23 0.23 0.23h0.612c0.127 0 0.23-0.103 0.23-0.23s-0.103-0.23-0.23-0.23zM10.498 28.446h-0.612c-0.127 0-0.23 0.103-0.23 0.23s0.103 0.23 0.23 0.23h0.612c0.127 0 0.23-0.103 0.23-0.23s-0.103-0.23-0.23-0.23zM8.967 28.446h-0.612c-0.127 0-0.23 0.103-0.23 0.23s0.103 0.23 0.23 0.23h0.612c0.127 0 0.23-0.103 0.23-0.23s-0.103-0.23-0.23-0.23zM13.559 28.446h-0.612c-0.127 0-0.23 0.103-0.23 0.23s0.103 0.23 0.23 0.23h0.612c0.127 0 0.23-0.103 0.23-0.23s-0.103-0.23-0.23-0.23zM15.089 28.446h-0.612c-0.127 0-0.23 0.103-0.23 0.23s0.103 0.23 0.23 0.23h0.612c0.127 0 0.23-0.103 0.23-0.23s-0.103-0.23-0.23-0.23zM26.466 26.974c-0.127 0-0.23 0.103-0.23 0.23v0.062c0 0.155-0.030 0.306-0.088 0.448-0.048 0.118 0.008 0.252 0.125 0.3 0.029 0.012 0.058 0.018 0.087 0.018 0.090 0 0.176-0.053 0.212-0.142 0.082-0.198 0.123-0.408 0.123-0.623v-0.062c0.001-0.127-0.102-0.23-0.229-0.23zM26.466 25.444c-0.127 0-0.23 0.103-0.23 0.23v0.612c0 0.127 0.103 0.23 0.23 0.23s0.23-0.103 0.23-0.23v-0.612c0-0.127-0.103-0.23-0.23-0.23zM26.466 10.139c-0.127 0-0.23 0.103-0.23 0.23v0.612c0 0.127 0.103 0.23 0.23 0.23s0.23-0.103 0.23-0.23v-0.612c0-0.127-0.103-0.23-0.23-0.23zM26.466 11.669c-0.127 0-0.23 0.103-0.23 0.23v0.612c0 0.127 0.103 0.23 0.23 0.23s0.23-0.103 0.23-0.23v-0.612c0-0.127-0.103-0.23-0.23-0.23zM26.466 13.2c-0.127 0-0.23 0.103-0.23 0.23v0.612c0 0.127 0.103 0.23 0.23 0.23s0.23-0.103 0.23-0.23v-0.612c0-0.127-0.103-0.23-0.23-0.23zM7.423 28.446c-0.173 0-0.34-0.037-0.496-0.109-0.115-0.054-0.252-0.004-0.306 0.111-0.053 0.115-0.004 0.251 0.112 0.305 0.217 0.101 0.449 0.152 0.69 0.152h0.014c0.127 0 0.223-0.103 0.223-0.23s-0.11-0.23-0.237-0.23zM26.466 14.73c-0.127 0-0.23 0.103-0.23 0.23v0.612c0 0.127 0.103 0.23 0.23 0.23s0.23-0.103 0.23-0.23v-0.612c0-0.127-0.103-0.23-0.23-0.23zM26.466 8.608c-0.127 0-0.23 0.103-0.23 0.23v0.612c0 0.127 0.103 0.23 0.23 0.23s0.23-0.103 0.23-0.23v-0.612c0-0.127-0.103-0.23-0.23-0.23zM26.466 7.078c-0.127 0-0.23 0.103-0.23 0.23v0.612c0 0.127 0.103 0.23 0.23 0.23s0.23-0.103 0.23-0.23v-0.612c0-0.127-0.103-0.23-0.23-0.23zM26.466 20.852c-0.127 0-0.23 0.103-0.23 0.23v0.612c0 0.127 0.103 0.23 0.23 0.23s0.23-0.103 0.23-0.23v-0.612c0-0.127-0.103-0.23-0.23-0.23zM26.466 22.382c-0.127 0-0.23 0.103-0.23 0.23v0.612c0 0.127 0.103 0.23 0.23 0.23s0.23-0.103 0.23-0.23v-0.612c0-0.127-0.103-0.23-0.23-0.23zM26.466 16.261c-0.127 0-0.23 0.103-0.23 0.23v0.612c0 0.127 0.103 0.23 0.23 0.23s0.23-0.103 0.23-0.23v-0.612c0-0.127-0.103-0.23-0.23-0.23zM26.466 23.913c-0.127 0-0.23 0.103-0.23 0.23v0.612c0 0.127 0.103 0.23 0.23 0.23s0.23-0.103 0.23-0.23v-0.612c0-0.127-0.103-0.23-0.23-0.23zM26.466 19.321c-0.127 0-0.23 0.103-0.23 0.23v0.612c0 0.127 0.103 0.23 0.23 0.23s0.23-0.103 0.23-0.23v-0.612c0-0.127-0.103-0.23-0.23-0.23zM26.466 17.791c-0.127 0-0.23 0.103-0.23 0.23v0.612c0 0.127 0.103 0.23 0.23 0.23s0.23-0.103 0.23-0.23v-0.612c0-0.127-0.103-0.23-0.23-0.23zM14.355 4.206h0.612c0.127 0 0.23-0.103 0.23-0.23s-0.103-0.23-0.23-0.23h-0.612c-0.127 0-0.23 0.103-0.23 0.23s0.103 0.23 0.23 0.23zM11.294 4.206h0.612c0.127 0 0.23-0.103 0.23-0.23s-0.103-0.23-0.23-0.23h-0.612c-0.127 0-0.23 0.103-0.23 0.23s0.103 0.23 0.23 0.23zM15.886 4.206h0.612c0.127 0 0.23-0.103 0.23-0.23s-0.103-0.23-0.23-0.23h-0.612c-0.127 0-0.23 0.103-0.23 0.23s0.103 0.23 0.23 0.23zM26.19 6.454c0.028 0.102 0.12 0.17 0.222 0.17 0.020 0 0.040-0.002 0.060-0.008 0.122-0.033 0.195-0.16 0.162-0.282-0.062-0.229-0.175-0.445-0.326-0.626-0.082-0.098-0.226-0.111-0.324-0.029-0.097 0.082-0.11 0.226-0.029 0.324 0.109 0.13 0.191 0.286 0.236 0.451zM12.825 4.206h0.612c0.127 0 0.23-0.103 0.23-0.23s-0.103-0.23-0.23-0.23h-0.612c-0.127 0-0.23 0.103-0.23 0.23s0.103 0.23 0.23 0.23zM9.806 4.449c0.030 0 0.060-0.006 0.090-0.018l0.307-0.131c0.073-0.031 0.148-0.054 0.222-0.070 0.124-0.026 0.204-0.148 0.178-0.272-0.026-0.124-0.149-0.205-0.272-0.178-0.102 0.022-0.205 0.053-0.306 0.096l-0.309 0.131c-0.117 0.050-0.171 0.185-0.121 0.301 0.037 0.088 0.122 0.141 0.212 0.141zM8.397 5.048c0.030 0 0.060-0.006 0.090-0.018l0.563-0.24c0.117-0.050 0.171-0.185 0.122-0.302-0.050-0.117-0.185-0.171-0.302-0.122l-0.563 0.24c-0.117 0.050-0.171 0.185-0.122 0.302 0.037 0.088 0.122 0.14 0.212 0.14zM6.989 5.647c0.030 0 0.060-0.006 0.090-0.018l0.563-0.24c0.117-0.050 0.171-0.185 0.121-0.301-0.049-0.117-0.184-0.172-0.301-0.121l-0.563 0.24c-0.117 0.050-0.171 0.185-0.121 0.301 0.037 0.087 0.122 0.14 0.211 0.14zM17.416 4.206h0.612c0.127 0 0.23-0.103 0.23-0.23s-0.103-0.23-0.23-0.23l-0.612 0c-0.127 0-0.23 0.103-0.23 0.23s0.103 0.23 0.23 0.23zM23.348 4.616l0.55 0.269c0.033 0.016 0.067 0.023 0.101 0.023 0.085 0 0.167-0.047 0.207-0.129 0.056-0.114 0.009-0.252-0.106-0.307l-0.55-0.269c-0.115-0.055-0.252-0.008-0.308 0.106-0.056 0.114-0.008 0.251 0.106 0.307zM24.723 5.288l0.55 0.269c0.033 0.016 0.067 0.023 0.101 0.023 0.085 0 0.167-0.047 0.207-0.129 0.056-0.114 0.009-0.252-0.106-0.307l-0.55-0.269c-0.115-0.056-0.252-0.009-0.308 0.106s-0.009 0.251 0.106 0.307zM6.244 27.326c-0.006-0.127-0.111-0.224-0.242-0.218-0.127 0.006-0.224 0.114-0.218 0.241 0.012 0.24 0.075 0.469 0.188 0.681 0.041 0.078 0.121 0.122 0.203 0.122 0.037 0 0.073-0.009 0.108-0.027 0.112-0.059 0.155-0.199 0.096-0.311-0.081-0.151-0.126-0.316-0.135-0.489zM18.946 4.206h0.612c0.127 0 0.23-0.103 0.23-0.23s-0.103-0.23-0.23-0.23h-0.612c-0.127 0-0.23 0.103-0.23 0.23s0.103 0.23 0.23 0.23zM20.478 4.206h0.612c0.127 0 0.23-0.103 0.23-0.23s-0.103-0.23-0.23-0.23h-0.612c-0.127 0-0.23 0.103-0.23 0.23s0.103 0.23 0.23 0.23zM22.008 4.206h0.23c0.106 0 0.212 0.014 0.316 0.043 0.020 0.006 0.041 0.008 0.061 0.008 0.101 0 0.194-0.067 0.222-0.169 0.034-0.122-0.038-0.249-0.16-0.283-0.144-0.040-0.291-0.060-0.438-0.060h-0.23c-0.127 0-0.23 0.103-0.23 0.23s0.103 0.229 0.23 0.229zM6.013 23.589c0.127 0 0.23-0.103 0.23-0.23v-0.612c0-0.127-0.103-0.23-0.23-0.23s-0.23 0.103-0.23 0.23v0.612c0 0.127 0.103 0.23 0.23 0.23zM6.013 22.058c0.127 0 0.23-0.103 0.23-0.23v-0.612c0-0.127-0.103-0.23-0.23-0.23s-0.23 0.103-0.23 0.23v0.612c0 0.127 0.103 0.23 0.23 0.23zM6.013 20.528c0.127 0 0.23-0.103 0.23-0.23v-0.612c0-0.127-0.103-0.23-0.23-0.23s-0.23 0.103-0.23 0.23v0.612c0 0.127 0.103 0.23 0.23 0.23zM6.013 25.119c0.127 0 0.23-0.103 0.23-0.23v-0.612c0-0.127-0.103-0.23-0.23-0.23s-0.23 0.103-0.23 0.23v0.612c0 0.127 0.103 0.23 0.23 0.23zM6.013 26.65c0.127 0 0.23-0.103 0.23-0.23v-0.612c0-0.127-0.103-0.23-0.23-0.23s-0.23 0.103-0.23 0.23v0.612c0 0.127 0.103 0.23 0.23 0.23zM6.013 18.998c0.127 0 0.23-0.103 0.23-0.23v-0.612c0-0.127-0.103-0.23-0.23-0.23s-0.23 0.103-0.23 0.23v0.612c0 0.127 0.103 0.23 0.23 0.23zM6.013 15.936c0.127 0 0.23-0.103 0.23-0.23v-0.612c0-0.127-0.103-0.23-0.23-0.23s-0.23 0.103-0.23 0.23v0.612c0 0.127 0.103 0.23 0.23 0.23zM6.013 12.875c0.127 0 0.23-0.103 0.23-0.23v-0.612c0-0.127-0.103-0.23-0.23-0.23s-0.23 0.103-0.23 0.23v0.612c0 0.127 0.103 0.23 0.23 0.23zM6.013 11.345c0.127 0 0.23-0.103 0.23-0.23v-0.612c0-0.127-0.103-0.23-0.23-0.23s-0.23 0.103-0.23 0.23v0.612c0 0.127 0.103 0.23 0.23 0.23zM6.013 9.814c0.127 0 0.23-0.103 0.23-0.23v-0.612c0-0.127-0.103-0.23-0.23-0.23s-0.23 0.103-0.23 0.23v0.612c0 0.127 0.103 0.23 0.23 0.23zM6.013 14.406c0.127 0 0.23-0.103 0.23-0.23v-0.612c0-0.127-0.103-0.23-0.23-0.23s-0.23 0.103-0.23 0.23v0.612c0 0.127 0.103 0.23 0.23 0.23zM6.013 8.284c0.127 0 0.23-0.103 0.23-0.23v-0.612c0-0.127-0.103-0.23-0.23-0.23s-0.23 0.103-0.23 0.23v0.612c0 0.127 0.103 0.23 0.23 0.23zM6.013 17.467c0.127 0 0.23-0.103 0.23-0.23v-0.612c0-0.127-0.103-0.23-0.23-0.23s-0.23 0.103-0.23 0.23v0.612c0 0.127 0.103 0.23 0.23 0.23z" fill="#000000" />
</svg>
