<?xml version="1.0" encoding="utf-8"?>
<!-- Generated by IcoMoon.io -->
<!DOCTYPE svg PUBLIC "-//W3C//DTD SVG 1.1//EN" "http://www.w3.org/Graphics/SVG/1.1/DTD/svg11.dtd">
<svg version="1.1" xmlns="http://www.w3.org/2000/svg" xmlns:xlink="http://www.w3.org/1999/xlink" width="32" height="32" viewBox="0 0 32 32">
<g>
</g>
	<path d="M20.36 12.642c0.226 0 0.451-0.059 0.648-0.172 0.306-0.173 0.526-0.455 0.619-0.794 0.094-0.339 0.049-0.694-0.124-0.999-0.233-0.411-0.671-0.666-1.145-0.666-0.226 0-0.45 0.059-0.648 0.172-0.63 0.358-0.852 1.162-0.494 1.794 0.233 0.41 0.671 0.665 1.144 0.665zM19.937 10.583c0.129-0.073 0.275-0.112 0.421-0.112 0.308 0 0.594 0.166 0.746 0.433 0.113 0.199 0.141 0.43 0.081 0.65-0.060 0.22-0.204 0.404-0.402 0.517-0.129 0.073-0.275 0.112-0.422 0.112-0.308 0-0.594-0.166-0.745-0.433-0.233-0.411-0.089-0.934 0.322-1.167zM14.926 14.721c-0.85 0.879-1.063 2.246-0.429 3.362 0.101 0.177 0.222 0.336 0.355 0.483l-1.642 2.793c-0.056 0.095-0.056 0.213-0.001 0.309 0.016 0.027 0.162 0.269 0.498 0.466 0.344 0.202 0.619 0.206 0.652 0.206 0.109 0 0.209-0.058 0.264-0.151l1.627-2.766c0.229 0.059 0.466 0.093 0.709 0.093 0.487 0 0.969-0.128 1.394-0.369 0.635-0.36 1.095-0.94 1.307-1.637l3.276 0.030c0.101 0 0.195-0.049 0.252-0.132 0.039-0.057 0.166-0.277 0.144-0.718-0.020-0.395-0.087-0.566-0.116-0.621-0.052-0.102-0.156-0.166-0.27-0.167l-3.283-0.030c-0.061-0.199-0.142-0.394-0.247-0.58-0.502-0.883-1.445-1.432-2.461-1.432-0.2 0-0.398 0.027-0.593 0.069l-1.862-3.235c-0.041-0.071-0.11-0.123-0.19-0.144-0.062-0.016-0.322-0.063-0.736 0.172-0.406 0.23-0.505 0.475-0.525 0.545-0.024 0.080-0.014 0.167 0.028 0.239l1.851 3.216zM15.168 15.14l0.564 0.98c-0.128 0.306-0.14 0.655-0.016 0.978l-0.618 1.052c-0.073-0.093-0.141-0.189-0.2-0.293-0.507-0.894-0.365-1.98 0.27-2.717zM14.204 21.692c-0.053-0.018-0.117-0.045-0.187-0.086-0.070-0.041-0.126-0.084-0.168-0.123l2.258-3.839c0.107 0.088 0.227 0.158 0.356 0.208l-2.259 3.841zM18.126 18.746c-0.356 0.202-0.76 0.31-1.167 0.31-0.158 0-0.312-0.021-0.463-0.051l0.633-1.077c0.161-0.024 0.317-0.076 0.46-0.157 0.129-0.073 0.238-0.169 0.334-0.277l1.255 0.011c-0.192 0.526-0.56 0.962-1.051 1.241zM22.701 16.512c0.007 0.054 0.014 0.123 0.018 0.207 0.004 0.084 0 0.152-0.006 0.205l-4.49-0.040c0.028-0.137 0.038-0.276 0.022-0.412l4.456 0.040zM16.954 14.319c0.851 0 1.642 0.46 2.062 1.199 0.064 0.113 0.115 0.23 0.16 0.349l-1.173-0.010c-0.2-0.275-0.499-0.461-0.832-0.521l-0.568-0.987c0.117-0.018 0.233-0.030 0.351-0.030zM16.938 15.772c0.308 0 0.594 0.166 0.745 0.433 0.113 0.199 0.142 0.43 0.081 0.65-0.060 0.22-0.203 0.404-0.402 0.517-0.129 0.073-0.275 0.112-0.422 0.112-0.308 0-0.593-0.166-0.745-0.433-0.233-0.41-0.088-0.934 0.322-1.166 0.129-0.074 0.274-0.112 0.421-0.112zM13.876 11.254c0.078-0.045 0.142-0.071 0.189-0.086l2.431 4.224c-0.070 0.026-0.14 0.054-0.206 0.092-0.056 0.032-0.105 0.071-0.154 0.109l-2.43-4.221c0.037-0.034 0.092-0.074 0.169-0.118zM25.226 6.164l-2.818-1.379c-0.042-0.020-0.088-0.031-0.135-0.031h-11.571c-0.041 0-0.082 0.008-0.12 0.025l-3.244 1.379c-0.186 0.062-0.186 0.412-0.186 0.44l-0 3.512h-0.017c-0.293 0-0.532 0.239-0.532 0.532v0.851c0 0.293 0.239 0.532 0.532 0.532h0.017v9.301h-0.017c-0.293 0-0.532 0.239-0.532 0.532v0.851c0 0.293 0.239 0.532 0.532 0.532h0.017v3.699c0 0.17 0.137 0.306 0.306 0.306l17.633 0c0.17 0 0.306-0.137 0.306-0.306l0-20.342c0-0.028 0.004-0.34-0.172-0.433zM10.764 5.367h11.438l1.888 0.924h-15.498l2.173-0.924zM7.134 11.565c-0.040 0-0.072-0.033-0.072-0.072v-0.851c0-0.040 0.033-0.072 0.072-0.072h1.618c0.040 0 0.072 0.033 0.072 0.072v0.851c0 0.040-0.032 0.072-0.072 0.072h-1.618zM7.152 22.781h-0.017c-0.040 0-0.072-0.033-0.072-0.072v-0.851c0-0.040 0.033-0.072 0.072-0.072h1.618c0.040 0 0.072 0.033 0.072 0.072v0.851c0 0.040-0.032 0.072-0.072 0.072h-1.601zM24.785 26.634h-17.020v-3.393h0.987c0.293 0 0.532-0.239 0.532-0.532l0-0.851c0-0.293-0.239-0.532-0.532-0.532h-0.987l-0-9.301h0.987c0.293 0 0.532-0.239 0.532-0.532v-0.851c0-0.293-0.239-0.532-0.532-0.532h-0.987v-3.206h17.020v19.73z" fill="#000000" />
</svg>
