<?xml version="1.0" encoding="utf-8"?>
<!-- Generated by IcoMoon.io -->
<!DOCTYPE svg PUBLIC "-//W3C//DTD SVG 1.1//EN" "http://www.w3.org/Graphics/SVG/1.1/DTD/svg11.dtd">
<svg version="1.1" xmlns="http://www.w3.org/2000/svg" xmlns:xlink="http://www.w3.org/1999/xlink" width="32" height="32" viewBox="0 0 32 32">
<g>
</g>
	<path d="M16.514 4.395c-6.337 0-11.474 5.138-11.474 11.474 0 0.172 0.139 0.312 0.311 0.312 0.172 0 0.313-0.139 0.313-0.312 0-0.862 0.101-1.702 0.29-2.506l2.095 0.561c-0.143 0.626-0.218 1.276-0.218 1.945 0 1.578 0.422 3.061 1.16 4.337 0.001 0.001 0.001 0.003 0.002 0.004 0.086 0.15 0.276 0.201 0.426 0.116l0.031-0.019c0.15-0.086 0.202-0.276 0.116-0.426-0.026-0.045-0.062-0.082-0.103-0.109-0.642-1.157-1.007-2.487-1.007-3.904 0-1.358 0.335-2.635 0.928-3.757l2.142 1.237c0.149 0.086 0.339 0.035 0.426-0.114 0.086-0.15 0.035-0.341-0.114-0.426l-2.418-1.396c-0.149-0.086-0.339-0.035-0.426 0.114-0.001 0.003-0.002 0.005-0.004 0.008-0.323 0.559-0.586 1.158-0.778 1.787l-2.095-0.562c0.491-1.643 1.361-3.123 2.509-4.339l3.715 3.715c0.002 0.002 0.005 0.005 0.007 0.008 0.122 0.122 0.32 0.122 0.442 0 0.325-0.325 0.691-0.607 1.091-0.839 0.097-0.056 0.152-0.156 0.155-0.261 0.002-0.056-0.011-0.113-0.041-0.166l-1.237-2.141c0.525-0.278 1.085-0.498 1.671-0.655 0.166-0.045 0.265-0.215 0.222-0.382-0.045-0.166-0.217-0.266-0.382-0.221-0.742 0.198-1.446 0.493-2.095 0.869-0.15 0.086-0.2 0.278-0.114 0.426 0.002 0.003 0.004 0.006 0.005 0.008l1.239 2.146c-0.257 0.168-0.501 0.354-0.727 0.559l-3.508-3.507c1.945-1.836 4.564-2.961 7.449-2.961 1.865 0 3.62 0.47 5.153 1.3l-1.233 2.135c-0.001 0.002-0.002 0.005-0.004 0.008-0.031 0.054-0.044 0.113-0.041 0.171 0.004 0.102 0.060 0.2 0.156 0.256 0.002 0.001 0.004 0.002 0.006 0.003 0.609 0.354 1.167 0.784 1.662 1.279 0.122 0.121 0.32 0.121 0.441 0 0.122-0.122 0.122-0.32 0-0.441-0.461-0.462-0.975-0.872-1.53-1.22l1.083-1.878c0.72 0.445 1.384 0.971 1.978 1.566 1.255 1.256 2.205 2.817 2.726 4.562l-2.39 0.641c-0.166 0.045-0.265 0.216-0.221 0.382 0.045 0.166 0.215 0.265 0.383 0.22l2.389-0.64c0.19 0.804 0.291 1.643 0.291 2.506s-0.101 1.702-0.291 2.506l-2.094-0.561c0.143-0.626 0.219-1.278 0.219-1.945 0-0.172-0.14-0.312-0.313-0.312s-0.313 0.139-0.313 0.312c0 0.613-0.068 1.21-0.198 1.783l-2.388-0.64c-0.167-0.044-0.338 0.054-0.382 0.221-0.242 0.906-0.72 1.717-1.365 2.361-0.122 0.122-0.122 0.319 0 0.441 0.122 0.121 0.319 0.121 0.441 0 0.648-0.649 1.147-1.448 1.438-2.342l2.392 0.641c0.004 0.001 0.008 0.002 0.011 0.003 0.004 0.001 0.007 0.002 0.011 0.002l2.38 0.638c-0.49 1.644-1.361 3.123-2.509 4.338l-1.533-1.532c0.444-0.477 0.835-1.005 1.164-1.573 0.086-0.149 0.036-0.339-0.113-0.426-0.149-0.086-0.341-0.035-0.427 0.114-0.354 0.611-0.786 1.172-1.282 1.668-0.122 0.121-0.122 0.319 0 0.441l1.749 1.749c-1.215 1.148-2.695 2.018-4.338 2.509l-0.561-2.094c0.629-0.194 1.228-0.455 1.787-0.778 0.002-0.001 0.005-0.003 0.007-0.004 0.028-0.016 0.053-0.036 0.073-0.058 0.001-0.001 0.002-0.002 0.004-0.003 0.001-0.001 0.001-0.002 0.002-0.002 0.086-0.098 0.104-0.243 0.036-0.362-0.002-0.003-0.003-0.006-0.005-0.008l-1.386-2.401c-0.001-0.003-0.003-0.006-0.004-0.008-0.055-0.095-0.153-0.15-0.255-0.155-0.058-0.003-0.118 0.010-0.172 0.041-0.003 0.002-0.006 0.004-0.010 0.006-0.397 0.228-0.826 0.406-1.279 0.526-0.439 0.115-0.892 0.173-1.346 0.173-0.172 0-0.313 0.14-0.313 0.312 0 0.172 0.14 0.313 0.313 0.313 0.507 0 1.014-0.065 1.505-0.195 0.408-0.107 0.799-0.258 1.168-0.445l1.085 1.879c-0.524 0.276-1.080 0.496-1.664 0.653-0.002 0.001-0.005 0.001-0.007 0.002-0.002 0.001-0.005 0.001-0.007 0.002-0.663 0.177-1.36 0.271-2.079 0.271-0.173 0-0.313 0.139-0.313 0.312s0.139 0.313 0.313 0.313c0.668 0 1.32-0.076 1.945-0.219l0.562 2.094c-0.805 0.19-1.644 0.291-2.507 0.291-1.865 0.001-3.621-0.47-5.154-1.3l1.084-1.878c0.572 0.304 1.182 0.546 1.821 0.717 0.166 0.045 0.338-0.054 0.382-0.221s-0.054-0.338-0.221-0.382c-1.283-0.344-2.44-0.995-3.387-1.872l1.749-1.748c0.122-0.122 0.122-0.319 0-0.441-0.573-0.573-1.015-1.277-1.276-2.062l2.386-0.639c0.166-0.044 0.265-0.215 0.221-0.382v0c0 0 0 0 0-0.001-0.001-0.001-0.001-0.003-0.002-0.004-0.053-0.203-0.083-0.417-0.083-0.637 0.003-1.369 1.11-2.476 2.479-2.478 1.368 0.002 2.475 1.11 2.478 2.478-0.002 1.369-1.11 2.475-2.478 2.478-0.223 0-0.438-0.029-0.642-0.084-0.077-0.020-0.156-0.010-0.222 0.023-0.076 0.038-0.136 0.109-0.16 0.198l-0.639 2.386c-0.341-0.113-0.666-0.26-0.972-0.437-0.149-0.086-0.341-0.035-0.426 0.114-0.086 0.148-0.035 0.339 0.114 0.426 0.441 0.255 0.918 0.455 1.422 0.59 0.068 0.018 0.137 0.012 0.198-0.013 0.088-0.036 0.158-0.111 0.185-0.209l0.646-2.41c0.162 0.026 0.328 0.040 0.498 0.040 1.714-0.001 3.102-1.389 3.102-3.102 0-0.745-0.262-1.428-0.699-1.962l1.537-1.537c0.827 0.931 1.328 2.155 1.328 3.498v0.001c0 0.172 0.139 0.312 0.313 0.312 0.172 0 0.313-0.139 0.313-0.312v-0.001c0-0.962-0.231-1.87-0.641-2.673l2.153-1.243c0.15-0.086 0.2-0.277 0.114-0.426-0.086-0.149-0.277-0.2-0.426-0.114l-2.154 1.244c-0.226-0.344-0.484-0.665-0.774-0.954-0.122-0.121-0.319-0.121-0.441 0l-1.764 1.764c-0.256-0.209-0.546-0.378-0.862-0.498l1.368-5.106c0.017-0.062 0.014-0.125-0.006-0.182-0.033-0.094-0.11-0.172-0.214-0.2-0.717-0.192-1.471-0.294-2.247-0.294-0.173 0-0.313 0.14-0.313 0.312 0 0.172 0.139 0.313 0.313 0.313 0.613-0 1.209 0.068 1.783 0.198l-1.284 4.798c-0.162-0.026-0.329-0.040-0.498-0.040-0.17 0-0.336 0.014-0.498 0.040l-0.646-2.41c-0.045-0.166-0.215-0.265-0.382-0.22-0.167 0.044-0.266 0.215-0.221 0.381l0.645 2.41c-0.828 0.314-1.487 0.973-1.801 1.801l-2.41-0.645c-0.166-0.045-0.338 0.054-0.382 0.22-0.044 0.167 0.054 0.338 0.221 0.382l2.41 0.646c-0.026 0.162-0.040 0.328-0.040 0.498 0 0.169 0.014 0.335 0.040 0.498l-2.41 0.646c-0.099 0.026-0.174 0.098-0.21 0.186v0.001c-0.023 0.060-0.030 0.128-0.011 0.196 0.244 0.911 0.7 1.735 1.312 2.415l-1.758 1.758c-0.060 0.060-0.091 0.141-0.091 0.22 0 0.080 0.031 0.16 0.091 0.221 0.462 0.462 0.975 0.872 1.531 1.22l-1.084 1.878c-2.325-1.436-4.066-3.724-4.789-6.429-0.045-0.167-0.216-0.265-0.383-0.221-0.166 0.044-0.265 0.215-0.22 0.382 1.309 4.898 5.777 8.503 11.086 8.504 6.336-0.001 11.474-5.138 11.474-11.474-0.001-6.335-5.139-11.473-11.474-11.474zM14.583 15.887c0 0.17 0.137 0.306 0.306 0.306h0.905l-0.64 0.639c-0.12 0.12-0.12 0.314 0 0.434 0.060 0.060 0.138 0.090 0.217 0.090s0.157-0.030 0.217-0.090l0.64-0.64v0.905c0 0.17 0.137 0.306 0.306 0.306s0.306-0.137 0.306-0.306v-0.905l0.639 0.639c0.060 0.060 0.138 0.090 0.217 0.090s0.157-0.030 0.217-0.090c0.12-0.12 0.12-0.314 0-0.434l-0.639-0.639h0.905c0.17 0 0.306-0.137 0.306-0.306s-0.137-0.306-0.306-0.306h-0.905l0.64-0.64c0.12-0.12 0.12-0.314 0-0.434s-0.314-0.12-0.434 0l-0.64 0.64v-0.905c0-0.17-0.137-0.306-0.306-0.306s-0.306 0.137-0.306 0.306v0.905l-0.64-0.64c-0.12-0.12-0.314-0.12-0.434 0s-0.12 0.314 0 0.434l0.64 0.64h-0.905c-0.169 0-0.306 0.137-0.306 0.306z" fill="#000000" />
</svg>
