<?xml version="1.0" encoding="utf-8"?>
<!-- Generated by IcoMoon.io -->
<!DOCTYPE svg PUBLIC "-//W3C//DTD SVG 1.1//EN" "http://www.w3.org/Graphics/SVG/1.1/DTD/svg11.dtd">
<svg version="1.1" xmlns="http://www.w3.org/2000/svg" xmlns:xlink="http://www.w3.org/1999/xlink" width="32" height="32" viewBox="0 0 32 32">
<g>
</g>
	<path d="M17.427 6.782v-0.324c0-0.454-0.776-0.549-1.427-0.549-0.651 0-1.426 0.095-1.426 0.549v0.324c-1.325 0.244-2.103 0.812-2.103 1.349v16.794c0 1.053 2.468 1.166 3.53 1.166s3.53-0.113 3.53-1.166l-0-16.794c-0-0.537-0.777-1.105-2.103-1.349zM15.033 6.51c0.083-0.049 0.362-0.141 0.967-0.141s0.884 0.092 0.967 0.141v0.912c-0.083 0.049-0.362 0.14-0.967 0.14-0.605 0-0.884-0.092-0.967-0.14v-0.912zM14.841 7.839c0.283 0.144 0.747 0.183 1.159 0.183 0.413 0 0.876-0.039 1.159-0.183 0.17 0.037 0.294 0.079 0.371 0.116-0.2 0.097-0.729 0.224-1.53 0.224-0.801 0-1.33-0.127-1.53-0.224 0.077-0.037 0.202-0.079 0.371-0.116zM16 25.478c-2.102 0-2.874-0.408-2.917-0.553v-16.793c0.013-0.149 0.489-0.526 1.49-0.728v0.029c-0.352 0.1-0.63 0.261-0.63 0.522 0 0.651 1.713 0.684 2.056 0.684 0.343 0 2.056-0.033 2.056-0.684 0-0.262-0.277-0.422-0.629-0.522v-0.029c1 0.202 1.477 0.579 1.49 0.727l0.001 16.789c-0.042 0.15-0.814 0.557-2.917 0.557zM16.663 6.667c-0.009-0.084-0.087-0.146-0.169-0.136-0.204 0.022-0.438 0.029-0.677 0.023-0.091-0.003-0.18-0.007-0.265-0.014-0.081-0.007-0.158 0.057-0.164 0.142-0.006 0.084 0.057 0.158 0.142 0.164 0.090 0.006 0.183 0.012 0.279 0.014 0.058 0.002 0.116 0.002 0.174 0.002 0.192 0 0.377-0.009 0.544-0.027 0.084-0.009 0.146-0.085 0.137-0.169zM16.977 11.217h-0.671v-0.67c0-0.17-0.137-0.306-0.306-0.306s-0.306 0.137-0.306 0.306v0.67h-0.671c-0.17 0-0.306 0.137-0.306 0.306s0.137 0.306 0.306 0.306l0.671 0v0.671c0 0.169 0.137 0.306 0.306 0.306s0.306-0.137 0.306-0.306v-0.671h0.671c0.17 0 0.306-0.137 0.306-0.306s-0.137-0.306-0.306-0.306zM16.671 22.788h-1.341c-0.17 0-0.306 0.137-0.306 0.306s0.137 0.306 0.306 0.306h1.341c0.17 0 0.306-0.137 0.306-0.306s-0.137-0.306-0.306-0.306z" fill="#000000" />
</svg>
