<?xml version="1.0" encoding="utf-8"?>
<!-- Generated by IcoMoon.io -->
<!DOCTYPE svg PUBLIC "-//W3C//DTD SVG 1.1//EN" "http://www.w3.org/Graphics/SVG/1.1/DTD/svg11.dtd">
<svg version="1.1" xmlns="http://www.w3.org/2000/svg" xmlns:xlink="http://www.w3.org/1999/xlink" width="32" height="32" viewBox="0 0 32 32">
<g>
</g>
	<path d="M7.274 13.466v-0.148l-0.085 0.148zM22.005 6.85c-0.055-0.095-0.156-0.153-0.266-0.153h-11.174c-0.11 0-0.211 0.058-0.266 0.153l-5.587 9.677c-0.054 0.095-0.054 0.211 0 0.306l5.587 9.677c0.055 0.095 0.156 0.153 0.266 0.153h11.174c0.11 0 0.211-0.058 0.266-0.153l5.587-9.677c0.054-0.095 0.054-0.211 0-0.306l-5.587-9.677zM26.466 17.556v-0.637c0-0.164-0.098-0.262-0.262-0.262s-0.262 0.098-0.262 0.262v0.672h-0.206v-2.512h-0.992c-0.159 0-0.262 0.103-0.262 0.262s0.103 0.262 0.262 0.262h0.468v1.988h-0.468c-0.159 0-0.262 0.103-0.262 0.262s0.103 0.262 0.262 0.262h1.399l-1.602 2.775v-1.685h-0.991c-0.159 0-0.262 0.103-0.262 0.262s0.103 0.262 0.262 0.262h0.467v1.988h-0.467c-0.159 0-0.262 0.103-0.262 0.262s0.103 0.262 0.262 0.262h0.212l-1.561 2.703c-0.038-0.020-0.083-0.035-0.137-0.035-0.164 0-0.262 0.098-0.262 0.262v0.464l-0.12 0.208-0.085-0v-2.511h-0.992c-0.156 0-0.262 0.105-0.262 0.262s0.106 0.262 0.262 0.262h0.468v1.987h-0.468c-0.136 0-0.23 0.083-0.252 0.208h-0.807c0.012-0.042 0.021-0.085 0.021-0.131v-2.141c0-0.247-0.2-0.447-0.447-0.447h-1.089c-0.247 0-0.447 0.2-0.447 0.447v2.141c0 0.046 0.008 0.090 0.021 0.131h-0.818c0.012-0.042 0.021-0.085 0.021-0.131v-2.141c0-0.247-0.2-0.447-0.447-0.447h-1.089c-0.247 0-0.447 0.2-0.447 0.447v2.141c0 0.046 0.008 0.090 0.021 0.131l-0.819-0c0.012-0.042 0.021-0.085 0.021-0.131v-2.141c0-0.247-0.2-0.447-0.447-0.447h-1.089c-0.247 0-0.447 0.2-0.447 0.447v2.141c0 0.046 0.008 0.090 0.021 0.131h-0.819c0.012-0.042 0.021-0.085 0.021-0.131v-2.141c0-0.247-0.2-0.447-0.447-0.447h-1.089c-0.189 0-0.35 0.118-0.415 0.283l-0.855-1.48c0.096-0.082 0.158-0.202 0.158-0.34v-2.141c0-0.247-0.2-0.447-0.447-0.447h-1.089c-0.098 0-0.188 0.033-0.262 0.086l-0.68-1.176h0.539c0.251 0 0.447-0.197 0.447-0.447v-2.141c0-0.247-0.2-0.447-0.447-0.447h-0.444l0.63-1.090h1.379c0.159 0 0.262-0.103 0.262-0.262l-0-0.934c0-0.164-0.098-0.262-0.262-0.262s-0.262 0.098-0.262 0.262v0.671h-0.206v-1.055l1.582-2.741c0.080 0.118 0.214 0.195 0.371 0.195h1.089c0.251 0 0.447-0.197 0.447-0.447v-2.107h0.894c0 0 0.087 0 0.144 0h0.468v2.030h-0.468c-0.157 0-0.262 0.105-0.262 0.262 0 0.159 0.103 0.262 0.262 0.262h1.46c0.159 0 0.262-0.103 0.262-0.262v-0.933c0-0.164-0.098-0.262-0.262-0.262s-0.262 0.098-0.262 0.262v0.671h-0.206v-2.030h1.624c0 0 0.181 0 0.144 0h0.468v2.030h-0.468c-0.157 0-0.262 0.105-0.262 0.262 0 0.159 0.103 0.262 0.262 0.262h1.459c0.159 0 0.262-0.103 0.262-0.262v-0.933c0-0.164-0.098-0.262-0.262-0.262s-0.262 0.098-0.262 0.262v0.671h-0.206v-2.030h1.506v2.107c0 0.251 0.197 0.447 0.447 0.447h1.089c0.251 0 0.447-0.197 0.447-0.447v-2.107h0.776v2.107c0 0.251 0.197 0.447 0.447 0.447h1.089c0.251 0 0.447-0.197 0.447-0.447v-0.784l1.34 2.321h-0.116c-0.247 0-0.447 0.2-0.447 0.447v2.141c0 0.251 0.197 0.447 0.447 0.447h1.089c0.251 0 0.447-0.197 0.447-0.447l0.002-0.129 1.886 3.267-0.506 0.877zM9.828 23.854h0.936v1.987h-0.142l-0.794-1.376v-0.611zM12.588 25.842v-1.987h0.936v1.987h-0.936zM15.348 25.842v-1.987h0.935v1.987h-0.935zM18.107 25.842v-1.987h0.936v1.987h-0.936zM7.274 13.466h-0.086l0.086-0.148v0.148zM5.954 15.603h0.67v1.988h-0.765l-0.171-0.296v-1.232l0.266-0.46zM7.179 19.729h0.936v1.77l-0.936-1.621v-0.149zM21.803 9.34h-0.936v-1.987h0.72l0.215 0.373v1.614zM18.107 7.352h0.936v1.987h-0.936v-1.987zM10.764 7.352v1.987h-0.936v-0.446l0.89-1.541h0.046zM24.563 12.506v0.959h-0.936v-1.987h0.342l0.594 1.028zM9.751 13.989h1.089c0.251 0 0.447-0.197 0.447-0.447v-2.141c0-0.247-0.2-0.447-0.447-0.447h-1.089c-0.247 0-0.447 0.2-0.447 0.447v2.141c0 0.251 0.196 0.447 0.447 0.447zM9.828 13.466v-1.987h0.936v1.987h-0.936zM12.511 13.989h1.089c0.251 0 0.447-0.197 0.447-0.447v-2.141c0-0.247-0.2-0.447-0.447-0.447h-1.089c-0.247 0-0.447 0.2-0.447 0.447v2.141c-0 0.251 0.196 0.447 0.447 0.447zM12.588 13.466v-1.987h0.936v1.987h-0.936zM15.271 13.989h1.089c0.251 0 0.447-0.197 0.447-0.447v-2.141c0-0.247-0.2-0.447-0.447-0.447h-1.089c-0.247 0-0.447 0.2-0.447 0.447v2.141c0 0.251 0.196 0.447 0.447 0.447zM15.348 13.466v-1.987h0.935v1.987h-0.935zM17.845 13.466c-0.156 0-0.262 0.105-0.262 0.262 0 0.159 0.103 0.262 0.262 0.262h1.46c0.159 0 0.262-0.103 0.262-0.262l-0-0.934c0-0.164-0.098-0.262-0.262-0.262s-0.262 0.098-0.262 0.262v0.671h-0.206v-2.511h-0.992c-0.156 0-0.262 0.105-0.262 0.262s0.106 0.262 0.262 0.262h0.468v1.987l-0.468-0zM20.605 13.466c-0.156 0-0.262 0.105-0.262 0.262 0 0.159 0.103 0.262 0.262 0.262h1.46c0.159 0 0.262-0.103 0.262-0.262v-0.934c0-0.164-0.098-0.262-0.262-0.262s-0.262 0.098-0.262 0.262v0.671h-0.206v-2.511h-0.992c-0.156 0-0.262 0.105-0.262 0.262s0.106 0.262 0.262 0.262h0.468v1.987l-0.468-0zM9.908 17.668v-2.141c0-0.247-0.2-0.447-0.447-0.447h-1.089c-0.247 0-0.447 0.2-0.447 0.447v2.141c0 0.25 0.197 0.447 0.447 0.447h1.089c0.251 0 0.447-0.196 0.447-0.447zM9.384 15.603v1.988h-0.936v-1.988h0.936zM12.668 17.668v-2.141c0-0.247-0.2-0.447-0.447-0.447h-1.089c-0.247 0-0.447 0.2-0.447 0.447v2.141c0 0.25 0.197 0.447 0.447 0.447h1.089c0.25 0 0.447-0.196 0.447-0.447zM12.144 15.603v1.988h-0.936v-1.988h0.936zM15.427 17.853v-0.933c0-0.164-0.098-0.262-0.262-0.262s-0.262 0.098-0.262 0.262v0.672h-0.206v-2.512h-0.992c-0.159 0-0.262 0.103-0.262 0.262s0.103 0.262 0.262 0.262h0.468v1.988h-0.468c-0.159 0-0.262 0.103-0.262 0.262s0.103 0.262 0.262 0.262h1.46c0.159 0 0.262-0.103 0.262-0.262zM18.187 17.668v-2.141c0-0.247-0.2-0.447-0.447-0.447h-1.089c-0.247 0-0.447 0.2-0.447 0.447v2.141c0 0.25 0.197 0.447 0.447 0.447h1.089c0.25 0 0.447-0.196 0.447-0.447zM17.663 15.603v1.988h-0.936v-1.988h0.936zM20.947 17.853v-0.933c0-0.164-0.098-0.262-0.262-0.262s-0.262 0.098-0.262 0.262v0.672h-0.206v-2.512h-0.992c-0.159 0-0.262 0.103-0.262 0.262s0.103 0.262 0.262 0.262h0.468v1.988h-0.468c-0.159 0-0.262 0.103-0.262 0.262s0.103 0.262 0.262 0.262h1.46c0.159 0 0.262-0.103 0.262-0.262zM23.444 16.658c-0.164 0-0.262 0.098-0.262 0.262v0.672h-0.206v-2.512h-0.992c-0.159 0-0.262 0.103-0.262 0.262s0.103 0.262 0.262 0.262h0.468v1.988h-0.468c-0.159 0-0.262 0.103-0.262 0.262s0.103 0.262 0.262 0.262h1.46c0.159 0 0.262-0.103 0.262-0.262l0-0.933c0-0.164-0.098-0.262-0.262-0.262zM11.137 20.783c-0.164 0-0.262 0.098-0.262 0.262v0.672h-0.206v-2.512h-0.991c-0.159 0-0.262 0.103-0.262 0.262s0.103 0.262 0.262 0.262h0.467v1.988h-0.467c-0.159 0-0.262 0.103-0.262 0.262s0.103 0.262 0.262 0.262h1.46c0.159 0 0.262-0.103 0.262-0.262v-0.933c-0-0.164-0.098-0.262-0.262-0.262zM13.711 19.205h-1.089c-0.247 0-0.447 0.2-0.447 0.447v2.141c0 0.25 0.197 0.447 0.447 0.447h1.089c0.251 0 0.447-0.197 0.447-0.447v-2.141c0-0.246-0.2-0.447-0.447-0.447zM13.634 19.729v1.988h-0.936v-1.988h0.936zM16.47 19.205h-1.089c-0.247 0-0.447 0.2-0.447 0.447v2.141c0 0.25 0.197 0.447 0.447 0.447h1.089c0.251 0 0.447-0.197 0.447-0.447v-2.141c0-0.246-0.2-0.447-0.447-0.447zM16.394 19.729v1.988h-0.935v-1.988h0.935zM19.23 19.205h-1.089c-0.247 0-0.447 0.2-0.447 0.447v2.141c0 0.25 0.197 0.447 0.447 0.447h1.089c0.251 0 0.447-0.197 0.447-0.447v-2.141c0-0.246-0.2-0.447-0.447-0.447zM19.154 19.729v1.988h-0.936v-1.988h0.936zM22.25 20.783c-0.164 0-0.262 0.098-0.262 0.262v0.672h-0.206v-2.512h-0.991c-0.159 0-0.262 0.103-0.262 0.262s0.103 0.262 0.262 0.262h0.467v1.988h-0.467c-0.159 0-0.262 0.103-0.262 0.262s0.103 0.262 0.262 0.262h1.46c0.159 0 0.262-0.103 0.262-0.262v-0.933c-0.001-0.164-0.098-0.262-0.262-0.262z" fill="#000000" />
</svg>
