<?xml version="1.0" encoding="utf-8"?>
<!-- Generated by IcoMoon.io -->
<!DOCTYPE svg PUBLIC "-//W3C//DTD SVG 1.1//EN" "http://www.w3.org/Graphics/SVG/1.1/DTD/svg11.dtd">
<svg version="1.1" xmlns="http://www.w3.org/2000/svg" xmlns:xlink="http://www.w3.org/1999/xlink" width="32" height="32" viewBox="0 0 32 32">
<g>
</g>
	<path d="M28.037 7.702c-0.030-0.030-0.073-0.042-0.114-0.032-0.004 0.001-0.007 0.002-0.011 0.004l-2.21 0.808c-0.039 0.014-0.067 0.046-0.075 0.086-0.009 0.040 0.003 0.081 0.032 0.11l0.361 0.362-1.049 1.049v-2.641c0-0.307-0.25-0.557-0.557-0.557l-16.919-0c-0.307 0-0.558 0.25-0.558 0.557v12.42l-2.152 2.151c-0.18 0.18-0.18 0.47 0 0.65 0.090 0.090 0.207 0.134 0.325 0.134s0.235-0.045 0.325-0.134l1.501-1.501v3.198c0 0.307 0.25 0.557 0.558 0.557h16.918c0.307 0 0.557-0.25 0.557-0.557v-12.978l1.699-1.699 0.373 0.373c0.028 0.029 0.069 0.040 0.109 0.032 0.044-0.003 0.071-0.036 0.086-0.074l0.828-2.194c0.016-0.043 0.005-0.093-0.026-0.125zM20.534 11.668h2.856l-2.856 2.856v-2.856zM7.55 16.014h3.241l-3.241 3.241v-3.241zM11.441 24.31h-3.892v-3.755l0.195-0.195h3.697l-0 3.95zM11.441 19.977h-3.314l3.314-3.314v3.314zM11.441 15.363l-0.268 0.268h-3.624v-3.963h3.891v3.695zM11.441 11.285h-3.892v-3.781h3.891v3.781zM15.796 24.31h-3.972v-3.95h3.972l0 3.95zM15.796 19.977h-3.972v-3.697l0.266-0.266h3.29l0.416 0.416v3.548zM12.474 15.631l1.262-1.261 1.262 1.261h-2.523zM15.796 15.13l-1.735-1.735c-0.18-0.18-0.47-0.18-0.65 0l-1.586 1.586-0-3.313h3.972l0 3.462zM15.796 11.285h-3.972v-3.781h3.972l0 3.781zM20.151 24.31h-3.972v-3.95h3.972v3.95zM20.151 19.977h-3.972v-3.164l1.358 1.358c0.18 0.18 0.47 0.18 0.65 0l1.963-1.963 0 3.769zM16.68 16.014h2.363l-1.182 1.182-1.182-1.182zM20.151 14.907l-0.724 0.724h-3.13l-0.118-0.118 0-3.845h3.972v3.24zM20.151 11.285h-3.972v-3.781h3.972v3.781zM24.357 24.31h-3.822v-3.95h3.822l0 3.95zM24.357 19.977h-3.822v-3.963h3.822l0 3.963zM24.357 15.631h-3.629l3.629-3.629v3.629zM24.357 10.702l-0.583 0.583h-3.239v-3.781h3.822l0 3.198z" fill="#000000" />
</svg>
