<?xml version="1.0" encoding="utf-8"?>
<!-- Generated by IcoMoon.io -->
<!DOCTYPE svg PUBLIC "-//W3C//DTD SVG 1.1//EN" "http://www.w3.org/Graphics/SVG/1.1/DTD/svg11.dtd">
<svg version="1.1" xmlns="http://www.w3.org/2000/svg" xmlns:xlink="http://www.w3.org/1999/xlink" width="32" height="32" viewBox="0 0 32 32">
<g>
</g>
	<path d="M24.164 6.864c0.92 0 1.668-0.748 1.668-1.668s-0.748-1.668-1.668-1.668-1.668 0.749-1.668 1.668 0.748 1.668 1.668 1.668zM24.164 3.987c0.667 0 1.209 0.542 1.209 1.209 0 0.666-0.542 1.208-1.209 1.208s-1.209-0.542-1.209-1.208c0-0.666 0.542-1.209 1.209-1.209zM25.374 7.039h-2.447c-0.022 0-2.209 0.059-2.209 2.471v1.487c0 0.118 0.016 0.227 0.040 0.332l-8.317 3.079c-0.642-0.877-1.744-0.912-1.762-0.912h-2.447c-0.022 0-2.209 0.059-2.209 2.471v1.487c0 0.845 0.689 1.329 1.146 1.649l0.041 0.030v0.646l0.045 0.061c0.065 0.088 0.476 0.525 2.167 0.525h0.070c1.692 0 2.103-0.438 2.168-0.525l0.045-0.061v-0.471l5.368 3.809c-0.354 0.366-0.629 0.92-0.629 1.773v1.487c0 0.845 0.69 1.329 1.146 1.65l0.041 0.030v0.645l0.045 0.061c0.065 0.088 0.475 0.526 2.167 0.526h0.070c1.692 0 2.102-0.438 2.167-0.526l0.045-0.061v-0.645l0.041-0.029c0.457-0.321 1.147-0.805 1.147-1.65v-1.487c0-1.261-0.598-1.876-1.171-2.178l2.234-8.806c1.53-0.032 1.916-0.438 1.978-0.522l0.045-0.061v-0.645l0.041-0.029c0.456-0.321 1.146-0.805 1.146-1.65v-1.487c0.001-2.412-2.187-2.472-2.212-2.472zM23.924 7.498h0.475l-0.21 0.53 0.337 4.25-0.347 0.28-0.347-0.281 0.3-4.25-0.207-0.53zM10.332 13.956c-0.176 0.222-0.454 0.51-0.814 0.668-0.368-0.143-0.686-0.437-0.896-0.668h1.71zM11.245 19.597c-0.141 0.092-0.595 0.309-1.753 0.309h-0.070c-1.17 0-1.621-0.221-1.753-0.306l0-3.653c0-0.127-0.103-0.23-0.23-0.23-0.127 0-0.23 0.103-0.23 0.23v2.621c-0.365-0.271-0.727-0.61-0.727-1.113v-1.487c0-1.881 1.559-2.003 1.735-2.011 0.202 0.255 0.672 0.776 1.255 0.976l0.053 0.018 0.052-0.021c0.57-0.224 0.963-0.718 1.136-0.973 0.261 0.017 1.718 0.193 1.718 2.010v1.487c0 0.502-0.362 0.841-0.727 1.112v-2.621c0-0.127-0.103-0.23-0.23-0.23s-0.23 0.103-0.23 0.23l0 3.651zM22.854 24.89v1.487c0 0.502-0.362 0.842-0.728 1.113v-2.621c0-0.127-0.103-0.23-0.23-0.23s-0.23 0.103-0.23 0.23v3.65c-0.14 0.093-0.594 0.309-1.752 0.309h-0.070c-1.17 0-1.621-0.221-1.753-0.307v-3.653c0-0.127-0.103-0.23-0.23-0.23s-0.23 0.103-0.23 0.23v2.621c-0.365-0.271-0.727-0.61-0.727-1.113v-1.487c0-1.954 1.685-2.010 1.753-2.012h2.44c0.071 0.002 1.757 0.058 1.757 2.012zM21.1 22.418h-2.447c-0.011 0-0.535 0.017-1.070 0.309l-5.478-3.888c0.391-0.312 0.787-0.745 0.787-1.386v-1.487c0-0.4-0.064-0.73-0.165-1.012l8.292-3.070c0.242 0.334 0.581 0.577 0.846 0.762l0.040 0.028v0.646l0.045 0.061c0.060 0.081 0.416 0.458 1.795 0.517l-2.18 8.591c-0.265-0.066-0.457-0.073-0.464-0.073zM27.127 10.998c0 0.502-0.362 0.842-0.727 1.113v-2.621c0-0.127-0.103-0.23-0.23-0.23s-0.23 0.103-0.23 0.23v3.65c-0.141 0.092-0.595 0.309-1.753 0.309h-0.070c-1.169 0-1.621-0.221-1.753-0.306l-0-3.653c0-0.127-0.103-0.23-0.23-0.23s-0.23 0.103-0.23 0.23v2.621c-0.365-0.271-0.727-0.61-0.727-1.113v-1.487c0-1.953 1.685-2.010 1.753-2.011h0.664l0.226 0.577-0.306 4.34 0.665 0.537 0.665-0.538-0.344-4.34 0.228-0.576h0.643c0.071 0.001 1.756 0.047 1.756 2.011l-0 1.488zM9.469 13.321c0.92 0 1.668-0.749 1.668-1.668s-0.748-1.668-1.668-1.668-1.668 0.748-1.668 1.668 0.748 1.668 1.668 1.668zM9.469 10.444c0.666 0 1.208 0.542 1.208 1.208 0 0.666-0.542 1.209-1.208 1.209s-1.209-0.542-1.209-1.209c0-0.666 0.542-1.208 1.209-1.208zM19.89 18.907c-0.92 0-1.668 0.748-1.668 1.668 0 0.92 0.748 1.668 1.668 1.668s1.668-0.748 1.668-1.668c0-0.92-0.748-1.668-1.668-1.668zM19.89 21.784c-0.667 0-1.209-0.542-1.209-1.209 0-0.666 0.542-1.208 1.209-1.208s1.209 0.542 1.209 1.208c0 0.666-0.542 1.209-1.209 1.209zM18.447 23.296c0 0.13 0.106 0.236 0.236 0.236s0.236-0.106 0.236-0.236c0-0.13-0.106-0.236-0.236-0.236-0.13 0-0.236 0.106-0.236 0.236zM19.038 23.546c-0.13 0-0.236 0.106-0.236 0.235 0 0.13 0.106 0.235 0.236 0.235 0.129 0 0.235-0.105 0.235-0.235 0-0.13-0.106-0.235-0.235-0.235zM19.356 24.005c0 0 0 0 0 0 0 0.13 0.105 0.235 0.235 0.235 0.13 0 0.235-0.105 0.235-0.235 0 0 0 0 0 0 0 0 0 0 0 0 0-0.13-0.105-0.235-0.235-0.235-0.13 0-0.235 0.105-0.235 0.235s0 0 0 0zM20.866 23.296c0 0.13 0.106 0.236 0.236 0.236s0.236-0.106 0.236-0.236c0-0.13-0.106-0.236-0.236-0.236-0.13 0-0.236 0.106-0.236 0.236zM20.512 23.781c0 0 0 0 0 0 0 0.13 0.105 0.235 0.235 0.235 0.13 0 0.235-0.105 0.235-0.235 0 0 0 0 0 0 0 0 0 0 0 0 0-0.13-0.105-0.235-0.235-0.235-0.13 0-0.235 0.105-0.235 0.235s0 0 0 0zM19.958 24.005c0 0.13 0.105 0.235 0.235 0.235s0.235-0.105 0.235-0.235c0-0.13-0.105-0.235-0.235-0.235-0.13 0-0.235 0.105-0.235 0.235z" fill="#000000" />
</svg>
