<?xml version="1.0" encoding="utf-8"?>
<!-- Generated by IcoMoon.io -->
<!DOCTYPE svg PUBLIC "-//W3C//DTD SVG 1.1//EN" "http://www.w3.org/Graphics/SVG/1.1/DTD/svg11.dtd">
<svg version="1.1" xmlns="http://www.w3.org/2000/svg" xmlns:xlink="http://www.w3.org/1999/xlink" width="32" height="32" viewBox="0 0 32 32">
<g>
</g>
	<path d="M22.781 19.877c0-0.406-0.33-0.736-0.736-0.736-0.353 0-0.649 0.25-0.72 0.583h-1.573c-0.060-0.283-0.283-0.506-0.567-0.567v-1.818c0.333-0.071 0.583-0.366 0.583-0.72 0-0.406-0.33-0.736-0.736-0.736s-0.736 0.33-0.736 0.736c0 0.353 0.25 0.649 0.583 0.72v1.818c-0.283 0.060-0.506 0.283-0.567 0.567h-1.654c-0.071-0.333-0.366-0.583-0.72-0.583-0.406 0-0.736 0.33-0.736 0.736 0 0.353 0.25 0.649 0.583 0.72v1.857c-0.333 0.071-0.583 0.366-0.583 0.72 0 0.406 0.33 0.736 0.736 0.736 0.406 0 0.736-0.33 0.736-0.736 0-0.353-0.25-0.649-0.583-0.72v-1.857c0.283-0.060 0.506-0.283 0.567-0.567h1.654c0.060 0.283 0.283 0.506 0.567 0.567v1.857c-0.333 0.071-0.583 0.366-0.583 0.72 0 0.406 0.33 0.736 0.736 0.736s0.736-0.33 0.736-0.736c0-0.353-0.25-0.649-0.583-0.72v-1.857c0.283-0.060 0.506-0.283 0.567-0.567h1.573c0.060 0.283 0.283 0.506 0.567 0.567v1.857c-0.333 0.071-0.583 0.366-0.583 0.72 0 0.406 0.33 0.736 0.736 0.736s0.736-0.33 0.736-0.736c0-0.353-0.25-0.649-0.583-0.72v-1.857c0.333-0.071 0.583-0.367 0.583-0.72zM16.368 23.173c0 0.237-0.193 0.43-0.43 0.43s-0.43-0.193-0.43-0.43 0.193-0.43 0.43-0.43 0.43 0.193 0.43 0.43zM15.939 20.306c-0.237 0-0.43-0.193-0.43-0.43s0.193-0.43 0.43-0.43 0.43 0.193 0.43 0.43-0.193 0.43-0.43 0.43zM18.602 16.619c0-0.237 0.193-0.43 0.43-0.43s0.43 0.193 0.43 0.43-0.193 0.43-0.43 0.43-0.43-0.193-0.43-0.43zM19.462 23.173c0 0.237-0.193 0.43-0.43 0.43s-0.43-0.193-0.43-0.43 0.193-0.43 0.43-0.43 0.43 0.193 0.43 0.43zM19.033 20.306c-0.237 0-0.43-0.193-0.43-0.43s0.193-0.43 0.43-0.43 0.43 0.193 0.43 0.43-0.193 0.43-0.43 0.43zM22.475 23.173c0 0.237-0.193 0.43-0.43 0.43s-0.43-0.193-0.43-0.43 0.193-0.43 0.43-0.43 0.43 0.193 0.43 0.43zM22.045 20.306c-0.237 0-0.43-0.193-0.43-0.43s0.193-0.43 0.43-0.43 0.43 0.193 0.43 0.43-0.193 0.43-0.43 0.43zM25.72 12.207c-0.898-2.934-3.635-4.969-6.719-4.969-3.092 0-5.806 2.016-6.713 4.941-0.504-0.18-1.030-0.271-1.569-0.271-2.187 0-4.068 1.504-4.564 3.612-1.954 0.072-3.6 1.429-4.036 3.351-0.019 0.087 0.001 0.178 0.057 0.247 0.055 0.069 0.139 0.11 0.227 0.11h10.051c-0.045 0.312-0.070 0.631-0.070 0.955 0 3.665 2.982 6.647 6.646 6.647 3.666 0 6.648-2.982 6.648-6.647 0-0.325-0.025-0.643-0.070-0.955h4.39c0.142 0 0.263-0.102 0.287-0.242 0.062-0.357 0.092-0.685 0.092-1.004-0-2.79-1.948-5.19-4.658-5.774zM19.032 26.217c-3.327 0-6.034-2.707-6.034-6.034s2.706-6.034 6.034-6.034c3.327 0 6.035 2.707 6.035 6.034s-2.707 6.034-6.035 6.034zM29.749 18.645h-4.251c-0.696-2.926-3.33-5.109-6.466-5.109-3.135 0-5.769 2.183-6.465 5.109h-9.781c0.502-1.514 1.905-2.542 3.551-2.542h0.002l0.045 0.002c0.148 0.014 0.268-0.098 0.294-0.239 0.354-1.954 2.053-3.372 4.040-3.372 0.532 0 1.049 0.106 1.541 0.305 0.304 0.148 0.954 0.524 1.355 1.198 0.048 0.080 0.138 0.119 0.226 0.103 0.025-0.005 0.050-0.013 0.074-0.028 0.104-0.062 0.138-0.196 0.076-0.299-0.346-0.58-0.837-0.962-1.21-1.188 0.758-2.806 3.305-4.762 6.22-4.762 2.802 0 5.272 1.791 6.12 4.441-0.753-0.005-1.312 0.267-1.345 0.281-0.111 0.046-0.165 0.174-0.118 0.286 0.046 0.111 0.174 0.165 0.285 0.119 0.008-0.004 0.779-0.31 1.655-0.165 2.441 0.527 4.198 2.685 4.198 5.198 0.001 0.213-0.015 0.432-0.046 0.664z" fill="#000000" />
</svg>
