<?xml version="1.0" encoding="utf-8"?>
<!-- Generated by IcoMoon.io -->
<!DOCTYPE svg PUBLIC "-//W3C//DTD SVG 1.1//EN" "http://www.w3.org/Graphics/SVG/1.1/DTD/svg11.dtd">
<svg version="1.1" xmlns="http://www.w3.org/2000/svg" xmlns:xlink="http://www.w3.org/1999/xlink" width="32" height="32" viewBox="0 0 32 32">
<g>
</g>
	<path d="M16.174 20.155c0.501-1.344 0.766-2.777 0.766-4.232 0-1.481-0.264-2.919-0.766-4.263 0.594-1.498 1.504-2.87 2.701-4.031 0.121-0.118 0.124-0.312 0.006-0.434-0.060-0.062-0.14-0.093-0.22-0.093-0.077 0-0.154 0.029-0.213 0.086-1.109 1.076-1.983 2.323-2.604 3.681-0.621-1.358-1.495-2.606-2.604-3.681-0.121-0.118-0.315-0.115-0.434 0.006-0.118 0.122-0.115 0.316 0.006 0.434 1.197 1.161 2.107 2.532 2.701 4.031-0.502 1.344-0.766 2.782-0.766 4.263 0 1.455 0.266 2.888 0.766 4.232-0.626 1.584-1.595 3.030-2.859 4.211-0.124 0.116-0.13 0.31-0.015 0.434 0.060 0.065 0.142 0.097 0.224 0.097 0.075 0 0.15-0.027 0.21-0.082 1.179-1.102 2.114-2.422 2.77-3.868 0.656 1.446 1.591 2.766 2.77 3.868 0.124 0.115 0.317 0.109 0.434-0.015 0.116-0.123 0.109-0.317-0.015-0.434-1.264-1.181-2.233-2.627-2.858-4.211zM15.362 15.923c0-1.141 0.166-2.255 0.482-3.316 0.317 1.062 0.482 2.175 0.482 3.316 0 1.118-0.168 2.221-0.482 3.278-0.314-1.057-0.482-2.16-0.482-3.278zM8.322 12.85c-0.077-0.073-0.198-0.070-0.271 0.007-0.073 0.077-0.070 0.198 0.007 0.271 0.777 0.739 1.206 1.732 1.206 2.795 0 1.094-0.472 2.144-1.295 2.879-0.079 0.070-0.086 0.192-0.016 0.271 0.038 0.042 0.090 0.064 0.143 0.064 0.045 0 0.091-0.016 0.127-0.049 0.904-0.807 1.423-1.961 1.423-3.164 0.001-1.17-0.47-2.261-1.324-3.073zM11.245 8.897c-0.107-0.103-0.276-0.099-0.379 0.007s-0.1 0.277 0.007 0.379c1.826 1.758 2.832 4.116 2.832 6.64 0 2.57-1.090 5.044-2.99 6.79-0.109 0.101-0.116 0.27-0.016 0.379 0.053 0.058 0.125 0.087 0.198 0.087 0.065 0 0.13-0.023 0.182-0.071 2.010-1.846 3.163-4.465 3.163-7.185 0-2.67-1.065-5.166-2.997-7.026zM9.54 10.6c-0.092-0.088-0.237-0.084-0.325 0.008-0.087 0.092-0.084 0.238 0.008 0.325 1.385 1.317 2.147 3.088 2.147 4.989 0 1.956-0.84 3.828-2.305 5.137-0.095 0.085-0.103 0.23-0.019 0.325 0.045 0.051 0.109 0.077 0.172 0.077 0.054 0 0.109-0.019 0.153-0.058 1.563-1.396 2.459-3.393 2.459-5.479 0.001-2.029-0.813-3.919-2.29-5.323zM17.988 15.923c0-2.523 1.006-4.882 2.832-6.64 0.107-0.103 0.11-0.273 0.007-0.379-0.053-0.054-0.122-0.082-0.194-0.082-0.067 0-0.134 0.025-0.186 0.075-1.933 1.861-2.996 4.355-2.996 7.026 0 2.719 1.153 5.338 3.162 7.185 0.109 0.1 0.278 0.093 0.379-0.016 0.1-0.109 0.094-0.279-0.016-0.379-1.899-1.745-2.989-4.22-2.989-6.79zM20.322 15.923c0-1.901 0.762-3.673 2.147-4.989 0.092-0.087 0.096-0.233 0.008-0.325-0.045-0.047-0.106-0.071-0.167-0.071-0.056 0-0.114 0.021-0.158 0.063-1.477 1.404-2.29 3.294-2.29 5.322 0 2.087 0.897 4.084 2.459 5.479 0.095 0.084 0.24 0.076 0.325-0.018 0.084-0.095 0.076-0.24-0.019-0.325-1.465-1.308-2.306-3.18-2.306-5.136zM24.031 18.801c-0.823-0.734-1.295-1.784-1.295-2.878 0-1.064 0.428-2.056 1.206-2.795 0.077-0.073 0.080-0.194 0.006-0.271-0.038-0.040-0.088-0.059-0.139-0.059-0.047 0-0.095 0.018-0.132 0.053-0.854 0.812-1.325 1.903-1.325 3.073 0 1.203 0.518 2.357 1.422 3.164 0.079 0.070 0.2 0.064 0.271-0.015 0.070-0.079 0.064-0.2-0.015-0.27z" fill="#000000" />
</svg>
