<?xml version="1.0" encoding="utf-8"?>
<!-- Generated by IcoMoon.io -->
<!DOCTYPE svg PUBLIC "-//W3C//DTD SVG 1.1//EN" "http://www.w3.org/Graphics/SVG/1.1/DTD/svg11.dtd">
<svg version="1.1" xmlns="http://www.w3.org/2000/svg" xmlns:xlink="http://www.w3.org/1999/xlink" width="32" height="32" viewBox="0 0 32 32">
<g>
</g>
	<path d="M7.444 14.335c-0.007 0.026-0.016 0.051-0.016 0.079v5.152c0 0.169 0.137 0.306 0.306 0.306h17.633c0.17 0 0.307-0.138 0.307-0.306v-5.152c0-0.028-0.009-0.054-0.017-0.080 0.037-0.139-0.022-0.287-0.156-0.353l-2.818-1.379c-0.042-0.020-0.088-0.031-0.134-0.031l-11.571 0c-0.041 0-0.082 0.008-0.12 0.024l-3.244 1.38c-0.142 0.061-0.21 0.215-0.171 0.36zM11.041 13.183h11.438l1.888 0.924-15.499 0 2.173-0.925zM8.041 14.797h17.021v4.462h-17.021v-4.462zM9.17 17.012c-0 0.002-0 0.003-0 0.005 0 0.233 0.189 0.422 0.422 0.422 0.233 0 0.422-0.189 0.422-0.422 0-0.002 0-0.004-0-0.005 0-0.001 0-0.003 0-0.005 0-0.233-0.189-0.422-0.422-0.422-0.233 0-0.422 0.189-0.422 0.422 0 0.002 0 0.004 0 0.005zM10.665 17.012c-0 0.004-0 0.008-0 0.013 0 0.233 0.189 0.422 0.422 0.422 0.233 0 0.422-0.189 0.422-0.422 0-0.004-0-0.009-0-0.013 0-0.003 0-0.008 0-0.012 0-0.233-0.189-0.422-0.422-0.422-0.233 0-0.422 0.189-0.422 0.422 0 0.004 0 0.009 0 0.013zM24.061 15.609h-0.919c-0.085 0-0.154 0.069-0.154 0.153v2.452c0 0.085 0.069 0.153 0.154 0.153h0.919c0.085 0 0.154-0.069 0.154-0.153v-2.452c-0-0.085-0.069-0.153-0.154-0.153zM23.908 18.061h-0.613v-2.146h0.613v2.146zM22.222 15.609h-0.92c-0.085 0-0.153 0.069-0.153 0.153v2.452c0 0.085 0.069 0.153 0.153 0.153h0.92c0.085 0 0.153-0.069 0.153-0.153v-2.452c0-0.085-0.069-0.153-0.153-0.153zM22.069 18.061h-0.613v-2.146h0.613v2.146zM16.969 20.746h-0.615c-0.127 0-0.23 0.103-0.23 0.23s0.103 0.23 0.23 0.23h0.615c0.127 0 0.23-0.103 0.23-0.23s-0.103-0.23-0.23-0.23zM18.506 20.746h-0.614c-0.127 0-0.23 0.103-0.23 0.23s0.103 0.23 0.23 0.23h0.614c0.127 0 0.23-0.103 0.23-0.23s-0.103-0.23-0.23-0.23zM6.657 13.324c-0.109-0.066-0.25-0.032-0.316 0.077-0.123 0.203-0.202 0.435-0.23 0.67-0.014 0.126 0.076 0.24 0.202 0.255 0.009 0.001 0.018 0.002 0.026 0.002 0.115 0 0.214-0.086 0.228-0.204 0.019-0.17 0.077-0.337 0.166-0.484 0.066-0.109 0.031-0.25-0.077-0.316zM12.359 20.746h-0.614c-0.127 0-0.23 0.103-0.23 0.23s0.103 0.23 0.23 0.23h0.614c0.127 0 0.23-0.103 0.23-0.23s-0.103-0.23-0.23-0.23zM9.285 20.746h-0.614c-0.127 0-0.23 0.103-0.23 0.23s0.103 0.23 0.23 0.23h0.614c0.127 0 0.23-0.103 0.23-0.23s-0.103-0.23-0.23-0.23zM7.735 20.746c-0.174 0-0.342-0.037-0.498-0.11-0.115-0.054-0.252-0.004-0.306 0.111-0.054 0.115-0.004 0.252 0.111 0.306 0.218 0.102 0.451 0.154 0.693 0.154h0.014c0.127 0 0.223-0.103 0.223-0.23s-0.109-0.23-0.237-0.23zM20.043 20.746h-0.614c-0.127 0-0.23 0.103-0.23 0.23s0.103 0.23 0.23 0.23h0.614c0.127 0 0.23-0.103 0.23-0.23s-0.103-0.23-0.23-0.23zM10.822 20.746h-0.615c-0.127 0-0.23 0.103-0.23 0.23s0.103 0.23 0.23 0.23h0.615c0.127 0 0.23-0.103 0.23-0.23s-0.103-0.23-0.23-0.23zM13.896 20.746h-0.614c-0.127 0-0.23 0.103-0.23 0.23s0.103 0.23 0.23 0.23h0.614c0.127 0 0.23-0.103 0.23-0.23s-0.103-0.23-0.23-0.23zM26.778 19.192c-0.127 0-0.23 0.103-0.23 0.23v0.144c0 0.132-0.022 0.262-0.065 0.387-0.042 0.12 0.022 0.251 0.142 0.292 0.025 0.009 0.050 0.013 0.075 0.013 0.095 0 0.184-0.059 0.217-0.154 0.060-0.173 0.091-0.354 0.091-0.538v-0.144c0-0.127-0.103-0.23-0.23-0.23zM21.579 20.746h-0.614c-0.127 0-0.23 0.103-0.23 0.23s0.103 0.23 0.23 0.23h0.614c0.127 0 0.23-0.103 0.23-0.23s-0.103-0.23-0.23-0.23zM26.778 16.119c-0.127 0-0.23 0.103-0.23 0.23v0.615c0 0.127 0.103 0.23 0.23 0.23s0.23-0.103 0.23-0.23v-0.615c0-0.127-0.103-0.23-0.23-0.23zM26.778 14.582c-0.127 0-0.23 0.103-0.23 0.23v0.614c0 0.127 0.103 0.23 0.23 0.23s0.23-0.103 0.23-0.23v-0.614c0-0.127-0.103-0.23-0.23-0.23zM26.778 17.655c-0.127 0-0.23 0.103-0.23 0.23v0.615c0 0.127 0.103 0.23 0.23 0.23s0.23-0.103 0.23-0.23v-0.615c0-0.127-0.103-0.23-0.23-0.23zM23.116 20.746h-0.614c-0.127 0-0.23 0.103-0.23 0.23s0.103 0.23 0.23 0.23h0.614c0.127 0 0.23-0.103 0.23-0.23s-0.103-0.23-0.23-0.23zM24.654 20.746h-0.615c-0.127 0-0.23 0.103-0.23 0.23s0.103 0.23 0.23 0.23h0.615c0.127 0 0.23-0.103 0.23-0.23s-0.103-0.23-0.23-0.23zM26.017 20.55c-0.145 0.096-0.305 0.157-0.477 0.182-0.125 0.019-0.212 0.135-0.194 0.262 0.017 0.114 0.115 0.196 0.227 0.196 0.011 0 0.022-0.001 0.034-0.002 0.238-0.035 0.461-0.121 0.662-0.254 0.106-0.070 0.135-0.212 0.065-0.318-0.070-0.106-0.212-0.136-0.318-0.066zM15.433 20.746h-0.614c-0.127 0-0.23 0.103-0.23 0.23s0.103 0.23 0.23 0.23h0.614c0.127 0 0.23-0.103 0.23-0.23s-0.103-0.23-0.23-0.23zM17.697 11.698h0.614c0.127 0 0.23-0.103 0.23-0.23s-0.103-0.23-0.23-0.23h-0.614c-0.127 0-0.23 0.103-0.23 0.23s0.103 0.23 0.23 0.23zM20.77 11.698h0.614c0.127 0 0.23-0.103 0.23-0.23s-0.103-0.23-0.23-0.23h-0.614c-0.127 0-0.23 0.103-0.23 0.23s0.103 0.23 0.23 0.23zM14.623 11.698h0.614c0.127 0 0.23-0.103 0.23-0.23s-0.103-0.23-0.23-0.23h-0.614c-0.127 0-0.23 0.103-0.23 0.23s0.103 0.23 0.23 0.23zM16.16 11.698h0.615c0.127 0 0.23-0.103 0.23-0.23s-0.103-0.23-0.23-0.23h-0.615c-0.127 0-0.23 0.103-0.23 0.23s0.103 0.23 0.23 0.23zM19.234 11.698h0.614c0.127 0 0.23-0.103 0.23-0.23s-0.103-0.23-0.23-0.23l-0.614 0c-0.127 0-0.23 0.103-0.23 0.23s0.103 0.23 0.23 0.23zM25.035 12.78l0.552 0.27c0.033 0.016 0.067 0.023 0.101 0.023 0.085 0 0.167-0.047 0.207-0.129 0.056-0.114 0.009-0.252-0.106-0.307l-0.552-0.27c-0.115-0.056-0.252-0.008-0.308 0.106-0.056 0.114-0.009 0.251 0.106 0.307zM22.307 11.698h0.243c0.103 0 0.206 0.014 0.307 0.041 0.020 0.006 0.040 0.008 0.060 0.008 0.102 0 0.194-0.067 0.222-0.17 0.033-0.122-0.039-0.249-0.162-0.282-0.14-0.038-0.283-0.057-0.427-0.057h-0.243c-0.127 0-0.23 0.103-0.23 0.23s0.103 0.23 0.23 0.23zM26.503 13.953c0.027 0.103 0.12 0.171 0.222 0.171 0.019 0 0.039-0.002 0.059-0.008 0.122-0.032 0.196-0.158 0.164-0.281-0.061-0.23-0.173-0.448-0.325-0.63-0.082-0.098-0.226-0.111-0.324-0.030-0.098 0.081-0.111 0.226-0.030 0.324 0.11 0.131 0.19 0.288 0.234 0.454zM23.655 12.104l0.552 0.27c0.032 0.016 0.067 0.023 0.101 0.023 0.085 0 0.167-0.047 0.207-0.129 0.056-0.114 0.008-0.252-0.106-0.307l-0.552-0.27c-0.114-0.055-0.252-0.008-0.307 0.106-0.056 0.114-0.008 0.251 0.106 0.307zM6.325 17.4c0.127 0 0.23-0.103 0.23-0.23v-0.614c0-0.127-0.103-0.23-0.23-0.23s-0.23 0.103-0.23 0.23v0.614c0 0.127 0.103 0.23 0.23 0.23zM7.232 13.168c0.030 0 0.060-0.006 0.090-0.018l0.566-0.241c0.117-0.050 0.171-0.185 0.121-0.301-0.050-0.117-0.185-0.172-0.301-0.121l-0.566 0.241c-0.117 0.050-0.171 0.185-0.121 0.301 0.037 0.088 0.122 0.14 0.211 0.14zM6.325 15.863c0.127 0 0.23-0.103 0.23-0.23v-0.615c0-0.127-0.103-0.23-0.23-0.23s-0.23 0.103-0.23 0.23v0.615c0 0.127 0.103 0.23 0.23 0.23zM6.556 19.619c-0.006-0.127-0.118-0.233-0.24-0.219-0.127 0.006-0.225 0.113-0.219 0.24 0.011 0.241 0.073 0.472 0.185 0.685 0.041 0.078 0.121 0.123 0.204 0.123 0.036 0 0.072-0.008 0.107-0.026 0.113-0.058 0.156-0.198 0.097-0.31-0.081-0.153-0.125-0.319-0.133-0.492zM6.325 18.937c0.127 0 0.23-0.103 0.23-0.23v-0.615c0-0.127-0.103-0.23-0.23-0.23s-0.23 0.103-0.23 0.23v0.615c0 0.127 0.103 0.23 0.23 0.23zM10.060 11.966c0.030 0 0.060-0.006 0.090-0.018l0.367-0.156c0.056-0.024 0.113-0.043 0.171-0.058 0.123-0.031 0.198-0.156 0.166-0.28-0.031-0.123-0.156-0.198-0.28-0.166-0.081 0.021-0.16 0.047-0.238 0.080l-0.367 0.156c-0.117 0.050-0.171 0.185-0.121 0.301 0.037 0.088 0.122 0.14 0.211 0.14zM11.55 11.698h0.615c0.127 0 0.23-0.103 0.23-0.23s-0.103-0.23-0.23-0.23h-0.615c-0.127 0-0.23 0.103-0.23 0.23s0.103 0.23 0.23 0.23zM13.086 11.698h0.615c0.127 0 0.23-0.103 0.23-0.23s-0.103-0.23-0.23-0.23h-0.614c-0.127 0-0.23 0.103-0.23 0.23s0.103 0.23 0.229 0.23zM8.646 12.567c0.030 0 0.060-0.006 0.090-0.018l0.566-0.241c0.117-0.050 0.171-0.185 0.121-0.301-0.050-0.117-0.185-0.172-0.301-0.121l-0.566 0.241c-0.117 0.050-0.171 0.185-0.121 0.301 0.037 0.087 0.122 0.14 0.211 0.14z" fill="#000000" />
</svg>
