<?xml version="1.0" encoding="utf-8"?>
<!-- Generated by IcoMoon.io -->
<!DOCTYPE svg PUBLIC "-//W3C//DTD SVG 1.1//EN" "http://www.w3.org/Graphics/SVG/1.1/DTD/svg11.dtd">
<svg version="1.1" xmlns="http://www.w3.org/2000/svg" xmlns:xlink="http://www.w3.org/1999/xlink" width="32" height="32" viewBox="0 0 32 32">
<g>
</g>
	<path d="M22.061 7.237h-3.53l-0.49-1.629c-0.035-0.118-0.156-0.188-0.276-0.157l-7.158 1.787h-0.279c-0.17 0-0.306 0.137-0.306 0.306v5.264l-2.493-1.514c-0.109-0.066-0.25-0.032-0.315 0.077-0.066 0.109-0.032 0.25 0.077 0.316l2.731 1.659v1.926l-2.493-1.514c-0.109-0.066-0.25-0.032-0.315 0.077-0.066 0.109-0.032 0.25 0.077 0.316l2.731 1.658v8.603c0 0.17 0.137 0.306 0.306 0.306h0.324c-0.199 0.195-0.324 0.466-0.324 0.766 0 0.591 0.481 1.073 1.072 1.073 0.591 0 1.072-0.481 1.072-1.073 0-0.3-0.124-0.571-0.324-0.766h8.092c-0.199 0.195-0.324 0.466-0.324 0.766 0 0.591 0.481 1.073 1.072 1.073 0.591 0 1.072-0.481 1.072-1.073 0-0.3-0.125-0.571-0.324-0.766h0.324c0.169 0 0.306-0.137 0.306-0.306l-0-16.868c0-0.169-0.137-0.306-0.306-0.306zM17.664 5.95l0.387 1.287h-5.544l5.158-1.287zM10.635 7.85h11.119v0.806l-11.119-0v-0.806zM11.401 26.226c-0.41 0-0.743-0.333-0.743-0.742 0-0.409 0.333-0.742 0.743-0.742 0.41 0 0.742 0.333 0.742 0.742 0 0.41-0.333 0.742-0.742 0.742zM20.989 26.226c-0.41 0-0.742-0.333-0.742-0.742 0-0.409 0.333-0.742 0.742-0.742s0.742 0.333 0.742 0.742c0 0.41-0.333 0.742-0.742 0.742zM21.754 22.66h-0.901c-0.095 0-0.172-0.077-0.172-0.173 0-0.095 0.077-0.172 0.172-0.172h0.901v0.345zM21.754 22.008h-0.901c-0.264 0-0.479 0.215-0.479 0.479s0.215 0.479 0.479 0.479h0.901v1.138l-11.119 0v-3.131h11.119l-0 1.034zM21.754 19.079h-0.901c-0.095 0-0.172-0.078-0.172-0.173 0-0.095 0.077-0.173 0.172-0.173h0.901v0.345zM21.754 18.427h-0.901c-0.264 0-0.479 0.215-0.479 0.479s0.215 0.479 0.479 0.479h0.901v1.129l-11.119 0v-3.116h11.119l-0 1.029zM21.754 12.668h-0.901c-0.095 0-0.172-0.077-0.172-0.173 0-0.095 0.077-0.172 0.172-0.172h0.901v0.345zM21.754 12.017h-0.901c-0.264 0-0.479 0.214-0.479 0.479 0 0.264 0.215 0.479 0.479 0.479h0.901v3.963l-11.119 0v-6.005h11.119l-0 1.083zM21.754 10.474h-11.118v-1.358h11.119l-0 1.358z" fill="#000000" />
</svg>
