<?xml version="1.0" encoding="utf-8"?>
<!-- Generated by IcoMoon.io -->
<!DOCTYPE svg PUBLIC "-//W3C//DTD SVG 1.1//EN" "http://www.w3.org/Graphics/SVG/1.1/DTD/svg11.dtd">
<svg version="1.1" xmlns="http://www.w3.org/2000/svg" xmlns:xlink="http://www.w3.org/1999/xlink" width="32" height="32" viewBox="0 0 32 32">
<g>
</g>
	<path d="M28.864 23.656l-2.387-2.978c-0.030-0.328-0.19-0.617-0.426-0.822 0.262-0.227 0.431-0.559 0.431-0.932v-10.436c0-0.684-0.556-1.241-1.24-1.241l-16.75-0c-0.684 0-1.24 0.557-1.24 1.241v10.437c0 0.373 0.169 0.705 0.431 0.932-0.234 0.203-0.393 0.49-0.425 0.815l-2.577 2.976c-0.048 0.056-0.074 0.127-0.074 0.2 0 0.823 0.314 1.241 0.934 1.241l22.458 0c0.619 0 0.934-0.418 0.934-1.241 0-0.069-0.023-0.137-0.067-0.191zM7.863 18.924v-10.436c0-0.346 0.281-0.628 0.627-0.628h16.75c0.346 0 0.627 0.282 0.627 0.628v10.437c0 0.346-0.281 0.627-0.627 0.627h-16.75c-0.346 0-0.627-0.282-0.627-0.628zM27.997 24.476h-22.458c-0.134 0-0.299 0-0.32-0.516l2.569-2.967c0.048-0.056 0.075-0.127 0.075-0.2 0-0.347 0.281-0.628 0.627-0.628h16.75c0.346 0 0.627 0.281 0.627 0.628 0 0.070 0.024 0.137 0.068 0.192l2.38 2.97c-0.019 0.522-0.185 0.522-0.319 0.522zM24.42 8.568h-7.076c0.003-0.021 0.006-0.041 0.006-0.063 0-0.266-0.215-0.482-0.482-0.482-0.267 0-0.482 0.216-0.482 0.482 0 0.022 0.003 0.042 0.006 0.063h-7.076c-0.422 0-0.765 0.367-0.765 0.818v8.758c0 0.451 0.344 0.818 0.765 0.818h15.104c0.422 0 0.765-0.367 0.765-0.818v-8.758c0-0.451-0.343-0.818-0.765-0.818zM24.726 18.144c0 0.198-0.137 0.359-0.305 0.359h-15.104c-0.168 0-0.306-0.161-0.306-0.359l-0-8.757c0-0.198 0.137-0.359 0.306-0.359h15.104c0.169 0 0.305 0.161 0.305 0.359l0 8.757zM8.349 20.931c0-0.085 0.069-0.153 0.153-0.153h16.76c0.085 0 0.153 0.068 0.153 0.153 0 0.084-0.069 0.153-0.153 0.153h-16.76c-0.085 0-0.153-0.069-0.153-0.153zM7.801 21.966c0-0.085 0.069-0.153 0.153-0.153h17.776c0.084 0 0.153 0.068 0.153 0.153 0 0.084-0.069 0.153-0.153 0.153l-17.776 0c-0.085 0-0.154-0.069-0.154-0.154zM7.056 22.847h19.267c0.085 0 0.153 0.068 0.153 0.153 0 0.084-0.069 0.153-0.153 0.153l-19.267 0c-0.085 0-0.153-0.069-0.153-0.153 0-0.085 0.068-0.154 0.153-0.154zM22.733 11.252c0.047 0.070 0.029 0.165-0.041 0.212l-4.413 2.963c-0.026 0.018-0.056 0.026-0.086 0.026-0.049 0-0.097-0.024-0.126-0.068-0.047-0.070-0.030-0.165 0.041-0.212l4.413-2.963c0.070-0.047 0.165-0.029 0.213 0.041zM20.504 13.895c0.047 0.070 0.029 0.166-0.041 0.213l-3.494 2.361c-0.026 0.018-0.056 0.026-0.086 0.026-0.049 0-0.098-0.024-0.127-0.068-0.048-0.070-0.029-0.166 0.041-0.213l3.494-2.36c0.070-0.048 0.166-0.030 0.213 0.041z" fill="#000000" />
</svg>
