<?xml version="1.0" encoding="utf-8"?>
<!-- Generated by IcoMoon.io -->
<!DOCTYPE svg PUBLIC "-//W3C//DTD SVG 1.1//EN" "http://www.w3.org/Graphics/SVG/1.1/DTD/svg11.dtd">
<svg version="1.1" xmlns="http://www.w3.org/2000/svg" xmlns:xlink="http://www.w3.org/1999/xlink" width="32" height="32" viewBox="0 0 32 32">
<g>
</g>
	<path d="M14.722 19.319h5.417c0.104 0.318 0.478 1.044 1.73 1.044h0.315l-0.178-0.262c-0.002-0.003-0.204-0.31-0.144-0.559 0.022-0.091 0.078-0.164 0.172-0.223h1.542c0.324 0 0.588-0.263 0.588-0.587l0-4.237c0-0.325-0.264-0.588-0.588-0.588h-4.695v-2.64c0-0.324-0.264-0.588-0.588-0.588l-8.854 0c-0.324 0-0.588 0.264-0.588 0.588v4.238c0 0.324 0.264 0.587 0.588 0.587h1.542c0.093 0.059 0.15 0.133 0.171 0.223 0.060 0.249-0.142 0.556-0.144 0.559l-0.178 0.261h0.316c1.252 0 1.626-0.726 1.73-1.044h1.258v2.641c0 0.324 0.264 0.587 0.588 0.587zM18.882 15.504v-1.263h4.695c0.14 0 0.254 0.114 0.254 0.254v4.238c0 0.139-0.114 0.253-0.254 0.253h-1.63l-0.038 0.020c-0.199 0.109-0.324 0.263-0.371 0.459-0.047 0.196-0.003 0.396 0.054 0.55-1.035-0.113-1.154-0.85-1.158-0.883l-0.019-0.146-5.693-0c-0.14 0-0.254-0.114-0.254-0.253v-2.641h3.825c0.324 0 0.588-0.263 0.588-0.587zM14.469 15.757v-1.263c0-0.14 0.114-0.254 0.254-0.254h3.825v1.263c0 0.139-0.114 0.254-0.254 0.254h-3.825zM12.6 15.757l-0.019 0.146c-0.005 0.033-0.123 0.771-1.158 0.884 0.057-0.154 0.102-0.354 0.054-0.55-0.047-0.196-0.172-0.35-0.371-0.458l-0.038-0.020h-1.63c-0.14 0-0.254-0.114-0.254-0.254l0.001-4.238c0-0.14 0.114-0.254 0.254-0.254h8.854c0.14 0 0.254 0.114 0.254 0.254v2.64h-3.825c-0.324 0-0.588 0.263-0.588 0.588v1.263l-1.534 0zM25.664 6.56h-18.716c-0.199 0-0.36 0.161-0.36 0.36v18.716c0 0.199 0.161 0.36 0.36 0.36h2.305c0.029 0 0.057-0.004 0.085-0.010l6.557-1.588c0.194-0.046 0.312-0.241 0.265-0.435-0.046-0.194-0.242-0.312-0.435-0.265l-6.516 1.578h-1.902l0-17.995h17.996v17.996h-8.917c-0.199 0-0.36 0.161-0.36 0.36s0.161 0.36 0.36 0.36h9.277c0.199 0 0.36-0.161 0.36-0.36l0-18.716c0-0.198-0.161-0.36-0.36-0.36z" fill="#000000" />
</svg>
