<?xml version="1.0" encoding="utf-8"?>
<!-- Generated by IcoMoon.io -->
<!DOCTYPE svg PUBLIC "-//W3C//DTD SVG 1.1//EN" "http://www.w3.org/Graphics/SVG/1.1/DTD/svg11.dtd">
<svg version="1.1" xmlns="http://www.w3.org/2000/svg" xmlns:xlink="http://www.w3.org/1999/xlink" width="32" height="32" viewBox="0 0 32 32">
<g>
</g>
	<path d="M16.058 16.030c0 0.233 0.189 0.422 0.422 0.422s0.422-0.189 0.422-0.422c0-0.233-0.189-0.422-0.422-0.422-0.233 0-0.422 0.189-0.422 0.422zM14.658 15.608c-0 0.003-0 0.007-0 0.011 0 0.233 0.189 0.422 0.422 0.422 0.233 0 0.422-0.189 0.422-0.422 0-0.004-0-0.008-0-0.012 0-0.003 0-0.007 0-0.011 0-0.233-0.189-0.422-0.422-0.422-0.233 0-0.422 0.189-0.422 0.422 0 0.004 0 0.008 0 0.012zM17.417 15.608c-0 0.002-0 0.003-0 0.005 0 0.233 0.189 0.422 0.422 0.422 0.233 0 0.422-0.189 0.422-0.422 0-0.002 0-0.004-0-0.005 0-0.001 0-0.003 0-0.005 0-0.233-0.189-0.422-0.422-0.422-0.233 0-0.422 0.189-0.422 0.422 0 0.002 0 0.004 0 0.005zM18.26 14.548c-0 0.004-0 0.008-0 0.013 0 0.233 0.189 0.422 0.422 0.422 0.233 0 0.422-0.189 0.422-0.422 0-0.004-0-0.009-0-0.013 0-0.003 0-0.008 0-0.012 0-0.233-0.189-0.422-0.422-0.422-0.233 0-0.422 0.189-0.422 0.422 0 0.004 0 0.009 0 0.013zM18.796 13.322c-0 0.002-0 0.003-0 0.005 0 0.233 0.189 0.422 0.422 0.422 0.233 0 0.422-0.189 0.422-0.422 0-0.002 0-0.004-0-0.005 0-0.001 0-0.003 0-0.005 0-0.233-0.189-0.422-0.422-0.422-0.233 0-0.422 0.189-0.422 0.422 0 0.002 0 0.004 0 0.005zM13.815 14.548c-0 0.002-0 0.003-0 0.005 0 0.233 0.189 0.422 0.422 0.422 0.233 0 0.422-0.189 0.422-0.422 0-0.002 0-0.004-0-0.005 0-0.001 0-0.003 0-0.005 0-0.233-0.189-0.422-0.422-0.422-0.233 0-0.422 0.189-0.422 0.422 0 0.002 0 0.004 0 0.005zM13.394 13.322c-0 0.004-0 0.008-0 0.013 0 0.233 0.189 0.422 0.422 0.422 0.233 0 0.422-0.189 0.422-0.422 0-0.004-0-0.009-0-0.013 0-0.003 0-0.008 0-0.012 0-0.233-0.189-0.422-0.422-0.422-0.233 0-0.422 0.189-0.422 0.422 0 0.004 0 0.009 0 0.013zM16.479 11.106c2.346 0 4.255-1.909 4.255-4.255 0-2.346-1.909-4.255-4.255-4.255-2.346 0-4.254 1.909-4.254 4.255 0 2.346 1.909 4.255 4.254 4.255zM16.479 3.21c2.008 0 3.642 1.634 3.642 3.642 0 2.008-1.634 3.642-3.642 3.642-2.008 0-3.641-1.634-3.641-3.642 0-2.008 1.633-3.642 3.641-3.642zM18.813 11.931h-4.667c-4.338 0-6.726 2.389-6.726 6.726v3.747c0 2.124 1.411 3.161 2.905 4.261l0.198 0.146v1.706c0 0.075 0.027 0.147 0.077 0.203 0.292 0.332 1.58 1.413 5.88 1.413 4.299 0 5.587-1.081 5.88-1.413 0.049-0.056 0.077-0.128 0.077-0.203v-1.706l0.197-0.146c1.495-1.098 2.907-2.137 2.907-4.261l-0-3.747c-0-4.338-2.389-6.726-6.727-6.726zM24.926 22.404c0 1.814-1.23 2.719-2.655 3.766l0-7.807c0-0.148-0.12-0.268-0.268-0.268s-0.268 0.12-0.268 0.268v10.101c-0.44 0.346-1.768 1.055-5.255 1.055-3.616 0-4.91-0.761-5.3-1.091 0.007-0.024 0.015-0.048 0.015-0.075v-9.99c0-0.148-0.12-0.268-0.268-0.268s-0.268 0.12-0.268 0.268v7.786c-1.412-1.039-2.626-1.944-2.626-3.745l0-3.747c0-2.789 1.061-6.114 6.113-6.114h4.667c5.053 0 6.114 3.325 6.114 6.114l-0.001 3.747z" fill="#000000" />
</svg>
