<?xml version="1.0" encoding="utf-8"?>
<!-- Generated by IcoMoon.io -->
<!DOCTYPE svg PUBLIC "-//W3C//DTD SVG 1.1//EN" "http://www.w3.org/Graphics/SVG/1.1/DTD/svg11.dtd">
<svg version="1.1" xmlns="http://www.w3.org/2000/svg" xmlns:xlink="http://www.w3.org/1999/xlink" width="32" height="32" viewBox="0 0 32 32">
<g>
</g>
	<path d="M14.703 25.367c-0.546 0-1.252-0.359-1.606-0.817l-4.631-5.979c-0.389-0.503-0.34-1.277 0.109-1.726l0.629-0.629c0.215-0.215 0.497-0.334 0.794-0.334 0.326 0 0.636 0.146 0.852 0.4l3.304 4.022c0.172 0.202 0.392 0.186 0.53-0.044l7.009-11.804c0.215-0.358 0.609-0.579 1.029-0.579 0.213 0 0.422 0.057 0.604 0.164l0.625 0.368c0.563 0.331 0.759 1.063 0.437 1.631l-8.159 14.402c-0.294 0.518-0.963 0.924-1.526 0.924zM9.998 16.494c-0.133 0-0.261 0.055-0.36 0.154l-0.629 0.629c-0.235 0.235-0.262 0.655-0.058 0.918l4.631 5.979c0.239 0.309 0.763 0.579 1.122 0.579 0.344 0 0.808-0.286 0.992-0.613l8.159-14.402c0.158-0.279 0.062-0.638-0.214-0.801l-0.625-0.368c-0.265-0.156-0.64-0.058-0.797 0.202l-7.009 11.804c-0.186 0.31-0.476 0.487-0.796 0.487v0c-0.271 0-0.529-0.129-0.727-0.362l-3.304-4.022c-0.101-0.119-0.238-0.185-0.386-0.185z" fill="#000000" />
</svg>
