<?xml version="1.0" encoding="utf-8"?>
<!-- Generator: Adobe Illustrator 16.0.4, SVG Export Plug-In . SVG Version: 6.00 Build 0)  -->
<!DOCTYPE svg PUBLIC "-//W3C//DTD SVG 1.1//EN" "http://www.w3.org/Graphics/SVG/1.1/DTD/svg11.dtd">
<svg version="1.1" id="Layer_1" xmlns="http://www.w3.org/2000/svg" xmlns:xlink="http://www.w3.org/1999/xlink" x="0px" y="0px"
	 width="116.084px" height="53.847px" viewBox="0 0 116.084 53.847" enable-background="new 0 0 116.084 53.847"
	 xml:space="preserve">
<g>
	<path d="M77.251,10.018v23.641v0.932c0,0.389-0.315,0.703-0.703,0.703H23.369c-0.388,0-0.703-0.314-0.703-0.703v-0.932V10.018
		c0-0.389,0.314-0.703,0.703-0.703h53.179C76.936,9.315,77.251,9.629,77.251,10.018z M75.846,10.72H24.071v22.235h51.774V10.72z"/>
	<path d="M29.524,31.184c0.194,0,0.351-0.156,0.351-0.351v-18c0-0.194-0.157-0.352-0.351-0.352s-0.352,0.157-0.352,0.352v18
		C29.173,31.027,29.33,31.184,29.524,31.184z"/>
	<path d="M36.322,31.184c0.194,0,0.351-0.156,0.351-0.351v-18c0-0.194-0.157-0.352-0.351-0.352s-0.352,0.157-0.352,0.352v18
		C35.971,31.027,36.128,31.184,36.322,31.184z"/>
	<path d="M43.14,31.184c0.194,0,0.352-0.156,0.352-0.351v-18c0-0.194-0.157-0.352-0.352-0.352c-0.194,0-0.351,0.157-0.351,0.352v18
		C42.789,31.027,42.946,31.184,43.14,31.184z"/>
	<path d="M49.958,31.307c0.194,0,0.351-0.157,0.351-0.352v-18c0-0.194-0.157-0.352-0.351-0.352s-0.352,0.157-0.352,0.352v18
		C49.607,31.149,49.764,31.307,49.958,31.307z"/>
	<path d="M56.776,31.184c0.193,0,0.352-0.156,0.352-0.351v-18c0-0.194-0.158-0.352-0.352-0.352c-0.195,0-0.352,0.157-0.352,0.352v18
		C56.425,31.027,56.581,31.184,56.776,31.184z"/>
	<path d="M63.596,31.184c0.193,0,0.351-0.156,0.351-0.351v-18c0-0.194-0.157-0.352-0.351-0.352c-0.195,0-0.352,0.157-0.352,0.352v18
		C63.244,31.027,63.4,31.184,63.596,31.184z"/>
	<path d="M70.413,31.184c0.194,0,0.351-0.156,0.351-0.351v-18c0-0.194-0.156-0.352-0.351-0.352c-0.193,0-0.352,0.157-0.352,0.352v18
		C70.062,31.027,70.22,31.184,70.413,31.184z"/>
</g>
<path d="M18.832,47.418c-0.092,0-0.184-0.018-0.27-0.051C14.254,45.706,5.51,38.646,5.333,33.736
	c-0.007-0.203,0.068-0.4,0.209-0.547c0.142-0.146,0.336-0.229,0.54-0.229h12.5c0.322,0,0.608,0.206,0.711,0.511l1.453,4.322h58.603
	l1.892-10.878c0.062-0.359,0.375-0.622,0.739-0.622h26.353c0.286,0,0.548,0.163,0.674,0.42s0.094,0.564-0.082,0.79
	c-1.011,1.3-9.071,11.579-13.631,14.861c0.663,0.329,1.354,0.834,1.736,1.593c0.301,0.594,0.519,1.582-0.151,2.922
	c-0.127,0.254-0.386,0.414-0.67,0.414L18.832,47.418C18.833,47.418,18.833,47.418,18.832,47.418z M6.945,34.46
	c1.002,4.079,8.28,9.942,12.029,11.458l76.737-0.124c0.152-0.45,0.146-0.831-0.019-1.157c-0.426-0.847-1.835-1.266-2.342-1.355
	c-0.336-0.059-0.591-0.338-0.618-0.678c-0.027-0.341,0.179-0.656,0.501-0.77c2.702-0.939,9.977-9.557,13.553-14.041H82.61
	l-1.892,10.879c-0.062,0.359-0.375,0.621-0.739,0.621H20.207c-0.322,0-0.608-0.205-0.711-0.511l-1.453-4.322H6.945z"/>
<path d="M15.832,31.459h-7.75c-0.14,0-0.273-0.059-0.368-0.161s-0.142-0.241-0.13-0.38l1-11.917
	c0.021-0.259,0.238-0.458,0.498-0.458h6.75c0.276,0,0.5,0.224,0.5,0.5v11.916C16.332,31.236,16.108,31.459,15.832,31.459z
	 M8.626,30.459h6.706V19.543h-5.79L8.626,30.459z"/>
<path d="M9.999,19.543c-0.276,0-0.5-0.224-0.5-0.5v-12c0-0.276,0.224-0.5,0.5-0.5s0.5,0.224,0.5,0.5v12
	C10.499,19.319,10.275,19.543,9.999,19.543z"/>
<path d="M89.967,44.335h-71.01c-0.276,0-0.5-0.224-0.5-0.5s0.224-0.5,0.5-0.5h71.01c0.276,0,0.5,0.224,0.5,0.5
	S90.243,44.335,89.967,44.335z"/>
</svg>
