<?xml version="1.0" encoding="utf-8"?>
<!-- Generated by IcoMoon.io -->
<!DOCTYPE svg PUBLIC "-//W3C//DTD SVG 1.1//EN" "http://www.w3.org/Graphics/SVG/1.1/DTD/svg11.dtd">
<svg version="1.1" xmlns="http://www.w3.org/2000/svg" xmlns:xlink="http://www.w3.org/1999/xlink" width="32" height="32" viewBox="0 0 32 32">
<g>
</g>
	<path d="M16 7.931c-4.449 0-8.069 3.62-8.069 8.069s3.62 8.070 8.069 8.070c4.45 0 8.069-3.621 8.069-8.070 0-4.449-3.62-8.069-8.069-8.069zM16 23.566c-4.172 0-7.566-3.394-7.566-7.566 0-4.172 3.394-7.566 7.566-7.566 4.172 0 7.567 3.394 7.567 7.566 0 4.172-3.394 7.566-7.567 7.566zM17.036 10.882h-4.13c-0.104 0-0.189 0.084-0.189 0.188v10.121c0 0.104 0.084 0.189 0.189 0.189h2.024c0.104 0 0.189-0.085 0.189-0.189l-0-3.397h1.744c2.444 0 3.846-1.281 3.846-3.514 0-2.065-1.442-3.398-3.673-3.398zM16.863 17.417h-1.933c-0.104 0-0.189 0.084-0.189 0.188v3.397h-1.647v-9.744h3.941c1.594 0 3.296 0.794 3.296 3.021 0 2.73-2.174 3.138-3.469 3.138zM16.964 12.848h-2.034c-0.104 0-0.189 0.084-0.189 0.189v2.602c0 0.104 0.084 0.189 0.189 0.189h2.062c1.054 0 1.635-0.534 1.635-1.504-0-0.937-0.606-1.475-1.663-1.475zM16.993 15.45h-1.874v-2.226h1.845c0.854 0 1.286 0.369 1.286 1.098 0 0.759-0.411 1.127-1.258 1.127z" fill="#000000" />
</svg>
