<?xml version="1.0" encoding="utf-8"?>
<!-- Generated by IcoMoon.io -->
<!DOCTYPE svg PUBLIC "-//W3C//DTD SVG 1.1//EN" "http://www.w3.org/Graphics/SVG/1.1/DTD/svg11.dtd">
<svg version="1.1" xmlns="http://www.w3.org/2000/svg" xmlns:xlink="http://www.w3.org/1999/xlink" width="32" height="32" viewBox="0 0 32 32">
<g>
</g>
	<path d="M9.022 21.338l-2.685 4.743-0.020 0.043c-0.124 0.33-0.187 0.673-0.187 1.018 0 1.595 1.298 2.893 2.893 2.893 1.595 0 2.893-1.297 2.893-2.893 0-0.345-0.063-0.687-0.187-1.018l-2.706-4.786zM9.022 29.421c-1.257 0-2.28-1.022-2.28-2.28 0-0.263 0.047-0.526 0.14-0.78l2.139-3.78 2.139 3.78c0.094 0.254 0.14 0.517 0.14 0.78 0.001 1.258-1.022 2.28-2.279 2.28zM24.923 12.034h-3.14c-0.17 0-0.306 0.137-0.306 0.306v1.246h-1.71c-0.442-1.119-1.306-2.008-2.413-2.483v-2.467c0-0.17-0.137-0.306-0.306-0.306h-0.747v-0.791c0.155-0.094 0.293-0.217 0.403-0.366l3.52 0.202c0.032 0.004 0.063 0.007 0.095 0.007 0.57 0 1.033-0.463 1.033-1.033 0-0.634-0.56-1.143-1.23-1.014l-3.415 0.195c-0.26-0.359-0.673-0.574-1.12-0.574-0.446 0-0.86 0.215-1.12 0.573l-3.546-0.201c0 0-0.148-0.013-0.227-0.013-0.57 0-1.033 0.463-1.033 1.033 0 0.569 0.463 1.033 1.033 1.033 0.074 0 0.213-0.006 0.217-0.006l3.56-0.202c0.103 0.14 0.23 0.257 0.374 0.348v0.808h-0.666c-0.169 0-0.306 0.137-0.306 0.306v2.428c-1.152 0.47-2.073 1.411-2.518 2.574-2.139 0.164-3.846 1.853-4.040 3.98h-0.362c-0.17 0-0.306 0.137-0.306 0.306v2.539c0 0.17 0.137 0.306 0.306 0.306h4.208c0.17 0 0.306-0.137 0.306-0.306v-2.539c0-0.17-0.137-0.306-0.306-0.306h-0.185c0.111-0.201 0.303-0.349 0.53-0.401 0.753 1.553 2.324 2.544 4.064 2.544 1.766 0 3.35-1.016 4.091-2.605h1.816v1.264c0 0.17 0.137 0.306 0.306 0.306h3.14c0.17 0 0.306-0.137 0.306-0.306l0.001-6.079c0.001-0.17-0.137-0.306-0.306-0.306zM10.881 6.763c0 0-0.121 0.006-0.187 0.006-0.232 0-0.42-0.188-0.42-0.42s0.189-0.42 0.42-0.42c0.060 0 0.171 0.010 0.183 0.011l3.933 0.223 0.092-0.174c0.136-0.259 0.399-0.419 0.685-0.419s0.55 0.161 0.685 0.42l0.092 0.175 3.863-0.224c0.034-0.007 0.064-0.011 0.092-0.011 0.232 0 0.42 0.189 0.42 0.42 0 0.23-0.186 0.418-0.428 0.418-0.001 0-0.002 0-0.004 0l-3.945-0.228-0.092 0.173c-0.137 0.257-0.399 0.416-0.683 0.416s-0.546-0.159-0.683-0.415l-0.092-0.172-3.931 0.222zM15.152 7.668c0.139 0.046 0.285 0.073 0.436 0.073 0.14 0 0.277-0.024 0.407-0.064v0.653h-0.843l-0-0.662zM24.617 18.114h-2.527v-1.264c0-0.17-0.137-0.306-0.306-0.306h-2.322c-0.124 0-0.236 0.075-0.284 0.19-0.605 1.467-2.021 2.416-3.607 2.416-1.57 0-2.981-0.934-3.594-2.379-0.048-0.114-0.159-0.187-0.282-0.187-0.749 0.001-1.364 0.566-1.43 1.315-0.008 0.086 0.021 0.171 0.079 0.234s0.14 0.099 0.226 0.099h0.284v1.926h-3.595v-1.926h0.345c0.166 0 0.302-0.133 0.306-0.299 0.048-2.013 1.662-3.634 3.674-3.693 0.129-0.004 0.242-0.088 0.282-0.211 0.377-1.144 1.279-2.065 2.414-2.463 0.122-0.043 0.205-0.159 0.205-0.289v-2.333h2.256l-0 2.366c0 0.128 0.080 0.242 0.199 0.287 1.1 0.413 1.946 1.285 2.323 2.394 0.042 0.124 0.159 0.208 0.29 0.208h2.23c0.17 0 0.306-0.137 0.306-0.306v-1.246h2.527l0 5.466zM9.756 17.934h-1.341c-0.085 0-0.153 0.069-0.153 0.153 0 0.085 0.068 0.153 0.153 0.153h1.341c0.084 0 0.153-0.068 0.153-0.153 0-0.085-0.069-0.153-0.153-0.153zM16.065 11.229h-0.938c-0.085 0-0.153 0.068-0.153 0.153 0 0.084 0.068 0.153 0.153 0.153h0.938c0.085 0 0.153-0.069 0.153-0.153 0-0.085-0.068-0.153-0.153-0.153zM21.934 14.594c-0.084 0-0.153 0.069-0.153 0.153v1.162c0 0.084 0.069 0.153 0.153 0.153 0.085 0 0.153-0.069 0.153-0.153v-1.162c-0-0.085-0.068-0.153-0.153-0.153zM10.611 26.694c-0.080 0.030-0.12 0.118-0.090 0.197 0.060 0.159 0.090 0.323 0.090 0.488 0 0.764-0.621 1.386-1.386 1.386-0.085 0-0.153 0.069-0.153 0.153 0 0.085 0.068 0.153 0.153 0.153 0.933 0 1.692-0.759 1.692-1.692 0-0.202-0.037-0.402-0.11-0.596-0.030-0.080-0.118-0.12-0.197-0.090z" fill="#000000" />
</svg>
