<?xml version="1.0" encoding="utf-8"?>
<!-- Generated by IcoMoon.io -->
<!DOCTYPE svg PUBLIC "-//W3C//DTD SVG 1.1//EN" "http://www.w3.org/Graphics/SVG/1.1/DTD/svg11.dtd">
<svg version="1.1" xmlns="http://www.w3.org/2000/svg" xmlns:xlink="http://www.w3.org/1999/xlink" width="32" height="32" viewBox="0 0 32 32">
<g>
</g>
	<path d="M24.584 6.887h-17.168c-0.169 0-0.306 0.137-0.306 0.306v17.613c0 0.17 0.137 0.306 0.306 0.306h17.167c0.169 0 0.306-0.137 0.306-0.306l0-17.613c0-0.169-0.137-0.306-0.306-0.306zM24.278 24.5h-16.555v-17.001h16.554l0 17.001zM8.582 23.684h14.722c0.127 0 0.23-0.103 0.23-0.23v-14.722c0-0.127-0.103-0.23-0.23-0.23h-2.055c-0.035-0.141-0.132-0.424-0.362-0.56-0.138-0.081-0.301-0.097-0.459-0.043-0.254 0.086-0.436 0.258-0.527 0.497-0.013 0.035-0.023 0.070-0.032 0.107l-7.785-0c-0.036-0.142-0.132-0.424-0.362-0.56-0.138-0.081-0.301-0.097-0.459-0.043-0.253 0.086-0.436 0.258-0.526 0.497-0.013 0.035-0.023 0.070-0.032 0.107h-2.121c-0.127 0-0.23 0.103-0.23 0.23v14.722c0 0.126 0.103 0.23 0.23 0.23zM11.425 8.493c0.002 0.002 0.003 0.007 0.005 0.010h-0.022c0.006-0.003 0.010-0.007 0.017-0.010zM8.812 8.962h1.869c0.059 0.551 0.366 1.108 0.413 1.19 0.057 0.099 0.16 0.155 0.267 0.155 0.051 0 0.104-0.013 0.151-0.040 0.147-0.084 0.198-0.271 0.114-0.418-0.108-0.19-0.276-0.57-0.328-0.886h8.548c0.059 0.551 0.366 1.108 0.413 1.19 0.057 0.099 0.16 0.155 0.267 0.155 0.051 0 0.104-0.013 0.151-0.040 0.147-0.084 0.198-0.271 0.115-0.418-0.109-0.19-0.277-0.57-0.328-0.886h2.611v2.17h-14.262l-0-2.17zM8.812 11.591h14.262v11.633h-14.262v-11.633zM11.883 9.324c-0.067-0.052-0.163-0.040-0.215 0.027-0.052 0.066-0.040 0.163 0.027 0.215 0.075 0.058 0.131 0.128 0.167 0.206 0.061 0.134 0.066 0.284 0.014 0.422-0.052 0.138-0.154 0.247-0.287 0.307-0.134 0.060-0.283 0.065-0.421 0.013-0.138-0.051-0.248-0.154-0.308-0.288-0.036-0.080-0.051-0.168-0.045-0.262 0.006-0.085-0.059-0.157-0.144-0.163-0.088-0.001-0.157 0.059-0.162 0.144-0.009 0.144 0.015 0.281 0.072 0.406 0.094 0.209 0.264 0.368 0.479 0.45 0.098 0.037 0.201 0.055 0.302 0.055 0.12 0 0.24-0.026 0.354-0.077 0.208-0.094 0.367-0.264 0.448-0.478 0.081-0.215 0.073-0.448-0.022-0.657-0.057-0.124-0.143-0.232-0.258-0.321zM21.049 9.324c-0.067-0.052-0.163-0.041-0.215 0.026-0.052 0.067-0.040 0.163 0.027 0.215 0.075 0.058 0.131 0.128 0.167 0.206 0.061 0.134 0.066 0.284 0.014 0.422-0.052 0.138-0.154 0.247-0.288 0.308-0.133 0.060-0.283 0.066-0.421 0.013-0.138-0.051-0.247-0.154-0.308-0.288-0.036-0.079-0.051-0.167-0.045-0.262 0.005-0.085-0.059-0.157-0.144-0.162-0.083-0.006-0.157 0.060-0.162 0.144-0.008 0.144 0.016 0.281 0.072 0.406 0.094 0.209 0.265 0.368 0.479 0.45 0.098 0.037 0.2 0.055 0.302 0.055 0.12 0 0.24-0.026 0.353-0.077 0.208-0.094 0.367-0.265 0.448-0.479 0.081-0.214 0.073-0.447-0.022-0.656-0.056-0.124-0.143-0.232-0.257-0.321zM16.506 17.402c-0.125-0.14-0.274-0.254-0.441-0.339-0.056-0.029-0.113-0.054-0.169-0.078 0.023-0.015 0.045-0.029 0.068-0.044 0.128-0.087 0.242-0.195 0.337-0.32 0.093-0.123 0.17-0.266 0.23-0.426 0.060-0.163 0.090-0.354 0.090-0.566 0-0.396-0.074-0.74-0.221-1.022-0.147-0.282-0.36-0.516-0.632-0.693-0.266-0.172-0.586-0.298-0.952-0.372-0.356-0.073-0.758-0.11-1.195-0.11-0.321 0-0.621 0.025-0.89 0.074-0.271 0.048-0.526 0.118-0.759 0.206-0.229 0.086-0.447 0.189-0.649 0.305-0.195 0.113-0.38 0.238-0.551 0.373-0.065 0.051-0.078 0.144-0.029 0.21l0.935 1.282c0.050 0.067 0.144 0.083 0.212 0.034 0.265-0.187 0.533-0.334 0.799-0.434 0.26-0.099 0.557-0.148 0.881-0.148 0.399 0 0.587 0.067 0.675 0.124 0.108 0.069 0.158 0.165 0.158 0.302 0 0.125-0.019 0.288-0.111 0.351-0.052 0.036-0.194 0.095-0.559 0.095h-0.914c-0.085 0-0.153 0.069-0.153 0.153v1.534c0 0.085 0.068 0.153 0.153 0.153h1.026c0.415 0 0.606 0.069 0.693 0.127 0.108 0.072 0.16 0.204 0.16 0.402 0 0.194-0.065 0.325-0.204 0.414-0.157 0.102-0.43 0.153-0.811 0.153-0.371 0-0.718-0.065-1.030-0.192-0.316-0.129-0.619-0.303-0.899-0.518-0.066-0.050-0.161-0.040-0.213 0.026l-1.016 1.28c-0.051 0.064-0.042 0.156 0.019 0.211 0.397 0.349 0.861 0.627 1.378 0.826 0.518 0.199 1.097 0.3 1.722 0.3 0.492 0 0.942-0.047 1.336-0.141 0.404-0.096 0.753-0.248 1.036-0.452 0.287-0.207 0.511-0.475 0.667-0.794 0.156-0.318 0.234-0.7 0.234-1.135 0-0.242-0.038-0.462-0.112-0.654-0.076-0.192-0.176-0.36-0.298-0.499zM16.406 19.557c-0.134 0.274-0.326 0.503-0.571 0.68-0.25 0.181-0.562 0.316-0.926 0.402-0.371 0.089-0.797 0.133-1.266 0.133-0.587 0-1.13-0.094-1.612-0.28-0.436-0.168-0.83-0.394-1.174-0.676l0.832-1.049c0.267 0.191 0.552 0.349 0.849 0.469 0.35 0.142 0.734 0.214 1.146 0.214 0.447 0 0.767-0.066 0.977-0.202 0.226-0.145 0.345-0.377 0.345-0.672 0-0.304-0.099-0.524-0.296-0.657-0.181-0.12-0.463-0.178-0.862-0.178h-0.873v-1.228h0.76c0.346 0 0.586-0.049 0.733-0.149 0.162-0.111 0.244-0.314 0.244-0.604 0-0.242-0.104-0.436-0.298-0.56-0.179-0.117-0.454-0.173-0.84-0.173-0.362 0-0.695 0.056-0.99 0.168-0.248 0.094-0.497 0.223-0.743 0.385l-0.759-1.040c0.126-0.092 0.259-0.179 0.398-0.259 0.187-0.108 0.389-0.203 0.603-0.283 0.215-0.082 0.452-0.146 0.704-0.191 0.252-0.045 0.534-0.069 0.837-0.069 0.416 0 0.798 0.035 1.133 0.103 0.329 0.068 0.614 0.178 0.847 0.33 0.227 0.148 0.404 0.342 0.527 0.578 0.123 0.238 0.186 0.534 0.186 0.88 0 0.176-0.024 0.331-0.071 0.459-0.050 0.133-0.111 0.246-0.187 0.347-0.074 0.098-0.164 0.183-0.265 0.251-0.109 0.074-0.223 0.14-0.338 0.198-0.057 0.029-0.091 0.090-0.083 0.154 0.007 0.064 0.053 0.117 0.115 0.132 0.15 0.038 0.295 0.092 0.441 0.166 0.133 0.068 0.251 0.158 0.351 0.27 0.098 0.11 0.179 0.247 0.241 0.406 0.060 0.157 0.091 0.339 0.091 0.544-0 0.388-0.069 0.724-0.204 1zM20.654 13.544h-1.646c-0.066 0-0.124 0.042-0.146 0.105-0.050 0.151-0.11 0.281-0.178 0.389-0.062 0.099-0.142 0.181-0.238 0.243-0.099 0.065-0.224 0.116-0.37 0.152-0.149 0.038-0.338 0.064-0.561 0.078-0.081 0.005-0.144 0.072-0.144 0.153v1.25c0 0.085 0.069 0.153 0.153 0.153h1.046v4.746c0 0.084 0.069 0.153 0.153 0.153h1.931c0.085 0 0.153-0.069 0.153-0.153l-0-7.115c0-0.085-0.069-0.153-0.153-0.153zM20.501 20.66h-1.624v-4.746c0-0.085-0.069-0.153-0.153-0.153h-1.046v-0.955c0.182-0.016 0.338-0.041 0.473-0.075 0.179-0.045 0.335-0.11 0.463-0.193 0.134-0.087 0.246-0.2 0.33-0.337 0.065-0.102 0.122-0.219 0.173-0.351h1.385l0 6.809z" fill="#000000" />
</svg>
