<?xml version="1.0" encoding="utf-8"?>
<!-- Generated by IcoMoon.io -->
<!DOCTYPE svg PUBLIC "-//W3C//DTD SVG 1.1//EN" "http://www.w3.org/Graphics/SVG/1.1/DTD/svg11.dtd">
<svg version="1.1" xmlns="http://www.w3.org/2000/svg" xmlns:xlink="http://www.w3.org/1999/xlink" width="32" height="32" viewBox="0 0 32 32">
<g>
</g>
	<path d="M28.485 16.87c0-1.223-2.704-2.078-6.245-2.526 0.553-0.713 1.051-1.403 1.469-2.050 1.383-2.144 1.773-3.542 1.159-4.156-0.187-0.187-0.45-0.282-0.783-0.282-1.099 0-3.092 1.099-5.423 2.907-0.448-3.54-1.303-6.243-2.526-6.243-1.222 0-2.078 2.703-2.525 6.244-2.331-1.809-4.324-2.908-5.424-2.908-0.333 0-0.597 0.095-0.783 0.281-0.614 0.614-0.224 2.012 1.159 4.156 0.418 0.647 0.916 1.338 1.469 2.050-3.541 0.447-6.245 1.303-6.245 2.526s2.704 2.078 6.245 2.526c-0.553 0.713-1.051 1.403-1.469 2.050-1.383 2.144-1.773 3.543-1.159 4.156 0.187 0.187 0.45 0.282 0.784 0.282 1.1 0 3.093-1.099 5.424-2.908 0.447 3.54 1.303 6.243 2.525 6.243 1.223 0 2.078-2.703 2.526-6.243 2.331 1.808 4.323 2.908 5.423 2.908 0.333 0 0.596-0.095 0.783-0.282 0.614-0.614 0.224-2.012-1.159-4.156-0.418-0.647-0.916-1.337-1.469-2.050 3.54-0.448 6.245-1.303 6.245-2.526zM24.084 8.426c0.176 0 0.304 0.038 0.38 0.115 0.277 0.277 0.12 1.344-1.235 3.444-0.462 0.716-1.019 1.484-1.65 2.282-0.846-0.092-1.73-0.163-2.63-0.21-0.047-0.902-0.118-1.787-0.211-2.634 2.494-1.973 4.433-2.996 5.345-2.996zM18.454 16.87c0 0.325-0.004 0.642-0.009 0.954-0.221 0.228-0.442 0.457-0.671 0.685-0.23 0.23-0.457 0.451-0.683 0.67-0.314 0.005-0.631 0.009-0.956 0.009-0.325 0-0.642-0.004-0.956-0.009-0.226-0.219-0.453-0.44-0.683-0.67-0.227-0.227-0.449-0.455-0.669-0.683-0.005-0.314-0.009-0.631-0.009-0.956 0-0.325 0.004-0.642 0.009-0.956 0.22-0.228 0.442-0.456 0.669-0.683 0.23-0.23 0.457-0.451 0.683-0.67 0.314-0.005 0.631-0.009 0.956-0.009s0.642 0.004 0.956 0.009c0.226 0.219 0.453 0.44 0.683 0.67 0.228 0.228 0.45 0.456 0.671 0.685 0.005 0.313 0.009 0.63 0.009 0.954zM18.178 14.829c-0.084-0.084-0.168-0.165-0.252-0.248 0.162 0.005 0.323 0.011 0.482 0.018 0.006 0.159 0.013 0.32 0.018 0.483-0.083-0.084-0.164-0.169-0.248-0.253zM17.326 13.996c-0.257-0.246-0.514-0.487-0.769-0.723 0.573-0.517 1.127-0.995 1.659-1.43 0.069 0.684 0.124 1.414 0.165 2.187-0.35-0.014-0.702-0.026-1.055-0.034zM16.485 13.984c-0.117-0.001-0.234-0.002-0.35-0.002-0.116 0-0.233 0.001-0.35 0.002 0.117-0.109 0.235-0.223 0.35-0.33 0.116 0.107 0.233 0.221 0.35 0.33zM14.944 13.996c-0.352 0.008-0.704 0.019-1.054 0.034 0.040-0.773 0.096-1.503 0.165-2.186 0.531 0.436 1.086 0.913 1.658 1.43-0.255 0.235-0.512 0.476-0.769 0.723zM14.345 14.581c-0.084 0.083-0.168 0.163-0.252 0.248-0.084 0.084-0.164 0.168-0.246 0.252 0.005-0.162 0.011-0.323 0.018-0.482 0.159-0.006 0.319-0.013 0.481-0.018zM13.262 15.678c-0.246 0.257-0.486 0.513-0.722 0.769-0.504-0.56-0.981-1.114-1.426-1.658 0.682-0.069 1.41-0.124 2.181-0.164-0.015 0.35-0.026 0.701-0.034 1.053zM13.25 16.522c-0.001 0.116-0.002 0.233-0.002 0.349s0.001 0.232 0.002 0.349c-0.109-0.116-0.22-0.232-0.327-0.349 0.107-0.116 0.218-0.232 0.327-0.349zM13.262 18.064c0.008 0.351 0.019 0.703 0.034 1.053-0.77-0.040-1.499-0.096-2.181-0.164 0.445-0.544 0.922-1.098 1.426-1.657 0.236 0.256 0.476 0.512 0.722 0.769zM13.846 18.661c0.083 0.084 0.163 0.168 0.246 0.252 0.084 0.084 0.168 0.164 0.252 0.247-0.162-0.005-0.322-0.011-0.481-0.018-0.006-0.159-0.013-0.319-0.018-0.481zM14.944 19.745c0.257 0.246 0.514 0.487 0.769 0.723-0.573 0.517-1.126 0.994-1.658 1.43-0.069-0.683-0.124-1.413-0.165-2.186 0.35 0.015 0.702 0.026 1.054 0.034zM15.786 19.757c0.117 0.001 0.233 0.002 0.35 0.002s0.233-0.001 0.35-0.002c-0.117 0.109-0.235 0.223-0.35 0.329-0.115-0.106-0.234-0.22-0.35-0.329zM17.326 19.745c0.352-0.008 0.704-0.019 1.055-0.034-0.040 0.773-0.096 1.503-0.165 2.187-0.532-0.436-1.086-0.913-1.659-1.43 0.256-0.236 0.512-0.477 0.769-0.723zM17.926 19.16c0.084-0.083 0.168-0.163 0.252-0.247s0.164-0.169 0.248-0.253c-0.005 0.163-0.011 0.323-0.018 0.482-0.159 0.007-0.319 0.013-0.482 0.018zM19.010 18.062c0.246-0.256 0.485-0.512 0.721-0.768 0.504 0.56 0.981 1.114 1.426 1.657-0.682 0.069-1.41 0.124-2.18 0.164 0.015-0.35 0.026-0.702 0.034-1.054zM19.022 17.218c0.001-0.116 0.002-0.231 0.002-0.347s-0.001-0.231-0.002-0.347c0.109 0.116 0.219 0.231 0.326 0.347-0.107 0.116-0.217 0.231-0.326 0.347zM19.010 15.679c-0.008-0.352-0.019-0.704-0.034-1.054 0.77 0.040 1.498 0.096 2.18 0.164-0.445 0.544-0.922 1.098-1.426 1.658-0.235-0.256-0.475-0.512-0.72-0.768zM16.135 5.090c0.682 0 1.552 2.223 2.008 6.085-0.651 0.523-1.323 1.096-2.008 1.714-0.684-0.618-1.356-1.191-2.007-1.714 0.456-3.861 1.326-6.085 2.007-6.085zM9.041 11.985c-1.354-2.1-1.512-3.167-1.235-3.444 0.076-0.076 0.204-0.115 0.381-0.115 0.912 0 2.852 1.023 5.346 2.997-0.093 0.846-0.163 1.732-0.211 2.634-0.901 0.047-1.786 0.118-2.632 0.21-0.63-0.797-1.187-1.565-1.649-2.282zM4.356 16.87c0-0.681 2.223-1.552 6.084-2.007 0.527 0.656 1.102 1.328 1.716 2.007-0.613 0.68-1.188 1.352-1.716 2.008-3.861-0.456-6.084-1.326-6.084-2.008zM8.186 25.315c-0.176 0-0.304-0.039-0.381-0.115-0.277-0.277-0.12-1.345 1.235-3.444 0.462-0.717 1.019-1.485 1.649-2.282 0.846 0.093 1.731 0.163 2.632 0.211 0.047 0.902 0.118 1.787 0.211 2.634-2.494 1.973-4.434 2.996-5.346 2.996zM16.135 28.65c-0.681 0-1.551-2.223-2.007-6.085 0.651-0.523 1.323-1.096 2.007-1.714 0.684 0.618 1.357 1.191 2.008 1.714-0.456 3.861-1.326 6.085-2.008 6.085zM23.23 21.756c1.354 2.1 1.512 3.167 1.235 3.444-0.076 0.076-0.204 0.115-0.38 0.115-0.912 0-2.851-1.022-5.345-2.996 0.093-0.847 0.163-1.732 0.211-2.634 0.901-0.047 1.785-0.118 2.63-0.21 0.63 0.797 1.187 1.565 1.649 2.282zM21.831 18.878c-0.527-0.656-1.102-1.328-1.715-2.008 0.613-0.68 1.188-1.352 1.716-2.007 3.861 0.456 6.084 1.326 6.084 2.007-0 0.682-2.223 1.552-6.084 2.008zM16.135 15.657c-0.669 0-1.214 0.544-1.214 1.214s0.544 1.214 1.214 1.214c0.67 0 1.215-0.545 1.215-1.214s-0.545-1.214-1.215-1.214zM16.135 17.515c-0.355 0-0.644-0.289-0.644-0.644 0-0.355 0.289-0.644 0.644-0.644 0.356 0 0.645 0.289 0.645 0.644 0 0.355-0.289 0.644-0.645 0.644z" fill="#000000" />
</svg>
