<?xml version="1.0" encoding="utf-8"?>
<!-- Generated by IcoMoon.io -->
<!DOCTYPE svg PUBLIC "-//W3C//DTD SVG 1.1//EN" "http://www.w3.org/Graphics/SVG/1.1/DTD/svg11.dtd">
<svg version="1.1" xmlns="http://www.w3.org/2000/svg" xmlns:xlink="http://www.w3.org/1999/xlink" width="32" height="32" viewBox="0 0 32 32">
<g>
</g>
	<path d="M5.084 16.328c-0.050-0.049-0.13-0.049-0.18 0-0.049 0.050-0.049 0.13 0 0.18l1.211 1.211c0.025 0.025 0.058 0.037 0.090 0.037s0.065-0.012 0.090-0.037c0.050-0.050 0.050-0.13 0-0.18l-1.211-1.211zM4.941 17.042c-0.050-0.049-0.13-0.049-0.18 0-0.050 0.050-0.050 0.13 0 0.18l0.286 0.286c0.025 0.025 0.057 0.037 0.090 0.037 0.033 0 0.065-0.012 0.090-0.037 0.050-0.049 0.050-0.13 0-0.18l-0.286-0.286zM27.912 13.891l-0.302-1.208c-0.195-0.797-1.007-1.421-1.849-1.421h-20.441c-0.868 0-1.549 0.654-1.549 1.489l0.007 5.644c0.001 0.034 0.011 0.212 0.1 0.358 0.113 0.185 0.283 0.269 0.552 0.271 0.278 0.004 0.668 0.005 1.092 0.005h0.001c0.927 0 2.027-0.006 2.524-0.009l0.682-0.001c-0.003 0.040-0.012 0.077-0.012 0.116 0 0.884 0.718 1.602 1.602 1.602 0.883 0 1.602-0.718 1.602-1.602 0-0.040-0.009-0.078-0.012-0.117l9.641-0.001c-0.002 0.032-0.010 0.063-0.010 0.096 0 0.883 0.719 1.602 1.602 1.602s1.602-0.718 1.602-1.602c0-0.034-0.008-0.065-0.010-0.099h0.511l0.322 0.001c0 0 0.878 0.018 1.654 0.018 0.716 0 0.725-0.007 0.807-0.078 0.183-0.157 0.198-0.764 0.198-0.77v-1.682c0-0.73-0.141-1.902-0.316-2.614zM10.322 20.23c-0.603 0-1.094-0.49-1.094-1.094-0.004-0.377 0.198-0.624 0.198-0.624 0.198-0.283 0.526-0.47 0.897-0.47s0.698 0.187 0.896 0.469c0 0 0.209 0.286 0.198 0.624-0.001 0.603-0.491 1.094-1.094 1.094zM23.145 20.209c-0.603 0-1.094-0.49-1.094-1.094 0-0.033 0.007-0.064 0.010-0.097 0.031-0.325 0.174-0.507 0.174-0.507 0.197-0.294 0.531-0.49 0.911-0.49 0.379 0 0.714 0.194 0.91 0.488 0 0 0.169 0.211 0.185 0.606-0.001 0.603-0.492 1.094-1.095 1.094zM27.72 17.966h-2.785c-0.070 0-0.127 0.057-0.127 0.127 0 0.070 0.057 0.127 0.127 0.127h2.784c-0.004 0.091-0.021 0.212-0.040 0.304-0.086 0.002-0.227 0.004-0.455 0.004-0.653 0-1.609-0.014-1.902-0.019l-0.695 0.001c-0.239-0.584-0.812-0.996-1.48-0.996-0.67 0-1.242 0.413-1.482 0.998l-9.868 0.001c-0.244-0.574-0.813-0.977-1.475-0.977s-1.232 0.404-1.475 0.978h-0.8c-0.497 0.003-1.594 0.009-2.521 0.009h-0c-0.423 0-0.81-0.001-1.087-0.005-0.091-0.001-0.115-0.015-0.125-0.030-0.012-0.020-0.024-0.075-0.025-0.1v-0.135h4.175c0.070 0 0.127-0.057 0.127-0.127s-0.057-0.126-0.127-0.126l-4.176-0-0.007-5.248c0-0.559 0.447-0.981 1.041-0.981h20.44c0.608 0 1.216 0.464 1.356 1.035l0.302 1.208c0.166 0.678 0.3 1.795 0.3 2.492l0 1.462zM21.295 17.977h-9.12c-0.070 0-0.127 0.056-0.127 0.126s0.057 0.127 0.127 0.127h9.12c0.070 0 0.127-0.057 0.127-0.127 0-0.070-0.057-0.126-0.127-0.126zM8.452 12.283h-2.892c-0.206 0-0.374 0.168-0.374 0.374v2.892c0 0.206 0.168 0.374 0.374 0.374h2.892c0.206 0 0.374-0.168 0.374-0.374v-2.892c0-0.206-0.168-0.374-0.374-0.374zM8.52 15.549c0 0.037-0.031 0.068-0.068 0.068h-2.892c-0.037 0-0.067-0.031-0.067-0.068v-2.892c0-0.037 0.031-0.067 0.067-0.067h2.892c0.037 0 0.068 0.031 0.068 0.067v2.892zM13.145 15.549v-2.892c0-0.206-0.168-0.374-0.374-0.374h-2.892c-0.206 0-0.374 0.168-0.374 0.374v2.892c0 0.206 0.168 0.374 0.374 0.374h2.892c0.206 0 0.374-0.167 0.374-0.374zM9.812 15.549v-2.892c0-0.037 0.031-0.067 0.067-0.067h2.892c0.037 0 0.067 0.031 0.067 0.067v2.892c0 0.037-0.031 0.068-0.067 0.068h-2.893c-0.036 0-0.067-0.031-0.067-0.068zM14.17 15.923h2.892c0.206 0 0.374-0.168 0.374-0.374v-2.892c0-0.206-0.168-0.374-0.374-0.374h-2.892c-0.206 0-0.374 0.168-0.374 0.374v2.892c0 0.207 0.168 0.374 0.374 0.374zM14.103 12.657c0-0.037 0.031-0.067 0.067-0.067h2.892c0.037 0 0.068 0.031 0.068 0.067v2.892c0 0.037-0.031 0.068-0.068 0.068h-2.892c-0.037 0-0.067-0.031-0.067-0.068l-0-2.892zM21.354 12.274h-2.892c-0.206 0-0.374 0.168-0.374 0.374v2.892c0 0.206 0.168 0.374 0.374 0.374h2.892c0.206 0 0.374-0.168 0.374-0.374v-2.892c-0-0.206-0.168-0.374-0.374-0.374zM21.421 15.539c0 0.037-0.031 0.068-0.067 0.068h-2.892c-0.037 0-0.068-0.031-0.068-0.068v-2.892c0-0.037 0.031-0.067 0.068-0.067h2.892c0.037 0 0.067 0.031 0.067 0.067v2.892zM25.664 12.274h-2.892c-0.206 0-0.374 0.168-0.374 0.374v2.891c0 0.206 0.165 0.374 0.368 0.374 0 0 3.338 0.003 3.438 0.003 0.506 0 0.734-0.263 0.734-0.523 0-0.916-0.521-2.497-0.778-2.886-0.096-0.146-0.281-0.233-0.495-0.233zM26.204 15.61c-0.099 0-3.438-0.003-3.438-0.003-0.034 0-0.062-0.031-0.062-0.068v-2.891c0-0.037 0.031-0.068 0.068-0.068h2.892c0.085 0 0.193 0.025 0.239 0.096 0.233 0.354 0.727 1.867 0.727 2.717-0.001 0.13-0.172 0.217-0.427 0.217z" fill="#000000" />
</svg>
