<?xml version="1.0" encoding="utf-8"?>
<!-- Generated by IcoMoon.io -->
<!DOCTYPE svg PUBLIC "-//W3C//DTD SVG 1.1//EN" "http://www.w3.org/Graphics/SVG/1.1/DTD/svg11.dtd">
<svg version="1.1" xmlns="http://www.w3.org/2000/svg" xmlns:xlink="http://www.w3.org/1999/xlink" width="32" height="32" viewBox="0 0 32 32">
<g>
</g>
	<path d="M9.615 8.109c0.003 0 0.007-0 0.010-0.001l1.937-0.203c0.034-0.003 0.062-0.024 0.078-0.054s0.014-0.066-0.004-0.094l-0.263-0.44c1.296-0.583 2.711-0.893 4.145-0.893 4.533 0 8.539 3.048 9.742 7.414 0.038 0.136 0.161 0.225 0.295 0.225 0.027 0 0.054-0.004 0.082-0.011 0.163-0.045 0.259-0.214 0.214-0.377-1.276-4.63-5.525-7.864-10.333-7.864-1.545 0-3.069 0.338-4.462 0.976l-0.251-0.42c-0.017-0.029-0.047-0.046-0.081-0.048-0.037-0.006-0.065 0.014-0.084 0.042l-1.106 1.593c-0.022 0.032-0.023 0.073-0.004 0.106 0.018 0.030 0.050 0.048 0.085 0.048zM26.705 17.493l-0.8-1.767c-0.016-0.035-0.050-0.058-0.089-0.058h-0c-0.038 0-0.073 0.022-0.089 0.057l-0.82 1.767c-0.014 0.031-0.012 0.066 0.006 0.094 0.018 0.029 0.049 0.045 0.083 0.045h0.526c-0.097 3.636-2.57 6.836-6.088 7.828l-1.076 0.303 0.79-0.791c1.215-1.217 2.664-3.526 2.664-7.619 0-6.986-4.218-8.782-4.398-8.856-0.019-0.008-0.044-0.014-0.069-0.018l-0.135-0.019c-0.011-0.002-0.026-0.003-0.040-0.003-4.937 0-8.954 4.017-8.954 8.954 0 4.936 4.017 8.953 8.954 8.953 4.863 0 8.83-3.897 8.947-8.732h0.5c0.033 0 0.064-0.017 0.083-0.045 0.018-0.028 0.020-0.064 0.006-0.094zM9.935 13.218c1.069-1.838 2.772-3.19 4.795-3.808l1.055-0.322-0.758 0.802c-0.897 0.95-1.566 2.147-1.988 3.558l-0.009 0.029-3.246-0 0.15-0.258zM8.807 17.24c0.023-1.122 0.265-2.2 0.714-3.211h3.361c-0.237 0.982-0.361 2.065-0.368 3.219l-0.001 0.089h-3.709l0.002-0.097zM8.819 17.89h3.705c0.037 1.146 0.192 2.218 0.464 3.186l0.070 0.244-3.281 0c-0.568-1.070-0.889-2.224-0.958-3.43zM14.891 25.457c-1.972-0.559-3.668-1.823-4.776-3.558l-0.018-0.027h3.151c0.451 1.222 1.097 2.264 1.928 3.097l0.792 0.793-1.078-0.305zM16.889 25.582l-0.46-0.322c-0.765-0.535-1.827-1.558-2.55-3.388l3.010 0v3.71zM16.889 21.32h-3.209l-0.024-0.077c-0.319-1.002-0.5-2.131-0.542-3.353l3.775-0v3.43zM16.889 17.338h-3.785l0.001-0.093c0.006-1.158 0.141-2.237 0.392-3.216l3.392 0v3.308zM16.889 13.477h-3.243l0.070-0.206c0.71-2.093 1.867-3.235 2.713-3.825l0.459-0.32 0 4.35zM17.479 9.152l0.462 0.329c0.83 0.592 1.967 1.73 2.666 3.79l0.070 0.206h-3.198v-4.325zM17.479 14.030h3.348c0.25 0.979 0.385 2.058 0.392 3.216l0.002 0.092-3.742-0v-3.308zM17.479 17.89h3.73c-0.040 1.218-0.221 2.346-0.54 3.353l-0.024 0.077-3.166 0v-3.43zM17.479 25.561v-3.689h2.967c-0.71 1.801-1.753 2.82-2.505 3.358l-0.462 0.331zM10.721 24.691c-0.018-0.028-0.049-0.042-0.083-0.044-0.034 0.001-0.064 0.018-0.082 0.046l-0.287 0.462c-2.998-1.829-4.854-5.113-4.854-8.629 0-2.794 1.174-5.49 3.22-7.395 0.124-0.116 0.131-0.31 0.015-0.434-0.115-0.124-0.31-0.13-0.433-0.016-2.17 2.022-3.415 4.881-3.415 7.844 0 3.728 1.967 7.209 5.144 9.149l-0.244 0.393c-0.018 0.029-0.019 0.064-0.005 0.094 0.014 0.030 0.043 0.051 0.076 0.055l1.923 0.252c0.005 0.001 0.009 0.001 0.013 0.001 0.034 0 0.065-0.017 0.083-0.046 0.020-0.032 0.020-0.074-0.001-0.106l-1.069-1.628z" fill="#000000" />
</svg>
