<?xml version="1.0" encoding="utf-8"?>
<!-- Generated by IcoMoon.io -->
<!DOCTYPE svg PUBLIC "-//W3C//DTD SVG 1.1//EN" "http://www.w3.org/Graphics/SVG/1.1/DTD/svg11.dtd">
<svg version="1.1" xmlns="http://www.w3.org/2000/svg" xmlns:xlink="http://www.w3.org/1999/xlink" width="32" height="32" viewBox="0 0 32 32">
<g>
</g>
	<path d="M20.064 8.519c-0.356-2.189-1.939-3.425-2.009-3.478-0.611-0.46-1.099-0.684-1.491-0.684-0.413 0-0.611 0.255-0.663 0.406-0.018 0.053-0.018 0.112 0.002 0.164l0.926 2.526-0.154 1.206-1.237 0.578-0.934-0.816c-0.097-0.263-0.498-1.351-0.703-1.928-0.171-0.481-0.352-0.712-0.589-0.75-0.147-0.023-0.268 0.043-0.337 0.116-1.981 1.723-0.38 4.802-0.282 4.986 0.021 0.044 0.173 0.359 0.428 0.768l-0.152 0.072c-0.377 0.179-0.492 0.616-0.281 1.063 0.142 0.3 0.38 0.472 0.655 0.472 0.105 0 0.211-0.026 0.317-0.075l0.484-0.229c0.072 0.070 0.146 0.139 0.223 0.204 0.422 0.357 0.578 0.582 0.54 1.538l-0.369 10.782c-0.004 0.042-0.091 1.024 0.494 1.669 0.322 0.354 0.774 0.534 1.346 0.534 0.539 0 0.967-0.172 1.273-0.512 0.58-0.643 0.482-1.648 0.479-1.673l-0.348-10.778c0-0.121-0.004-0.237-0.007-0.35-0.024-0.766-0.040-1.272 1.176-2.233 1.595-1.26 1.229-3.486 1.213-3.577zM12.927 10.409c-0.31-0.683-1.151-2.883 0.226-4.142 0.040 0.054 0.106 0.167 0.185 0.389 0.234 0.661 0.727 1.993 0.727 1.993 0.014 0.039 0.038 0.073 0.069 0.1l0.818 0.715-2.025 0.946zM13.403 12.811c-0.056 0.027-0.11 0.040-0.16 0.040-0.173 0-0.276-0.164-0.322-0.262-0.075-0.159-0.137-0.458 0.106-0.573l0.198-0.094c0.159 0.233 0.344 0.478 0.551 0.711l-0.374 0.177zM18.547 11.712c-1.411 1.115-1.388 1.818-1.362 2.634 0.003 0.108 0.007 0.218 0.007 0.342l0.35 10.805c0.001 0.008 0.074 0.836-0.354 1.31-0.212 0.235-0.51 0.35-0.91 0.35-0.426 0-0.756-0.125-0.981-0.371-0.44-0.482-0.372-1.286-0.37-1.309l0.37-10.796c0.041-1.008-0.113-1.423-0.713-1.931-0.685-0.579-1.216-1.483-1.437-1.897l3.858-1.801c0.076-0.036 0.129-0.109 0.139-0.192l0.178-1.399c0.005-0.039 0.001-0.078-0.013-0.115l-0.9-2.458c0.031-0.019 0.079-0.036 0.155-0.036 0.157 0 0.52 0.076 1.194 0.584 0.015 0.012 1.498 1.175 1.822 3.168 0.004 0.021 0.331 2.035-1.032 3.112zM17.53 9.764c-0.061-0.082-0.176-0.098-0.258-0.037s-0.098 0.176-0.037 0.257l0.715 0.956c0.036 0.048 0.092 0.074 0.147 0.074 0.038 0 0.077-0.012 0.11-0.036 0.081-0.061 0.098-0.176 0.037-0.258l-0.715-0.956zM16.868 10.086c-0.061-0.082-0.176-0.098-0.258-0.038-0.082 0.061-0.098 0.176-0.037 0.258l0.715 0.956c0.037 0.048 0.092 0.074 0.147 0.074 0.038 0 0.077-0.012 0.11-0.037 0.081-0.061 0.098-0.176 0.037-0.258l-0.715-0.956zM16.627 11.584c0.036 0.048 0.091 0.074 0.147 0.074 0.038 0 0.077-0.012 0.11-0.036 0.081-0.061 0.098-0.176 0.037-0.258l-0.716-0.956c-0.061-0.081-0.176-0.098-0.258-0.038-0.081 0.061-0.098 0.176-0.037 0.258l0.716 0.957zM16.112 11.979c0.038 0 0.077-0.012 0.11-0.036 0.082-0.061 0.098-0.176 0.037-0.258l-0.715-0.956c-0.060-0.081-0.176-0.097-0.257-0.037-0.082 0.061-0.098 0.176-0.037 0.257l0.715 0.956c0.036 0.049 0.091 0.074 0.147 0.074zM16.266 24.868c-0.17 0-0.335 0.048-0.479 0.139-0.415 0.265-0.538 0.818-0.274 1.234 0.165 0.259 0.446 0.414 0.755 0.414 0.17 0 0.335-0.048 0.479-0.139 0.416-0.265 0.539-0.818 0.275-1.234-0.165-0.259-0.447-0.414-0.754-0.414zM16.548 26.205c-0.238 0.152-0.575 0.075-0.726-0.162-0.155-0.245-0.083-0.57 0.161-0.726 0.085-0.054 0.182-0.083 0.282-0.083 0.181 0 0.347 0.091 0.444 0.244 0.156 0.245 0.083 0.57-0.161 0.726z" fill="#000000" />
</svg>
