<?xml version="1.0" encoding="utf-8"?>
<!-- Generated by IcoMoon.io -->
<!DOCTYPE svg PUBLIC "-//W3C//DTD SVG 1.1//EN" "http://www.w3.org/Graphics/SVG/1.1/DTD/svg11.dtd">
<svg version="1.1" xmlns="http://www.w3.org/2000/svg" xmlns:xlink="http://www.w3.org/1999/xlink" width="32" height="32" viewBox="0 0 32 32">
<g>
</g>
	<path d="M12.279 4.547c-0.001 0-0.002 0.001-0.003 0.001v-0.002l-5.977 0.003c-0.148-0.002-0.298 0.121-0.306 0.284l-0.346 6.664c0 1.49 0.906 2.82 2.272 3.376v11.814c0 0.079 0.032 0.149 0.081 0.203l-0.003 0.003c0.252 0.267 0.738 0.579 1.328 0.579 0.42 0 0.892-0.158 1.369-0.6l-0.005-0.006c0.067-0.055 0.112-0.135 0.112-0.229v-11.82c1.288-0.586 2.141-1.894 2.141-3.335l-0.346-6.649c-0.008-0.166-0.163-0.293-0.316-0.285zM10.39 14.337c-0.281 0.109-0.578 0.174-0.881 0.196-0.166 0.012-0.291 0.156-0.279 0.322 0.011 0.159 0.144 0.281 0.3 0.281 0.007 0 0.014-0.001 0.022-0.001 0.219-0.015 0.434-0.057 0.645-0.111v11.464c-0.791 0.669-1.446 0.25-1.674 0.057l-0-11.882c0-0.134-0.089-0.244-0.21-0.284-0.001 0-0.002-0.001-0.003-0.001-1.232-0.421-2.059-1.579-2.059-2.866l0.338-6.507h1.431v6.272c0 0.166 0.135 0.302 0.302 0.302s0.301-0.135 0.301-0.302v-6.272h1.359v6.315c0 0.167 0.135 0.302 0.302 0.302 0.166 0 0.302-0.135 0.302-0.302l-0-6.315h1.415l0.338 6.492c0.001 1.249-0.782 2.39-1.947 2.84zM22.602 4.546c-2.069 0-3.752 2.378-3.752 5.299 0 2.148 0.923 4.081 2.311 4.894v11.949c0 0.083 0.033 0.157 0.087 0.211l-0.006 0.006c0.021 0.022 0.523 0.551 1.271 0.576 0.019 0.001 0.037 0.001 0.056 0.001 0.474 0 0.928-0.201 1.353-0.599l-0.006-0.007c0.075-0.054 0.127-0.139 0.127-0.239l0-11.896c1.37-0.798 2.311-2.697 2.311-4.897-0-2.921-1.683-5.298-3.752-5.298zM22.91 14.517c-0.165 0.024-0.278 0.178-0.254 0.343 0.021 0.15 0.151 0.258 0.298 0.258 0.014 0 0.030-0.001 0.044-0.003 0.15-0.022 0.297-0.061 0.441-0.106v11.481c-0.793 0.687-1.45 0.26-1.675 0.066l0-11.893c0-0.019-0.007-0.035-0.010-0.053 0.021-0.126-0.037-0.256-0.157-0.317-1.282-0.651-2.144-2.439-2.144-4.448 0-2.588 1.412-4.694 3.148-4.694 1.736 0 3.149 2.106 3.149 4.694-0.001 2.386-1.248 4.439-2.84 4.672zM16.536 4.789c-0.025-0.122-0.121-0.217-0.244-0.238-0.519-0.088-0.934 0.003-1.234 0.276-0.494 0.448-0.444 1.21-0.442 1.22v20.642c0 0.079 0.032 0.148 0.081 0.202l-0.006 0.006c0.256 0.266 0.751 0.575 1.35 0.575 0.427 0 0.907-0.157 1.392-0.598l-0.004-0.003c0.070-0.055 0.119-0.137 0.119-0.234l-0-11.795c0.211-0.090 0.382-0.217 0.508-0.384 0.354-0.469 0.207-1.047 0.205-1.054l-1.725-8.614zM17.575 14.093c-0.179 0.237-0.559 0.294-0.848 0.299-0.166 0.003-0.299 0.141-0.295 0.307 0.003 0.167 0.134 0.3 0.308 0.296 0.074-0.002 0.136-0.013 0.205-0.020v11.505c-0.811 0.675-1.484 0.264-1.724 0.066l-0.001-20.525c-0.010-0.128 0.015-0.541 0.246-0.75 0.121-0.111 0.294-0.158 0.523-0.15l1.686 8.416c-0 0.004 0.074 0.325-0.099 0.554zM20.224 7.726c-0.032 0.063-0.767 1.553-0.165 3.806l0.297-0.079c-0.57-2.133 0.134-3.574 0.142-3.589l-0.274-0.138z" fill="#000000" />
</svg>
