<?xml version="1.0" encoding="utf-8"?>
<!-- Generated by IcoMoon.io -->
<!DOCTYPE svg PUBLIC "-//W3C//DTD SVG 1.1//EN" "http://www.w3.org/Graphics/SVG/1.1/DTD/svg11.dtd">
<svg version="1.1" xmlns="http://www.w3.org/2000/svg" xmlns:xlink="http://www.w3.org/1999/xlink" width="32" height="32" viewBox="0 0 32 32">
<g>
</g>
	<path d="M14.375 24.329h3.249c0.127 0 0.23-0.103 0.23-0.23s-0.103-0.23-0.23-0.23l-3.249 0c-0.127 0-0.23 0.103-0.23 0.23s0.103 0.23 0.23 0.23zM18.31 24.972h-4.622c-0.127 0-0.23 0.103-0.23 0.23s0.103 0.23 0.23 0.23h4.622c0.127 0 0.23-0.103 0.23-0.23s-0.103-0.23-0.23-0.23zM17.282 26.074h-2.564c-0.127 0-0.23 0.103-0.23 0.23s0.103 0.23 0.23 0.23h2.564c0.127 0 0.23-0.103 0.23-0.23s-0.103-0.23-0.23-0.23zM23.321 8.345c-0.158-0.55-0.668-0.934-1.239-0.934-0.12 0-0.24 0.017-0.356 0.050l-12.164 3.488c-0.682 0.196-1.079 0.912-0.884 1.595 0.158 0.55 0.669 0.934 1.241 0.934 0.119 0 0.238-0.017 0.354-0.049l12.163-3.488c0.331-0.095 0.606-0.313 0.773-0.615 0.167-0.302 0.207-0.65 0.111-0.981zM22.808 9.103c-0.108 0.194-0.284 0.335-0.498 0.396l-12.163 3.487c-0.433 0.123-0.904-0.142-1.028-0.568-0.125-0.441 0.13-0.902 0.569-1.028l12.164-3.487c0.075-0.022 0.152-0.033 0.229-0.033 0.367 0 0.695 0.248 0.797 0.602 0.061 0.213 0.036 0.438-0.071 0.631zM21.708 10.773c-0.098 0-0.197 0.014-0.29 0.041l-10.631 3.047c-0.275 0.079-0.506 0.267-0.652 0.53-0.168 0.302-0.206 0.677-0.105 1.029 0.16 0.558 0.632 0.948 1.154 0.959v0.002h0.854c1.105 0 1.319 1.921 1.36 2.645-0.946 0.173-1.666 1.002-1.666 1.997 0 0.68 0.336 1.281 0.849 1.65-0.201 0.184-0.333 0.459-0.333 0.771v0.114c0 0.184 0.042 0.358 0.121 0.51-0.079 0.151-0.121 0.33-0.121 0.524v0.114c0 0.187 0.042 0.364 0.122 0.515-0.080 0.151-0.122 0.322-0.122 0.5v0.114c0 0.263 0.090 0.51 0.252 0.695 0.026 0.030 0.058 0.055 0.095 0.073 0.365 0.18 0.612 0.388 0.85 0.59 0.535 0.451 1.041 0.878 2.551 0.878 1.512 0 2.018-0.427 2.554-0.878 0.238-0.201 0.485-0.409 0.849-0.589 0.036-0.018 0.068-0.042 0.094-0.071 0.165-0.186 0.255-0.434 0.255-0.696v-0.114c0-0.176-0.042-0.347-0.122-0.499 0.080-0.152 0.122-0.329 0.122-0.516v-0.114c0-0.194-0.042-0.374-0.121-0.524 0.079-0.151 0.121-0.326 0.121-0.51v-0.114c0-0.328-0.144-0.617-0.364-0.8 0.492-0.371 0.812-0.959 0.812-1.622 0-0.994-0.719-1.823-1.666-1.997 0.041-0.723 0.254-2.645 1.359-2.645h1.323c0.559-0.004 1.028-0.628 1.023-1.363-0.006-0.708-0.469-1.281-1.033-1.281h-0.626l1.549-0.443c0.302-0.087 0.546-0.301 0.688-0.603 0.136-0.291 0.16-0.631 0.067-0.956-0.161-0.566-0.644-0.962-1.175-0.962zM13.056 16.381h0.825c0.217 0 0.392 0.070 0.534 0.215 0.492 0.501 0.493 1.732 0.483 2.394h-1.039c-0.031-0.614-0.172-1.914-0.803-2.61zM16.572 18.991h-1.214c0.011-0.731 0.003-1.945-0.533-2.61h2.28c-0.536 0.665-0.544 1.879-0.533 2.61zM19.138 23.558c0 0.122-0.038 0.23-0.106 0.304-0.112 0.121-0.108 0.309 0.009 0.425 0.063 0.063 0.098 0.171 0.098 0.305v0.114c0 0.124-0.037 0.232-0.105 0.304-0.109 0.116-0.111 0.294-0.006 0.413 0.070 0.080 0.11 0.188 0.11 0.298v0.114c0 0.093-0.025 0.181-0.071 0.25-0.396 0.205-0.669 0.434-0.91 0.638-0.486 0.41-0.87 0.734-2.159 0.734-1.286 0-1.67-0.324-2.156-0.734-0.241-0.203-0.514-0.433-0.91-0.638-0.045-0.069-0.070-0.157-0.070-0.25v-0.114c0-0.111 0.040-0.219 0.109-0.297 0.106-0.118 0.104-0.298-0.005-0.414-0.067-0.071-0.104-0.18-0.104-0.304v-0.114c0-0.134 0.035-0.242 0.097-0.306 0.116-0.116 0.119-0.303 0.008-0.424-0.068-0.074-0.106-0.182-0.106-0.305v-0.114c0-0.21 0.131-0.388 0.286-0.388h5.703c0.152 0 0.286 0.182 0.286 0.388l0.001 0.114zM19.585 21.023c0 0.783-0.637 1.42-1.42 1.42h-4.401c-0.782 0-1.419-0.637-1.419-1.42 0-0.782 0.637-1.418 1.419-1.418h4.401c0.783 0 1.42 0.636 1.42 1.418zM18.072 18.991h-1.040c-0.010-0.662-0.010-1.893 0.482-2.394 0.142-0.145 0.318-0.215 0.535-0.215h0.825c-0.63 0.695-0.771 1.995-0.802 2.61zM21.201 14.197h0.003c0.309 0 0.572 0.377 0.575 0.825 0.003 0.469-0.268 0.898-0.566 0.9l-8.255-0 6.086-1.744v0.020h2.156zM22.4 12.496c-0.084 0.18-0.226 0.306-0.399 0.356l-10.631 3.047c-0.367 0.106-0.774-0.174-0.898-0.606-0.068-0.235-0.044-0.482 0.065-0.679 0.086-0.155 0.219-0.265 0.376-0.31l10.632-3.048c0.053-0.016 0.108-0.023 0.163-0.023 0.326 0 0.628 0.259 0.734 0.629 0.063 0.218 0.048 0.444-0.041 0.635zM10.23 10.154c0.098 0 0.196-0.014 0.289-0.041l10.631-3.048c0.275-0.078 0.507-0.267 0.652-0.53 0.167-0.302 0.205-0.677 0.104-1.028-0.162-0.566-0.646-0.962-1.177-0.962-0.013 0-0.025 0.002-0.037 0.003v-0.003l-9.818 0.014c-0.577 0.005-1.079 0.636-1.074 1.349 0.003 0.396 0.146 0.762 0.393 1.005 0.181 0.178 0.409 0.277 0.639 0.277h0.53l-1.552 0.445c-0.275 0.078-0.506 0.266-0.651 0.528-0.168 0.302-0.207 0.678-0.106 1.031 0.163 0.566 0.648 0.961 1.178 0.961zM10.837 6.729h-0.004c-0.142 0-0.252-0.078-0.318-0.144-0.159-0.156-0.254-0.41-0.256-0.681-0.003-0.488 0.336-0.884 0.617-0.886l8.095-0.011-6.006 1.722h-2.128zM9.56 8.385c0.086-0.155 0.219-0.264 0.376-0.309l10.63-3.048c0.053-0.015 0.108-0.023 0.162-0.023 0.327 0 0.629 0.258 0.735 0.629 0.068 0.235 0.044 0.482-0.064 0.679-0.086 0.155-0.219 0.265-0.377 0.31l-10.631 3.048c-0.367 0.106-0.773-0.173-0.898-0.605-0.067-0.236-0.044-0.485 0.066-0.681z" fill="#000000" />
</svg>
