<?xml version="1.0" encoding="utf-8"?>
<!-- Generated by IcoMoon.io -->
<!DOCTYPE svg PUBLIC "-//W3C//DTD SVG 1.1//EN" "http://www.w3.org/Graphics/SVG/1.1/DTD/svg11.dtd">
<svg version="1.1" xmlns="http://www.w3.org/2000/svg" xmlns:xlink="http://www.w3.org/1999/xlink" width="32" height="32" viewBox="0 0 32 32">
<g>
</g>
	<path d="M21.821 6.231c0-1.324-1.078-2.402-2.402-2.402s-2.401 1.078-2.401 2.402c0 1.324 1.077 2.402 2.401 2.402s2.402-1.077 2.402-2.402zM17.631 6.231c0-0.986 0.802-1.789 1.788-1.789 0.987 0 1.789 0.802 1.789 1.789 0 0.987-0.802 1.789-1.789 1.789-0.986 0-1.788-0.802-1.788-1.789zM15.371 14.61v-1.698c0-1.942 1.268-3.101 3.391-3.101h1.315c2.123 0 3.391 1.159 3.391 3.101v1.698c0 0.184-0.024 0.349-0.060 0.506h0.629c0.028-0.158 0.044-0.326 0.044-0.506v-1.698c0-1.795-1.052-3.714-4.004-3.714h-1.315c-2.952 0-4.004 1.918-4.004 3.714v1.698c0 0.18 0.017 0.348 0.045 0.506h0.627c-0.035-0.156-0.059-0.32-0.059-0.506zM26.443 15.116h-3.974l0.074-2.644c0.004-0.126-0.096-0.233-0.223-0.236-0.124-0.001-0.233 0.097-0.236 0.223l-0.074 2.656h-5.143l-0.116-2.66c-0.006-0.127-0.113-0.234-0.24-0.22-0.126 0.006-0.225 0.113-0.22 0.239l0.116 2.64h-11.406c-0.17 0-0.306 0.137-0.306 0.306v1.29c0 0.17 0.137 0.306 0.306 0.306h1.526v8.784c0 0.17 0.137 0.306 0.306 0.306h19.609c0.17 0 0.306-0.137 0.306-0.306l0-9.089v-1.29c0-0.169-0.137-0.306-0.307-0.306zM7.141 25.497v-8.478h18.996v8.477h-18.996zM5.308 15.729h20.829v0.677l-20.829-0v-0.677z" fill="#000000" />
</svg>
