<?xml version="1.0" encoding="utf-8"?>
<!-- Generated by IcoMoon.io -->
<!DOCTYPE svg PUBLIC "-//W3C//DTD SVG 1.1//EN" "http://www.w3.org/Graphics/SVG/1.1/DTD/svg11.dtd">
<svg version="1.1" xmlns="http://www.w3.org/2000/svg" xmlns:xlink="http://www.w3.org/1999/xlink" width="32" height="32" viewBox="0 0 32 32">
<g>
</g>
	<path d="M25.752 26.44c-1.004 0-1.822-0.817-1.822-1.821 0-1.004 0.817-1.822 1.822-1.822s1.822 0.817 1.822 1.822c0 1.004-0.817 1.821-1.822 1.821zM6.152 7.148c0-1.004 0.817-1.822 1.822-1.822 1.004 0 1.821 0.818 1.821 1.822s-0.817 1.821-1.821 1.821c-1.005 0-1.822-0.817-1.822-1.821zM14.122 7.148c0-1.004 0.817-1.822 1.822-1.822 1.004 0 1.821 0.818 1.821 1.822s-0.817 1.821-1.821 1.821c-1.005 0-1.822-0.817-1.822-1.821zM25.752 15.134c1.004 0 1.822 0.817 1.822 1.822 0 1.004-0.817 1.821-1.822 1.821s-1.822-0.817-1.822-1.821c-0-1.004 0.817-1.822 1.822-1.822zM25.752 22.184c-1.284 0-2.335 0.999-2.426 2.26l-6.954 0c-0.039-0.015-0.131-0.16-0.131-0.333v-6.717h7.118c0.207 1.134 1.2 1.997 2.393 1.997 1.343 0 2.435-1.092 2.435-2.434 0-1.342-1.092-2.435-2.435-2.435-1.284 0-2.335 0.999-2.426 2.26h-7.085v-7.219c1.203-0.147 2.137-1.173 2.137-2.414 0-1.343-1.092-2.435-2.434-2.435-1.342 0-2.435 1.092-2.435 2.435 0 1.235 0.926 2.256 2.119 2.412v7.222l-6.683-0c-0.216 0-0.557-0.082-0.673-0.157l0-7.062c1.202-0.147 2.137-1.173 2.137-2.414 0-1.343-1.092-2.435-2.434-2.435s-2.435 1.092-2.435 2.435c0 1.235 0.926 2.256 2.119 2.412v7.128c0 0.586 1.014 0.706 1.286 0.706h6.683v6.718c0 0.454 0.283 0.945 0.74 0.945h6.991c0.207 1.134 1.2 1.997 2.393 1.997 1.343 0 2.435-1.092 2.435-2.434-0.001-1.343-1.093-2.435-2.435-2.435z" fill="#000000" />
</svg>
