<?xml version="1.0" encoding="utf-8"?>
<!-- Generated by IcoMoon.io -->
<!DOCTYPE svg PUBLIC "-//W3C//DTD SVG 1.1//EN" "http://www.w3.org/Graphics/SVG/1.1/DTD/svg11.dtd">
<svg version="1.1" xmlns="http://www.w3.org/2000/svg" xmlns:xlink="http://www.w3.org/1999/xlink" width="32" height="32" viewBox="0 0 32 32">
<g>
</g>
	<path d="M20.949 4.815c-0.058-0.059-0.137-0.093-0.22-0.093h-11.261c-0.17 0-0.306 0.137-0.306 0.306v20.426c0 0.17 0.137 0.306 0.306 0.306h14.896c0.17 0 0.306-0.137 0.306-0.306v-16.68c0-0.080-0.031-0.156-0.086-0.213l-3.635-3.746zM21.036 5.785l2.767 2.852h-2.767v-2.852zM9.775 5.335h10.648v3.477c0 0.023 0.008 0.044 0.013 0.066-0.005 0.022-0.013 0.042-0.013 0.066 0 0.17 0.137 0.306 0.306 0.306h3.328v15.898l-14.282 0v-19.814z" fill="#000000" />
</svg>
