<?xml version="1.0" encoding="utf-8"?>
<!-- Generated by IcoMoon.io -->
<!DOCTYPE svg PUBLIC "-//W3C//DTD SVG 1.1//EN" "http://www.w3.org/Graphics/SVG/1.1/DTD/svg11.dtd">
<svg version="1.1" xmlns="http://www.w3.org/2000/svg" xmlns:xlink="http://www.w3.org/1999/xlink" width="32" height="32" viewBox="0 0 32 32">
<g>
</g>
	<path d="M27.952 13.288c-0.037-0.111-0.132-0.192-0.248-0.209l-7.897-1.148-3.531-7.157c-0.051-0.105-0.158-0.171-0.275-0.171s-0.223 0.066-0.275 0.171l-3.533 7.157-7.898 1.148c-0.116 0.017-0.211 0.098-0.247 0.209-0.037 0.111-0.006 0.233 0.077 0.314l5.715 5.57-1.349 7.866c-0.020 0.115 0.027 0.23 0.122 0.299 0.095 0.069 0.22 0.078 0.323 0.023l7.064-3.713 7.064 3.713c0.044 0.024 0.093 0.036 0.142 0.036 0.063 0 0.127-0.020 0.18-0.059 0.094-0.069 0.141-0.184 0.122-0.299l-1.349-7.866 5.715-5.57c0.083-0.082 0.113-0.203 0.077-0.314zM21.616 18.846c-0.072 0.070-0.105 0.172-0.088 0.272l1.271 7.411-6.656-3.499c-0.089-0.047-0.197-0.047-0.286 0l-6.656 3.499 1.271-7.411c0.017-0.099-0.016-0.201-0.089-0.272l-5.385-5.25 7.442-1.081c0.1-0.015 0.186-0.077 0.231-0.168l3.329-6.744 3.328 6.744c0.044 0.091 0.13 0.153 0.23 0.168l7.442 1.081-5.385 5.25zM16.641 22.663c-0.040 0.075-0.011 0.168 0.065 0.207l5.126 2.694c0.023 0.012 0.046 0.018 0.071 0.018 0.055 0 0.109-0.030 0.135-0.082 0.040-0.074 0.011-0.168-0.064-0.207l-5.126-2.694c-0.074-0.039-0.167-0.011-0.207 0.064zM16.103 6.888c-0.076-0.038-0.168-0.006-0.205 0.070l-2.449 4.962c-0.038 0.076-0.006 0.168 0.070 0.205 0.022 0.011 0.045 0.016 0.068 0.016 0.057 0 0.111-0.032 0.138-0.086l2.448-4.962c0.038-0.076 0.006-0.168-0.070-0.205zM6.728 14.246c-0.060-0.058-0.158-0.058-0.217 0.003s-0.058 0.158 0.003 0.217l4.489 4.375-0.674 3.924c-0.014 0.083 0.042 0.163 0.125 0.177 0.009 0.002 0.018 0.002 0.026 0.002 0.073 0 0.138-0.053 0.151-0.127l0.686-4.004c0.008-0.050-0.008-0.101-0.044-0.136l-4.546-4.432z" fill="#000000" />
</svg>
