<?xml version="1.0" encoding="utf-8"?>
<!-- Generated by IcoMoon.io -->
<!DOCTYPE svg PUBLIC "-//W3C//DTD SVG 1.1//EN" "http://www.w3.org/Graphics/SVG/1.1/DTD/svg11.dtd">
<svg version="1.1" xmlns="http://www.w3.org/2000/svg" xmlns:xlink="http://www.w3.org/1999/xlink" width="32" height="32" viewBox="0 0 32 32">
<g>
</g>
	<path d="M25.010 6.452c0.037-0.138-0.022-0.287-0.156-0.353l-2.818-1.379c-0.042-0.020-0.088-0.031-0.134-0.031l-11.571 0c-0.041 0-0.082 0.008-0.12 0.024l-3.244 1.38c-0.142 0.061-0.21 0.215-0.171 0.36-0.007 0.026-0.016 0.051-0.016 0.079v10.152c0 0.007 0.003 0.013 0.004 0.020-0.001 0.007-0.004 0.013-0.004 0.020v10.152c0 0.169 0.137 0.306 0.306 0.306h17.633c0.17 0 0.307-0.137 0.307-0.306v-5.076l-0-5.077c0-0.007-0.004-0.013-0.005-0.020 0.001-0.007 0.005-0.013 0.005-0.020v-10.152c0-0.028-0.009-0.054-0.016-0.080zM10.393 5.302h11.438l1.888 0.924h-15.499l2.173-0.924zM24.414 26.569h-17.021v-4.463h17.021v4.463zM24.414 21.494h-17.021v-4.463h17.021v4.463zM24.414 16.377h-17.021v-4.463h17.021v4.463zM24.414 8.726v0.914zM24.414 11.302h-17.021v-4.463h17.021v4.463zM8.522 8.996c-0 0.002-0 0.003-0 0.005 0 0.233 0.189 0.422 0.422 0.422 0.233 0 0.422-0.189 0.422-0.422 0-0.002 0-0.004-0-0.005 0-0.001 0-0.003 0-0.005 0-0.233-0.189-0.422-0.422-0.422-0.233 0-0.422 0.189-0.422 0.422 0 0.002 0 0.004 0 0.005zM10.017 8.996c-0 0.004-0 0.008-0 0.013 0 0.233 0.189 0.422 0.422 0.422 0.233 0 0.422-0.189 0.422-0.422 0-0.004-0-0.009-0-0.013 0-0.003 0-0.008 0-0.012 0-0.233-0.189-0.422-0.422-0.422-0.233 0-0.422 0.189-0.422 0.422 0 0.004 0 0.009 0 0.013zM8.522 14.206c-0 0.002-0 0.003-0 0.005 0 0.233 0.189 0.422 0.422 0.422 0.233 0 0.422-0.189 0.422-0.422 0-0.002 0-0.004-0-0.005 0-0.001 0-0.003 0-0.005 0-0.233-0.189-0.422-0.422-0.422-0.233 0-0.422 0.189-0.422 0.422 0 0.002 0 0.004 0 0.005zM10.017 14.206c-0 0.004-0 0.008-0 0.013 0 0.233 0.189 0.422 0.422 0.422 0.233 0 0.422-0.189 0.422-0.422 0-0.004-0-0.009-0-0.013 0-0.003 0-0.008 0-0.012 0-0.233-0.189-0.422-0.422-0.422-0.233 0-0.422 0.189-0.422 0.422 0 0.004 0 0.009 0 0.013zM8.522 19.111c-0 0.002-0 0.003-0 0.005 0 0.233 0.189 0.422 0.422 0.422 0.233 0 0.422-0.189 0.422-0.422 0-0.002 0-0.004-0-0.005 0-0.001 0-0.003 0-0.005 0-0.233-0.189-0.422-0.422-0.422-0.233 0-0.422 0.189-0.422 0.422 0 0.002 0 0.004 0 0.005zM10.017 19.111c-0 0.004-0 0.008-0 0.013 0 0.233 0.189 0.422 0.422 0.422 0.233 0 0.422-0.189 0.422-0.422 0-0.004-0-0.009-0-0.013 0-0.003 0-0.008 0-0.012 0-0.233-0.189-0.422-0.422-0.422-0.233 0-0.422 0.189-0.422 0.422 0 0.004 0 0.009 0 0.013zM8.522 24.322c-0 0.002-0 0.003-0 0.005 0 0.233 0.189 0.422 0.422 0.422 0.233 0 0.422-0.189 0.422-0.422 0-0.002 0-0.004-0-0.005 0-0.001 0-0.003 0-0.005 0-0.233-0.189-0.422-0.422-0.422-0.233 0-0.422 0.189-0.422 0.422 0 0.002 0 0.004 0 0.005zM10.017 24.322c-0 0.004-0 0.008-0 0.013 0 0.233 0.189 0.422 0.422 0.422 0.233 0 0.422-0.189 0.422-0.422 0-0.004-0-0.009-0-0.013 0-0.003 0-0.008 0-0.012 0-0.233-0.189-0.422-0.422-0.422-0.233 0-0.422 0.189-0.422 0.422 0 0.004 0 0.009 0 0.013zM23.587 10.33c0 0.085-0.069 0.153-0.154 0.153h-0.919c-0.085 0-0.154-0.069-0.154-0.153v-2.452c0-0.085 0.069-0.153 0.154-0.153h0.919c0.085 0 0.154 0.069 0.154 0.153v2.452zM22.667 10.176h0.613v-2.146h-0.613v2.146zM21.748 10.33c0 0.085-0.069 0.153-0.153 0.153h-0.92c-0.085 0-0.153-0.069-0.153-0.153v-2.452c0-0.085 0.069-0.153 0.153-0.153h0.92c0.085 0 0.153 0.069 0.153 0.153v2.452zM20.828 10.176h0.613v-2.146h-0.613v2.146zM23.587 15.54c0 0.085-0.069 0.153-0.154 0.153h-0.919c-0.085 0-0.154-0.069-0.154-0.153v-2.452c0-0.085 0.069-0.153 0.154-0.153h0.919c0.085 0 0.154 0.069 0.154 0.153v2.452zM22.667 15.387h0.613v-2.146h-0.613v2.146zM21.748 15.54c0 0.085-0.069 0.153-0.153 0.153h-0.92c-0.085 0-0.153-0.069-0.153-0.153v-2.452c0-0.085 0.069-0.153 0.153-0.153h0.92c0.085 0 0.153 0.069 0.153 0.153v2.452zM20.828 15.387h0.613v-2.146h-0.613v2.146zM23.587 20.444c0 0.085-0.069 0.153-0.154 0.153h-0.919c-0.085 0-0.154-0.069-0.154-0.153v-2.452c0-0.085 0.069-0.153 0.154-0.153h0.919c0.085 0 0.154 0.069 0.154 0.153v2.452zM22.667 20.291h0.613v-2.146h-0.613v2.146zM21.748 20.444c0 0.085-0.069 0.153-0.153 0.153h-0.92c-0.085 0-0.153-0.069-0.153-0.153v-2.452c0-0.085 0.069-0.153 0.153-0.153h0.92c0.085 0 0.153 0.069 0.153 0.153v2.452zM20.828 20.291h0.613v-2.146h-0.613v2.146zM23.587 25.655c0 0.085-0.069 0.153-0.154 0.153h-0.919c-0.085 0-0.154-0.069-0.154-0.153v-2.452c0-0.085 0.069-0.153 0.154-0.153h0.919c0.085 0 0.154 0.069 0.154 0.153v2.452zM22.667 25.502h0.613v-2.146h-0.613v2.146zM21.748 25.655c0 0.085-0.069 0.153-0.153 0.153h-0.92c-0.085 0-0.153-0.069-0.153-0.153v-2.452c0-0.085 0.069-0.153 0.153-0.153h0.92c0.085 0 0.153 0.069 0.153 0.153v2.452zM20.828 25.502h0.613v-2.146h-0.613v2.146z" fill="#000000" />
</svg>
