<?xml version="1.0" encoding="utf-8"?>
<!-- Generated by IcoMoon.io -->
<!DOCTYPE svg PUBLIC "-//W3C//DTD SVG 1.1//EN" "http://www.w3.org/Graphics/SVG/1.1/DTD/svg11.dtd">
<svg version="1.1" xmlns="http://www.w3.org/2000/svg" xmlns:xlink="http://www.w3.org/1999/xlink" width="32" height="32" viewBox="0 0 32 32">
<g>
</g>
	<path d="M19.716 14.97c-0.058-0.081-0.15-0.129-0.25-0.129l-3.134-0v-8.141c0-0.151-0.11-0.28-0.26-0.303-0.15-0.022-0.293 0.066-0.339 0.211l-3.305 10.464c-0.030 0.093-0.013 0.195 0.045 0.273 0.058 0.079 0.15 0.126 0.247 0.126h2.87v8.001c0 0.15 0.108 0.278 0.256 0.302 0.017 0.003 0.034 0.004 0.051 0.004 0.129 0 0.246-0.082 0.289-0.206l3.568-10.324c0.033-0.094 0.018-0.197-0.040-0.278zM16.204 23.646v-6.482c0-0.17-0.137-0.306-0.306-0.306h-2.759l2.581-8.17v6.459c0 0.17 0.137 0.306 0.306 0.306h3.010l-2.831 8.192z" fill="#000000" />
</svg>
