<?xml version="1.0" encoding="utf-8"?>
<!-- Generated by IcoMoon.io -->
<!DOCTYPE svg PUBLIC "-//W3C//DTD SVG 1.1//EN" "http://www.w3.org/Graphics/SVG/1.1/DTD/svg11.dtd">
<svg version="1.1" xmlns="http://www.w3.org/2000/svg" xmlns:xlink="http://www.w3.org/1999/xlink" width="32" height="32" viewBox="0 0 32 32">
<g>
</g>
	<path d="M16 3.802c-4.367 0-7.939 3.539-7.941 7.908-0 1.823 0.296 3.162 0.749 4.208 0.681 1.57 1.703 2.458 2.496 3.342 0.398 0.442 0.741 0.882 0.986 1.407 0.245 0.526 0.397 1.143 0.398 1.961 0 0.193 0.058 0.372 0.157 0.522-0.202 0.175-0.335 0.446-0.335 0.752v0.105c0 0.168 0.038 0.329 0.108 0.469-0.070 0.141-0.108 0.306-0.108 0.483v0.105c0 0.172 0.038 0.334 0.109 0.475-0.070 0.141-0.109 0.298-0.109 0.46v0.104c0 0.249 0.085 0.484 0.24 0.663 0.028 0.032 0.061 0.058 0.099 0.077 0.334 0.164 0.559 0.354 0.778 0.538 0.499 0.421 0.97 0.817 2.374 0.817s1.876-0.396 2.374-0.817c0.219-0.184 0.444-0.374 0.778-0.538 0.038-0.019 0.071-0.045 0.1-0.077 0.154-0.178 0.239-0.414 0.239-0.662v-0.105c0-0.162-0.038-0.32-0.109-0.46 0.071-0.141 0.109-0.303 0.109-0.475v-0.105c0-0.177-0.038-0.342-0.108-0.483 0.070-0.14 0.108-0.301 0.108-0.469v-0.105c0-0.306-0.133-0.577-0.336-0.753 0.099-0.15 0.157-0.328 0.157-0.521 0.002-1.092 0.269-1.824 0.673-2.461 0.304-0.478 0.696-0.901 1.122-1.353 0.638-0.677 1.356-1.421 1.906-2.518 0.552-1.096 0.926-2.535 0.926-4.586-0-4.369-3.573-7.907-7.94-7.908zM18.86 24.007h-0.001c0 0.102-0.032 0.196-0.088 0.256-0.115 0.123-0.112 0.315 0.006 0.437 0.053 0.054 0.082 0.146 0.082 0.26v0.105c0 0.105-0.032 0.198-0.087 0.257-0.111 0.119-0.114 0.304-0.006 0.426 0.058 0.067 0.093 0.159 0.093 0.252v0.105c0 0.075-0.019 0.148-0.055 0.207-0.364 0.189-0.615 0.4-0.837 0.587-0.443 0.374-0.793 0.668-1.967 0.668-1.174 0-1.524-0.294-1.967-0.668-0.222-0.187-0.472-0.398-0.837-0.588-0.036-0.058-0.055-0.131-0.055-0.207v-0.104c0-0.094 0.034-0.185 0.094-0.252 0.109-0.122 0.106-0.307-0.006-0.426-0.055-0.058-0.087-0.152-0.087-0.257v-0.105c0-0.114 0.030-0.206 0.083-0.26 0.118-0.121 0.121-0.313 0.006-0.437-0.056-0.060-0.088-0.154-0.088-0.256v-0.105c0-0.173 0.108-0.326 0.23-0.326h5.258c0.122 0 0.23 0.153 0.23 0.326l-0 0.105zM22.612 15.667c-0.621 1.433-1.552 2.245-2.385 3.17-0.415 0.462-0.805 0.953-1.089 1.562-0.285 0.608-0.457 1.33-0.456 2.229-0.001 0.175-0.142 0.316-0.316 0.316l-4.73 0c-0.174 0-0.316-0.141-0.316-0.316 0.002-1.197-0.31-2.082-0.773-2.802-0.346-0.541-0.768-0.991-1.195-1.446-0.643-0.682-1.298-1.368-1.801-2.368-0.502-1.001-0.858-2.326-0.859-4.303 0-2.009 0.822-3.826 2.147-5.145 1.326-1.318 3.152-2.132 5.162-2.132s3.837 0.814 5.162 2.132c1.325 1.318 2.147 3.135 2.147 5.145-0.001 1.756-0.283 3-0.698 3.957zM21.855 15.021c-0.079-0.032-0.173 0.006-0.206 0.086-0.048 0.118-0.099 0.231-0.152 0.34-0.038 0.078-0.006 0.172 0.072 0.211 0.022 0.011 0.046 0.016 0.070 0.016 0.058 0 0.114-0.033 0.142-0.089 0.057-0.115 0.11-0.235 0.161-0.36 0.033-0.080-0.005-0.172-0.086-0.206zM22.324 12.755c-0.086-0.008-0.163 0.056-0.172 0.143-0.017 0.181-0.037 0.355-0.061 0.522-0.024 0.166-0.052 0.326-0.083 0.478-0.031 0.153-0.065 0.299-0.102 0.439-0.022 0.084 0.028 0.171 0.112 0.193 0.014 0.004 0.028 0.006 0.041 0.006 0.070 0 0.134-0.047 0.153-0.118 0.039-0.146 0.074-0.298 0.106-0.456 0.033-0.158 0.061-0.323 0.086-0.496 0.025-0.172 0.046-0.351 0.063-0.538 0.008-0.087-0.056-0.165-0.143-0.172zM22.386 10.405c-0.043-0.21-0.097-0.419-0.161-0.621-0.062-0.2-0.137-0.402-0.22-0.596-0.082-0.192-0.174-0.383-0.275-0.568-0.1-0.183-0.21-0.362-0.327-0.534-0.118-0.174-0.245-0.342-0.375-0.499-0.132-0.158-0.273-0.313-0.421-0.46-0.147-0.146-0.302-0.287-0.463-0.418-0.161-0.134-0.33-0.259-0.502-0.374-0.071-0.048-0.17-0.030-0.219 0.043-0.049 0.072-0.030 0.171 0.043 0.219 0.162 0.109 0.323 0.229 0.478 0.356 0.153 0.126 0.301 0.26 0.441 0.398 0.141 0.14 0.275 0.287 0.401 0.439 0.124 0.149 0.245 0.31 0.358 0.475 0.111 0.164 0.216 0.335 0.311 0.509 0.096 0.175 0.184 0.356 0.262 0.539 0.079 0.185 0.149 0.376 0.209 0.567 0.061 0.192 0.112 0.39 0.153 0.59 0.042 0.205 0.074 0.411 0.095 0.612 0.021 0.208 0.032 0.42 0.032 0.63 0 0.087 0.070 0.158 0.158 0.158s0.158-0.071 0.158-0.158c0-0.221-0.011-0.443-0.034-0.662-0.024-0.213-0.057-0.43-0.101-0.645zM19.227 11.899c-0.122-0.043-0.259 0.021-0.302 0.144l-0.157 0.444c-0.194-0.019-0.294-0.127-0.404-0.257l-0.049-0.058c-0.020-0.023-0.037-0.048-0.053-0.072-0.062-0.090-0.156-0.226-0.367-0.226-0.22 0-0.33 0.149-0.402 0.248-0.014 0.019-0.028 0.037-0.041 0.053l-0.033 0.040c-0.118 0.144-0.229 0.279-0.473 0.279-0.261 0-0.375-0.149-0.499-0.313-0.015-0.019-0.028-0.040-0.041-0.062-0.065-0.102-0.172-0.271-0.394-0.271-0.215 0-0.326 0.165-0.391 0.263-0.015 0.023-0.030 0.044-0.044 0.062l-0.041 0.049c-0.117 0.14-0.226 0.272-0.464 0.272-0.263 0-0.391-0.146-0.492-0.302l-0.025-0.040c-0.068-0.113-0.182-0.302-0.422-0.302-0.231 0-0.343 0.181-0.41 0.289l-0.032 0.048c-0.109 0.156-0.23 0.293-0.466 0.304l-0.146-0.413c-0.044-0.123-0.179-0.188-0.302-0.144-0.123 0.044-0.188 0.179-0.145 0.302l1.439 4.070c0.076 0.213 0.15 0.587 0.162 0.817l0.233 4.461c0.006 0.127 0.112 0.225 0.236 0.225h0.013c0.131-0.007 0.231-0.119 0.224-0.249l-0.233-4.462c-0.014-0.275-0.098-0.693-0.189-0.95l-1.183-3.348c0.351-0.054 0.527-0.303 0.617-0.432 0.013-0.019 0.026-0.040 0.040-0.063 0.061-0.098 0.094-0.139 0.142-0.139 0.052 0 0.085 0.039 0.152 0.15l0.028 0.046c0.122 0.193 0.334 0.45 0.759 0.45 0.386 0 0.579-0.232 0.706-0.385l0.038-0.046c0.022-0.026 0.045-0.058 0.067-0.092 0.060-0.091 0.089-0.122 0.128-0.122 0.042 0 0.068 0.030 0.128 0.124 0.019 0.030 0.037 0.058 0.060 0.089 0.131 0.172 0.329 0.433 0.747 0.433 0.394 0 0.589-0.237 0.718-0.395l0.032-0.038c0.018-0.022 0.035-0.045 0.052-0.068 0.070-0.094 0.096-0.12 0.149-0.12 0.040 0 0.049 0.006 0.107 0.090 0.024 0.034 0.048 0.068 0.077 0.101l0.045 0.053c0.114 0.134 0.265 0.309 0.536 0.36l-1.173 3.318c-0.092 0.258-0.174 0.675-0.189 0.951l-0.234 4.462c-0.006 0.131 0.094 0.243 0.224 0.25h0.013c0.125 0 0.23-0.098 0.236-0.224l0.234-4.462c0.012-0.229 0.086-0.603 0.162-0.817l1.439-4.069c0.043-0.123-0.021-0.258-0.145-0.302zM14.198 24.663h2.996c0.087 0 0.158-0.070 0.158-0.158 0-0.087-0.070-0.158-0.158-0.158h-2.996c-0.087 0-0.158 0.071-0.158 0.158 0 0.088 0.071 0.158 0.158 0.158zM18.16 25.364h-4.26c-0.087 0-0.158 0.071-0.158 0.158 0 0.088 0.070 0.158 0.158 0.158h4.26c0.087 0 0.158-0.070 0.158-0.158 0-0.087-0.071-0.158-0.158-0.158zM17.212 26.381h-2.364c-0.087 0-0.158 0.070-0.158 0.158s0.070 0.158 0.158 0.158h2.364c0.087 0 0.158-0.070 0.158-0.158 0-0.087-0.071-0.158-0.158-0.158z" fill="#000000" />
</svg>
