<?xml version="1.0" encoding="utf-8"?>
<!-- Generated by IcoMoon.io -->
<!DOCTYPE svg PUBLIC "-//W3C//DTD SVG 1.1//EN" "http://www.w3.org/Graphics/SVG/1.1/DTD/svg11.dtd">
<svg version="1.1" xmlns="http://www.w3.org/2000/svg" xmlns:xlink="http://www.w3.org/1999/xlink" width="32" height="32" viewBox="0 0 32 32">
<g>
</g>
	<path d="M25.29 6.659c0.037-0.138-0.022-0.287-0.156-0.353l-2.818-1.38c-0.042-0.021-0.089-0.031-0.134-0.031l-11.572 0c-0.041 0-0.082 0.009-0.12 0.025l-3.244 1.379c-0.142 0.061-0.21 0.215-0.171 0.36-0.007 0.026-0.016 0.051-0.016 0.080v10.152c0 0.007 0.004 0.013 0.004 0.020-0 0.008-0.004 0.013-0.004 0.020v10.152c0 0.169 0.137 0.306 0.306 0.306h17.634c0.17 0 0.306-0.138 0.306-0.306v-10.153c0-0.007-0.004-0.013-0.004-0.020 0.001-0.006 0.004-0.013 0.004-0.020v-10.151c0-0.029-0.009-0.054-0.016-0.080zM10.672 5.508h11.438l1.887 0.924-15.499 0 2.173-0.924zM24.693 8.626v18.15l-17.021-0v-19.73h17.021v1.581zM16.846 24.995h6.997c0.085 0 0.154-0.069 0.154-0.154v-16.744c0-0.085-0.070-0.154-0.154-0.154l-6.997-0c-0.085 0-0.154 0.069-0.154 0.154v16.744c-0 0.085 0.070 0.154 0.154 0.154zM23.689 15.663h-6.688l-0-3.6h6.688l0 3.6zM17 24.686v-8.715h6.688v8.715h-6.688zM23.689 8.251v3.503h-6.688l-0-3.503h6.688zM17.811 9.66h5.115c0.171 0 0.309-0.138 0.309-0.309 0-0.17-0.138-0.309-0.309-0.309h-5.115c-0.171 0-0.309 0.138-0.309 0.309 0 0.171 0.139 0.309 0.309 0.309zM17.811 11.011h5.115c0.171 0 0.309-0.138 0.309-0.309 0-0.171-0.138-0.309-0.309-0.309l-5.115 0c-0.171 0-0.309 0.138-0.309 0.309 0 0.171 0.139 0.309 0.309 0.309zM9.164 9.554h5.761c0.085 0 0.154-0.069 0.154-0.154 0-0.085-0.069-0.154-0.154-0.154l-5.761-0c-0.085 0-0.154 0.069-0.154 0.154 0 0.085 0.069 0.155 0.154 0.155zM9.164 10.31h5.761c0.085 0 0.154-0.069 0.154-0.154s-0.069-0.154-0.154-0.154l-5.761-0c-0.085 0-0.154 0.069-0.154 0.154s0.069 0.155 0.154 0.155zM9.164 11.066h5.761c0.085 0 0.154-0.069 0.154-0.154 0-0.085-0.069-0.154-0.154-0.154l-5.761-0c-0.085 0-0.154 0.069-0.154 0.154 0 0.085 0.069 0.155 0.154 0.155zM9.164 12.509h5.761c0.085 0 0.154-0.069 0.154-0.154 0-0.085-0.069-0.154-0.154-0.154l-5.761-0c-0.085 0-0.154 0.070-0.154 0.154 0 0.085 0.069 0.155 0.154 0.155zM9.164 13.264h5.761c0.085 0 0.154-0.069 0.154-0.154 0-0.085-0.069-0.154-0.154-0.154l-5.761-0c-0.085 0-0.154 0.070-0.154 0.154 0 0.086 0.069 0.155 0.154 0.155zM9.164 14.020h5.761c0.085 0 0.154-0.069 0.154-0.154 0-0.085-0.069-0.154-0.154-0.154l-5.761-0c-0.085 0-0.154 0.070-0.154 0.154 0 0.086 0.069 0.155 0.154 0.155zM9.164 15.463h5.761c0.085 0 0.154-0.070 0.154-0.154 0-0.086-0.069-0.154-0.154-0.154l-5.761-0c-0.085 0-0.154 0.069-0.154 0.154 0 0.085 0.069 0.155 0.154 0.155zM9.164 16.219h5.761c0.085 0 0.154-0.069 0.154-0.154 0-0.085-0.069-0.154-0.154-0.154h-5.761c-0.085 0-0.154 0.070-0.154 0.154 0 0.086 0.069 0.154 0.154 0.154zM9.164 16.975h5.761c0.085 0 0.154-0.069 0.154-0.154 0-0.085-0.069-0.154-0.154-0.154l-5.761-0c-0.085 0-0.154 0.070-0.154 0.154 0 0.086 0.069 0.154 0.154 0.154zM17.811 13.569h5.115c0.171 0 0.309-0.138 0.309-0.309 0-0.17-0.138-0.309-0.309-0.309h-5.115c-0.171 0-0.309 0.138-0.309 0.309 0 0.17 0.139 0.309 0.309 0.309zM22.926 14.302h-5.115c-0.171 0-0.309 0.138-0.309 0.309 0 0.171 0.138 0.309 0.309 0.309h5.115c0.171 0 0.309-0.138 0.309-0.309 0-0.171-0.138-0.309-0.309-0.309zM17.569 17.1c-0 0.002-0 0.003-0 0.005 0 0.233 0.189 0.421 0.421 0.421 0.233 0 0.421-0.189 0.421-0.421 0-0.002 0-0.004-0-0.005 0-0.001 0-0.003 0-0.005 0-0.233-0.189-0.421-0.421-0.421-0.233 0-0.421 0.189-0.421 0.421 0 0.002 0 0.004 0 0.005zM18.767 17.1c0 0.233 0.189 0.421 0.421 0.421s0.421-0.189 0.421-0.421c0-0.233-0.189-0.421-0.421-0.421-0.233 0-0.421 0.189-0.421 0.421zM19.963 17.1c0 0.233 0.189 0.421 0.421 0.421s0.421-0.189 0.421-0.421c0-0.233-0.189-0.421-0.421-0.421-0.233 0-0.421 0.189-0.421 0.421z" fill="#000000" />
</svg>
