<?xml version="1.0" encoding="utf-8"?>
<!-- Generated by IcoMoon.io -->
<!DOCTYPE svg PUBLIC "-//W3C//DTD SVG 1.1//EN" "http://www.w3.org/Graphics/SVG/1.1/DTD/svg11.dtd">
<svg version="1.1" xmlns="http://www.w3.org/2000/svg" xmlns:xlink="http://www.w3.org/1999/xlink" width="32" height="32" viewBox="0 0 32 32">
<g>
</g>
	<path d="M3.583 12.122c-0.003 0.013-0.007 0.025-0.007 0.038v4.821c0 0.004 0.002 0.006 0.002 0.010 0 0.004-0.002 0.006-0.002 0.010v4.821c0 0.080 0.065 0.146 0.146 0.146h8.374c0.002 0 0.003-0.001 0.004-0.001s0.003 0.001 0.004 0.001h8.374c0.004 0 0.006-0.002 0.010-0.002s0.006 0.002 0.010 0.002h8.374c0.081 0 0.146-0.065 0.146-0.146v-4.821c0-0.003-0.002-0.006-0.002-0.010 0-0.003 0.002-0.006 0.002-0.010v-4.821c0-0.014-0.004-0.026-0.007-0.038 0.018-0.066-0.010-0.136-0.074-0.167l-3.813-0.655c-0.020-0.010-0.187-0.015-0.209-0.015l-17.161 0c-0.020 0-0.185 0.004-0.202 0.012l-3.886 0.655c-0.068 0.029-0.1 0.102-0.081 0.171zM20.332 20.253v1.422l-8.083-0v-2.119h8.083v0.697zM20.332 17.896v1.369h-8.083v-2.12h8.083v0.751zM20.332 15.413v1.422l-8.083 0v-2.119h8.083v0.697zM20.332 13.056v1.369h-8.083v-2.119h8.083v0.751zM28.726 20.253v1.422l-8.083-0v-2.119l8.083 0v0.697zM28.726 17.896v1.369h-8.083v-2.12l8.083 0v0.75zM28.726 15.413v1.422l-8.083 0v-2.119h8.083v0.697zM28.726 13.056v1.369h-8.083v-2.119h8.083v0.751zM25.025 11.575l2.615 0.439h-7.010l-0.876-0.439h5.271zM19.179 11.575l0.823 0.439h-7.361l0.947-0.439h5.59zM7.637 11.575h5.35l-0.99 0.439h-6.968l2.608-0.439zM3.867 12.305h8.083v2.119h-8.083v-2.119zM3.867 14.716h8.083v2.119l-8.083 0v-2.119zM3.867 17.146h8.083v2.12l-8.083-0v-2.119zM3.867 19.556h8.083v2.119l-8.083-0v-2.119zM4.398 13.419c0 0.111 0.090 0.2 0.2 0.2s0.2-0.090 0.2-0.2c0-0.111-0.090-0.2-0.2-0.2-0.111 0-0.2 0.090-0.2 0.2zM5.108 13.419c0 0.111 0.090 0.2 0.2 0.2s0.2-0.090 0.2-0.2c0-0.111-0.090-0.2-0.2-0.2-0.111 0-0.2 0.090-0.2 0.2zM11.45 12.693h-0.437c-0.040 0-0.073 0.033-0.073 0.073v1.164c0 0.040 0.033 0.073 0.073 0.073h0.437c0.040 0 0.073-0.033 0.073-0.073v-1.164c0-0.040-0.033-0.073-0.073-0.073zM11.378 13.858h-0.291v-1.019h0.291v1.019zM10.577 12.693h-0.437c-0.040 0-0.073 0.033-0.073 0.073v1.164c0 0.040 0.033 0.073 0.073 0.073h0.437c0.040 0 0.073-0.033 0.073-0.073v-1.164c-0-0.040-0.033-0.073-0.073-0.073zM10.505 13.858h-0.291v-1.019h0.291v1.019zM4.398 15.894c0 0.111 0.090 0.2 0.2 0.2s0.2-0.090 0.2-0.2c0-0.111-0.090-0.2-0.2-0.2-0.111 0-0.2 0.090-0.2 0.2zM5.108 15.894c0 0.111 0.090 0.2 0.2 0.2s0.2-0.090 0.2-0.2c0-0.111-0.090-0.2-0.2-0.2-0.111 0-0.2 0.090-0.2 0.2zM11.45 15.167h-0.437c-0.040 0-0.073 0.033-0.073 0.073v1.164c0 0.040 0.033 0.073 0.073 0.073h0.437c0.040 0 0.073-0.033 0.073-0.073v-1.164c0-0.040-0.033-0.073-0.073-0.073zM11.378 16.332h-0.291v-1.019h0.291v1.019zM10.577 15.167h-0.437c-0.040 0-0.073 0.033-0.073 0.073v1.164c0 0.040 0.033 0.073 0.073 0.073h0.437c0.040 0 0.073-0.033 0.073-0.073v-1.164c-0-0.040-0.033-0.073-0.073-0.073zM10.505 16.332h-0.291v-1.019h0.291v1.019zM4.398 18.223c0 0.111 0.090 0.2 0.2 0.2s0.2-0.090 0.2-0.2c0-0.111-0.090-0.2-0.2-0.2-0.111 0-0.2 0.090-0.2 0.2zM5.108 18.223c0 0.111 0.090 0.2 0.2 0.2s0.2-0.090 0.2-0.2c0-0.111-0.090-0.2-0.2-0.2-0.111 0-0.2 0.090-0.2 0.2zM11.45 17.497h-0.437c-0.040 0-0.073 0.032-0.073 0.072v1.165c0 0.040 0.033 0.073 0.073 0.073h0.437c0.040 0 0.073-0.032 0.073-0.073v-1.165c0-0.040-0.033-0.072-0.073-0.072zM11.378 18.661h-0.291v-1.019h0.291v1.019zM10.577 17.497h-0.437c-0.040 0-0.073 0.032-0.073 0.072v1.165c0 0.040 0.033 0.073 0.073 0.073h0.437c0.040 0 0.073-0.032 0.073-0.073v-1.165c-0-0.040-0.033-0.072-0.073-0.072zM10.505 18.661h-0.291v-1.019h0.291v1.019zM4.398 20.698c-0 0.002-0 0.005-0 0.008 0 0.11 0.090 0.2 0.2 0.2 0.11 0 0.2-0.090 0.2-0.2 0-0.003-0-0.006-0-0.008 0-0.002 0-0.005 0-0.008 0-0.11-0.090-0.2-0.2-0.2-0.11 0-0.2 0.090-0.2 0.2 0 0.003 0 0.006 0 0.008zM5.108 20.698c-0 0.002-0 0.005-0 0.008 0 0.11 0.090 0.2 0.2 0.2 0.11 0 0.2-0.090 0.2-0.2 0-0.003-0-0.006-0-0.008 0-0.002 0-0.005 0-0.008 0-0.11-0.090-0.2-0.2-0.2-0.11 0-0.2 0.090-0.2 0.2 0 0.003 0 0.006 0 0.008zM11.45 19.971h-0.437c-0.040 0-0.073 0.033-0.073 0.073v1.164c0 0.040 0.033 0.073 0.073 0.073h0.437c0.040 0 0.073-0.033 0.073-0.073v-1.164c0-0.040-0.033-0.073-0.073-0.073zM11.378 21.136h-0.291v-1.019h0.291v1.019zM10.577 19.971h-0.437c-0.040 0-0.073 0.033-0.073 0.073v1.164c0 0.040 0.033 0.073 0.073 0.073h0.437c0.040 0 0.073-0.033 0.073-0.073v-1.164c-0-0.040-0.033-0.073-0.073-0.073zM10.505 21.136h-0.291v-1.019h0.291v1.019zM12.84 13.419c0 0.111 0.090 0.2 0.2 0.2s0.2-0.090 0.2-0.2c0-0.111-0.090-0.2-0.2-0.2-0.111 0-0.2 0.090-0.2 0.2zM13.551 13.419c0 0.111 0.090 0.2 0.2 0.2s0.2-0.090 0.2-0.2c0-0.111-0.090-0.2-0.2-0.2-0.111 0-0.2 0.090-0.2 0.2zM19.457 14.003h0.437c0.040 0 0.073-0.033 0.073-0.073v-1.164c0-0.040-0.033-0.073-0.073-0.073h-0.437c-0.040 0-0.073 0.033-0.073 0.073v1.164c-0 0.040 0.032 0.073 0.073 0.073zM19.53 12.838h0.291v1.019h-0.291v-1.019zM18.583 14.003h0.437c0.040 0 0.073-0.033 0.073-0.073v-1.164c0-0.040-0.032-0.073-0.073-0.073h-0.437c-0.040 0-0.073 0.033-0.073 0.073v1.164c0 0.040 0.032 0.073 0.073 0.073zM18.656 12.838h0.291v1.019h-0.291v-1.019zM12.84 15.894c0 0.111 0.090 0.2 0.2 0.2s0.2-0.090 0.2-0.2c0-0.111-0.090-0.2-0.2-0.2-0.111 0-0.2 0.090-0.2 0.2zM13.551 15.894c0 0.111 0.090 0.2 0.2 0.2s0.2-0.090 0.2-0.2c0-0.111-0.090-0.2-0.2-0.2-0.111 0-0.2 0.090-0.2 0.2zM19.457 16.478h0.437c0.040 0 0.073-0.033 0.073-0.073v-1.164c0-0.040-0.033-0.073-0.073-0.073h-0.437c-0.040 0-0.073 0.033-0.073 0.073v1.164c-0 0.040 0.032 0.073 0.073 0.073zM19.53 15.313h0.291v1.019h-0.291v-1.019zM18.583 16.478h0.437c0.040 0 0.073-0.033 0.073-0.073v-1.164c0-0.040-0.032-0.073-0.073-0.073h-0.437c-0.040 0-0.073 0.033-0.073 0.073v1.164c0 0.040 0.032 0.073 0.073 0.073zM18.656 15.313h0.291v1.019h-0.291v-1.019zM12.84 18.223c0 0.111 0.090 0.2 0.2 0.2s0.2-0.090 0.2-0.2c0-0.111-0.090-0.2-0.2-0.2-0.111 0-0.2 0.090-0.2 0.2zM13.551 18.223c0 0.111 0.090 0.2 0.2 0.2s0.2-0.090 0.2-0.2c0-0.111-0.090-0.2-0.2-0.2-0.111 0-0.2 0.090-0.2 0.2zM19.457 18.806h0.437c0.040 0 0.073-0.032 0.073-0.073v-1.165c0-0.040-0.033-0.072-0.073-0.072h-0.437c-0.040 0-0.073 0.032-0.073 0.072v1.165c-0 0.040 0.032 0.073 0.073 0.073zM19.53 17.642h0.291v1.019h-0.291v-1.019zM18.583 18.806h0.437c0.040 0 0.073-0.032 0.073-0.073v-1.165c0-0.040-0.032-0.072-0.073-0.072h-0.437c-0.040 0-0.073 0.032-0.073 0.072v1.165c0 0.040 0.032 0.073 0.073 0.073zM18.656 17.642h0.291v1.019h-0.291v-1.019zM12.841 20.698c-0 0.002-0 0.005-0 0.008 0 0.11 0.090 0.2 0.2 0.2 0.11 0 0.2-0.090 0.2-0.2 0-0.003-0-0.006-0-0.008 0-0.002 0-0.005 0-0.008 0-0.11-0.090-0.2-0.2-0.2-0.11 0-0.2 0.090-0.2 0.2 0 0.003 0 0.006 0 0.008zM13.551 20.698c-0 0.002-0 0.005-0 0.008 0 0.11 0.090 0.2 0.2 0.2 0.11 0 0.2-0.090 0.2-0.2 0-0.003-0-0.006-0-0.008 0-0.002 0-0.005 0-0.008 0-0.11-0.090-0.2-0.2-0.2-0.11 0-0.2 0.090-0.2 0.2 0 0.003 0 0.006 0 0.008zM19.457 21.282h0.437c0.040 0 0.073-0.033 0.073-0.073v-1.164c0-0.040-0.033-0.073-0.073-0.073h-0.437c-0.040 0-0.073 0.033-0.073 0.073v1.164c-0 0.040 0.032 0.073 0.073 0.073zM19.53 20.117h0.291v1.019h-0.291v-1.019zM18.583 21.282h0.437c0.040 0 0.073-0.033 0.073-0.073v-1.164c0-0.040-0.032-0.073-0.073-0.073h-0.437c-0.040 0-0.073 0.033-0.073 0.073v1.164c0 0.040 0.032 0.073 0.073 0.073zM18.656 20.117h0.291v1.019h-0.291v-1.019zM21.138 13.419c0 0.111 0.090 0.2 0.2 0.2s0.2-0.090 0.2-0.2c0-0.111-0.090-0.2-0.2-0.2-0.111 0-0.2 0.090-0.2 0.2zM21.848 13.419c0 0.111 0.090 0.2 0.2 0.2s0.2-0.090 0.2-0.2c0-0.111-0.090-0.2-0.2-0.2-0.111 0-0.2 0.090-0.2 0.2zM27.754 14.003h0.437c0.040 0 0.073-0.033 0.073-0.073v-1.164c0-0.040-0.033-0.073-0.073-0.073h-0.437c-0.040 0-0.073 0.033-0.073 0.073v1.164c0 0.040 0.033 0.073 0.073 0.073zM27.826 12.838h0.291v1.019h-0.291v-1.019zM26.881 14.003h0.437c0.040 0 0.073-0.033 0.073-0.073v-1.164c0-0.040-0.033-0.073-0.073-0.073h-0.437c-0.040 0-0.073 0.033-0.073 0.073v1.164c0 0.040 0.032 0.073 0.073 0.073zM26.954 12.838h0.291v1.019h-0.291v-1.019zM21.138 15.894c0 0.111 0.090 0.2 0.2 0.2s0.2-0.090 0.2-0.2c0-0.111-0.090-0.2-0.2-0.2-0.111 0-0.2 0.090-0.2 0.2zM21.848 15.894c0 0.111 0.090 0.2 0.2 0.2s0.2-0.090 0.2-0.2c0-0.111-0.090-0.2-0.2-0.2-0.111 0-0.2 0.090-0.2 0.2zM27.754 16.478h0.437c0.040 0 0.073-0.033 0.073-0.073v-1.164c0-0.040-0.033-0.073-0.073-0.073h-0.437c-0.040 0-0.073 0.033-0.073 0.073v1.164c0 0.040 0.033 0.073 0.073 0.073zM27.826 15.313h0.291v1.019h-0.291v-1.019zM26.881 16.478h0.437c0.040 0 0.073-0.033 0.073-0.073v-1.164c0-0.040-0.033-0.073-0.073-0.073h-0.437c-0.040 0-0.073 0.033-0.073 0.073v1.164c0 0.040 0.032 0.073 0.073 0.073zM26.954 15.313h0.291v1.019h-0.291v-1.019zM21.138 18.223c0 0.111 0.090 0.2 0.2 0.2s0.2-0.090 0.2-0.2c0-0.111-0.090-0.2-0.2-0.2-0.111 0-0.2 0.090-0.2 0.2zM21.848 18.223c0 0.111 0.090 0.2 0.2 0.2s0.2-0.090 0.2-0.2c0-0.111-0.090-0.2-0.2-0.2-0.111 0-0.2 0.090-0.2 0.2zM27.754 18.806h0.437c0.040 0 0.073-0.032 0.073-0.073v-1.165c0-0.040-0.033-0.072-0.073-0.072h-0.437c-0.040 0-0.073 0.032-0.073 0.072v1.165c0 0.040 0.033 0.073 0.073 0.073zM27.826 17.642h0.291v1.019h-0.291v-1.019zM26.881 18.806h0.437c0.040 0 0.073-0.032 0.073-0.073v-1.165c0-0.040-0.033-0.072-0.073-0.072h-0.437c-0.040 0-0.073 0.032-0.073 0.072v1.165c0 0.040 0.032 0.073 0.073 0.073zM26.954 17.642h0.291v1.019h-0.291v-1.019zM21.138 20.698c-0 0.002-0 0.005-0 0.007 0 0.11 0.090 0.2 0.2 0.2 0.11 0 0.2-0.090 0.2-0.2 0-0.003-0-0.005-0-0.007 0-0.002 0-0.004 0-0.007 0-0.11-0.090-0.2-0.2-0.2-0.11 0-0.2 0.090-0.2 0.2 0 0.003 0 0.005 0 0.007zM21.849 20.698c-0 0.002-0 0.005-0 0.008 0 0.11 0.090 0.2 0.2 0.2 0.11 0 0.2-0.090 0.2-0.2 0-0.003-0-0.006-0-0.008 0-0.002 0-0.005 0-0.008 0-0.11-0.090-0.2-0.2-0.2-0.11 0-0.2 0.090-0.2 0.2 0 0.003 0 0.006 0 0.008zM27.754 21.282h0.437c0.040 0 0.073-0.033 0.073-0.073v-1.164c0-0.040-0.033-0.073-0.073-0.073h-0.437c-0.040 0-0.073 0.033-0.073 0.073v1.164c0 0.040 0.033 0.073 0.073 0.073zM27.826 20.117h0.291v1.019h-0.291v-1.019zM26.881 21.282h0.437c0.040 0 0.073-0.033 0.073-0.073v-1.164c0-0.040-0.033-0.073-0.073-0.073h-0.437c-0.040 0-0.073 0.033-0.073 0.073v1.164c0 0.040 0.032 0.073 0.073 0.073zM26.954 20.117h0.291v1.019h-0.291v-1.019zM13.169 22.381h-0.29c-0.060 0-0.109 0.049-0.109 0.109 0 0.060 0.049 0.11 0.109 0.11h0.29c0.060 0 0.109-0.049 0.109-0.11 0-0.060-0.049-0.109-0.109-0.109zM16.8 22.381h-0.29c-0.060 0-0.109 0.049-0.109 0.109 0 0.060 0.049 0.11 0.109 0.11h0.29c0.060 0 0.109-0.049 0.109-0.11 0-0.060-0.049-0.109-0.109-0.109zM15.347 22.381h-0.29c-0.060 0-0.109 0.049-0.109 0.109 0 0.060 0.049 0.11 0.109 0.11h0.29c0.060 0 0.109-0.049 0.109-0.11 0-0.060-0.049-0.109-0.109-0.109zM14.621 22.381h-0.29c-0.060 0-0.109 0.049-0.109 0.109 0 0.060 0.049 0.11 0.109 0.11h0.29c0.060 0 0.109-0.049 0.109-0.11-0-0.060-0.049-0.109-0.109-0.109zM17.527 22.381h-0.29c-0.060 0-0.109 0.049-0.109 0.109 0 0.060 0.049 0.11 0.109 0.11h0.29c0.060 0 0.109-0.049 0.109-0.11 0-0.060-0.049-0.109-0.109-0.109zM13.895 22.381h-0.29c-0.060 0-0.109 0.049-0.109 0.109 0 0.060 0.049 0.11 0.109 0.11h0.29c0.060 0 0.109-0.049 0.109-0.11-0-0.060-0.049-0.109-0.109-0.109zM16.074 22.381h-0.29c-0.060 0-0.109 0.049-0.109 0.109 0 0.060 0.049 0.11 0.109 0.11h0.29c0.060 0 0.109-0.049 0.109-0.11 0-0.060-0.049-0.109-0.109-0.109zM21.158 22.381h-0.291c-0.060 0-0.109 0.049-0.109 0.109 0 0.060 0.049 0.11 0.109 0.11h0.29c0.060 0 0.109-0.049 0.109-0.11 0-0.060-0.048-0.109-0.109-0.109zM20.432 22.381h-0.291c-0.060 0-0.109 0.049-0.109 0.109 0 0.060 0.049 0.11 0.109 0.11h0.29c0.060 0 0.109-0.049 0.109-0.11 0-0.060-0.049-0.109-0.109-0.109zM18.979 22.381h-0.29c-0.060 0-0.109 0.049-0.109 0.109 0 0.060 0.049 0.11 0.109 0.11h0.29c0.060 0 0.109-0.049 0.109-0.11-0-0.060-0.049-0.109-0.109-0.109zM18.253 22.381h-0.29c-0.060 0-0.109 0.049-0.109 0.109 0 0.060 0.049 0.11 0.109 0.11h0.29c0.060 0 0.109-0.049 0.109-0.11-0-0.060-0.049-0.109-0.109-0.109zM19.705 22.381h-0.29c-0.060 0-0.109 0.049-0.109 0.109 0 0.060 0.049 0.11 0.109 0.11h0.29c0.060 0 0.109-0.049 0.109-0.11-0-0.060-0.049-0.109-0.109-0.109zM21.884 22.381h-0.29c-0.060 0-0.109 0.049-0.109 0.109 0 0.060 0.049 0.11 0.109 0.11h0.29c0.060 0 0.109-0.049 0.109-0.11 0-0.060-0.048-0.109-0.109-0.109zM8.085 22.381h-0.29c-0.060 0-0.109 0.049-0.109 0.109 0 0.060 0.049 0.11 0.109 0.11h0.29c0.060 0 0.109-0.049 0.109-0.11 0-0.060-0.049-0.109-0.109-0.109zM6.632 22.381h-0.29c-0.060 0-0.109 0.049-0.109 0.109 0 0.060 0.049 0.11 0.109 0.11h0.29c0.060 0 0.109-0.049 0.109-0.11 0-0.060-0.049-0.109-0.109-0.109zM7.358 22.381h-0.29c-0.060 0-0.109 0.049-0.109 0.109 0 0.060 0.049 0.11 0.109 0.11h0.29c0.060 0 0.109-0.049 0.109-0.11 0-0.060-0.049-0.109-0.109-0.109zM5.906 22.381h-0.29c-0.060 0-0.109 0.049-0.109 0.109 0 0.060 0.049 0.11 0.109 0.11h0.29c0.060 0 0.109-0.049 0.109-0.11 0-0.060-0.049-0.109-0.109-0.109zM5.179 22.381h-0.29c-0.060 0-0.109 0.049-0.109 0.109 0 0.060 0.049 0.11 0.109 0.11h0.29c0.060 0 0.109-0.049 0.109-0.11 0-0.060-0.049-0.109-0.109-0.109zM8.811 22.381h-0.29c-0.060 0-0.109 0.049-0.109 0.109 0 0.060 0.049 0.11 0.109 0.11h0.29c0.060 0 0.109-0.049 0.109-0.11-0-0.060-0.049-0.109-0.109-0.109zM11.716 22.381h-0.29c-0.060 0-0.109 0.049-0.109 0.109 0 0.060 0.049 0.11 0.109 0.11h0.29c0.060 0 0.109-0.049 0.109-0.11-0-0.060-0.049-0.109-0.109-0.109zM10.99 22.381h-0.29c-0.060 0-0.109 0.049-0.109 0.109 0 0.060 0.049 0.11 0.109 0.11h0.29c0.060 0 0.109-0.049 0.109-0.11-0-0.060-0.049-0.109-0.109-0.109zM9.537 22.381h-0.29c-0.060 0-0.109 0.049-0.109 0.109 0 0.060 0.049 0.11 0.109 0.11h0.29c0.060 0 0.109-0.049 0.109-0.11-0-0.060-0.049-0.109-0.109-0.109zM10.264 22.381h-0.29c-0.060 0-0.109 0.049-0.109 0.109 0 0.060 0.049 0.11 0.109 0.11h0.29c0.060 0 0.109-0.049 0.109-0.11-0-0.060-0.049-0.109-0.109-0.109zM12.442 22.381h-0.29c-0.060 0-0.109 0.049-0.109 0.109 0 0.060 0.049 0.11 0.109 0.11h0.29c0.060 0 0.109-0.049 0.109-0.11 0-0.060-0.049-0.109-0.109-0.109zM29.542 15.952c-0.060 0-0.109 0.049-0.109 0.109v0.29c0 0.060 0.049 0.109 0.109 0.109s0.109-0.049 0.109-0.109v-0.29c-0-0.060-0.049-0.109-0.109-0.109zM29.542 17.404c-0.060 0-0.109 0.049-0.109 0.109v0.29c0 0.060 0.049 0.109 0.109 0.109s0.109-0.049 0.109-0.109v-0.29c-0-0.060-0.049-0.109-0.109-0.109zM29.542 18.13c-0.060 0-0.109 0.049-0.109 0.109v0.29c0 0.060 0.049 0.109 0.109 0.109s0.109-0.049 0.109-0.109v-0.29c-0-0.060-0.049-0.109-0.109-0.109zM29.542 16.678c-0.060 0-0.109 0.049-0.109 0.109v0.29c0 0.060 0.049 0.109 0.109 0.109s0.109-0.049 0.109-0.109v-0.29c-0-0.060-0.049-0.109-0.109-0.109zM29.542 18.857c-0.060 0-0.109 0.049-0.109 0.109v0.29c0 0.060 0.049 0.109 0.109 0.109s0.109-0.049 0.109-0.109v-0.29c-0-0.060-0.049-0.109-0.109-0.109zM29.542 19.583c-0.060 0-0.109 0.049-0.109 0.109v0.29c0 0.060 0.049 0.109 0.109 0.109s0.109-0.049 0.109-0.109v-0.29c-0-0.060-0.049-0.109-0.109-0.109zM3.721 22.381c-0.082 0-0.161-0.018-0.235-0.052-0.055-0.026-0.12-0.002-0.145 0.053-0.026 0.054-0.002 0.12 0.053 0.145 0.103 0.048 0.213 0.072 0.327 0.072h0.006c0.060 0 0.106-0.049 0.106-0.11 0-0.060-0.052-0.109-0.112-0.109zM29.542 13.046c-0.060 0-0.109 0.049-0.109 0.109v0.29c0 0.060 0.049 0.109 0.109 0.109s0.109-0.049 0.109-0.109l-0-0.29c0-0.061-0.049-0.11-0.109-0.11zM29.542 12.32c-0.060 0-0.109 0.049-0.109 0.109v0.29c0 0.060 0.049 0.109 0.109 0.109s0.109-0.049 0.109-0.109l-0-0.29c0-0.060-0.049-0.109-0.109-0.109zM29.542 20.309c-0.060 0-0.109 0.049-0.109 0.109v0.29c0 0.060 0.049 0.109 0.109 0.109s0.109-0.049 0.109-0.109v-0.29c-0-0.060-0.049-0.109-0.109-0.109zM29.542 13.773c-0.060 0-0.109 0.049-0.109 0.109v0.29c0 0.060 0.049 0.109 0.109 0.109s0.109-0.049 0.109-0.109l-0-0.29c0-0.060-0.049-0.109-0.109-0.109zM29.542 14.499c-0.060 0-0.109 0.049-0.109 0.109v0.29c0 0.060 0.049 0.109 0.109 0.109s0.109-0.049 0.109-0.109v-0.29c-0-0.061-0.049-0.109-0.109-0.109zM29.542 15.225c-0.060 0-0.109 0.049-0.109 0.109v0.29c0 0.060 0.049 0.109 0.109 0.109s0.109-0.049 0.109-0.109v-0.29c-0-0.060-0.049-0.109-0.109-0.109zM24.79 22.381h-0.29c-0.060 0-0.109 0.049-0.109 0.109 0 0.060 0.049 0.11 0.109 0.11h0.29c0.060 0 0.109-0.049 0.109-0.11-0-0.060-0.049-0.109-0.109-0.109zM25.516 22.381h-0.29c-0.060 0-0.109 0.049-0.109 0.109 0 0.060 0.049 0.11 0.109 0.11h0.29c0.060 0 0.109-0.049 0.109-0.11 0-0.060-0.049-0.109-0.109-0.109zM26.242 22.381h-0.29c-0.060 0-0.109 0.049-0.109 0.109 0 0.060 0.049 0.11 0.109 0.11h0.29c0.060 0 0.109-0.049 0.109-0.11 0-0.060-0.049-0.109-0.109-0.109zM26.968 22.381h-0.29c-0.060 0-0.109 0.049-0.109 0.109 0 0.060 0.049 0.11 0.109 0.11h0.29c0.060 0 0.109-0.049 0.109-0.11 0-0.060-0.049-0.109-0.109-0.109zM22.61 22.381h-0.29c-0.060 0-0.109 0.049-0.109 0.109 0 0.060 0.049 0.11 0.109 0.11h0.29c0.060 0 0.109-0.049 0.109-0.11 0-0.060-0.049-0.109-0.109-0.109zM23.337 22.381h-0.29c-0.060 0-0.109 0.049-0.109 0.109 0 0.060 0.049 0.11 0.109 0.11h0.29c0.060 0 0.11-0.049 0.11-0.11-0-0.060-0.049-0.109-0.11-0.109zM24.063 22.381h-0.29c-0.060 0-0.109 0.049-0.109 0.109 0 0.060 0.049 0.11 0.109 0.11h0.29c0.060 0 0.109-0.049 0.109-0.11 0-0.060-0.049-0.109-0.109-0.109zM29.542 21.036c-0.060 0-0.109 0.049-0.109 0.109v0.29c0 0.060 0.049 0.109 0.109 0.109s0.109-0.049 0.109-0.109v-0.29c-0-0.061-0.049-0.109-0.109-0.109zM27.695 22.381h-0.29c-0.060 0-0.109 0.049-0.109 0.109 0 0.060 0.049 0.11 0.109 0.11h0.29c0.060 0 0.109-0.049 0.109-0.11-0-0.060-0.049-0.109-0.109-0.109zM29.532 12.103c0.005 0 0.010-0 0.015-0.001 0.060-0.008 0.102-0.063 0.094-0.123-0.015-0.111-0.055-0.22-0.115-0.314-0.032-0.051-0.1-0.066-0.151-0.034-0.051 0.032-0.066 0.1-0.034 0.15 0.043 0.068 0.072 0.147 0.083 0.227 0.007 0.055 0.054 0.095 0.108 0.095zM29.548 21.762c-0.058-0.002-0.113 0.041-0.117 0.101-0.006 0.082-0.030 0.159-0.070 0.23-0.030 0.053-0.011 0.119 0.042 0.149 0.017 0.009 0.035 0.014 0.053 0.014 0.038 0 0.075-0.020 0.096-0.056 0.056-0.099 0.088-0.208 0.097-0.322 0.005-0.060-0.040-0.112-0.1-0.117zM28.421 22.381h-0.29c-0.060 0-0.109 0.049-0.109 0.109 0 0.060 0.049 0.11 0.109 0.11h0.29c0.060 0 0.109-0.049 0.109-0.11-0-0.060-0.049-0.109-0.109-0.109zM29.096 22.334c-0.070 0.031-0.146 0.046-0.224 0.046h-0.015c-0.060 0-0.11 0.049-0.11 0.109 0 0.060 0.049 0.11 0.11 0.11h0.015c0.109-0 0.213-0.022 0.311-0.065 0.055-0.024 0.081-0.089 0.056-0.144-0.024-0.055-0.089-0.079-0.144-0.056zM4.453 22.381h-0.29c-0.060 0-0.109 0.049-0.109 0.109 0 0.060 0.049 0.11 0.109 0.11h0.29c0.060 0 0.109-0.049 0.109-0.11 0-0.060-0.048-0.109-0.109-0.109zM17.249 10.869h0.29c0.060 0 0.109-0.049 0.109-0.109 0-0.060-0.049-0.109-0.109-0.109h-0.29c-0.060 0-0.109 0.049-0.109 0.109 0 0.061 0.049 0.109 0.109 0.109zM17.975 10.869h0.29c0.060 0 0.109-0.049 0.109-0.109 0-0.060-0.049-0.109-0.109-0.109h-0.29c-0.060 0-0.109 0.049-0.109 0.109 0 0.061 0.049 0.109 0.109 0.109zM16.522 10.869h0.29c0.060 0 0.109-0.049 0.109-0.109 0-0.060-0.049-0.109-0.109-0.109h-0.29c-0.060 0-0.11 0.049-0.11 0.109 0 0.061 0.049 0.109 0.11 0.109zM3.078 11.65c-0.062 0.093-0.105 0.201-0.122 0.312-0.010 0.059 0.031 0.116 0.090 0.125 0.006 0.001 0.012 0.002 0.018 0.002 0.053 0 0.099-0.038 0.108-0.092 0.013-0.080 0.043-0.158 0.089-0.225 0.034-0.050 0.020-0.118-0.030-0.151-0.051-0.034-0.119-0.020-0.152 0.030zM15.796 10.869h0.29c0.060 0 0.109-0.049 0.109-0.109 0-0.060-0.049-0.109-0.109-0.109h-0.29c-0.060 0-0.109 0.049-0.109 0.109 0 0.061 0.049 0.109 0.109 0.109zM19.428 10.869h0.29c0.060 0 0.109-0.049 0.109-0.109 0-0.060-0.049-0.109-0.109-0.109h-0.29c-0.060 0-0.109 0.049-0.109 0.109 0 0.061 0.049 0.109 0.109 0.109zM18.702 10.869h0.29c0.060 0 0.109-0.049 0.109-0.109 0-0.060-0.049-0.109-0.109-0.109h-0.29c-0.060 0-0.109 0.049-0.109 0.109 0 0.061 0.049 0.109 0.109 0.109zM15.070 10.869h0.29c0.060 0 0.109-0.049 0.109-0.109 0-0.060-0.049-0.109-0.109-0.109h-0.29c-0.060 0-0.109 0.049-0.109 0.109 0 0.061 0.049 0.109 0.109 0.109zM12.165 10.869h0.29c0.060 0 0.109-0.049 0.109-0.109 0-0.060-0.049-0.109-0.109-0.109h-0.29c-0.060 0-0.109 0.049-0.109 0.109 0 0.061 0.049 0.109 0.109 0.109zM12.891 10.869h0.29c0.060 0 0.109-0.049 0.109-0.109 0-0.060-0.049-0.109-0.109-0.109h-0.29c-0.060 0-0.109 0.049-0.109 0.109 0 0.061 0.049 0.109 0.109 0.109zM14.344 10.869h0.29c0.060 0 0.109-0.049 0.109-0.109 0-0.060-0.049-0.109-0.109-0.109h-0.29c-0.060 0-0.109 0.049-0.109 0.109 0 0.061 0.049 0.109 0.109 0.109zM13.618 10.869h0.29c0.060 0 0.109-0.049 0.109-0.109 0-0.060-0.049-0.109-0.109-0.109h-0.29c-0.060 0-0.109 0.049-0.109 0.109-0 0.061 0.049 0.109 0.109 0.109zM25.523 10.945c0.052 0 0.098-0.038 0.108-0.091 0.010-0.059-0.030-0.116-0.089-0.126l-0.281-0.048-0.024 0.107-0.014 0.109 0.282 0.048c0.006 0.001 0.013 0.001 0.019 0.001zM26.65 11.141l0.286 0.049c0.006 0.001 0.013 0.002 0.019 0.002 0.052 0 0.098-0.038 0.108-0.091 0.010-0.059-0.030-0.116-0.089-0.126l-0.286-0.049c-0.059-0.010-0.116 0.030-0.126 0.089s0.029 0.115 0.089 0.126zM27.365 11.263l0.286 0.049c0.006 0.001 0.013 0.002 0.019 0.002 0.052 0 0.098-0.038 0.108-0.091 0.010-0.059-0.030-0.116-0.089-0.126l-0.286-0.049c-0.059-0.010-0.116 0.030-0.126 0.089-0.011 0.059 0.029 0.116 0.088 0.126zM11.438 10.869h0.29c0.060 0 0.109-0.049 0.109-0.109 0-0.060-0.049-0.109-0.109-0.109h-0.29c-0.060 0-0.109 0.049-0.109 0.109 0 0.061 0.049 0.109 0.109 0.109zM25.934 11.018l0.286 0.049c0.006 0.001 0.013 0.002 0.019 0.002 0.052 0 0.098-0.038 0.108-0.091 0.010-0.059-0.030-0.116-0.089-0.126l-0.286-0.049c-0.059-0.010-0.116 0.030-0.126 0.089s0.029 0.116 0.089 0.126zM28.081 11.386l0.286 0.049c0.006 0.001 0.012 0.002 0.019 0.002 0.052 0 0.098-0.038 0.108-0.091 0.010-0.059-0.030-0.116-0.089-0.126l-0.286-0.049c-0.059-0.010-0.116 0.030-0.126 0.089-0.011 0.060 0.030 0.116 0.089 0.126zM28.797 11.509l0.273 0.047c0.010 0.003 0.021 0.005 0.031 0.005 0.040 0 0.078-0.022 0.097-0.061 0.027-0.054 0.004-0.12-0.050-0.147l-0.313-0.058c-0.059-0.010-0.116 0.030-0.126 0.089s0.029 0.116 0.088 0.126zM23.786 10.869h0.29c0.060 0 0.109-0.049 0.109-0.109 0-0.060-0.049-0.109-0.109-0.109h-0.29c-0.060 0-0.109 0.049-0.109 0.109-0 0.061 0.048 0.109 0.109 0.109zM21.606 10.869h0.29c0.060 0 0.109-0.049 0.109-0.109 0-0.060-0.049-0.109-0.109-0.109h-0.29c-0.060 0-0.109 0.049-0.109 0.109 0 0.061 0.049 0.109 0.109 0.109zM22.333 10.869h0.29c0.060 0 0.109-0.049 0.109-0.109 0-0.060-0.049-0.109-0.109-0.109h-0.29c-0.060 0-0.109 0.049-0.109 0.109 0 0.061 0.049 0.109 0.109 0.109zM20.88 10.869h0.29c0.060 0 0.109-0.049 0.109-0.109 0-0.060-0.049-0.109-0.109-0.109h-0.29c-0.060 0-0.109 0.049-0.109 0.109 0 0.061 0.049 0.109 0.109 0.109zM24.512 10.869h0.29c0.060 0 0.109-0.049 0.109-0.109 0-0.060-0.049-0.109-0.109-0.109l-0.29 0c-0.060 0-0.109 0.049-0.109 0.109-0 0.060 0.048 0.109 0.109 0.109zM23.059 10.869h0.29c0.060 0 0.109-0.049 0.109-0.109 0-0.060-0.049-0.109-0.109-0.109l-0.29 0c-0.060 0-0.109 0.049-0.109 0.109 0 0.060 0.049 0.109 0.109 0.109zM20.154 10.869h0.29c0.060 0 0.109-0.049 0.109-0.109 0-0.060-0.049-0.109-0.109-0.109h-0.29c-0.060 0-0.109 0.049-0.109 0.109-0 0.061 0.049 0.109 0.109 0.109zM3.051 17.171c0.060 0 0.109-0.049 0.109-0.11v-0.29c0-0.060-0.049-0.109-0.109-0.109-0.060 0-0.109 0.049-0.109 0.109v0.29c0 0.061 0.049 0.11 0.109 0.11zM3.051 17.898c0.060 0 0.109-0.049 0.109-0.109v-0.29c0-0.060-0.049-0.109-0.109-0.109-0.060 0-0.109 0.049-0.109 0.109v0.29c0 0.060 0.049 0.109 0.109 0.109zM3.051 14.266c0.060 0 0.109-0.049 0.109-0.109l-0-0.29c0-0.060-0.049-0.109-0.109-0.109-0.060 0-0.109 0.049-0.109 0.109v0.29c0 0.060 0.050 0.109 0.11 0.109zM3.051 14.993c0.060 0 0.109-0.049 0.109-0.109v-0.29c0-0.060-0.049-0.109-0.109-0.109-0.060 0-0.109 0.049-0.109 0.109v0.29c0 0.060 0.049 0.109 0.109 0.109zM3.051 18.624c0.060 0 0.109-0.049 0.109-0.109v-0.29c0-0.060-0.049-0.109-0.109-0.109-0.060 0-0.109 0.049-0.109 0.109v0.29c0 0.060 0.049 0.109 0.109 0.109zM3.051 15.719c0.060 0 0.109-0.049 0.109-0.109v-0.29c0-0.060-0.049-0.109-0.109-0.109-0.060 0-0.109 0.049-0.109 0.109v0.29c0 0.060 0.049 0.109 0.109 0.109zM3.051 16.445c0.060 0 0.109-0.049 0.109-0.109v-0.29c0-0.060-0.049-0.109-0.109-0.109-0.060 0-0.109 0.049-0.109 0.109v0.29c0 0.061 0.049 0.109 0.109 0.109zM3.051 21.529c0.060 0 0.109-0.049 0.109-0.109v-0.29c0-0.060-0.049-0.109-0.109-0.109-0.060 0-0.109 0.049-0.109 0.109v0.29c0 0.060 0.049 0.109 0.109 0.109zM3.161 21.85c-0.003-0.060-0.056-0.109-0.115-0.104-0.060 0.003-0.106 0.054-0.103 0.115 0.006 0.114 0.036 0.223 0.090 0.323 0.020 0.037 0.058 0.058 0.097 0.058 0.018 0 0.035-0.004 0.051-0.013 0.053-0.028 0.073-0.094 0.045-0.147-0.038-0.072-0.059-0.15-0.064-0.232zM3.051 19.35c0.060 0 0.109-0.049 0.109-0.109v-0.29c0-0.060-0.049-0.11-0.109-0.11-0.060 0-0.109 0.049-0.109 0.11v0.29c0 0.061 0.049 0.109 0.109 0.109zM3.051 20.077c0.060 0 0.109-0.049 0.109-0.109v-0.29c0-0.060-0.049-0.109-0.109-0.109-0.060 0-0.109 0.049-0.109 0.109v0.29c0 0.061 0.049 0.109 0.109 0.109zM3.051 20.803c0.060 0 0.109-0.049 0.109-0.11v-0.29c0-0.060-0.049-0.109-0.109-0.109-0.060 0-0.109 0.049-0.109 0.109v0.29c0 0.061 0.049 0.11 0.109 0.11zM5.654 11.193c0.006 0 0.012-0 0.018-0.002l0.286-0.048c0.059-0.010 0.1-0.066 0.090-0.126-0.010-0.059-0.067-0.1-0.126-0.090l-0.286 0.048c-0.059 0.010-0.1 0.066-0.090 0.126 0.009 0.053 0.055 0.091 0.107 0.091zM8.533 10.869h0.29c0.060 0 0.109-0.049 0.109-0.109 0-0.060-0.049-0.109-0.109-0.109l-0.29 0c-0.060 0-0.109 0.049-0.109 0.109 0 0.060 0.049 0.109 0.109 0.109zM6.371 11.073c0.006 0 0.012-0.001 0.018-0.002l0.286-0.048c0.059-0.010 0.099-0.066 0.090-0.126-0.010-0.059-0.066-0.1-0.126-0.090l-0.286 0.048c-0.059 0.010-0.099 0.066-0.090 0.126 0.009 0.053 0.055 0.091 0.107 0.091zM3.051 13.54c0.060 0 0.109-0.049 0.109-0.109l-0-0.29c0-0.060-0.049-0.109-0.109-0.109-0.060 0-0.109 0.049-0.109 0.109v0.29c0 0.060 0.050 0.109 0.11 0.109zM7.807 10.869h0.29c0.060 0 0.109-0.049 0.109-0.109 0-0.060-0.049-0.109-0.109-0.109l-0.29 0c-0.060 0-0.109 0.049-0.109 0.109 0 0.060 0.049 0.109 0.109 0.109zM9.986 10.869h0.29c0.060 0 0.109-0.049 0.109-0.109 0-0.060-0.049-0.109-0.109-0.109h-0.29c-0.060 0-0.109 0.049-0.109 0.109 0 0.061 0.049 0.109 0.109 0.109zM9.259 10.869h0.29c0.060 0 0.109-0.049 0.109-0.109 0-0.060-0.049-0.109-0.109-0.109h-0.29c-0.060 0-0.109 0.049-0.109 0.109 0.001 0.061 0.049 0.109 0.109 0.109zM7.087 10.951c0.006 0 0.012-0 0.018-0.002l0.286-0.048c0.059-0.010 0.1-0.066 0.090-0.126-0.010-0.059-0.067-0.1-0.126-0.090l-0.286 0.048c-0.059 0.010-0.1 0.066-0.090 0.126 0.009 0.054 0.055 0.091 0.107 0.091zM3.051 12.814c0.060 0 0.109-0.049 0.109-0.109v-0.29c0-0.060-0.049-0.109-0.109-0.109-0.060 0-0.109 0.049-0.109 0.109v0.29c0 0.060 0.049 0.109 0.109 0.109zM10.712 10.869h0.29c0.060 0 0.109-0.049 0.109-0.109 0-0.060-0.049-0.109-0.109-0.109h-0.29c-0.060 0-0.109 0.049-0.109 0.109-0 0.061 0.049 0.109 0.109 0.109zM3.513 11.554c0.008 0 0.016-0.001 0.024-0.002l0.274-0.046c0.059-0.010 0.1-0.066 0.090-0.126-0.010-0.059-0.067-0.099-0.126-0.090l-0.278 0.047-0.033 0.011c-0.055 0.024-0.077 0.086-0.054 0.141 0.017 0.041 0.059 0.065 0.102 0.065zM4.938 11.314c0.006 0 0.012-0.001 0.018-0.002l0.286-0.048c0.059-0.010 0.1-0.066 0.090-0.126-0.010-0.059-0.067-0.099-0.126-0.090l-0.286 0.048c-0.059 0.010-0.1 0.066-0.090 0.126 0.009 0.053 0.055 0.091 0.107 0.091zM4.222 11.434c0.006 0 0.012-0 0.018-0.002l0.286-0.048c0.059-0.010 0.1-0.066 0.090-0.126-0.010-0.059-0.067-0.099-0.126-0.090l-0.286 0.048c-0.059 0.010-0.1 0.066-0.090 0.126 0.009 0.054 0.055 0.091 0.107 0.091z" fill="#000000" />
</svg>
