<?xml version="1.0" encoding="utf-8"?>
<!-- Generated by IcoMoon.io -->
<!DOCTYPE svg PUBLIC "-//W3C//DTD SVG 1.1//EN" "http://www.w3.org/Graphics/SVG/1.1/DTD/svg11.dtd">
<svg version="1.1" xmlns="http://www.w3.org/2000/svg" xmlns:xlink="http://www.w3.org/1999/xlink" width="32" height="32" viewBox="0 0 32 32">
<g>
</g>
	<path d="M14.37 15.122c-0 0.002-0 0.005-0 0.008 0 0.109 0.088 0.197 0.197 0.197 0.109 0 0.197-0.088 0.197-0.197 0-0.003-0-0.005-0-0.008 0-0.002 0-0.005 0-0.007 0-0.109-0.088-0.197-0.197-0.197-0.109 0-0.197 0.088-0.197 0.197 0 0.003 0 0.005 0 0.008zM12.949 15.835c-0 0.003-0 0.006-0 0.009 0 0.109 0.088 0.197 0.197 0.197 0.109 0 0.197-0.088 0.197-0.197 0-0.003-0-0.006-0-0.009 0-0.002 0-0.005 0-0.008 0-0.109-0.088-0.197-0.197-0.197-0.109 0-0.197 0.088-0.197 0.197 0 0.003 0 0.006 0 0.009zM15.070 15.122c-0 0.003-0 0.006-0 0.009 0 0.109 0.088 0.197 0.197 0.197 0.109 0 0.197-0.088 0.197-0.197 0-0.003-0-0.006-0-0.009 0-0.002 0-0.005 0-0.008 0-0.109-0.088-0.197-0.197-0.197-0.109 0-0.197 0.088-0.197 0.197 0 0.003 0 0.006 0 0.009zM15.786 15.835c-0 0.003-0 0.006-0 0.009 0 0.109 0.088 0.197 0.197 0.197 0.109 0 0.197-0.088 0.197-0.197 0-0.003-0-0.006-0-0.009 0-0.002 0-0.005 0-0.008 0-0.109-0.088-0.197-0.197-0.197-0.109 0-0.197 0.088-0.197 0.197 0 0.003 0 0.006 0 0.009zM12.949 15.122c-0 0.003-0 0.006-0 0.009 0 0.109 0.088 0.197 0.197 0.197 0.109 0 0.197-0.088 0.197-0.197 0-0.003-0-0.006-0-0.009 0-0.002 0-0.005 0-0.008 0-0.109-0.088-0.197-0.197-0.197-0.109 0-0.197 0.088-0.197 0.197 0 0.003 0 0.006 0 0.009zM13.648 15.835c-0 0.003-0 0.006-0 0.009 0 0.109 0.088 0.197 0.197 0.197 0.109 0 0.197-0.088 0.197-0.197 0-0.003-0-0.006-0-0.009 0-0.002 0-0.005 0-0.008 0-0.109-0.088-0.197-0.197-0.197-0.109 0-0.197 0.088-0.197 0.197 0 0.003 0 0.006 0 0.009zM14.37 15.835c-0 0.002-0 0.005-0 0.008 0 0.109 0.088 0.197 0.197 0.197 0.109 0 0.197-0.088 0.197-0.197 0-0.003-0-0.005-0-0.008 0-0.002 0-0.005 0-0.007 0-0.109-0.088-0.197-0.197-0.197-0.109 0-0.197 0.088-0.197 0.197 0 0.003 0 0.005 0 0.008zM15.786 15.122c-0 0.003-0 0.006-0 0.009 0 0.109 0.088 0.197 0.197 0.197 0.109 0 0.197-0.088 0.197-0.197 0-0.003-0-0.006-0-0.009 0-0.002 0-0.005 0-0.008 0-0.109-0.088-0.197-0.197-0.197-0.109 0-0.197 0.088-0.197 0.197 0 0.003 0 0.006 0 0.009zM13.648 15.122c-0 0.003-0 0.006-0 0.009 0 0.109 0.088 0.197 0.197 0.197 0.109 0 0.197-0.088 0.197-0.197 0-0.003-0-0.006-0-0.009 0-0.002 0-0.005 0-0.008 0-0.109-0.088-0.197-0.197-0.197-0.109 0-0.197 0.088-0.197 0.197 0 0.003 0 0.006 0 0.009zM16.484 19.897c-0 0.003-0 0.006-0 0.009 0 0.109 0.088 0.197 0.197 0.197 0.109 0 0.197-0.088 0.197-0.197 0-0.003-0-0.006-0-0.009 0-0.002 0-0.005 0-0.008 0-0.109-0.088-0.197-0.197-0.197-0.109 0-0.197 0.088-0.197 0.197 0 0.003 0 0.006 0 0.009zM17.906 19.897c-0 0.003-0 0.006-0 0.009 0 0.109 0.088 0.197 0.197 0.197 0.109 0 0.197-0.088 0.197-0.197 0-0.003-0-0.006-0-0.009 0-0.002 0-0.005 0-0.008 0-0.109-0.088-0.197-0.197-0.197-0.109 0-0.197 0.088-0.197 0.197 0 0.003 0 0.006 0 0.009zM17.906 20.61c-0 0.003-0 0.006-0 0.009 0 0.109 0.088 0.197 0.197 0.197 0.109 0 0.197-0.088 0.197-0.197 0-0.003-0-0.006-0-0.009 0-0.002 0-0.005 0-0.008 0-0.109-0.088-0.197-0.197-0.197-0.109 0-0.197 0.088-0.197 0.197 0 0.003 0 0.006 0 0.009zM17.206 19.897c-0 0.002-0 0.005-0 0.008 0 0.109 0.088 0.197 0.197 0.197 0.109 0 0.197-0.088 0.197-0.197 0-0.003-0-0.006-0-0.008 0-0.002 0-0.005 0-0.007 0-0.109-0.088-0.197-0.197-0.197-0.109 0-0.197 0.088-0.197 0.197 0 0.003 0 0.006 0 0.008zM17.206 20.61c-0 0.002-0 0.005-0 0.008 0 0.109 0.088 0.197 0.197 0.197 0.109 0 0.197-0.088 0.197-0.197 0-0.003-0-0.006-0-0.008 0-0.002 0-0.005 0-0.007 0-0.109-0.088-0.197-0.197-0.197-0.109 0-0.197 0.088-0.197 0.197 0 0.003 0 0.006 0 0.008zM16.484 15.122c-0 0.003-0 0.006-0 0.009 0 0.109 0.088 0.197 0.197 0.197 0.109 0 0.197-0.088 0.197-0.197 0-0.003-0-0.006-0-0.009 0-0.002 0-0.005 0-0.008 0-0.109-0.088-0.197-0.197-0.197-0.109 0-0.197 0.088-0.197 0.197 0 0.003 0 0.006 0 0.009zM16.484 15.835c-0 0.003-0 0.006-0 0.009 0 0.109 0.088 0.197 0.197 0.197 0.109 0 0.197-0.088 0.197-0.197 0-0.003-0-0.006-0-0.009 0-0.002 0-0.005 0-0.008 0-0.109-0.088-0.197-0.197-0.197-0.109 0-0.197 0.088-0.197 0.197 0 0.003 0 0.006 0 0.009zM18.601 20.61c-0 0.001-0 0.002-0 0.003 0 0.109 0.088 0.197 0.197 0.197 0.109 0 0.197-0.088 0.197-0.197 0-0.001 0-0.002-0-0.004 0-0.001 0-0.002 0-0.003 0-0.109-0.088-0.197-0.197-0.197-0.109 0-0.197 0.088-0.197 0.197 0 0.001 0 0.002 0 0.004zM18.601 19.897c-0 0.001-0 0.002-0 0.003 0 0.109 0.088 0.197 0.197 0.197 0.109 0 0.197-0.088 0.197-0.197 0-0.001 0-0.002-0-0.004 0-0.001 0-0.002 0-0.003 0-0.109-0.088-0.197-0.197-0.197-0.109 0-0.197 0.088-0.197 0.197 0 0.001 0 0.002 0 0.004zM15.070 15.835c-0 0.003-0 0.006-0 0.009 0 0.109 0.088 0.197 0.197 0.197 0.109 0 0.197-0.088 0.197-0.197 0-0.003-0-0.006-0-0.009 0-0.002 0-0.005 0-0.008 0-0.109-0.088-0.197-0.197-0.197-0.109 0-0.197 0.088-0.197 0.197 0 0.003 0 0.006 0 0.009zM14.37 12.73c-0 0.002-0 0.005-0 0.008 0 0.109 0.088 0.197 0.197 0.197 0.109 0 0.197-0.088 0.197-0.197 0-0.003-0-0.005-0-0.008 0-0.002 0-0.005 0-0.007 0-0.109-0.088-0.197-0.197-0.197-0.109 0-0.197 0.088-0.197 0.197 0 0.003 0 0.005 0 0.008zM15.070 13.443c-0 0.003-0 0.006-0 0.009 0 0.109 0.088 0.197 0.197 0.197 0.109 0 0.197-0.088 0.197-0.197 0-0.003-0-0.006-0-0.009 0-0.002 0-0.005 0-0.008 0-0.109-0.088-0.197-0.197-0.197-0.109 0-0.197 0.088-0.197 0.197 0 0.003 0 0.006 0 0.009zM15.070 12.73c-0 0.003-0 0.006-0 0.009 0 0.109 0.088 0.197 0.197 0.197 0.109 0 0.197-0.088 0.197-0.197 0-0.003-0-0.006-0-0.009 0-0.002 0-0.005 0-0.008 0-0.109-0.088-0.197-0.197-0.197-0.109 0-0.197 0.088-0.197 0.197 0 0.003 0 0.006 0 0.009zM15.786 13.443c-0 0.003-0 0.006-0 0.009 0 0.109 0.088 0.197 0.197 0.197 0.109 0 0.197-0.088 0.197-0.197 0-0.003-0-0.006-0-0.009 0-0.002 0-0.005 0-0.008 0-0.109-0.088-0.197-0.197-0.197-0.109 0-0.197 0.088-0.197 0.197 0 0.003 0 0.006 0 0.009zM14.37 13.443c-0 0.002-0 0.005-0 0.008 0 0.109 0.088 0.197 0.197 0.197 0.109 0 0.197-0.088 0.197-0.197 0-0.003-0-0.005-0-0.008 0-0.002 0-0.005 0-0.007 0-0.109-0.088-0.197-0.197-0.197-0.109 0-0.197 0.088-0.197 0.197 0 0.003 0 0.005 0 0.008zM12.949 12.73c-0 0.003-0 0.006-0 0.009 0 0.109 0.088 0.197 0.197 0.197 0.109 0 0.197-0.088 0.197-0.197 0-0.003-0-0.006-0-0.009 0-0.002 0-0.005 0-0.008 0-0.109-0.088-0.197-0.197-0.197-0.109 0-0.197 0.088-0.197 0.197 0 0.003 0 0.006 0 0.009zM12.949 13.443c-0 0.003-0 0.006-0 0.009 0 0.109 0.088 0.197 0.197 0.197 0.109 0 0.197-0.088 0.197-0.197 0-0.003-0-0.006-0-0.009 0-0.002 0-0.005 0-0.008 0-0.109-0.088-0.197-0.197-0.197-0.109 0-0.197 0.088-0.197 0.197 0 0.003 0 0.006 0 0.009zM13.648 13.443c-0 0.003-0 0.006-0 0.009 0 0.109 0.088 0.197 0.197 0.197 0.109 0 0.197-0.088 0.197-0.197 0-0.003-0-0.006-0-0.009 0-0.002 0-0.005 0-0.008 0-0.109-0.088-0.197-0.197-0.197-0.109 0-0.197 0.088-0.197 0.197 0 0.003 0 0.006 0 0.009zM13.648 12.73c-0 0.003-0 0.006-0 0.009 0 0.109 0.088 0.197 0.197 0.197 0.109 0 0.197-0.088 0.197-0.197 0-0.003-0-0.006-0-0.009 0-0.002 0-0.005 0-0.008 0-0.109-0.088-0.197-0.197-0.197-0.109 0-0.197 0.088-0.197 0.197 0 0.003 0 0.006 0 0.009zM17.906 12.73c-0 0.003-0 0.006-0 0.009 0 0.109 0.088 0.197 0.197 0.197 0.109 0 0.197-0.088 0.197-0.197 0-0.003-0-0.006-0-0.009 0-0.002 0-0.005 0-0.008 0-0.109-0.088-0.197-0.197-0.197-0.109 0-0.197 0.088-0.197 0.197 0 0.003 0 0.006 0 0.009zM17.206 12.73c-0 0.002-0 0.005-0 0.008 0 0.109 0.088 0.197 0.197 0.197 0.109 0 0.197-0.088 0.197-0.197 0-0.003-0-0.005-0-0.008 0-0.002 0-0.005 0-0.007 0-0.109-0.088-0.197-0.197-0.197-0.109 0-0.197 0.088-0.197 0.197 0 0.003 0 0.005 0 0.008zM18.601 12.73c-0 0.001-0 0.002-0 0.004 0 0.109 0.088 0.197 0.197 0.197 0.109 0 0.197-0.088 0.197-0.197 0-0.001 0-0.002-0-0.004 0-0.001 0-0.002 0-0.003 0-0.109-0.088-0.197-0.197-0.197-0.109 0-0.197 0.088-0.197 0.197 0 0.001 0 0.002 0 0.004zM17.906 13.443c-0 0.003-0 0.006-0 0.009 0 0.109 0.088 0.197 0.197 0.197 0.109 0 0.197-0.088 0.197-0.197 0-0.003-0-0.006-0-0.009 0-0.002 0-0.005 0-0.008 0-0.109-0.088-0.197-0.197-0.197-0.109 0-0.197 0.088-0.197 0.197 0 0.003 0 0.006 0 0.009zM18.601 13.443c-0 0.001-0 0.002-0 0.004 0 0.109 0.088 0.197 0.197 0.197 0.109 0 0.197-0.088 0.197-0.197 0-0.001 0-0.002-0-0.004 0-0.001 0-0.002 0-0.003 0-0.109-0.088-0.197-0.197-0.197-0.109 0-0.197 0.088-0.197 0.197 0 0.001 0 0.002 0 0.004zM15.786 12.73c-0 0.003-0 0.006-0 0.009 0 0.109 0.088 0.197 0.197 0.197 0.109 0 0.197-0.088 0.197-0.197 0-0.003-0-0.006-0-0.009 0-0.002 0-0.005 0-0.008 0-0.109-0.088-0.197-0.197-0.197-0.109 0-0.197 0.088-0.197 0.197 0 0.003 0 0.006 0 0.009zM17.206 13.443c-0 0.002-0 0.005-0 0.008 0 0.109 0.088 0.197 0.197 0.197 0.109 0 0.197-0.088 0.197-0.197 0-0.003-0-0.005-0-0.008 0-0.002 0-0.005 0-0.007 0-0.109-0.088-0.197-0.197-0.197-0.109 0-0.197 0.088-0.197 0.197 0 0.003 0 0.005 0 0.008zM16.484 13.443c-0 0.003-0 0.006-0 0.009 0 0.109 0.088 0.197 0.197 0.197 0.109 0 0.197-0.088 0.197-0.197 0-0.003-0-0.006-0-0.009 0-0.002 0-0.005 0-0.008 0-0.109-0.088-0.197-0.197-0.197-0.109 0-0.197 0.088-0.197 0.197 0 0.003 0 0.006 0 0.009zM16.484 12.73c-0 0.003-0 0.006-0 0.009 0 0.109 0.088 0.197 0.197 0.197 0.109 0 0.197-0.088 0.197-0.197 0-0.003-0-0.006-0-0.009 0-0.002 0-0.005 0-0.008 0-0.109-0.088-0.197-0.197-0.197-0.109 0-0.197 0.088-0.197 0.197 0 0.003 0 0.006 0 0.009zM14.37 17.513c-0 0.002-0 0.005-0 0.008 0 0.109 0.088 0.197 0.197 0.197 0.109 0 0.197-0.088 0.197-0.197 0-0.003-0-0.006-0-0.008 0-0.002 0-0.005 0-0.007 0-0.109-0.088-0.197-0.197-0.197-0.109 0-0.197 0.088-0.197 0.197 0 0.003 0 0.006 0 0.008zM17.206 17.513c-0 0.002-0 0.005-0 0.008 0 0.109 0.088 0.197 0.197 0.197 0.109 0 0.197-0.088 0.197-0.197 0-0.003-0-0.006-0-0.008 0-0.002 0-0.005 0-0.007 0-0.109-0.088-0.197-0.197-0.197-0.109 0-0.197 0.088-0.197 0.197 0 0.003 0 0.006 0 0.008zM17.206 18.226c-0 0.002-0 0.005-0 0.008 0 0.109 0.088 0.197 0.197 0.197 0.109 0 0.197-0.088 0.197-0.197 0-0.003-0-0.006-0-0.008 0-0.002 0-0.005 0-0.007 0-0.109-0.088-0.197-0.197-0.197-0.109 0-0.197 0.088-0.197 0.197 0 0.003 0 0.006 0 0.008zM17.906 18.226c-0 0.003-0 0.006-0 0.009 0 0.109 0.088 0.197 0.197 0.197 0.109 0 0.197-0.088 0.197-0.197 0-0.003-0-0.006-0-0.009 0-0.002 0-0.005 0-0.008 0-0.109-0.088-0.197-0.197-0.197-0.109 0-0.197 0.088-0.197 0.197 0 0.003 0 0.006 0 0.009zM16.484 17.513c-0 0.003-0 0.006-0 0.009 0 0.109 0.088 0.197 0.197 0.197 0.109 0 0.197-0.088 0.197-0.197 0-0.003-0-0.006-0-0.009 0-0.002 0-0.005 0-0.008 0-0.109-0.088-0.197-0.197-0.197-0.109 0-0.197 0.088-0.197 0.197 0 0.003 0 0.006 0 0.009zM17.906 17.513c-0 0.003-0 0.006-0 0.009 0 0.109 0.088 0.197 0.197 0.197 0.109 0 0.197-0.088 0.197-0.197 0-0.003-0-0.006-0-0.009 0-0.002 0-0.005 0-0.008 0-0.109-0.088-0.197-0.197-0.197-0.109 0-0.197 0.088-0.197 0.197 0 0.003 0 0.006 0 0.009zM15.786 18.226c-0 0.003-0 0.006-0 0.009 0 0.109 0.088 0.197 0.197 0.197 0.109 0 0.197-0.088 0.197-0.197 0-0.003-0-0.006-0-0.009 0-0.002 0-0.005 0-0.008 0-0.109-0.088-0.197-0.197-0.197-0.109 0-0.197 0.088-0.197 0.197 0 0.003 0 0.006 0 0.009zM16.484 18.226c-0 0.003-0 0.006-0 0.009 0 0.109 0.088 0.197 0.197 0.197 0.109 0 0.197-0.088 0.197-0.197 0-0.003-0-0.006-0-0.009 0-0.002 0-0.005 0-0.008 0-0.109-0.088-0.197-0.197-0.197-0.109 0-0.197 0.088-0.197 0.197 0 0.003 0 0.006 0 0.009zM12.949 18.226c-0 0.003-0 0.006-0 0.009 0 0.109 0.088 0.197 0.197 0.197 0.109 0 0.197-0.088 0.197-0.197 0-0.003-0-0.006-0-0.009 0-0.002 0-0.005 0-0.008 0-0.109-0.088-0.197-0.197-0.197-0.109 0-0.197 0.088-0.197 0.197 0 0.003 0 0.006 0 0.009zM15.786 17.513c-0 0.003-0 0.006-0 0.009 0 0.109 0.088 0.197 0.197 0.197 0.109 0 0.197-0.088 0.197-0.197 0-0.003-0-0.006-0-0.009 0-0.002 0-0.005 0-0.008 0-0.109-0.088-0.197-0.197-0.197-0.109 0-0.197 0.088-0.197 0.197 0 0.003 0 0.006 0 0.009zM12.949 17.513c-0 0.003-0 0.006-0 0.009 0 0.109 0.088 0.197 0.197 0.197 0.109 0 0.197-0.088 0.197-0.197 0-0.003-0-0.006-0-0.009 0-0.002 0-0.005 0-0.008 0-0.109-0.088-0.197-0.197-0.197-0.109 0-0.197 0.088-0.197 0.197 0 0.003 0 0.006 0 0.009zM13.648 19.897c-0 0.003-0 0.006-0 0.009 0 0.109 0.088 0.197 0.197 0.197 0.109 0 0.197-0.088 0.197-0.197 0-0.003-0-0.006-0-0.009 0-0.002 0-0.005 0-0.008 0-0.109-0.088-0.197-0.197-0.197-0.109 0-0.197 0.088-0.197 0.197 0 0.003 0 0.006 0 0.009zM13.648 20.61c-0 0.003-0 0.006-0 0.009 0 0.109 0.088 0.197 0.197 0.197 0.109 0 0.197-0.088 0.197-0.197 0-0.003-0-0.006-0-0.009 0-0.002 0-0.005 0-0.008 0-0.109-0.088-0.197-0.197-0.197-0.109 0-0.197 0.088-0.197 0.197 0 0.003 0 0.006 0 0.009zM18.601 18.226c-0 0.001-0 0.002-0 0.003 0 0.109 0.088 0.197 0.197 0.197 0.109 0 0.197-0.088 0.197-0.197 0-0.001 0-0.002-0-0.004 0-0.001 0-0.002 0-0.003 0-0.109-0.088-0.197-0.197-0.197-0.109 0-0.197 0.088-0.197 0.197 0 0.001 0 0.002 0 0.004zM16.484 20.61c-0 0.003-0 0.006-0 0.009 0 0.109 0.088 0.197 0.197 0.197 0.109 0 0.197-0.088 0.197-0.197 0-0.003-0-0.006-0-0.009 0-0.002 0-0.005 0-0.008 0-0.109-0.088-0.197-0.197-0.197-0.109 0-0.197 0.088-0.197 0.197 0 0.003 0 0.006 0 0.009zM18.601 17.513c-0 0.001-0 0.002-0 0.003 0 0.109 0.088 0.197 0.197 0.197 0.109 0 0.197-0.088 0.197-0.197 0-0.001 0-0.002-0-0.004 0-0.001 0-0.002 0-0.003 0-0.109-0.088-0.197-0.197-0.197-0.109 0-0.197 0.088-0.197 0.197 0 0.001 0 0.002 0 0.004zM12.949 19.897c-0 0.003-0 0.006-0 0.009 0 0.109 0.088 0.197 0.197 0.197 0.109 0 0.197-0.088 0.197-0.197 0-0.003-0-0.006-0-0.009 0-0.002 0-0.005 0-0.008 0-0.109-0.088-0.197-0.197-0.197-0.109 0-0.197 0.088-0.197 0.197 0 0.003 0 0.006 0 0.009zM12.949 20.61c-0 0.003-0 0.006-0 0.009 0 0.109 0.088 0.197 0.197 0.197 0.109 0 0.197-0.088 0.197-0.197 0-0.003-0-0.006-0-0.009 0-0.002 0-0.005 0-0.008 0-0.109-0.088-0.197-0.197-0.197-0.109 0-0.197 0.088-0.197 0.197 0 0.003 0 0.006 0 0.009zM15.070 18.226c-0 0.003-0 0.006-0 0.009 0 0.109 0.088 0.197 0.197 0.197 0.109 0 0.197-0.088 0.197-0.197 0-0.003-0-0.006-0-0.009 0-0.002 0-0.005 0-0.008 0-0.109-0.088-0.197-0.197-0.197-0.109 0-0.197 0.088-0.197 0.197 0 0.003 0 0.006 0 0.009zM18.601 15.122c-0 0.001-0 0.002-0 0.004 0 0.109 0.088 0.197 0.197 0.197 0.109 0 0.197-0.088 0.197-0.197 0-0.001 0-0.002-0-0.004 0-0.001 0-0.002 0-0.003 0-0.109-0.088-0.197-0.197-0.197-0.109 0-0.197 0.088-0.197 0.197 0 0.001 0 0.002 0 0.004zM14.37 19.897c-0 0.002-0 0.005-0 0.008 0 0.109 0.088 0.197 0.197 0.197 0.109 0 0.197-0.088 0.197-0.197 0-0.003-0-0.006-0-0.008 0-0.002 0-0.005 0-0.007 0-0.109-0.088-0.197-0.197-0.197-0.109 0-0.197 0.088-0.197 0.197 0 0.003 0 0.006 0 0.008zM14.37 20.61c-0 0.002-0 0.005-0 0.008 0 0.109 0.088 0.197 0.197 0.197 0.109 0 0.197-0.088 0.197-0.197 0-0.003-0-0.006-0-0.008 0-0.002 0-0.005 0-0.007 0-0.109-0.088-0.197-0.197-0.197-0.109 0-0.197 0.088-0.197 0.197 0 0.003 0 0.006 0 0.008zM13.648 17.513c-0 0.003-0 0.006-0 0.009 0 0.109 0.088 0.197 0.197 0.197 0.109 0 0.197-0.088 0.197-0.197 0-0.003-0-0.006-0-0.009 0-0.002 0-0.005 0-0.008 0-0.109-0.088-0.197-0.197-0.197-0.109 0-0.197 0.088-0.197 0.197 0 0.003 0 0.006 0 0.009zM13.648 18.226c-0 0.003-0 0.006-0 0.009 0 0.109 0.088 0.197 0.197 0.197 0.109 0 0.197-0.088 0.197-0.197 0-0.003-0-0.006-0-0.009 0-0.002 0-0.005 0-0.008 0-0.109-0.088-0.197-0.197-0.197-0.109 0-0.197 0.088-0.197 0.197 0 0.003 0 0.006 0 0.009zM15.786 19.897c-0 0.003-0 0.006-0 0.009 0 0.109 0.088 0.197 0.197 0.197 0.109 0 0.197-0.088 0.197-0.197 0-0.003-0-0.006-0-0.009 0-0.002 0-0.005 0-0.008 0-0.109-0.088-0.197-0.197-0.197-0.109 0-0.197 0.088-0.197 0.197 0 0.003 0 0.006 0 0.009zM15.786 20.61c-0 0.003-0 0.006-0 0.009 0 0.109 0.088 0.197 0.197 0.197 0.109 0 0.197-0.088 0.197-0.197 0-0.003-0-0.006-0-0.009 0-0.002 0-0.005 0-0.008 0-0.109-0.088-0.197-0.197-0.197-0.109 0-0.197 0.088-0.197 0.197 0 0.003 0 0.006 0 0.009zM15.070 20.61c-0 0.003-0 0.006-0 0.009 0 0.109 0.088 0.197 0.197 0.197 0.109 0 0.197-0.088 0.197-0.197 0-0.003-0-0.006-0-0.009 0-0.002 0-0.005 0-0.008 0-0.109-0.088-0.197-0.197-0.197-0.109 0-0.197 0.088-0.197 0.197 0 0.003 0 0.006 0 0.009zM15.070 19.897c-0 0.003-0 0.006-0 0.009 0 0.109 0.088 0.197 0.197 0.197 0.109 0 0.197-0.088 0.197-0.197 0-0.003-0-0.006-0-0.009 0-0.002 0-0.005 0-0.008 0-0.109-0.088-0.197-0.197-0.197-0.109 0-0.197 0.088-0.197 0.197 0 0.003 0 0.006 0 0.009zM17.206 15.122c-0 0.002-0 0.005-0 0.008 0 0.109 0.088 0.197 0.197 0.197 0.109 0 0.197-0.088 0.197-0.197 0-0.003-0-0.005-0-0.008 0-0.002 0-0.005 0-0.007 0-0.109-0.088-0.197-0.197-0.197-0.109 0-0.197 0.088-0.197 0.197 0 0.003 0 0.005 0 0.008zM15.070 17.513c-0 0.003-0 0.006-0 0.009 0 0.109 0.088 0.197 0.197 0.197 0.109 0 0.197-0.088 0.197-0.197 0-0.003-0-0.006-0-0.009 0-0.002 0-0.005 0-0.008 0-0.109-0.088-0.197-0.197-0.197-0.109 0-0.197 0.088-0.197 0.197 0 0.003 0 0.006 0 0.009zM18.601 15.835c-0 0.001-0 0.002-0 0.004 0 0.109 0.088 0.197 0.197 0.197 0.109 0 0.197-0.088 0.197-0.197 0-0.001 0-0.002-0-0.004 0-0.001 0-0.002 0-0.003 0-0.109-0.088-0.197-0.197-0.197-0.109 0-0.197 0.088-0.197 0.197 0 0.001 0 0.002 0 0.004zM17.906 15.835c-0 0.003-0 0.006-0 0.009 0 0.109 0.088 0.197 0.197 0.197 0.109 0 0.197-0.088 0.197-0.197 0-0.003-0-0.006-0-0.009 0-0.002 0-0.005 0-0.008 0-0.109-0.088-0.197-0.197-0.197-0.109 0-0.197 0.088-0.197 0.197 0 0.003 0 0.006 0 0.009zM17.206 15.835c-0 0.002-0 0.005-0 0.008 0 0.109 0.088 0.197 0.197 0.197 0.109 0 0.197-0.088 0.197-0.197 0-0.003-0-0.005-0-0.008 0-0.002 0-0.005 0-0.007 0-0.109-0.088-0.197-0.197-0.197-0.109 0-0.197 0.088-0.197 0.197 0 0.003 0 0.005 0 0.008zM14.37 18.226c-0 0.002-0 0.005-0 0.008 0 0.109 0.088 0.197 0.197 0.197 0.109 0 0.197-0.088 0.197-0.197 0-0.003-0-0.006-0-0.008 0-0.002 0-0.005 0-0.007 0-0.109-0.088-0.197-0.197-0.197-0.109 0-0.197 0.088-0.197 0.197 0 0.003 0 0.006 0 0.008zM17.906 15.122c-0 0.003-0 0.006-0 0.009 0 0.109 0.088 0.197 0.197 0.197 0.109 0 0.197-0.088 0.197-0.197 0-0.003-0-0.006-0-0.009 0-0.002 0-0.005 0-0.008 0-0.109-0.088-0.197-0.197-0.197-0.109 0-0.197 0.088-0.197 0.197 0 0.003 0 0.006 0 0.009zM6.818 12.73c-0 0.003-0 0.006-0 0.009 0 0.109 0.088 0.197 0.197 0.197 0.109 0 0.197-0.088 0.197-0.197 0-0.003-0-0.006-0-0.009 0-0.002 0-0.005 0-0.008 0-0.109-0.088-0.197-0.197-0.197-0.109 0-0.197 0.088-0.197 0.197 0 0.003 0 0.006 0 0.009zM6.818 15.122c-0 0.003-0 0.006-0 0.009 0 0.109 0.088 0.197 0.197 0.197 0.109 0 0.197-0.088 0.197-0.197 0-0.003-0-0.006-0-0.009 0-0.002 0-0.005 0-0.008 0-0.109-0.088-0.197-0.197-0.197-0.109 0-0.197 0.088-0.197 0.197 0 0.003 0 0.006 0 0.009zM6.818 15.835c-0 0.003-0 0.006-0 0.009 0 0.109 0.088 0.197 0.197 0.197 0.109 0 0.197-0.088 0.197-0.197 0-0.003-0-0.006-0-0.009 0-0.002 0-0.005 0-0.008 0-0.109-0.088-0.197-0.197-0.197-0.109 0-0.197 0.088-0.197 0.197 0 0.003 0 0.006 0 0.009zM6.119 15.122c-0 0.002-0 0.005-0 0.008 0 0.109 0.088 0.197 0.197 0.197 0.109 0 0.197-0.088 0.197-0.197 0-0.003-0-0.005-0-0.008 0-0.002 0-0.005 0-0.007 0-0.109-0.088-0.197-0.197-0.197-0.109 0-0.197 0.088-0.197 0.197 0 0.003 0 0.005 0 0.008zM7.534 15.835c-0 0.003-0 0.006-0 0.009 0 0.109 0.088 0.197 0.197 0.197 0.109 0 0.197-0.088 0.197-0.197 0-0.003-0-0.006-0-0.009 0-0.002 0-0.005 0-0.008 0-0.109-0.088-0.197-0.197-0.197-0.109 0-0.197 0.088-0.197 0.197 0 0.003 0 0.006 0 0.009zM6.119 15.835c-0 0.002-0 0.005-0 0.008 0 0.109 0.088 0.197 0.197 0.197 0.109 0 0.197-0.088 0.197-0.197 0-0.003-0-0.005-0-0.008 0-0.002 0-0.005 0-0.007 0-0.109-0.088-0.197-0.197-0.197-0.109 0-0.197 0.088-0.197 0.197 0 0.003 0 0.005 0 0.008zM4.698 15.122c-0 0.003-0 0.006-0 0.009 0 0.109 0.088 0.197 0.197 0.197 0.109 0 0.197-0.088 0.197-0.197 0-0.003-0-0.006-0-0.009 0-0.002 0-0.005 0-0.008 0-0.109-0.088-0.197-0.197-0.197-0.109 0-0.197 0.088-0.197 0.197 0 0.003 0 0.006 0 0.009zM5.397 15.835c-0 0.003-0 0.006-0 0.009 0 0.109 0.088 0.197 0.197 0.197 0.109 0 0.197-0.088 0.197-0.197 0-0.003-0-0.006-0-0.009 0-0.002 0-0.005 0-0.008 0-0.109-0.088-0.197-0.197-0.197-0.109 0-0.197 0.088-0.197 0.197 0 0.003 0 0.006 0 0.009zM5.397 15.122c-0 0.003-0 0.006-0 0.009 0 0.109 0.088 0.197 0.197 0.197 0.109 0 0.197-0.088 0.197-0.197 0-0.003-0-0.006-0-0.009 0-0.002 0-0.005 0-0.008 0-0.109-0.088-0.197-0.197-0.197-0.109 0-0.197 0.088-0.197 0.197 0 0.003 0 0.006 0 0.009zM7.534 15.122c-0 0.003-0 0.006-0 0.009 0 0.109 0.088 0.197 0.197 0.197 0.109 0 0.197-0.088 0.197-0.197 0-0.003-0-0.006-0-0.009 0-0.002 0-0.005 0-0.008 0-0.109-0.088-0.197-0.197-0.197-0.109 0-0.197 0.088-0.197 0.197 0 0.003 0 0.006 0 0.009zM8.955 15.122c-0 0.002-0 0.005-0 0.008 0 0.109 0.088 0.197 0.197 0.197 0.109 0 0.197-0.088 0.197-0.197 0-0.003-0-0.005-0-0.008 0-0.002 0-0.005 0-0.007 0-0.109-0.088-0.197-0.197-0.197-0.109 0-0.197 0.088-0.197 0.197 0 0.003 0 0.005 0 0.008zM10.35 15.835c-0 0.003-0 0.006-0 0.009 0 0.109 0.088 0.197 0.197 0.197 0.109 0 0.197-0.088 0.197-0.197 0-0.003-0-0.006-0-0.009 0-0.002 0-0.005 0-0.008 0-0.109-0.088-0.197-0.197-0.197-0.109 0-0.197 0.088-0.197 0.197 0 0.003 0 0.006 0 0.009zM9.654 15.835c-0 0.003-0 0.006-0 0.009 0 0.109 0.088 0.197 0.197 0.197 0.109 0 0.197-0.088 0.197-0.197 0-0.003-0-0.006-0-0.009 0-0.002 0-0.005 0-0.008 0-0.109-0.088-0.197-0.197-0.197-0.109 0-0.197 0.088-0.197 0.197 0 0.003 0 0.006 0 0.009zM9.654 15.122c-0 0.003-0 0.006-0 0.009 0 0.109 0.088 0.197 0.197 0.197 0.109 0 0.197-0.088 0.197-0.197 0-0.003-0-0.006-0-0.009 0-0.002 0-0.005 0-0.008 0-0.109-0.088-0.197-0.197-0.197-0.109 0-0.197 0.088-0.197 0.197 0 0.003 0 0.006 0 0.009zM10.35 15.122c-0 0.003-0 0.006-0 0.009 0 0.109 0.088 0.197 0.197 0.197 0.109 0 0.197-0.088 0.197-0.197 0-0.003-0-0.006-0-0.009 0-0.002 0-0.005 0-0.008 0-0.109-0.088-0.197-0.197-0.197-0.109 0-0.197 0.088-0.197 0.197 0 0.003 0 0.006 0 0.009zM8.233 15.122c-0 0.003-0 0.006-0 0.009 0 0.109 0.088 0.197 0.197 0.197 0.109 0 0.197-0.088 0.197-0.197 0-0.003-0-0.006-0-0.009 0-0.002 0-0.005 0-0.008 0-0.109-0.088-0.197-0.197-0.197-0.109 0-0.197 0.088-0.197 0.197 0 0.003 0 0.006 0 0.009zM8.233 15.835c-0 0.003-0 0.006-0 0.009 0 0.109 0.088 0.197 0.197 0.197 0.109 0 0.197-0.088 0.197-0.197 0-0.003-0-0.006-0-0.009 0-0.002 0-0.005 0-0.008 0-0.109-0.088-0.197-0.197-0.197-0.109 0-0.197 0.088-0.197 0.197 0 0.003 0 0.006 0 0.009zM8.955 15.835c-0 0.002-0 0.005-0 0.008 0 0.109 0.088 0.197 0.197 0.197 0.109 0 0.197-0.088 0.197-0.197 0-0.003-0-0.005-0-0.008 0-0.002 0-0.005 0-0.007 0-0.109-0.088-0.197-0.197-0.197-0.109 0-0.197 0.088-0.197 0.197 0 0.003 0 0.005 0 0.008zM4.698 15.835c-0 0.003-0 0.006-0 0.009 0 0.109 0.088 0.197 0.197 0.197 0.109 0 0.197-0.088 0.197-0.197 0-0.003-0-0.006-0-0.009 0-0.002 0-0.005 0-0.008 0-0.109-0.088-0.197-0.197-0.197-0.109 0-0.197 0.088-0.197 0.197 0 0.003 0 0.006 0 0.009zM8.233 12.73c-0 0.003-0 0.006-0 0.009 0 0.109 0.088 0.197 0.197 0.197 0.109 0 0.197-0.088 0.197-0.197 0-0.003-0-0.006-0-0.009 0-0.002 0-0.005 0-0.008 0-0.109-0.088-0.197-0.197-0.197-0.109 0-0.197 0.088-0.197 0.197 0 0.003 0 0.006 0 0.009zM6.119 13.443c-0 0.002-0 0.005-0 0.008 0 0.109 0.088 0.197 0.197 0.197 0.109 0 0.197-0.088 0.197-0.197 0-0.003-0-0.005-0-0.008 0-0.002 0-0.005 0-0.007 0-0.109-0.088-0.197-0.197-0.197-0.109 0-0.197 0.088-0.197 0.197 0 0.003 0 0.005 0 0.008zM6.119 12.73c-0 0.002-0 0.005-0 0.008 0 0.109 0.088 0.197 0.197 0.197 0.109 0 0.197-0.088 0.197-0.197 0-0.003-0-0.005-0-0.008 0-0.002 0-0.005 0-0.007 0-0.109-0.088-0.197-0.197-0.197-0.109 0-0.197 0.088-0.197 0.197 0 0.003 0 0.005 0 0.008zM5.397 12.73c-0 0.003-0 0.006-0 0.009 0 0.109 0.088 0.197 0.197 0.197 0.109 0 0.197-0.088 0.197-0.197 0-0.003-0-0.006-0-0.009 0-0.002 0-0.005 0-0.008 0-0.109-0.088-0.197-0.197-0.197-0.109 0-0.197 0.088-0.197 0.197 0 0.003 0 0.006 0 0.009zM7.534 13.443c-0 0.003-0 0.006-0 0.009 0 0.109 0.088 0.197 0.197 0.197 0.109 0 0.197-0.088 0.197-0.197 0-0.003-0-0.006-0-0.009 0-0.002 0-0.005 0-0.008 0-0.109-0.088-0.197-0.197-0.197-0.109 0-0.197 0.088-0.197 0.197 0 0.003 0 0.006 0 0.009zM6.818 13.443c-0 0.003-0 0.006-0 0.009 0 0.109 0.088 0.197 0.197 0.197 0.109 0 0.197-0.088 0.197-0.197 0-0.003-0-0.006-0-0.009 0-0.002 0-0.005 0-0.008 0-0.109-0.088-0.197-0.197-0.197-0.109 0-0.197 0.088-0.197 0.197 0 0.003 0 0.006 0 0.009zM4.698 13.443c-0 0.003-0 0.006-0 0.009 0 0.109 0.088 0.197 0.197 0.197 0.109 0 0.197-0.088 0.197-0.197 0-0.003-0-0.006-0-0.009 0-0.002 0-0.005 0-0.008 0-0.109-0.088-0.197-0.197-0.197-0.109 0-0.197 0.088-0.197 0.197 0 0.003 0 0.006 0 0.009zM4.698 12.73c-0 0.003-0 0.006-0 0.009 0 0.109 0.088 0.197 0.197 0.197 0.109 0 0.197-0.088 0.197-0.197 0-0.003-0-0.006-0-0.009 0-0.002 0-0.005 0-0.008 0-0.109-0.088-0.197-0.197-0.197-0.109 0-0.197 0.088-0.197 0.197 0 0.003 0 0.006 0 0.009zM5.397 13.443c-0 0.003-0 0.006-0 0.009 0 0.109 0.088 0.197 0.197 0.197 0.109 0 0.197-0.088 0.197-0.197 0-0.003-0-0.006-0-0.009 0-0.002 0-0.005 0-0.008 0-0.109-0.088-0.197-0.197-0.197-0.109 0-0.197 0.088-0.197 0.197 0 0.003 0 0.006 0 0.009zM9.654 12.73c-0 0.003-0 0.006-0 0.009 0 0.109 0.088 0.197 0.197 0.197 0.109 0 0.197-0.088 0.197-0.197 0-0.003-0-0.006-0-0.009 0-0.002 0-0.005 0-0.008 0-0.109-0.088-0.197-0.197-0.197-0.109 0-0.197 0.088-0.197 0.197 0 0.003 0 0.006 0 0.009zM8.955 12.73c-0 0.002-0 0.005-0 0.008 0 0.109 0.088 0.197 0.197 0.197 0.109 0 0.197-0.088 0.197-0.197 0-0.003-0-0.005-0-0.008 0-0.002 0-0.005 0-0.007 0-0.109-0.088-0.197-0.197-0.197-0.109 0-0.197 0.088-0.197 0.197 0 0.003 0 0.005 0 0.008zM9.654 13.443c-0 0.003-0 0.006-0 0.009 0 0.109 0.088 0.197 0.197 0.197 0.109 0 0.197-0.088 0.197-0.197 0-0.003-0-0.006-0-0.009 0-0.002 0-0.005 0-0.008 0-0.109-0.088-0.197-0.197-0.197-0.109 0-0.197 0.088-0.197 0.197 0 0.003 0 0.006 0 0.009zM7.534 12.73c-0 0.003-0 0.006-0 0.009 0 0.109 0.088 0.197 0.197 0.197 0.109 0 0.197-0.088 0.197-0.197 0-0.003-0-0.006-0-0.009 0-0.002 0-0.005 0-0.008 0-0.109-0.088-0.197-0.197-0.197-0.109 0-0.197 0.088-0.197 0.197 0 0.003 0 0.006 0 0.009zM10.35 13.443c-0 0.003-0 0.006-0 0.009 0 0.109 0.088 0.197 0.197 0.197 0.109 0 0.197-0.088 0.197-0.197 0-0.003-0-0.006-0-0.009 0-0.002 0-0.005 0-0.008 0-0.109-0.088-0.197-0.197-0.197-0.109 0-0.197 0.088-0.197 0.197 0 0.003 0 0.006 0 0.009zM10.35 12.73c-0 0.003-0 0.006-0 0.009 0 0.109 0.088 0.197 0.197 0.197 0.109 0 0.197-0.088 0.197-0.197 0-0.003-0-0.006-0-0.009 0-0.002 0-0.005 0-0.008 0-0.109-0.088-0.197-0.197-0.197-0.109 0-0.197 0.088-0.197 0.197 0 0.003 0 0.006 0 0.009zM10.35 19.897c-0 0.003-0 0.006-0 0.009 0 0.109 0.088 0.197 0.197 0.197 0.109 0 0.197-0.088 0.197-0.197 0-0.003-0-0.006-0-0.009 0-0.002 0-0.005 0-0.008 0-0.109-0.088-0.197-0.197-0.197-0.109 0-0.197 0.088-0.197 0.197 0 0.003 0 0.006 0 0.009zM4.698 18.226c-0 0.003-0 0.006-0 0.009 0 0.109 0.088 0.197 0.197 0.197 0.109 0 0.197-0.088 0.197-0.197 0-0.003-0-0.006-0-0.009 0-0.002 0-0.005 0-0.008 0-0.109-0.088-0.197-0.197-0.197-0.109 0-0.197 0.088-0.197 0.197 0 0.003 0 0.006 0 0.009zM8.955 13.443c-0 0.002-0 0.005-0 0.008 0 0.109 0.088 0.197 0.197 0.197 0.109 0 0.197-0.088 0.197-0.197 0-0.003-0-0.005-0-0.008 0-0.002 0-0.005 0-0.007 0-0.109-0.088-0.197-0.197-0.197-0.109 0-0.197 0.088-0.197 0.197 0 0.003 0 0.005 0 0.008zM8.233 13.443c-0 0.003-0 0.006-0 0.009 0 0.109 0.088 0.197 0.197 0.197 0.109 0 0.197-0.088 0.197-0.197 0-0.003-0-0.006-0-0.009 0-0.002 0-0.005 0-0.008 0-0.109-0.088-0.197-0.197-0.197-0.109 0-0.197 0.088-0.197 0.197 0 0.003 0 0.006 0 0.009zM6.119 20.61c-0 0.002-0 0.005-0 0.008 0 0.109 0.088 0.197 0.197 0.197 0.109 0 0.197-0.088 0.197-0.197 0-0.003-0-0.006-0-0.008 0-0.002 0-0.005 0-0.007 0-0.109-0.088-0.197-0.197-0.197-0.109 0-0.197 0.088-0.197 0.197 0 0.003 0 0.006 0 0.008zM6.818 20.61c-0 0.003-0 0.006-0 0.009 0 0.109 0.088 0.197 0.197 0.197 0.109 0 0.197-0.088 0.197-0.197 0-0.003-0-0.006-0-0.009 0-0.002 0-0.005 0-0.008 0-0.109-0.088-0.197-0.197-0.197-0.109 0-0.197 0.088-0.197 0.197 0 0.003 0 0.006 0 0.009zM6.119 19.897c-0 0.002-0 0.005-0 0.008 0 0.109 0.088 0.197 0.197 0.197 0.109 0 0.197-0.088 0.197-0.197 0-0.003-0-0.006-0-0.008 0-0.002 0-0.005 0-0.007 0-0.109-0.088-0.197-0.197-0.197-0.109 0-0.197 0.088-0.197 0.197 0 0.003 0 0.006 0 0.008zM6.818 19.897c-0 0.003-0 0.006-0 0.009 0 0.109 0.088 0.197 0.197 0.197 0.109 0 0.197-0.088 0.197-0.197 0-0.003-0-0.006-0-0.009 0-0.002 0-0.005 0-0.008 0-0.109-0.088-0.197-0.197-0.197-0.109 0-0.197 0.088-0.197 0.197 0 0.003 0 0.006 0 0.009zM7.534 20.61c-0 0.003-0 0.006-0 0.009 0 0.109 0.088 0.197 0.197 0.197 0.109 0 0.197-0.088 0.197-0.197 0-0.003-0-0.006-0-0.009 0-0.002 0-0.005 0-0.008 0-0.109-0.088-0.197-0.197-0.197-0.109 0-0.197 0.088-0.197 0.197 0 0.003 0 0.006 0 0.009zM4.698 19.897c-0 0.003-0 0.006-0 0.009 0 0.109 0.088 0.197 0.197 0.197 0.109 0 0.197-0.088 0.197-0.197 0-0.003-0-0.006-0-0.009 0-0.002 0-0.005 0-0.008 0-0.109-0.088-0.197-0.197-0.197-0.109 0-0.197 0.088-0.197 0.197 0 0.003 0 0.006 0 0.009zM5.397 20.61c-0 0.003-0 0.006-0 0.009 0 0.109 0.088 0.197 0.197 0.197 0.109 0 0.197-0.088 0.197-0.197 0-0.003-0-0.006-0-0.009 0-0.002 0-0.005 0-0.008 0-0.109-0.088-0.197-0.197-0.197-0.109 0-0.197 0.088-0.197 0.197 0 0.003 0 0.006 0 0.009zM5.397 19.897c-0 0.003-0 0.006-0 0.009 0 0.109 0.088 0.197 0.197 0.197 0.109 0 0.197-0.088 0.197-0.197 0-0.003-0-0.006-0-0.009 0-0.002 0-0.005 0-0.008 0-0.109-0.088-0.197-0.197-0.197-0.109 0-0.197 0.088-0.197 0.197 0 0.003 0 0.006 0 0.009zM8.955 19.897c-0 0.002-0 0.005-0 0.008 0 0.109 0.088 0.197 0.197 0.197 0.109 0 0.197-0.088 0.197-0.197 0-0.003-0-0.006-0-0.008 0-0.002 0-0.005 0-0.007 0-0.109-0.088-0.197-0.197-0.197-0.109 0-0.197 0.088-0.197 0.197 0 0.003 0 0.006 0 0.008zM9.654 19.897c-0 0.003-0 0.006-0 0.009 0 0.109 0.088 0.197 0.197 0.197 0.109 0 0.197-0.088 0.197-0.197 0-0.003-0-0.006-0-0.009 0-0.002 0-0.005 0-0.008 0-0.109-0.088-0.197-0.197-0.197-0.109 0-0.197 0.088-0.197 0.197 0 0.003 0 0.006 0 0.009zM9.654 20.61c-0 0.003-0 0.006-0 0.009 0 0.109 0.088 0.197 0.197 0.197 0.109 0 0.197-0.088 0.197-0.197 0-0.003-0-0.006-0-0.009 0-0.002 0-0.005 0-0.008 0-0.109-0.088-0.197-0.197-0.197-0.109 0-0.197 0.088-0.197 0.197 0 0.003 0 0.006 0 0.009zM10.35 20.61c-0 0.003-0 0.006-0 0.009 0 0.109 0.088 0.197 0.197 0.197 0.109 0 0.197-0.088 0.197-0.197 0-0.003-0-0.006-0-0.009 0-0.002 0-0.005 0-0.008 0-0.109-0.088-0.197-0.197-0.197-0.109 0-0.197 0.088-0.197 0.197 0 0.003 0 0.006 0 0.009zM4.698 20.61c-0 0.003-0 0.006-0 0.009 0 0.109 0.088 0.197 0.197 0.197 0.109 0 0.197-0.088 0.197-0.197 0-0.003-0-0.006-0-0.009 0-0.002 0-0.005 0-0.008 0-0.109-0.088-0.197-0.197-0.197-0.109 0-0.197 0.088-0.197 0.197 0 0.003 0 0.006 0 0.009zM8.955 20.61c-0 0.002-0 0.005-0 0.008 0 0.109 0.088 0.197 0.197 0.197 0.109 0 0.197-0.088 0.197-0.197 0-0.003-0-0.006-0-0.008 0-0.002 0-0.005 0-0.007 0-0.109-0.088-0.197-0.197-0.197-0.109 0-0.197 0.088-0.197 0.197 0 0.003 0 0.006 0 0.008zM8.233 20.61c-0 0.003-0 0.006-0 0.009 0 0.109 0.088 0.197 0.197 0.197 0.109 0 0.197-0.088 0.197-0.197 0-0.003-0-0.006-0-0.009 0-0.002 0-0.005 0-0.008 0-0.109-0.088-0.197-0.197-0.197-0.109 0-0.197 0.088-0.197 0.197 0 0.003 0 0.006 0 0.009zM8.233 19.897c-0 0.003-0 0.006-0 0.009 0 0.109 0.088 0.197 0.197 0.197 0.109 0 0.197-0.088 0.197-0.197 0-0.003-0-0.006-0-0.009 0-0.002 0-0.005 0-0.008 0-0.109-0.088-0.197-0.197-0.197-0.109 0-0.197 0.088-0.197 0.197 0 0.003 0 0.006 0 0.009zM7.534 19.897c-0 0.003-0 0.006-0 0.009 0 0.109 0.088 0.197 0.197 0.197 0.109 0 0.197-0.088 0.197-0.197 0-0.003-0-0.006-0-0.009 0-0.002 0-0.005 0-0.008 0-0.109-0.088-0.197-0.197-0.197-0.109 0-0.197 0.088-0.197 0.197 0 0.003 0 0.006 0 0.009zM9.654 18.226c-0 0.003-0 0.006-0 0.009 0 0.109 0.088 0.197 0.197 0.197 0.109 0 0.197-0.088 0.197-0.197 0-0.003-0-0.006-0-0.009 0-0.002 0-0.005 0-0.008 0-0.109-0.088-0.197-0.197-0.197-0.109 0-0.197 0.088-0.197 0.197 0 0.003 0 0.006 0 0.009zM6.818 18.226c-0 0.003-0 0.006-0 0.009 0 0.109 0.088 0.197 0.197 0.197 0.109 0 0.197-0.088 0.197-0.197 0-0.003-0-0.006-0-0.009 0-0.002 0-0.005 0-0.008 0-0.109-0.088-0.197-0.197-0.197-0.109 0-0.197 0.088-0.197 0.197 0 0.003 0 0.006 0 0.009zM6.818 17.513c-0 0.003-0 0.006-0 0.009 0 0.109 0.088 0.197 0.197 0.197 0.109 0 0.197-0.088 0.197-0.197 0-0.003-0-0.006-0-0.009 0-0.002 0-0.005 0-0.008 0-0.109-0.088-0.197-0.197-0.197-0.109 0-0.197 0.088-0.197 0.197 0 0.003 0 0.006 0 0.009zM10.35 17.513c-0 0.003-0 0.006-0 0.009 0 0.109 0.088 0.197 0.197 0.197 0.109 0 0.197-0.088 0.197-0.197 0-0.003-0-0.006-0-0.009 0-0.002 0-0.005 0-0.008 0-0.109-0.088-0.197-0.197-0.197-0.109 0-0.197 0.088-0.197 0.197 0 0.003 0 0.006 0 0.009zM6.119 17.513c-0 0.002-0 0.005-0 0.008 0 0.109 0.088 0.197 0.197 0.197 0.109 0 0.197-0.088 0.197-0.197 0-0.003-0-0.006-0-0.008 0-0.002 0-0.005 0-0.007 0-0.109-0.088-0.197-0.197-0.197-0.109 0-0.197 0.088-0.197 0.197 0 0.003 0 0.006 0 0.008zM7.534 17.513c-0 0.003-0 0.006-0 0.009 0 0.109 0.088 0.197 0.197 0.197 0.109 0 0.197-0.088 0.197-0.197 0-0.003-0-0.006-0-0.009 0-0.002 0-0.005 0-0.008 0-0.109-0.088-0.197-0.197-0.197-0.109 0-0.197 0.088-0.197 0.197 0 0.003 0 0.006 0 0.009zM5.397 18.226c-0 0.003-0 0.006-0 0.009 0 0.109 0.088 0.197 0.197 0.197 0.109 0 0.197-0.088 0.197-0.197 0-0.003-0-0.006-0-0.009 0-0.002 0-0.005 0-0.008 0-0.109-0.088-0.197-0.197-0.197-0.109 0-0.197 0.088-0.197 0.197 0 0.003 0 0.006 0 0.009zM5.397 17.513c-0 0.003-0 0.006-0 0.009 0 0.109 0.088 0.197 0.197 0.197 0.109 0 0.197-0.088 0.197-0.197 0-0.003-0-0.006-0-0.009 0-0.002 0-0.005 0-0.008 0-0.109-0.088-0.197-0.197-0.197-0.109 0-0.197 0.088-0.197 0.197 0 0.003 0 0.006 0 0.009zM6.119 18.226c-0 0.002-0 0.005-0 0.008 0 0.109 0.088 0.197 0.197 0.197 0.109 0 0.197-0.088 0.197-0.197 0-0.003-0-0.006-0-0.008 0-0.002 0-0.005 0-0.007 0-0.109-0.088-0.197-0.197-0.197-0.109 0-0.197 0.088-0.197 0.197 0 0.003 0 0.006 0 0.008zM7.534 18.226c-0 0.003-0 0.006-0 0.009 0 0.109 0.088 0.197 0.197 0.197 0.109 0 0.197-0.088 0.197-0.197 0-0.003-0-0.006-0-0.009 0-0.002 0-0.005 0-0.008 0-0.109-0.088-0.197-0.197-0.197-0.109 0-0.197 0.088-0.197 0.197 0 0.003 0 0.006 0 0.009zM8.955 17.513c-0 0.002-0 0.005-0 0.008 0 0.109 0.088 0.197 0.197 0.197 0.109 0 0.197-0.088 0.197-0.197 0-0.003-0-0.006-0-0.008 0-0.002 0-0.005 0-0.007 0-0.109-0.088-0.197-0.197-0.197-0.109 0-0.197 0.088-0.197 0.197 0 0.003 0 0.006 0 0.008zM4.698 17.513c-0 0.003-0 0.006-0 0.009 0 0.109 0.088 0.197 0.197 0.197 0.109 0 0.197-0.088 0.197-0.197 0-0.003-0-0.006-0-0.009 0-0.002 0-0.005 0-0.008 0-0.109-0.088-0.197-0.197-0.197-0.109 0-0.197 0.088-0.197 0.197 0 0.003 0 0.006 0 0.009zM9.654 17.513c-0 0.003-0 0.006-0 0.009 0 0.109 0.088 0.197 0.197 0.197 0.109 0 0.197-0.088 0.197-0.197 0-0.003-0-0.006-0-0.009 0-0.002 0-0.005 0-0.008 0-0.109-0.088-0.197-0.197-0.197-0.109 0-0.197 0.088-0.197 0.197 0 0.003 0 0.006 0 0.009zM10.35 18.226c-0 0.003-0 0.006-0 0.009 0 0.109 0.088 0.197 0.197 0.197 0.109 0 0.197-0.088 0.197-0.197 0-0.003-0-0.006-0-0.009 0-0.002 0-0.005 0-0.008 0-0.109-0.088-0.197-0.197-0.197-0.109 0-0.197 0.088-0.197 0.197 0 0.003 0 0.006 0 0.009zM8.233 18.226c-0 0.003-0 0.006-0 0.009 0 0.109 0.088 0.197 0.197 0.197 0.109 0 0.197-0.088 0.197-0.197 0-0.003-0-0.006-0-0.009 0-0.002 0-0.005 0-0.008 0-0.109-0.088-0.197-0.197-0.197-0.109 0-0.197 0.088-0.197 0.197 0 0.003 0 0.006 0 0.009zM8.955 18.226c-0 0.002-0 0.005-0 0.008 0 0.109 0.088 0.197 0.197 0.197 0.109 0 0.197-0.088 0.197-0.197 0-0.003-0-0.006-0-0.008 0-0.002 0-0.005 0-0.007 0-0.109-0.088-0.197-0.197-0.197-0.109 0-0.197 0.088-0.197 0.197 0 0.003 0 0.006 0 0.008zM8.233 17.513c-0 0.003-0 0.006-0 0.009 0 0.109 0.088 0.197 0.197 0.197 0.109 0 0.197-0.088 0.197-0.197 0-0.003-0-0.006-0-0.009 0-0.002 0-0.005 0-0.008 0-0.109-0.088-0.197-0.197-0.197-0.109 0-0.197 0.088-0.197 0.197 0 0.003 0 0.006 0 0.009zM25.47 13.443c-0 0.002-0 0.005-0 0.008 0 0.109 0.088 0.197 0.197 0.197 0.109 0 0.197-0.088 0.197-0.197 0-0.003-0-0.005-0-0.008 0-0.002 0-0.005 0-0.007 0-0.109-0.088-0.197-0.197-0.197-0.109 0-0.197 0.088-0.197 0.197 0 0.003 0 0.005 0 0.008zM24.049 12.73c-0 0.003-0 0.006-0 0.009 0 0.109 0.088 0.197 0.197 0.197 0.109 0 0.197-0.088 0.197-0.197 0-0.003-0-0.006-0-0.009 0-0.002 0-0.005 0-0.008 0-0.109-0.088-0.197-0.197-0.197-0.109 0-0.197 0.088-0.197 0.197 0 0.003 0 0.006 0 0.009zM24.049 13.443c-0 0.003-0 0.006-0 0.009 0 0.109 0.088 0.197 0.197 0.197 0.109 0 0.197-0.088 0.197-0.197 0-0.003-0-0.006-0-0.009 0-0.002 0-0.005 0-0.008 0-0.109-0.088-0.197-0.197-0.197-0.109 0-0.197 0.088-0.197 0.197 0 0.003 0 0.006 0 0.009zM23.333 12.73c-0 0.003-0 0.006-0 0.009 0 0.109 0.088 0.197 0.197 0.197 0.109 0 0.197-0.088 0.197-0.197 0-0.003-0-0.006-0-0.009 0-0.002 0-0.005 0-0.008 0-0.109-0.088-0.197-0.197-0.197-0.109 0-0.197 0.088-0.197 0.197 0 0.003 0 0.006 0 0.009zM24.748 12.73c-0 0.002-0 0.005-0 0.008 0 0.109 0.088 0.197 0.197 0.197 0.109 0 0.197-0.088 0.197-0.197 0-0.003-0-0.005-0-0.008 0-0.002 0-0.005 0-0.007 0-0.109-0.088-0.197-0.197-0.197-0.109 0-0.197 0.088-0.197 0.197 0 0.003 0 0.005 0 0.008zM24.748 13.443c-0 0.002-0 0.005-0 0.008 0 0.109 0.088 0.197 0.197 0.197 0.109 0 0.197-0.088 0.197-0.197 0-0.003-0-0.005-0-0.008 0-0.002 0-0.005 0-0.007 0-0.109-0.088-0.197-0.197-0.197-0.109 0-0.197 0.088-0.197 0.197 0 0.003 0 0.005 0 0.008zM28.921 11.881c0.017-0.065-0.010-0.134-0.073-0.165l-3.754-0.645c-0.020-0.010-0.185-0.015-0.206-0.015l-16.893 0c-0.019 0-0.182 0.004-0.199 0.011l-3.826 0.645c-0.066 0.029-0.098 0.101-0.080 0.169-0.003 0.012-0.007 0.024-0.007 0.037v4.746c0 0.004 0.002 0.006 0.002 0.010-0 0.003-0.002 0.006-0.002 0.010v4.745c0 0.079 0.064 0.143 0.143 0.143h8.243c0.001 0 0.002-0.001 0.004-0.001 0.001 0 0.003 0.001 0.004 0.001h8.244c0.003 0 0.006-0.002 0.010-0.002s0.006 0.002 0.010 0.002h8.244c0.079 0 0.143-0.064 0.143-0.143v-4.745c0-0.004-0.002-0.006-0.002-0.010s0.002-0.006 0.002-0.010v-4.746c-0-0.014-0.005-0.026-0.008-0.038zM24.999 11.344l2.574 0.432h-6.901l-0.862-0.432h5.189zM13.741 11.344h5.503l0.81 0.432h-7.246l0.932-0.432zM7.882 11.344h5.266l-0.975 0.432h-6.859l2.567-0.432zM12.127 20.456h-0.718c-0.118 0-0.214-0.096-0.214-0.214 0-0.118 0.096-0.213 0.214-0.213h0.718v0.427zM12.127 19.886h-0.718c-0.197 0-0.357 0.16-0.357 0.357 0 0.197 0.16 0.357 0.357 0.357h0.718v0.686h-7.957v-2.086h7.957l-0 0.686zM12.127 18.136h-0.718c-0.118 0-0.214-0.096-0.214-0.214 0-0.118 0.096-0.213 0.214-0.213h0.718v0.427zM12.127 17.566h-0.718c-0.197 0-0.357 0.16-0.357 0.357 0 0.197 0.16 0.357 0.357 0.357h0.718v0.634l-7.957-0v-2.086h7.957l-0 0.739zM12.127 15.692h-0.718c-0.118 0-0.214-0.096-0.214-0.213 0-0.118 0.096-0.214 0.214-0.214h0.718v0.427zM12.127 15.121h-0.718c-0.197 0-0.357 0.16-0.357 0.357 0 0.197 0.16 0.357 0.357 0.357h0.718v0.686l-7.957-0v-2.086h7.957l-0 0.686zM12.127 13.372h-0.718c-0.118 0-0.214-0.096-0.214-0.214s0.096-0.214 0.214-0.214h0.718v0.427zM12.127 12.801h-0.718c-0.197 0-0.357 0.16-0.357 0.357s0.16 0.357 0.357 0.357h0.718v0.634l-7.957-0v-2.086h7.957l-0 0.739zM20.378 20.456h-0.718c-0.118 0-0.214-0.096-0.214-0.214 0-0.118 0.096-0.213 0.214-0.213h0.718v0.427zM20.378 19.886h-0.718c-0.197 0-0.357 0.16-0.357 0.357 0 0.197 0.16 0.357 0.357 0.357h0.718v0.686h-7.957v-2.086h7.957l-0 0.686zM20.378 18.136h-0.718c-0.118 0-0.214-0.096-0.214-0.214 0-0.118 0.096-0.213 0.214-0.213h0.718v0.427zM20.378 17.566h-0.718c-0.197 0-0.357 0.16-0.357 0.357 0 0.197 0.16 0.357 0.357 0.357h0.718v0.634l-7.957-0v-2.086h7.957l-0 0.739zM20.378 15.692h-0.718c-0.118 0-0.214-0.096-0.214-0.213 0-0.118 0.096-0.214 0.214-0.214h0.718v0.427zM20.378 15.121h-0.718c-0.197 0-0.357 0.16-0.357 0.357 0 0.197 0.16 0.357 0.357 0.357h0.718v0.686l-7.957-0v-2.086h7.957l-0 0.686zM20.378 13.372h-0.718c-0.118 0-0.214-0.096-0.214-0.214s0.096-0.214 0.214-0.214h0.718v0.427zM20.378 12.801h-0.718c-0.197 0-0.357 0.16-0.357 0.357s0.16 0.357 0.357 0.357h0.718v0.634l-7.957-0v-2.086h7.957l-0 0.739zM28.642 20.456h-0.718c-0.118 0-0.213-0.096-0.213-0.214 0-0.118 0.096-0.213 0.213-0.213h0.718v0.427zM28.642 19.886h-0.718c-0.197 0-0.357 0.16-0.357 0.357 0 0.197 0.16 0.357 0.357 0.357h0.718v0.686h-7.957l0-2.086h7.957l-0 0.686zM28.642 18.136h-0.718c-0.118 0-0.213-0.096-0.213-0.214 0-0.118 0.096-0.213 0.213-0.213h0.718v0.427zM28.642 17.566h-0.718c-0.197 0-0.357 0.16-0.357 0.357 0 0.197 0.16 0.357 0.357 0.357h0.718v0.634h-7.957v-2.086h7.957v0.739zM28.642 15.692h-0.718c-0.118 0-0.213-0.096-0.213-0.213 0-0.118 0.096-0.214 0.213-0.214h0.718v0.427zM28.642 15.121h-0.718c-0.197 0-0.357 0.16-0.357 0.357 0 0.197 0.16 0.357 0.357 0.357h0.718v0.686h-7.957v-2.086h7.957v0.686zM28.642 13.372h-0.718c-0.118 0-0.213-0.096-0.213-0.214s0.096-0.214 0.213-0.214h0.718v0.427zM28.642 12.801h-0.718c-0.197 0-0.357 0.16-0.357 0.357s0.16 0.357 0.357 0.357h0.718v0.634h-7.957v-2.086h7.957v0.739zM23.333 13.443c-0 0.003-0 0.006-0 0.009 0 0.109 0.088 0.197 0.197 0.197 0.109 0 0.197-0.088 0.197-0.197 0-0.003-0-0.006-0-0.009 0-0.002 0-0.005 0-0.008 0-0.109-0.088-0.197-0.197-0.197-0.109 0-0.197 0.088-0.197 0.197 0 0.003 0 0.006 0 0.009zM26.169 13.443c-0 0.003-0 0.006-0 0.009 0 0.109 0.088 0.197 0.197 0.197 0.109 0 0.197-0.088 0.197-0.197 0-0.003-0-0.006-0-0.009 0-0.002 0-0.005 0-0.008 0-0.109-0.088-0.197-0.197-0.197-0.109 0-0.197 0.088-0.197 0.197 0 0.003 0 0.006 0 0.009zM26.169 12.73c-0 0.003-0 0.006-0 0.009 0 0.109 0.088 0.197 0.197 0.197 0.109 0 0.197-0.088 0.197-0.197 0-0.003-0-0.006-0-0.009 0-0.002 0-0.005 0-0.008 0-0.109-0.088-0.197-0.197-0.197-0.109 0-0.197 0.088-0.197 0.197 0 0.003 0 0.006 0 0.009zM21.213 13.443c-0 0.003-0 0.006-0 0.009 0 0.109 0.088 0.197 0.197 0.197 0.109 0 0.197-0.088 0.197-0.197 0-0.003-0-0.006-0-0.009 0-0.002 0-0.005 0-0.008 0-0.109-0.088-0.197-0.197-0.197-0.109 0-0.197 0.088-0.197 0.197 0 0.003 0 0.006 0 0.009zM22.634 13.443c-0 0.003-0 0.006-0 0.009 0 0.109 0.088 0.197 0.197 0.197 0.109 0 0.197-0.088 0.197-0.197 0-0.003-0-0.006-0-0.009 0-0.002 0-0.005 0-0.008 0-0.109-0.088-0.197-0.197-0.197-0.109 0-0.197 0.088-0.197 0.197 0 0.003 0 0.006 0 0.009zM21.912 12.73c-0 0.002-0 0.005-0 0.008 0 0.109 0.088 0.197 0.197 0.197 0.109 0 0.197-0.088 0.197-0.197 0-0.003-0-0.005-0-0.008 0-0.002 0-0.005 0-0.007 0-0.109-0.088-0.197-0.197-0.197-0.109 0-0.197 0.088-0.197 0.197 0 0.003 0 0.005 0 0.008zM21.213 12.73c-0 0.003-0 0.006-0 0.009 0 0.109 0.088 0.197 0.197 0.197 0.109 0 0.197-0.088 0.197-0.197 0-0.003-0-0.006-0-0.009 0-0.002 0-0.005 0-0.008 0-0.109-0.088-0.197-0.197-0.197-0.109 0-0.197 0.088-0.197 0.197 0 0.003 0 0.006 0 0.009zM21.912 13.443c-0 0.002-0 0.005-0 0.008 0 0.109 0.088 0.197 0.197 0.197 0.109 0 0.197-0.088 0.197-0.197 0-0.003-0-0.005-0-0.008 0-0.002 0-0.005 0-0.007 0-0.109-0.088-0.197-0.197-0.197-0.109 0-0.197 0.088-0.197 0.197 0 0.003 0 0.005 0 0.008zM22.634 12.73c-0 0.003-0 0.006-0 0.009 0 0.109 0.088 0.197 0.197 0.197 0.109 0 0.197-0.088 0.197-0.197 0-0.003-0-0.006-0-0.009 0-0.002 0-0.005 0-0.008 0-0.109-0.088-0.197-0.197-0.197-0.109 0-0.197 0.088-0.197 0.197 0 0.003 0 0.006 0 0.009zM21.912 19.897c-0 0.002-0 0.005-0 0.008 0 0.109 0.088 0.197 0.197 0.197 0.109 0 0.197-0.088 0.197-0.197 0-0.003-0-0.006-0-0.008 0-0.002 0-0.005 0-0.007 0-0.109-0.088-0.197-0.197-0.197-0.109 0-0.197 0.088-0.197 0.197 0 0.003 0 0.006 0 0.008zM21.912 20.61c-0 0.002-0 0.005-0 0.008 0 0.109 0.088 0.197 0.197 0.197 0.109 0 0.197-0.088 0.197-0.197 0-0.003-0-0.006-0-0.008 0-0.002 0-0.005 0-0.007 0-0.109-0.088-0.197-0.197-0.197-0.109 0-0.197 0.088-0.197 0.197 0 0.003 0 0.006 0 0.008zM21.213 19.897c-0 0.003-0 0.006-0 0.009 0 0.109 0.088 0.197 0.197 0.197 0.109 0 0.197-0.088 0.197-0.197 0-0.003-0-0.006-0-0.009 0-0.002 0-0.005 0-0.008 0-0.109-0.088-0.197-0.197-0.197-0.109 0-0.197 0.088-0.197 0.197 0 0.003 0 0.006 0 0.009zM23.333 20.61c-0 0.003-0 0.006-0 0.009 0 0.109 0.088 0.197 0.197 0.197 0.109 0 0.197-0.088 0.197-0.197 0-0.003-0-0.006-0-0.009 0-0.002 0-0.005 0-0.008 0-0.109-0.088-0.197-0.197-0.197-0.109 0-0.197 0.088-0.197 0.197 0 0.003 0 0.006 0 0.009zM21.213 20.61c-0 0.003-0 0.006-0 0.009 0 0.109 0.088 0.197 0.197 0.197 0.109 0 0.197-0.088 0.197-0.197 0-0.003-0-0.006-0-0.009 0-0.002 0-0.005 0-0.008 0-0.109-0.088-0.197-0.197-0.197-0.109 0-0.197 0.088-0.197 0.197 0 0.003 0 0.006 0 0.009zM22.634 19.897c-0 0.003-0 0.006-0 0.009 0 0.109 0.088 0.197 0.197 0.197 0.109 0 0.197-0.088 0.197-0.197 0-0.003-0-0.006-0-0.009 0-0.002 0-0.005 0-0.008 0-0.109-0.088-0.197-0.197-0.197-0.109 0-0.197 0.088-0.197 0.197 0 0.003 0 0.006 0 0.009zM22.634 20.61c-0 0.003-0 0.006-0 0.009 0 0.109 0.088 0.197 0.197 0.197 0.109 0 0.197-0.088 0.197-0.197 0-0.003-0-0.006-0-0.009 0-0.002 0-0.005 0-0.008 0-0.109-0.088-0.197-0.197-0.197-0.109 0-0.197 0.088-0.197 0.197 0 0.003 0 0.006 0 0.009zM21.912 15.122c-0 0.002-0 0.005-0 0.008 0 0.109 0.088 0.197 0.197 0.197 0.109 0 0.197-0.088 0.197-0.197 0-0.003-0-0.005-0-0.008 0-0.002 0-0.005 0-0.007 0-0.109-0.088-0.197-0.197-0.197-0.109 0-0.197 0.088-0.197 0.197 0 0.003 0 0.005 0 0.008zM26.169 18.226c-0 0.003-0 0.006-0 0.009 0 0.109 0.088 0.197 0.197 0.197 0.109 0 0.197-0.088 0.197-0.197 0-0.003-0-0.006-0-0.009 0-0.002 0-0.005 0-0.008 0-0.109-0.088-0.197-0.197-0.197-0.109 0-0.197 0.088-0.197 0.197 0 0.003 0 0.006 0 0.009zM26.169 17.513c-0 0.003-0 0.006-0 0.009 0 0.109 0.088 0.197 0.197 0.197 0.109 0 0.197-0.088 0.197-0.197 0-0.003-0-0.006-0-0.009 0-0.002 0-0.005 0-0.008 0-0.109-0.088-0.197-0.197-0.197-0.109 0-0.197 0.088-0.197 0.197 0 0.003 0 0.006 0 0.009zM25.47 17.513c-0 0.002-0 0.005-0 0.008 0 0.109 0.088 0.197 0.197 0.197 0.109 0 0.197-0.088 0.197-0.197 0-0.003-0-0.006-0-0.008 0-0.002 0-0.005 0-0.007 0-0.109-0.088-0.197-0.197-0.197-0.109 0-0.197 0.088-0.197 0.197 0 0.003 0 0.006 0 0.008zM26.865 17.513c-0 0.003-0 0.006-0 0.009 0 0.109 0.088 0.197 0.197 0.197 0.109 0 0.197-0.088 0.197-0.197 0-0.003-0-0.006-0-0.009 0-0.002 0-0.005 0-0.008 0-0.109-0.088-0.197-0.197-0.197-0.109 0-0.197 0.088-0.197 0.197 0 0.003 0 0.006 0 0.009zM21.213 15.835c-0 0.003-0 0.006-0 0.009 0 0.109 0.088 0.197 0.197 0.197 0.109 0 0.197-0.088 0.197-0.197 0-0.003-0-0.006-0-0.009 0-0.002 0-0.005 0-0.008 0-0.109-0.088-0.197-0.197-0.197-0.109 0-0.197 0.088-0.197 0.197 0 0.003 0 0.006 0 0.009zM26.865 18.226c-0 0.003-0 0.006-0 0.009 0 0.109 0.088 0.197 0.197 0.197 0.109 0 0.197-0.088 0.197-0.197 0-0.003-0-0.006-0-0.009 0-0.002 0-0.005 0-0.008 0-0.109-0.088-0.197-0.197-0.197-0.109 0-0.197 0.088-0.197 0.197 0 0.003 0 0.006 0 0.009zM26.169 19.897c-0 0.003-0 0.006-0 0.009 0 0.109 0.088 0.197 0.197 0.197 0.109 0 0.197-0.088 0.197-0.197 0-0.003-0-0.006-0-0.009 0-0.002 0-0.005 0-0.008 0-0.109-0.088-0.197-0.197-0.197-0.109 0-0.197 0.088-0.197 0.197 0 0.003 0 0.006 0 0.009zM26.865 19.897c-0 0.003-0 0.006-0 0.009 0 0.109 0.088 0.197 0.197 0.197 0.109 0 0.197-0.088 0.197-0.197 0-0.003-0-0.006-0-0.009 0-0.002 0-0.005 0-0.008 0-0.109-0.088-0.197-0.197-0.197-0.109 0-0.197 0.088-0.197 0.197 0 0.003 0 0.006 0 0.009zM26.865 20.61c-0 0.003-0 0.006-0 0.009 0 0.109 0.088 0.197 0.197 0.197 0.109 0 0.197-0.088 0.197-0.197 0-0.003-0-0.006-0-0.009 0-0.002 0-0.005 0-0.008 0-0.109-0.088-0.197-0.197-0.197-0.109 0-0.197 0.088-0.197 0.197 0 0.003 0 0.006 0 0.009zM26.169 20.61c-0 0.003-0 0.006-0 0.009 0 0.109 0.088 0.197 0.197 0.197 0.109 0 0.197-0.088 0.197-0.197 0-0.003-0-0.006-0-0.009 0-0.002 0-0.005 0-0.008 0-0.109-0.088-0.197-0.197-0.197-0.109 0-0.197 0.088-0.197 0.197 0 0.003 0 0.006 0 0.009zM25.47 18.226c-0 0.002-0 0.005-0 0.008 0 0.109 0.088 0.197 0.197 0.197 0.109 0 0.197-0.088 0.197-0.197 0-0.003-0-0.006-0-0.008 0-0.002 0-0.005 0-0.007 0-0.109-0.088-0.197-0.197-0.197-0.109 0-0.197 0.088-0.197 0.197 0 0.003 0 0.006 0 0.008zM25.47 12.73c-0 0.002-0 0.005-0 0.008 0 0.109 0.088 0.197 0.197 0.197 0.109 0 0.197-0.088 0.197-0.197 0-0.003-0-0.005-0-0.008 0-0.002 0-0.005 0-0.007 0-0.109-0.088-0.197-0.197-0.197-0.109 0-0.197 0.088-0.197 0.197 0 0.003 0 0.005 0 0.008zM26.865 12.73c-0 0.003-0 0.006-0 0.009 0 0.109 0.088 0.197 0.197 0.197 0.109 0 0.197-0.088 0.197-0.197 0-0.003-0-0.006-0-0.009 0-0.002 0-0.005 0-0.008 0-0.109-0.088-0.197-0.197-0.197-0.109 0-0.197 0.088-0.197 0.197 0 0.003 0 0.006 0 0.009zM26.865 13.443c-0 0.003-0 0.006-0 0.009 0 0.109 0.088 0.197 0.197 0.197 0.109 0 0.197-0.088 0.197-0.197 0-0.003-0-0.006-0-0.009 0-0.002 0-0.005 0-0.008 0-0.109-0.088-0.197-0.197-0.197-0.109 0-0.197 0.088-0.197 0.197 0 0.003 0 0.006 0 0.009zM24.748 20.61c-0 0.002-0 0.005-0 0.008 0 0.109 0.088 0.197 0.197 0.197 0.109 0 0.197-0.088 0.197-0.197 0-0.003-0-0.006-0-0.008 0-0.002 0-0.005 0-0.007 0-0.109-0.088-0.197-0.197-0.197-0.109 0-0.197 0.088-0.197 0.197 0 0.003 0 0.006 0 0.008zM23.333 19.897c-0 0.003-0 0.006-0 0.009 0 0.109 0.088 0.197 0.197 0.197 0.109 0 0.197-0.088 0.197-0.197 0-0.003-0-0.006-0-0.009 0-0.002 0-0.005 0-0.008 0-0.109-0.088-0.197-0.197-0.197-0.109 0-0.197 0.088-0.197 0.197 0 0.003 0 0.006 0 0.009zM24.049 19.897c-0 0.003-0 0.006-0 0.009 0 0.109 0.088 0.197 0.197 0.197 0.109 0 0.197-0.088 0.197-0.197 0-0.003-0-0.006-0-0.009 0-0.002 0-0.005 0-0.008 0-0.109-0.088-0.197-0.197-0.197-0.109 0-0.197 0.088-0.197 0.197 0 0.003 0 0.006 0 0.009zM24.049 20.61c-0 0.003-0 0.006-0 0.009 0 0.109 0.088 0.197 0.197 0.197 0.109 0 0.197-0.088 0.197-0.197 0-0.003-0-0.006-0-0.009 0-0.002 0-0.005 0-0.008 0-0.109-0.088-0.197-0.197-0.197-0.109 0-0.197 0.088-0.197 0.197 0 0.003 0 0.006 0 0.009zM24.748 19.897c-0 0.002-0 0.005-0 0.008 0 0.109 0.088 0.197 0.197 0.197 0.109 0 0.197-0.088 0.197-0.197 0-0.003-0-0.006-0-0.008 0-0.002 0-0.005 0-0.007 0-0.109-0.088-0.197-0.197-0.197-0.109 0-0.197 0.088-0.197 0.197 0 0.003 0 0.006 0 0.008zM25.47 20.61c-0 0.002-0 0.005-0 0.008 0 0.109 0.088 0.197 0.197 0.197 0.109 0 0.197-0.088 0.197-0.197 0-0.003-0-0.006-0-0.008 0-0.002 0-0.005 0-0.007 0-0.109-0.088-0.197-0.197-0.197-0.109 0-0.197 0.088-0.197 0.197 0 0.003 0 0.006 0 0.008zM25.47 19.897c-0 0.002-0 0.005-0 0.008 0 0.109 0.088 0.197 0.197 0.197 0.109 0 0.197-0.088 0.197-0.197 0-0.003-0-0.006-0-0.008 0-0.002 0-0.005 0-0.007 0-0.109-0.088-0.197-0.197-0.197-0.109 0-0.197 0.088-0.197 0.197 0 0.003 0 0.006 0 0.008zM22.634 15.835c-0 0.003-0 0.006-0 0.009 0 0.109 0.088 0.197 0.197 0.197 0.109 0 0.197-0.088 0.197-0.197 0-0.003-0-0.006-0-0.009 0-0.002 0-0.005 0-0.008 0-0.109-0.088-0.197-0.197-0.197-0.109 0-0.197 0.088-0.197 0.197 0 0.003 0 0.006 0 0.009zM25.47 15.122c-0 0.002-0 0.005-0 0.008 0 0.109 0.088 0.197 0.197 0.197 0.109 0 0.197-0.088 0.197-0.197 0-0.003-0-0.005-0-0.008 0-0.002 0-0.005 0-0.007 0-0.109-0.088-0.197-0.197-0.197-0.109 0-0.197 0.088-0.197 0.197 0 0.003 0 0.005 0 0.008zM25.47 15.835c-0 0.002-0 0.005-0 0.008 0 0.109 0.088 0.197 0.197 0.197 0.109 0 0.197-0.088 0.197-0.197 0-0.003-0-0.005-0-0.008 0-0.002 0-0.005 0-0.007 0-0.109-0.088-0.197-0.197-0.197-0.109 0-0.197 0.088-0.197 0.197 0 0.003 0 0.005 0 0.008zM26.169 15.835c-0 0.003-0 0.006-0 0.009 0 0.109 0.088 0.197 0.197 0.197 0.109 0 0.197-0.088 0.197-0.197 0-0.003-0-0.006-0-0.009 0-0.002 0-0.005 0-0.008 0-0.109-0.088-0.197-0.197-0.197-0.109 0-0.197 0.088-0.197 0.197 0 0.003 0 0.006 0 0.009zM26.865 15.835c-0 0.003-0 0.006-0 0.009 0 0.109 0.088 0.197 0.197 0.197 0.109 0 0.197-0.088 0.197-0.197 0-0.003-0-0.006-0-0.009 0-0.002 0-0.005 0-0.008 0-0.109-0.088-0.197-0.197-0.197-0.109 0-0.197 0.088-0.197 0.197 0 0.003 0 0.006 0 0.009zM26.865 15.122c-0 0.003-0 0.006-0 0.009 0 0.109 0.088 0.197 0.197 0.197 0.109 0 0.197-0.088 0.197-0.197 0-0.003-0-0.006-0-0.009 0-0.002 0-0.005 0-0.008 0-0.109-0.088-0.197-0.197-0.197-0.109 0-0.197 0.088-0.197 0.197 0 0.003 0 0.006 0 0.009zM26.169 15.122c-0 0.003-0 0.006-0 0.009 0 0.109 0.088 0.197 0.197 0.197 0.109 0 0.197-0.088 0.197-0.197 0-0.003-0-0.006-0-0.009 0-0.002 0-0.005 0-0.008 0-0.109-0.088-0.197-0.197-0.197-0.109 0-0.197 0.088-0.197 0.197 0 0.003 0 0.006 0 0.009zM24.748 15.122c-0 0.002-0 0.005-0 0.008 0 0.109 0.088 0.197 0.197 0.197 0.109 0 0.197-0.088 0.197-0.197 0-0.003-0-0.005-0-0.008 0-0.002 0-0.005 0-0.007 0-0.109-0.088-0.197-0.197-0.197-0.109 0-0.197 0.088-0.197 0.197 0 0.003 0 0.005 0 0.008zM23.333 15.835c-0 0.003-0 0.006-0 0.009 0 0.109 0.088 0.197 0.197 0.197 0.109 0 0.197-0.088 0.197-0.197 0-0.003-0-0.006-0-0.009 0-0.002 0-0.005 0-0.008 0-0.109-0.088-0.197-0.197-0.197-0.109 0-0.197 0.088-0.197 0.197 0 0.003 0 0.006 0 0.009zM23.333 15.122c-0 0.003-0 0.006-0 0.009 0 0.109 0.088 0.197 0.197 0.197 0.109 0 0.197-0.088 0.197-0.197 0-0.003-0-0.006-0-0.009 0-0.002 0-0.005 0-0.008 0-0.109-0.088-0.197-0.197-0.197-0.109 0-0.197 0.088-0.197 0.197 0 0.003 0 0.006 0 0.009zM24.748 17.513c-0 0.002-0 0.005-0 0.008 0 0.109 0.088 0.197 0.197 0.197 0.109 0 0.197-0.088 0.197-0.197 0-0.003-0-0.006-0-0.008 0-0.002 0-0.005 0-0.007 0-0.109-0.088-0.197-0.197-0.197-0.109 0-0.197 0.088-0.197 0.197 0 0.003 0 0.006 0 0.008zM24.748 15.835c-0 0.002-0 0.005-0 0.008 0 0.109 0.088 0.197 0.197 0.197 0.109 0 0.197-0.088 0.197-0.197 0-0.003-0-0.005-0-0.008 0-0.002 0-0.005 0-0.007 0-0.109-0.088-0.197-0.197-0.197-0.109 0-0.197 0.088-0.197 0.197 0 0.003 0 0.005 0 0.008zM22.634 15.122c-0 0.003-0 0.006-0 0.009 0 0.109 0.088 0.197 0.197 0.197 0.109 0 0.197-0.088 0.197-0.197 0-0.003-0-0.006-0-0.009 0-0.002 0-0.005 0-0.008 0-0.109-0.088-0.197-0.197-0.197-0.109 0-0.197 0.088-0.197 0.197 0 0.003 0 0.006 0 0.009zM24.049 15.835c-0 0.003-0 0.006-0 0.009 0 0.109 0.088 0.197 0.197 0.197 0.109 0 0.197-0.088 0.197-0.197 0-0.003-0-0.006-0-0.009 0-0.002 0-0.005 0-0.008 0-0.109-0.088-0.197-0.197-0.197-0.109 0-0.197 0.088-0.197 0.197 0 0.003 0 0.006 0 0.009zM24.049 15.122c-0 0.003-0 0.006-0 0.009 0 0.109 0.088 0.197 0.197 0.197 0.109 0 0.197-0.088 0.197-0.197 0-0.003-0-0.006-0-0.009 0-0.002 0-0.005 0-0.008 0-0.109-0.088-0.197-0.197-0.197-0.109 0-0.197 0.088-0.197 0.197 0 0.003 0 0.006 0 0.009zM21.912 15.835c-0 0.002-0 0.005-0 0.008 0 0.109 0.088 0.197 0.197 0.197 0.109 0 0.197-0.088 0.197-0.197 0-0.003-0-0.005-0-0.008 0-0.002 0-0.005 0-0.007 0-0.109-0.088-0.197-0.197-0.197-0.109 0-0.197 0.088-0.197 0.197 0 0.003 0 0.005 0 0.008zM22.634 17.513c-0 0.003-0 0.006-0 0.009 0 0.109 0.088 0.197 0.197 0.197 0.109 0 0.197-0.088 0.197-0.197 0-0.003-0-0.006-0-0.009 0-0.002 0-0.005 0-0.008 0-0.109-0.088-0.197-0.197-0.197-0.109 0-0.197 0.088-0.197 0.197 0 0.003 0 0.006 0 0.009zM24.049 18.226c-0 0.003-0 0.006-0 0.009 0 0.109 0.088 0.197 0.197 0.197 0.109 0 0.197-0.088 0.197-0.197 0-0.003-0-0.006-0-0.009 0-0.002 0-0.005 0-0.008 0-0.109-0.088-0.197-0.197-0.197-0.109 0-0.197 0.088-0.197 0.197 0 0.003 0 0.006 0 0.009zM23.333 18.226c-0 0.003-0 0.006-0 0.009 0 0.109 0.088 0.197 0.197 0.197 0.109 0 0.197-0.088 0.197-0.197 0-0.003-0-0.006-0-0.009 0-0.002 0-0.005 0-0.008 0-0.109-0.088-0.197-0.197-0.197-0.109 0-0.197 0.088-0.197 0.197 0 0.003 0 0.006 0 0.009zM23.333 17.513c-0 0.003-0 0.006-0 0.009 0 0.109 0.088 0.197 0.197 0.197 0.109 0 0.197-0.088 0.197-0.197 0-0.003-0-0.006-0-0.009 0-0.002 0-0.005 0-0.008 0-0.109-0.088-0.197-0.197-0.197-0.109 0-0.197 0.088-0.197 0.197 0 0.003 0 0.006 0 0.009zM24.049 17.513c-0 0.003-0 0.006-0 0.009 0 0.109 0.088 0.197 0.197 0.197 0.109 0 0.197-0.088 0.197-0.197 0-0.003-0-0.006-0-0.009 0-0.002 0-0.005 0-0.008 0-0.109-0.088-0.197-0.197-0.197-0.109 0-0.197 0.088-0.197 0.197 0 0.003 0 0.006 0 0.009zM24.748 18.226c-0 0.002-0 0.005-0 0.008 0 0.109 0.088 0.197 0.197 0.197 0.109 0 0.197-0.088 0.197-0.197 0-0.003-0-0.006-0-0.008 0-0.002 0-0.005 0-0.007 0-0.109-0.088-0.197-0.197-0.197-0.109 0-0.197 0.088-0.197 0.197 0 0.003 0 0.006 0 0.008zM21.213 15.122c-0 0.003-0 0.006-0 0.009 0 0.109 0.088 0.197 0.197 0.197 0.109 0 0.197-0.088 0.197-0.197 0-0.003-0-0.006-0-0.009 0-0.002 0-0.005 0-0.008 0-0.109-0.088-0.197-0.197-0.197-0.109 0-0.197 0.088-0.197 0.197 0 0.003 0 0.006 0 0.009zM21.213 17.513c-0 0.003-0 0.006-0 0.009 0 0.109 0.088 0.197 0.197 0.197 0.109 0 0.197-0.088 0.197-0.197 0-0.003-0-0.006-0-0.009 0-0.002 0-0.005 0-0.008 0-0.109-0.088-0.197-0.197-0.197-0.109 0-0.197 0.088-0.197 0.197 0 0.003 0 0.006 0 0.009zM21.912 18.226c-0 0.002-0 0.005-0 0.008 0 0.109 0.088 0.197 0.197 0.197 0.109 0 0.197-0.088 0.197-0.197 0-0.003-0-0.006-0-0.008 0-0.002 0-0.005 0-0.007 0-0.109-0.088-0.197-0.197-0.197-0.109 0-0.197 0.088-0.197 0.197 0 0.003 0 0.006 0 0.008zM21.213 18.226c-0 0.003-0 0.006-0 0.009 0 0.109 0.088 0.197 0.197 0.197 0.109 0 0.197-0.088 0.197-0.197 0-0.003-0-0.006-0-0.009 0-0.002 0-0.005 0-0.008 0-0.109-0.088-0.197-0.197-0.197-0.109 0-0.197 0.088-0.197 0.197 0 0.003 0 0.006 0 0.009zM21.912 17.513c-0 0.002-0 0.005-0 0.008 0 0.109 0.088 0.197 0.197 0.197 0.109 0 0.197-0.088 0.197-0.197 0-0.003-0-0.006-0-0.008 0-0.002 0-0.005 0-0.007 0-0.109-0.088-0.197-0.197-0.197-0.109 0-0.197 0.088-0.197 0.197 0 0.003 0 0.006 0 0.008zM22.634 18.226c-0 0.003-0 0.006-0 0.009 0 0.109 0.088 0.197 0.197 0.197 0.109 0 0.197-0.088 0.197-0.197 0-0.003-0-0.006-0-0.009 0-0.002 0-0.005 0-0.008 0-0.109-0.088-0.197-0.197-0.197-0.109 0-0.197 0.088-0.197 0.197 0 0.003 0 0.006 0 0.009z" fill="#000000" />
</svg>
