<?xml version="1.0" encoding="utf-8"?>
<!-- Generated by IcoMoon.io -->
<!DOCTYPE svg PUBLIC "-//W3C//DTD SVG 1.1//EN" "http://www.w3.org/Graphics/SVG/1.1/DTD/svg11.dtd">
<svg version="1.1" xmlns="http://www.w3.org/2000/svg" xmlns:xlink="http://www.w3.org/1999/xlink" width="32" height="32" viewBox="0 0 32 32">
<g>
</g>
	<path d="M25.761 5.747c0.037-0.138-0.022-0.287-0.156-0.353l-2.818-1.38c-0.042-0.020-0.088-0.030-0.134-0.030l-11.572 0c-0.041 0-0.082 0.008-0.12 0.025l-3.244 1.38c-0.142 0.060-0.21 0.215-0.171 0.359-0.007 0.026-0.016 0.052-0.016 0.079v12.013c0 0.007 0.004 0.014 0.004 0.020-0 0.008-0.004 0.013-0.004 0.021v10.151c0 0.169 0.137 0.306 0.306 0.306h17.633c0.17 0 0.306-0.137 0.306-0.306v-10.151c0-0.007-0.004-0.013-0.004-0.021 0-0.006 0.004-0.013 0.004-0.020v-12.013c0-0.029-0.009-0.054-0.016-0.080zM11.143 4.596h11.438l1.887 0.924-15.498 0 2.173-0.925zM8.143 12.458v-6.325h17.020v9.625h-17.020v-3.301zM25.164 27.725h-17.021v-11.658h17.020v11.658zM15.803 24.040h-6.179c-0.086 0-0.154 0.069-0.154 0.154s0.069 0.154 0.154 0.154h6.178c0.085 0 0.154-0.069 0.154-0.154s-0.069-0.154-0.154-0.154zM15.803 22.424h-6.179c-0.086 0-0.154 0.069-0.154 0.154 0 0.086 0.069 0.154 0.154 0.154h6.178c0.085 0 0.154-0.069 0.154-0.154 0-0.085-0.069-0.154-0.154-0.154zM15.803 20.807h-6.179c-0.086 0-0.154 0.069-0.154 0.154s0.069 0.155 0.154 0.155h6.178c0.085 0 0.154-0.070 0.154-0.155s-0.069-0.154-0.154-0.154zM15.803 19.192h-6.179c-0.086 0-0.154 0.069-0.154 0.154s0.069 0.154 0.154 0.154h6.178c0.085 0 0.154-0.069 0.154-0.154s-0.069-0.154-0.154-0.154zM9.624 12.447h6.247c0.171 0 0.309-0.138 0.309-0.309 0-0.17-0.138-0.309-0.309-0.309l-6.247 0c-0.17 0-0.309 0.138-0.309 0.309 0 0.171 0.139 0.309 0.309 0.309zM9.624 8.811h6.247c0.171 0 0.309-0.138 0.309-0.309 0-0.17-0.138-0.309-0.309-0.309l-6.247-0c-0.17 0-0.309 0.139-0.309 0.309 0 0.17 0.139 0.309 0.309 0.309zM15.803 18.384h-6.179c-0.086 0-0.154 0.069-0.154 0.154s0.069 0.154 0.154 0.154h6.178c0.085 0 0.154-0.069 0.154-0.154s-0.069-0.154-0.154-0.154zM23.461 24.040h-6.178c-0.085 0-0.154 0.069-0.154 0.154s0.069 0.154 0.154 0.154h6.178c0.085 0 0.154-0.069 0.154-0.154s-0.069-0.154-0.154-0.154zM23.461 22.424h-6.178c-0.085 0-0.154 0.069-0.154 0.154 0 0.086 0.069 0.154 0.154 0.154h6.178c0.085 0 0.154-0.069 0.154-0.154 0-0.085-0.069-0.154-0.154-0.154zM23.461 20.807h-6.178c-0.085 0-0.154 0.069-0.154 0.154s0.069 0.155 0.154 0.155h6.178c0.085 0 0.154-0.070 0.154-0.155s-0.069-0.154-0.154-0.154zM23.461 19.192h-6.178c-0.085 0-0.154 0.069-0.154 0.154s0.069 0.154 0.154 0.154h6.178c0.085 0 0.154-0.069 0.154-0.154s-0.069-0.154-0.154-0.154zM23.461 18.384h-6.178c-0.085 0-0.154 0.069-0.154 0.154s0.069 0.154 0.154 0.154h6.178c0.085 0 0.154-0.069 0.154-0.154s-0.069-0.154-0.154-0.154zM15.803 24.848h-6.179c-0.086 0-0.154 0.070-0.154 0.155s0.069 0.154 0.154 0.154h6.178c0.085 0 0.154-0.069 0.154-0.154s-0.069-0.155-0.154-0.155zM15.803 23.232h-6.179c-0.086 0-0.154 0.069-0.154 0.154s0.069 0.154 0.154 0.154h6.178c0.085 0 0.154-0.069 0.154-0.154s-0.069-0.154-0.154-0.154zM15.803 21.616h-6.179c-0.086 0-0.154 0.069-0.154 0.154s0.069 0.154 0.154 0.154h6.178c0.085 0 0.154-0.069 0.154-0.154s-0.069-0.154-0.154-0.154zM15.803 20h-6.179c-0.086 0-0.154 0.069-0.154 0.154s0.069 0.154 0.154 0.154h6.178c0.085 0 0.154-0.069 0.154-0.154s-0.069-0.154-0.154-0.154zM15.803 17.576h-6.179c-0.086 0-0.154 0.069-0.154 0.154 0 0.085 0.069 0.154 0.154 0.154h6.178c0.085 0 0.154-0.069 0.154-0.154 0-0.085-0.069-0.154-0.154-0.154zM23.461 24.848h-6.178c-0.085 0-0.154 0.070-0.154 0.155s0.069 0.154 0.154 0.154h6.178c0.085 0 0.154-0.069 0.154-0.154s-0.069-0.155-0.154-0.155zM23.461 23.232h-6.178c-0.085 0-0.154 0.069-0.154 0.154s0.069 0.154 0.154 0.154h6.178c0.085 0 0.154-0.069 0.154-0.154s-0.069-0.154-0.154-0.154zM23.461 21.616h-6.178c-0.085 0-0.154 0.069-0.154 0.154s0.069 0.154 0.154 0.154h6.178c0.085 0 0.154-0.069 0.154-0.154s-0.069-0.154-0.154-0.154zM23.461 20h-6.178c-0.085 0-0.154 0.069-0.154 0.154s0.069 0.154 0.154 0.154h6.178c0.085 0 0.154-0.069 0.154-0.154s-0.069-0.154-0.154-0.154zM23.461 17.576h-6.178c-0.085 0-0.154 0.069-0.154 0.154 0 0.085 0.069 0.154 0.154 0.154h6.178c0.085 0 0.154-0.069 0.154-0.154 0-0.085-0.069-0.154-0.154-0.154zM9.624 14.265h6.247c0.171 0 0.309-0.138 0.309-0.309 0-0.17-0.138-0.309-0.309-0.309h-6.247c-0.17 0-0.309 0.138-0.309 0.309 0 0.17 0.139 0.309 0.309 0.309zM9.624 10.629h6.247c0.171 0 0.309-0.138 0.309-0.309 0-0.17-0.138-0.309-0.309-0.309h-6.247c-0.17 0-0.309 0.138-0.309 0.309 0 0.171 0.139 0.309 0.309 0.309zM17.22 8.52c-0 0.002-0 0.003-0 0.005 0 0.233 0.189 0.422 0.422 0.422 0.233 0 0.422-0.189 0.422-0.422 0-0.002 0-0.004-0-0.005 0-0.001 0-0.003 0-0.005 0-0.233-0.189-0.422-0.422-0.422-0.233 0-0.422 0.189-0.422 0.422 0 0.002 0 0.004 0 0.005zM18.417 8.52c-0 0.002-0 0.003-0 0.005 0 0.233 0.189 0.422 0.422 0.422 0.233 0 0.422-0.189 0.422-0.422 0-0.002 0-0.004-0-0.005 0-0.001 0-0.003 0-0.005 0-0.233-0.189-0.422-0.422-0.422-0.233 0-0.422 0.189-0.422 0.422 0 0.002 0 0.004 0 0.005zM19.614 8.52c0 0.233 0.189 0.422 0.422 0.422s0.422-0.189 0.422-0.422c0-0.233-0.189-0.422-0.422-0.422-0.233 0-0.422 0.189-0.422 0.422zM17.222 9.719v4.581c0 0.085 0.069 0.154 0.154 0.154h6.017c0.085 0 0.154-0.069 0.154-0.154l0-4.581c0-0.086-0.069-0.154-0.154-0.154h-6.017c-0.085 0-0.154 0.069-0.154 0.154zM23.239 12.218h-5.708v-0.498h5.708l0 0.498zM17.531 12.527h5.708v0.499h-5.708v-0.499zM23.239 11.411h-5.708v-0.499h5.708l0 0.499zM17.531 14.146v-0.811h5.708v0.811h-5.708zM23.239 9.874v0.728l-5.708-0v-0.728l5.708 0z" fill="#000000" />
</svg>
