<?xml version="1.0" encoding="utf-8"?>
<!-- Generated by IcoMoon.io -->
<!DOCTYPE svg PUBLIC "-//W3C//DTD SVG 1.1//EN" "http://www.w3.org/Graphics/SVG/1.1/DTD/svg11.dtd">
<svg version="1.1" xmlns="http://www.w3.org/2000/svg" xmlns:xlink="http://www.w3.org/1999/xlink" width="32" height="32" viewBox="0 0 32 32">
<g>
</g>
	<path d="M14.539 28.75c-0.553 0-1.261-0.181-2.163-0.553-2.213-0.913-2.506-2.431-2.084-3.454 0.351-0.849 0.932-1.11 1.4-1.319 0.344-0.154 0.542-0.251 0.637-0.481 0.072-0.175 0.064-0.344-0.026-0.53-0.48-0.994-2.949-1.891-3.86-2.153-0.242-0.069-0.433-0.311-0.442-0.563-0.006-0.149-0.135-3.659 1.106-4.953 0.536-0.558 1.258-0.654 2.085-0.262 0.659 0.313 0.955 0.792 1.216 1.214 0.239 0.387 0.446 0.722 0.911 0.914 0.099 0.041 0.223 0.062 0.359 0.062 0.635 0 1.503-0.457 2.032-1.74 0.277-0.671 0.342-1.177 0.198-1.548-0.121-0.312-0.4-0.55-0.879-0.748-0.442-0.182-0.851-0.022-1.279 0.178-0.307 0.143-0.625 0.292-0.986 0.292-0.168 0-0.334-0.033-0.493-0.099-0.53-0.219-0.865-0.586-0.993-1.089-0.41-1.616 1.604-4.12 1.69-4.226 0.167-0.205 0.498-0.263 0.725-0.126 0.026 0.016 2.671 1.606 4.27 1.606 0.666 0 0.857-0.277 0.942-0.484 0.141-0.341 0.045-0.766-0.056-1.216-0.117-0.523-0.238-1.063-0.024-1.582 0.343-0.832 1.014-1.272 1.938-1.272 0.566 0 1.25 0.164 2.034 0.487 1.052 0.434 1.701 0.943 1.984 1.556 0.218 0.471 0.208 0.978-0.028 1.55-0.339 0.821-0.847 1.166-1.255 1.443-0.282 0.192-0.506 0.343-0.616 0.611-0.081 0.196-0.072 0.383 0.027 0.587 0.496 1.022 2.967 1.911 3.877 2.168 0.275 0.077 0.442 0.356 0.382 0.635-0.101 0.468-1.042 4.575-2.89 4.575-0.172 0-0.346-0.036-0.517-0.106-0.575-0.237-0.878-0.653-1.145-1.020-0.247-0.339-0.46-0.632-0.861-0.798-0.16-0.066-0.315-0.099-0.462-0.099-0.737 0-1.237 0.837-1.526 1.539-0.265 0.643-0.316 1.234-0.146 1.71 0.147 0.413 0.449 0.723 0.874 0.899 0.384 0.159 0.729 0.051 1.096-0.093 0.263-0.103 0.536-0.21 0.858-0.21 0.189 0 0.37 0.037 0.554 0.113 0.333 0.138 0.56 0.392 0.657 0.737 0.407 1.454-1.661 4.326-1.898 4.649-0.16 0.217-0.491 0.285-0.724 0.148-0.022-0.014-2.288-1.338-3.808-1.338-0.577 0-0.937 0.193-1.101 0.59-0.093 0.225-0.001 0.534 0.105 0.891 0.146 0.49 0.311 1.044 0.069 1.632-0.227 0.548-0.656 1.276-1.764 1.276zM10.242 14.856c-0.265 0-0.492 0.102-0.693 0.313-0.882 0.919-0.975 3.562-0.936 4.503 0.361 0.103 3.557 1.056 4.242 2.474 0.167 0.346 0.181 0.692 0.041 1.031-0.192 0.466-0.579 0.639-0.953 0.806-0.425 0.19-0.826 0.369-1.083 0.993-0.114 0.275-0.563 1.698 1.751 2.653 0.827 0.341 1.458 0.507 1.929 0.507 0.594 0 0.93-0.251 1.196-0.897 0.159-0.386 0.038-0.793-0.090-1.223-0.128-0.43-0.26-0.874-0.084-1.3 0.182-0.442 0.619-0.969 1.668-0.969 1.575 0 3.712 1.189 4.071 1.395 0.615-0.848 2.041-3.103 1.769-4.075-0.046-0.166-0.139-0.269-0.3-0.335-0.315-0.13-0.604-0.036-0.953 0.102-0.264 0.103-0.562 0.22-0.913 0.22-0.216 0-0.426-0.043-0.641-0.132-0.582-0.239-1.014-0.687-1.218-1.26-0.221-0.62-0.166-1.363 0.157-2.148 0.654-1.586 1.499-1.919 2.093-1.919 0.227 0 0.462 0.049 0.696 0.146 0.561 0.231 0.859 0.642 1.123 1.003 0.251 0.345 0.468 0.643 0.883 0.814 0.096 0.040 0.191 0.060 0.282 0.060 1.010 0 1.923-2.441 2.276-4.026-0.579-0.168-3.523-1.084-4.197-2.471-0.177-0.363-0.191-0.73-0.042-1.089 0.181-0.439 0.516-0.666 0.839-0.885 0.376-0.255 0.764-0.518 1.032-1.169 0.17-0.411 0.182-0.748 0.038-1.059-0.212-0.46-0.771-0.879-1.661-1.246-0.709-0.292-1.314-0.441-1.8-0.441-0.684 0-1.119 0.284-1.371 0.893-0.14 0.34-0.045 0.765 0.056 1.214 0.118 0.523 0.238 1.064 0.024 1.584-0.162 0.394-0.556 0.863-1.509 0.863-1.675 0-4.186-1.456-4.547-1.671-0.548 0.687-1.815 2.578-1.542 3.653 0.079 0.31 0.286 0.53 0.632 0.673 0.303 0.125 0.626-0.014 0.986-0.182 0.323-0.151 0.689-0.322 1.121-0.322 0.218 0 0.437 0.045 0.651 0.133 0.636 0.262 1.034 0.62 1.217 1.093 0.203 0.525 0.136 1.18-0.203 2.003-0.645 1.562-1.765 2.119-2.599 2.119-0.215 0-0.421-0.038-0.593-0.109-0.648-0.268-0.94-0.741-1.198-1.158-0.238-0.384-0.462-0.747-0.957-0.983-0.252-0.119-0.483-0.18-0.686-0.18z" fill="#000000" />
</svg>
