<?xml version="1.0" encoding="utf-8"?>
<!-- Generated by IcoMoon.io -->
<!DOCTYPE svg PUBLIC "-//W3C//DTD SVG 1.1//EN" "http://www.w3.org/Graphics/SVG/1.1/DTD/svg11.dtd">
<svg version="1.1" xmlns="http://www.w3.org/2000/svg" xmlns:xlink="http://www.w3.org/1999/xlink" width="32" height="32" viewBox="0 0 32 32">
<g>
</g>
	<path d="M22.023 13.682c-0.516 0-0.936 0.42-0.936 0.936s0.42 0.935 0.936 0.935 0.936-0.42 0.936-0.935-0.42-0.936-0.936-0.936zM22.023 15.094c-0.262 0-0.476-0.213-0.476-0.476s0.214-0.476 0.476-0.476 0.476 0.214 0.476 0.476-0.214 0.476-0.476 0.476zM27.81 14.734l-1.718-0.411c-0.13-0.031-0.433-0.122-0.514-0.421-0.3-1.113-1-2.095-1.824-2.972 0.142-0.342 0.182-0.846 0.535-1.378 0.369-0.557 0.991-1.271 0.254-1.574-0.174-0.072-0.374-0.103-0.589-0.103-0.952 0-2.19 0.624-2.7 1.13-0.977-0.542-2.070-0.95-3.24-1.208-0.235-1.265-1.345-2.226-2.676-2.226-1.309 0-2.404 0.928-2.665 2.16-4.738 0.925-8.262 4.398-8.262 8.542 0 0.157 0.005 0.313 0.016 0.467-0.012 0.010-0.026 0.021-0.038 0.032-0.283 0.246-0.584 0.579-0.772 1.039-0.167 0.431-0.23 0.881-0.18 1.332 0.082 0.908 0.73 1.667 1.325 1.853 0.199 0.072 0.374 0.099 0.518 0.099 0.284 0 0.45-0.106 0.452-0.184 0.018-0.15-0.306-0.282-0.553-0.59-0.261-0.289-0.396-0.753-0.305-1.19 0.015-0.080 0.039-0.158 0.068-0.232 0.42 0.973 1.078 1.824 1.918 2.54 0.359 1.607 1.037 2.536 1.037 2.536s0.377 2.456 1.182 2.456h2.435c0.482 0 0.936-0.391 1.012-0.874 0 0-0.393-0.864-0.43-1.437-0.006-0.102 0.018-0.217 0.051-0.336 0.968 0.179 1.987 0.276 3.046 0.276 0.59 0 1.167-0.030 1.732-0.086 0 0 0.767 2.456 1.573 2.456l2.436 0.001c0.482 0 0.874-0.391 0.874-0.874 0 0-0.531-0.864-0.658-1.437-0.116-0.523 0.379-1.39 0.379-1.39 1.582-0.768 2.84-1.853 3.608-3.208l1.447 0.345c0.078 0.019 0.157 0.028 0.234 0.028 0.453 0 0.863-0.31 0.973-0.77l0.761-3.185c0.13-0.535-0.202-1.077-0.741-1.206zM13.075 8.279c0.001-0.221 0.035-0.434 0.096-0.636 0.28-0.932 1.146-1.613 2.168-1.613 1.041 0 1.917 0.706 2.181 1.665 0.053 0.192 0.083 0.392 0.083 0.6 0 0.013-0.002 0.026-0.002 0.038-0.003 0.163-0.023 0.323-0.058 0.476-0.095-0.025-0.191-0.047-0.287-0.068 0.036-0.148 0.057-0.301 0.058-0.46 0.001-0.229-0.036-0.439-0.102-0.635-0.262-0.784-1.002-1.351-1.873-1.351-0.853 0-1.578 0.544-1.855 1.303-0.073 0.2-0.115 0.413-0.119 0.637 0 0.011-0.001 0.023-0.001 0.035 0 0.183 0.027 0.36 0.074 0.528 0 0-0.196 0.045-0.287 0.069-0.048-0.183-0.076-0.374-0.076-0.573-0-0.005 0.001-0.011 0.001-0.015zM17.007 8.27c0 0.141-0.019 0.278-0.053 0.409-1.159-0.198-2.326-0.109-3.217 0.058-0.043-0.148-0.068-0.305-0.068-0.467 0-0.027 0.003-0.053 0.004-0.079 0.011-0.225 0.066-0.439 0.158-0.632 0.268-0.565 0.842-0.958 1.507-0.958 0.678 0 1.262 0.408 1.523 0.99 0.088 0.197 0.139 0.415 0.144 0.643 0 0.012 0.001 0.023 0.001 0.036zM27.955 15.798l-0.761 3.185c-0.042 0.176-0.197 0.299-0.377 0.299-0.030 0-0.061-0.004-0.092-0.011l-1.447-0.345c-0.047-0.011-0.095-0.017-0.142-0.017-0.217 0-0.423 0.116-0.533 0.311-0.684 1.206-1.84 2.229-3.342 2.959-0.111 0.054-0.203 0.14-0.265 0.247-0.102 0.179-0.605 1.108-0.445 1.826 0.109 0.491 0.434 1.105 0.615 1.422-0.043 0.085-0.13 0.142-0.232 0.142h-2.392c-0.258-0.158-0.741-1.104-1.030-2.026-0.006-0.021-0.020-0.038-0.029-0.057 0.406-0.067 0.808-0.144 1.202-0.245 0.123-0.032 0.197-0.157 0.166-0.28-0.032-0.123-0.158-0.196-0.28-0.166-0.551 0.141-1.115 0.248-1.688 0.32-0.006 0.001-0.011 0-0.016 0.001-0.558 0.055-1.121 0.083-1.672 0.083-0.993 0-1.98-0.090-2.933-0.266-0.010-0.002-0.019-0.001-0.028-0.002-1.099-0.228-2.147-0.585-3.101-1.069-0.113-0.057-0.252-0.012-0.309 0.101-0.058 0.113-0.013 0.252 0.101 0.309 0.837 0.425 1.741 0.753 2.687 0.989-0.018 0.035-0.040 0.068-0.051 0.108-0.038 0.131-0.086 0.33-0.074 0.543 0.032 0.491 0.256 1.103 0.389 1.429-0.075 0.128-0.223 0.229-0.359 0.229l-2.37 0.001c-0.21-0.201-0.514-1.11-0.642-1.936-0.015-0.097-0.053-0.19-0.111-0.269-0.006-0.008-0.606-0.842-0.933-2.308-0.030-0.13-0.1-0.247-0.201-0.333-0.79-0.674-1.381-1.453-1.753-2.316-0.097-0.225-0.318-0.37-0.563-0.37-0.259 0.005-0.481 0.158-0.571 0.39-0.045 0.115-0.078 0.23-0.097 0.329-0.053 0.25-0.055 0.509-0.013 0.758-0.111-0.198-0.193-0.431-0.215-0.687-0.039-0.349 0.009-0.699 0.138-1.032 0.119-0.292 0.318-0.557 0.598-0.801l0.016-0.013 0.020-0.017c0.153-0.126 0.235-0.319 0.22-0.517-0.010-0.131-0.015-0.273-0.015-0.423 0-3.792 3.23-6.988 7.594-7.907 0.006 0.218 0.036 0.43 0.090 0.632-0.212 0.072-0.374 0.141-0.46 0.197-0.107 0.069-0.137 0.211-0.067 0.318 0.044 0.068 0.118 0.105 0.193 0.105 0.043 0 0.086-0.012 0.125-0.037 0.068-0.044 0.196-0.099 0.362-0.155 0.126-0.043 0.275-0.087 0.447-0.13 0.095-0.024 0.195-0.047 0.302-0.070 0.102-0.021 0.209-0.042 0.321-0.061 0.798-0.137 1.822-0.204 2.842-0.045 0.106 0.017 0.212 0.037 0.318 0.058 0.101 0.021 0.2 0.042 0.3 0.067 0.15 0.038 0.299 0.083 0.445 0.133 0.126 0.043 0.251 0.089 0.374 0.142 0.116 0.050 0.251-0.003 0.302-0.12 0.050-0.117-0.004-0.252-0.12-0.302-0.135-0.058-0.273-0.109-0.411-0.156 0.040-0.165 0.062-0.335 0.071-0.51 1.028 0.242 2.007 0.612 2.904 1.109 0.094 0.052 0.196 0.077 0.297 0.077 0.158 0 0.314-0.061 0.432-0.178 0.391-0.389 1.47-0.952 2.268-0.952 0.104 0 0.197 0.010 0.275 0.031-0.073 0.146-0.218 0.355-0.306 0.482-0.050 0.072-0.099 0.143-0.146 0.213-0.292 0.441-0.41 0.865-0.494 1.174-0.034 0.124-0.064 0.232-0.096 0.307-0.092 0.223-0.045 0.479 0.12 0.655 0.894 0.952 1.443 1.839 1.679 2.712 0.116 0.429 0.467 0.742 0.963 0.857l1.718 0.411c0.101 0.024 0.187 0.086 0.241 0.175 0.054 0.087 0.070 0.191 0.046 0.292z" fill="#000000" />
</svg>
