<?xml version="1.0" encoding="utf-8"?>
<!-- Generated by IcoMoon.io -->
<!DOCTYPE svg PUBLIC "-//W3C//DTD SVG 1.1//EN" "http://www.w3.org/Graphics/SVG/1.1/DTD/svg11.dtd">
<svg version="1.1" xmlns="http://www.w3.org/2000/svg" xmlns:xlink="http://www.w3.org/1999/xlink" width="32" height="32" viewBox="0 0 32 32">
<g>
</g>
	<path d="M24.992 15.709c0-0.553-0.249-1.352-0.567-1.821-0.006-0.010-0.661-0.994-0.661-2.085 0-1.101 0.694-2.242 0.7-2.253 0.296-0.478 0.528-1.283 0.528-1.832 0-0.664-0.522-1.205-1.163-1.205-0.509 0-1.305 0.163-1.81 0.372-0.011 0.005-1.086 0.441-2.134 0.441s-2.121-0.437-2.131-0.441c-0.506-0.209-1.331-0.372-1.879-0.372h-0.053c-0.546 0-1.371 0.156-1.879 0.355-0.011 0.005-1.184 0.458-2.235 0.458-1.046 0-2.121-0.437-2.131-0.441-0.506-0.209-1.302-0.372-1.811-0.372-0.642 0-1.163 0.54-1.163 1.205 0 0.552 0.247 1.353 0.562 1.822 0.007 0.011 0.738 1.12 0.738 2.262 0 1.13-0.69 2.086-0.696 2.095-0.339 0.459-0.604 1.254-0.604 1.811 0 0.556 0.262 1.352 0.597 1.813 0.007 0.010 0.703 0.982 0.703 2.122 0 1.139-0.725 2.224-0.732 2.235-0.318 0.468-0.568 1.269-0.568 1.821 0 0.665 0.54 1.205 1.205 1.205 0.541 0 1.351-0.195 1.847-0.444 0.009-0.005 0.946-0.47 2.055-0.47 1.111 0 2.228 0.502 2.239 0.506 0.501 0.229 1.325 0.408 1.876 0.408h0.053c0.553 0 1.376-0.188 1.874-0.428 0.010-0.005 1.024-0.487 2.137-0.487 1.103 0 2.046 0.465 2.055 0.47 0.495 0.249 1.306 0.444 1.846 0.444 0.665 0 1.205-0.541 1.205-1.205 0-0.549-0.234-1.353-0.533-1.83-0.007-0.011-0.695-1.121-0.695-2.226 0-1.094 0.661-2.102 0.668-2.111 0.314-0.47 0.56-1.271 0.56-1.823zM23.904 17.18c-0.032 0.047-0.774 1.173-0.774 2.463 0 1.285 0.759 2.511 0.791 2.563 0.236 0.378 0.437 1.062 0.437 1.493 0 0.314-0.256 0.571-0.571 0.571-0.44 0-1.156-0.173-1.561-0.377-0.044-0.022-1.082-0.537-2.341-0.537-1.255 0-2.365 0.527-2.411 0.549-0.411 0.198-1.143 0.364-1.599 0.364h-0.053c-0.457 0-1.196-0.16-1.612-0.351-0.050-0.023-1.25-0.563-2.502-0.563-1.258 0-2.296 0.515-2.34 0.537-0.406 0.204-1.121 0.377-1.562 0.377-0.314 0-0.57-0.256-0.57-0.571 0-0.428 0.21-1.099 0.458-1.465 0.034-0.050 0.842-1.254 0.842-2.591 0-1.343-0.79-2.447-0.825-2.494-0.253-0.349-0.476-1.022-0.476-1.441 0-0.417 0.224-1.088 0.48-1.435 0.034-0.045 0.821-1.128 0.821-2.471 0-1.338-0.811-2.563-0.846-2.614-0.247-0.367-0.455-1.041-0.455-1.47 0-0.314 0.237-0.57 0.529-0.57 0.425 0 1.143 0.148 1.57 0.324 0.048 0.020 1.199 0.489 2.373 0.489 1.173 0 2.414-0.481 2.467-0.502 0.43-0.169 1.185-0.312 1.647-0.312h0.053c0.461 0 1.21 0.149 1.637 0.325 0.048 0.020 1.198 0.489 2.374 0.489 1.175 0 2.327-0.469 2.375-0.489 0.426-0.176 1.144-0.324 1.568-0.324 0.292 0 0.529 0.256 0.529 0.57 0 0.433-0.198 1.119-0.433 1.498-0.032 0.053-0.795 1.302-0.795 2.586 0 1.29 0.739 2.394 0.77 2.44 0.248 0.366 0.458 1.038 0.458 1.466 0.001 0.43-0.207 1.104-0.453 1.472zM20.435 9.309h-9.17c-0.761 0-1.381 0.619-1.381 1.381v9.939c0 0.761 0.619 1.381 1.381 1.381h9.17c0.761 0 1.381-0.619 1.381-1.381v-9.939c0-0.761-0.62-1.38-1.381-1.38zM21.34 20.628c0 0.499-0.406 0.905-0.906 0.905h-9.17c-0.499 0-0.905-0.406-0.905-0.905l0-9.939c0-0.499 0.406-0.905 0.905-0.905h9.17c0.499 0 0.906 0.406 0.906 0.905l-0 9.939zM20.010 13.082l-4.564 3.066c-0.072 0.049-0.091 0.147-0.042 0.22 0.031 0.045 0.081 0.070 0.131 0.070 0.032 0 0.062-0.009 0.090-0.027l4.564-3.066c0.072-0.049 0.092-0.147 0.043-0.22-0.050-0.073-0.148-0.092-0.221-0.043zM17.706 15.817l-3.616 2.442c-0.072 0.049-0.092 0.148-0.042 0.22 0.030 0.045 0.080 0.070 0.131 0.070 0.031 0 0.062-0.009 0.089-0.027l3.615-2.442c0.073-0.049 0.093-0.148 0.043-0.22-0.049-0.072-0.148-0.091-0.22-0.042z" fill="#000000" />
</svg>
