<?xml version="1.0" encoding="utf-8"?>
<!-- Generated by IcoMoon.io -->
<!DOCTYPE svg PUBLIC "-//W3C//DTD SVG 1.1//EN" "http://www.w3.org/Graphics/SVG/1.1/DTD/svg11.dtd">
<svg version="1.1" xmlns="http://www.w3.org/2000/svg" xmlns:xlink="http://www.w3.org/1999/xlink" width="32" height="32" viewBox="0 0 32 32">
<g>
</g>
	<path d="M19.702 14.361c-0.052-0.049-0.134-0.046-0.183 0.005-0.049 0.052-0.046 0.133 0.005 0.182 0.523 0.497 0.811 1.164 0.811 1.88 0 0.736-0.318 1.442-0.87 1.937-0.054 0.047-0.058 0.128-0.011 0.182 0.025 0.029 0.061 0.043 0.097 0.043 0.030 0 0.061-0.011 0.086-0.033 0.608-0.543 0.956-1.319 0.956-2.129 0-0.787-0.316-1.521-0.891-2.067zM21.668 11.702c-0.071-0.069-0.185-0.067-0.254 0.005-0.070 0.071-0.067 0.186 0.005 0.255 1.228 1.183 1.905 2.769 1.905 4.466 0 1.729-0.733 3.394-2.011 4.568-0.073 0.067-0.078 0.181-0.011 0.255 0.036 0.038 0.084 0.058 0.133 0.058 0.044 0 0.088-0.016 0.122-0.047 1.353-1.243 2.128-3.004 2.128-4.834 0-1.796-0.715-3.475-2.016-4.726zM20.522 12.848c-0.062-0.059-0.16-0.057-0.218 0.006-0.059 0.062-0.056 0.16 0.006 0.218 0.931 0.886 1.445 2.078 1.445 3.356 0 1.316-0.566 2.575-1.552 3.455-0.063 0.057-0.070 0.154-0.012 0.218 0.031 0.034 0.072 0.051 0.115 0.051 0.037 0 0.074-0.013 0.103-0.040 1.052-0.938 1.654-2.282 1.654-3.686-0-1.364-0.548-2.635-1.541-3.58zM22.022 9.071c-0.15-0.15-0.392-0.15-0.542 0 0 0-4.289 4.289-4.289 4.288v-2.488c0-0.108-0.064-0.205-0.163-0.247s-0.213-0.022-0.29 0.053l-3.833 3.687h-3.594c-0.147 0-0.268 0.12-0.268 0.268v4.352c0 0.148 0.121 0.268 0.268 0.268h1.986l-2.87 2.87c-0.15 0.15-0.15 0.392 0 0.542 0.074 0.075 0.173 0.113 0.271 0.113s0.197-0.038 0.271-0.113l3.411-3.411h0.468l3.889 3.715c0.051 0.049 0.118 0.074 0.185 0.074 0.035 0 0.071-0.007 0.106-0.022 0.099-0.042 0.163-0.139 0.163-0.246l-0-8.331 4.831-4.831c0.15-0.149 0.15-0.392 0-0.541zM16.655 22.146l-3.514-3.355c-0.050-0.048-0.116-0.074-0.185-0.074h-0.040l3.738-3.737v7.167zM16.655 13.895l-4.822 4.821h-2.254v-3.816h3.433c0.069 0 0.136-0.027 0.186-0.075l3.456-3.325-0 2.394z" fill="#000000" />
</svg>
