<?xml version="1.0" encoding="utf-8"?>
<!-- Generator: Adobe Illustrator 17.1.0, SVG Export Plug-In . SVG Version: 6.00 Build 0)  -->
<!DOCTYPE svg PUBLIC "-//W3C//DTD SVG 1.1//EN" "http://www.w3.org/Graphics/SVG/1.1/DTD/svg11.dtd">
<svg version="1.1" id="Layer_1" xmlns="http://www.w3.org/2000/svg" xmlns:xlink="http://www.w3.org/1999/xlink" x="0px" y="0px"
	 viewBox="0 0 300 300" enable-background="new 0 0 300 300" xml:space="preserve">
<g>
	<path d="M101.2,105.9c12.2,0,21.6-9.4,21.6-21.6s-9.4-21.6-21.6-21.6s-21.6,9.4-21.6,21.6C79.7,95.6,89.1,105.9,101.2,105.9z
		 M101.2,67.5c8.4,0,15.9,7.5,15.9,15.9s-7.5,15.9-15.9,15.9s-15.9-7.5-15.9-15.9S92.8,67.5,101.2,67.5z"/>
	<path d="M231.6,161.2H225c-2.8-16.9-14.1-50.6-20.6-60.9c-0.9-0.9-1.9-1.9-2.8-0.9l-4.7,0.9l0,0c0-0.9-22.5-47.8-26.2-55.3
		c-3.7-7.5-10.3-8.4-16.9-8.4h-12.2c-1.9,0-2.8,0.9-2.8,2.8c0,1.9,0.9,2.8,2.8,2.8h12.2c6.6,0,10.3,0.9,12.2,4.7
		c2.8,6.6,22.5,46.9,25.3,54.4l-16.9,2.8V92.8c0-1.9-0.9-2.8-2.8-2.8h-11.3c-1.9,0-2.8,0.9-2.8,2.8v46.9c0,1.9,0.9,2.8,2.8,2.8h8.4
		v17.8h-13.1c0.9-1.9,0.9-2.8,0.9-4.7c0-5.6-5.6-10.3-13.1-10.3h-18.8v-12.2c0-12.2-9.4-21.6-21.6-21.6s-21.6,9.4-21.6,21.6v15
		c-0.9,0-1.9-0.9-2.8-0.9c-4.7,0-8.4,3.8-8.4,8.4v31.9c0,9.4,3.8,15,6.6,20.6c2.8,3.8,4.7,7.5,4.7,12.2v45c0,1.9,0.9,2.8,2.8,2.8
		h9.4c1.9,0,2.8-0.9,2.8-2.8v-43.1c0-0.9,0-0.9,0.9-0.9h33.7v40.3c0,3.8,2.8,6.6,6.6,6.6h93.8c3.8,0,6.6-2.8,6.6-6.6v-93.7
		C238.1,164.1,234.4,161.2,231.6,161.2z M163.1,136.9V95.6h5.6v11.2v30H163.1z M174.4,139.7v-30l25.3-4.7
		c5.6,10.3,15.9,39.4,18.8,56.2h-44.1L174.4,139.7L174.4,139.7z M130.3,167.8V180h-5.6c-0.9,0-0.9,0-0.9-0.9v-12.2h6.6
		C130.3,166.9,130.3,166.9,130.3,167.8z M86.2,133.1c0-8.4,7.5-15.9,15.9-15.9s15.9,7.5,15.9,15.9v12.2h-5.6c-1.9,0-2.8,0.9-2.8,2.8
		s0.9,2.8,2.8,2.8h30.9c3.8,0,7.5,1.9,7.5,4.7c0,4.7-2.8,4.7-2.8,4.7h-41.2c-5.6,0-9.4-4.7-9.4-9.4v-17.8c0-1.9-0.9-2.8-2.8-2.8
		c-1.9,0-2.8,0.9-2.8,2.8v17.8c0,8.4,6.6,15,15,15h12.2v12.2c0,3.8,2.8,6.6,6.6,6.6h5.6v17.8h-28.1c-9.4,0-16.9-7.5-16.9-15.9v-31.9
		V133.1z M97.5,215.6c-3.8,0-6.6,2.8-6.6,6.6v40.3h-4.7v-42.2c0-6.6-2.8-11.2-5.6-15.9c-2.8-4.7-5.6-9.4-5.6-16.9v-31.9
		c0-1.9,0.9-2.8,2.8-2.8s2.8,0.9,2.8,2.8v31.9c0,12.2,10.3,21.6,22.5,21.6h27.2v6.6H97.5z M232.5,261.6
		C232.5,262.5,231.6,262.5,232.5,261.6l-95.6,0.9c-0.9,0-0.9,0-0.9-0.9v-93.8c0-0.9,0-0.9,0.9-0.9h93.8c0.9,0,0.9,0,0.9,0.9v93.8
		H232.5z"/>
</g>
</svg>
