<?xml version="1.0" encoding="utf-8"?>
<!-- Generated by IcoMoon.io -->
<!DOCTYPE svg PUBLIC "-//W3C//DTD SVG 1.1//EN" "http://www.w3.org/Graphics/SVG/1.1/DTD/svg11.dtd">
<svg version="1.1" xmlns="http://www.w3.org/2000/svg" xmlns:xlink="http://www.w3.org/1999/xlink" width="32" height="32" viewBox="0 0 32 32">
<g>
</g>
	<path d="M10.291 9.698c-0.106-0.102-0.273-0.098-0.375 0.007-0.102 0.105-0.098 0.274 0.007 0.375 1.574 1.515 2.44 3.546 2.44 5.72 0 2.213-0.939 4.346-2.575 5.849-0.108 0.099-0.115 0.266-0.016 0.374 0.052 0.057 0.123 0.086 0.196 0.086 0.064 0 0.128-0.023 0.179-0.070 1.746-1.604 2.747-3.878 2.747-6.239-0-2.319-0.924-4.487-2.602-6.102zM8.839 11.147c-0.106-0.101-0.274-0.097-0.375 0.010-0.101 0.106-0.097 0.274 0.010 0.374 1.184 1.126 1.837 2.642 1.837 4.269 0 1.673-0.719 3.275-1.972 4.394-0.109 0.098-0.119 0.265-0.021 0.374 0.052 0.058 0.125 0.088 0.198 0.088 0.062 0 0.126-0.023 0.176-0.067 1.366-1.22 2.15-2.966 2.15-4.789-0-1.773-0.711-3.426-2.002-4.653zM7.74 13.141c-0.067-0.063-0.171-0.060-0.235 0.006-0.063 0.066-0.060 0.171 0.006 0.234 0.673 0.639 1.043 1.498 1.043 2.419 0 0.946-0.408 1.854-1.12 2.49-0.068 0.061-0.074 0.166-0.014 0.234 0.033 0.037 0.078 0.055 0.124 0.055 0.039 0 0.079-0.014 0.11-0.042 0.782-0.698 1.231-1.697 1.231-2.737 0-1.012-0.407-1.956-1.146-2.659zM19.371 15.8c0-2.174 0.867-4.205 2.44-5.72 0.106-0.102 0.109-0.27 0.007-0.374-0.052-0.054-0.122-0.082-0.191-0.082-0.066 0-0.133 0.025-0.185 0.074-1.678 1.616-2.602 3.783-2.602 6.102 0 2.361 1.002 4.636 2.747 6.239 0.108 0.099 0.275 0.092 0.374-0.016 0.099-0.108 0.092-0.275-0.016-0.374-1.637-1.504-2.575-3.637-2.575-5.849zM21.424 15.8c0-1.627 0.653-3.143 1.837-4.269 0.107-0.101 0.111-0.269 0.010-0.374-0.052-0.055-0.122-0.082-0.192-0.082-0.065 0-0.131 0.024-0.183 0.073-1.291 1.227-2.002 2.88-2.002 4.653 0 1.823 0.784 3.57 2.15 4.789 0.109 0.097 0.277 0.088 0.374-0.021 0.098-0.11 0.088-0.277-0.021-0.374-1.254-1.119-1.972-2.721-1.972-4.394zM24.566 18.29c-0.712-0.636-1.12-1.543-1.12-2.49 0-0.92 0.37-1.779 1.043-2.418 0.066-0.063 0.069-0.168 0.006-0.234-0.032-0.034-0.076-0.051-0.12-0.051-0.041 0-0.082 0.015-0.114 0.045-0.739 0.702-1.146 1.647-1.146 2.659 0 1.041 0.448 2.039 1.231 2.738 0.068 0.061 0.172 0.055 0.234-0.013 0.061-0.069 0.055-0.173-0.014-0.234zM14.947 6.801c-0.22 0-0.398 0.178-0.398 0.398v5.728c-0.496-1.761-1.448-3.369-2.802-4.682-0.105-0.102-0.273-0.099-0.375 0.006-0.102 0.105-0.1 0.273 0.005 0.375 1.96 1.901 3.040 4.449 3.040 7.175 0 2.757-1.158 5.419-3.176 7.305-0.107 0.1-0.113 0.268-0.013 0.375 0.052 0.056 0.123 0.084 0.194 0.084 0.065 0 0.13-0.024 0.181-0.071 1.417-1.323 2.428-3.011 2.946-4.849v6.178c0 0.219 0.178 0.398 0.398 0.398 0.22 0 0.398-0.178 0.398-0.398l-0-17.622c0-0.22-0.178-0.397-0.398-0.397zM17.318 15.8c0-2.726 1.079-5.274 3.039-7.175 0.105-0.102 0.108-0.27 0.006-0.375-0.051-0.053-0.121-0.081-0.19-0.081-0.066 0-0.133 0.025-0.185 0.075-1.354 1.314-2.306 2.922-2.802 4.682v-5.747c0-0.22-0.178-0.398-0.398-0.398-0.22 0-0.398 0.178-0.398 0.398v17.621c0 0.22 0.178 0.398 0.398 0.398 0.219 0 0.398-0.178 0.398-0.398l0-6.159c0.518 1.838 1.529 3.526 2.946 4.85 0.107 0.1 0.275 0.094 0.375-0.013 0.1-0.107 0.094-0.275-0.013-0.375-2.018-1.885-3.176-4.548-3.176-7.305z" fill="#000000" />
</svg>
