<?xml version="1.0" encoding="utf-8"?>
<!-- Generated by IcoMoon.io -->
<!DOCTYPE svg PUBLIC "-//W3C//DTD SVG 1.1//EN" "http://www.w3.org/Graphics/SVG/1.1/DTD/svg11.dtd">
<svg version="1.1" xmlns="http://www.w3.org/2000/svg" xmlns:xlink="http://www.w3.org/1999/xlink" width="32" height="32" viewBox="0 0 32 32">
<g>
</g>
	<path d="M19.104 22.634h5.443c0.684 0 1.24-0.557 1.24-1.241v-10.406c0-0.684-0.556-1.241-1.24-1.241l-16.75-0c-0.683 0-1.24 0.557-1.24 1.241v10.406c0 0.684 0.556 1.241 1.24 1.241l11.307 0zM25.174 21.424c0 0.346-0.281 0.627-0.627 0.627h-16.75c-0.346 0-0.627-0.281-0.627-0.627l-0-10.437c0-0.346 0.281-0.628 0.627-0.628h16.75c0.346 0 0.627 0.282 0.627 0.628v10.437zM16.172 19.696c-1.934 0-3.506-1.573-3.506-3.506 0-1.933 1.573-3.506 3.506-3.506 1.933 0 3.506 1.573 3.506 3.506-0 1.933-1.573 3.506-3.506 3.506zM16.172 13.144c-1.68 0-3.046 1.366-3.046 3.046 0 1.679 1.367 3.046 3.046 3.046s3.046-1.367 3.046-3.046c-0-1.68-1.366-3.046-3.046-3.046zM15.131 17.744c-0.028 0-0.055-0.008-0.080-0.023-0.045-0.028-0.074-0.077-0.074-0.13v-2.801c0-0.053 0.028-0.103 0.073-0.13 0.045-0.028 0.102-0.031 0.149-0.006l2.752 1.389c0.051 0.026 0.084 0.078 0.084 0.136 0.001 0.058-0.032 0.11-0.083 0.137l-2.752 1.412c-0.022 0.011-0.046 0.017-0.070 0.017zM15.284 15.039v2.301l2.261-1.16-2.261-1.141z" fill="#000000" />
</svg>
