<?xml version="1.0" encoding="utf-8"?>
<!-- Generated by IcoMoon.io -->
<!DOCTYPE svg PUBLIC "-//W3C//DTD SVG 1.1//EN" "http://www.w3.org/Graphics/SVG/1.1/DTD/svg11.dtd">
<svg version="1.1" xmlns="http://www.w3.org/2000/svg" xmlns:xlink="http://www.w3.org/1999/xlink" width="32" height="32" viewBox="0 0 32 32">
<g>
</g>
	<path d="M27.933 10.838c-0.134-0.253-0.261-0.491-0.366-0.723-0.046-0.102-0.144-0.17-0.256-0.178-0.105-0.006-0.218 0.044-0.28 0.138-0.308 0.471-0.739 0.892-1.238 1.38-1.139 1.112-2.557 2.497-3.139 5.259-0.764 3.624 0.323 7.45 0.516 8.083-0.249 1.007-1.409 2.25-1.421 2.263-0.116 0.123-0.11 0.317 0.013 0.433 0.059 0.056 0.134 0.083 0.21 0.083 0.082 0 0.163-0.032 0.223-0.096 0.053-0.056 1.241-1.327 1.556-2.48 0.804-0.416 4.976-2.771 5.425-7.115 0.407-3.935-0.547-5.733-1.243-7.045zM28.565 17.82c-0.382 3.69-3.812 5.908-4.888 6.518-0.293-1.076-1.074-4.417-0.424-7.5 0.544-2.58 1.832-3.838 2.967-4.947 0.366-0.358 0.717-0.7 1.014-1.064 0.050 0.097 0.103 0.196 0.157 0.297 0.696 1.312 1.562 2.945 1.174 6.695zM27.249 11.544c-0.089-0.004-0.157 0.060-0.161 0.145-0.065 1.201-0.301 2.554-0.614 3.903-0.278-0.485-0.748-1.469-0.624-2.402 0.011-0.084-0.048-0.161-0.132-0.172-0.083-0.012-0.161 0.048-0.172 0.132-0.168 1.274 0.635 2.575 0.828 2.867-0.363 1.486-0.808 2.944-1.215 4.165-0.347-0.437-1.305-1.722-1.366-2.677-0.006-0.085-0.081-0.15-0.163-0.143-0.084 0.006-0.148 0.078-0.143 0.163 0.080 1.24 1.45 2.876 1.557 3.002-0.561 1.654-1.020 2.795-1.031 2.823-0.032 0.078 0.006 0.168 0.085 0.2 0.019 0.007 0.038 0.011 0.058 0.011 0.060 0 0.118-0.036 0.142-0.096 0.015-0.036 0.748-1.858 1.499-4.258 0.333-0.171 2.1-1.113 2.555-2.060 0.037-0.076 0.004-0.168-0.072-0.205-0.076-0.036-0.168-0.005-0.205 0.072-0.337 0.702-1.561 1.448-2.149 1.775 0.266-0.873 0.53-1.808 0.76-2.755 0.003-0.009 0.006-0.018 0.006-0.027 0.358-1.479 0.632-2.981 0.703-4.301 0.005-0.084-0.061-0.157-0.145-0.161zM18.38 8.396c0.821-0.056 1.954 0.041 2.952 0.126 1.278 0.109 1.958 0.159 2.266 0.026 0.505-0.22 0.941-0.788 1.039-1.351 0.064-0.37-0.026-0.692-0.254-0.906-1.434-1.348-4.039-2.389-6.386-1.505-0.082 0.008-0.27 0.029-0.534 0.067l0-0.648c0-0.67-1.129-0.913-1.888-0.913s-1.888 0.243-1.888 0.913c0 0.55 0.001 1.113 0.002 1.684-2.119 0.904-4.216 2.515-4.216 5.36 0 0.61 0.141 1.151 0.384 1.628l-4.642 1.188c-0.008 0.002-0.015 0.007-0.023 0.011-1.658 0.52-2.865 2.072-2.865 3.9 0 2.253 1.833 4.086 4.086 4.086 1.86 0 3.43-1.25 3.923-2.954 0.001-0.003 0.004-0.004 0.005-0.007l1.177-4.51c0.679 0.419 1.458 0.712 2.232 0.89 0.012 1.177 0.026 2.353 0.041 3.512-1.261 0.489-2.322 1.266-2.322 2.826 0 1.658 1.311 2.261 2.406 2.554 0.017 0.898 0.034 1.697 0.051 2.373-0.249-0.051-0.471-0.12-0.644-0.207-1.198-0.611-1.474-0.598-1.636-0.336-0.191 0.306 0.103 0.599 0.879 1.182 0.454 0.341 0.942 0.58 1.44 0.738 0.036 1.128 0.049 1.166 0.074 1.233 0.143 0.382 0.983 0.586 1.535 0.586 0.551 0 1.391-0.203 1.535-0.585 0.025-0.066 0.039-0.107 0.075-1.255 0.187-0.063 0.365-0.135 0.529-0.217 0.989-0.494 1.556-1.304 1.556-2.221 0-1.077-0.768-2.006-1.975-2.42 0.016-0.925 0.032-1.931 0.047-3.008 1.727-0.486 3.448-1.33 3.448-3.463 0-1.728-1.656-2.976-3.37-3.493 0.014-1.625 0.025-3.224 0.032-4.76 0.38-0.066 0.704-0.106 0.926-0.121zM14.296 4.23c0.058-0.11 0.563-0.324 1.28-0.324s1.222 0.214 1.275 0.3l-0 0.75c-0.501 0.094-1.121 0.232-1.789 0.436l-0.009-0.878c-0.001-0.084-0.070-0.152-0.153-0.152-0.001 0-0.001 0-0.002 0-0.085 0.001-0.153 0.070-0.152 0.155l0.010 0.973c-0.15 0.049-0.301 0.101-0.454 0.157-0.001-0.486-0.002-0.965-0.006-1.416zM9.888 17.975c0 0.691-0.205 1.334-0.555 1.877-0.419-0.537-0.769-1.678-0.792-2.158 0.365-0.364 0.643-1.067 0.799-1.582 0.345 0.539 0.548 1.178 0.548 1.864zM8.058 17.626c-0.493 0-1.134-1.735-1.162-2.433 0.001-0.001 0.002-0.003 0.004-0.004 0.006-0.006 0.011-0.013 0.017-0.019 0.033-0.034 0.066-0.071 0.098-0.112 0.011-0.014 0.022-0.031 0.034-0.045 0.027-0.036 0.054-0.073 0.080-0.113 0.013-0.019 0.026-0.041 0.039-0.062 0.025-0.040 0.050-0.082 0.074-0.125 0.013-0.023 0.026-0.047 0.039-0.071 0.004-0.007 0.008-0.014 0.012-0.022 0.726 0.19 1.361 0.606 1.821 1.174-0.229 0.892-0.708 1.834-1.056 1.834zM6.074 14.895c-0.017-0.021-0.034-0.043-0.051-0.066-0.011-0.015-0.022-0.030-0.034-0.046-0.018-0.026-0.036-0.054-0.054-0.083-0.010-0.016-0.021-0.032-0.031-0.048-0.019-0.031-0.038-0.065-0.057-0.098 0.186-0.031 0.375-0.051 0.569-0.051 0.192 0 0.38 0.020 0.564 0.050-0.019 0.034-0.038 0.067-0.056 0.098-0.011 0.018-0.022 0.034-0.032 0.050-0.018 0.029-0.036 0.057-0.054 0.082-0.011 0.016-0.022 0.030-0.032 0.045-0.018 0.024-0.035 0.046-0.053 0.068-0.011 0.013-0.021 0.025-0.032 0.037-0.018 0.019-0.035 0.038-0.051 0.054-0.010 0.010-0.021 0.020-0.031 0.029-0.017 0.015-0.034 0.028-0.050 0.040-0.010 0.007-0.019 0.015-0.029 0.021-0.018 0.011-0.034 0.019-0.051 0.026-0.008 0.004-0.016 0.008-0.024 0.011-0.024 0.008-0.047 0.013-0.070 0.013-0.023 0-0.046-0.005-0.070-0.013-0.008-0.002-0.016-0.007-0.024-0.011-0.017-0.007-0.034-0.015-0.051-0.026-0.010-0.006-0.019-0.014-0.030-0.021-0.016-0.012-0.033-0.025-0.049-0.039-0.010-0.009-0.021-0.020-0.032-0.030-0.017-0.016-0.033-0.034-0.050-0.052-0.011-0.013-0.022-0.025-0.033-0.039zM6.266 15.409c0.011 0.004 0.023 0.007 0.034 0.010 0.075 0.017 0.15 0.017 0.225 0 0.011-0.003 0.022-0.006 0.033-0.010 0.017-0.005 0.033-0.008 0.049-0.015 0.089 0.644 0.467 1.794 0.967 2.295-0.026 0.695-0.669 2.437-1.162 2.437s-1.136-1.743-1.162-2.438c0.5-0.501 0.878-1.651 0.966-2.294 0.016 0.007 0.032 0.010 0.049 0.014zM5.534 14.62c0.002 0.005 0.005 0.009 0.007 0.013 0.015 0.029 0.031 0.058 0.046 0.085 0.023 0.040 0.045 0.078 0.069 0.115 0.014 0.023 0.029 0.047 0.043 0.070 0.025 0.037 0.049 0.070 0.073 0.103 0.014 0.018 0.027 0.038 0.040 0.054 0.028 0.036 0.057 0.068 0.086 0.098 0.010 0.010 0.019 0.022 0.029 0.032 0.001 0.001 0.002 0.002 0.002 0.003-0.029 0.698-0.67 2.433-1.162 2.433-0.346 0-0.824-0.938-1.054-1.828 0.459-0.569 1.094-0.987 1.821-1.179zM4.283 17.693c-0.022 0.478-0.371 1.615-0.789 2.154-0.348-0.541-0.553-1.182-0.553-1.872 0-0.683 0.202-1.32 0.544-1.858 0.157 0.513 0.434 1.213 0.797 1.576zM3.679 20.106c0.443-0.521 0.805-1.594 0.892-2.212 0.127 0.051 0.263 0.052 0.391-0.001 0.088 0.644 0.466 1.796 0.967 2.297-0.011 0.241-0.108 0.69-0.284 1.17-0.793-0.18-1.482-0.632-1.967-1.253zM6.415 21.448c-0.158 0-0.312-0.014-0.464-0.035 0.129-0.363 0.227-0.736 0.266-1.021 0.128 0.053 0.262 0.053 0.39 0 0.039 0.285 0.137 0.658 0.267 1.022-0.151 0.020-0.303 0.034-0.459 0.034zM6.896 20.19c0.5-0.501 0.878-1.653 0.967-2.297 0.129 0.053 0.266 0.052 0.391 0.002 0.087 0.621 0.45 1.695 0.895 2.216-0.486 0.62-1.175 1.072-1.969 1.251-0.177-0.481-0.273-0.93-0.284-1.172zM10.461 17.434c-0.242-1.814-1.676-3.253-3.488-3.502l3.045-0.779c0.311 0.497 0.735 0.919 1.231 1.264l-0.787 3.018zM11.682 13.969l0.22-0.843c0.022-0.082-0.028-0.166-0.11-0.187-0.083-0.023-0.166 0.028-0.187 0.11l-0.19 0.727c-0.296-0.229-0.557-0.49-0.767-0.784l0.747-0.191c0.082-0.021 0.131-0.105 0.11-0.186-0.021-0.082-0.103-0.131-0.187-0.11l-0.844 0.216c-0.244-0.428-0.388-0.916-0.388-1.47 0-5.159 7.925-5.85 8.005-5.857 0.030-0.002 0.058-0.009 0.086-0.020 2.017-0.779 4.437 0.097 5.786 1.364 0.098 0.092 0.085 0.262 0.069 0.355-0.022 0.129-0.076 0.262-0.148 0.386-0.665-0.034-4.179-0.234-5.733-0.721-0.080-0.025-0.167 0.020-0.192 0.101-0.025 0.081 0.020 0.167 0.101 0.192 1.481 0.464 4.578 0.667 5.594 0.722-0.094 0.091-0.196 0.167-0.301 0.212-0.193 0.077-1.177-0.006-1.969-0.074-1.020-0.087-2.177-0.186-3.046-0.127-0.017 0.001-0.497 0.050-1.181 0.178-0.003-0-0.006-0.002-0.008-0.002-0.001 0-0.001 0-0.002 0-0.044 0-0.086 0.010-0.123 0.027-0.904 0.175-2.114 0.48-3.106 0.978-0.028 0.009-0.053 0.022-0.077 0.038-0.969 0.503-1.71 1.196-1.71 2.142 0 1.081 0.858 1.571 1.597 1.843 0.005 0.619 0.011 1.24 0.017 1.863-0.728-0.181-1.453-0.473-2.065-0.882zM13.723 12.324c-0.678-0.294-0.979-0.658-0.979-1.179 0-0.534 0.387-0.985 0.961-1.358 0.005 0.834 0.011 1.681 0.018 2.537zM14.317 9.449c0.154-0.073 0.314-0.143 0.479-0.209l0.1 9.394c-0.164 0.046-0.328 0.095-0.492 0.147-0.040-3.102-0.070-6.313-0.086-9.332zM13.825 21.246c0.006 0.354 0.010 0.698 0.016 1.035-0.28-0.191-0.33-0.386-0.33-0.559-0-0.188 0.116-0.343 0.314-0.476zM14.434 20.966c0.15-0.051 0.314-0.099 0.486-0.145l0.064 6.021c-0.15 0-0.298-0.004-0.443-0.015 0-0.005 0.003-0.010 0.003-0.015-0.037-1.445-0.075-3.465-0.11-5.846zM16.532 29.109c-0.136 0.082-0.525 0.217-0.956 0.217s-0.82-0.135-0.955-0.217c-0.009-0.13-0.021-0.411-0.035-0.836 0.138 0.025 0.276 0.045 0.413 0.059l0.005 0.418c0.001 0.084 0.070 0.152 0.153 0.152 0.001 0 0.001 0 0.002 0 0.085-0.001 0.153-0.070 0.152-0.155l-0.004-0.393c0.079 0.004 0.158 0.008 0.236 0.008 0.356 0 0.7-0.037 1.026-0.101-0.017 0.497-0.028 0.738-0.036 0.847zM18.658 25.661c0 0.926-0.762 1.446-1.218 1.673-1.017 0.509-2.599 0.607-3.928-0.059 1.11 0.309 2.854 0.238 3.829-0.359 0.503-0.308 0.768-0.734 0.768-1.231 0-0.492-0.329-0.949-0.837-1.194 0.004-0.194 0.007-0.394 0.011-0.598 0.718 0.299 1.374 0.881 1.374 1.768zM17.259 25.211c0.148 0.134 0.238 0.302 0.238 0.474 0 0.208-0.086 0.389-0.261 0.548 0.008-0.32 0.015-0.659 0.023-1.022zM16.615 26.586c-0.386 0.142-0.854 0.222-1.326 0.247l-0.065-6.091c0.235-0.058 0.481-0.113 0.731-0.169 0.248-0.056 0.508-0.114 0.772-0.178-0.036 2.482-0.075 4.671-0.113 6.191zM20.178 16.77c0 2.227-2.315 2.747-4.357 3.206-1.569 0.352-2.923 0.656-2.923 1.747 0 0.749 0.59 1.104 0.954 1.266 0.004 0.253 0.008 0.501 0.013 0.742-1.242-0.371-1.782-0.956-1.782-1.912 0-1.827 1.884-2.316 3.706-2.789 1.511-0.392 2.937-0.762 2.937-1.977 0-0.66-0.494-1.202-1.328-1.487 0.006-0.55 0.011-1.1 0.016-1.647 1.429 0.475 2.762 1.493 2.762 2.852zM17.392 16.217c0.457 0.2 0.722 0.497 0.722 0.835 0 0.371-0.287 0.631-0.741 0.841 0.007-0.558 0.014-1.116 0.019-1.676zM16.757 18.125c-0.34 0.108-0.722 0.207-1.121 0.311-0.142 0.037-0.288 0.075-0.435 0.114l-0.1-9.426c0.578-0.208 1.187-0.369 1.738-0.488-0.014 3.023-0.043 6.29-0.082 9.489zM21.277 6.494c0.297 0 0.539-0.242 0.539-0.539s-0.242-0.539-0.539-0.539-0.539 0.242-0.539 0.539 0.241 0.539 0.539 0.539zM21.277 5.722c0.128 0 0.232 0.104 0.232 0.232s-0.104 0.232-0.232 0.232-0.232-0.104-0.232-0.232 0.104-0.232 0.232-0.232z" fill="#000000" />
</svg>
