<?xml version="1.0" encoding="utf-8"?>
<!-- Generated by IcoMoon.io -->
<!DOCTYPE svg PUBLIC "-//W3C//DTD SVG 1.1//EN" "http://www.w3.org/Graphics/SVG/1.1/DTD/svg11.dtd">
<svg version="1.1" xmlns="http://www.w3.org/2000/svg" xmlns:xlink="http://www.w3.org/1999/xlink" width="32" height="32" viewBox="0 0 32 32">
<g>
</g>
	<path d="M21.455 24.27l1.416-6.347c0.006-0.022 0.001-0.044 0.001-0.066h0.006c0-0.012-0.005-0.021-0.006-0.032-0.001-0.015-0.006-0.028-0.007-0.042-0.122-0.901-2.423-1.319-4.63-1.477-0.053-0.572 0.072-1.234 0.624-1.883 0.020-0.021 1.944-2.079 0-4.111-1.394-1.457-0.037-3.418 0.022-3.501 0.073-0.103 0.048-0.247-0.055-0.32-0.103-0.073-0.247-0.049-0.32 0.054-0.016 0.023-1.636 2.353 0.022 4.085 1.638 1.711 0.068 3.404-0.009 3.485-0.63 0.741-0.787 1.5-0.739 2.161-0.543-0.021-1.425-0.050-1.779-0.050-0.046 0-0.098 0.001-0.146 0.002-0.034-0.554 0.106-1.185 0.632-1.805 0.020-0.021 1.944-2.079 0-4.111-1.394-1.457-0.037-3.418 0.022-3.501 0.073-0.103 0.048-0.247-0.055-0.32-0.103-0.073-0.247-0.049-0.32 0.054-0.016 0.023-1.635 2.353 0.022 4.085 1.638 1.711 0.068 3.404-0.009 3.485-0.617 0.726-0.78 1.469-0.741 2.12-0.535 0.018-1.522 0.058-2.049 0.103-0.061-0.579 0.058-1.254 0.62-1.916 0.020-0.021 1.944-2.079 0-4.111-1.393-1.457-0.037-3.418 0.022-3.501 0.073-0.103 0.049-0.247-0.055-0.32-0.103-0.073-0.247-0.049-0.32 0.054-0.017 0.023-1.636 2.353 0.021 4.085 1.638 1.711 0.068 3.404-0.009 3.485-0.659 0.775-0.8 1.571-0.73 2.253-1.711 0.227-3.693 0.717-3.774 1.426-0.001 0.007-0.002 0.014-0.003 0.022-0.001 0.014-0.006 0.027-0.006 0.041h0.006c0 0.022-0.004 0.044 0.002 0.066l1.416 6.347c0.124 0.827 3.268 1.283 5.454 1.283 2.186 0 5.33-0.456 5.455-1.283zM9.742 17.85c0.1-0.228 1.595-0.649 3.283-0.877 0.212 0.726 0.598 1.217 0.605 1.228 0.045 0.056 0.112 0.086 0.18 0.086 0.050 0 0.101-0.017 0.143-0.050 0.099-0.079 0.116-0.224 0.036-0.323-0.026-0.034-0.32-0.413-0.504-0.971 0.467-0.040 1.434-0.080 2.015-0.097 0.202 0.795 0.632 1.345 0.64 1.356 0.045 0.056 0.112 0.086 0.179 0.086 0.051 0 0.101-0.017 0.144-0.050 0.099-0.079 0.116-0.224 0.036-0.323-0.028-0.035-0.356-0.46-0.535-1.074 0.012 0 0.023-0.001 0.036-0.001 0.44 0 1.349 0.031 1.884 0.052 0.206 0.771 0.621 1.299 0.629 1.31 0.045 0.056 0.112 0.086 0.179 0.086 0.051 0 0.101-0.017 0.144-0.050 0.099-0.079 0.116-0.224 0.036-0.323-0.026-0.034-0.325-0.419-0.508-0.984 2.411 0.192 3.783 0.645 3.894 0.918l-1.404 6.294c-0.28 0.254-2.161 0.799-4.855 0.799-2.694 0-4.575-0.546-4.855-0.799l-1.404-6.291z" fill="#000000" />
</svg>
