<?xml version="1.0" encoding="utf-8"?>
<!-- Generated by IcoMoon.io -->
<!DOCTYPE svg PUBLIC "-//W3C//DTD SVG 1.1//EN" "http://www.w3.org/Graphics/SVG/1.1/DTD/svg11.dtd">
<svg version="1.1" xmlns="http://www.w3.org/2000/svg" xmlns:xlink="http://www.w3.org/1999/xlink" width="32" height="32" viewBox="0 0 32 32">
<g>
</g>
	<path d="M8.531 7.891h-2.477c-2.394 0-3.713 1.319-3.713 3.714v1.989c0 1.2 0.814 1.799 1.602 2.378l0.045 0.034v0.542c0 0.024 0.008 0.045 0.013 0.067v11.602c0 0.472 0.252 1.262 1.938 1.262h0.109c0.661 0 0.996-0.371 0.996-1.105l-0-8.481c0.018-0.071 0.106-0.11 0.249-0.11 0.186 0 0.236 0.067 0.249 0.113v8.479c0 0.532 0.378 0.978 0.88 1.082 0.036 0.015 0.075 0.023 0.117 0.023h0.108c0.010 0 0.021-0.001 0.031-0.002 1.266-0.029 1.908-0.461 1.908-1.285l-0.001-11.585c0.004-0.020 0.012-0.038 0.012-0.059v-0.542l0.045-0.033c0.787-0.579 1.602-1.178 1.602-2.378v-1.989c0-2.395-1.319-3.714-3.714-3.714zM9.973 28.191c0 0.446-0.43 0.661-1.349 0.673-0.261-0.012-0.468-0.227-0.468-0.491l-0.001-8.53c-0.019-0.233-0.224-0.674-0.861-0.674-0.6 0-0.844 0.406-0.862 0.699v8.505c0 0.421-0.096 0.492-0.383 0.492h-0.109c-0.879 0-1.325-0.218-1.325-0.649l-0-11.382c0.457 0.216 1.265 0.43 2.679 0.43 1.414 0 2.223-0.214 2.679-0.431l0 11.358zM11.632 13.594c0 0.834-0.527 1.273-1.215 1.782v-3.926c0-0.127-0.103-0.23-0.23-0.23s-0.23 0.103-0.23 0.23l0 4.866c-0.288 0.183-1.016 0.488-2.664 0.488-1.656 0-2.383-0.309-2.669-0.491l0-4.863c0-0.127-0.103-0.23-0.23-0.23s-0.23 0.103-0.23 0.23v3.924c-0.686-0.508-1.21-0.946-1.21-1.779v-1.989c0-2.057 1.043-3.101 3.1-3.101h2.477c2.057 0 3.1 1.043 3.1 3.101v1.989zM7.293 7.326c1.324 0 2.402-1.078 2.402-2.402 0-1.324-1.078-2.402-2.402-2.402s-2.402 1.078-2.402 2.402c0 1.325 1.078 2.402 2.402 2.402zM7.293 3.135c0.987 0 1.789 0.802 1.789 1.789 0 0.987-0.802 1.79-1.789 1.79-0.986 0-1.789-0.802-1.789-1.79 0-0.986 0.803-1.789 1.789-1.789zM24.997 7.326c1.324 0 2.402-1.078 2.402-2.402s-1.078-2.402-2.402-2.402-2.401 1.077-2.401 2.402 1.077 2.402 2.401 2.402zM24.997 3.135c0.987 0 1.789 0.802 1.789 1.789s-0.802 1.789-1.789 1.789c-0.986 0-1.788-0.802-1.788-1.789s0.802-1.788 1.788-1.788zM29.658 13.303v-1.698c0-1.795-1.052-3.714-4.004-3.714h-1.315c-2.952 0-4.004 1.918-4.004 3.714v1.698c0 1.239 0.717 1.926 1.482 2.505l-0.845 5.918c-0.018 0.126 0.044 0.25 0.156 0.311 0.026 0.015 0.36 0.194 1.018 0.367l0.239 5.75c0 0.794 0.218 1.323 1.281 1.323h0.087c1.018 0 1.018-1.050 1.018-1.395l0.001-5.35c0.075 0.001 0.148 0.003 0.227 0.003 0.096 0 0.186-0.002 0.278-0.004v5.351c0 0.982 0.454 1.288 0.845 1.369 0.038 0.016 0.080 0.026 0.123 0.026h0.136c0.013 0 0.026-0.001 0.039-0.002 0.455-0.018 1.185-0.152 1.192-1.235l0.241-5.832c0.675-0.174 1.024-0.355 1.051-0.369 0.114-0.061 0.178-0.187 0.159-0.315l-0.876-5.906 0.097-0.087c0.724-0.562 1.377-1.24 1.377-2.429zM24.158 28.083c0 0.782-0.224 0.782-0.405 0.782h-0.087c-0.58 0-0.668-0.093-0.668-0.722l-0.234-5.6c0.391 0.073 0.854 0.135 1.393 0.167v5.373zM26.998 28.226c-0.004 0.571-0.23 0.633-0.663 0.638-0.17-0.005-0.446-0.066-0.446-0.781v-5.375c0.516-0.034 0.962-0.093 1.344-0.164l-0.234 5.682zM28.42 21.585c-0.425 0.171-1.556 0.538-3.422 0.538-1.852 0-2.968-0.367-3.386-0.537l0.955-6.694c0.404 0.202 1.116 0.394 2.431 0.394 1.303 0 2.025-0.135 2.446-0.302l0.975 6.601zM28.082 15.102l-0.059-0.404 0.099-3.533c0.004-0.127-0.096-0.233-0.223-0.236-0.126 0.003-0.233 0.097-0.236 0.223l-0.090 3.234c-0.118 0.104-0.337 0.211-0.727 0.294-0.403 0.086-0.99 0.146-1.846 0.146-1.067 0-1.685-0.127-2.053-0.271-0.269-0.105-0.405-0.216-0.48-0.294l-0.136-3.111c-0.006-0.127-0.108-0.23-0.24-0.22-0.126 0.006-0.225 0.113-0.22 0.239l0.144 3.3 0.002 0.035c0 0.010 0.005 0.019 0.006 0.029-0.002-0.010-0.006-0.019-0.006-0.029l-0.002-0.036c-0.002 0.007-0.007 0.014-0.008 0.022l-0.087 0.613c-0.641-0.53-0.969-1.014-0.969-1.801v-1.698c0-1.942 1.268-3.101 3.391-3.101h1.315c2.123 0 3.391 1.159 3.391 3.101v1.698c-0.001 0.782-0.339 1.276-0.965 1.799zM16.3 4.221c-0.17 0-0.306 0.137-0.306 0.306v22.805c0 0.17 0.137 0.306 0.306 0.306 0.17 0 0.306-0.137 0.306-0.306v-22.805c0-0.17-0.137-0.306-0.306-0.306z" fill="#000000" />
</svg>
