<?xml version="1.0" encoding="utf-8"?>
<!-- Generated by IcoMoon.io -->
<!DOCTYPE svg PUBLIC "-//W3C//DTD SVG 1.1//EN" "http://www.w3.org/Graphics/SVG/1.1/DTD/svg11.dtd">
<svg version="1.1" xmlns="http://www.w3.org/2000/svg" xmlns:xlink="http://www.w3.org/1999/xlink" width="32" height="32" viewBox="0 0 32 32">
<g>
</g>
	<path d="M18.446 6.142c0-0.059-0.003-0.119-0.009-0.177 0.189-0.114 0.304-0.269 0.304-0.474v-1.738c0-0.648-1.141-0.784-2.098-0.784-0.957 0-2.098 0.136-2.098 0.784v1.738c0 0.206 0.116 0.36 0.304 0.474-0.006 0.058-0.009 0.118-0.009 0.177v1.118c-1.953 0.745-3.4 2.94-3.4 5.212v1.155c0 0.038 0.007 0.074 0.020 0.109l0.252 0.662v8.865l-0.242 0.499c-0.020 0.041-0.031 0.087-0.031 0.134 0 4.326 1.258 5.145 3.749 5.2 0.262 0 0.545-0.145 0.845-0.298 0.212-0.109 0.475-0.244 0.608-0.244 0.118 0 0.379 0.139 0.569 0.241 0.29 0.156 0.565 0.302 0.819 0.302 0.002 0 0.010 0 0.012 0 2.522-0.045 3.802-0.862 3.802-5.201 0-0.048-0.011-0.096-0.034-0.139l-0.254-0.497 0.016-8.862 0.253-0.674c0.013-0.034 0.019-0.070 0.019-0.108v-1.143c0-2.271-1.447-4.467-3.4-5.211l0-1.118zM16.644 3.581c0.96 0 1.377 0.152 1.485 0.227v1.626c-0.108 0.075-0.524 0.227-1.485 0.227s-1.376-0.152-1.485-0.227v-1.626c0.108-0.075 0.525-0.227 1.485-0.227zM18.032 28.789v-0.306c-0.101 0-0.349-0.132-0.53-0.229-0.288-0.154-0.587-0.314-0.858-0.314-0.281 0-0.589 0.158-0.888 0.311-0.201 0.103-0.451 0.231-0.568 0.231-1.94-0.043-3.122-0.369-3.135-4.517l0.242-0.499c0.020-0.041 0.031-0.087 0.031-0.134l-0-8.991c0-0.038-0.007-0.074-0.020-0.109l-0.252-0.662v-1.098c0-2.099 1.371-4.12 3.189-4.703 0.13-0.042 0.215-0.19 0.211-0.326v-1.265c0.366 0.073 0.793 0.098 1.19 0.098 0.397 0 0.824-0.024 1.19-0.098v1.3c0 0.133 0.086 0.251 0.213 0.292 1.817 0.583 3.187 2.604 3.187 4.702v1.088l-0.253 0.674c-0.013 0.034-0.019 0.070-0.019 0.107l-0.016 8.991c0 0.049 0.011 0.097 0.034 0.14l0.254 0.497c-0.014 4.156-1.221 4.479-3.2 4.515l-0 0.305zM15.634 4.227c0.232 0.026 0.476 0.043 0.725 0.051 0.088 0.002 0.175 0.004 0.262 0.004 0.379 0 0.735-0.024 1.041-0.070 0.084-0.013 0.141-0.091 0.128-0.174-0.013-0.083-0.092-0.141-0.174-0.128-0.357 0.054-0.789 0.076-1.247 0.063-0.239-0.007-0.475-0.024-0.698-0.049-0.084-0.008-0.16 0.051-0.17 0.135s0.050 0.16 0.134 0.17zM15.447 14.824c0.373 0.011 0.775 0.019 1.197 0.019 1.585 0 2.847-0.101 3.458-0.161 0.126-0.012 0.218-0.125 0.206-0.251-0.012-0.126-0.125-0.219-0.251-0.206-0.603 0.059-1.848 0.159-3.414 0.159-0.417 0-0.814-0.007-1.182-0.019-0.13 0.005-0.233 0.096-0.237 0.223-0.005 0.126 0.095 0.233 0.222 0.237zM13.157 14.684c0.202 0.019 0.502 0.045 0.878 0.070 0.006 0 0.011 0.001 0.016 0.001 0.12 0 0.221-0.093 0.229-0.214 0.009-0.126-0.087-0.236-0.214-0.245-0.37-0.026-0.666-0.050-0.865-0.070-0.126-0.010-0.239 0.081-0.251 0.207-0.013 0.127 0.080 0.239 0.207 0.251zM20.308 23.23c-0.012-0.126-0.12-0.218-0.251-0.206-0.481 0.048-1.778 0.159-3.413 0.159-0.417 0-0.814-0.007-1.182-0.019-0.129 0.002-0.234 0.096-0.237 0.223-0.004 0.127 0.096 0.233 0.223 0.237 0.373 0.011 0.774 0.019 1.197 0.019 1.655 0 2.97-0.113 3.458-0.161 0.126-0.013 0.218-0.125 0.206-0.252zM14.065 23.095c-0.37-0.025-0.666-0.050-0.865-0.070-0.126-0.011-0.239 0.081-0.251 0.207s0.081 0.238 0.207 0.251c0.202 0.019 0.502 0.045 0.878 0.070 0.006 0.001 0.011 0.001 0.016 0.001 0.12 0 0.221-0.093 0.229-0.214 0.009-0.127-0.087-0.237-0.214-0.245z" fill="#000000" />
</svg>
