<?xml version="1.0" encoding="utf-8"?>
<!-- Generated by IcoMoon.io -->
<!DOCTYPE svg PUBLIC "-//W3C//DTD SVG 1.1//EN" "http://www.w3.org/Graphics/SVG/1.1/DTD/svg11.dtd">
<svg version="1.1" xmlns="http://www.w3.org/2000/svg" xmlns:xlink="http://www.w3.org/1999/xlink" width="32" height="32" viewBox="0 0 32 32">
<g>
</g>
	<path d="M28.372 24.242l-2.387-2.978c-0.030-0.328-0.19-0.617-0.426-0.822 0.262-0.227 0.432-0.559 0.432-0.932l-0-10.436c0-0.684-0.557-1.241-1.241-1.241l-16.75-0c-0.684 0-1.241 0.557-1.241 1.241v10.436c0 0.373 0.169 0.705 0.431 0.932-0.234 0.203-0.394 0.49-0.425 0.815l-2.576 2.976c-0.048 0.056-0.075 0.127-0.075 0.2 0 0.823 0.314 1.241 0.934 1.241h22.458c0.62 0 0.934-0.418 0.934-1.241 0-0.069-0.024-0.137-0.068-0.191zM7.371 9.074c0-0.346 0.282-0.628 0.628-0.628h16.75c0.346 0 0.628 0.282 0.628 0.628v10.436c0 0.346-0.282 0.627-0.628 0.627l-16.75-0c-0.346 0-0.628-0.281-0.628-0.627v-10.436zM27.505 25.062h-22.458c-0.134 0-0.299 0-0.319-0.516l2.568-2.967c0.048-0.056 0.075-0.127 0.075-0.2 0-0.347 0.282-0.628 0.628-0.628h16.75c0.346 0 0.628 0.281 0.628 0.628 0 0.070 0.023 0.137 0.067 0.192l2.38 2.97c-0.019 0.522-0.185 0.522-0.32 0.522zM7.463 22.705h17.776c0.084 0 0.153-0.069 0.153-0.153 0-0.085-0.069-0.153-0.153-0.153h-17.776c-0.085 0-0.153 0.068-0.153 0.153 0 0.085 0.069 0.153 0.153 0.153zM8.824 19.548h15.105c0.422 0 0.765-0.367 0.765-0.818v-8.757c0-0.451-0.343-0.818-0.765-0.818l-7.077 0c0.002-0.021 0.006-0.041 0.006-0.063 0-0.267-0.215-0.482-0.482-0.482-0.267 0-0.482 0.216-0.482 0.482 0 0.022 0.004 0.042 0.006 0.063h-7.076c-0.422 0-0.765 0.367-0.765 0.818v8.757c-0.001 0.451 0.343 0.818 0.765 0.818zM8.519 9.973c0-0.198 0.137-0.359 0.305-0.359h15.105c0.168 0 0.305 0.161 0.305 0.359v8.757c0 0.198-0.137 0.359-0.305 0.359l-15.104-0c-0.168 0-0.305-0.161-0.305-0.359v-8.757zM8.011 21.67h16.76c0.084 0 0.153-0.069 0.153-0.153 0-0.085-0.069-0.153-0.153-0.153l-16.76 0c-0.085 0-0.153 0.068-0.153 0.153 0 0.085 0.069 0.153 0.153 0.153zM6.411 23.586c0 0.084 0.069 0.153 0.153 0.153h19.268c0.084 0 0.153-0.069 0.153-0.153 0-0.085-0.069-0.153-0.153-0.153l-19.268 0c-0.085 0-0.153 0.068-0.153 0.153zM16.411 18.401c0.589 0 1.086-0.498 1.086-1.087s-0.498-1.087-1.086-1.087c-0.589 0-1.086 0.498-1.086 1.087s0.497 1.087 1.086 1.087zM16.411 16.627c0.372 0 0.686 0.314 0.686 0.686s-0.314 0.686-0.686 0.686c-0.372 0-0.686-0.314-0.686-0.686s0.314-0.686 0.686-0.686zM15.722 15.815c0.012 0.101 0.097 0.176 0.199 0.176h0.98c0.102 0 0.187-0.076 0.199-0.177l0.241-2.026v-3.004c0-0.11-0.090-0.2-0.2-0.2h-1.461c-0.11 0-0.2 0.090-0.2 0.2l0.002 3.028 0.24 2.003zM15.88 10.984h1.060l0.002 2.78-0.218 1.826h-0.626l-0.218-1.802-0-2.804z" fill="#000000" />
</svg>
