<?xml version="1.0" encoding="utf-8"?>
<!-- Generated by IcoMoon.io -->
<!DOCTYPE svg PUBLIC "-//W3C//DTD SVG 1.1//EN" "http://www.w3.org/Graphics/SVG/1.1/DTD/svg11.dtd">
<svg version="1.1" xmlns="http://www.w3.org/2000/svg" xmlns:xlink="http://www.w3.org/1999/xlink" width="32" height="32" viewBox="0 0 32 32">
<g>
</g>
	<path d="M16.816 18.545c-0.385 0-0.71 0.33-0.71 0.722 0 0.385 0.325 0.71 0.71 0.71s0.71-0.325 0.71-0.71c0-0.391-0.325-0.722-0.71-0.722zM17.15 16.936l0.268-1.502-0-3.324h-1.203v3.324l0.268 1.501h0.667zM24.748 21.727h-15.865l7.932-13.739 7.932 13.739zM15.831 11.919c0-0.106 0.086-0.192 0.192-0.192h1.586c0.106 0 0.192 0.086 0.192 0.192v3.532c0 0.011-0.001 0.023-0.003 0.034l-0.3 1.676c-0.016 0.091-0.096 0.158-0.189 0.158h-0.987c-0.093 0-0.172-0.067-0.189-0.158l-0.299-1.676c-0.002-0.011-0.003-0.022-0.003-0.034v-3.532zM16.816 20.359c-0.603 0-1.093-0.49-1.093-1.093 0-0.599 0.501-1.105 1.093-1.105s1.093 0.506 1.093 1.105c0 0.602-0.49 1.093-1.093 1.093zM8.353 22.34h16.926c0.002-0.001 0.004-0 0.006 0 0.17 0 0.306-0.137 0.306-0.306 0-0.077-0.028-0.146-0.074-0.2l-8.437-14.612c-0.11-0.19-0.422-0.19-0.531 0l-8.463 14.658c-0.055 0.095-0.055 0.211 0 0.306 0.054 0.095 0.156 0.154 0.265 0.154z" fill="#000000" />
</svg>
