<?xml version="1.0" encoding="utf-8"?>
<!-- Generated by IcoMoon.io -->
<!DOCTYPE svg PUBLIC "-//W3C//DTD SVG 1.1//EN" "http://www.w3.org/Graphics/SVG/1.1/DTD/svg11.dtd">
<svg version="1.1" xmlns="http://www.w3.org/2000/svg" xmlns:xlink="http://www.w3.org/1999/xlink" width="32" height="32" viewBox="0 0 32 32">
<g>
</g>
	<path d="M4.915 8.744v14.512h22.171l-0-14.512h-22.171zM26.080 9.204c-2.372 1.791-5.553 4.104-7.769 5.529-0.138 0.090-0.272 0.174-0.402 0.255-0.52 0.326-0.906 0.549-1.19 0.698-0.415 0.187-0.634 0.242-0.747 0.242-0.091 0-0.294-0.044-0.742-0.249-0.269-0.144-0.629-0.352-1.112-0.654l-0.048-0.030c-0.116-0.073-0.236-0.147-0.358-0.226-2.218-1.421-5.454-3.756-7.875-5.566h20.245zM5.374 9.242c2.43 1.823 5.8 4.264 8.11 5.747-2.373 1.983-5.805 5.224-8.11 7.483v-13.23zM26.092 22.709h-20.256c-0.079 0-0.156-0.012-0.229-0.035 2.303-2.256 5.723-5.486 8.082-7.457 0.64 0.365 1.096 0.6 1.43 0.752 0.528 0.278 0.738 0.324 0.851 0.324 0.122 0 0.345-0.047 0.898-0.338 0.386-0.175 0.872-0.43 1.469-0.772 2.365 1.97 5.807 5.195 8.118 7.437-0.107 0.059-0.233 0.091-0.362 0.091zM26.626 22.358c-2.313-2.242-5.73-5.442-8.089-7.407 2.323-1.498 5.667-3.94 8.051-5.747h0.038v13.153z" fill="#000000" />
</svg>
