<?xml version="1.0" encoding="utf-8"?>
<!-- Generated by IcoMoon.io -->
<!DOCTYPE svg PUBLIC "-//W3C//DTD SVG 1.1//EN" "http://www.w3.org/Graphics/SVG/1.1/DTD/svg11.dtd">
<svg version="1.1" xmlns="http://www.w3.org/2000/svg" xmlns:xlink="http://www.w3.org/1999/xlink" width="32" height="32" viewBox="0 0 32 32">
<g>
</g>
	<path d="M28.222 6.194c-0.471-0.624-1.687-0.614-3.513 0.029-2.387 0.841-2.612 1.625-2.81 2.318-0.031 0.108-0.062 0.212-0.099 0.314l-0.641-0.698c-0.222-0.242-0.648-0.419-0.983-0.398l-3.909 0.227c-0.313 0.018-0.724 0.192-0.956 0.404l-10.367 9.505c-0.303 0.279-0.324 0.753-0.045 1.057l7.058 7.697c0.125 0.137 0.296 0.222 0.481 0.239 0.211 0.020 0.421-0.050 0.576-0.193l10.367-9.506c0.234-0.214 0.438-0.612 0.475-0.926l0.478-3.991c0.039-0.33-0.1-0.762-0.325-1.007l-0.14-0.153c1.358-0.402 2.841-1.1 3.694-2.306 0.843-1.194 1.064-2.073 0.658-2.611zM23.249 16.189c-0.020 0.167-0.157 0.433-0.28 0.546l-10.368 9.506c-0.038 0.034-0.081 0.036-0.104 0.034-0.024-0.002-0.058-0.011-0.086-0.042l-7.059-7.697c-0.049-0.054-0.045-0.141 0.008-0.191l10.366-9.506c0.126-0.116 0.406-0.234 0.577-0.244l3.909-0.227c0.018-0.001 0.038-0 0.057 0.001 0.154 0.014 0.351 0.104 0.439 0.2l2.13 2.323c-0.39 0.085-0.75 0.147-1.054 0.192-0.15-0.423-0.574-0.719-1.052-0.671-0.554 0.057-0.958 0.553-0.902 1.107 0.049 0.478 0.431 0.856 0.909 0.901 0.065 0.006 0.131 0.006 0.198-0.001 0.268-0.027 0.51-0.158 0.68-0.366 0.121-0.148 0.193-0.324 0.216-0.509 0.385-0.054 0.856-0.135 1.368-0.258l0.358 0.39c0.104 0.114 0.185 0.366 0.167 0.52l-0.478 3.991zM20.813 11.646c0.011 0.001 0.022 0.001 0.033 0.001 0.036-0.002 0.219-0.012 0.504-0.042-0.021 0.057-0.049 0.111-0.088 0.159-0.093 0.114-0.223 0.185-0.37 0.2-0.308 0.031-0.572-0.196-0.603-0.491-0.031-0.301 0.19-0.572 0.491-0.602 0.036-0.004 0.073-0.004 0.109-0.001 0.181 0.017 0.335 0.123 0.422 0.274-0.296 0.033-0.478 0.043-0.486 0.043-0.127 0.006-0.224 0.114-0.218 0.241 0.005 0.116 0.095 0.207 0.207 0.218zM27.189 8.539c-0.82 1.16-2.329 1.817-3.672 2.186l-1.377-1.502c0.095-0.19 0.15-0.376 0.202-0.557 0.175-0.614 0.358-1.249 2.521-2.011 1.55-0.546 2.668-0.614 2.993-0.185 0.261 0.346 0.018 1.099-0.667 2.068z" fill="#000000" />
</svg>
