<?xml version="1.0" encoding="utf-8"?>
<!-- Generated by IcoMoon.io -->
<!DOCTYPE svg PUBLIC "-//W3C//DTD SVG 1.1//EN" "http://www.w3.org/Graphics/SVG/1.1/DTD/svg11.dtd">
<svg version="1.1" xmlns="http://www.w3.org/2000/svg" xmlns:xlink="http://www.w3.org/1999/xlink" width="32" height="32" viewBox="0 0 32 32">
<g>
</g>
	<path d="M24.542 6.268h-17.085c-0.656 0-1.189 0.533-1.189 1.189v17.085c0 0.656 0.533 1.19 1.189 1.19h17.085c0.656 0 1.19-0.533 1.19-1.19v-10.94c0-0.001 0-0.001 0-0.002s0-0.001 0-0.002v-6.142c0-0.656-0.533-1.189-1.19-1.189zM22.974 6.881h1.568c0.318 0 0.577 0.259 0.577 0.576v0.852c-0.106 0-0.203 0.070-0.225 0.179l-0.111 0.537h-1.808v-2.144zM25.119 9.675v2.761h-0.568l0.568-2.761zM22.974 9.332h1.745l-0.639 3.104h-1.106l-0-3.104zM24.018 12.743l-0.161 0.783-0.32 0.127c-0.046 0.019-0.087 0.048-0.12 0.086l-0.441 0.516v-1.511h1.042zM23.032 15.131l0.651-0.762-0.133 0.646-0.589 0.634-0.494-0.235c-0.098-0.046-0.214-0.019-0.28 0.067l-0.838 1.083-0.064-0.339c0.023-0.018 0.045-0.038 0.062-0.063l0.664-1.921 0.746 0.992c0.104 0.015 0.207-0.025 0.274-0.104zM22.669 14.597l-0.678-1.005c-0.113-0.016-0.223 0.032-0.289 0.123l-0.595 1.575-0.483-2.547h2.046l0 1.854zM20.156 12.743l0.531 2.8-0.366-0.107-0.85-0.2c-0.060-0.014-0.121-0.009-0.176 0.011l0.359-2.503h0.502zM19.698 12.436l0.172-1.199 0.227 1.199h-0.399zM16.153 6.881h6.515v2.144h-6.515v-2.144zM16.153 9.332h6.515v3.104h-2.102l-0.502-2.641c-0.021-0.111-0.123-0.187-0.231-0.187-0.112 0.003-0.206 0.086-0.222 0.198l-0.377 2.631-3.080 0v-3.105zM17.127 17.973l0.685-1.747 0.549 0.732c0.061 0.047 0.138 0.068 0.214 0.060l-0.066 0.461-0.377-0.357c-0.057-0.054-0.137-0.075-0.214-0.056-0.077 0.019-0.138 0.076-0.162 0.151l-0.47 1.421-0.231-0.568c0.029-0.026 0.054-0.058 0.073-0.097zM16.75 17.323l-0.478-1.169h0.94l-0.462 1.169zM18.487 16.278l-0.599-0.771c-0.073-0.057-0.169-0.078-0.259-0.056-0.090 0.022-0.166 0.083-0.206 0.166l-0.091 0.229h-1.179l-0-3.105h3.035l-0.459 3.197-0.243 0.339zM16.078 16.898l0.121 0.296-0.067-0.032c-0.040-0.019-0.081-0.025-0.122-0.026l0.069-0.238zM9.332 6.881h6.515v2.144h-6.515v-2.144zM9.332 9.332h6.515v3.104l-6.515 0v-3.104zM9.332 12.743h6.515v3.104h-5.449l-0.118-0.757c-0.018-0.114-0.106-0.203-0.23-0.195-0.115 0.002-0.21 0.088-0.224 0.202l-0.094 0.751h-0.399v-3.104zM15.087 17.837l-0.677-0.258c-0.137-0.052-0.293 0-0.37 0.125l-0.723 1.172-0.62-0.204c-0.109-0.036-0.229-0.007-0.312 0.073l-0.735 0.727-0.626-0.12-0.118-0.218-0.462-2.982h5.369l-0.403 1.397-0.325 0.287zM15.139 18.495l-0.168 0.583-0.39-0.209c-0.063-0.034-0.139-0.037-0.205-0.007s-0.113 0.089-0.129 0.16l-0.76 3.448-0.639-2.385c-0.022-0.083-0.088-0.146-0.172-0.165-0.083-0.019-0.17 0.010-0.226 0.075l-0.597 0.703-0.726-0.137-0.090-0.58 0.654 0.125c0.1 0.019 0.202-0.012 0.274-0.083l0.717-0.708 0.672 0.221c0.134 0.044 0.282-0.010 0.357-0.13l0.717-1.162 0.613 0.234c0.031 0.012 0.064 0.017 0.098 0.018zM10.254 17.917l-0.025-0.046c-0.083-0.058-0.189-0.069-0.282-0.034l0.131-1.053 0.176 1.133zM9.693 16.154l-0.32 2.558-0.041 0.066v-2.624h0.36zM6.882 19.257v-3.103h2.144v3.093c-0.004 0.003-0.007 0.007-0.012 0.010h-2.132zM8.774 19.563l-0.618 0.878-0.708 0.262h-0.566v-1.14h1.893zM6.881 7.458c0-0.318 0.259-0.576 0.576-0.576h1.568v2.144h-2.144v-1.568zM6.881 9.332h2.144v3.104l-2.144 0v-3.104zM6.881 12.743h2.144v3.104h-2.144v-3.104zM6.881 21.317h0.62c0.036 0 0.072-0.006 0.106-0.019l0.85-0.314c0.058-0.021 0.109-0.060 0.144-0.111l0.61-0.866-0.084 0.671-0.503 0.803-1.169 0.358c-0.064 0.020-0.116 0.066-0.143 0.128l-0.432 0.992 0-1.643zM24.542 25.119h-17.085c-0.317 0-0.576-0.259-0.576-0.577v-0.479c0.021-0.020 0.040-0.043 0.053-0.072l0.759-1.742 1.15-0.353c0.053-0.016 0.098-0.051 0.127-0.098l0.575-0.92c0.018-0.029 0.029-0.060 0.033-0.094l0.234-1.868 0.217-0.437 0.456 0.926 0.214 1.385c0.015 0.096 0.089 0.172 0.185 0.191l1.016 0.192c0.080 0.016 0.165-0.014 0.218-0.077l0.4-0.47 0.769 2.872c0.027 0.102 0.123 0.165 0.227 0.17 0.106-0.002 0.197-0.077 0.219-0.18l0.898-4.070 0.372 0.2c0.061 0.033 0.134 0.037 0.198 0.010s0.113-0.082 0.132-0.148l0.403-1.398 0.314-0.278 0.492 0.233 0.552 1.352c0.036 0.089 0.125 0.144 0.221 0.143 0.096-0.003 0.18-0.066 0.211-0.158l0.552-1.669 0.438 0.414c0.062 0.059 0.153 0.078 0.234 0.050 0.081-0.028 0.139-0.099 0.152-0.185l0.221-1.54 0.406-0.564 0.634 0.149 0.652 0.191 0.177 0.934c0.018 0.089 0.085 0.159 0.173 0.181 0.087 0.021 0.18-0.012 0.236-0.083l1.037-1.342 0.479 0.227c0.090 0.043 0.198 0.022 0.267-0.051l0.747-0.805c0.028-0.031 0.048-0.069 0.057-0.11l0.232-1.13 0.337-0.134h0.562v10.635h0.001c-0 0.319-0.259 0.577-0.577 0.577zM25.12 13.294h-0.621c-0.039 0-0.077 0.007-0.113 0.021l-0.018 0.007 0.12-0.58h0.632v0.552z" fill="#000000" />
</svg>
