<?xml version="1.0" encoding="utf-8"?>
<!-- Generated by IcoMoon.io -->
<!DOCTYPE svg PUBLIC "-//W3C//DTD SVG 1.1//EN" "http://www.w3.org/Graphics/SVG/1.1/DTD/svg11.dtd">
<svg version="1.1" xmlns="http://www.w3.org/2000/svg" xmlns:xlink="http://www.w3.org/1999/xlink" width="32" height="32" viewBox="0 0 32 32">
<g>
</g>
	<path d="M19.299 9.542c2.079 0 3.771-1.692 3.771-3.772 0-2.079-1.692-3.77-3.771-3.77-2.080 0-3.771 1.692-3.771 3.77 0 2.080 1.692 3.772 3.771 3.772zM19.299 2.543c1.78 0 3.227 1.448 3.227 3.227 0 1.781-1.448 3.229-3.227 3.229-1.781 0-3.228-1.448-3.228-3.229 0-1.779 1.448-3.227 3.228-3.227zM21.367 10.274h-4.137c-2.346 0-4.044 0.792-5.015 2.28l0.072 0.056-0.072-0.056-0.999-0.773c-0.116-0.090-0.283-0.070-0.375 0.046l-3.378 4.279-1.793 1.26c-0.043 0.030-0.073 0.077-0.082 0.129-0.009 0.052 0.004 0.107 0.034 0.149l0.306 0.425-1.2 1.525c-0.044 0.056-0.064 0.128-0.055 0.199 0.008 0.071 0.045 0.135 0.102 0.179l5.657 4.361 4.016 5.584c0.035 0.048 0.086 0.076 0.141 0.082 0.046 0.005 0.094-0.006 0.135-0.035l1.551-1.090 0.633 0.491c0.041 0.032 0.088 0.049 0.136 0.054 0.089 0.009 0.179-0.026 0.238-0.101l2.049-2.593 3.675-2.582c0.043-0.030 0.073-0.077 0.082-0.129 0.009-0.053-0.003-0.107-0.034-0.15l-0.706-0.982 1.048-1.332c0.044-0.056 0.064-0.127 0.055-0.198-0.008-0.071-0.045-0.135-0.102-0.179l-5.058-3.933-4.062-5.649c-0.032-0.043-0.078-0.070-0.126-0.079 0.775-0.434 1.794-0.696 3.129-0.696h4.137c4.478 0 5.418 2.946 5.418 5.419v3.32c0 1.608-1.090 2.41-2.354 3.339l0-7.191c0-0.132-0.107-0.238-0.238-0.238-0.132 0-0.238 0.106-0.238 0.238v8.953c-0.305 0.239-1.094 0.674-2.896 0.854l-0.859 0.603c3.087-0.138 4.070-0.962 4.308-1.231 0.044-0.050 0.068-0.114 0.068-0.18v-1.24l0.174-0.128c1.325-0.974 2.577-1.894 2.577-3.778l-0-3.32c0-3.845-2.118-5.962-5.962-5.962zM13.953 11.546c0.016-0.011 0.034-0.017 0.052-0.023-0.018 0.006-0.037 0.011-0.052 0.023v0zM11.098 12.367l0.802 0.621-2.888 2.030 2.086-2.651zM5.318 19.713l0.936-1.191 3.108 4.322-4.045-3.131zM17.025 28.778l-0.291-0.227 1.051-0.738-0.76 0.965zM22.806 21.432l-0.785 0.998-2.605-3.623 3.39 2.625zM18.298 17.934l0.004 0.011 0.010 0.008 4.301 5.981-7.957 5.592-4.18-5.814-0.002-0.007-0.007-0.006-4.404-6.124 7.957-5.591 4.279 5.95zM11.811 17.928l-1.446 1.016c-0.043 0.031-0.073 0.077-0.082 0.129-0.009 0.052 0.003 0.106 0.034 0.149l2.827 3.933c0.063 0.089 0.187 0.11 0.276 0.047l0.126-0.089 0.724-0.509 0.343 0.478 0.872 1.213c0.034 0.048 0.086 0.076 0.14 0.082 0.046 0.006 0.094-0.006 0.135-0.035l2.637-1.854c0.043-0.031 0.072-0.077 0.082-0.129 0.009-0.052-0.004-0.107-0.035-0.15l-4.157-5.782c-0.037-0.051-0.092-0.076-0.149-0.080-0.043-0.002-0.088 0.006-0.126 0.033l-2.201 1.547zM14.139 16.901l3.867 5.378-2.311 1.625-1.215-1.69c-0.034-0.048-0.086-0.077-0.141-0.082-0.046-0.005-0.094 0.006-0.135 0.035l-0.851 0.598-2.595-3.61 3.322-2.334 0.058 0.082zM19.541 24.026c0.017 0.024 0.042 0.038 0.070 0.041 0.023 0.002 0.048-0.004 0.068-0.019 0.045-0.031 0.055-0.093 0.022-0.138l-0.948-1.319c-0.031-0.045-0.094-0.055-0.139-0.023-0.044 0.032-0.054 0.094-0.022 0.138l0.949 1.32zM18.883 22.158c0.023 0.003 0.046-0.003 0.068-0.018l0.827-0.581c0.044-0.032 0.056-0.094 0.024-0.138-0.032-0.044-0.094-0.056-0.138-0.024l-0.827 0.581c-0.045 0.032-0.056 0.094-0.024 0.138 0.017 0.024 0.043 0.039 0.070 0.042zM13.016 14.782c-0.045 0.033-0.055 0.094-0.023 0.138l0.95 1.32c0.018 0.024 0.043 0.038 0.070 0.040 0.023 0.002 0.048-0.003 0.069-0.018 0.045-0.032 0.055-0.094 0.022-0.138l-0.95-1.32c-0.032-0.045-0.094-0.055-0.138-0.023zM10.353 18.762l-0.95-1.321c-0.032-0.044-0.094-0.054-0.138-0.022-0.044 0.032-0.054 0.094-0.023 0.138l0.95 1.321c0.017 0.024 0.042 0.038 0.070 0.041 0.023 0.002 0.048-0.004 0.068-0.019 0.045-0.031 0.055-0.094 0.022-0.139zM14.614 16.259c0.010 0.005 0.021 0.009 0.032 0.010 0.023 0.003 0.047-0.003 0.068-0.018l0.827-0.582c0.045-0.031 0.056-0.093 0.024-0.138-0.032-0.045-0.094-0.055-0.138-0.024l-0.827 0.582c-0.045 0.032-0.056 0.094-0.024 0.138 0.010 0.015 0.024 0.024 0.038 0.031zM16.459 25.355l-0.55-0.765c-0.032-0.044-0.094-0.054-0.139-0.023-0.045 0.032-0.055 0.095-0.023 0.139l0.949 1.32c0.018 0.024 0.042 0.038 0.070 0.040 0.023 0.002 0.048-0.003 0.068-0.018 0.025-0.018 0.036-0.045 0.038-0.074 0.001-0.022-0.002-0.045-0.016-0.065l-0.398-0.554zM15.275 24.482l-0.828 0.581c-0.033 0.023-0.040 0.060-0.034 0.097 0.002 0.014 0 0.029 0.009 0.042 0.018 0.024 0.044 0.039 0.071 0.041 0.012 0.001 0.023-0.006 0.034-0.009 0.011-0.003 0.023-0.001 0.034-0.009l0.827-0.581c0.045-0.031 0.056-0.093 0.024-0.138-0.030-0.045-0.092-0.056-0.137-0.024zM12.861 23.232l-0.828 0.581c-0.045 0.032-0.056 0.094-0.024 0.138 0.017 0.025 0.043 0.039 0.071 0.041 0.023 0.003 0.047-0.003 0.067-0.018l0.828-0.581c0.045-0.031 0.056-0.093 0.024-0.138-0.031-0.044-0.093-0.056-0.138-0.024zM10.031 19.298l-0.826 0.582c-0.045 0.031-0.056 0.094-0.024 0.139 0.018 0.024 0.043 0.038 0.070 0.041 0.023 0.003 0.047-0.002 0.068-0.017l0.827-0.582c0.044-0.031 0.055-0.094 0.024-0.138-0.032-0.044-0.093-0.055-0.139-0.024z" fill="#000000" />
</svg>
