<?xml version="1.0" encoding="utf-8"?>
<!-- Generated by IcoMoon.io -->
<!DOCTYPE svg PUBLIC "-//W3C//DTD SVG 1.1//EN" "http://www.w3.org/Graphics/SVG/1.1/DTD/svg11.dtd">
<svg version="1.1" xmlns="http://www.w3.org/2000/svg" xmlns:xlink="http://www.w3.org/1999/xlink" width="32" height="32" viewBox="0 0 32 32">
<g>
</g>
	<path d="M25.487 11.669c-0.898-2.934-3.635-4.969-6.719-4.969-3.093 0-5.807 2.016-6.714 4.941-0.504-0.18-1.030-0.271-1.569-0.271-2.187 0-4.068 1.504-4.564 3.612-1.954 0.072-3.6 1.429-4.036 3.351-0.019 0.086 0.002 0.177 0.058 0.247 0.055 0.070 0.138 0.11 0.227 0.11h10.064c-0.045 0.313-0.070 0.631-0.070 0.955 0 3.665 2.982 6.647 6.647 6.647 3.665 0 6.647-2.982 6.647-6.647 0-0.325-0.025-0.643-0.070-0.956h4.377c0.142 0 0.263-0.102 0.287-0.242 0.062-0.357 0.092-0.685 0.092-1.004 0-2.789-1.948-5.188-4.658-5.773zM18.813 25.679c-3.327 0-6.034-2.707-6.034-6.034 0-3.328 2.707-6.035 6.034-6.035 3.327 0 6.034 2.707 6.034 6.035-0.001 3.327-2.708 6.034-6.034 6.034zM29.517 18.106h-4.239c-0.696-2.925-3.329-5.109-6.465-5.109-3.136 0-5.77 2.183-6.466 5.109h-9.794c0.502-1.514 1.905-2.542 3.551-2.542h0.002l0.045 0.002c0.148 0.014 0.268-0.098 0.294-0.239 0.354-1.954 2.054-3.372 4.040-3.372 0.532 0 1.050 0.106 1.541 0.305 0.304 0.148 0.954 0.524 1.356 1.198 0.048 0.080 0.138 0.119 0.225 0.103 0.026-0.005 0.051-0.013 0.074-0.028 0.104-0.062 0.138-0.196 0.076-0.299-0.346-0.58-0.837-0.962-1.21-1.188 0.758-2.806 3.306-4.762 6.221-4.762 2.801 0 5.272 1.791 6.119 4.441-0.752-0.005-1.311 0.267-1.345 0.281-0.111 0.046-0.165 0.173-0.118 0.286 0.046 0.111 0.173 0.165 0.285 0.119 0.008-0.004 0.779-0.31 1.655-0.165 2.441 0.527 4.198 2.685 4.198 5.198 0 0.213-0.014 0.432-0.045 0.664zM22.042 17.036c-2.442-0.572-3.051-0.633-3.2-0.633-0.018 0-0.034 0.001-0.036 0.002-0.015-0.002-0.031-0.002-0.049-0.002-0.149 0-0.759 0.061-3.201 0.633-0.074 0.017-0.126 0.083-0.126 0.16v3.373c0.001 0.030 0.113 2.977 3.34 3.548 0.012 0.002 0.022 0.003 0.030 0.003l0.020-0.001c3.311-0.408 3.349-3.522 3.349-3.555v-3.368c-0.001-0.077-0.053-0.142-0.128-0.16zM21.842 20.564c0 0.029-0.042 2.842-3.038 3.227-2.932-0.534-3.044-3.118-3.046-3.227l-0-3.239c0.297-0.070 0.564-0.13 0.806-0.185 1.69-0.378 2.101-0.411 2.191-0.411l0.002-0.002c0.029 0.008 0.062 0.006 0.084 0.002 0.070 0 0.507 0.026 2.567 0.496 0.137 0.031 0.282 0.065 0.434 0.1l-0 3.239zM18.802 17.511h-0.001l-0.17 0.001c-0.015 0.002-0.032 0.005-0.049 0.006-0.273 0.037-0.943 0.151-2.526 0.516-0.063 0.014-0.108 0.070-0.108 0.134l0.001 2.394c0.010 0.252 0.172 2.48 2.826 2.988 0.008 0.002 0.017 0.003 0.025 0.003l0.019-0.002c1.886-0.261 2.509-1.518 2.712-2.246 0.114-0.404 0.12-0.708 0.12-0.741v-1.667l0.026-0.057-0.026-0.007v-0.665c0-0.063-0.045-0.121-0.108-0.134-1.697-0.39-2.346-0.494-2.589-0.522l-0.152-0.001zM21.374 20.562c0 0.008-0.033 0.757-0.36 1.292l-0.104 0.175c-0.003 0.003-0.2 0.306-0.398 0.482l-0.142 0.123c-0.413 0.336-0.94 0.552-1.566 0.642-0.416-0.082-0.791-0.216-1.118-0.4 1.951-1.386 3.117-2.774 3.689-3.57l-0 1.256zM20.734 18.133c0.194 0.043 0.406 0.091 0.64 0.145v0.445l-0.010 0.019c-0.317 0.495-1.538 2.238-3.976 3.942-0.019-0.013-0.036-0.026-0.053-0.038l-0.16-0.132c-0.142-0.126-0.272-0.268-0.384-0.419l-0.069-0.098c2.322-1.638 3.582-3.339 3.946-3.877l0.066 0.014zM16.553 21.715c-0.29-0.558-0.324-1.063-0.327-1.158l0.002-0.976-0.002-1.303 0.616-0.139c0.016-0.003 1.622-0.327 1.81-0.352l0.286-0.001c0.147 0.018 0.522 0.074 1.386 0.258-0.462 0.659-1.658 2.178-3.77 3.671z" fill="#000000" />
</svg>
