<?xml version="1.0" encoding="utf-8"?>
<!-- Generated by IcoMoon.io -->
<!DOCTYPE svg PUBLIC "-//W3C//DTD SVG 1.1//EN" "http://www.w3.org/Graphics/SVG/1.1/DTD/svg11.dtd">
<svg version="1.1" xmlns="http://www.w3.org/2000/svg" xmlns:xlink="http://www.w3.org/1999/xlink" width="32" height="32" viewBox="0 0 32 32">
<g>
</g>
	<path d="M10.679 23.676c0 0.303 0.256 0.577 0.68 0.813v0.38c0 0.901 2.641 1.528 5.012 1.528s5.012-0.627 5.012-1.528v-0.379c0.425-0.236 0.681-0.51 0.681-0.814l0-14.5c0-0.21-0.21-0.603-0.619-1.167-0.176-0.737-1.966-1.066-3.614-1.182-0.144-0.305-0.453-0.518-0.812-0.518h-1.293c-0.359 0-0.668 0.213-0.812 0.518-1.735 0.121-3.63 0.479-3.63 1.302 0 0.001 0 0.002 0 0.004-0.602 0.738-0.604 0.965-0.604 1.043l0 14.5zM16.371 25.937c-2.738 0-4.552-0.76-4.552-1.068v-0.163c1.108 0.443 2.866 0.707 4.553 0.707 1.686 0 3.443-0.264 4.552-0.707v0.163c0 0.308-1.814 1.068-4.552 1.068zM21.149 8.657c0.163 0.246 0.287 0.459 0.302 0.519l0.001 14.494c-0.037 0.151-0.442 0.386-1.136 0.603-0.893 0.279-2.263 0.528-3.944 0.528-1.683 0-3.055-0.25-3.948-0.528-0.691-0.215-1.095-0.448-1.132-0.596l0-14.478c0.002-0.006 0.007-0.015 0.010-0.022 0.040-0.092 0.168-0.281 0.33-0.493 0.311 0.219 0.799 0.378 1.349 0.493 1.431 0.3 3.265 0.306 3.391 0.306s1.96-0.006 3.39-0.306zM15.725 6.769h1.293c0.217 0 0.398 0.158 0.434 0.365l-0.192 0.231c-0.034 0.041-0.053 0.094-0.053 0.147 0 0.106 0 0.189-0.441 0.189h-0.79c-0.441 0-0.441-0.083-0.441-0.189 0-0.054-0.019-0.106-0.053-0.147l-0.192-0.231c0.036-0.207 0.217-0.365 0.434-0.365zM15.080 7.6c0.022 0.207 0.118 0.338 0.242 0.42-0.365 0.068-0.603 0.171-0.603 0.287 0 0.204 0.727 0.371 1.624 0.371s1.624-0.167 1.624-0.371c0-0.112-0.22-0.21-0.56-0.279 0.13-0.082 0.234-0.213 0.256-0.428l0.136-0.164c1.808 0.125 2.877 0.469 3.039 0.693-0.201 0.277-1.796 0.74-4.466 0.74-2.671 0-4.265-0.463-4.466-0.74 0.162-0.223 1.231-0.568 3.039-0.693l0.136 0.164zM13.431 10.716c0.113 0 0.211-0.083 0.227-0.198 0.018-0.126-0.070-0.242-0.195-0.26-0.521-0.074-0.976-0.168-1.35-0.278-0.122-0.036-0.25 0.034-0.286 0.156-0.035 0.122 0.034 0.249 0.156 0.285 0.396 0.116 0.872 0.214 1.415 0.291 0.012 0.002 0.023 0.003 0.033 0.003zM20.631 9.981c-0.993 0.293-2.585 0.467-4.259 0.467-0.375 0-0.753-0.009-1.123-0.026-0.113-0.008-0.235 0.092-0.241 0.219s0.092 0.234 0.219 0.24c0.378 0.018 0.762 0.027 1.145 0.027 1.742 0 3.341-0.177 4.389-0.486 0.122-0.036 0.192-0.164 0.156-0.286-0.036-0.121-0.165-0.19-0.286-0.155z" fill="#000000" />
</svg>
