<?xml version="1.0" encoding="utf-8"?>
<!-- Generated by IcoMoon.io -->
<!DOCTYPE svg PUBLIC "-//W3C//DTD SVG 1.1//EN" "http://www.w3.org/Graphics/SVG/1.1/DTD/svg11.dtd">
<svg version="1.1" xmlns="http://www.w3.org/2000/svg" xmlns:xlink="http://www.w3.org/1999/xlink" width="32" height="32" viewBox="0 0 32 32">
<g>
</g>
	<path d="M17.622 14.912c-0.049 0.024-1.202 0.617-1.135 1.99 0.001 0.019 0.018 0.197 0.118 0.61 0.006 0.019 0.011 0.042 0.016 0.066-0.174-0.183-0.446-0.386-0.871-0.557-0.092-0.037-0.197-0.010-0.261 0.066s-0.072 0.185-0.020 0.27c0.010 0.017 0.201 0.349 0.146 0.959l-0.5-0.278c-0.148-0.082-0.334-0.029-0.417 0.119-0.083 0.148-0.030 0.335 0.119 0.417l0.676 0.377c-0.056 0.342-0.222 2.087 2.017 2.762 0.022 0.006 0.044 0.010 0.066 0.010 0.030 0 0.059-0.006 0.087-0.018 0.038-0.015 0.695-0.29 1.206-0.874l0.546 0.304c0.047 0.026 0.098 0.039 0.148 0.039 0.108 0 0.212-0.057 0.268-0.158 0.083-0.147 0.030-0.334-0.119-0.416l-0.496-0.277c0.039-0.076 0.076-0.154 0.108-0.237 0.236-0.623 0.175-1.306-0.194-2.051-0.004-0.006-0.434-0.692 0.041-1.511 0.048-0.083 0.040-0.186-0.020-0.261-0.060-0.074-0.159-0.104-0.25-0.074-0.033 0.010-0.694 0.235-0.973 0.981-0.226-0.329-0.453-0.963 0.006-1.957 0.041-0.089 0.021-0.194-0.049-0.261-0.071-0.068-0.176-0.083-0.263-0.040zM17.56 21.246c-1.579-0.512-1.668-1.618-1.638-2.057l2.53 1.41c-0.337 0.354-0.732 0.569-0.892 0.646zM17.921 17.823c0.066 0.046 0.151 0.054 0.225 0.021 0.073-0.033 0.124-0.102 0.134-0.182 0.032-0.257 0.119-0.454 0.224-0.605-0.096 0.693 0.218 1.193 0.226 1.204 0.297 0.602 0.353 1.16 0.164 1.658-0.024 0.062-0.055 0.119-0.085 0.177l-2.763-1.539c0.054-0.342 0.045-0.631 0.008-0.857 0.36 0.251 0.417 0.483 0.417 0.483 0.013 0.077 0.063 0.142 0.134 0.173 0.070 0.032 0.153 0.025 0.218-0.018 0.409-0.268 0.242-0.887 0.224-0.945-0.087-0.36-0.103-0.522-0.103-0.522-0.022-0.447 0.126-0.79 0.305-1.038-0.241 1.337 0.66 1.981 0.671 1.988zM21.917 10.872l-0.035-0.041c-0.665-0.79-1.37-1.385-2.102-1.773 0.248-0.283 0.389-0.648 0.389-1.028 0-0.862-0.702-1.564-1.565-1.564-0.542 0-1.035 0.278-1.321 0.736-0.191-0.005-0.501 0.007-0.696 0.11-0.246 0.128-0.239 0.48-0.234 0.757v0.718l-1.507-0.001c-0.054-0.151-0.192-0.263-0.359-0.273l-4.258-0.688c-0.235-0.039-0.445 0.168-0.445 0.405v2.471c0 0.225 0.184 0.408 0.409 0.408 0.012 0 0.025-0.001 0.037-0.003l4.258-0.688c0.187-0.010 0.335-0.15 0.37-0.33h1.495v0.979c-1.33 0.408-2.665 1.723-2.665 3.302v10.017c0 0.344 0 1.15 0.821 1.15h5.731c0.789 0 0.789-0.748 0.789-1.15l0-10.018c0-1.695-1.499-2.994-2.961-3.306v-0.927l0.269-0c0.037-0.003 1.037-0.020 2.43 1.643l0.040 0.047c0.147 0.179 0.346 0.422 0.61 0.422 0.009 0 0.018-0 0.028-0.001 0.146-0.009 0.246-0.071 0.379-0.183 0.181-0.153 0.368-0.341 0.389-0.582 0.020-0.241-0.163-0.453-0.297-0.608zM14.414 9.964l-4.17 0.674v-2.344l4.17 0.674v0.996zM20.417 14.368v10.017c0 0.536-0.048 0.536-0.176 0.536h-5.731c-0.13 0-0.208 0-0.208-0.536l-0-10.017c0-1.298 1.181-2.422 2.29-2.736h1.2c1.272 0.2 2.625 1.34 2.625 2.736zM21.529 11.712c-0.090 0.074-0.106 0.076-0.106 0.077-0.063-0.014-0.201-0.182-0.26-0.254l-0.043-0.051c-1.509-1.801-2.669-1.812-2.792-1.807l-0.489-0c-0.127 0-0.23 0.103-0.23 0.23v1.114h-0.795v-1.162c0-0.127-0.103-0.23-0.23-0.23h-1.71v-0.382h1.71c0.127 0 0.23-0.103 0.23-0.23v-0.952c-0.004-0.183 0.002-0.304 0.018-0.359 0.129-0.046 0.403-0.050 0.564-0.038 0.095 0.006 0.182-0.043 0.224-0.126 0.19-0.38 0.567-0.615 0.985-0.615 0.609 0 1.105 0.496 1.105 1.105 0 0.354-0.174 0.69-0.467 0.899-0.067 0.047-0.104 0.128-0.095 0.21 0.008 0.082 0.059 0.154 0.134 0.187 0.778 0.348 1.535 0.954 2.249 1.802l0.038 0.043c0.055 0.064 0.184 0.214 0.187 0.27-0.002 0.031-0.036 0.108-0.226 0.269zM18.098 8.031c-0 0.004-0 0.008-0 0.013 0 0.28 0.227 0.507 0.507 0.507 0.28 0 0.507-0.227 0.507-0.507 0-0.004-0-0.009-0-0.013 0-0.003 0-0.008 0-0.012 0-0.28-0.227-0.507-0.507-0.507-0.28 0-0.507 0.227-0.507 0.507 0 0.004 0 0.009 0 0.013z" fill="#000000" />
</svg>
