<?xml version="1.0" encoding="utf-8"?>
<!-- Generated by IcoMoon.io -->
<!DOCTYPE svg PUBLIC "-//W3C//DTD SVG 1.1//EN" "http://www.w3.org/Graphics/SVG/1.1/DTD/svg11.dtd">
<svg version="1.1" xmlns="http://www.w3.org/2000/svg" xmlns:xlink="http://www.w3.org/1999/xlink" width="32" height="32" viewBox="0 0 32 32">
<g>
</g>
	<path d="M15.801 12.555c0.001-0.002 0.054-0.15 0.247-0.15l1.602 0.016c0.118 0.010 0.606 0.018 0.934-0.645l1.553-3.010c0.248-0.47 0.056-0.85-0.095-1.003l-0.941-1.138-0.054-0.051c-0.026-0.019-0.655-0.475-1.623-0.475-0.524 0-1.049 0.133-1.558 0.393-0.074 0.037-1.834 0.929-2.829 3.361-0.1 0.192-2.419 4.765-0.599 11.55 0.008 0.045 0.82 4.5 4.688 4.5 0.307 0 0.63-0.029 0.958-0.086l0.054-0.009 1.373-0.796c0.379-0.22 0.379-0.69 0.319-0.933l-0.855-3.457c-0.069-0.232-0.308-0.63-0.779-0.651l-2.351-0.031c-0.043-0.002-0.186-0.023-0.233-0.191-0.012-0.041-1.21-4.168 0.178-7.164l0.012-0.029zM19.58 8.166l0.030 0.032c0.001 0.001 0.086 0.090-0.017 0.285l-1.556 3.017c-0.147 0.296-0.302 0.311-0.318 0.313l-0.85-0.010 1.969-4.534 0.742 0.897zM18.178 20.582c0.136 0.006 0.205 0.2 0.205 0.2h0.001l0.852 3.443c0.015 0.060 0.022 0.224-0.032 0.256l-1.091 0.633-0.859-4.543 0.925 0.012zM15.228 12.338c-1.478 3.207-0.257 7.407-0.205 7.58 0.138 0.492 0.586 0.629 0.806 0.634l1.112 0.014 0.883 4.669c-0.239 0.034-0.474 0.054-0.697 0.054-3.35 0-4.056-3.828-4.090-4.018-1.76-6.569 0.521-11.090 0.556-11.161 0.914-2.232 2.53-3.062 2.549-3.071 0.425-0.217 0.856-0.327 1.282-0.327 0.594 0 1.025 0.215 1.186 0.31l-2.075 4.778-0.416-0.005c-0.538-0.037-0.809 0.323-0.892 0.543z" fill="#000000" />
</svg>
