<?xml version="1.0" encoding="utf-8"?>
<!-- Generated by IcoMoon.io -->
<!DOCTYPE svg PUBLIC "-//W3C//DTD SVG 1.1//EN" "http://www.w3.org/Graphics/SVG/1.1/DTD/svg11.dtd">
<svg version="1.1" xmlns="http://www.w3.org/2000/svg" xmlns:xlink="http://www.w3.org/1999/xlink" width="32" height="32" viewBox="0 0 32 32">
<g>
</g>
	<path d="M25.011 15.333c0.037-0.139-0.022-0.287-0.156-0.353l-2.818-1.379c-0.042-0.020-0.088-0.031-0.134-0.031l-11.572 0c-0.042 0-0.082 0.008-0.12 0.024l-3.244 1.38c-0.142 0.060-0.21 0.215-0.171 0.36-0.007 0.026-0.016 0.051-0.016 0.079v5.152c0 0.169 0.137 0.306 0.306 0.306l17.634-0c0.17 0 0.306-0.138 0.306-0.306v-5.152c0-0.029-0.009-0.055-0.016-0.080zM10.393 14.183h11.438l1.888 0.924h-15.499l2.173-0.924zM24.414 20.258h-17.020v-4.463h17.020v4.463zM8.503 17.365c0 0.233 0.189 0.422 0.422 0.422s0.422-0.189 0.422-0.422c0-0.233-0.189-0.421-0.422-0.421s-0.422 0.189-0.422 0.421zM8.503 18.861c0 0.232 0.189 0.421 0.422 0.421s0.422-0.189 0.422-0.421c0-0.234-0.189-0.422-0.422-0.422s-0.422 0.188-0.422 0.422zM23.232 17.155h-12.874c-0.084 0-0.153-0.069-0.153-0.153s0.069-0.153 0.153-0.153h12.874c0.085 0 0.154 0.069 0.154 0.153s-0.069 0.153-0.154 0.153zM23.232 18.994h-12.874c-0.084 0-0.153-0.068-0.153-0.153 0-0.084 0.069-0.153 0.153-0.153h12.874c0.085 0 0.154 0.069 0.154 0.153 0 0.085-0.069 0.153-0.154 0.153zM23.232 18.074h-12.874c-0.084 0-0.153-0.068-0.153-0.153 0-0.084 0.069-0.153 0.153-0.153h12.874c0.085 0 0.154 0.069 0.154 0.153 0 0.085-0.069 0.153-0.154 0.153z" fill="#000000" />
</svg>
