<?xml version="1.0" encoding="utf-8"?>
<!-- Generated by IcoMoon.io -->
<!DOCTYPE svg PUBLIC "-//W3C//DTD SVG 1.1//EN" "http://www.w3.org/Graphics/SVG/1.1/DTD/svg11.dtd">
<svg version="1.1" xmlns="http://www.w3.org/2000/svg" xmlns:xlink="http://www.w3.org/1999/xlink" width="32" height="32" viewBox="0 0 32 32">
<g>
</g>
	<path d="M23.191 13.995c-0.59 0-1.152 0.112-1.673 0.309l-0.788-2.716c-0.008-0.026-0.017-0.069-0.019-0.097l-0.124-1.123 1.154-0.573c0.033 0.039 0.070 0.074 0.116 0.102 0.543 0.332 0.726 0.6 0.715 0.741-0.015 0.198-0.388 0.461-0.639 0.567-0.249 0.104-0.368 0.39-0.265 0.64 0.078 0.189 0.261 0.303 0.453 0.303 0.062 0 0.125-0.012 0.187-0.037 0.12-0.049 1.172-0.508 1.241-1.396 0.046-0.591-0.351-1.148-1.182-1.655-0.23-0.141-0.533-0.068-0.674 0.163-0.012 0.020-0.021 0.042-0.030 0.064l-1.385 0.687c-0.127 0.063-0.205 0.206-0.19 0.348l0.121 1.090-7.791 0-0.481-1.244c0.104-0.033 0.214-0.072 0.34-0.118 0.342-0.126 0.731-0.27 1.055-0.27 0.381 0 0.647-0.275 0.676-0.53 0.034-0.308-0.277-0.421-0.504-0.504-0.106-0.038-0.354-0.050-0.938-0.070-0.506-0.018-1.136-0.040-1.382-0.105-0.022-0.005-0.051-0.012-0.086-0.021-0.135-0.034-0.34-0.085-0.559-0.085-0.267 0-0.482 0.078-0.641 0.23-0.044 0.042-0.326 0.376-0.292 0.614 0.028 0.194 0.215 0.288 0.773 0.566 0.132 0.066 0.285 0.142 0.466 0.234 0.156 0.070 0.316 0.114 0.475 0.131l0.014 0.002 0.105-0.006 0.492 1.273-1.395 2.902c-0.552-0.227-1.155-0.355-1.788-0.355-2.597 0-4.708 2.113-4.708 4.708 0 2.597 2.112 4.709 4.708 4.709 2.28 0 4.186-1.629 4.616-3.785l0.945 0.138c0.048 0.547 0.503 0.98 1.063 0.98 0.591 0 1.072-0.481 1.072-1.072 0-0.25-0.090-0.478-0.234-0.66l4.529-5.695 0.325 1.121c-1.565 0.783-2.644 2.398-2.644 4.264 0 2.63 2.14 4.77 4.77 4.77 2.63 0 4.77-2.14 4.77-4.77 0.001-2.629-2.139-4.769-4.77-4.769zM21.981 9.398c0.044-0.072 0.139-0.095 0.211-0.051 0.713 0.436 1.057 0.887 1.021 1.341-0.055 0.699-0.994 1.094-1.034 1.11-0.019 0.008-0.039 0.011-0.058 0.011-0.060 0-0.117-0.036-0.142-0.095-0.032-0.078 0.005-0.168 0.083-0.2 0.224-0.093 0.813-0.427 0.846-0.852 0.026-0.325-0.278-0.69-0.875-1.054-0.073-0.045-0.095-0.139-0.051-0.211zM11.69 9.857l-0.346 0.018c-0.117-0.014-0.231-0.046-0.342-0.095-0.174-0.089-0.327-0.166-0.461-0.232-0.25-0.125-0.488-0.243-0.566-0.306 0.026-0.078 0.127-0.233 0.176-0.28 0.089-0.086 0.214-0.127 0.385-0.127 0.174 0 0.352 0.045 0.471 0.074 0.042 0.010 0.078 0.019 0.093 0.022 0.274 0.072 0.899 0.094 1.45 0.114 0.334 0.012 0.75 0.026 0.826 0.049 0.085 0.031 0.242 0.088 0.265 0.118-0.008 0.070-0.122 0.202-0.311 0.202-0.39 0-0.811 0.156-1.182 0.293-0.174 0.064-0.338 0.124-0.458 0.152zM10.555 15.493c1.151 0.638 1.933 1.866 1.933 3.272 0 0.101-0.007 0.199-0.015 0.298l-3.145-0.46c-0.026-0.098-0.074-0.186-0.14-0.26l1.367-2.85zM8.705 19.154c0.122 0 0.226-0.061 0.295-0.149-0.070 0.088-0.173 0.149-0.295 0.149-0.211 0-0.382-0.171-0.382-0.382 0-0.211 0.171-0.382 0.382-0.382 0.122 0 0.226 0.061 0.295 0.149-0.070-0.089-0.174-0.149-0.295-0.149-0.211 0-0.382 0.172-0.382 0.382-0 0.211 0.172 0.382 0.382 0.382zM8.748 18.131c-0.011-0.001-0.021-0.003-0.033-0.003-0.351 0-0.637 0.286-0.637 0.637s0.286 0.637 0.637 0.637c0.233 0 0.435-0.127 0.547-0.314l3.142 0.46c-0.361 1.688-1.863 2.957-3.657 2.957-2.063 0-3.741-1.678-3.741-3.741 0-2.062 1.678-3.74 3.741-3.74 0.483 0 0.943 0.095 1.367 0.262l-1.367 2.844zM8.747 23.106c-2.394 0-4.341-1.947-4.341-4.341 0-2.394 1.947-4.34 4.341-4.34 0.576 0 1.125 0.115 1.628 0.32l-0.154 0.321c-0.456-0.182-0.953-0.286-1.474-0.286-2.198 0-3.986 1.788-3.986 3.986 0 2.198 1.788 3.986 3.986 3.986 1.917 0 3.521-1.361 3.9-3.166l0.353 0.051c-0.404 1.978-2.158 3.47-4.253 3.47zM13.069 19.151l-0.352-0.051c0.009-0.11 0.017-0.221 0.017-0.334 0-1.504-0.838-2.816-2.072-3.494l0.154-0.321c1.353 0.736 2.273 2.17 2.273 3.815-0.001 0.13-0.008 0.258-0.020 0.386zM13.433 19.204c0.014-0.145 0.022-0.291 0.022-0.439 0-1.791-1.005-3.351-2.482-4.146l1.156-2.41 2.59 6.683c-0.151 0.117-0.271 0.271-0.343 0.451l-0.944-0.138zM15.376 20.562c-0.456 0-0.826-0.37-0.826-0.826s0.37-0.826 0.826-0.826 0.826 0.37 0.826 0.826-0.37 0.826-0.826 0.826zM20.525 12.863l-4.735 5.886c-0.129-0.055-0.27-0.085-0.418-0.085-0.050 0-0.098 0.008-0.145 0.015l-2.619-6.777h7.653l0.268 0.958-0.003 0.003zM21.392 15.629c0.014 0.048 0.043 0.125 0.067 0.171l1.512 3.073c0.042 0.086 0.13 0.137 0.22 0.137 0.036 0 0.073-0.008 0.108-0.025 0.121-0.060 0.171-0.207 0.112-0.328l-1.512-3.072c-0.012-0.025-0.028-0.066-0.036-0.092l-0.058-0.199c0.429-0.172 0.896-0.269 1.386-0.269 2.062 0 3.741 1.678 3.741 3.74 0 2.062-1.678 3.741-3.741 3.741s-3.741-1.678-3.741-3.741c0-1.396 0.771-2.614 1.907-3.256l0.035 0.121zM23.191 23.045c-2.36 0-4.28-1.92-4.28-4.28 0-1.642 0.931-3.070 2.292-3.787l0.083 0.287c-1.239 0.677-2.082 1.992-2.082 3.5 0 2.198 1.788 3.986 3.986 3.986 2.198 0 3.986-1.788 3.986-3.986 0-2.198-1.788-3.986-3.986-3.986-0.514 0-1.003 0.101-1.454 0.279l-0.082-0.283c0.478-0.185 0.994-0.29 1.537-0.29 2.36 0 4.28 1.92 4.28 4.28s-1.919 4.279-4.279 4.279z" fill="#000000" />
</svg>
