<?xml version="1.0" encoding="utf-8"?>
<!-- Generated by IcoMoon.io -->
<!DOCTYPE svg PUBLIC "-//W3C//DTD SVG 1.1//EN" "http://www.w3.org/Graphics/SVG/1.1/DTD/svg11.dtd">
<svg version="1.1" xmlns="http://www.w3.org/2000/svg" xmlns:xlink="http://www.w3.org/1999/xlink" width="32" height="32" viewBox="0 0 32 32">
<g>
</g>
	<path d="M20.723 18.321h-1.602c-0.039 0-0.077 0.015-0.104 0.043-0.028 0.028-0.042 0.066-0.042 0.105l0.002 1.307c0.001 0.056 0.033 0.108 0.084 0.132l0.8 0.373c0.020 0.009 0.041 0.014 0.062 0.014 0.021 0 0.041-0.004 0.060-0.013l0.8-0.36c0.053-0.023 0.086-0.075 0.086-0.133v-1.32c0.001-0.081-0.064-0.147-0.146-0.147zM20.577 19.693l-0.653 0.293-0.655-0.306v-1.066h1.308v1.079zM18.422 9.32c-1.43 0-2.593 1.163-2.593 2.593 0 1.429 1.163 2.593 2.593 2.593 1.43 0 2.593-1.163 2.593-2.593-0-1.43-1.163-2.593-2.593-2.593zM18.422 14.066c-1.187 0-2.153-0.966-2.153-2.153s0.966-2.153 2.153-2.153 2.153 0.966 2.153 2.153-0.965 2.153-2.153 2.153zM24.688 12.315c-0.859-2.806-3.476-4.751-6.425-4.751-2.956 0-5.551 1.927-6.418 4.724-0.481-0.172-0.985-0.259-1.5-0.259-2.091 0-3.89 1.439-4.363 3.454-1.869 0.068-3.443 1.366-3.859 3.203-0.019 0.082 0.001 0.17 0.054 0.236 0.053 0.066 0.133 0.105 0.218 0.105 0 0 8.944 0.002 10.549 0-0.014 0.473 0.005 0.925 0.021 1.316 0.008 0.19 0.015 0.366 0.018 0.523 0.030 1.695 0.621 2.298 1.842 3.182v0.76c0 0.042 0.012 0.084 0.035 0.12 0.061 0.094 0.682 0.915 3.663 0.989 0.105 0.002 0.206 0.003 0.306 0.003 2.671 0 3.158-0.915 3.206-1.022 0.012-0.029 0.019-0.059 0.019-0.090v-0.606c1.314-0.939 1.817-1.494 1.849-3.336 0.003-0.165 0.011-0.351 0.020-0.553 0.017-0.383 0.036-0.824 0.026-1.286h4.831c0.136 0 0.252-0.098 0.275-0.232 0.058-0.341 0.087-0.655 0.087-0.961-0.001-2.668-1.863-4.962-4.454-5.52zM23.483 20.294c-0.009 0.206-0.018 0.396-0.020 0.565-0.026 1.536-0.377 2.034-1.409 2.799l0-5c0-0.121-0.099-0.22-0.22-0.22-0.121 0-0.22 0.098-0.22 0.22v6.087c-0.116 0.152-0.736 0.794-3.080 0.732-2.368-0.058-3.11-0.604-3.27-0.753l-0-5.96c0-0.121-0.098-0.22-0.22-0.22s-0.22 0.098-0.22 0.22v4.737c-0.969-0.73-1.378-1.261-1.402-2.643-0.003-0.16-0.010-0.34-0.018-0.534-0.051-1.218-0.129-3.058 0.898-4.128 0.578-0.603 1.465-0.909 2.635-0.909h3.049c1.166 0 2.048 0.304 2.621 0.903 1.014 1.061 0.932 2.892 0.877 4.103zM28.54 18.47h-4.621c-0.079-0.929-0.326-1.884-0.994-2.583-0.659-0.689-1.648-1.039-2.939-1.039h-3.049c-1.295 0-2.288 0.351-2.952 1.044-0.671 0.7-0.924 1.65-1.008 2.578h-10.216c0.479-1.448 1.821-2.431 3.395-2.431h0.002l0.043 0.002c0.142 0.013 0.256-0.094 0.281-0.229 0.338-1.869 1.963-3.225 3.863-3.225 0.508 0 1.002 0.101 1.474 0.291 0.29 0.142 0.913 0.501 1.296 1.146 0.045 0.076 0.132 0.114 0.215 0.098 0.025-0.005 0.049-0.013 0.070-0.026 0.099-0.059 0.132-0.187 0.072-0.286-0.33-0.554-0.799-0.919-1.157-1.136 0.724-2.683 3.16-4.553 5.947-4.553 2.679 0 5.042 1.713 5.851 4.247-0.719-0.005-1.254 0.255-1.286 0.268-0.106 0.044-0.157 0.166-0.113 0.273 0.044 0.107 0.166 0.158 0.273 0.113 0.008-0.004 0.745-0.296 1.582-0.158 2.333 0.505 4.013 2.567 4.013 4.97-0 0.205-0.015 0.413-0.044 0.636z" fill="#000000" />
</svg>
