<?xml version="1.0" encoding="utf-8"?>
<!-- Generated by IcoMoon.io -->
<!DOCTYPE svg PUBLIC "-//W3C//DTD SVG 1.1//EN" "http://www.w3.org/Graphics/SVG/1.1/DTD/svg11.dtd">
<svg version="1.1" xmlns="http://www.w3.org/2000/svg" xmlns:xlink="http://www.w3.org/1999/xlink" width="32" height="32" viewBox="0 0 32 32">
<g>
</g>
	<path d="M10.521 22.87h-2.725c-0.377 0-0.721-0.059-1.024-0.176-0.307-0.118-0.575-0.289-0.794-0.51-0.222-0.221-0.391-0.493-0.505-0.808-0.11-0.306-0.166-0.65-0.166-1.025v-2.426c0-0.273-0.034-0.502-0.1-0.682-0.061-0.166-0.148-0.3-0.258-0.399-0.114-0.102-0.249-0.174-0.414-0.221-0.183-0.052-0.393-0.081-0.622-0.085l-0.3-0.006v-2.038l0.295-0.011c0.235-0.009 0.447-0.041 0.631-0.095 0.166-0.049 0.3-0.122 0.412-0.224 0.109-0.099 0.195-0.234 0.256-0.402 0.066-0.18 0.1-0.409 0.1-0.682l0-2.426c0-0.802 0.226-1.43 0.673-1.865 0.444-0.433 1.055-0.653 1.815-0.653h2.725v2.018h-1.697c-0.352 0-0.591 0.087-0.731 0.267-0.156 0.2-0.235 0.527-0.235 0.973v2.226c0 0.288-0.048 0.558-0.143 0.803-0.094 0.241-0.223 0.457-0.384 0.642-0.149 0.171-0.326 0.317-0.525 0.436 0.203 0.12 0.382 0.27 0.534 0.445 0.161 0.187 0.288 0.402 0.379 0.638 0.092 0.239 0.139 0.506 0.139 0.794v2.226c0 0.45 0.079 0.778 0.234 0.976 0.139 0.178 0.379 0.264 0.732 0.264h1.697l-0 2.025zM4.226 15.944c0.169 0.018 0.328 0.047 0.476 0.090 0.254 0.071 0.475 0.191 0.658 0.355 0.185 0.166 0.327 0.383 0.423 0.643 0.091 0.248 0.137 0.549 0.137 0.894v2.426c0 0.303 0.044 0.578 0.13 0.817 0.083 0.23 0.204 0.426 0.361 0.582 0.159 0.159 0.354 0.283 0.581 0.37 0.233 0.090 0.503 0.135 0.804 0.135h2.112v-0.799h-1.084c-0.545 0-0.954-0.168-1.214-0.498-0.246-0.313-0.365-0.756-0.365-1.354v-2.226c0-0.212-0.033-0.406-0.098-0.574-0.066-0.17-0.157-0.325-0.272-0.458-0.114-0.133-0.251-0.245-0.407-0.333-0.161-0.091-0.335-0.159-0.518-0.201l-0.237-0.055v-0.491l0.242-0.082c0.176-0.038 0.346-0.102 0.505-0.193 0.157-0.088 0.294-0.2 0.409-0.331 0.114-0.13 0.206-0.285 0.274-0.46 0.067-0.173 0.102-0.368 0.102-0.581v-2.226c0-0.594 0.119-1.035 0.364-1.35 0.26-0.334 0.669-0.503 1.214-0.503h1.084v-0.792h-2.112c-0.603 0-1.057 0.157-1.388 0.479-0.328 0.32-0.488 0.786-0.488 1.426v2.426c0 0.346-0.046 0.646-0.137 0.894-0.096 0.26-0.236 0.476-0.418 0.642-0.179 0.164-0.399 0.286-0.653 0.36-0.15 0.044-0.313 0.077-0.486 0.097l0 0.871zM17.393 23.092h-2.551v-14.956h2.551l0 14.956zM15.454 22.479h1.325v-13.729h-1.325v13.729zM24.446 22.87h-2.726v-2.026h1.697c0.353 0 0.592-0.086 0.732-0.264 0.155-0.198 0.234-0.526 0.234-0.976v-2.226c0-0.288 0.046-0.555 0.139-0.795 0.091-0.236 0.218-0.451 0.379-0.637 0.152-0.176 0.332-0.326 0.534-0.445-0.199-0.118-0.375-0.265-0.525-0.436-0.161-0.184-0.29-0.4-0.384-0.642-0.095-0.244-0.143-0.514-0.143-0.802v-2.226c0-0.446-0.079-0.773-0.235-0.973-0.14-0.18-0.378-0.267-0.731-0.267h-1.697v-2.018h2.726c0.76 0 1.371 0.22 1.815 0.653 0.446 0.436 0.673 1.063 0.673 1.865v2.426c0 0.274 0.034 0.503 0.099 0.682 0.061 0.167 0.147 0.302 0.256 0.401 0.112 0.102 0.247 0.176 0.412 0.224 0.184 0.054 0.397 0.086 0.632 0.095l0.295 0.011v2.038l-0.3 0.006c-0.23 0.005-0.439 0.033-0.622 0.085-0.166 0.046-0.301 0.119-0.415 0.221-0.112 0.1-0.196 0.231-0.258 0.399-0.066 0.179-0.099 0.409-0.099 0.682v2.426c0 0.374-0.056 0.719-0.166 1.025-0.113 0.314-0.283 0.587-0.504 0.808-0.22 0.22-0.488 0.391-0.794 0.51-0.303 0.116-0.647 0.175-1.023 0.175zM22.334 22.257h2.113c0.3 0 0.571-0.045 0.803-0.135 0.226-0.087 0.422-0.212 0.581-0.371 0.157-0.157 0.278-0.353 0.361-0.582 0.086-0.239 0.13-0.514 0.13-0.817v-2.426c0-0.346 0.046-0.646 0.137-0.894 0.096-0.261 0.238-0.477 0.423-0.644 0.182-0.164 0.404-0.284 0.658-0.355 0.147-0.042 0.307-0.071 0.476-0.089v-0.871c-0.174-0.020-0.337-0.053-0.487-0.097-0.253-0.074-0.473-0.196-0.653-0.36-0.181-0.166-0.322-0.382-0.417-0.642-0.091-0.247-0.137-0.547-0.137-0.894l0-2.426c0-0.63-0.164-1.11-0.488-1.426-0.331-0.322-0.785-0.479-1.387-0.479h-2.113v0.792h1.084c0.546 0 0.954 0.169 1.214 0.503 0.245 0.315 0.364 0.756 0.364 1.35v2.226c0 0.212 0.034 0.408 0.101 0.581 0.068 0.175 0.16 0.33 0.274 0.46 0.115 0.132 0.252 0.243 0.408 0.331 0.159 0.090 0.329 0.155 0.505 0.193l0.242 0.052v0.491l-0.237 0.085c-0.182 0.042-0.357 0.11-0.518 0.201-0.156 0.088-0.293 0.2-0.407 0.333-0.115 0.133-0.206 0.287-0.272 0.458-0.065 0.169-0.098 0.362-0.098 0.574v2.226c0 0.599-0.12 1.042-0.365 1.354-0.26 0.33-0.669 0.498-1.214 0.498h-1.084l0 0.799z" fill="#000000" />
</svg>
