<?xml version="1.0" encoding="utf-8"?>
<!-- Generated by IcoMoon.io -->
<!DOCTYPE svg PUBLIC "-//W3C//DTD SVG 1.1//EN" "http://www.w3.org/Graphics/SVG/1.1/DTD/svg11.dtd">
<svg version="1.1" xmlns="http://www.w3.org/2000/svg" xmlns:xlink="http://www.w3.org/1999/xlink" width="32" height="32" viewBox="0 0 32 32">
<g>
</g>
	<path d="M24.141 13.896c-0.149-0.156-0.355-0.242-0.596-0.247-0.138-0.003-0.837-0.003-0.837-0.004-0.645-0.037-1.076 0.173-1.243 0.625l-0.85 2.056c-0.112-0.037-0.229-0.063-0.359-0.063h-2.677v-1.207h1.762c0.058 0 0.116-0.004 0.175-0.010 0.456-0.046 0.889-0.272 1.218-0.636 0.341-0.376 0.535-0.864 0.554-1.382 0.006-0.025 0.010-0.050 0.010-0.077 0-0.022-0.002-0.044-0.007-0.066-0.002-0.052-0.005-0.106-0.010-0.162l-0.6-5.832c-0.124-1.219-0.576-2.333-1.27-3.134-0.726-0.844-1.652-1.29-2.679-1.29h-1.463c-1.026 0-1.953 0.446-2.679 1.29-0.694 0.803-1.145 1.916-1.27 3.135l-0.6 5.834c-0.008 0.079-0.012 0.154-0.012 0.226 0 0.014 0.001 0.028 0.003 0.041 0.010 0.531 0.207 1.034 0.555 1.418 0.329 0.364 0.761 0.59 1.219 0.637 0.057 0.006 0.116 0.009 0.173 0.009h1.763v1.207h-2.678c-0.13 0-0.249 0.021-0.363 0.052l-0.84-2.035c-0.158-0.425-0.523-0.64-1.088-0.64-0.052 0-0.106 0.002-0.143 0.004 0 0-0.714 0.001-0.854 0.004-0.241 0.005-0.447 0.090-0.596 0.247-0.292 0.306-0.279 0.787-0.274 0.994l0.001 0.053c-0.008 0.308 0.286 0.384 0.871 0.536 0.145 0.038 0.351 0.091 0.459 0.129l1.207 3.254c0.050 0.423 0.202 0.819 0.447 1.156l0.016 0.020c0.368 0.484 0.901 0.762 1.462 0.762l0.922 0.002c0.001 0 0.001 0.001 0.002 0.001l1.215 0.001c0.045 0 0.082 0.001 0.11 0.002 0.004 0.027 0.006 0.056 0.006 0.079l-0.009 1.588c0 0.322 0.242 0.584 0.582 0.674l-0.006 0.599c0 0.393 0.36 0.701 0.823 0.708v0.65c-0.008 0.001-0.017 0-0.025 0.001-2.175 0.111-3.73 1.678-4.283 2.326-0.074-0.022-0.15-0.037-0.23-0.037-0.446 0-0.81 0.362-0.81 0.809 0 0.446 0.363 0.81 0.81 0.81 0.446 0 0.81-0.364 0.81-0.81 0-0.139-0.039-0.269-0.101-0.384 0.504-0.581 1.923-2.001 3.83-2.101v2.106c-0.336 0.125-0.577 0.446-0.577 0.825 0 0.488 0.396 0.883 0.883 0.883s0.883-0.396 0.883-0.883c0-0.378-0.241-0.699-0.577-0.825v-2.092c1.283 0.123 2.56 0.854 3.808 2.171-0.049 0.105-0.079 0.221-0.079 0.344 0 0.447 0.363 0.81 0.81 0.81 0.446 0 0.81-0.363 0.81-0.81 0-0.446-0.363-0.81-0.81-0.81-0.098 0-0.191 0.021-0.278 0.053-1.376-1.455-2.807-2.253-4.26-2.374v-0.661c0.462-0.007 0.822-0.315 0.822-0.711l-0.006-0.596c0.34-0.090 0.582-0.352 0.582-0.675l-0.009-1.58c0-0.026 0.003-0.056 0.006-0.085 0.029-0.001 0.065-0.002 0.11-0.002l0.071 0.001 2.067-0.004c0.561 0 1.094-0.278 1.459-0.758l0.027-0.034c0.238-0.328 0.39-0.723 0.44-1.147l1.207-3.254c0.108-0.038 0.314-0.091 0.459-0.129 0.604-0.157 0.879-0.228 0.871-0.538l0.001-0.052c0.005-0.206 0.017-0.688-0.274-0.993zM11.005 28.081c-0.028 0.034-0.046 0.075-0.046 0.122v-0c-0-0.047 0.019-0.087 0.046-0.122zM11.156 28.4c0.064 0 0.118-0.033 0.154-0.081-0.036 0.048-0.090 0.081-0.154 0.081zM11.337 28.28c0-0.001 0-0.003 0.001-0.004-0 0.001-0 0.003-0.001 0.004zM11.352 28.203c0-0.054-0.022-0.103-0.058-0.139 0.036 0.035 0.058 0.084 0.058 0.139v0zM21.016 28.338c0.015-0.028 0.026-0.058 0.026-0.092 0 0 0 0 0 0 0 0.034-0.011 0.064-0.026 0.092zM20.845 28.050c0.094 0 0.168 0.067 0.188 0.154-0.020-0.087-0.095-0.154-0.188-0.154-0.073 0-0.134 0.042-0.168 0.1 0.034-0.059 0.095-0.1 0.168-0.1zM20.648 28.246c0 0.014 0.005 0.025 0.007 0.038-0.002-0.012-0.007-0.024-0.007-0.038 0 0 0 0 0 0zM12.658 14.444c-0.038 0-0.077-0.003-0.113-0.006-0.3-0.031-0.601-0.19-0.825-0.438-0.255-0.282-0.396-0.654-0.397-1.048 0-0.011-0.001-0.022-0.002-0.033 0.001-0.042 0.004-0.086 0.008-0.131l0.6-5.833c0.112-1.095 0.511-2.088 1.124-2.797 0.606-0.705 1.372-1.077 2.215-1.077h1.463c0.842 0 1.608 0.372 2.215 1.078 0.613 0.708 1.012 1.701 1.123 2.796l0.6 5.832c0.005 0.046 0.007 0.090 0.008 0.132-0.001 0.011-0.002 0.022-0.002 0.033-0.001 0.394-0.141 0.766-0.397 1.048-0.224 0.248-0.525 0.408-0.823 0.438-0.038 0.004-0.076 0.007-0.115 0.007h-2.068c-0.17 0-0.306 0.137-0.306 0.306v1.513h-1.933v-1.513c0-0.169-0.137-0.306-0.306-0.306l-2.069-0zM10.271 17.497l-0.817-2.201c-0.079-0.211-0.303-0.269-0.843-0.409-0.127-0.033-0.3-0.078-0.415-0.114 0.001-0.145 0.016-0.358 0.106-0.452 0.022-0.024 0.064-0.055 0.166-0.057 0.137-0.003 0.842-0.004 0.858-0.005 0.042-0.002 0.085-0.004 0.125-0.004 0.391 0 0.469 0.124 0.517 0.251l0.877 2.121c-0.207 0.198-0.394 0.486-0.575 0.87zM15.73 28.648c0-0.074 0.030-0.142 0.079-0.19-0.049 0.049-0.079 0.116-0.079 0.19v0zM16.27 28.648c0-0.074-0.030-0.142-0.079-0.19 0.049 0.049 0.079 0.116 0.079 0.19v0zM16.291 23.843h-0.582c-0.15 0-0.225-0.078-0.225-0.094l0.005-0.566h1.021l0.005 0.564c-0 0.019-0.075 0.097-0.225 0.097zM16.868 22.57h-1.736c-0.15 0-0.224-0.078-0.224-0.094l0.009-1.591c-0-0.026-0.004-0.054-0.006-0.081h2.178c-0.002 0.028-0.006 0.058-0.006 0.086l0.009 1.584c0 0.018-0.074 0.096-0.224 0.096zM20.949 19.639l-0.023 0.030c-0.255 0.335-0.6 0.52-0.975 0.52l-1.376 0.003c-0.002 0-0.003-0.001-0.004-0.001l-6.522-0.002c-0.373 0-0.719-0.185-0.978-0.525l-0.011-0.014c-0.142-0.196-0.243-0.433-0.296-0.684 0.285 0.206 0.637 0.313 0.98 0.313h8.513c0.344 0 0.696-0.107 0.981-0.313-0.054 0.251-0.154 0.487-0.289 0.674zM20.256 18.818h-8.513c-0.423 0-1.090-0.273-1.117-1.001 0.4-0.909 0.725-1.093 1.117-1.093h8.513c0.397 0 0.692 0.289 1.117 1.101-0.031 0.722-0.695 0.993-1.117 0.993zM23.39 14.886c-0.541 0.14-0.764 0.198-0.843 0.41l-0.821 2.212c-0.17-0.318-0.357-0.62-0.585-0.848l0.895-2.166c0.043-0.116 0.121-0.24 0.513-0.24 0.041 0 0.083 0.002 0.142 0.004 0 0 0.705 0.001 0.842 0.004 0.102 0.002 0.143 0.034 0.166 0.057 0.091 0.095 0.106 0.308 0.106 0.453-0.116 0.037-0.288 0.082-0.415 0.114zM19.349 13.75c0.002 0 0.033-0.002 0.034-0.002 0.133-0.014 0.272-0.091 0.381-0.213 0.081-0.089 0.217-0.284 0.218-0.583l0-0.061c-0-0.004-0.001-0.012-0.602-5.865-0.098-0.955-0.439-1.813-0.959-2.415-0.477-0.554-1.045-0.835-1.689-0.835h-1.463c-0.644 0-1.213 0.282-1.691 0.838-0.52 0.6-0.86 1.458-0.958 2.414-0.601 5.852-0.602 5.859-0.602 5.874l0 0.050c0.001 0.3 0.136 0.495 0.218 0.586 0.109 0.12 0.249 0.199 0.376 0.212l6.729 0.003c0.003-0 0.006-0 0.009-0zM12.639 13.442c-0.040-0.004-0.114-0.044-0.176-0.112-0.052-0.058-0.138-0.183-0.139-0.382l-0.001-0.035c0.006-0.059 0.601-5.855 0.601-5.855 0.092-0.894 0.406-1.692 0.886-2.245 0.418-0.485 0.908-0.731 1.459-0.731h1.463c0.55 0 1.040 0.245 1.457 0.729 0.48 0.555 0.795 1.353 0.887 2.246 0 0 0.597 5.8 0.601 5.842l-0.001 0.050c-0 0.198-0.086 0.322-0.138 0.38-0.070 0.078-0.143 0.11-0.178 0.114l-6.721-0z" fill="#000000" />
</svg>
