<?xml version="1.0" encoding="utf-8"?>
<!-- Generated by IcoMoon.io -->
<!DOCTYPE svg PUBLIC "-//W3C//DTD SVG 1.1//EN" "http://www.w3.org/Graphics/SVG/1.1/DTD/svg11.dtd">
<svg version="1.1" xmlns="http://www.w3.org/2000/svg" xmlns:xlink="http://www.w3.org/1999/xlink" width="32" height="32" viewBox="0 0 32 32">
<g>
</g>
	<path d="M20.543 15.104h2.188c0.127 0 0.23-0.103 0.23-0.23v-2.606c0-0.127-0.103-0.23-0.23-0.23h-2.188c-0.127 0-0.23 0.103-0.23 0.23v2.606c0 0.127 0.103 0.23 0.23 0.23zM20.773 12.498h1.728v2.146h-1.728v-2.146zM17.173 19.222h-4.893c-0.127 0-0.23 0.103-0.23 0.23s0.103 0.23 0.23 0.23h4.893c0.127 0 0.23-0.103 0.23-0.23s-0.103-0.23-0.23-0.23zM19.651 17.841h-7.37c-0.127 0-0.23 0.103-0.23 0.23s0.103 0.23 0.23 0.23h7.37c0.127 0 0.23-0.103 0.23-0.23s-0.103-0.23-0.23-0.23zM9.024 12.498h4.893c0.127 0 0.23-0.103 0.23-0.23s-0.103-0.23-0.23-0.23l-4.893 0c-0.127 0-0.23 0.103-0.23 0.23s0.103 0.23 0.23 0.23zM12.050 16.69c0 0.127 0.103 0.23 0.23 0.23h7.37c0.127 0 0.23-0.103 0.23-0.23s-0.103-0.23-0.23-0.23l-7.37 0c-0.127 0-0.23 0.103-0.23 0.23zM9.024 13.801h4.893c0.127 0 0.23-0.103 0.23-0.23s-0.103-0.23-0.23-0.23l-4.893 0c-0.127 0-0.23 0.103-0.23 0.23s0.103 0.23 0.23 0.23zM24.487 10.085h-16.872c-0.17 0-0.306 0.137-0.306 0.306v11.989c0 0.17 0.137 0.306 0.306 0.306h16.872c0.17 0 0.306-0.137 0.306-0.306l0-11.989c0-0.169-0.137-0.306-0.306-0.306zM24.18 22.074h-16.259v-11.377h16.259v11.377z" fill="#000000" />
</svg>
