<?xml version="1.0" encoding="utf-8"?>
<!-- Generated by IcoMoon.io -->
<!DOCTYPE svg PUBLIC "-//W3C//DTD SVG 1.1//EN" "http://www.w3.org/Graphics/SVG/1.1/DTD/svg11.dtd">
<svg version="1.1" xmlns="http://www.w3.org/2000/svg" xmlns:xlink="http://www.w3.org/1999/xlink" width="32" height="32" viewBox="0 0 32 32">
<g>
</g>
	<path d="M27.818 15.579c-0.935 0-1.71 0.692-1.843 1.591l-1.834 0.015-1.374-4.924c-0.041-0.147-0.173-0.25-0.326-0.253-0.152-0.004-0.289 0.093-0.337 0.238-1.197 3.621-2.024 6.162-2.473 7.604-0.183-0.87-0.436-2.078-0.696-3.323-0.443-2.12-0.957-4.58-1.364-6.51-0.204-0.966-0.381-1.799-0.509-2.39-0.064-0.297-0.117-0.533-0.154-0.695-0.067-0.294-0.122-0.551-0.435-0.515-0.176 0.018-0.31 0.142-0.31 0.32-0.071 0.598-2.263 10.899-3.11 14.452l-2.435-9.176c-0.040-0.152-0.178-0.257-0.334-0.257h-0.002c-0.158 0.001-0.294 0.107-0.334 0.26l-1.313 5.113-1.619 0.012c-0.185-0.835-0.93-1.462-1.82-1.462-1.028 0-1.865 0.837-1.865 1.865s0.837 1.866 1.865 1.866c0.93 0 1.702-0.685 1.841-1.577l1.87-0.014c0.157-0.001 0.294-0.108 0.333-0.26l1.049-4.087 2.426 9.14c0.033 0.122 0.129 0.217 0.253 0.247 0.027 0.006 0.054 0.010 0.082 0.010 0.096 0 0.19-0.040 0.256-0.114 0.299-0.33 2.395-10.314 3.218-14.336 0.432 2.023 1.182 5.609 1.734 8.25 0.27 1.29 0.513 2.453 0.689 3.294 0.133 0.635 0.216 1.028 0.284 1.269-0.001 0.008-0.002 0.014-0.002 0.018h0.006c0.109 0.372 0.183 0.365 0.375 0.345 0.165-0.017 0.293-0.148 0.309-0.311 0.075-0.378 1.415-4.495 2.484-7.74l1.14 4.084c0.042 0.15 0.178 0.253 0.334 0.253h0.003l2.12-0.018c0.19 0.828 0.932 1.448 1.817 1.448 1.028 0 1.866-0.837 1.866-1.866s-0.837-1.865-1.865-1.865zM5.198 18.735c-0.658 0-1.192-0.535-1.192-1.193s0.535-1.193 1.192-1.193c0.658 0 1.193 0.535 1.193 1.193s-0.535 1.193-1.193 1.193zM27.818 18.637c-0.658 0-1.193-0.535-1.193-1.193s0.535-1.193 1.193-1.193c0.658 0 1.193 0.535 1.193 1.193s-0.535 1.193-1.193 1.193z" fill="#000000" />
</svg>
