<?xml version="1.0" encoding="utf-8"?>
<!-- Generated by IcoMoon.io -->
<!DOCTYPE svg PUBLIC "-//W3C//DTD SVG 1.1//EN" "http://www.w3.org/Graphics/SVG/1.1/DTD/svg11.dtd">
<svg version="1.1" xmlns="http://www.w3.org/2000/svg" xmlns:xlink="http://www.w3.org/1999/xlink" width="32" height="32" viewBox="0 0 32 32">
<g>
</g>
	<path d="M11.352 10.121c-0 0.002-0 0.003-0 0.005 0 0.233 0.189 0.422 0.422 0.422 0.233 0 0.422-0.189 0.422-0.422 0-0.002 0-0.004-0-0.005 0-0.001 0-0.003 0-0.005 0-0.233-0.189-0.422-0.422-0.422-0.233 0-0.422 0.189-0.422 0.422 0 0.002 0 0.004 0 0.005zM12.847 15.237c0 0.233 0.189 0.422 0.422 0.422s0.422-0.189 0.422-0.422c0-0.233-0.189-0.422-0.422-0.422-0.233 0-0.422 0.189-0.422 0.422zM11.352 15.237c-0 0.002-0 0.003-0 0.005 0 0.233 0.189 0.422 0.422 0.422 0.233 0 0.422-0.189 0.422-0.422 0-0.002 0-0.004-0-0.005 0-0.001 0-0.003 0-0.005 0-0.233-0.189-0.422-0.422-0.422-0.233 0-0.422 0.189-0.422 0.422 0 0.002 0 0.004 0 0.005zM11.352 13.71c-0 0.002-0 0.003-0 0.005 0 0.233 0.189 0.422 0.422 0.422 0.233 0 0.422-0.189 0.422-0.422 0-0.002 0-0.004-0-0.005 0-0.001 0-0.003 0-0.005 0-0.233-0.189-0.422-0.422-0.422-0.233 0-0.422 0.189-0.422 0.422 0 0.002 0 0.004 0 0.005zM12.847 13.71c0 0.233 0.189 0.422 0.422 0.422s0.422-0.189 0.422-0.422c0-0.233-0.189-0.422-0.422-0.422-0.233 0-0.422 0.189-0.422 0.422zM20.402 8.594c-0 0.003-0 0.007-0 0.011 0 0.233 0.189 0.422 0.422 0.422 0.233 0 0.422-0.189 0.422-0.422 0-0.004-0-0.008-0-0.012 0-0.003 0-0.007 0-0.011 0-0.233-0.189-0.422-0.422-0.422-0.233 0-0.422 0.189-0.422 0.422 0 0.004 0 0.008 0 0.012zM8.312 13.71c-0 0.002-0 0.003-0 0.005 0 0.233 0.189 0.422 0.422 0.422 0.233 0 0.422-0.189 0.422-0.422 0-0.002 0-0.004-0-0.005 0-0.001 0-0.003 0-0.005 0-0.233-0.189-0.422-0.422-0.422-0.233 0-0.422 0.189-0.422 0.422 0 0.002 0 0.004 0 0.005zM9.807 13.71c-0 0.002-0 0.003-0 0.005 0 0.233 0.189 0.422 0.422 0.422 0.233 0 0.422-0.189 0.422-0.422 0-0.002 0-0.004-0-0.005 0-0.001 0-0.003 0-0.005 0-0.233-0.189-0.422-0.422-0.422-0.233 0-0.422 0.189-0.422 0.422 0 0.002 0 0.004 0 0.005zM8.312 15.237c-0 0.002-0 0.003-0 0.005 0 0.233 0.189 0.422 0.422 0.422 0.233 0 0.422-0.189 0.422-0.422 0-0.002 0-0.004-0-0.005 0-0.001 0-0.003 0-0.005 0-0.233-0.189-0.422-0.422-0.422-0.233 0-0.422 0.189-0.422 0.422 0 0.002 0 0.004 0 0.005zM9.807 15.237c-0 0.002-0 0.003-0 0.005 0 0.233 0.189 0.422 0.422 0.422 0.233 0 0.422-0.189 0.422-0.422 0-0.002 0-0.004-0-0.005 0-0.001 0-0.003 0-0.005 0-0.233-0.189-0.422-0.422-0.422-0.233 0-0.422 0.189-0.422 0.422 0 0.002 0 0.004 0 0.005zM14.378 15.237c0 0 0 0 0 0 0 0.233 0.189 0.422 0.422 0.422 0.233 0 0.422-0.189 0.422-0.422 0 0 0 0 0 0 0 0 0 0 0 0 0-0.233-0.189-0.422-0.422-0.422-0.233 0-0.422 0.189-0.422 0.422s0 0 0 0zM17.418 13.71c0 0.233 0.189 0.422 0.422 0.422s0.422-0.189 0.422-0.422c0-0.233-0.189-0.422-0.422-0.422-0.233 0-0.422 0.189-0.422 0.422zM18.913 15.237c-0 0.004-0 0.008-0 0.013 0 0.233 0.189 0.422 0.422 0.422 0.233 0 0.422-0.189 0.422-0.422 0-0.004-0-0.009-0-0.013 0-0.003 0-0.008 0-0.012 0-0.233-0.189-0.422-0.422-0.422-0.233 0-0.422 0.189-0.422 0.422 0 0.004 0 0.009 0 0.013zM18.913 13.71c-0 0.004-0 0.008-0 0.013 0 0.233 0.189 0.422 0.422 0.422 0.233 0 0.422-0.189 0.422-0.422 0-0.004-0-0.009-0-0.013 0-0.003 0-0.008 0-0.012 0-0.233-0.189-0.422-0.422-0.422-0.233 0-0.422 0.189-0.422 0.422 0 0.004 0 0.009 0 0.013zM14.378 13.71c0 0 0 0 0 0 0 0.233 0.189 0.422 0.422 0.422 0.233 0 0.422-0.189 0.422-0.422 0 0 0 0 0 0 0 0 0 0 0 0 0-0.233-0.189-0.422-0.422-0.422-0.233 0-0.422 0.189-0.422 0.422s0 0 0 0zM20.402 15.237c-0 0.003-0 0.007-0 0.011 0 0.233 0.189 0.422 0.422 0.422 0.233 0 0.422-0.189 0.422-0.422 0-0.004-0-0.008-0-0.012 0-0.003 0-0.007 0-0.011 0-0.233-0.189-0.422-0.422-0.422-0.233 0-0.422 0.189-0.422 0.422 0 0.004 0 0.008 0 0.012zM17.418 15.237c0 0.233 0.189 0.422 0.422 0.422s0.422-0.189 0.422-0.422c0-0.233-0.189-0.422-0.422-0.422-0.233 0-0.422 0.189-0.422 0.422zM15.874 15.237c-0 0.004-0 0.008-0 0.013 0 0.233 0.189 0.422 0.422 0.422 0.233 0 0.422-0.189 0.422-0.422 0-0.004-0-0.009-0-0.013 0-0.003 0-0.008 0-0.012 0-0.233-0.189-0.422-0.422-0.422-0.233 0-0.422 0.189-0.422 0.422 0 0.004 0 0.009 0 0.013zM15.874 13.71c-0 0.004-0 0.008-0 0.013 0 0.233 0.189 0.422 0.422 0.422 0.233 0 0.422-0.189 0.422-0.422 0-0.004-0-0.009-0-0.013 0-0.003 0-0.008 0-0.012 0-0.233-0.189-0.422-0.422-0.422-0.233 0-0.422 0.189-0.422 0.422 0 0.004 0 0.009 0 0.013zM14.378 8.594c0 0 0 0 0 0 0 0.233 0.189 0.422 0.422 0.422 0.233 0 0.422-0.189 0.422-0.422 0 0 0 0 0 0 0 0 0 0 0 0 0-0.233-0.189-0.422-0.422-0.422-0.233 0-0.422 0.189-0.422 0.422s0 0 0 0zM20.402 23.925c-0 0.003-0 0.007-0 0.011 0 0.233 0.189 0.422 0.422 0.422 0.233 0 0.422-0.189 0.422-0.422 0-0.004-0-0.008-0-0.012 0-0.003 0-0.007 0-0.011 0-0.233-0.189-0.422-0.422-0.422-0.233 0-0.422 0.189-0.422 0.422 0 0.004 0 0.008 0 0.012zM11.352 8.594c-0 0.002-0 0.003-0 0.005 0 0.233 0.189 0.422 0.422 0.422 0.233 0 0.422-0.189 0.422-0.422 0-0.002 0-0.004-0-0.005 0-0.001 0-0.003 0-0.005 0-0.233-0.189-0.422-0.422-0.422-0.233 0-0.422 0.189-0.422 0.422 0 0.002 0 0.004 0 0.005zM9.807 10.121c-0 0.002-0 0.003-0 0.005 0 0.233 0.189 0.422 0.422 0.422 0.233 0 0.422-0.189 0.422-0.422 0-0.002 0-0.004-0-0.005 0-0.001 0-0.003 0-0.005 0-0.233-0.189-0.422-0.422-0.422-0.233 0-0.422 0.189-0.422 0.422 0 0.002 0 0.004 0 0.005zM12.847 10.121c0 0.233 0.189 0.422 0.422 0.422s0.422-0.189 0.422-0.422c0-0.233-0.189-0.422-0.422-0.422-0.233 0-0.422 0.189-0.422 0.422zM24.8 6.78c0.037-0.138-0.022-0.287-0.156-0.353l-2.818-1.379c-0.042-0.021-0.088-0.032-0.134-0.032l-11.571 0c-0.041 0-0.082 0.008-0.12 0.024l-3.244 1.379c-0.142 0.061-0.21 0.215-0.171 0.361-0.007 0.026-0.016 0.051-0.016 0.079v5.076l-0 5.075c0 0.007 0.004 0.013 0.004 0.020-0.001 0.007-0.004 0.013-0.004 0.020v10.151c0 0.169 0.137 0.306 0.306 0.306h17.633c0.17 0 0.306-0.137 0.306-0.306l0-5.076v-5.076c0-0.007-0.004-0.013-0.004-0.020 0.001-0.007 0.004-0.013 0.004-0.020v-10.151c0-0.028-0.009-0.054-0.016-0.080zM10.183 5.63h11.438l1.888 0.924h-15.499l2.173-0.924zM24.203 25.122h-1.536c-0.251 0-0.457-0.205-0.457-0.457s0.205-0.457 0.457-0.457h1.536v0.913zM24.203 23.902h-1.536c-0.421 0-0.763 0.342-0.763 0.763s0.342 0.763 0.763 0.763h1.536v1.468l-17.020 0v-4.462h17.020v1.468zM24.203 20.159h-1.536c-0.251 0-0.457-0.205-0.457-0.457s0.205-0.457 0.457-0.457h1.536v0.913zM24.203 18.939h-1.536c-0.421 0-0.763 0.342-0.763 0.763s0.342 0.763 0.763 0.763h1.536v1.356l-17.020 0v-4.463h17.020v1.581zM24.203 14.93h-1.536c-0.251 0-0.457-0.205-0.457-0.457s0.205-0.457 0.457-0.457h1.536v0.913zM24.203 13.71h-1.536c-0.421 0-0.763 0.342-0.763 0.763s0.342 0.763 0.763 0.763h1.536v1.468h-17.020v-4.463h17.020v1.468zM24.203 9.967h-1.536c-0.251 0-0.457-0.205-0.457-0.457s0.205-0.457 0.457-0.457h1.536v0.913zM24.203 8.747h-1.536c-0.421 0-0.763 0.342-0.763 0.763s0.342 0.763 0.763 0.763h1.536v1.356l-17.020 0v-4.463h17.020v1.581zM8.312 8.594c-0 0.002-0 0.003-0 0.005 0 0.233 0.189 0.422 0.422 0.422 0.233 0 0.422-0.189 0.422-0.422 0-0.002 0-0.004-0-0.005 0-0.001 0-0.003 0-0.005 0-0.233-0.189-0.422-0.422-0.422-0.233 0-0.422 0.189-0.422 0.422 0 0.002 0 0.004 0 0.005zM12.847 8.594c0 0.233 0.189 0.422 0.422 0.422s0.422-0.189 0.422-0.422c0-0.233-0.189-0.422-0.422-0.422-0.233 0-0.422 0.189-0.422 0.422zM8.312 10.121c-0 0.002-0 0.003-0 0.005 0 0.233 0.189 0.422 0.422 0.422 0.233 0 0.422-0.189 0.422-0.422 0-0.002 0-0.004-0-0.005 0-0.001 0-0.003 0-0.005 0-0.233-0.189-0.422-0.422-0.422-0.233 0-0.422 0.189-0.422 0.422 0 0.002 0 0.004 0 0.005zM15.874 8.594c-0 0.004-0 0.008-0 0.013 0 0.233 0.189 0.422 0.422 0.422 0.233 0 0.422-0.189 0.422-0.422 0-0.004-0-0.009-0-0.013 0-0.003 0-0.008 0-0.012 0-0.233-0.189-0.422-0.422-0.422-0.233 0-0.422 0.189-0.422 0.422 0 0.004 0 0.009 0 0.013zM17.418 8.594c0 0.233 0.189 0.422 0.422 0.422s0.422-0.189 0.422-0.422c0-0.233-0.189-0.422-0.422-0.422-0.233 0-0.422 0.189-0.422 0.422zM17.418 10.121c0 0.233 0.189 0.422 0.422 0.422s0.422-0.189 0.422-0.422c0-0.233-0.189-0.422-0.422-0.422-0.233 0-0.422 0.189-0.422 0.422zM18.913 10.121c-0 0.004-0 0.008-0 0.013 0 0.233 0.189 0.422 0.422 0.422 0.233 0 0.422-0.189 0.422-0.422 0-0.004-0-0.009-0-0.013 0-0.003 0-0.008 0-0.012 0-0.233-0.189-0.422-0.422-0.422-0.233 0-0.422 0.189-0.422 0.422 0 0.004 0 0.009 0 0.013zM18.913 8.594c-0 0.004-0 0.008-0 0.013 0 0.233 0.189 0.422 0.422 0.422 0.233 0 0.422-0.189 0.422-0.422 0-0.004-0-0.009-0-0.013 0-0.003 0-0.008 0-0.012 0-0.233-0.189-0.422-0.422-0.422-0.233 0-0.422 0.189-0.422 0.422 0 0.004 0 0.009 0 0.013zM14.378 10.121c0 0 0 0 0 0 0 0.233 0.189 0.422 0.422 0.422 0.233 0 0.422-0.189 0.422-0.422 0 0 0 0 0 0 0 0 0 0 0 0 0-0.233-0.189-0.422-0.422-0.422-0.233 0-0.422 0.189-0.422 0.422s0 0 0 0zM20.402 13.71c-0 0.003-0 0.007-0 0.011 0 0.233 0.189 0.422 0.422 0.422 0.233 0 0.422-0.189 0.422-0.422 0-0.004-0-0.008-0-0.012 0-0.003 0-0.007 0-0.011 0-0.233-0.189-0.422-0.422-0.422-0.233 0-0.422 0.189-0.422 0.422 0 0.004 0 0.008 0 0.012zM15.874 10.121c-0 0.004-0 0.008-0 0.013 0 0.233 0.189 0.422 0.422 0.422 0.233 0 0.422-0.189 0.422-0.422 0-0.004-0-0.009-0-0.013 0-0.003 0-0.008 0-0.012 0-0.233-0.189-0.422-0.422-0.422-0.233 0-0.422 0.189-0.422 0.422 0 0.004 0 0.009 0 0.013zM20.402 10.121c-0 0.003-0 0.007-0 0.011 0 0.233 0.189 0.422 0.422 0.422 0.233 0 0.422-0.189 0.422-0.422 0-0.004-0-0.008-0-0.012 0-0.003 0-0.007 0-0.011 0-0.233-0.189-0.422-0.422-0.422-0.233 0-0.422 0.189-0.422 0.422 0 0.004 0 0.008 0 0.012zM9.807 8.594c-0 0.002-0 0.003-0 0.005 0 0.233 0.189 0.422 0.422 0.422 0.233 0 0.422-0.189 0.422-0.422 0-0.002 0-0.004-0-0.005 0-0.001 0-0.003 0-0.005 0-0.233-0.189-0.422-0.422-0.422-0.233 0-0.422 0.189-0.422 0.422 0 0.002 0 0.004 0 0.005zM14.378 25.452c0 0 0 0 0 0 0 0.233 0.189 0.422 0.422 0.422 0.233 0 0.422-0.189 0.422-0.422 0 0 0 0 0 0 0 0 0 0 0 0 0-0.233-0.189-0.422-0.422-0.422-0.233 0-0.422 0.189-0.422 0.422s0 0 0 0zM11.352 25.452c-0 0.002-0 0.003-0 0.005 0 0.233 0.189 0.422 0.422 0.422 0.233 0 0.422-0.189 0.422-0.422 0-0.002 0-0.004-0-0.005 0-0.001 0-0.003 0-0.005 0-0.233-0.189-0.422-0.422-0.422-0.233 0-0.422 0.189-0.422 0.422 0 0.002 0 0.004 0 0.005zM8.312 25.452c-0 0.002-0 0.003-0 0.005 0 0.233 0.189 0.422 0.422 0.422 0.233 0 0.422-0.189 0.422-0.422 0-0.002 0-0.004-0-0.005 0-0.001 0-0.003 0-0.005 0-0.233-0.189-0.422-0.422-0.422-0.233 0-0.422 0.189-0.422 0.422 0 0.002 0 0.004 0 0.005zM12.847 23.925c0 0.233 0.189 0.422 0.422 0.422s0.422-0.189 0.422-0.422c0-0.233-0.189-0.422-0.422-0.422-0.233 0-0.422 0.189-0.422 0.422zM11.352 23.925c-0 0.002-0 0.003-0 0.005 0 0.233 0.189 0.422 0.422 0.422 0.233 0 0.422-0.189 0.422-0.422 0-0.002 0-0.004-0-0.005 0-0.001 0-0.003 0-0.005 0-0.233-0.189-0.422-0.422-0.422-0.233 0-0.422 0.189-0.422 0.422 0 0.002 0 0.004 0 0.005zM8.312 23.925c-0 0.002-0 0.003-0 0.005 0 0.233 0.189 0.422 0.422 0.422 0.233 0 0.422-0.189 0.422-0.422 0-0.002 0-0.004-0-0.005 0-0.001 0-0.003 0-0.005 0-0.233-0.189-0.422-0.422-0.422-0.233 0-0.422 0.189-0.422 0.422 0 0.002 0 0.004 0 0.005zM9.807 23.925c-0 0.002-0 0.003-0 0.005 0 0.233 0.189 0.422 0.422 0.422 0.233 0 0.422-0.189 0.422-0.422 0-0.002 0-0.004-0-0.005 0-0.001 0-0.003 0-0.005 0-0.233-0.189-0.422-0.422-0.422-0.233 0-0.422 0.189-0.422 0.422 0 0.002 0 0.004 0 0.005zM9.807 25.452c-0 0.002-0 0.003-0 0.005 0 0.233 0.189 0.422 0.422 0.422 0.233 0 0.422-0.189 0.422-0.422 0-0.002 0-0.004-0-0.005 0-0.001 0-0.003 0-0.005 0-0.233-0.189-0.422-0.422-0.422-0.233 0-0.422 0.189-0.422 0.422 0 0.002 0 0.004 0 0.005zM12.847 25.452c0 0.233 0.189 0.422 0.422 0.422s0.422-0.189 0.422-0.422c0-0.233-0.189-0.422-0.422-0.422-0.233 0-0.422 0.189-0.422 0.422zM18.913 25.452c-0 0.004-0 0.008-0 0.013 0 0.233 0.189 0.422 0.422 0.422 0.233 0 0.422-0.189 0.422-0.422 0-0.004-0-0.009-0-0.013 0-0.003 0-0.008 0-0.012 0-0.233-0.189-0.422-0.422-0.422-0.233 0-0.422 0.189-0.422 0.422 0 0.004 0 0.009 0 0.013zM18.913 23.925c-0 0.004-0 0.008-0 0.013 0 0.233 0.189 0.422 0.422 0.422 0.233 0 0.422-0.189 0.422-0.422 0-0.004-0-0.009-0-0.013 0-0.003 0-0.008 0-0.012 0-0.233-0.189-0.422-0.422-0.422-0.233 0-0.422 0.189-0.422 0.422 0 0.004 0 0.009 0 0.013zM20.402 25.452c-0 0.003-0 0.007-0 0.011 0 0.233 0.189 0.422 0.422 0.422 0.233 0 0.422-0.189 0.422-0.422 0-0.004-0-0.008-0-0.012 0-0.003 0-0.007 0-0.011 0-0.233-0.189-0.422-0.422-0.422-0.233 0-0.422 0.189-0.422 0.422 0 0.004 0 0.008 0 0.012zM17.418 23.925c0 0.233 0.189 0.422 0.422 0.422s0.422-0.189 0.422-0.422c0-0.233-0.189-0.422-0.422-0.422-0.233 0-0.422 0.189-0.422 0.422zM17.418 25.452c0 0.233 0.189 0.422 0.422 0.422s0.422-0.189 0.422-0.422c0-0.233-0.189-0.422-0.422-0.422-0.233 0-0.422 0.189-0.422 0.422zM15.874 25.452c-0 0.004-0 0.008-0 0.013 0 0.233 0.189 0.422 0.422 0.422 0.233 0 0.422-0.189 0.422-0.422 0-0.004-0-0.009-0-0.013 0-0.003 0-0.008 0-0.012 0-0.233-0.189-0.422-0.422-0.422-0.233 0-0.422 0.189-0.422 0.422 0 0.004 0 0.009 0 0.013zM14.378 23.925c0 0 0 0 0 0 0 0.233 0.189 0.422 0.422 0.422 0.233 0 0.422-0.189 0.422-0.422 0 0 0 0 0 0 0 0 0 0 0 0 0-0.233-0.189-0.422-0.422-0.422-0.233 0-0.422 0.189-0.422 0.422s0 0 0 0zM15.874 23.925c-0 0.004-0 0.008-0 0.013 0 0.233 0.189 0.422 0.422 0.422 0.233 0 0.422-0.189 0.422-0.422 0-0.004-0-0.009-0-0.013 0-0.003 0-0.008 0-0.012 0-0.233-0.189-0.422-0.422-0.422-0.233 0-0.422 0.189-0.422 0.422 0 0.004 0 0.009 0 0.013zM12.847 18.826c0 0.233 0.189 0.422 0.422 0.422s0.422-0.189 0.422-0.422c0-0.233-0.189-0.422-0.422-0.422-0.233 0-0.422 0.189-0.422 0.422zM14.378 20.353c0 0 0 0 0 0 0 0.233 0.189 0.422 0.422 0.422 0.233 0 0.422-0.189 0.422-0.422 0 0 0 0 0 0 0 0 0 0 0 0 0-0.233-0.189-0.422-0.422-0.422-0.233 0-0.422 0.189-0.422 0.422s0 0 0 0zM12.847 20.353c0 0.233 0.189 0.422 0.422 0.422s0.422-0.189 0.422-0.422c0-0.233-0.189-0.422-0.422-0.422-0.233 0-0.422 0.189-0.422 0.422zM8.312 20.353c-0 0.002-0 0.003-0 0.005 0 0.233 0.189 0.422 0.422 0.422 0.233 0 0.422-0.189 0.422-0.422 0-0.002 0-0.004-0-0.005 0-0.001 0-0.003 0-0.005 0-0.233-0.189-0.422-0.422-0.422-0.233 0-0.422 0.189-0.422 0.422 0 0.002 0 0.004 0 0.005zM11.352 20.353c-0 0.002-0 0.003-0 0.005 0 0.233 0.189 0.422 0.422 0.422 0.233 0 0.422-0.189 0.422-0.422 0-0.002 0-0.004-0-0.005 0-0.001 0-0.003 0-0.005 0-0.233-0.189-0.422-0.422-0.422-0.233 0-0.422 0.189-0.422 0.422 0 0.002 0 0.004 0 0.005zM11.352 18.826c-0 0.002-0 0.003-0 0.005 0 0.233 0.189 0.422 0.422 0.422 0.233 0 0.422-0.189 0.422-0.422 0-0.002 0-0.004-0-0.005 0-0.001 0-0.003 0-0.005 0-0.233-0.189-0.422-0.422-0.422-0.233 0-0.422 0.189-0.422 0.422 0 0.002 0 0.004 0 0.005zM8.312 18.826c-0 0.002-0 0.003-0 0.005 0 0.233 0.189 0.422 0.422 0.422 0.233 0 0.422-0.189 0.422-0.422 0-0.002 0-0.004-0-0.005 0-0.001 0-0.003 0-0.005 0-0.233-0.189-0.422-0.422-0.422-0.233 0-0.422 0.189-0.422 0.422 0 0.002 0 0.004 0 0.005zM9.807 20.353c-0 0.002-0 0.003-0 0.005 0 0.233 0.189 0.422 0.422 0.422 0.233 0 0.422-0.189 0.422-0.422 0-0.002 0-0.004-0-0.005 0-0.001 0-0.003 0-0.005 0-0.233-0.189-0.422-0.422-0.422-0.233 0-0.422 0.189-0.422 0.422 0 0.002 0 0.004 0 0.005zM9.807 18.826c-0 0.002-0 0.003-0 0.005 0 0.233 0.189 0.422 0.422 0.422 0.233 0 0.422-0.189 0.422-0.422 0-0.002 0-0.004-0-0.005 0-0.001 0-0.003 0-0.005 0-0.233-0.189-0.422-0.422-0.422-0.233 0-0.422 0.189-0.422 0.422 0 0.002 0 0.004 0 0.005zM17.418 20.353c0 0.233 0.189 0.422 0.422 0.422s0.422-0.189 0.422-0.422c0-0.233-0.189-0.422-0.422-0.422-0.233 0-0.422 0.189-0.422 0.422zM18.913 20.353c-0 0.004-0 0.008-0 0.013 0 0.233 0.189 0.422 0.422 0.422 0.233 0 0.422-0.189 0.422-0.422 0-0.004-0-0.009-0-0.013 0-0.003 0-0.008 0-0.012 0-0.233-0.189-0.422-0.422-0.422-0.233 0-0.422 0.189-0.422 0.422 0 0.004 0 0.009 0 0.013zM18.913 18.826c-0 0.004-0 0.008-0 0.013 0 0.233 0.189 0.422 0.422 0.422 0.233 0 0.422-0.189 0.422-0.422 0-0.004-0-0.009-0-0.013 0-0.003 0-0.008 0-0.012 0-0.233-0.189-0.422-0.422-0.422-0.233 0-0.422 0.189-0.422 0.422 0 0.004 0 0.009 0 0.013zM17.418 18.826c0 0.233 0.189 0.422 0.422 0.422s0.422-0.189 0.422-0.422c0-0.233-0.189-0.422-0.422-0.422-0.233 0-0.422 0.189-0.422 0.422zM14.378 18.826c0 0 0 0 0 0 0 0.233 0.189 0.422 0.422 0.422 0.233 0 0.422-0.189 0.422-0.422 0 0 0 0 0 0 0 0 0 0 0 0 0-0.233-0.189-0.422-0.422-0.422-0.233 0-0.422 0.189-0.422 0.422s0 0 0 0zM20.402 20.353c-0 0.003-0 0.007-0 0.011 0 0.233 0.189 0.422 0.422 0.422 0.233 0 0.422-0.189 0.422-0.422 0-0.004-0-0.008-0-0.012 0-0.003 0-0.007 0-0.011 0-0.233-0.189-0.422-0.422-0.422-0.233 0-0.422 0.189-0.422 0.422 0 0.004 0 0.008 0 0.012zM20.402 18.826c-0 0.003-0 0.007-0 0.011 0 0.233 0.189 0.422 0.422 0.422 0.233 0 0.422-0.189 0.422-0.422 0-0.004-0-0.008-0-0.012 0-0.003 0-0.007 0-0.011 0-0.233-0.189-0.422-0.422-0.422-0.233 0-0.422 0.189-0.422 0.422 0 0.004 0 0.008 0 0.012zM15.874 20.353c-0 0.004-0 0.008-0 0.013 0 0.233 0.189 0.422 0.422 0.422 0.233 0 0.422-0.189 0.422-0.422 0-0.004-0-0.009-0-0.013 0-0.003 0-0.008 0-0.012 0-0.233-0.189-0.422-0.422-0.422-0.233 0-0.422 0.189-0.422 0.422 0 0.004 0 0.009 0 0.013zM15.874 18.826c-0 0.004-0 0.008-0 0.013 0 0.233 0.189 0.422 0.422 0.422 0.233 0 0.422-0.189 0.422-0.422 0-0.004-0-0.009-0-0.013 0-0.003 0-0.008 0-0.012 0-0.233-0.189-0.422-0.422-0.422-0.233 0-0.422 0.189-0.422 0.422 0 0.004 0 0.009 0 0.013z" fill="#000000" />
</svg>
