<?xml version="1.0" encoding="utf-8"?>
<!-- Generated by IcoMoon.io -->
<!DOCTYPE svg PUBLIC "-//W3C//DTD SVG 1.1//EN" "http://www.w3.org/Graphics/SVG/1.1/DTD/svg11.dtd">
<svg version="1.1" xmlns="http://www.w3.org/2000/svg" xmlns:xlink="http://www.w3.org/1999/xlink" width="32" height="32" viewBox="0 0 32 32">
<g>
</g>
	<path d="M15.994 10.463c2.346 0 4.255-1.909 4.255-4.255 0-2.346-1.909-4.254-4.255-4.254-2.346 0-4.254 1.909-4.254 4.254 0 2.346 1.909 4.255 4.254 4.255zM15.994 2.567c2.008 0 3.642 1.634 3.642 3.641 0 2.008-1.634 3.642-3.642 3.642s-3.641-1.634-3.641-3.642c0-2.008 1.633-3.641 3.641-3.641zM18.328 11.288h-4.668c-4.338 0-6.726 2.389-6.726 6.726v3.747c0 2.124 1.411 3.162 2.906 4.261l0.198 0.146v1.706c0 0.074 0.027 0.147 0.077 0.202 0.292 0.332 1.579 1.413 5.88 1.413 4.3 0 5.587-1.082 5.879-1.413 0.050-0.056 0.077-0.128 0.077-0.202v-1.706l0.197-0.145c1.495-1.099 2.908-2.137 2.908-4.262l-0-3.747c0-4.338-2.389-6.726-6.726-6.726zM15.86 13.633l0.235 0.006c0.002 0 0.005 0 0.008 0 0.010 0 0.019-0.001 0.029-0.002l0.119-0.011 0.859 12.754-1.063 0.924-1.063-0.924 0.876-12.748zM16.269 13.008l-0.177 0.017-0.213-0.006c-0.215-0.293-0.411-0.767-0.537-1.119h1.417c-0.133 0.361-0.351 0.825-0.491 1.107zM24.442 21.762c0 1.814-1.23 2.719-2.656 3.767l0-7.808c0-0.148-0.12-0.268-0.268-0.268-0.148 0-0.268 0.12-0.268 0.268v10.101c-0.44 0.346-1.768 1.055-5.255 1.055-3.617 0-4.91-0.762-5.3-1.091 0.007-0.024 0.015-0.048 0.015-0.075l0-9.99c0-0.148-0.12-0.268-0.268-0.268s-0.268 0.12-0.268 0.268v7.786c-1.412-1.038-2.626-1.944-2.626-3.745l0-3.747c0-2.789 1.061-6.114 6.113-6.114h1.034c0.095 0.29 0.309 0.887 0.594 1.336-0.008 0.024-0.019 0.047-0.021 0.074l-0.906 13.179c-0.007 0.096 0.032 0.189 0.105 0.253l1.379 1.198c0.058 0.050 0.129 0.075 0.201 0.075s0.143-0.025 0.201-0.075l1.379-1.198c0.072-0.063 0.111-0.156 0.105-0.252l-0.893-13.253c0.151-0.308 0.433-0.906 0.567-1.338h0.922c5.053 0 6.114 3.324 6.114 6.114l-0 3.747z" fill="#000000" />
</svg>
