<?xml version="1.0" encoding="utf-8"?>
<!-- Generated by IcoMoon.io -->
<!DOCTYPE svg PUBLIC "-//W3C//DTD SVG 1.1//EN" "http://www.w3.org/Graphics/SVG/1.1/DTD/svg11.dtd">
<svg version="1.1" xmlns="http://www.w3.org/2000/svg" xmlns:xlink="http://www.w3.org/1999/xlink" width="32" height="32" viewBox="0 0 32 32">
<g>
</g>
	<path d="M25.919 6.054c0.037-0.139-0.022-0.287-0.156-0.353l-2.818-1.379c-0.042-0.020-0.088-0.031-0.134-0.031l-11.572 0c-0.042 0-0.082 0.008-0.12 0.024l-3.244 1.38c-0.142 0.061-0.209 0.215-0.171 0.361-0.006 0.026-0.016 0.051-0.016 0.079v10.152c0 0.007 0.004 0.013 0.004 0.020-0.001 0.007-0.004 0.013-0.004 0.020v10.153c0 0.17 0.137 0.306 0.306 0.306h17.634c0.17 0 0.306-0.137 0.306-0.306v-5.076l-0-5.077c0-0.007-0.004-0.013-0.005-0.020 0.001-0.007 0.005-0.013 0.005-0.020v-10.152c0.001-0.028-0.009-0.054-0.016-0.080zM11.302 4.903h11.438l1.888 0.923h-15.499l2.173-0.923zM25.322 26.171h-17.021v-4.463h17.020v4.463h0.001zM25.322 21.095h-17.021v-4.463h17.020v4.463h0.001zM25.322 15.978h-17.021v-4.463h17.020v4.463h0.001zM25.322 8.327v0.913zM25.322 10.903h-17.021v-4.463h17.020v4.463h0.001zM9.412 7.951c0 0.234 0.189 0.422 0.422 0.422s0.422-0.188 0.422-0.422c0-0.233-0.189-0.421-0.422-0.421-0.233 0-0.422 0.188-0.422 0.421zM9.412 9.447c0 0.233 0.189 0.422 0.422 0.422s0.422-0.189 0.422-0.422c0-0.233-0.189-0.422-0.422-0.422-0.233 0-0.422 0.189-0.422 0.422zM24.14 7.877h-12.874c-0.084 0-0.153-0.069-0.153-0.153 0-0.084 0.069-0.153 0.153-0.153h12.874c0.084 0 0.154 0.069 0.154 0.153s-0.069 0.153-0.154 0.153zM24.14 8.796h-12.874c-0.084 0-0.153-0.069-0.153-0.153 0-0.084 0.069-0.153 0.153-0.153h12.874c0.084 0 0.154 0.069 0.154 0.153 0 0.085-0.069 0.153-0.154 0.153zM24.14 9.716h-12.874c-0.084 0-0.153-0.069-0.153-0.153 0-0.084 0.069-0.153 0.153-0.153h12.874c0.084 0 0.154 0.069 0.154 0.153 0 0.084-0.069 0.153-0.154 0.153zM24.14 13.087h-12.874c-0.084 0-0.153-0.069-0.153-0.153 0-0.084 0.069-0.153 0.153-0.153h12.874c0.084 0 0.154 0.069 0.154 0.153 0 0.084-0.069 0.153-0.154 0.153zM24.14 14.007h-12.874c-0.084 0-0.153-0.069-0.153-0.153s0.069-0.153 0.153-0.153h12.874c0.084 0 0.154 0.069 0.154 0.153s-0.069 0.153-0.154 0.153zM24.14 14.926h-12.874c-0.084 0-0.153-0.069-0.153-0.153s0.069-0.153 0.153-0.153h12.874c0.084 0 0.154 0.069 0.154 0.153s-0.069 0.153-0.154 0.153zM24.14 17.992h-12.874c-0.084 0-0.153-0.069-0.153-0.153s0.069-0.153 0.153-0.153h12.874c0.084 0 0.154 0.069 0.154 0.153s-0.069 0.153-0.154 0.153zM24.14 18.911h-12.874c-0.084 0-0.153-0.069-0.153-0.153s0.069-0.153 0.153-0.153h12.874c0.084 0 0.154 0.069 0.154 0.153s-0.069 0.153-0.154 0.153zM24.14 19.831h-12.874c-0.084 0-0.153-0.069-0.153-0.153s0.069-0.153 0.153-0.153h12.874c0.084 0 0.154 0.069 0.154 0.153s-0.069 0.153-0.154 0.153zM24.14 23.202h-12.874c-0.084 0-0.153-0.069-0.153-0.153s0.069-0.153 0.153-0.153h12.874c0.084 0 0.154 0.069 0.154 0.153s-0.069 0.153-0.154 0.153zM24.14 24.122h-12.874c-0.084 0-0.153-0.069-0.153-0.153s0.069-0.153 0.153-0.153h12.874c0.084 0 0.154 0.069 0.154 0.153s-0.069 0.153-0.154 0.153zM24.14 25.042h-12.874c-0.084 0-0.153-0.069-0.153-0.153s0.069-0.153 0.153-0.153h12.874c0.084 0 0.154 0.069 0.154 0.153s-0.069 0.153-0.154 0.153zM9.412 13.162c0 0.234 0.189 0.422 0.422 0.422s0.422-0.188 0.422-0.422c0-0.233-0.189-0.421-0.422-0.421-0.233 0-0.422 0.189-0.422 0.421zM9.412 14.657c0 0.233 0.189 0.422 0.422 0.422s0.422-0.189 0.422-0.422c0-0.233-0.189-0.422-0.422-0.422-0.233 0-0.422 0.189-0.422 0.422zM9.412 18.066c0 0.233 0.189 0.422 0.422 0.422s0.422-0.189 0.422-0.422c0-0.233-0.189-0.421-0.422-0.421-0.233 0-0.422 0.189-0.422 0.421zM9.412 19.562c0 0.233 0.189 0.421 0.422 0.421s0.422-0.189 0.422-0.421c0-0.234-0.189-0.422-0.422-0.422-0.233 0-0.422 0.189-0.422 0.422zM9.412 23.277c0 0.233 0.189 0.422 0.422 0.422s0.422-0.189 0.422-0.422c0-0.233-0.189-0.421-0.422-0.421-0.233 0-0.422 0.189-0.422 0.421zM9.412 24.773c0 0.233 0.189 0.422 0.422 0.422s0.422-0.189 0.422-0.422c0-0.234-0.189-0.422-0.422-0.422-0.233 0-0.422 0.188-0.422 0.422z" fill="#000000" />
</svg>
