<?xml version="1.0" encoding="utf-8"?>
<!-- Generated by IcoMoon.io -->
<!DOCTYPE svg PUBLIC "-//W3C//DTD SVG 1.1//EN" "http://www.w3.org/Graphics/SVG/1.1/DTD/svg11.dtd">
<svg version="1.1" xmlns="http://www.w3.org/2000/svg" xmlns:xlink="http://www.w3.org/1999/xlink" width="32" height="32" viewBox="0 0 32 32">
<g>
</g>
	<path d="M27.548 8.295h-0.359v-0.562c0-0.158-0.128-0.286-0.286-0.286l-9.363-0c-0.737 0-1.157 0.278-1.393 0.545-0.235-0.267-0.655-0.545-1.392-0.545h-9.363c-0.158 0-0.286 0.128-0.286 0.286v0.562h-0.359c-0.488 0-0.884 0.504-0.884 1.123v13.487c0 0.62 0.504 1.124 1.124 1.124h9.509c0.211 0.16 0.785 0.523 1.656 0.523 0.87 0 1.439-0.363 1.649-0.523l9.554 0c0.619 0 1.124-0.504 1.124-1.124v-13.487c0-0.619-0.417-1.123-0.929-1.123zM16.365 8.727c0.005-0.005 0.008-0.011 0.012-0.017 0.013-0.018 0.022-0.038 0.031-0.058 0.004-0.010 0.012-0.019 0.016-0.030 0.006-0.025 0.185-0.602 1.116-0.602h9.078v8.21c-0.089 0.202-0.228 0.392-0.418 0.566-0.009 0.006-0.019 0.008-0.026 0.015l-0.156 0.134c-1.083 0.809-3.080 1.002-3.995 0.777-0.064-0.016-0.13-0.003-0.183 0.037-0.012 0.009-0.018 0.022-0.028 0.033h-3.065c-0.926 0-1.263 0.222-1.298 0.247-0.058 0.042-0.072 0.122-0.031 0.182 0.025 0.037 0.066 0.056 0.109 0.056 0.026 0 0.051-0.007 0.074-0.023 0.003-0.002 0.305-0.199 1.146-0.199h3.001c-0.004 0.077-0.011 0.182-0.024 0.311l-0.040 0.349c-0.020 0.144-0.047 0.304-0.080 0.471h-2.857c-0.926 0-1.263 0.222-1.298 0.247-0.058 0.042-0.071 0.122-0.031 0.182 0.026 0.037 0.066 0.056 0.109 0.056 0.026 0 0.051-0.007 0.074-0.023 0.003-0.002 0.305-0.199 1.146-0.199h2.803c-0.061 0.27-0.141 0.555-0.245 0.838l-0.118 0.293h-2.441c-0.926 0-1.263 0.222-1.298 0.247-0.058 0.042-0.072 0.122-0.031 0.182 0.025 0.037 0.066 0.056 0.109 0.056 0.026 0 0.051-0.008 0.074-0.023 0.003-0.002 0.305-0.199 1.146-0.199h2.318c-0.161 0.32-0.358 0.621-0.603 0.875l-0.142 0.122c-0.015 0.014-0.025 0.030-0.035 0.046-0.247 0.212-0.536 0.375-0.873 0.473h-1.871c-0.557 0-0.929 0.164-1.174 0.346l-0-13.978zM26.284 17.277c0.009-0.006 0.018-0.012 0.027-0.019 0.116-0.088 0.214-0.184 0.305-0.282v5.382h-6.261c0.142-0.099 0.279-0.206 0.402-0.333l5.527-4.749zM21.589 20.748c0.368-0.84 0.54-1.788 0.584-2.564 0.695 0.105 1.721 0.046 2.661-0.223l-3.246 2.787zM5.677 20.778v-12.758h9.078c0.926 0 1.107 0.572 1.116 0.602 0.004 0.013 0.012 0.023 0.018 0.036 0.007 0.015 0.013 0.030 0.022 0.044 0.006 0.009 0.011 0.019 0.018 0.028v13.974c-0.245-0.183-0.618-0.346-1.173-0.346l-9.078 0v-1.58zM27.906 22.906c0 0.305-0.249 0.554-0.553 0.554l-9.635-0c-0.002 0-0.004 0.001-0.006 0.001-0.073-0.003-0.147 0.022-0.205 0.074-0.020 0.019-0.5 0.448-1.355 0.448-0.724 0-1.181-0.306-1.318-0.412-0.052-0.066-0.13-0.111-0.221-0.111l-9.626 0c-0.305 0-0.553-0.249-0.553-0.554v-13.487c0-0.316 0.166-0.553 0.314-0.553h0.359v13.778c0 0.158 0.128 0.286 0.286 0.286h9.364c0.418 0 0.736 0.111 0.945 0.331 0.057 0.068 0.186 0.17 0.446 0.17 0.26 0 0.393-0.109 0.448-0.171 0.21-0.219 0.527-0.33 0.945-0.33l9.364 0c0.158 0 0.286-0.128 0.286-0.286l0-13.778h0.359c0.17 0 0.359 0.227 0.359 0.553l-0 13.487zM17.525 15.487c0.026 0 0.051-0.007 0.074-0.023 0.003-0.002 0.305-0.199 1.146-0.199h6.546c0.073 0 0.132-0.058 0.132-0.132 0-0.072-0.058-0.132-0.132-0.132h-6.546c-0.926 0-1.263 0.222-1.298 0.247-0.058 0.042-0.072 0.122-0.031 0.182 0.025 0.037 0.066 0.056 0.109 0.056zM17.525 16.881c0.026 0 0.051-0.008 0.074-0.023 0.003-0.002 0.305-0.199 1.146-0.199h6.546c0.073 0 0.132-0.059 0.132-0.132 0-0.073-0.058-0.132-0.132-0.132l-6.546-0c-0.926 0-1.263 0.222-1.298 0.247-0.058 0.042-0.072 0.122-0.031 0.182 0.025 0.037 0.066 0.056 0.109 0.056zM17.525 9.911c0.026 0 0.051-0.007 0.074-0.023 0.003-0.002 0.305-0.199 1.146-0.199h6.546c0.073 0 0.132-0.059 0.132-0.132s-0.058-0.132-0.132-0.132h-6.546c-0.926 0-1.263 0.222-1.298 0.247-0.058 0.042-0.072 0.122-0.031 0.182 0.025 0.037 0.066 0.056 0.109 0.056zM14.74 20.826c-0.035-0.026-0.372-0.248-1.298-0.248h-6.547c-0.072 0-0.132 0.059-0.132 0.132 0 0.073 0.059 0.132 0.132 0.132h6.547c0.834 0 1.138 0.194 1.146 0.199 0.023 0.016 0.050 0.023 0.075 0.023 0.041 0 0.082-0.019 0.107-0.055 0.043-0.058 0.029-0.141-0.030-0.183zM17.525 11.305c0.026 0 0.051-0.008 0.074-0.023 0.003-0.002 0.305-0.199 1.146-0.199h6.546c0.073 0 0.132-0.059 0.132-0.132s-0.058-0.132-0.132-0.132l-6.546-0c-0.926 0-1.263 0.222-1.298 0.247-0.058 0.042-0.072 0.122-0.031 0.182 0.025 0.037 0.066 0.056 0.109 0.056zM17.525 12.699c0.026 0 0.051-0.007 0.074-0.023 0.003-0.002 0.305-0.199 1.146-0.199h6.546c0.073 0 0.132-0.059 0.132-0.132s-0.058-0.132-0.132-0.132h-6.546c-0.926 0-1.263 0.222-1.298 0.247-0.058 0.042-0.072 0.122-0.031 0.182 0.025 0.037 0.066 0.056 0.109 0.056zM17.525 14.093c0.026 0 0.052-0.006 0.074-0.023 0.003-0.002 0.305-0.199 1.146-0.199h6.546c0.073 0 0.132-0.058 0.132-0.131 0-0.072-0.058-0.132-0.132-0.132l-6.546-0c-0.926 0-1.263 0.222-1.298 0.247-0.058 0.042-0.072 0.123-0.031 0.182 0.025 0.037 0.066 0.056 0.109 0.056zM13.442 16.396h-6.547c-0.073 0-0.132 0.059-0.132 0.132s0.059 0.133 0.132 0.133h6.547c0.833 0 1.136 0.195 1.145 0.201 0.023 0.016 0.050 0.025 0.077 0.025 0.041 0 0.082-0.019 0.107-0.055 0.043-0.059 0.030-0.142-0.030-0.185-0.035-0.025-0.372-0.25-1.299-0.25zM6.895 18.054h6.547c0.833 0 1.136 0.195 1.145 0.2 0.023 0.016 0.050 0.024 0.076 0.024 0.041 0 0.082-0.019 0.107-0.054 0.042-0.059 0.030-0.142-0.030-0.185-0.035-0.026-0.372-0.25-1.299-0.25l-6.547 0c-0.073 0-0.132 0.059-0.132 0.132s0.059 0.132 0.132 0.132zM6.895 9.692h6.547c0.832 0 1.134 0.2 1.143 0.206 0.024 0.017 0.051 0.026 0.078 0.026 0.041 0 0.082-0.019 0.108-0.054 0.044-0.059 0.032-0.143-0.028-0.187-0.035-0.026-0.373-0.258-1.302-0.258l-6.547-0c-0.074 0-0.134 0.060-0.134 0.134s0.061 0.134 0.134 0.134zM6.895 15.267h6.547c0.832 0 1.136 0.197 1.144 0.202 0.024 0.017 0.051 0.025 0.077 0.025 0.041 0 0.082-0.019 0.107-0.054 0.044-0.059 0.031-0.142-0.029-0.186-0.035-0.026-0.372-0.253-1.3-0.253l-6.547 0c-0.073 0-0.133 0.060-0.133 0.133-0 0.073 0.060 0.133 0.133 0.133zM13.442 19.184h-6.547c-0.073 0-0.132 0.059-0.132 0.132 0 0.073 0.058 0.132 0.132 0.132h6.547c0.834 0 1.137 0.194 1.146 0.2 0.023 0.016 0.049 0.024 0.075 0.024 0.041 0 0.082-0.019 0.107-0.055 0.042-0.059 0.030-0.141-0.030-0.184-0.036-0.026-0.372-0.249-1.299-0.249zM13.442 13.606h-6.547c-0.074 0-0.133 0.060-0.133 0.133s0.059 0.133 0.133 0.133h6.547c0.832 0 1.135 0.197 1.144 0.203 0.023 0.017 0.050 0.025 0.077 0.025 0.041 0 0.082-0.019 0.107-0.054 0.044-0.059 0.031-0.142-0.028-0.186-0.035-0.026-0.373-0.254-1.3-0.254zM13.442 10.818h-6.547c-0.074 0-0.134 0.060-0.134 0.134 0 0.074 0.060 0.134 0.134 0.134h6.547c0.832 0 1.134 0.199 1.143 0.205 0.024 0.017 0.051 0.025 0.078 0.025 0.041 0 0.082-0.019 0.108-0.054 0.044-0.059 0.031-0.143-0.028-0.187-0.036-0.026-0.373-0.256-1.301-0.256zM6.895 12.479h6.547c0.832 0 1.135 0.198 1.143 0.204 0.024 0.017 0.051 0.025 0.078 0.025 0.041 0 0.082-0.019 0.108-0.054 0.044-0.059 0.031-0.143-0.029-0.186-0.035-0.026-0.372-0.255-1.3-0.255l-6.547-0c-0.074 0-0.134 0.060-0.134 0.134s0.060 0.133 0.134 0.133z" fill="#000000" />
</svg>
