<?xml version="1.0" encoding="utf-8"?>
<!-- Generated by IcoMoon.io -->
<!DOCTYPE svg PUBLIC "-//W3C//DTD SVG 1.1//EN" "http://www.w3.org/Graphics/SVG/1.1/DTD/svg11.dtd">
<svg version="1.1" xmlns="http://www.w3.org/2000/svg" xmlns:xlink="http://www.w3.org/1999/xlink" width="32" height="32" viewBox="0 0 32 32">
<g>
</g>
	<path d="M16.511 4.667c-6.249 0-11.333 5.084-11.333 11.333 0 6.25 5.084 11.333 11.333 11.333 6.249 0 11.333-5.084 11.333-11.333 0-6.25-5.084-11.333-11.333-11.333zM16.511 26.782c-5.945 0-10.782-4.836-10.782-10.782s4.837-10.782 10.782-10.782c5.945 0 10.782 4.837 10.782 10.782 0 5.946-4.837 10.782-10.782 10.782zM16.557 6.046c-5.446 0-9.876 4.43-9.876 9.876s4.43 9.876 9.876 9.876c5.446 0 9.876-4.431 9.876-9.877s-4.431-9.876-9.876-9.876zM24.923 20.335l-0.858-0.496c-0.173-0.101-0.394-0.041-0.494 0.132-0.1 0.174-0.041 0.395 0.132 0.494l0.857 0.496c-0.755 1.195-1.77 2.21-2.966 2.965l-0.493-0.857c-0.1-0.174-0.322-0.233-0.494-0.133-0.174 0.099-0.233 0.321-0.134 0.494l0.494 0.859c-1.218 0.645-2.592 1.030-4.049 1.086v-0.99c0-0.2-0.162-0.362-0.362-0.362-0.2 0-0.362 0.162-0.362 0.362v0.99c-1.458-0.055-2.833-0.441-4.050-1.086l0.495-0.858c0.101-0.174 0.041-0.395-0.133-0.495-0.173-0.1-0.395-0.041-0.494 0.132l-0.494 0.857c-1.194-0.755-2.209-1.769-2.964-2.963l0.856-0.493c0.173-0.1 0.233-0.322 0.133-0.494-0.101-0.173-0.322-0.233-0.495-0.133l-0.858 0.494c-0.645-1.218-1.031-2.592-1.086-4.050h0.991c0.199 0 0.362-0.162 0.362-0.362 0-0.2-0.162-0.362-0.362-0.362h-0.991c0.055-1.458 0.441-2.832 1.086-4.050l0.86 0.497c0.058 0.033 0.119 0.048 0.181 0.048 0.125 0 0.247-0.065 0.314-0.181 0.101-0.174 0.041-0.395-0.133-0.495l-0.858-0.495c0.755-1.195 1.769-2.209 2.964-2.965l0.494 0.857c0.068 0.116 0.19 0.181 0.314 0.181 0.062 0 0.123-0.016 0.181-0.048 0.173-0.101 0.233-0.322 0.133-0.495l-0.496-0.858c1.218-0.645 2.593-1.031 4.051-1.086l-0 0.001v0.993c0 0.2 0.162 0.362 0.362 0.362 0.2 0 0.362-0.162 0.362-0.362v-0.994c1.458 0.055 2.833 0.441 4.050 1.086-0 0.001-0.001 0.001-0.001 0.001l-0.495 0.857c-0.1 0.173-0.040 0.395 0.133 0.495 0.058 0.032 0.12 0.048 0.181 0.048 0.125 0 0.247-0.065 0.314-0.181l0.495-0.857c1.195 0.756 2.21 1.77 2.965 2.966l-0.856 0.494c-0.173 0.1-0.233 0.322-0.132 0.495 0.067 0.116 0.189 0.181 0.313 0.181 0.062 0 0.123-0.016 0.181-0.048l0.858-0.495c0.645 1.218 1.030 2.591 1.086 4.049h-0.991c-0.2 0-0.362 0.162-0.362 0.362 0 0.2 0.162 0.362 0.362 0.362h0.991c-0.055 1.458-0.441 2.832-1.087 4.050zM20.154 17.675l-3.111-1.831v-5.499c0-0.305-0.247-0.552-0.552-0.552-0.305 0-0.552 0.247-0.552 0.552v5.823c0 0.233 0.144 0.43 0.347 0.512l3.308 1.947c0.089 0.051 0.185 0.076 0.28 0.076 0.189 0 0.373-0.097 0.476-0.272 0.154-0.263 0.067-0.602-0.196-0.756z" fill="#000000" />
</svg>
