<?xml version="1.0" encoding="utf-8"?>
<!-- Generated by IcoMoon.io -->
<!DOCTYPE svg PUBLIC "-//W3C//DTD SVG 1.1//EN" "http://www.w3.org/Graphics/SVG/1.1/DTD/svg11.dtd">
<svg version="1.1" xmlns="http://www.w3.org/2000/svg" xmlns:xlink="http://www.w3.org/1999/xlink" width="32" height="32" viewBox="0 0 32 32">
<g>
</g>
	<path d="M29.954 15.617l-4.8-3.971c-0.25-0.186-0.521-0.212-0.726-0.077-0.244 0.162-0.327 0.423-0.218 0.67l0.588 1.912-6.768 0.41c-0.060-0.075-0.127-0.146-0.198-0.211l0.409-6.756 1.912 0.588c0.245 0.108 0.51 0.023 0.671-0.219 0.065-0.099 0.189-0.367-0.087-0.738l-3.961-4.787c-0.058-0.070-0.145-0.111-0.236-0.111s-0.178 0.041-0.236 0.111l-3.97 4.799c-0.268 0.359-0.143 0.627-0.077 0.726 0.16 0.241 0.425 0.326 0.67 0.218l1.911-0.588 0.401 6.763c-0.068 0.063-0.131 0.13-0.189 0.203l-6.767-0.41 0.588-1.912c0.11-0.247 0.026-0.508-0.218-0.671-0.203-0.134-0.466-0.116-0.738 0.087l-4.788 3.962c-0.070 0.058-0.111 0.145-0.111 0.236s0.041 0.178 0.111 0.236l4.799 3.97c0.146 0.109 0.293 0.164 0.437 0.164 0.104 0 0.204-0.030 0.289-0.087 0.244-0.162 0.327-0.423 0.218-0.67l-0.588-1.911 6.954-0.412c0.005 0.005 0.010 0.009 0.015 0.014l-0.414 7.261-1.91-0.588c-0.245-0.109-0.51-0.022-0.67 0.218-0.066 0.099-0.191 0.368 0.086 0.738l3.961 4.787c0.058 0.070 0.145 0.111 0.236 0.111s0.178-0.041 0.236-0.111l3.97-4.8c0.266-0.358 0.143-0.626 0.077-0.726-0.16-0.241-0.425-0.326-0.67-0.218l-1.911 0.588-0.423-7.252c0.008-0.007 0.017-0.015 0.025-0.022l6.954 0.412-0.588 1.911c-0.109 0.247-0.026 0.507 0.218 0.67 0.085 0.057 0.185 0.087 0.29 0.087 0.144 0 0.291-0.055 0.448-0.173l4.788-3.961c0.070-0.058 0.111-0.145 0.111-0.236s-0.040-0.178-0.11-0.237zM17.989 15.753c0 0.284-0.085 0.548-0.227 0.772-0.003 0.005-0.005 0.010-0.008 0.015-0.138 0.211-0.33 0.381-0.556 0.498-0.006 0.003-0.010 0.006-0.016 0.008-0.195 0.097-0.411 0.157-0.642 0.157s-0.448-0.059-0.642-0.157c-0.009-0.005-0.017-0.009-0.026-0.014-0.224-0.118-0.415-0.288-0.552-0.501-0.001-0.002-0.002-0.005-0.003-0.006-0.142-0.224-0.227-0.488-0.227-0.772 0-0.201 0.042-0.393 0.116-0.568 0.021-0.048 0.049-0.091 0.074-0.136 0.098-0.176 0.231-0.329 0.39-0.45 0.059-0.045 0.123-0.084 0.189-0.12 0.203-0.11 0.434-0.178 0.681-0.178 0.243 0 0.469 0.066 0.671 0.172 0.070 0.037 0.136 0.077 0.199 0.124 0.155 0.118 0.283 0.265 0.382 0.434 0.030 0.050 0.060 0.099 0.083 0.153 0.074 0.175 0.116 0.367 0.116 0.568zM15.425 7.169c-0.006-0.094-0.054-0.18-0.131-0.234-0.078-0.054-0.175-0.069-0.265-0.041l-2.169 0.667 3.679-4.446 3.679 4.446-2.17-0.668c-0.090-0.028-0.187-0.013-0.265 0.041s-0.126 0.139-0.131 0.233l-0.413 6.809c-0.218-0.086-0.453-0.135-0.701-0.135-0.251 0-0.491 0.050-0.71 0.138l-0.404-6.812zM7.854 16.967c-0.094 0.006-0.18 0.054-0.234 0.131-0.054 0.077-0.069 0.175-0.041 0.265l0.668 2.169-4.446-3.678 4.446-3.679-0.668 2.17c-0.028 0.090-0.013 0.187 0.041 0.265 0.053 0.077 0.139 0.126 0.234 0.131l6.871 0.416c-0.062 0.188-0.097 0.388-0.097 0.597 0 0.287 0.066 0.558 0.179 0.802l-6.953 0.412zM17.652 24.844c0.006 0.094 0.054 0.18 0.131 0.234 0.077 0.054 0.175 0.069 0.265 0.041l2.169-0.667-3.678 4.446-3.679-4.446 2.17 0.668c0.090 0.028 0.188 0.013 0.265-0.041 0.077-0.054 0.125-0.14 0.131-0.234l0.417-7.315c0.216 0.085 0.451 0.133 0.697 0.133 0.242 0 0.474-0.047 0.687-0.13l0.426 7.312zM24.831 19.533l0.667-2.17c0.028-0.090 0.012-0.187-0.041-0.265-0.054-0.077-0.14-0.125-0.234-0.131l-6.954-0.412c0.114-0.244 0.179-0.516 0.179-0.802 0-0.208-0.035-0.409-0.097-0.596l6.872-0.416c0.094-0.006 0.18-0.054 0.233-0.131 0.054-0.077 0.069-0.175 0.041-0.265l-0.667-2.169 4.446 3.678-4.446 3.679z" fill="#000000" />
</svg>
