<?xml version="1.0" encoding="utf-8"?>
<!-- Generated by IcoMoon.io -->
<!DOCTYPE svg PUBLIC "-//W3C//DTD SVG 1.1//EN" "http://www.w3.org/Graphics/SVG/1.1/DTD/svg11.dtd">
<svg version="1.1" xmlns="http://www.w3.org/2000/svg" xmlns:xlink="http://www.w3.org/1999/xlink" width="32" height="32" viewBox="0 0 32 32">
<g>
</g>
	<path d="M24.873 23.563h-1.622l0-15.519c0-0.137-0.111-0.249-0.249-0.249h-4.498c-0.137 0-0.249 0.111-0.249 0.249v2.27h-4.16c-0.137 0-0.248 0.111-0.248 0.249v1.766l-4.044 0c-0.137 0-0.248 0.111-0.248 0.249v10.985h-2.098l0-15.457c0-0.183-0.148-0.331-0.331-0.331-0.183 0-0.331 0.148-0.331 0.331v15.788c0 0.182 0.148 0.33 0.331 0.33l17.747 0c0.183 0 0.331-0.148 0.331-0.33 0-0.183-0.148-0.331-0.331-0.331zM22.755 8.293v15.27h-3.995v-13c0-0.012-0.005-0.022-0.007-0.034v-2.236l4.002 0zM18.256 10.811v12.751h-3.898v-10.985c0-0.024-0.007-0.045-0.014-0.066v-1.7l3.912 0zM10.052 12.826h3.795v10.736l-3.795 0v-10.737z" fill="#000000" />
</svg>
