<?xml version="1.0" encoding="utf-8"?>
<!-- Generated by IcoMoon.io -->
<!DOCTYPE svg PUBLIC "-//W3C//DTD SVG 1.1//EN" "http://www.w3.org/Graphics/SVG/1.1/DTD/svg11.dtd">
<svg version="1.1" xmlns="http://www.w3.org/2000/svg" xmlns:xlink="http://www.w3.org/1999/xlink" width="32" height="32" viewBox="0 0 32 32">
<g>
</g>
	<path d="M27.994 14.654l-2.363-2.614c-0.85-1.862-2.231-3.432-3.945-4.521 0.094-0.275 0.147-0.568 0.147-0.873 0-1.495-1.216-2.711-2.71-2.711-1.236 0-2.28 0.832-2.604 1.965-0.149-0.006-0.296-0.017-0.446-0.017-2.545 0-4.881 0.91-6.7 2.421l-1.096-0.89c-0.049-0.040-0.114-0.051-0.174-0.033-0.059 0.019-0.106 0.068-0.122 0.129l-0.911 3.47c-0.953 1.581-1.502 3.431-1.502 5.408 0 0.26 0.011 0.517 0.030 0.772-0.964 0.416-1.64 1.374-1.64 2.489 0 1.494 1.217 2.711 2.711 2.711 0.244 0 0.478-0.035 0.703-0.096 1.413 2.086 3.554 3.639 6.057 4.29l-0.114 1.31c-0.006 0.063 0.022 0.123 0.070 0.162s0.116 0.050 0.175 0.029l3.418-1.206c1.958-0.168 3.763-0.877 5.268-1.973 0.46 0.359 1.036 0.575 1.663 0.575 1.495 0 2.711-1.216 2.711-2.711 0-0.827-0.373-1.568-0.959-2.065 0.589-1.31 0.917-2.762 0.917-4.288 0-0.334-0.018-0.665-0.048-0.991l1.384-0.442c0.060-0.019 0.106-0.068 0.122-0.127 0.016-0.061-0-0.126-0.042-0.173zM17.090 6.619c0.003-0.234 0.047-0.458 0.123-0.668 0.284-0.78 1.031-1.34 1.909-1.34 1.121 0 2.033 0.912 2.033 2.034 0 0.179-0.026 0.352-0.070 0.518-0.059 0.224-0.153 0.434-0.28 0.621-0.366 0.539-0.984 0.894-1.683 0.894-1.121 0-2.034-0.912-2.034-2.033 0-0.009 0.001-0.017 0.001-0.026zM6.989 21.654c-0.104 0.017-0.211 0.028-0.32 0.028-1.121 0-2.033-0.912-2.033-2.033 0-0.76 0.42-1.423 1.039-1.772 0.201-0.114 0.424-0.193 0.66-0.232 0.109-0.018 0.22-0.030 0.334-0.030 1.121 0 2.034 0.912 2.034 2.034 0 0.766-0.426 1.433-1.053 1.78-0.202 0.112-0.425 0.188-0.662 0.226zM25.942 22.741c0 1.121-0.912 2.033-2.033 2.033-0.408 0-0.788-0.122-1.106-0.33-0.193-0.125-0.362-0.283-0.502-0.465-0.265-0.343-0.425-0.772-0.425-1.238 0-1.121 0.912-2.034 2.033-2.034 0.317 0 0.616 0.075 0.884 0.205 0.207 0.101 0.395 0.233 0.556 0.394 0.366 0.368 0.593 0.875 0.593 1.434zM25.083 20.301c-0.356-0.172-0.754-0.272-1.174-0.272-1.495 0-2.711 1.216-2.711 2.711 0 0.622 0.213 1.194 0.567 1.651-1.5 1.069-3.312 1.728-5.27 1.811l-2.642-1.515c-0.054-0.032-0.121-0.033-0.176-0.003-0.056 0.029-0.093 0.084-0.099 0.146l-0.090 1.035c-2.246-0.613-4.169-2.009-5.47-3.87 0.813-0.468 1.362-1.345 1.362-2.348 0-1.495-1.217-2.711-2.711-2.711-0.135 0-0.268 0.013-0.398 0.033-0.012-0.194-0.025-0.387-0.025-0.583 0-2 0.602-3.861 1.632-5.414l2.726-1.331c0.057-0.028 0.095-0.082 0.102-0.145 0.008-0.062-0.018-0.124-0.066-0.164l-0.729-0.593c1.687-1.362 3.831-2.18 6.162-2.18 0.115 0 0.229 0.009 0.343 0.013-0.001 0.024-0.004 0.047-0.004 0.071 0 1.494 1.216 2.711 2.711 2.711 0.946 0 1.779-0.488 2.264-1.224 1.672 1.080 3 2.65 3.77 4.51l-0.382 3.041c-0.008 0.062 0.017 0.124 0.066 0.164 0.048 0.041 0.114 0.053 0.173 0.035l0.853-0.273c0.020 0.258 0.034 0.517 0.034 0.779 0 1.392-0.293 2.714-0.817 3.915z" fill="#000000" />
</svg>
