<?xml version="1.0" encoding="utf-8"?>
<!-- Generated by IcoMoon.io -->
<!DOCTYPE svg PUBLIC "-//W3C//DTD SVG 1.1//EN" "http://www.w3.org/Graphics/SVG/1.1/DTD/svg11.dtd">
<svg version="1.1" xmlns="http://www.w3.org/2000/svg" xmlns:xlink="http://www.w3.org/1999/xlink" width="32" height="32" viewBox="0 0 32 32">
<g>
</g>
	<path d="M15.473 2.894c-0 0.001-0 0.002-0 0.003 0 0.088 0.438 0.16 0.978 0.16 0.54 0 0.978-0.071 0.978-0.16 0-0.001-0-0.002-0-0.003 0-0.001 0-0.002 0-0.003 0-0.088-0.438-0.16-0.978-0.16-0.54 0-0.978 0.071-0.978 0.16 0 0.001 0 0.002 0 0.003zM18.358 9.009l-0.341-4.014c0-0.054-0.003-0.107-0.008-0.159 0.169-0.103 0.273-0.241 0.273-0.426l-0-1.73c0-0.582-1.024-0.704-1.883-0.704s-1.883 0.122-1.883 0.704v1.73c0 0.185 0.104 0.323 0.273 0.426-0.006 0.052-0.008 0.105-0.008 0.159l-0.341 4.014c-2.22 1.347-2.683 3.67-2.71 6.267-0.011 0.043 0.159 12.069 0.159 12.069 0 0.249 0.21 0.473 0.557 0.666l0.377 0.178c0.614 0.246 1.473 0.424 2.392 0.514 0.439 0.042 0.721 0.066 1.167 0.066 0.452 0 0.74-0.024 1.183-0.068 0.216-0.022 0.429-0.047 0.636-0.078 0.412-0.062 0.8-0.141 1.148-0.237 0.214-0.059 0.414-0.124 0.592-0.196l0.376-0.178c0.348-0.194 0.558-0.418 0.558-0.667l0.024-2.799c0.015-0.334 0.17-8.096 0.17-8.129v-1.027c0-2.948-0.721-5.247-2.712-6.381zM15.066 2.729c0.097-0.067 0.471-0.204 1.333-0.204 0.862 0 1.236 0.137 1.333 0.204v1.63c-0.097 0.067-0.47 0.204-1.333 0.204s-1.236-0.137-1.333-0.204v-1.63zM19.443 27.733c-0.732 0.229-1.684 0.432-3.061 0.432-1.379 0-2.333-0.204-3.065-0.432-0.214-0.066-0.393-0.135-0.536-0.201-0.236-0.11-0.291-0.212-0.31-0.287l-0.191-11.972c0.005-0.354 0.004 0.375 0 0-0.022-2.305 0.496-4.646 2.521-5.807 0.106-0.061 0.193-0.171 0.189-0.293l0.341-4.146c0.328 0.066 0.712 0.088 1.068 0.088 0.356 0 0.74-0.022 1.068-0.088l0.341 4.178c0 0.12 0.084 0.209 0.191 0.262 1.754 0.869 2.534 2.906 2.534 5.906l-0.232 11.874c-0.031 0.124-0.289 0.31-0.857 0.487z" fill="#000000" />
</svg>
