<?xml version="1.0" encoding="utf-8"?>
<!-- Generated by IcoMoon.io -->
<!DOCTYPE svg PUBLIC "-//W3C//DTD SVG 1.1//EN" "http://www.w3.org/Graphics/SVG/1.1/DTD/svg11.dtd">
<svg version="1.1" xmlns="http://www.w3.org/2000/svg" xmlns:xlink="http://www.w3.org/1999/xlink" width="32" height="32" viewBox="0 0 32 32">
<g>
</g>
	<path d="M21.377 11.344v-0.749c0-0.075-0.061-0.136-0.136-0.136-0.075 0-0.136 0.061-0.136 0.136v0.749c0 0.075 0.062 0.136 0.136 0.136 0.075 0 0.136-0.061 0.136-0.136zM22.655 10.925c0.034 0 0.070-0.013 0.096-0.040 0.053-0.053 0.053-0.139 0-0.193l-0.53-0.53c-0.053-0.054-0.139-0.054-0.193 0-0.053 0.053-0.053 0.139 0 0.192l0.53 0.53c0.027 0.027 0.062 0.040 0.097 0.040zM19.822 10.947c0.035 0 0.070-0.013 0.096-0.040l0.53-0.53c0.053-0.054 0.053-0.139 0-0.192-0.053-0.054-0.139-0.054-0.193 0l-0.53 0.53c-0.053 0.053-0.053 0.139 0 0.192 0.027 0.027 0.062 0.040 0.097 0.040zM7.588 8.342c0.033 0.013 0.808 0.325 1.626 0.325h1.715l-0.197 0.218c-0.054 0.060-0.067 0.146-0.035 0.22 0.033 0.074 0.106 0.121 0.186 0.121h1.33c0.033 0 0.065-0.008 0.094-0.023l1.042-0.538c0.003 0 0.006 0.002 0.008 0.002h2.493c0.749 0 1.746-0.076 1.746-0.73 0-0.383-0.41-0.84-2.363-0.84h-5.415l-1.088-0.976c-0.037-0.034-0.086-0.052-0.136-0.052h-0.73c-0.067 0-0.13 0.033-0.169 0.089-0.038 0.056-0.046 0.126-0.022 0.189l0.394 1.017-0.479 0.19c-0.078 0.031-0.129 0.106-0.129 0.19v0.41c0 0.082 0.051 0.157 0.128 0.189zM7.869 7.881l0.538-0.213c0.105-0.042 0.155-0.16 0.115-0.264l-0.36-0.927h0.354l1.088 0.976c0.038 0.033 0.086 0.052 0.136 0.052h5.493c0.821 0 1.314 0.085 1.599 0.182h-0.166c-0.075 0-0.136 0.061-0.136 0.136 0 0.075 0.061 0.136 0.136 0.136h0.517c-0.034 0.143-0.393 0.299-1.332 0.299h-1.778c0.038-0.059 0.047-0.136 0.013-0.203-0.051-0.1-0.175-0.14-0.275-0.088l-1.647 0.85h-0.822l0.48-0.533c0.075-0.084 0.069-0.213-0.015-0.288-0.084-0.075-0.213-0.068-0.288 0.015l-0.222 0.246h-2.083c-0.554 0-1.103-0.165-1.345-0.249v-0.129zM15.278 22.054h0.306l0.029-0.868h-0.306zM15.324 20.7h0.307l0.028-0.843h-0.306zM15.366 19.423h0.306l0.028-0.842h-0.306zM15.512 15.090h0.306l0.018-0.517h-0.306zM15.228 23.561h0.306l0.034-1.022h-0.306zM15.447 17.009h0.306l0.026-0.774h-0.306zM15.408 18.171h0.307l0.028-0.83h-0.306zM15.483 15.945h0.307l0.020-0.618h-0.306zM16.565 17.341h-0.307l0.028 0.83h0.307zM16.498 15.326h-0.307l0.021 0.619h0.307zM16.65 19.857h-0.307l0.028 0.843h0.307zM16.694 21.185h-0.307l0.029 0.868h0.307zM16.607 18.58h-0.307l0.028 0.842h0.306zM16.473 14.573h-0.307l0.017 0.517h0.307zM16.528 16.235h-0.307l0.026 0.774h0.307zM16.432 22.539l0.034 1.022h0.306l-0.034-1.022zM26.167 12.147h-0.975c-0.096-2.213-1.153-3.166-3.496-3.166h-1.438c-0.112 0-0.204 0.091-0.204 0.204 0 0.112 0.092 0.203 0.204 0.203h0.067c0.039 0.474 0.432 0.849 0.916 0.849 0.479 0 0.868-0.367 0.914-0.834 1.785 0.111 2.548 0.916 2.63 2.743l-18.951 0c-0.15 0-0.272 0.122-0.272 0.272v1.645c0 0.15 0.122 0.272 0.272 0.272h2.759v1.566c0 0.15 0.122 0.272 0.272 0.272h1.097c0.12 0 0.224-0.077 0.26-0.192l0.51-1.646h2.229l-5.73 11.2c-0.043 0.084-0.040 0.185 0.010 0.266 0.050 0.081 0.137 0.13 0.232 0.13h17.055c0.095 0 0.183-0.049 0.232-0.13 0.049-0.081 0.053-0.182 0.010-0.266l-5.729-11.2h2.229l0.51 1.646c0.035 0.114 0.14 0.192 0.26 0.192h1.096c0.15 0 0.273-0.122 0.273-0.272l-0-1.566h1.385v8.742c0 0.113 0.092 0.204 0.204 0.204 0.113 0 0.204-0.092 0.204-0.204l0-8.742h0.965c0.15 0 0.272-0.122 0.272-0.272v-1.645c0-0.15-0.122-0.272-0.272-0.272zM21.241 9.829c-0.258 0-0.471-0.192-0.508-0.441h0.963c0.018 0 0.034 0.001 0.052 0.002-0.038 0.247-0.249 0.439-0.508 0.439zM24.083 25.388l-7.249-0.005-0.042-1.26h-0.306l0.042 1.265h-1.054l0.042-1.265h-0.306l-0.042 1.26-0.199 0.005h-7.051l5.653-11.052h4.859l5.653 11.052zM25.895 13.791h-2.759c-0.15 0-0.272 0.122-0.272 0.273v1.565h-0.624l-0.51-1.646c-0.035-0.114-0.14-0.192-0.26-0.192h-10.94c-0.12 0-0.224 0.078-0.26 0.192l-0.51 1.646h-0.624v-1.565c0-0.15-0.121-0.273-0.273-0.273h-2.759v-1.1h19.79l0 1.1z" fill="#000000" />
</svg>
