<?xml version="1.0" encoding="utf-8"?>
<!-- Generated by IcoMoon.io -->
<!DOCTYPE svg PUBLIC "-//W3C//DTD SVG 1.1//EN" "http://www.w3.org/Graphics/SVG/1.1/DTD/svg11.dtd">
<svg version="1.1" xmlns="http://www.w3.org/2000/svg" xmlns:xlink="http://www.w3.org/1999/xlink" width="32" height="32" viewBox="0 0 32 32">
<g>
</g>
	<path d="M24.529 27.031l-0.394-2.291-0.072-10.971c-0.003-0.083-0.047-0.16-0.118-0.204l-2.082-1.314c-0.040-0.026-0.087-0.039-0.134-0.039h-0.716v-3.898c-0-0.032-0.067-3.195-2.961-3.617-0.040-0.005-1.002-0.115-1.617 0.001-0.282 0.041-0.531 0.115-0.762 0.204-0.306-0.004-0.635 0.009-0.906 0.060-3.325 0.482-3.402 4.11-3.402 4.15v3.101h-0.885c-0.043 0-0.086 0.011-0.124 0.033l-2.327 1.313c-0.079 0.045-0.128 0.128-0.129 0.219l-0.035 10.972-0.395 2.292c-0.019 0.075-0.001 0.155 0.046 0.216 0.048 0.061 0.121 0.097 0.199 0.097h16.572c0.079 0 0.154-0.038 0.202-0.101 0.048-0.063 0.063-0.146 0.041-0.222zM21.81 12.815l1.651 1.042-0.166 0.085-0.445-0.227c-0.048-0.025-0.106-0.025-0.154 0l-0.445 0.227-0.441-0.225-0-0.901zM21.303 12.718v1.157l-0.13 0.066-0.445-0.227c-0.048-0.025-0.106-0.025-0.154 0l-0.445 0.227-0.102-0.052c0.013-0.033 0.021-0.068 0.021-0.106v-1.066l1.254 0zM17.974 5.282c2.382 0.347 2.446 2.929 2.447 3.035v3.895h-0.373l0-3.103c-0.001-0.032-0.061-2.85-2.352-3.851 0.166 0.012 0.277 0.025 0.278 0.025zM15.77 5.494c0.428 0.010 0.791 0.051 0.792 0.051 2.821 0.409 2.895 3.441 2.897 3.566v3.101l-5.388 0v-3.892c0.001-0.097 0.046-2.108 1.699-2.826zM11.953 9.114c0-0.008 0.013-0.801 0.382-1.644 0.446-1.019 1.204-1.643 2.255-1.872-1.069 1.078-1.109 2.694-1.109 2.719v3.895h-1.528l0-3.098zM11.953 13.815v-1.097h7.506v1.033l-0.374 0.19-0.444-0.227c-0.048-0.025-0.106-0.025-0.153 0l-0.445 0.227-0.445-0.227c-0.048-0.025-0.106-0.025-0.154 0l-0.445 0.227-0.445-0.227c-0.049-0.025-0.106-0.025-0.154 0l-0.445 0.227-0.445-0.227c-0.048-0.025-0.105-0.025-0.153 0l-0.445 0.227-0.445-0.227c-0.048-0.025-0.106-0.025-0.153 0l-0.445 0.227-0.445-0.227c-0.048-0.025-0.105-0.025-0.153 0l-0.445 0.227-0.445-0.227c-0.048-0.025-0.105-0.025-0.154 0l-0.278 0.142c0-0.014 0.006-0.027 0.006-0.041zM10.732 12.718h0.632v1.012l-0.031-0.016c-0.048-0.025-0.105-0.025-0.154 0l-0.445 0.227-0.002-0.001v-1.222zM10.226 12.898v0.801c-0.031-0.003-0.062 0.001-0.090 0.015l-0.445 0.227-0.445-0.227c-0.048-0.025-0.105-0.025-0.153 0l-0.445 0.227-0.141-0.072 1.721-0.972zM8.037 26.849l0.326-2.008c0.005-0.019 0.007-0.040 0.007-0.059l0.035-10.586 0.166 0.085c0.048 0.025 0.105 0.025 0.154 0l0.445-0.227 0.445 0.227c0.048 0.025 0.105 0.025 0.153 0l0.445-0.227 0.445 0.227c0.048 0.025 0.105 0.025 0.153 0l0.445-0.227 0.446 0.227c0.048 0.025 0.105 0.025 0.153 0l0.445-0.227 0.445 0.227c0.048 0.025 0.105 0.025 0.153 0l0.445-0.227 0.445 0.227c0.048 0.025 0.105 0.025 0.153 0l0.445-0.227 0.445 0.227c0.049 0.025 0.106 0.025 0.154 0l0.445-0.227 0.445 0.227c0.048 0.025 0.105 0.025 0.153 0l0.445-0.227 0.445 0.227c0.048 0.025 0.106 0.025 0.153 0l0.445-0.227 0.446 0.227c0.048 0.025 0.106 0.025 0.153 0l0.445-0.227 0.444 0.227c0.048 0.025 0.106 0.025 0.154 0l0.446-0.227 0.445 0.227c0.047 0.025 0.105 0.025 0.153 0l0.445-0.227 0.446 0.227c0.029 0.015 0.061 0.018 0.093 0.014 0.032 0.003 0.064 0 0.093-0.014l0.445-0.227 0.445 0.227c0.048 0.025 0.105 0.025 0.153 0l0.446-0.227 0.445 0.227c0.024 0.012 0.050 0.019 0.077 0.019s0.053-0.006 0.077-0.019l0.201-0.103 0.058 10.612c0.001 0.021 0.004 0.041 0.010 0.061l0.308 1.998-15.908-0zM22.228 24.612h-9.117c-0.093 0-0.169 0.075-0.169 0.169s0.075 0.169 0.169 0.169l9.117-0c0.093 0 0.169-0.075 0.169-0.169s-0.076-0.168-0.169-0.168zM12.311 24.612h-1.471c-0.094 0-0.169 0.075-0.169 0.169s0.076 0.169 0.169 0.169h1.471c0.094 0 0.169-0.075 0.169-0.169s-0.075-0.169-0.169-0.169z" fill="#000000" />
</svg>
