<?xml version="1.0" encoding="utf-8"?>
<!-- Generated by IcoMoon.io -->
<!DOCTYPE svg PUBLIC "-//W3C//DTD SVG 1.1//EN" "http://www.w3.org/Graphics/SVG/1.1/DTD/svg11.dtd">
<svg version="1.1" xmlns="http://www.w3.org/2000/svg" xmlns:xlink="http://www.w3.org/1999/xlink" width="32" height="32" viewBox="0 0 32 32">
<g>
</g>
	<path d="M25.838 13.262c-0.898-2.934-3.635-4.969-6.719-4.969-3.092 0-5.806 2.016-6.713 4.941-0.504-0.18-1.030-0.271-1.569-0.271-2.187 0-4.068 1.504-4.564 3.612-1.954 0.072-3.601 1.429-4.036 3.351-0.019 0.086 0.001 0.177 0.057 0.247 0.055 0.069 0.139 0.11 0.228 0.11l27.596-0c0.142 0 0.263-0.102 0.287-0.242 0.061-0.357 0.091-0.685 0.091-1.004-0-2.79-1.949-5.189-4.658-5.774zM29.868 19.7h-26.962c0.502-1.514 1.905-2.542 3.551-2.542h0.003l0.045 0.002c0.148 0.014 0.268-0.098 0.294-0.239 0.354-1.954 2.053-3.372 4.040-3.372 0.532 0 1.049 0.106 1.541 0.305 0.304 0.148 0.954 0.524 1.356 1.198 0.048 0.080 0.138 0.119 0.226 0.103 0.026-0.005 0.050-0.013 0.074-0.028 0.104-0.062 0.138-0.196 0.076-0.299-0.346-0.58-0.837-0.962-1.21-1.188 0.758-2.806 3.305-4.762 6.22-4.762 2.802 0 5.273 1.791 6.12 4.441-0.752-0.005-1.312 0.267-1.345 0.281-0.111 0.046-0.165 0.174-0.118 0.286 0.046 0.111 0.174 0.165 0.285 0.119 0.008-0.004 0.779-0.31 1.655-0.165 2.441 0.527 4.198 2.685 4.198 5.198-0 0.213-0.015 0.432-0.046 0.664z" fill="#000000" />
</svg>
