<?xml version="1.0" encoding="utf-8"?>
<!-- Generated by IcoMoon.io -->
<!DOCTYPE svg PUBLIC "-//W3C//DTD SVG 1.1//EN" "http://www.w3.org/Graphics/SVG/1.1/DTD/svg11.dtd">
<svg version="1.1" xmlns="http://www.w3.org/2000/svg" xmlns:xlink="http://www.w3.org/1999/xlink" width="32" height="32" viewBox="0 0 32 32">
<g>
</g>
	<path d="M21.286 4.62h-10.572c-0.656 0-1.19 0.534-1.19 1.19v20.38c0 0.656 0.534 1.19 1.19 1.19h10.572c0.656 0 1.189-0.534 1.189-1.19v-20.38c0-0.656-0.533-1.19-1.189-1.19zM21.862 26.19c0 0.318-0.258 0.577-0.576 0.577h-10.572c-0.318 0-0.577-0.259-0.577-0.577v-2.605h11.724l0 2.605zM21.862 23.279h-11.724l-0-14.558h3.325v0.279c0 0.571 0.465 1.036 1.035 1.036h3.96l1.111 1.111c0.030 0.030 0.069 0.045 0.109 0.045 0.020 0 0.040-0.004 0.058-0.012 0.057-0.024 0.095-0.080 0.095-0.142v-1.002h0.411c0.571 0 1.036-0.465 1.036-1.036v-0.279h0.583l0 14.558zM13.77 9v-0.279h7.203v0.279c0 0.402-0.327 0.73-0.73 0.73l-0.565-0c-0.085 0-0.153 0.069-0.153 0.153v0.786l-0.894-0.894c-0.029-0.029-0.068-0.045-0.109-0.045l-4.023-0c-0.402 0-0.729-0.327-0.729-0.73zM21.862 8.414h-11.724v-2.604c0-0.318 0.259-0.577 0.577-0.577h10.572c0.318 0 0.576 0.259 0.576 0.577l-0 2.604zM17.039 6.588h-2.077c-0.127 0-0.23 0.103-0.23 0.23s0.103 0.23 0.23 0.23h2.077c0.126 0 0.23-0.103 0.23-0.23s-0.103-0.23-0.23-0.23zM13.71 6.601c-0.058 0.058-0.092 0.134-0.092 0.214 0 0.083 0.034 0.162 0.092 0.218 0.055 0.058 0.135 0.089 0.214 0.089 0.083 0 0.162-0.031 0.218-0.089 0.058-0.055 0.089-0.134 0.089-0.218 0-0.080-0.031-0.16-0.089-0.214-0.11-0.113-0.316-0.116-0.432 0zM11.757 16.515h0.411v1.002c0 0.062 0.038 0.118 0.095 0.142 0.019 0.008 0.039 0.012 0.058 0.012 0.040 0 0.079-0.016 0.109-0.045l1.111-1.111h3.96c0.571 0 1.036-0.465 1.036-1.036l0-3.273c0-0.571-0.465-1.036-1.036-1.036h-5.744c-0.571 0-1.036 0.465-1.036 1.036v3.273c0 0.571 0.465 1.036 1.036 1.036zM11.028 12.206c0-0.402 0.327-0.73 0.73-0.73h5.744c0.402 0 0.729 0.327 0.729 0.73l-0 3.273c0 0.402-0.327 0.73-0.729 0.73l-4.023-0c-0.041 0-0.080 0.016-0.109 0.045l-0.894 0.895v-0.786c0-0.085-0.069-0.153-0.153-0.153h-0.565c-0.402 0-0.73-0.327-0.73-0.73l0-3.273zM14.629 15.64c0.991 0 1.798-0.806 1.798-1.797 0-0.991-0.807-1.798-1.798-1.798-0.991 0-1.797 0.806-1.797 1.798 0 0.991 0.806 1.797 1.797 1.797zM14.629 12.505c0.738 0 1.338 0.6 1.338 1.338 0 0.737-0.6 1.337-1.338 1.337-0.737 0-1.337-0.6-1.337-1.337-0-0.738 0.599-1.338 1.337-1.338zM14.181 14.704c0.033 0.017 0.069 0.026 0.105 0.026 0.047 0 0.094-0.014 0.134-0.043l0.919-0.657c0.060-0.043 0.096-0.113 0.096-0.187s-0.036-0.144-0.096-0.187l-0.919-0.657c-0.070-0.050-0.162-0.057-0.239-0.018s-0.125 0.118-0.125 0.204v1.314c-0.001 0.087 0.048 0.165 0.124 0.205zM11.616 18.529h-0.383c-0.127 0-0.23 0.103-0.23 0.23s0.103 0.23 0.23 0.23h0.383c0.127 0 0.23-0.103 0.23-0.23s-0.103-0.23-0.23-0.23zM15.404 18.989c0.127 0 0.23-0.103 0.23-0.23s-0.103-0.23-0.23-0.23h-0.702c-0.127 0-0.23 0.103-0.23 0.23s0.103 0.23 0.23 0.23h0.702zM17.298 18.989c0.127 0 0.23-0.103 0.23-0.23s-0.103-0.23-0.23-0.23h-0.702c-0.127 0-0.23 0.103-0.23 0.23s0.103 0.23 0.23 0.23h0.702zM18.261 18.759c0 0.127 0.103 0.23 0.23 0.23h0.702c0.127 0 0.23-0.103 0.23-0.23s-0.103-0.23-0.23-0.23h-0.702c-0.127-0-0.23 0.103-0.23 0.23zM13.51 18.989c0.127 0 0.23-0.103 0.23-0.23s-0.103-0.23-0.23-0.23h-0.702c-0.127 0-0.23 0.103-0.23 0.23s0.103 0.23 0.23 0.23h0.702zM20.768 18.529h-0.383c-0.127 0-0.23 0.103-0.23 0.23s0.103 0.23 0.23 0.23h0.383c0.127 0 0.23-0.103 0.23-0.23s-0.103-0.23-0.23-0.23zM12.155 19.686c-0.127 0-0.23 0.103-0.23 0.23s0.103 0.23 0.23 0.23h0.383c0.127 0 0.23-0.103 0.23-0.23s-0.103-0.23-0.23-0.23h-0.383zM18.261 20.146c0.127 0 0.23-0.103 0.23-0.23s-0.103-0.23-0.23-0.23h-0.707c-0.127 0-0.23 0.103-0.23 0.23s0.103 0.23 0.23 0.23h0.707zM16.354 20.146c0.127 0 0.23-0.103 0.23-0.23s-0.103-0.23-0.23-0.23h-0.707c-0.127 0-0.23 0.103-0.23 0.23s0.103 0.23 0.23 0.23h0.707zM13.739 20.146h0.706c0.127 0 0.23-0.103 0.23-0.23s-0.103-0.23-0.23-0.23h-0.706c-0.127 0-0.23 0.103-0.23 0.23s0.103 0.23 0.23 0.23zM19.845 19.686h-0.383c-0.127 0-0.23 0.103-0.23 0.23s0.103 0.23 0.23 0.23h0.383c0.127 0 0.23-0.103 0.23-0.23s-0.103-0.23-0.23-0.23zM12.538 22.002h-0.383c-0.127 0-0.23 0.103-0.23 0.23s0.103 0.23 0.23 0.23h0.383c0.127 0 0.23-0.103 0.23-0.23s-0.103-0.23-0.23-0.23zM18.261 22.002h-4.522c-0.127 0-0.23 0.103-0.23 0.23s0.103 0.23 0.23 0.23h4.522c0.127 0 0.23-0.103 0.23-0.23s-0.103-0.23-0.23-0.23zM19.845 22.002h-0.383c-0.127 0-0.23 0.103-0.23 0.23s0.103 0.23 0.23 0.23h0.383c0.127 0 0.23-0.103 0.23-0.23s-0.103-0.23-0.23-0.23zM11.616 20.844h-0.383c-0.127 0-0.23 0.103-0.23 0.23s0.103 0.23 0.23 0.23h0.383c0.127 0 0.23-0.103 0.23-0.23s-0.103-0.23-0.23-0.23zM13.739 21.074c0-0.127-0.103-0.23-0.23-0.23h-0.702c-0.127 0-0.23 0.103-0.23 0.23s0.103 0.23 0.23 0.23h0.702c0.127 0 0.23-0.103 0.23-0.23zM19.422 21.074c0-0.127-0.103-0.23-0.23-0.23h-0.702c-0.127 0-0.23 0.103-0.23 0.23s0.103 0.23 0.23 0.23h0.702c0.127 0 0.23-0.103 0.23-0.23zM14.702 21.304h0.702c0.127 0 0.23-0.103 0.23-0.23s-0.103-0.23-0.23-0.23h-0.702c-0.127 0-0.23 0.103-0.23 0.23s0.103 0.23 0.23 0.23zM16.597 21.304h0.702c0.127 0 0.23-0.103 0.23-0.23s-0.103-0.23-0.23-0.23h-0.702c-0.127 0-0.23 0.103-0.23 0.23s0.103 0.23 0.23 0.23zM20.768 20.844h-0.383c-0.127 0-0.23 0.103-0.23 0.23s0.103 0.23 0.23 0.23h0.383c0.127 0 0.23-0.103 0.23-0.23s-0.103-0.23-0.23-0.23zM15.404 26.238h1.191c0.444 0 0.806-0.362 0.806-0.806v-0.582c0-0.444-0.362-0.806-0.806-0.806h-1.191c-0.444 0-0.806 0.362-0.806 0.806v0.582c0 0.444 0.362 0.806 0.806 0.806zM15.058 24.849c0-0.19 0.155-0.346 0.347-0.346h1.191c0.191 0 0.347 0.156 0.347 0.346v0.582c0 0.191-0.155 0.347-0.347 0.347h-1.191c-0.191 0-0.347-0.156-0.347-0.347v-0.582z" fill="#000000" />
</svg>
