<?xml version="1.0" encoding="utf-8"?>
<!-- Generated by IcoMoon.io -->
<!DOCTYPE svg PUBLIC "-//W3C//DTD SVG 1.1//EN" "http://www.w3.org/Graphics/SVG/1.1/DTD/svg11.dtd">
<svg version="1.1" xmlns="http://www.w3.org/2000/svg" xmlns:xlink="http://www.w3.org/1999/xlink" width="32" height="32" viewBox="0 0 32 32">
<g>
</g>
	<path d="M25.346 10.031c-0.046-0.059-0.127-0.094-0.203-0.094-0.481 0-4.795 0.075-8.19 2.692-1.714 1.32-3.145 2.801-4.030 4.169-0.767 1.186-1.051 2.19-0.831 2.89-3.46 2.974-4.958 4.636-4.983 4.664-0.134 0.151-0.121 0.382 0.030 0.518l0.274 0.244c0.070 0.062 0.157 0.093 0.243 0.093 0.101 0 0.201-0.041 0.274-0.122 0.025-0.028 1.504-1.661 4.902-4.582 0.262 0.118 0.58 0.178 0.957 0.178 1.693 0 4.408-1.249 6.917-3.182 3.525-2.717 4.65-7.074 4.696-7.258 0.019-0.073-0.008-0.15-0.054-0.209zM12.502 20.299c-3.366 2.898-4.823 4.512-4.847 4.54l-0.274-0.244c0.025-0.028 1.492-1.653 4.874-4.566 0.122-0.105 0.246-0.211 0.374-0.32 2.41-2.057 5.723-4.71 10.1-7.866l0.214 0.297c-4.363 3.146-7.663 5.788-10.063 7.835-0.128 0.11-0.254 0.218-0.378 0.324zM22.511 14.961c-0.007-0.003-0.015-0.007-0.023-0.008l-1.709-0.244c-0.067-0.008-0.128 0.037-0.138 0.104-0.010 0.067 0.037 0.129 0.104 0.138l1.598 0.228c-0.115 0.146-0.234 0.289-0.358 0.432l-1.963-0.23c-0.067-0.007-0.127 0.040-0.135 0.107s0.040 0.127 0.107 0.135l1.794 0.21c-0.411 0.451-0.869 0.884-1.38 1.277-0.546 0.421-1.1 0.806-1.65 1.154-0.013-0.007-0.026-0.013-0.041-0.015l-1.709-0.244c-0.066-0.010-0.128 0.037-0.138 0.104-0.010 0.067 0.037 0.129 0.104 0.138l1.473 0.211c-1.785 1.083-3.492 1.734-4.658 1.734-0.198 0-0.375-0.019-0.528-0.056 2.382-2.026 5.632-4.622 9.898-7.698 0.164-0.118 0.201-0.347 0.083-0.511l-0.214-0.297c-0.057-0.079-0.142-0.132-0.238-0.147-0.020-0.003-0.039-0.005-0.058-0.005-0.077 0-0.151 0.023-0.214 0.069-4.313 3.11-7.596 5.733-10.004 7.783-0.059-0.55 0.223-1.341 0.822-2.266 0.308-0.476 0.687-0.966 1.122-1.46l-0.15 1.527c-0.007 0.067 0.042 0.127 0.11 0.134 0.004 0 0.008 0 0.012 0 0.062 0 0.115-0.046 0.121-0.11l0.18-1.834c0-0.005-0.002-0.010-0.002-0.014 0.109-0.118 0.218-0.236 0.334-0.353l-0.155 1.576c-0.006 0.067 0.042 0.127 0.11 0.134 0.004 0 0.008 0.001 0.012 0.001 0.062 0 0.115-0.047 0.121-0.11l0.18-1.834c0.001-0.010-0.002-0.020-0.003-0.030 0.582-0.571 1.228-1.136 1.926-1.674 0.221-0.17 0.447-0.328 0.676-0.477l-0.204 1.429c-0.010 0.067 0.037 0.129 0.104 0.138 0.006 0.001 0.012 0.002 0.018 0.002 0.059 0 0.112-0.044 0.121-0.105l0.234-1.634c2.659-1.617 5.654-1.889 6.638-1.934-0.235 0.741-0.928 2.678-2.328 4.528z" fill="#000000" />
</svg>
