<?xml version="1.0" encoding="utf-8"?>
<!-- Generated by IcoMoon.io -->
<!DOCTYPE svg PUBLIC "-//W3C//DTD SVG 1.1//EN" "http://www.w3.org/Graphics/SVG/1.1/DTD/svg11.dtd">
<svg version="1.1" xmlns="http://www.w3.org/2000/svg" xmlns:xlink="http://www.w3.org/1999/xlink" width="32" height="32" viewBox="0 0 32 32">
<g>
</g>
	<path d="M26.871 16.991c-0.050-0.622-0.664-1.127-1.818-1.504v-3.485c0-0.614-0.499-1.113-1.112-1.113h-0.778l-0-0.778c0-0.613-0.499-1.113-1.113-1.113h-0.511c0.134-1.866 0-3.258-0.427-3.887-0.223-0.329-0.491-0.423-0.677-0.444-0.725-0.083-1.591 0.764-2.572 2.519l-4.262-0.001c-1.553-1.526-2.713-2.143-3.454-1.83-0.525 0.222-0.737 0.841-0.639 1.83h-1.452c-0.614 0-1.113 0.499-1.113 1.112v8.663c-1.064 0.554-1.583 1.148-1.533 1.766 0.051 0.64 0.699 1.088 1.533 1.402v0.35c0 0.614 0.499 1.113 1.113 1.113h0.701v0.701c0 0.613 0.499 1.112 1.113 1.112h0.778v0.778c0 0.614 0.499 1.113 1.113 1.113h1.422c0.091 1.438 0.471 2.213 1.135 2.289 0.031 0.004 0.062 0.006 0.094 0.006 0.704 0 1.519-0.888 2.339-2.294h3.148c1.353 1.346 2.415 2.025 3.166 2.025 0.147 0 0.282-0.026 0.405-0.078 0.188-0.080 0.439-0.261 0.571-0.674 0.102-0.32 0.116-0.757 0.048-1.288 0.543-0.073 0.965-0.534 0.965-1.098l0-5.286c1.026-0.486 1.881-1.127 1.818-1.906zM14.55 8.176c-0.17-0.187-0.334-0.361-0.496-0.53h6.182c0.36 0 0.653 0.293 0.653 0.653v0.701h-5.622c-0.242-0.286-0.482-0.564-0.718-0.824zM20.898 9.459c-0.042 0.446-0.099 0.925-0.171 1.43l-3.96 0c-0.375-0.5-0.748-0.979-1.117-1.43l5.248-0zM19.597 15.066c-0.337-0.548-0.681-1.084-1.028-1.61h1.7c-0.132 0.628-0.283 1.284-0.456 1.966-0.072-0.118-0.144-0.237-0.217-0.356zM11.107 13.15v-1.147c0-0.36 0.293-0.653 0.653-0.653h4.534c0.428 0.574 0.857 1.175 1.282 1.8h-6.47zM18.368 13.15c-0.416-0.622-0.837-1.223-1.258-1.8h3.548c-0.089 0.568-0.197 1.169-0.325 1.8h-1.965zM15.95 10.89h-4.19c-0.613 0-1.113 0.499-1.113 1.113v8.216c-0.505-0.042-0.98-0.1-1.43-0.169v-9.938c0-0.36 0.293-0.653 0.653-0.653h4.931c0.378 0.449 0.762 0.925 1.15 1.431zM11.107 13.456h6.68c0.425 0.633 0.844 1.286 1.254 1.952 0.187 0.305 0.366 0.605 0.542 0.901-0.002 0.007-0.004 0.014-0.006 0.022-0.357 1.318-0.737 2.528-1.124 3.626-0.689 0.092-1.398 0.17-2.122 0.228-1.858 0.15-3.644 0.169-5.222 0.065l-0-6.795zM20.005 17.041c0.481 0.845 0.91 1.653 1.29 2.416-0.686 0.153-1.414 0.288-2.175 0.404 0.318-0.92 0.616-1.87 0.885-2.819zM20.248 16.153c0.245-0.926 0.458-1.83 0.637-2.697h3.709v4.98c-0.297 0.131-0.638 0.264-1.029 0.397-0.496 0.169-1.039 0.326-1.617 0.47-0.496-1.006-1.066-2.064-1.7-3.151zM24.593 12.002v1.147h-3.646c0.124-0.622 0.231-1.223 0.32-1.8h2.674c0.359 0 0.652 0.293 0.652 0.653zM22.050 9.459c0.36 0 0.653 0.293 0.653 0.653v0.778h-1.369c0.070-0.5 0.125-0.977 0.167-1.43l0.549-0zM20.367 5.267c0.032 0.004 0.132 0.015 0.246 0.184 0.225 0.332 0.357 1.029 0.373 2.031-0.198-0.182-0.46-0.296-0.75-0.296h-1.678c0.859-1.462 1.49-1.953 1.809-1.92zM10.402 5.958c0.309-0.131 1.053 0.16 2.243 1.228l-2.481-0c-0.076-0.675 0.010-1.131 0.238-1.227zM8.056 7.646h5.078c0.289 0.282 0.598 0.602 0.932 0.97 0.111 0.122 0.225 0.255 0.338 0.384l-4.534 0c-0.614 0-1.113 0.499-1.113 1.113v9.864c-0.539-0.099-0.989-0.211-1.354-0.331l-0-11.347c0-0.36 0.293-0.653 0.653-0.653zM6.022 18.678c-0.024-0.293 0.31-0.655 0.922-1.017v1.812c-0.63-0.271-0.903-0.559-0.922-0.796zM8.056 21.132c-0.36 0-0.653-0.293-0.653-0.653v-0.194c0.44 0.133 0.907 0.234 1.354 0.313v0.534l-0.701 0zM9.87 22.946c-0.36 0-0.653-0.293-0.653-0.653v-1.621c0.45 0.067 0.929 0.12 1.43 0.161v2.113h-0.777zM11.107 24.183v-3.317c0.651 0.042 1.334 0.064 2.043 0.064 1.034 0 2.12-0.045 3.228-0.134 0.625-0.050 1.238-0.117 1.839-0.192-0.647 1.749-1.306 3.175-1.905 4.232l-4.553 0c-0.36 0-0.653-0.293-0.653-0.653zM14.385 26.985c-0.243-0.028-0.522-0.491-0.602-1.69h2.259c-0.699 1.138-1.294 1.73-1.657 1.69zM18.89 20.513c0.944-0.135 1.844-0.3 2.68-0.492 0.954 1.994 1.544 3.648 1.784 4.815h-2.994c-0.010-0.010-0.019-0.018-0.028-0.028l-0.028 0.028h-3.297c0.65-1.198 1.295-2.7 1.882-4.323zM23.416 26.37c-0.069 0.214-0.17 0.257-0.203 0.271-0.314 0.134-1.094-0.171-2.371-1.345h2.593c0.065 0.468 0.059 0.831-0.019 1.074zM24.593 24.183c0 0.334-0.253 0.607-0.578 0.645-0.243-1.283-0.869-3.006-1.796-4.962 0.549-0.14 1.066-0.291 1.542-0.453 0.273-0.093 0.554-0.197 0.832-0.312v5.082zM25.053 18.216v-2.082c0.745 0.269 1.182 0.593 1.207 0.906 0.023 0.288-0.309 0.711-1.207 1.176z" fill="#000000" />
</svg>
