<?xml version="1.0" encoding="utf-8"?>
<!-- Generated by IcoMoon.io -->
<!DOCTYPE svg PUBLIC "-//W3C//DTD SVG 1.1//EN" "http://www.w3.org/Graphics/SVG/1.1/DTD/svg11.dtd">
<svg version="1.1" xmlns="http://www.w3.org/2000/svg" xmlns:xlink="http://www.w3.org/1999/xlink" width="32" height="32" viewBox="0 0 32 32">
<g>
</g>
	<path d="M23.55 14.652c-0.013-0.002-0.539-0.057-1.479-0.121v-3.191c0-3.37-2.742-6.111-6.111-6.111s-6.111 2.742-6.111 6.111v3.19c-0.94 0.064-1.467 0.12-1.479 0.121-0.16 0.018-0.281 0.152-0.281 0.313v10.075c0 0.16 0.12 0.294 0.278 0.313 0.034 0.004 3.451 0.396 7.593 0.396s7.558-0.391 7.592-0.396c0.159-0.019 0.279-0.153 0.279-0.313v-10.074c-0.001-0.161-0.122-0.295-0.281-0.313zM23.201 24.757c-0.891 0.092-3.814 0.362-7.241 0.362s-6.35-0.27-7.241-0.362l-0-9.507c0.236-0.022 0.62-0.054 1.13-0.089 0.192-0.013 0.402-0.027 0.63-0.041 0.536-0.032 1.169-0.064 1.889-0.090 0.203-0.007 0.414-0.014 0.63-0.021 0.883-0.027 1.874-0.045 2.963-0.045s2.079 0.018 2.963 0.045c0.216 0.006 0.426 0.014 0.63 0.021 0.72 0.027 1.353 0.058 1.889 0.091 0.228 0.014 0.438 0.027 0.63 0.040 0.51 0.035 0.894 0.068 1.13 0.089l0 9.507zM18.923 14.379c-0.885-0.027-1.875-0.044-2.963-0.044s-2.078 0.018-2.963 0.044v-3.039c0-1.634 1.329-2.963 2.963-2.963 1.634 0 2.963 1.329 2.963 2.963v3.039zM10.478 11.34c0-3.022 2.458-5.482 5.482-5.482 3.022 0 5.482 2.459 5.482 5.482v3.15c-0.538-0.032-1.173-0.063-1.889-0.090v-3.060c0-1.981-1.612-3.593-3.593-3.593s-3.593 1.612-3.593 3.593v3.060c-0.716 0.026-1.351 0.058-1.889 0.090v-3.15zM22.071 16.447h0.020c0.13 0 0.236 0.106 0.236 0.236 0 0.13-0.106 0.236-0.236 0.236l-8.93 0c-0.070 0-0.13-0.032-0.174-0.080-0.038-0.042-0.062-0.096-0.062-0.157 0-0.066 0.028-0.126 0.071-0.169 0.042-0.041 0.1-0.067 0.165-0.067l8.91-0zM11.804 16.683c0 0.087-0.070 0.158-0.158 0.158h-1.884c-0.087 0-0.158-0.070-0.158-0.158 0-0.087 0.070-0.158 0.158-0.158h1.884c0.087 0 0.158 0.071 0.158 0.158zM22.328 21.721c0 0.13-0.106 0.236-0.236 0.236l-8.93 0c-0.13 0-0.236-0.106-0.236-0.236 0-0.13 0.106-0.236 0.236-0.236h8.93c0.131 0 0.236 0.105 0.236 0.236zM11.804 21.721c0 0.087-0.070 0.158-0.158 0.158h-1.884c-0.087 0-0.158-0.070-0.158-0.158 0-0.087 0.070-0.158 0.158-0.158h1.884c0.087 0 0.158 0.071 0.158 0.158zM22.328 23.4c0 0.13-0.106 0.236-0.236 0.236l-8.93 0c-0.13 0-0.236-0.106-0.236-0.236 0-0.13 0.106-0.236 0.236-0.236h8.93c0.131-0 0.236 0.106 0.236 0.236zM11.804 23.4c0 0.087-0.070 0.158-0.158 0.158h-1.884c-0.087 0-0.158-0.070-0.158-0.158 0-0.087 0.070-0.158 0.158-0.158h1.884c0.087 0 0.158 0.071 0.158 0.158zM22.328 20.042c0 0.13-0.106 0.236-0.236 0.236l-8.93 0c-0.13 0-0.236-0.106-0.236-0.236s0.106-0.236 0.236-0.236h8.93c0.131-0 0.236 0.105 0.236 0.236zM11.804 20.042c0 0.087-0.070 0.158-0.158 0.158h-1.884c-0.087 0-0.158-0.070-0.158-0.158 0-0.087 0.070-0.158 0.158-0.158h1.884c0.087 0 0.158 0.071 0.158 0.158zM22.328 18.362c0 0.13-0.106 0.236-0.236 0.236l-8.93 0c-0.13 0-0.236-0.106-0.236-0.236s0.106-0.236 0.236-0.236h8.93c0.131 0 0.236 0.106 0.236 0.236zM11.779 18.281c0.014 0.024 0.026 0.051 0.026 0.082 0 0.087-0.070 0.158-0.158 0.158h-1.884c-0.087 0-0.158-0.070-0.158-0.158 0-0.087 0.070-0.158 0.158-0.158h1.884c0.056 0 0.103 0.031 0.131 0.076z" fill="#000000" />
</svg>
