<?xml version="1.0" encoding="utf-8"?>
<!-- Generated by IcoMoon.io -->
<!DOCTYPE svg PUBLIC "-//W3C//DTD SVG 1.1//EN" "http://www.w3.org/Graphics/SVG/1.1/DTD/svg11.dtd">
<svg version="1.1" xmlns="http://www.w3.org/2000/svg" xmlns:xlink="http://www.w3.org/1999/xlink" width="32" height="32" viewBox="0 0 32 32">
<g>
</g>
	<path d="M9.66 12.395l2.234-0.347c0.167-0.026 0.282-0.183 0.256-0.35-0.026-0.168-0.184-0.281-0.35-0.256l-2.274 0.353c-0.023 0.004-0.049 0.011-0.072 0.021 0.002-0.014 0.012-0.055 0.058-0.117l4.728-5.714 4.718 5.702c0.056 0.075 0.066 0.119 0.072 0.119-0.002 0.003-0.005 0.006-0.006 0.009-0.026-0.010-0.052-0.018-0.080-0.021l-2.888-0.354c-0.087-0.011-0.175 0.017-0.241 0.075s-0.12 0.142-0.12 0.23v8.164l-2.517-0.306c-0.271-0.107-0.542-0.012-0.719 0.256-0.073 0.11-0.211 0.41 0.103 0.832l4.964 5.999c0.058 0.070 0.145 0.111 0.236 0.111 0.091 0 0.178-0.041 0.236-0.111l4.973-6.011c0.306-0.408 0.169-0.709 0.095-0.82-0.185-0.277-0.467-0.369-0.746-0.246l-2.252 0.347c-0.162 0.047-0.256 0.217-0.209 0.379 0.047 0.163 0.218 0.256 0.38 0.209l2.275-0.353c0.010-0.003 0.022-0.007 0.034-0.012-0.002 0.014-0.012 0.055-0.058 0.116l-4.727 5.714-4.718-5.701c-0.056-0.075-0.066-0.119-0.072-0.119 0.002-0.003 0.004-0.006 0.006-0.009 0.026 0.010 0.052 0.018 0.080 0.021l2.888 0.354c0.087 0.010 0.175-0.017 0.241-0.075 0.066-0.058 0.121-0.142 0.121-0.23v-8.164l2.517 0.306c0.27 0.106 0.542 0.011 0.719-0.256 0.073-0.11 0.211-0.41-0.103-0.832l-4.963-5.999c-0.058-0.070-0.145-0.111-0.236-0.111-0.091 0-0.178 0.041-0.236 0.111l-4.973 6.011c-0.306 0.408-0.169 0.709-0.095 0.82 0.18 0.27 0.453 0.364 0.725 0.254z" fill="#000000" />
</svg>
