<?xml version="1.0" encoding="utf-8"?>
<!-- Generated by IcoMoon.io -->
<!DOCTYPE svg PUBLIC "-//W3C//DTD SVG 1.1//EN" "http://www.w3.org/Graphics/SVG/1.1/DTD/svg11.dtd">
<svg version="1.1" xmlns="http://www.w3.org/2000/svg" xmlns:xlink="http://www.w3.org/1999/xlink" width="32" height="32" viewBox="0 0 32 32">
<g>
</g>
	<path d="M15.962 5.196c-6.253 0-11.341 5.087-11.341 11.34 0 6.254 5.088 11.342 11.341 11.342h0.001c6.253 0 11.339-5.087 11.339-11.341s-5.087-11.341-11.341-11.341zM24.896 10.606c-0.862 0.831-1.631 1.768-2.291 2.79-0.057-0.014-0.115-0.022-0.176-0.022-0.123 0-0.238 0.032-0.341 0.084-0.571-0.794-1.037-1.609-1.384-2.416 0.206-0.138 0.342-0.372 0.342-0.638 0-0.072-0.014-0.141-0.032-0.208 0.775-0.547 1.438-1.138 1.972-1.759 0.73 0.634 1.374 1.362 1.911 2.169zM10.82 13.709c0.589-0.058 1.183-0.143 1.779-0.247 0.128 0.246 0.381 0.416 0.676 0.416 0 0 0 0 0.001 0 0.105 0 0.204-0.021 0.295-0.059 0.759 1.090 1.656 2.106 2.681 3.006 1.070 0.94 2.234 1.726 3.458 2.349-0.014 0.059-0.024 0.12-0.024 0.183 0 0.296 0.172 0.551 0.418 0.678-0.134 0.888-0.2 1.778-0.188 2.66-0.147 0.035-0.28 0.104-0.394 0.197-1.142-0.816-2.386-1.503-3.703-2.031-1.582-0.634-3.216-1.031-4.86-1.192-0.1-0.43-0.478-0.751-0.936-0.767-0.121-0.77-0.186-1.56-0.186-2.363 0-0.664 0.048-1.317 0.131-1.959 0.448-0.061 0.8-0.419 0.853-0.87zM10.326 12.734c0.282-1.073 0.679-2.093 1.187-3.035 0.316 0.977 0.738 1.93 1.255 2.843-0.133 0.119-0.223 0.283-0.248 0.469-0.588 0.103-1.173 0.181-1.754 0.238-0.082-0.219-0.238-0.401-0.44-0.516zM20.386 18.597c-0.222 0.019-0.415 0.132-0.543 0.299-1.199-0.61-2.341-1.38-3.389-2.302-1.006-0.884-1.886-1.88-2.631-2.948 0.121-0.125 0.198-0.291 0.213-0.475 2.145-0.506 4.11-1.263 5.741-2.193 0.134 0.118 0.308 0.192 0.5 0.193h0.002c0.050 0 0.099-0.006 0.146-0.015 0.358 0.834 0.836 1.674 1.423 2.49-0.114 0.134-0.185 0.305-0.185 0.494 0.001 0.199 0.079 0.379 0.205 0.516-0.455 0.866-0.843 1.777-1.148 2.727-0.128 0.402-0.236 0.807-0.334 1.212zM20.127 6.651c0.905 0.383 1.745 0.888 2.504 1.492-0.503 0.582-1.136 1.142-1.88 1.664-0.13-0.104-0.294-0.168-0.473-0.169-0.021 0-0.041 0.005-0.061 0.006-0.283-1.084-0.323-2.109-0.090-2.994zM15.962 5.809c1.368 0 2.675 0.26 3.878 0.729-0.255 0.942-0.215 2.037 0.087 3.189-0.246 0.128-0.416 0.382-0.416 0.678 0 0.058 0.008 0.115 0.021 0.17-1.599 0.909-3.529 1.656-5.602 2.147-0.134-0.223-0.376-0.376-0.657-0.377-0.085 0-0.166 0.018-0.243 0.043-0.553-0.977-0.996-1.999-1.314-3.047 0.784-1.35 1.794-2.527 2.996-3.457 0.41-0.048 0.826-0.075 1.248-0.075zM13.828 6.023c-0.878 0.779-1.644 1.69-2.28 2.706-0.152-0.598-0.261-1.203-0.329-1.81 0.817-0.405 1.692-0.71 2.609-0.896zM10.927 7.068c0.083 0.68 0.219 1.357 0.404 2.026-0.628 1.078-1.116 2.258-1.447 3.511-0.018-0.001-0.034-0.006-0.052-0.006-0.466 0-0.854 0.324-0.962 0.758-1.083 0.013-2.121-0.060-3.082-0.219 0.878-2.617 2.735-4.787 5.138-6.070zM5.234 16.537c0-1.025 0.147-2.015 0.417-2.954 0.929 0.158 1.927 0.241 2.97 0.241 0.080 0 0.163-0.006 0.244-0.007 0.077 0.335 0.324 0.603 0.644 0.715-0.085 0.658-0.134 1.326-0.134 2.006 0 0.834 0.067 1.654 0.195 2.455-0.249 0.116-0.439 0.332-0.524 0.596-1.090 0.016-2.178 0.137-3.25 0.365-0.362-1.074-0.562-2.222-0.562-3.416zM5.953 20.39c1.009-0.21 2.031-0.323 3.057-0.341 0.076 0.475 0.485 0.841 0.979 0.841h0.003c0.004 0 0.007-0.001 0.012-0.001 0.719 2.431 2.037 4.575 3.826 6.163-3.615-0.732-6.573-3.288-7.876-6.662zM15.964 27.265h-0.001c-0.422 0-0.838-0.027-1.247-0.075-2.018-1.561-3.495-3.818-4.268-6.418 0.25-0.131 0.438-0.362 0.506-0.643 1.587 0.16 3.163 0.544 4.692 1.157 1.277 0.513 2.484 1.178 3.592 1.967-0.056 0.125-0.090 0.262-0.090 0.408 0 0.522 0.406 0.947 0.918 0.988 0.079 0.557 0.188 1.109 0.328 1.654-1.352 0.616-2.851 0.962-4.431 0.962zM20.817 26.1c-0.125-0.5-0.223-1.006-0.295-1.517 0.079-0.032 0.151-0.076 0.218-0.126 0.376 0.338 0.733 0.696 1.075 1.066-0.322 0.209-0.655 0.402-0.998 0.577zM22.198 25.259c-0.369-0.402-0.756-0.79-1.164-1.158 0.066-0.134 0.108-0.282 0.108-0.441 0-0.468-0.328-0.86-0.766-0.965-0.013-0.856 0.051-1.72 0.182-2.583 0.218-0.030 0.407-0.149 0.526-0.322 1.521 0.602 3.109 0.959 4.707 1.042-0.781 1.779-2.031 3.307-3.593 4.427zM25.916 20.531c-1.6-0.070-3.19-0.421-4.713-1.022 0.010-0.049 0.015-0.1 0.015-0.153 0-0.281-0.155-0.526-0.383-0.658 0.095-0.392 0.198-0.784 0.323-1.173 0.294-0.919 0.669-1.8 1.108-2.637 0.052 0.011 0.106 0.018 0.161 0.019h0.002c0.128 0 0.247-0.035 0.353-0.090 0.26 0.295 0.529 0.586 0.817 0.867 0.93 0.908 1.937 1.67 2.994 2.282-0.12 0.894-0.35 1.754-0.677 2.565zM23.813 15.465c-0.28-0.273-0.542-0.555-0.794-0.842 0.109-0.132 0.176-0.299 0.176-0.483 0-0.195-0.076-0.371-0.197-0.506 0.622-0.962 1.343-1.844 2.15-2.631 0.978 1.617 1.542 3.511 1.542 5.535 0 0.37-0.019 0.736-0.056 1.096-0.993-0.588-1.942-1.311-2.821-2.169z" fill="#000000" />
</svg>
