<?xml version="1.0" encoding="utf-8"?>
<!-- Generated by IcoMoon.io -->
<!DOCTYPE svg PUBLIC "-//W3C//DTD SVG 1.1//EN" "http://www.w3.org/Graphics/SVG/1.1/DTD/svg11.dtd">
<svg version="1.1" xmlns="http://www.w3.org/2000/svg" xmlns:xlink="http://www.w3.org/1999/xlink" width="32" height="32" viewBox="0 0 32 32">
<g>
</g>
	<path d="M21.183 13.69c0.013-0.034 0.019-0.070 0.019-0.108v-1.143c0-2.271-1.447-4.467-3.4-5.211v-1.118c0-0.059-0.003-0.119-0.009-0.177 0.188-0.114 0.304-0.269 0.304-0.474v-1.738c0-0.648-1.141-0.784-2.098-0.784s-2.098 0.136-2.098 0.784v1.738c0 0.206 0.116 0.36 0.304 0.474-0.006 0.058-0.009 0.118-0.009 0.177v1.118c-1.953 0.745-3.4 2.94-3.4 5.212v1.155c0 0.038 0.007 0.074 0.020 0.109l0.252 0.662v8.865l-0.242 0.499c-0.020 0.042-0.031 0.087-0.031 0.134 0 4.326 1.258 5.145 3.749 5.2 0.262 0 0.545-0.145 0.845-0.298 0.212-0.109 0.476-0.243 0.608-0.243 0.118 0 0.379 0.14 0.569 0.241 0.29 0.155 0.564 0.302 0.819 0.302 2.534-0.045 3.814-0.862 3.814-5.202 0-0.048-0.011-0.096-0.034-0.139l-0.254-0.497 0.015-8.862 0.254-0.675zM14.515 3.777c0.108-0.075 0.525-0.227 1.485-0.227s1.377 0.152 1.484 0.227v1.626c-0.108 0.075-0.524 0.227-1.484 0.227s-1.377-0.152-1.485-0.227v-1.626zM20.59 13.527l-0.253 0.674c-0.013 0.034-0.019 0.070-0.019 0.107l-0.015 8.992c0 0.049 0.011 0.097 0.034 0.14l0.254 0.497c-0.014 4.156-1.221 4.479-3.202 4.515-0.101 0-0.349-0.132-0.53-0.229-0.288-0.154-0.587-0.314-0.858-0.314-0.281 0-0.59 0.158-0.888 0.311-0.201 0.103-0.451 0.231-0.568 0.231-1.94-0.043-3.122-0.369-3.135-4.517l0.242-0.499c0.020-0.042 0.031-0.087 0.031-0.134l-0-8.992c0-0.038-0.007-0.074-0.020-0.109l-0.252-0.662v-1.098c0-2.099 1.371-4.12 3.189-4.703 0.13-0.042 0.215-0.19 0.211-0.326v-1.265c0.365 0.073 0.793 0.098 1.19 0.098s0.824-0.024 1.19-0.098v1.3c0 0.133 0.086 0.251 0.213 0.292 1.817 0.583 3.187 2.604 3.187 4.702l0.001 1.088zM17.146 4.004c-0.013-0.083-0.093-0.141-0.174-0.128-0.357 0.054-0.789 0.076-1.247 0.063-0.24-0.007-0.475-0.024-0.698-0.049-0.084-0.008-0.16 0.051-0.17 0.135-0.010 0.084 0.051 0.16 0.135 0.17 0.232 0.026 0.476 0.043 0.725 0.051 0.088 0.002 0.176 0.004 0.262 0.004 0.38 0 0.735-0.024 1.041-0.070 0.083-0.013 0.141-0.091 0.128-0.175zM14.818 14.332c-0.13 0.005-0.233 0.096-0.237 0.223-0.004 0.127 0.096 0.233 0.223 0.237 0.373 0.011 0.775 0.019 1.197 0.019 1.585 0 2.847-0.102 3.458-0.161 0.126-0.012 0.218-0.125 0.206-0.251s-0.125-0.219-0.251-0.206c-0.603 0.059-1.848 0.159-3.413 0.159-0.417-0.001-0.814-0.008-1.183-0.019zM12.513 14.652c0.202 0.019 0.502 0.045 0.878 0.070 0.006 0 0.010 0.001 0.016 0.001 0.12 0 0.221-0.093 0.229-0.214 0.009-0.126-0.087-0.236-0.214-0.245-0.37-0.026-0.666-0.050-0.865-0.070-0.126-0.010-0.239 0.081-0.251 0.207s0.080 0.239 0.207 0.251zM19.413 22.992c-0.482 0.047-1.778 0.159-3.413 0.159-0.417 0-0.814-0.007-1.182-0.019-0.129 0.002-0.233 0.096-0.237 0.223-0.004 0.127 0.096 0.233 0.223 0.237 0.373 0.012 0.775 0.019 1.197 0.019 1.655 0 2.97-0.112 3.458-0.161 0.126-0.013 0.218-0.125 0.206-0.251-0.013-0.126-0.121-0.219-0.252-0.206zM13.422 23.063c-0.37-0.025-0.666-0.050-0.865-0.070-0.125-0.011-0.239 0.081-0.251 0.207s0.081 0.239 0.207 0.251c0.202 0.019 0.502 0.045 0.878 0.070 0.006 0 0.011 0.001 0.016 0.001 0.12 0 0.221-0.093 0.229-0.214 0.009-0.127-0.087-0.236-0.214-0.245zM18.218 21.113l0.613-1.179c0-0.001-0-0.002 0-0.003 0-0.001 0.001-0.001 0.001-0.002 0.244-0.534 0.037-0.912 0.030-0.926l-0.447-0.821c-0.011-0.021-0.031-0.036-0.053-0.042-0.022-0.006-0.046-0.003-0.067 0.009l-1.176 0.696c-0.040 0.024-0.054 0.075-0.032 0.116l0.616 1.102h-0.666l0.003-0.265c0-0.042 0-0.083-0.054-0.118-0.045-0.030-0.104-0.026-0.156 0.013-0.007 0.006-0.014 0.012-0.019 0.020l-0.679 0.978c-0.021 0.030-0.021 0.069 0 0.098l0.679 0.979c0.005 0.008 0.012 0.014 0.019 0.020 0.029 0.022 0.059 0.033 0.090 0.033 0.023 0 0.046-0.007 0.066-0.020 0.054-0.036 0.054-0.076 0.054-0.119l-0.003-0.264h0.488c0.514 0.001 0.682-0.291 0.691-0.305zM17.28 18.952l1.027-0.608 0.404 0.743c0.006 0.013 0.169 0.319-0.034 0.769-0.087 0.165-0.388 0.209-0.539 0.209h-0.236l-0.622-1.113zM16.952 21.247c-0.023 0-0.045 0.009-0.061 0.026-0.016 0.016-0.025 0.039-0.025 0.062l0.002 0.213-0.558-0.806 0.559-0.805-0.002 0.213c-0.001 0.023 0.009 0.045 0.025 0.062 0.017 0.016 0.038 0.026 0.061 0.026h1.19c0.049 0 0.209-0.005 0.368-0.057l-0.444 0.853c-0.001 0.002-0.131 0.215-0.539 0.215l-0.575 0zM15.677 21.442h0.003c0.022 0 0.044-0.009 0.060-0.024 0.017-0.017 0.026-0.038 0.026-0.062v-1.366c0-0.047-0.039-0.086-0.086-0.086l-1.278-0.002 0.351-0.604 0.231 0.141c0.026 0.015 0.046 0.027 0.076 0.027 0.025 0 0.042-0.009 0.052-0.014 0.049-0.024 0.075-0.076 0.069-0.14-0.001-0.010-0.004-0.019-0.007-0.028l-0.499-1.082c-0.015-0.033-0.049-0.052-0.085-0.050l-1.188 0.088c-0.009 0.001-0.019 0.003-0.027 0.006-0.059 0.026-0.094 0.073-0.090 0.128 0.004 0.065 0.038 0.085 0.076 0.107l0.224 0.127-0.244 0.424c-0.068 0.115-0.113 0.23-0.134 0.344 0 0.001 0 0.001-0 0.001v0c-0.001 0.005-0 0.009-0.001 0.014v0.001c-0.035 0.242 0.121 0.508 0.129 0.52l0.623 0.998 0.001 0 0.002 0.003c0.337 0.481 0.766 0.495 0.783 0.495l0.933 0.031zM13.378 19.402c0.018-0.091 0.055-0.186 0.112-0.282l0.287-0.5c0.011-0.020 0.014-0.044 0.008-0.066-0.006-0.022-0.021-0.041-0.041-0.051l-0.179-0.102 0.977-0.072 0.41 0.889-0.186-0.114c-0.020-0.012-0.044-0.016-0.066-0.010-0.022 0.006-0.042 0.020-0.054 0.040l-0.446 0.768-0.001 0c-0.127 0-0.446-0.016-0.648-0.161-0.116-0.084-0.174-0.195-0.175-0.341zM14.105 20.821l-0.547-0.875c0.018 0.009 0.037 0.014 0.054 0.021 0.024 0.010 0.047 0.020 0.072 0.028 0.042 0.014 0.082 0.026 0.123 0.035 0.023 0.006 0.045 0.011 0.067 0.015 0.045 0.008 0.087 0.014 0.129 0.018 0.017 0.002 0.034 0.005 0.050 0.006 0.055 0.004 0.106 0.006 0.146 0.006 0.023 0 0.042-0.001 0.054-0.001l0.014-0.001 1.324 0.002v1.192l-0.844-0.029c-0.014-0.002-0.362-0.017-0.644-0.419zM15.36 18.262c0.014 0.009 0.030 0.013 0.045 0.013 0.028 0 0.055-0.014 0.072-0.039l0.69-1.052 0.298 0.585-0.224 0.121c-0.036 0.019-0.073 0.038-0.080 0.102-0.006 0.055 0.026 0.104 0.084 0.132 0.008 0.004 0.018 0.007 0.027 0.008l1.182 0.15c0.004 0 0.007 0.001 0.010 0.001 0.032 0 0.062-0.018 0.077-0.046l0.554-1.054c0.004-0.008 0.007-0.017 0.008-0.026 0.011-0.064-0.012-0.118-0.060-0.145-0.011-0.006-0.030-0.017-0.057-0.017-0.028 0-0.047 0.010-0.071 0.023l-0.246 0.124-0.214-0.431c-0.238-0.456-0.574-0.471-0.591-0.471l-1.334 0.001c-0.587 0.032-0.826 0.388-0.835 0.402l-0.522 0.775c-0.013 0.019-0.018 0.043-0.013 0.066s0.019 0.042 0.039 0.055l1.161 0.721zM16.86 16.414c0.010 0.001 0.253 0.018 0.441 0.377l0.251 0.507c0.010 0.021 0.029 0.036 0.050 0.043s0.045 0.006 0.066-0.005l0.206-0.104-0.459 0.874-0.978-0.124 0.185-0.099c0.041-0.022 0.057-0.073 0.036-0.115l-0.535-1.048c-0.006-0.011-0.088-0.172-0.224-0.304l0.962-0.001zM14.838 16.74c0.008-0.012 0.205-0.298 0.697-0.326 0.198 0.002 0.38 0.275 0.434 0.381l0.109 0.212-0.698 1.064-1.014-0.63 0.472-0.701z" fill="#000000" />
</svg>
