<?xml version="1.0" encoding="utf-8"?>
<!-- Generated by IcoMoon.io -->
<!DOCTYPE svg PUBLIC "-//W3C//DTD SVG 1.1//EN" "http://www.w3.org/Graphics/SVG/1.1/DTD/svg11.dtd">
<svg version="1.1" xmlns="http://www.w3.org/2000/svg" xmlns:xlink="http://www.w3.org/1999/xlink" width="32" height="32" viewBox="0 0 32 32">
<g>
</g>
	<path d="M25.486 21.043v-6.677c0-0.17-0.137-0.306-0.306-0.306h-8.896v-3.133c1.44-0.147 2.567-1.367 2.567-2.846 0-1.577-1.284-2.861-2.861-2.861-1.577 0-2.861 1.284-2.861 2.861 0 1.47 1.114 2.682 2.541 2.842v3.137h-8.896c-0.17 0-0.306 0.137-0.306 0.306v6.673c-1.442 0.145-2.573 1.366-2.573 2.846 0 1.577 1.284 2.861 2.861 2.861 1.577 0 2.861-1.283 2.861-2.861 0-1.468-1.111-2.679-2.536-2.841v-6.37h8.59v6.37c-1.427 0.16-2.541 1.372-2.541 2.842 0 1.577 1.283 2.861 2.861 2.861 1.577 0 2.861-1.283 2.861-2.861 0-1.478-1.127-2.698-2.567-2.846l-0-6.366h8.59v6.366c-1.44 0.147-2.567 1.367-2.567 2.846 0 1.577 1.283 2.861 2.861 2.861 1.577 0 2.861-1.283 2.861-2.861 0-1.469-1.114-2.682-2.541-2.842zM9.004 23.885c0 1.239-1.008 2.248-2.248 2.248s-2.248-1.008-2.248-2.248c0-1.24 1.009-2.248 2.248-2.248s2.248 1.008 2.248 2.248zM18.238 23.885c0 1.239-1.008 2.248-2.248 2.248s-2.248-1.008-2.248-2.248c0-1.24 1.008-2.248 2.248-2.248s2.248 1.008 2.248 2.248zM15.99 10.33c-1.239 0-2.248-1.008-2.248-2.248s1.008-2.248 2.248-2.248 2.248 1.008 2.248 2.248-1.008 2.248-2.248 2.248zM25.167 26.133c-1.239 0-2.248-1.008-2.248-2.248 0-1.24 1.008-2.248 2.248-2.248s2.248 1.008 2.248 2.248c0 1.239-1.008 2.248-2.248 2.248z" fill="#000000" />
</svg>
