<?xml version="1.0" encoding="utf-8"?>
<!-- Generated by IcoMoon.io -->
<!DOCTYPE svg PUBLIC "-//W3C//DTD SVG 1.1//EN" "http://www.w3.org/Graphics/SVG/1.1/DTD/svg11.dtd">
<svg version="1.1" xmlns="http://www.w3.org/2000/svg" xmlns:xlink="http://www.w3.org/1999/xlink" width="32" height="32" viewBox="0 0 32 32">
<g>
</g>
	<path d="M10.539 6.26c-0.566-0.426-1.017-0.633-1.379-0.633-0.382 0-0.565 0.236-0.614 0.375-0.017 0.049-0.016 0.103 0.002 0.152l0.856 2.337-0.142 1.115-1.144 0.534-0.865-0.755c-0.090-0.244-0.461-1.25-0.65-1.783-0.158-0.445-0.326-0.66-0.545-0.694-0.135-0.022-0.248 0.040-0.312 0.108-1.832 1.594-0.351 4.441-0.261 4.611 0.019 0.040 0.16 0.332 0.396 0.71l-0.141 0.066c-0.349 0.165-0.456 0.57-0.26 0.983 0.131 0.278 0.352 0.437 0.606 0.437 0.097 0 0.196-0.023 0.294-0.070l0.447-0.211c0.067 0.065 0.135 0.129 0.206 0.189 0.39 0.33 0.535 0.539 0.499 1.423l-0.342 9.973c-0.003 0.039-0.084 0.948 0.458 1.544 0.298 0.327 0.716 0.494 1.245 0.494 0.498 0 0.894-0.16 1.178-0.473 0.536-0.595 0.446-1.524 0.443-1.547l-0.322-9.97c0-0.112-0.003-0.219-0.007-0.324-0.022-0.708-0.037-1.176 1.088-2.065 1.475-1.166 1.136-3.225 1.122-3.31-0.327-2.024-1.792-3.168-1.856-3.217zM5.796 11.225c-0.287-0.632-1.065-2.667 0.209-3.831 0.038 0.051 0.098 0.155 0.17 0.36 0.217 0.611 0.672 1.843 0.672 1.843 0.013 0.036 0.035 0.067 0.064 0.092l0.757 0.661-1.873 0.874zM6.236 13.446c-0.052 0.024-0.102 0.037-0.148 0.037-0.16 0-0.255-0.152-0.298-0.242-0.069-0.147-0.127-0.423 0.098-0.53l0.183-0.087c0.147 0.215 0.318 0.442 0.51 0.658l-0.345 0.163zM10.994 12.43c-1.305 1.031-1.284 1.682-1.26 2.437 0.003 0.099 0.006 0.202 0.006 0.316l0.323 9.993c0.001 0.007 0.068 0.774-0.327 1.213-0.196 0.218-0.471 0.324-0.841 0.324-0.394 0-0.699-0.116-0.908-0.344-0.407-0.446-0.344-1.19-0.342-1.211l0.342-9.986c0.038-0.933-0.105-1.317-0.66-1.786-0.633-0.536-1.124-1.372-1.329-1.754l3.569-1.666c0.070-0.033 0.119-0.1 0.129-0.177l0.165-1.294c0.005-0.036 0-0.072-0.012-0.107l-0.833-2.273c0.029-0.018 0.073-0.033 0.143-0.033 0.145 0 0.48 0.070 1.104 0.541 0.014 0.010 1.386 1.087 1.685 2.93 0.003 0.019 0.305 1.882-0.955 2.879zM10.054 10.628c-0.057-0.075-0.163-0.090-0.238-0.034-0.075 0.056-0.090 0.163-0.034 0.238l0.662 0.885c0.034 0.045 0.085 0.068 0.136 0.068 0.036 0 0.071-0.011 0.102-0.034 0.075-0.056 0.090-0.163 0.034-0.238l-0.662-0.885zM9.441 10.926c-0.056-0.075-0.163-0.091-0.238-0.034s-0.090 0.163-0.034 0.238l0.662 0.885c0.034 0.044 0.085 0.068 0.136 0.068 0.036 0 0.071-0.011 0.102-0.034 0.075-0.056 0.091-0.163 0.034-0.238l-0.662-0.885zM9.218 12.312c0.034 0.045 0.084 0.069 0.136 0.069 0.036 0 0.071-0.011 0.102-0.034 0.075-0.057 0.091-0.163 0.034-0.238l-0.662-0.885c-0.056-0.075-0.163-0.090-0.238-0.034s-0.090 0.163-0.034 0.238l0.662 0.885zM8.742 12.678c0.035 0 0.071-0.011 0.102-0.034 0.075-0.057 0.091-0.163 0.034-0.238l-0.662-0.885c-0.056-0.075-0.163-0.090-0.238-0.034-0.075 0.056-0.090 0.163-0.034 0.238l0.662 0.885c0.033 0.044 0.084 0.068 0.136 0.068zM8.883 24.599c-0.157 0-0.31 0.045-0.443 0.129-0.384 0.245-0.498 0.757-0.254 1.141 0.153 0.24 0.414 0.383 0.698 0.383 0.157 0 0.31-0.045 0.443-0.13 0.385-0.244 0.498-0.757 0.254-1.141-0.153-0.24-0.414-0.383-0.698-0.383zM9.145 25.836c-0.22 0.141-0.532 0.070-0.672-0.15-0.144-0.226-0.077-0.527 0.15-0.671 0.078-0.050 0.168-0.076 0.261-0.076 0.167 0 0.321 0.084 0.411 0.225 0.144 0.226 0.077 0.528-0.149 0.672zM18.242 20.38c0-0.060-0.024-0.118-0.066-0.16-0.35-0.349-0.52-0.69-0.509-1.012 0.014-0.385 0.293-0.631 0.295-0.632 0.051-0.043 0.081-0.107 0.081-0.174v-1.454c0-0.125-0.102-0.227-0.227-0.227h-1.194l-0-6.226 0.412-1.143c0.014-0.037 0.017-0.077 0.010-0.116l-0.529-3.016c-0.019-0.109-0.113-0.188-0.223-0.188h-1.081c-0.11 0-0.204 0.079-0.223 0.188l-0.529 3.016c-0.007 0.039-0.004 0.079 0.010 0.116l0.412 1.143v6.226h-1.194c-0.126 0-0.227 0.102-0.227 0.227v1.454c0 0.067 0.030 0.13 0.081 0.174 0.003 0.002 0.278 0.243 0.294 0.626 0.014 0.324-0.157 0.666-0.508 1.017-0.042 0.043-0.066 0.101-0.066 0.16l0 5.864c-0.002 0.031-0.013 0.305 0.249 0.586 0.385 0.413 1.139 0.622 2.242 0.622s1.858-0.209 2.242-0.622c0.262-0.281 0.251-0.555 0.25-0.57l-0.001-5.88zM15.4 6.487h0.701l0.486 2.769-0.405 1.124c-0.009 0.024-0.014 0.050-0.014 0.077v6.266h-0.836l0-6.266c0-0.026-0.005-0.052-0.014-0.077l-0.405-1.124 0.486-2.769zM14.838 26.934c-0.134-0.021-0.251-0.047-0.355-0.077v-5.006c0-0.21 0-0.391 0.036-0.492 0.016-0.044 0.030-0.085 0.159-0.085 0.124 0 0.16 0.077 0.16 0.586v5.075zM17.042 26.851c-0.105 0.030-0.22 0.058-0.356 0.080v-5.072c0-0.509 0.037-0.586 0.16-0.586 0.106 0 0.135 0.033 0.158 0.103 0.037 0.109 0.037 0.287 0.037 0.483v4.992zM17.788 26.268c0 0.004-0.011 0.247-0.406 0.452v-4.867c0-0.218 0-0.423-0.054-0.584-0.074-0.219-0.24-0.335-0.481-0.335-0.501 0-0.501 0.514-0.501 0.926v5.113c-0.177 0.016-0.372 0.026-0.596 0.026-0.214 0-0.4-0.009-0.571-0.024l-0-5.114c0-0.413 0-0.926-0.501-0.926-0.245 0-0.407 0.105-0.48 0.312-0.056 0.156-0.056 0.355-0.056 0.614v4.872c-0.419-0.208-0.431-0.462-0.431-0.471l0-5.788c0.4-0.424 0.593-0.857 0.574-1.29-0.019-0.433-0.249-0.738-0.375-0.875v-1.132h3.677v1.132c-0.126 0.136-0.356 0.442-0.375 0.875-0.019 0.433 0.174 0.866 0.574 1.29l-0 5.796zM26.95 6.15c-0.041-0.074-0.118-0.117-0.202-0.118l-0.91 0.016c-0.028 0-0.056 0.006-0.082 0.017-0.004 0.002-0.383 0.155-0.82 0.155-0.373 0-0.672-0.11-0.89-0.328-0.042-0.042-0.1-0.066-0.16-0.066l-1.787 0.001c-0.028 0.002-2.778 0.239-3.481 3.132-0.047 0.196-0.021 0.538 0.185 0.686 0.051 0.037 0.114 0.056 0.18 0.056 0.235 0 0.472-0.241 0.554-0.348 0.006-0.010 0.636-0.96 1.148-1.346 0.073-0.058 0.322-0.22 0.505-0.22 0.058 0 0.125 0.011 0.178 0.142 0.145 0.358 0.28 1.106 0.39 1.707l0.017 0.092c0.019 0.105 0.109 0.181 0.215 0.185v6.243c-0.23 0.134-0.381 0.363-0.381 0.63l-0.025 9.639c0 0.487 0.779 0.753 1.179 0.753h0.492c0.409 0 1.203-0.266 1.203-0.754l-0.025-9.638c0-0.267-0.15-0.497-0.382-0.63l-0-6.25c0.092-0.020 0.166-0.093 0.178-0.19l0.17-1.346c0.157-0.136 0.33-0.203 0.529-0.203 0.409 0 0.773 0.285 0.776 0.287 0.039 0.032 0.088 0.049 0.138 0.050l0.91 0.016c0.082-0.005 0.16-0.043 0.201-0.116 0.022-0.040 0.216-0.406 0.216-1.144-0-0.712-0.207-1.096-0.215-1.112zM23.25 26.725h-0.491c-0.305 0-0.704-0.199-0.725-0.298l0.025-9.64c0-0.165 0.179-0.299 0.398-0.299h1.119c0.22 0 0.398 0.134 0.398 0.299l0.026 9.634c-0.028 0.102-0.442 0.303-0.75 0.303zM22.44 16.036v-6.12h1.153v6.12c-0.006-0.001-0.011-0.002-0.017-0.002h-1.119c-0.006 0-0.011 0.001-0.017 0.002zM25.557 7.855c-0.178-0.076-0.397-0.141-0.634-0.141-0.343 0-0.647 0.13-0.904 0.387-0.035 0.035-0.058 0.082-0.064 0.132l-0.155 1.229h-1.616c-0.114-0.63-0.243-1.32-0.398-1.701-0.111-0.274-0.324-0.425-0.599-0.425-0.372 0-0.744 0.285-0.781 0.314-0.571 0.43-1.223 1.414-1.241 1.442-0.030 0.039-0.074 0.079-0.112 0.109-0.006-0.043-0.006-0.094 0.004-0.134 0.623-2.566 2.974-2.779 3.057-2.786h1.681c0.297 0.262 0.68 0.394 1.14 0.394 0.222 0 0.428-0.032 0.595-0.069 0.026 0.175 0.056 0.447 0.056 0.765-0.001 0.215-0.014 0.372-0.029 0.486zM26.599 8.065l-0.682-0.012c-0.012-0.008-0.028-0.019-0.042-0.028 0.026-0.136 0.051-0.347 0.051-0.655 0-0.366-0.037-0.676-0.065-0.86 0.007-0.003 0.018-0.006 0.025-0.009l0.714-0.013c0.047 0.141 0.112 0.401 0.112 0.773 0 0.397-0.065 0.663-0.112 0.804z" fill="#000000" />
</svg>
