<?xml version="1.0" encoding="utf-8"?>
<!-- Generated by IcoMoon.io -->
<!DOCTYPE svg PUBLIC "-//W3C//DTD SVG 1.1//EN" "http://www.w3.org/Graphics/SVG/1.1/DTD/svg11.dtd">
<svg version="1.1" xmlns="http://www.w3.org/2000/svg" xmlns:xlink="http://www.w3.org/1999/xlink" width="32" height="32" viewBox="0 0 32 32">
<g>
</g>
	<path d="M19.847 6.578c-0.091-0.836-0.801-1.489-1.66-1.489l-4.547-0c-0.866 0-1.58 0.663-1.662 1.507-2.431 0.256-4.862 0.751-4.862 1.607v1.113c0 0.247 0.213 0.477 0.577 0.688l1.235 14.812c0 1.253 3.657 2.095 7.073 2.095 3.415 0 7.072-0.842 7.071-2.073l1.234-14.833c0.364-0.211 0.578-0.441 0.578-0.688v-1.113c0-0.877-2.548-1.375-5.037-1.625zM12.487 7.643v-0.884c0-0.074 0.009-0.145 0.022-0.215 0.102-0.532 0.57-0.937 1.131-0.937h4.547c0.556 0 1.022 0.396 1.129 0.922 0.016 0.074 0.024 0.152 0.024 0.23v1.274c0 0.044-0.002 0.078-0.060 0.099-0.051 0.019-0.147 0.030-0.328 0.030-0.326 0-0.377-0.033-0.386-0.093-0.002-0.011-0.002-0.023-0.002-0.037v-1.274c0-0.123-0.060-0.232-0.153-0.301-0.063-0.046-0.14-0.075-0.224-0.075h-1.296c-0.335-0.011-0.638-0.016-0.891-0.016s-0.558 0.006-0.892 0.016h-1.468c-0.092 0-0.175 0.034-0.241 0.089-0.082 0.069-0.135 0.172-0.135 0.287l-0 0.23v1.045c0 0.018-0.001 0.035-0.006 0.050-0.016 0.051-0.083 0.079-0.383 0.079-0.135 0-0.222-0.006-0.279-0.017-0.107-0.020-0.109-0.058-0.109-0.113l0-0.389zM22.555 24.817c0 0.542-2.552 1.577-6.555 1.577-4.003 0-6.555-1.036-6.557-1.599l-1.212-14.534c1.844 0.742 5.544 1.182 7.768 1.182 2.223 0 5.923-0.44 7.767-1.182l-1.212 14.555zM24.363 9.32c-0.028 0.108-0.223 0.239-0.55 0.38-1.255 0.542-4.469 1.226-7.814 1.226-3.346 0-6.56-0.683-7.814-1.225-0.33-0.142-0.524-0.274-0.551-0.381 0-0.001-0.001-0.002-0.001-0.004l-0.001-1.109c0.090-0.342 1.866-0.82 4.337-1.098v0.924c0 0.068 0.008 0.127 0.021 0.182 0.11 0.463 0.642 0.465 0.884 0.465 0.269 0 0.897-0.001 0.905-0.634 0-0.004 0.001-0.008 0.001-0.012v-1.080c0.383-0.024 0.774-0.041 1.173-0.053h2.091c0.338 0.010 0.673 0.024 1 0.042v1.091c0.001 0.646 0.635 0.646 0.906 0.646 0.246 0 0.79-0.002 0.889-0.486 0.010-0.049 0.017-0.101 0.017-0.16v-0.943c2.561 0.274 4.418 0.766 4.509 1.113l0.001 1.11c-0.001 0.002-0.003 0.005-0.003 0.006zM23.778 8.589c-0.038-0.066-0.11-0.102-0.187-0.094-0.016 0.002-0.032 0.002-0.048 0.009-0.201 0.078-0.457 0.158-0.756 0.238-2.247 0.599-6.983 1.178-10.070 0.671-0.109-0.018-0.206 0.054-0.223 0.16-0.018 0.106 0.054 0.206 0.16 0.223 0.843 0.138 1.808 0.197 2.813 0.197 3.046 0 6.456-0.541 7.958-1.035 0.094-0.031 0.182-0.062 0.26-0.092 0.101-0.039 0.15-0.151 0.111-0.251-0.005-0.010-0.012-0.017-0.017-0.026zM11.452 9.235c-0.879-0.132-1.671-0.315-2.251-0.483-0.331-0.096-0.591-0.187-0.759-0.261-0.051-0.022-0.096-0.043-0.129-0.063-0.093-0.054-0.211-0.022-0.265 0.071-0.038 0.066-0.032 0.143 0.008 0.203 0.016 0.025 0.037 0.046 0.063 0.062 0.101 0.058 0.262 0.126 0.469 0.199 0.627 0.221 1.68 0.485 2.807 0.654 0.009 0.002 0.019 0.002 0.029 0.002 0.095 0 0.177-0.069 0.192-0.165 0.017-0.106-0.056-0.205-0.162-0.221zM15.106 13.676v11.352c0 0.107 0.087 0.194 0.194 0.194 0.108 0 0.194-0.087 0.194-0.194l-0-11.352c0-0.303 0.247-0.55 0.55-0.55s0.55 0.247 0.55 0.55v11.352c0 0.107 0.087 0.194 0.195 0.194s0.194-0.087 0.194-0.194l0-11.352c0-0.517-0.421-0.938-0.938-0.938s-0.938 0.421-0.938 0.938zM19.311 24.964h0.009c0.103 0 0.189-0.082 0.194-0.185l0.518-11.361c0-0.303 0.247-0.55 0.55-0.55 0.303 0 0.55 0.246 0.55 0.541l-0.517 11.093c-0.005 0.107 0.078 0.198 0.185 0.203 0.108 0.010 0.198-0.078 0.203-0.185l0.518-11.103c0-0.517-0.421-0.938-0.938-0.938s-0.938 0.421-0.938 0.929l-0.518 11.352c-0.005 0.108 0.078 0.198 0.185 0.204zM11.509 12.479c-0.517 0-0.938 0.421-0.938 0.947l0.518 11.094c0.005 0.107 0.094 0.194 0.202 0.185 0.107-0.005 0.19-0.096 0.185-0.203l-0.518-11.084c0-0.304 0.247-0.55 0.55-0.55 0.303 0 0.55 0.246 0.55 0.559l0.518 11.352c0.005 0.104 0.090 0.185 0.194 0.185h0.010c0.107-0.006 0.19-0.096 0.185-0.203l-0.518-11.343c-0-0.518-0.421-0.939-0.938-0.939z" fill="#000000" />
</svg>
