<?xml version="1.0" encoding="utf-8"?>
<!-- Generated by IcoMoon.io -->
<!DOCTYPE svg PUBLIC "-//W3C//DTD SVG 1.1//EN" "http://www.w3.org/Graphics/SVG/1.1/DTD/svg11.dtd">
<svg version="1.1" xmlns="http://www.w3.org/2000/svg" xmlns:xlink="http://www.w3.org/1999/xlink" width="32" height="32" viewBox="0 0 32 32">
<g>
</g>
	<path d="M25.893 13.601v-6.142c0-0.656-0.533-1.189-1.189-1.189h-17.085c-0.656 0-1.189 0.533-1.189 1.189v17.085c0 0.656 0.533 1.19 1.189 1.19h17.085c0.656 0 1.189-0.533 1.189-1.19v-10.94c0-0.001 0-0.001 0-0.002s-0-0.001-0-0.002zM16.314 6.883h6.515v2.144h-6.515v-2.144zM16.314 9.334h6.515l0 3.104h-6.515v-3.104zM9.493 6.883h6.515v2.144h-6.515v-2.144zM9.493 9.334h6.515v3.104h-6.515v-3.104zM9.493 12.745h6.515v3.104h-6.515v-3.104zM7.042 7.459c0-0.317 0.259-0.576 0.576-0.576h1.568v2.144h-2.144v-1.568zM7.042 9.334h2.144v3.104h-2.144v-3.104zM7.042 12.745h2.144v3.104h-2.144v-3.104zM25.28 24.544c0 0.318-0.259 0.577-0.576 0.577h-17.085c-0.318 0-0.576-0.259-0.576-0.577v-3.226h0.62c0.036 0 0.072-0.006 0.107-0.019l0.849-0.314c0.058-0.022 0.109-0.060 0.144-0.111l0.808-1.147 0.618-0.326 0.696 0.492c0.035 0.026 0.076 0.042 0.12 0.051l0.85 0.162c0.099 0.019 0.201-0.012 0.273-0.083l0.717-0.709 0.672 0.221c0.134 0.044 0.282-0.010 0.357-0.13l0.717-1.162 0.613 0.234c0.106 0.040 0.226 0.019 0.312-0.057l0.698-0.618 0.667 0.316c0.152 0.072 0.335 0.007 0.408-0.146l0.686-1.441 0.549 0.426c0.066 0.051 0.15 0.075 0.232 0.061 0.082-0.012 0.156-0.057 0.205-0.124l0.73-1.015 0.634 0.15 0.849 0.249c0.123 0.036 0.258-0.009 0.334-0.114l0.742-1.020 0.668 0.092c0.104 0.016 0.207-0.025 0.275-0.105l0.8-0.937 0.725-0.287h0.562l0 10.635zM25.28 13.296h-0.62c-0.039 0-0.077 0.007-0.113 0.022l-0.849 0.337c-0.046 0.019-0.088 0.048-0.12 0.086l-0.741 0.867-0.683-0.094c-0.114-0.017-0.223 0.032-0.29 0.123l-0.722 0.994-0.658-0.193-0.85-0.201c-0.121-0.028-0.247 0.019-0.319 0.12l-0.665 0.924-0.6-0.464c-0.073-0.057-0.169-0.078-0.259-0.056-0.090 0.022-0.166 0.083-0.206 0.166l-0.718 1.509-0.574-0.272c-0.111-0.052-0.242-0.034-0.334 0.047l-0.711 0.628-0.677-0.258c-0.136-0.051-0.293 0-0.37 0.126l-0.722 1.172-0.62-0.204c-0.109-0.036-0.229-0.008-0.311 0.073l-0.735 0.727-0.626-0.12-0.796-0.563c-0.094-0.066-0.217-0.075-0.32-0.021l-0.85 0.448c-0.043 0.023-0.080 0.055-0.108 0.095l-0.795 1.129-0.709 0.262h-0.566v-1.14h1.518l0.216-0.306h-1.734l-0-3.103h2.144v2.735l0.306-0.161v-2.574h6.515v0.699c0.101-0.026 0.204-0.027 0.306-0v-0.698h0.822l0.146-0.306h-0.967l0-3.104h6.515v1.399l0.306-0.359v-1.041h2.144v0.551h-0.002zM25.28 12.438h-2.144v-3.104h2.144v3.104zM25.28 9.028h-2.144v-2.144h1.568c0.317 0 0.576 0.259 0.576 0.576v1.568zM8.146 22.67h-0.314c-0.085 0-0.153 0.069-0.153 0.153 0 0.085 0.069 0.153 0.153 0.153h0.314c0.085 0 0.153-0.069 0.153-0.153-0-0.084-0.068-0.153-0.153-0.153zM16.946 22.67h-0.314c-0.085 0-0.153 0.069-0.153 0.153 0 0.085 0.069 0.153 0.153 0.153h0.314c0.085 0 0.153-0.069 0.153-0.153 0-0.084-0.069-0.153-0.153-0.153zM18.204 22.67h-0.314c-0.085 0-0.153 0.069-0.153 0.153 0 0.085 0.069 0.153 0.153 0.153h0.314c0.084 0 0.153-0.069 0.153-0.153 0-0.084-0.069-0.153-0.153-0.153zM20.718 22.67h-0.314c-0.085 0-0.153 0.069-0.153 0.153 0 0.085 0.069 0.153 0.153 0.153h0.314c0.084 0 0.153-0.069 0.153-0.153 0-0.084-0.069-0.153-0.153-0.153zM19.461 22.67h-0.314c-0.085 0-0.153 0.069-0.153 0.153 0 0.085 0.069 0.153 0.153 0.153h0.314c0.085 0 0.153-0.069 0.153-0.153 0-0.084-0.068-0.153-0.153-0.153zM21.975 22.67h-0.314c-0.084 0-0.153 0.069-0.153 0.153 0 0.085 0.069 0.153 0.153 0.153h0.314c0.085 0 0.153-0.069 0.153-0.153 0-0.084-0.068-0.153-0.153-0.153zM23.233 22.67h-0.314c-0.085 0-0.153 0.069-0.153 0.153 0 0.085 0.069 0.153 0.153 0.153h0.314c0.085 0 0.153-0.069 0.153-0.153-0-0.084-0.068-0.153-0.153-0.153zM24.49 22.67h-0.314c-0.084 0-0.153 0.069-0.153 0.153 0 0.085 0.069 0.153 0.153 0.153h0.314c0.085 0 0.153-0.069 0.153-0.153-0-0.084-0.068-0.153-0.153-0.153zM11.917 22.67h-0.314c-0.085 0-0.153 0.069-0.153 0.153 0 0.085 0.069 0.153 0.153 0.153h0.314c0.085 0 0.153-0.069 0.153-0.153-0-0.084-0.069-0.153-0.153-0.153zM9.403 22.67h-0.314c-0.085 0-0.153 0.069-0.153 0.153 0 0.085 0.069 0.153 0.153 0.153h0.314c0.084 0 0.153-0.069 0.153-0.153 0-0.084-0.069-0.153-0.153-0.153zM10.66 22.67h-0.314c-0.084 0-0.153 0.069-0.153 0.153 0 0.085 0.069 0.153 0.153 0.153h0.314c0.085 0 0.153-0.069 0.153-0.153 0-0.084-0.068-0.153-0.153-0.153zM15.689 22.67h-0.315c-0.084 0-0.153 0.069-0.153 0.153 0 0.085 0.069 0.153 0.153 0.153h0.314c0.084 0 0.153-0.069 0.153-0.153 0-0.084-0.068-0.153-0.153-0.153zM14.432 22.67h-0.314c-0.085 0-0.153 0.069-0.153 0.153 0 0.085 0.069 0.153 0.153 0.153h0.314c0.085 0 0.153-0.069 0.153-0.153 0-0.084-0.069-0.153-0.153-0.153zM13.174 22.67h-0.314c-0.084 0-0.153 0.069-0.153 0.153 0 0.085 0.069 0.153 0.153 0.153h0.314c0.085 0 0.153-0.069 0.153-0.153 0-0.084-0.068-0.153-0.153-0.153z" fill="#000000" />
</svg>
