<?xml version="1.0" encoding="utf-8"?>
<!-- Generated by IcoMoon.io -->
<!DOCTYPE svg PUBLIC "-//W3C//DTD SVG 1.1//EN" "http://www.w3.org/Graphics/SVG/1.1/DTD/svg11.dtd">
<svg version="1.1" xmlns="http://www.w3.org/2000/svg" xmlns:xlink="http://www.w3.org/1999/xlink" width="32" height="32" viewBox="0 0 32 32">
<g>
</g>
	<path d="M10.247 9.773c0.021 0.018 0.049 0.022 0.075 0.011l1.265-0.57c0.022-0.009 0.037-0.030 0.040-0.053 0.004-0.024-0.005-0.047-0.023-0.063l-0.238-0.205c1.567-1.497 3.535-2.32 5.569-2.32 2.77 0 5.41 1.548 7.061 4.14 0.042 0.065 0.112 0.101 0.185 0.101 0.040 0 0.081-0.011 0.117-0.034 0.102-0.065 0.132-0.2 0.067-0.302-1.731-2.718-4.509-4.342-7.429-4.342-2.161 0-4.247 0.876-5.9 2.47l-0.304-0.263c-0.018-0.016-0.043-0.021-0.065-0.015-0.023 0.007-0.040 0.025-0.048 0.047l-0.392 1.325c-0.009 0.025-0.001 0.053 0.020 0.072v0zM23.889 23.067c-0.023-0.014-0.052-0.014-0.075 0.002l-1.149 0.778c-0.020 0.013-0.032 0.035-0.031 0.059s0.014 0.046 0.034 0.058l0.317 0.191c-1.639 1.816-3.774 2.817-6.048 2.817 0 0-0.001 0-0.001 0-2.493 0-4.876-1.239-6.541-3.398-0.073-0.095-0.21-0.114-0.306-0.040-0.096 0.074-0.114 0.211-0.040 0.306 1.747 2.268 4.258 3.569 6.886 3.569 0.001 0 0.001 0 0.001 0 2.428 0 4.701-1.075 6.43-3.024l0.29 0.175c0.020 0.013 0.046 0.014 0.067 0.003 0.022-0.011 0.035-0.031 0.039-0.054l0.16-1.373c0.003-0.026-0.009-0.053-0.034-0.067v0zM9.233 20.817c-0.16 0-0.309 0.042-0.442 0.109 0.226-0.253 0.408-0.545 0.534-0.866 0.272 0.553 0.839 0.936 1.495 0.936 0.919 0 1.666-0.748 1.666-1.666 0-0.022-0.002-0.044-0.003-0.066 0.122 0.054 0.258 0.086 0.4 0.086 0.547 0 0.992-0.445 0.992-0.992 0-0.443-0.294-0.814-0.695-0.942 0.788-0.522 1.31-1.417 1.31-2.431 0-1.334-0.902-2.458-2.126-2.804-0.046-0.878-0.773-1.579-1.662-1.579-0.919 0-1.666 0.748-1.666 1.666 0 0.33 0.098 0.637 0.264 0.897-0.335 0.418-0.558 0.929-0.621 1.488-0.128-0.237-0.311-0.44-0.533-0.59 0.499-0.051 0.89-0.469 0.89-0.982 0-0.547-0.445-0.992-0.992-0.992s-0.992 0.445-0.992 0.992c0 0.274 0.111 0.521 0.29 0.701-0.044-0.004-0.087-0.006-0.132-0.006-0.473 0-0.901 0.199-1.204 0.518 0.122-0.232 0.193-0.495 0.193-0.775 0-0.919-0.748-1.667-1.666-1.667s-1.666 0.747-1.666 1.667c0 0.695 0.429 1.293 1.036 1.542-0.319 0.165-0.54 0.494-0.54 0.878 0 0.546 0.445 0.992 0.992 0.992 0.082 0 0.159-0.012 0.235-0.032-0.108 0.105-0.207 0.218-0.298 0.338-0.167-0.057-0.346-0.089-0.533-0.089-0.919 0-1.666 0.747-1.666 1.666 0 0.808 0.578 1.482 1.341 1.634-0.223 0.182-0.369 0.456-0.369 0.766 0 0.547 0.445 0.992 0.992 0.992 0.472 0 0.866-0.332 0.966-0.774 0.458 0.3 1.005 0.476 1.592 0.476 0.666 0 1.278-0.227 1.77-0.604-0.089 0.149-0.143 0.32-0.143 0.505 0 0.547 0.445 0.992 0.992 0.992 0.547 0 0.992-0.445 0.992-0.992s-0.446-0.993-0.993-0.993zM10.82 20.559c-0.678 0-1.23-0.552-1.23-1.23s0.552-1.23 1.23-1.23c0.678 0 1.23 0.551 1.23 1.23s-0.552 1.23-1.23 1.23zM11.666 17.896c0.123-0.004 0.244-0.016 0.363-0.035-0.042 0.071-0.074 0.148-0.097 0.23-0.082-0.074-0.171-0.139-0.266-0.195zM13.438 18.358c0 0.306-0.249 0.555-0.555 0.555s-0.555-0.249-0.555-0.555c0-0.306 0.249-0.555 0.555-0.555s0.555 0.249 0.555 0.555zM10.701 11.038c0.678 0 1.23 0.552 1.23 1.23s-0.551 1.23-1.23 1.23c-0.678 0-1.23-0.552-1.23-1.23s0.552-1.23 1.23-1.23zM9.588 13.505c0.295 0.266 0.685 0.429 1.113 0.429 0.797 0 1.464-0.562 1.627-1.31 0.999 0.32 1.724 1.257 1.724 2.361 0 1.367-1.112 2.479-2.479 2.479-1.367 0-2.479-1.113-2.479-2.479-0-0.555 0.185-1.066 0.494-1.479zM8.809 15.907c0.273 0.816 0.897 1.472 1.693 1.787-0.428 0.083-0.797 0.33-1.041 0.674-0.153-0.698-0.557-1.301-1.112-1.714 0.214-0.201 0.375-0.457 0.459-0.747zM8.043 12.526c0.306 0 0.555 0.249 0.555 0.555s-0.249 0.555-0.555 0.555-0.555-0.249-0.555-0.555 0.249-0.555 0.555-0.555zM7.21 14.212c0.678 0 1.23 0.552 1.23 1.23 0 0.678-0.551 1.23-1.23 1.23-0.678 0-1.23-0.551-1.23-1.23 0-0.678 0.552-1.23 1.23-1.23zM3.302 13.518c0-0.678 0.551-1.23 1.23-1.23 0.678 0 1.23 0.552 1.23 1.23s-0.552 1.23-1.23 1.23c-0.678-0-1.23-0.552-1.23-1.23zM5.734 16.212c-0.186 0.059-0.363 0.136-0.53 0.23 0.088-0.148 0.142-0.319 0.142-0.504 0-0.332-0.165-0.624-0.415-0.804 0.312-0.077 0.59-0.241 0.806-0.467-0.122 0.232-0.193 0.495-0.193 0.775-0 0.279 0.069 0.54 0.19 0.771zM4.354 16.493c-0.306 0-0.555-0.249-0.555-0.555 0-0.306 0.249-0.555 0.555-0.555 0.306 0 0.555 0.249 0.555 0.555-0 0.306-0.249 0.555-0.555 0.555zM2.529 18.814c0-0.678 0.551-1.23 1.23-1.23 0.678 0 1.23 0.552 1.23 1.23 0 0.678-0.552 1.23-1.23 1.23-0.679-0-1.23-0.552-1.23-1.23zM4.056 21.769c-0.306 0-0.555-0.249-0.555-0.555 0-0.306 0.249-0.555 0.555-0.555s0.555 0.249 0.555 0.555c-0 0.306-0.25 0.555-0.555 0.555zM6.614 21.471c-0.628 0-1.201-0.237-1.638-0.623-0.083-0.209-0.236-0.379-0.429-0.491-0.013-0.019-0.023-0.039-0.036-0.058 0.541-0.275 0.914-0.837 0.914-1.485 0-0.574-0.292-1.082-0.736-1.382 0.332-0.409 0.791-0.708 1.317-0.841 0.304 0.318 0.73 0.518 1.204 0.518 0.276 0 0.535-0.068 0.764-0.187 0.674 0.443 1.119 1.206 1.119 2.071 0 1.367-1.112 2.479-2.479 2.479zM9.233 22.364c-0.306 0-0.555-0.249-0.555-0.555s0.249-0.555 0.555-0.555c0.306 0 0.555 0.249 0.555 0.555s-0.249 0.555-0.555 0.555zM24.992 11.65c-2.824 0-5.121 2.298-5.121 5.122 0 2.824 2.297 5.122 5.121 5.122 2.824 0 5.122-2.298 5.122-5.122-0-2.824-2.298-5.122-5.122-5.122zM24.992 21.311c-2.503 0-4.539-2.037-4.539-4.539 0-2.503 2.036-4.54 4.539-4.54 2.503 0 4.54 2.037 4.54 4.54 0 2.502-2.037 4.539-4.54 4.539z" fill="#000000" />
</svg>
