<?xml version="1.0" encoding="utf-8"?>
<!-- Generated by IcoMoon.io -->
<!DOCTYPE svg PUBLIC "-//W3C//DTD SVG 1.1//EN" "http://www.w3.org/Graphics/SVG/1.1/DTD/svg11.dtd">
<svg version="1.1" xmlns="http://www.w3.org/2000/svg" xmlns:xlink="http://www.w3.org/1999/xlink" width="32" height="32" viewBox="0 0 32 32">
<g>
</g>
	<path d="M24.382 25.029l-3.716-7.807c-0.010-0.020-0.025-0.034-0.038-0.051l0.062-0.288c0.034-0.159 0.212-0.357 0.367-0.407l1.441-0.47c0.418-0.136 0.648-0.589 0.513-1.007l-0.466-1.443c-0.050-0.154 0.006-0.415 0.114-0.536l1.012-1.128c0.293-0.327 0.267-0.834-0.060-1.129l-1.125-1.015c-0.121-0.109-0.203-0.362-0.17-0.521l0.313-1.482c0.091-0.431-0.186-0.856-0.616-0.948l-1.482-0.317c-0.159-0.034-0.357-0.212-0.407-0.366l-0.47-1.441c-0.108-0.33-0.414-0.552-0.762-0.552-0.083 0-0.166 0.013-0.246 0.039l-1.442 0.466c-0.145 0.047-0.42-0.010-0.536-0.114l-1.128-1.013c-0.314-0.282-0.846-0.254-1.129 0.060l-1.015 1.125c-0.106 0.117-0.373 0.201-0.521 0.17l-1.484-0.313c-0.425-0.089-0.858 0.196-0.948 0.616l-0.316 1.482c-0.034 0.159-0.212 0.357-0.366 0.407l-1.441 0.471c-0.418 0.136-0.649 0.589-0.513 1.007l0.466 1.442c0.050 0.154-0.006 0.415-0.114 0.536l-1.012 1.128c-0.294 0.327-0.267 0.834 0.059 1.129l1.124 1.015c0.121 0.109 0.203 0.362 0.17 0.521l-0.313 1.483c-0.091 0.431 0.186 0.856 0.616 0.948l1.482 0.317c0.075 0.016 0.158 0.066 0.23 0.128l-3.815 7.856c-0.135 0.277-0.276 0.563-0.094 0.786 0.181 0.224 0.499 0.143 0.706 0.090l2.912-0.486c0.098-0.017 0.217-0.036 0.271-0.037 0.030 0.039 0.081 0.128 0.107 0.173l1.699 2.864c0.136 0.278 0.316 0.563 0.622 0.563h0c0.338 0 0.516-0.364 0.583-0.501l2.042-4.135 2.027 4.134c0.109 0.222 0.257 0.526 0.547 0.526h0.001c0.283-0.001 0.427-0.286 0.542-0.521l1.795-2.857c0.041-0.058 0.118-0.165 0.12-0.175 0.030-0.007 0.139 0.013 0.242 0.030l3.047 0.294c0.22 0.034 0.448 0.069 0.587-0.126 0.144-0.202 0.026-0.43-0.075-0.62zM10.413 16.442l-1.482-0.317c-0.099-0.021-0.165-0.123-0.144-0.222l0.313-1.482c0.079-0.373-0.075-0.847-0.359-1.103l-1.124-1.015c-0.075-0.068-0.082-0.189-0.014-0.265l1.012-1.129c0.254-0.284 0.358-0.772 0.24-1.134l-0.466-1.442c-0.031-0.096 0.024-0.204 0.12-0.236l1.441-0.471c0.362-0.118 0.696-0.489 0.775-0.862l0.316-1.482c0.021-0.098 0.124-0.166 0.222-0.144l1.484 0.313c0.366 0.077 0.854-0.084 1.103-0.359l1.015-1.125c0.048-0.053 0.109-0.061 0.14-0.061 0.046 0 0.091 0.017 0.125 0.047l1.128 1.013c0.198 0.178 0.51 0.288 0.811 0.288 0.116 0 0.224-0.016 0.323-0.048l1.443-0.466c0.095-0.032 0.205 0.026 0.236 0.12l0.47 1.441c0.118 0.362 0.489 0.696 0.862 0.775l1.482 0.317c0.099 0.021 0.165 0.122 0.144 0.222l-0.313 1.482c-0.079 0.373 0.075 0.847 0.359 1.103l1.125 1.015c0.075 0.068 0.082 0.189 0.014 0.265l-1.012 1.128c-0.254 0.284-0.358 0.771-0.241 1.134l0.466 1.443c0.031 0.096-0.024 0.204-0.12 0.236l-1.441 0.47c-0.363 0.118-0.696 0.489-0.776 0.862l-0.317 1.482c-0.022 0.098-0.12 0.165-0.222 0.144l-1.483-0.313c-0.367-0.077-0.855 0.083-1.103 0.359l-1.015 1.125c-0.048 0.053-0.108 0.061-0.139 0.061-0.046 0-0.091-0.017-0.125-0.047l-1.129-1.013c-0.198-0.178-0.51-0.288-0.811-0.288-0.116 0-0.224 0.016-0.323 0.048l-1.442 0.466c-0.096 0.031-0.205-0.026-0.236-0.12l-0.47-1.441c-0.022-0.069-0.056-0.135-0.095-0.2-0.018-0.065-0.058-0.12-0.114-0.162-0.172-0.204-0.411-0.362-0.652-0.414zM12.96 28.211c-0.014 0.030-0.028 0.054-0.039 0.075-0.023-0.038-0.050-0.089-0.084-0.157l-1.709-2.882c-0.281-0.492-0.452-0.523-1.004-0.43l-2.879 0.481c0.001-0.002 0.002-0.003 0.003-0.005l3.598-7.411 0.316 0.968c0.108 0.33 0.414 0.552 0.762 0.552 0.083 0 0.166-0.013 0.245-0.039l1.442-0.466c0.144-0.048 0.42 0.010 0.536 0.114l1.129 1.013c0.147 0.131 0.336 0.203 0.534 0.203 0.227 0 0.443-0.096 0.595-0.263l1.015-1.125c0.050-0.055 0.136-0.102 0.229-0.134l-4.689 9.508zM21 24.893l-0.082-0.013c-0.526-0.084-0.651-0.033-0.964 0.407l-1.814 2.886c-0.006 0.009-0.011 0.019-0.016 0.029-0.001 0.003-0.002 0.006-0.004 0.008l-2.233-4.555 2.419-4.911 1.117 0.236c0.421 0.088 0.858-0.195 0.948-0.616l0.051-0.236 3.345 7.027-2.768-0.262zM15.549 17.032c2.999 0 5.438-2.439 5.438-5.437 0-2.998-2.439-5.438-5.438-5.438-2.998 0-5.437 2.439-5.437 5.438-0 2.998 2.438 5.437 5.437 5.437zM15.549 6.618c2.745 0 4.978 2.233 4.978 4.978 0 2.745-2.233 4.977-4.978 4.977-2.745 0-4.977-2.233-4.977-4.977-0-2.745 2.232-4.978 4.977-4.978zM15.549 16.136c2.504 0 4.541-2.037 4.541-4.541 0-2.504-2.037-4.541-4.541-4.541-2.504 0-4.541 2.037-4.541 4.541-0.001 2.504 2.037 4.541 4.541 4.541zM15.549 7.437c2.293 0 4.158 1.866 4.158 4.158 0 2.292-1.866 4.158-4.158 4.158-2.293 0-4.158-1.865-4.158-4.158-0-2.293 1.865-4.158 4.158-4.158z" fill="#000000" />
</svg>
