<?xml version="1.0" encoding="utf-8"?>
<!-- Generated by IcoMoon.io -->
<!DOCTYPE svg PUBLIC "-//W3C//DTD SVG 1.1//EN" "http://www.w3.org/Graphics/SVG/1.1/DTD/svg11.dtd">
<svg version="1.1" xmlns="http://www.w3.org/2000/svg" xmlns:xlink="http://www.w3.org/1999/xlink" width="32" height="32" viewBox="0 0 32 32">
<g>
</g>
	<path d="M17.106 12.051c0-2.894-2.354-5.248-5.248-5.248s-5.248 2.354-5.248 5.248c0 2.893 2.354 5.247 5.248 5.247s5.248-2.354 5.248-5.247zM7.070 12.051c0-2.64 2.148-4.788 4.788-4.788s4.788 2.148 4.788 4.788c0 2.64-2.148 4.787-4.788 4.787s-4.788-2.147-4.788-4.787zM15.25 10.442c0.039 0.083 0.122 0.131 0.208 0.131 0.033 0 0.067-0.007 0.098-0.022 0.115-0.054 0.163-0.192 0.109-0.306-0.695-1.462-2.189-2.406-3.806-2.406-0.127 0-0.23 0.103-0.23 0.23s0.103 0.23 0.23 0.23c1.441 0 2.772 0.842 3.391 2.144zM25.788 26.818l-7.040-8.755c-0.192-0.238-0.33-0.266-0.418-0.266-0.070 0-0.148 0.027-0.203 0.071l-0.062 0.050-1.389-1.728c0.958-1.113 1.541-2.558 1.541-4.138 0-3.506-2.853-6.359-6.359-6.359-3.506 0-6.359 2.853-6.359 6.359 0 3.506 2.852 6.358 6.359 6.358 1.029 0 1.998-0.251 2.858-0.686l1.41 1.753-0.062 0.050c-0.064 0.051-0.111 0.138-0.12 0.219-0.005 0.046-0.020 0.187 0.176 0.429l7.041 8.756c0.192 0.237 0.33 0.265 0.418 0.265 0.070 0 0.148-0.027 0.202-0.071l2.063-1.659c0.064-0.051 0.11-0.138 0.119-0.219 0.005-0.047 0.020-0.187-0.175-0.429zM6.113 12.051c0-3.168 2.578-5.746 5.746-5.746s5.746 2.578 5.746 5.746c0 1.518-0.597 2.898-1.562 3.926l-1.254 1.007c-0.859 0.512-1.859 0.812-2.93 0.812-3.168 0.001-5.746-2.577-5.746-5.745zM16.251 16.638l1.247 1.552-0.983 0.791-1.258-1.564c0.357-0.227 0.69-0.487 0.994-0.778zM23.593 28.49l-6.949-8.642 1.672-1.345 6.95 8.642-1.672 1.345zM24.010 26.63c0.045 0.057 0.112 0.086 0.179 0.086 0.050 0 0.102-0.017 0.144-0.051 0.099-0.079 0.115-0.224 0.035-0.323l-2.62-3.258c-0.079-0.099-0.224-0.115-0.323-0.035-0.099 0.079-0.115 0.224-0.035 0.323l2.62 3.258z" fill="#000000" />
</svg>
