<?xml version="1.0" encoding="utf-8"?>
<!-- Generated by IcoMoon.io -->
<!DOCTYPE svg PUBLIC "-//W3C//DTD SVG 1.1//EN" "http://www.w3.org/Graphics/SVG/1.1/DTD/svg11.dtd">
<svg version="1.1" xmlns="http://www.w3.org/2000/svg" xmlns:xlink="http://www.w3.org/1999/xlink" width="32" height="32" viewBox="0 0 32 32">
<g>
</g>
	<path d="M15.926 20.068c-2.372 0-4.718-0.84-6.294-1.396-0.565-0.199-0.988-0.366-1.295-0.443v1.479c1.226 0.274 3.909 1.698 4.141 2.662 1.101 0.094 2.25 0.165 3.448 0.165 1.188 0 2.414-0.070 3.502-0.161 0.224-0.954 3.009-2.362 4.235-2.657v-1.476c-0.306 0.080-0.809 0.236-1.326 0.419-1.577 0.56-4.018 1.407-6.411 1.407zM15.926 22.841c-2.355 0-4.69-0.272-6.261-0.452-0.578-0.066-1.022-0.122-1.328-0.147l0 1.88h15.326v-1.876c-0.306 0.026-0.829 0.078-1.359 0.139-1.571 0.182-4.002 0.456-6.377 0.456zM19.795 22.345c0.941-0.085 1.759-0.183 2.455-0.263 0.563-0.065 1.107-0.117 1.413-0.142v-1.915c-1.226 0.287-3.541 1.614-3.868 2.32zM22.1 7.264h-12.517l-0.985 0.92h14.431l-0.929-0.92zM4.966 14.314h1.226v-3.372h-1.226v3.372zM12.13 22.341c-0.337-0.715-2.566-2.059-3.793-2.326v1.921c0.306 0.024 0.788 0.080 1.4 0.15 0.681 0.078 1.477 0.173 2.393 0.256zM25.808 14.314h1.226v-3.372h-1.226v3.372zM8.337 17.914c0 0.026 0.306 0.065 0.306 0.113v-7.638c0-0.085 0.034-0.059 0.119-0.059h14.176c0.085 0 0.418-0.025 0.418 0.059v7.656c0-0.050 0.306-0.090 0.306-0.119l-0-9.129h-15.326l0 9.117zM15.922 19.762c2.341 0 4.727-0.837 6.285-1.39 0.236-0.084 0.517-0.16 0.714-0.227-0.001-0.006 0.129-0.010 0.129-0.016l0-7.493h-14.1v7.49c0.306 0.074 0.469 0.161 0.743 0.258 1.557 0.549 3.909 1.378 6.229 1.378zM27.647 10.517v4.048c0 0.169-0.389 0.362-0.558 0.362h-1.737c-0.17 0-0.157-0.193-0.157-0.362v-3.317h-0.92v12.933c0 0.17-0.287 0.554-0.456 0.554l0.15 0v0.247c0 0.17-0.363 0.366-0.533 0.366h-2.835c-0.17 0-0.31-0.197-0.31-0.366l-0-0.247h-8.889v0.247c0 0.17-0.109 0.366-0.278 0.366h-2.835c-0.17 0-0.259-0.197-0.259-0.366l0.001-0.247h-0.15c-0.17 0-0.157-0.384-0.157-0.554l-0-12.933h-0.92l0 3.317c0 0.169-0.236 0.362-0.405 0.362h-1.737c-0.17 0-0.31-0.193-0.31-0.362v-4.048c0-0.17 0.141-0.187 0.31-0.187h1.737c0.17 0 0.405 0.018 0.405 0.187v0.425h0.92v-3.032l1.52-1.185c0.055-0.046 0.155-0.074 0.227-0.074h12.793c0.116 0 0.193 0.002 0.249 0.052l1.538 1.29c0.037 0.033 0.098 0.073 0.116 0.116 0.020 0.041 0.109 0.086 0.109 0.134l-0 2.699h0.92v-0.426c0-0.17-0.013-0.187 0.157-0.187h1.737c0.169 0 0.558 0.018 0.558 0.188zM9.143 20.517c0.394 0 0.715 0.321 0.715 0.715s-0.321 0.715-0.715 0.715-0.715-0.321-0.715-0.715 0.321-0.715 0.715-0.715zM9.143 21.641c0.225 0 0.409-0.184 0.409-0.409s-0.183-0.409-0.409-0.409-0.409 0.184-0.409 0.409 0.183 0.409 0.409 0.409zM10.471 22.088c-0.274 0-0.497-0.218-0.497-0.485s0.223-0.486 0.497-0.486c0.274 0 0.497 0.218 0.497 0.486s-0.223 0.485-0.497 0.485zM10.471 21.424c-0.105 0-0.19 0.080-0.19 0.179 0 0.098 0.086 0.179 0.19 0.179s0.19-0.080 0.19-0.179c0-0.099-0.086-0.179-0.19-0.179zM22.862 20.517c0.394 0 0.715 0.321 0.715 0.715s-0.321 0.715-0.715 0.715c-0.394 0-0.715-0.321-0.715-0.715s0.321-0.715 0.715-0.715zM22.862 21.641c0.225 0 0.409-0.184 0.409-0.409s-0.184-0.409-0.409-0.409-0.409 0.184-0.409 0.409 0.183 0.409 0.409 0.409zM21.534 21.117c0.274 0 0.497 0.218 0.497 0.486s-0.223 0.485-0.497 0.485c-0.274 0-0.497-0.218-0.497-0.485s0.222-0.486 0.497-0.486zM21.534 21.782c0.105 0 0.19-0.080 0.19-0.179 0-0.099-0.085-0.179-0.19-0.179s-0.19 0.080-0.19 0.179c-0 0.098 0.085 0.179 0.19 0.179z" fill="#000000" />
</svg>
