<?xml version="1.0" encoding="utf-8"?>
<!-- Generated by IcoMoon.io -->
<!DOCTYPE svg PUBLIC "-//W3C//DTD SVG 1.1//EN" "http://www.w3.org/Graphics/SVG/1.1/DTD/svg11.dtd">
<svg version="1.1" xmlns="http://www.w3.org/2000/svg" xmlns:xlink="http://www.w3.org/1999/xlink" width="32" height="32" viewBox="0 0 32 32">
<g>
</g>
	<path d="M25.924 15.746l-1.59-2.922c-0.040-0.073-0.108-0.126-0.188-0.149-0.080-0.022-0.166-0.011-0.238 0.032l-4.186 2.479c-0.143 0.085-0.193 0.268-0.111 0.414l2.194 3.922-2.372-0 0.011-1.25c0-0.151 0-0.293-0.191-0.42-0.159-0.106-0.37-0.092-0.555 0.045-0.030 0.022-0.056 0.050-0.076 0.082l-2.417 3.792c-0.064 0.1-0.064 0.229-0 0.329l2.417 3.792c0.020 0.032 0.046 0.059 0.076 0.082 0.104 0.077 0.211 0.116 0.321 0.116 0.084 0 0.165-0.025 0.235-0.070 0.191-0.128 0.191-0.27 0.191-0.423l-0.012-1.247h1.738c1.832 0 2.431-1.038 2.46-1.090l2.184-4.2c0.001-0.002 0.001-0.005 0.002-0.007 0.002-0.003 0.004-0.005 0.006-0.007 0.865-1.906 0.132-3.246 0.102-3.299zM23.090 22.968c-0.004 0.007-0.467 0.767-1.92 0.767h-2.047c-0.082 0-0.16 0.032-0.218 0.090-0.058 0.058-0.090 0.137-0.089 0.218l0.010 1.028-2-3.137 2-3.137-0.009 1.028c-0.001 0.082 0.031 0.16 0.089 0.218 0.058 0.058 0.136 0.091 0.218 0.091h4.237c0.175 0 0.745-0.016 1.309-0.204l-1.579 3.037zM25.268 18.78c-0.311 0.586-1.382 0.742-1.918 0.742h-0.842l-2.216-3.961 3.656-2.165 1.44 2.645c0.025 0.046 0.605 1.137-0.119 2.738zM14.594 18.952l-4.552-0.007 1.239-2.135 1.138 0.794c0.093 0.055 0.166 0.098 0.273 0.098 0.087 0 0.15-0.032 0.186-0.049 0.175-0.084 0.267-0.271 0.244-0.499-0.004-0.038-0.014-0.074-0.031-0.107l-2.082-4.158c-0.056-0.111-0.172-0.174-0.295-0.169l-4.537 0.313c-0.034 0.002-0.067 0.010-0.098 0.023-0.211 0.089-0.331 0.258-0.322 0.456 0.013 0.23 0.135 0.302 0.265 0.378 0.010 0.006 0.021 0.012 0.032 0.017l1.064 0.467-0.852 1.482c-0.241 0.409-0.401 0.822-0.475 1.225-0 0.001-0 0.002-0.001 0.003 0 0-0 0.001-0 0.001-0.159 0.875 0.427 1.86 0.454 1.906l2.219 3.55c0.001 0.001 0.001 0.002 0.002 0.003 0 0 0.001 0.001 0.002 0.002l0.007 0.011c1.201 1.713 2.728 1.761 2.788 1.762l3.32 0.113c0.004 0.001 0.007 0.001 0.010 0.001 0.079 0 0.156-0.031 0.213-0.086 0.059-0.058 0.094-0.137 0.094-0.22l-0.001-4.866c0.001-0.169-0.136-0.306-0.305-0.306zM6.399 17.165c0.063-0.325 0.196-0.662 0.397-1.002l1.024-1.781c0.043-0.076 0.053-0.166 0.026-0.249-0.027-0.083-0.088-0.15-0.168-0.185l-0.798-0.351 3.673-0.253 1.701 3.397-0.895-0.624c-0.070-0.049-0.158-0.066-0.242-0.048-0.084 0.019-0.156 0.071-0.199 0.146l-1.588 2.735h-0.004c-0.453 0-1.586-0.056-2.306-0.572-0.414-0.297-0.617-0.693-0.622-1.212zM14.286 23.806l-3.006-0.103c-0.052-0.001-1.29-0.056-2.295-1.488l-1.948-3.114c0.099 0.049 0.2 0.094 0.303 0.134 0.001 0.001 0.002 0.001 0.003 0.001 0.111 0.043 0.224 0.080 0.338 0.113 0.038 0.011 0.075 0.019 0.113 0.029 0.077 0.020 0.154 0.040 0.231 0.056 0.043 0.009 0.085 0.017 0.128 0.025 0.070 0.014 0.14 0.025 0.209 0.035 0.043 0.006 0.085 0.012 0.126 0.018 0.068 0.008 0.134 0.016 0.199 0.022 0.038 0.004 0.075 0.007 0.112 0.010 0.068 0.005 0.133 0.009 0.197 0.012 0.029 0.002 0.058 0.003 0.085 0.005 0.087 0.003 0.17 0.005 0.243 0.005 0.083 0 0.149-0.002 0.194-0.003l0.051-0.003 4.715 0.008-0 4.241zM9.323 10.54l4.132 2.567c0.051 0.031 0.106 0.046 0.162 0.046 0.1 0 0.198-0.049 0.257-0.138l2.456-3.744 1.047 2.056-1.092 0.458c-0.128 0.067-0.262 0.136-0.284 0.364-0.021 0.195 0.090 0.371 0.297 0.471 0.031 0.015 0.064 0.025 0.098 0.029l4.515 0.533c0.012 0.002 0.024 0.002 0.036 0.002 0.106 0 0.206-0.055 0.262-0.147l2.28-3.754c0.020-0.034 0.034-0.070 0.040-0.11 0.038-0.227-0.043-0.419-0.215-0.515-0.040-0.022-0.108-0.059-0.204-0.059-0.097 0-0.168 0.037-0.23 0.070l-1.195 0.476-0.773-1.557c-0.847-1.625-2.044-1.677-2.103-1.678l-4.743 0.004c-0.001 0-0.001 0-0.001 0-0.001 0-0.002 0.001-0.002 0.001-0.002 0-0.003-0.001-0.004-0.001-2.088 0.112-2.939 1.382-2.971 1.432l-1.857 2.761c-0.046 0.069-0.063 0.154-0.045 0.235 0.017 0.082 0.067 0.153 0.138 0.197zM18.796 6.524c0.037 0.002 0.901 0.062 1.569 1.343l0.896 1.805c0.071 0.143 0.241 0.208 0.388 0.148l1.051-0.419-1.914 3.15-3.702-0.437 0.834-0.35c0.079-0.033 0.14-0.097 0.169-0.177 0.029-0.080 0.024-0.169-0.014-0.245l-1.411-2.771c-0.010-0.039-0.029-0.074-0.054-0.106l-0.437-0.857c-0.020-0.040-0.313-0.613-0.799-1.081l3.424-0.003zM11.598 7.687c0.029-0.043 0.729-1.062 2.485-1.159 0.704 0.006 1.351 0.979 1.542 1.356l0.385 0.757-2.484 3.787-3.609-2.242 1.681-2.5zM17.286 17.227c-0.329 0.245-0.658 0.395-1.073 0.395-0.602 0-1.139-0.405-1.242-1.355h3.265c0.010-0.104 0.029-0.263 0.029-0.442 0-1.336-0.678-2.475-2.080-2.475-1.28 0-2.165 0.903-2.165 2.578 0 1.638 0.979 2.569 2.136 2.569 0.753 0 1.27-0.235 1.703-0.649l-0.574-0.622zM16.119 14.225c0.8 0 1.12 0.565 1.167 1.242h-2.296c0.085-0.79 0.48-1.242 1.129-1.242z" fill="#000000" />
</svg>
