<?xml version="1.0" encoding="utf-8"?>
<!-- Generated by IcoMoon.io -->
<!DOCTYPE svg PUBLIC "-//W3C//DTD SVG 1.1//EN" "http://www.w3.org/Graphics/SVG/1.1/DTD/svg11.dtd">
<svg version="1.1" xmlns="http://www.w3.org/2000/svg" xmlns:xlink="http://www.w3.org/1999/xlink" width="32" height="32" viewBox="0 0 32 32">
<g>
</g>
	<path d="M21.073 7.656c-0.176-0.737-1.967-1.066-3.614-1.182-0.145-0.305-0.453-0.518-0.812-0.518h-1.293c-0.359 0-0.668 0.213-0.812 0.518-1.735 0.121-3.631 0.479-3.631 1.302 0 0.001 0 0.002 0 0.004-0.602 0.738-0.604 0.965-0.604 1.043l0 14.499c0 0.303 0.256 0.577 0.68 0.813v0.38c0 0.901 2.641 1.528 5.012 1.528s5.012-0.627 5.012-1.528v-0.379c0.424-0.236 0.681-0.51 0.681-0.814l0-14.5c-0-0.21-0.21-0.603-0.62-1.167zM15.354 6.416h1.293c0.217 0 0.398 0.158 0.434 0.364l-0.192 0.231c-0.034 0.041-0.053 0.094-0.053 0.147 0 0.106 0 0.189-0.44 0.189h-0.791c-0.44 0-0.44-0.083-0.44-0.189 0-0.054-0.019-0.106-0.053-0.147l-0.192-0.231c0.036-0.207 0.217-0.364 0.434-0.364zM14.573 7.083l0.136 0.164c0.021 0.207 0.118 0.338 0.242 0.42-0.365 0.068-0.603 0.171-0.603 0.287 0 0.204 0.727 0.371 1.624 0.371 0.896 0 1.623-0.167 1.623-0.371 0-0.112-0.219-0.21-0.56-0.279 0.131-0.082 0.234-0.213 0.256-0.428l0.136-0.164c1.807 0.125 2.877 0.469 3.038 0.693-0.201 0.277-1.795 0.74-4.466 0.74-2.67 0-4.265-0.463-4.466-0.74 0.162-0.223 1.231-0.567 3.039-0.693zM20.552 24.516c0 0.308-1.814 1.068-4.552 1.068-2.738 0-4.552-0.76-4.552-1.068v-0.163c1.108 0.443 2.866 0.707 4.553 0.707 1.687 0 3.444-0.264 4.552-0.707v0.163zM19.944 23.919c-0.893 0.279-2.264 0.528-3.945 0.528-1.683 0-3.055-0.25-3.948-0.528-0.691-0.215-1.094-0.448-1.132-0.596l0-14.477c0.002-0.006 0.007-0.015 0.010-0.022 0.040-0.092 0.167-0.281 0.33-0.493 0.311 0.219 0.799 0.378 1.349 0.493 1.431 0.3 3.265 0.306 3.391 0.306s1.96-0.006 3.391-0.306c0.57-0.142 1.052-0.308 1.386-0.519 0.163 0.246 0.288 0.459 0.303 0.519l0.001 14.493c-0.038 0.152-0.442 0.386-1.136 0.603zM13.059 10.363c0.113 0 0.211-0.083 0.227-0.198 0.018-0.126-0.070-0.242-0.196-0.26-0.521-0.074-0.976-0.168-1.35-0.278-0.122-0.036-0.25 0.034-0.285 0.156s0.034 0.249 0.156 0.285c0.396 0.116 0.872 0.214 1.415 0.291 0.012 0.002 0.022 0.003 0.033 0.003zM20.26 9.627c-0.993 0.293-2.586 0.467-4.26 0.467-0.374 0-0.753-0.009-1.123-0.026-0.112-0.008-0.234 0.092-0.24 0.219s0.092 0.234 0.219 0.241c0.378 0.018 0.763 0.026 1.145 0.026 1.741 0 3.342-0.177 4.39-0.486 0.121-0.036 0.192-0.164 0.156-0.286-0.036-0.121-0.165-0.19-0.286-0.155zM19.109 16.484c-0.015-0.028-0.040-0.047-0.070-0.056-0.030-0.008-0.062-0.004-0.089 0.012l-1.577 0.934c-0.054 0.032-0.072 0.101-0.042 0.156l0.826 1.477h-0.892l0.004-0.355c0-0.057 0-0.11-0.072-0.158-0.060-0.040-0.139-0.035-0.209 0.017-0.010 0.008-0.020 0.017-0.026 0.027l-0.91 1.312c-0.028 0.040-0.028 0.092 0 0.132l0.91 1.313c0.006 0.010 0.016 0.019 0.026 0.027 0.039 0.029 0.080 0.044 0.12 0.044 0.032 0 0.062-0.009 0.089-0.027 0.072-0.048 0.072-0.102 0.072-0.16l-0.004-0.354h0.654c0.69 0 0.915-0.39 0.926-0.41l0.823-1.581c0.001-0.001 0-0.002 0.001-0.003 0.001-0.001 0.002-0.002 0.002-0.002 0.326-0.717 0.050-1.222 0.039-1.242l-0.6-1.1zM18.64 20.304c-0.001 0.003-0.176 0.289-0.722 0.289h-0.771c-0.031 0-0.060 0.012-0.082 0.034s-0.034 0.052-0.034 0.083l0.004 0.286-0.749-1.080 0.749-1.080-0.004 0.286c0 0.031 0.012 0.061 0.034 0.083 0.022 0.022 0.051 0.034 0.082 0.034h1.595c0.066 0 0.281-0.006 0.493-0.077l-0.595 1.143zM19.461 18.726c-0.118 0.221-0.52 0.279-0.722 0.279l-0.317 0-0.835-1.491 1.376-0.815 0.542 0.996c0.009 0.017 0.228 0.428-0.045 1.030zM15.441 18.792l-1.714-0.003 0.47-0.81 0.31 0.19c0.035 0.021 0.062 0.037 0.103 0.037 0.033 0 0.057-0.012 0.070-0.018 0.066-0.032 0.101-0.102 0.092-0.188-0.001-0.013-0.005-0.026-0.010-0.037l-0.669-1.45c-0.020-0.043-0.066-0.070-0.114-0.067l-1.593 0.118c-0.013 0.001-0.025 0.004-0.036 0.009-0.079 0.034-0.125 0.098-0.121 0.172 0.005 0.086 0.051 0.114 0.102 0.143l0.301 0.171-0.327 0.569c-0.091 0.154-0.151 0.309-0.179 0.461 0 0.001 0 0.001-0 0.002v0c-0.001 0.003-0 0.006-0.001 0.008-0.001 0.003-0.001 0.006-0.001 0.010 0 0-0 0-0 0.001v0.002c-0.047 0.324 0.163 0.68 0.173 0.697l0.839 1.342c0.452 0.645 1.027 0.663 1.050 0.664l1.25 0.042c0.002 0 0.002 0 0.004 0 0.030 0 0.058-0.012 0.081-0.033 0.022-0.022 0.035-0.051 0.035-0.083v-1.832c0-0.063-0.051-0.115-0.115-0.115zM12.355 18.119c0.024-0.122 0.074-0.249 0.15-0.378l0.386-0.671c0.015-0.027 0.019-0.058 0.011-0.088-0.008-0.030-0.028-0.055-0.054-0.070l-0.239-0.135 1.309-0.096 0.55 1.192-0.249-0.153c-0.027-0.016-0.058-0.021-0.089-0.014-0.031 0.008-0.056 0.027-0.072 0.054l-0.598 1.030h-0.001c-0.171 0-0.597-0.021-0.868-0.215-0.157-0.112-0.233-0.261-0.235-0.457zM15.326 20.619l-1.132-0.039c-0.020-0.001-0.486-0.021-0.864-0.56l-0.734-1.173c0.006 0.003 0.013 0.005 0.019 0.007 0.063 0.031 0.129 0.056 0.196 0.076 0.008 0.003 0.017 0.006 0.025 0.008 0.070 0.020 0.138 0.035 0.206 0.046 0.014 0.002 0.026 0.005 0.040 0.006 0.065 0.010 0.128 0.017 0.186 0.022 0.011 0.001 0.021 0.001 0.032 0.002 0.058 0.003 0.113 0.006 0.158 0.006 0.031 0 0.056-0.001 0.073-0.001l0.019-0.001 1.775 0.004v1.597zM16.495 15.93l-0.301 0.162c-0.048 0.025-0.098 0.051-0.107 0.137-0.008 0.073 0.034 0.139 0.112 0.178 0.011 0.006 0.023 0.009 0.036 0.010l1.585 0.201c0.005 0.001 0.010 0.001 0.014 0.001 0.042 0 0.082-0.023 0.102-0.062l0.743-1.413c0.006-0.011 0.010-0.023 0.012-0.035 0.014-0.086-0.017-0.158-0.082-0.194-0.015-0.008-0.041-0.022-0.077-0.022-0.037 0-0.063 0.014-0.096 0.031l-0.33 0.166-0.287-0.578c-0.319-0.612-0.77-0.632-0.792-0.632l-1.789 0.002c-0.786 0.042-1.106 0.521-1.118 0.539l-0.699 1.040c-0.018 0.026-0.024 0.058-0.017 0.089 0.006 0.031 0.026 0.057 0.052 0.074l1.556 0.966c0.019 0.012 0.040 0.018 0.061 0.018 0.038 0 0.074-0.018 0.097-0.052l0.925-1.41 0.401 0.784zM15.039 16.335l-1.359-0.844 0.633-0.941c0.011-0.017 0.275-0.4 0.936-0.437 0.265 0.002 0.509 0.369 0.581 0.511l0.145 0.285-0.935 1.426zM15.734 14.113l1.29-0.001c0.013 0.001 0.339 0.023 0.59 0.506l0.338 0.679c0.014 0.028 0.038 0.049 0.067 0.058s0.061 0.007 0.089-0.006l0.277-0.139-0.616 1.17-1.312-0.166 0.247-0.134c0.055-0.030 0.077-0.098 0.048-0.154l-0.532-1.044c-0.004-0.015-0.011-0.028-0.020-0.040l-0.164-0.323c-0.009-0.015-0.118-0.23-0.302-0.406z" fill="#000000" />
</svg>
