<?xml version="1.0" encoding="utf-8"?>
<!-- Generated by IcoMoon.io -->
<!DOCTYPE svg PUBLIC "-//W3C//DTD SVG 1.1//EN" "http://www.w3.org/Graphics/SVG/1.1/DTD/svg11.dtd">
<svg version="1.1" xmlns="http://www.w3.org/2000/svg" xmlns:xlink="http://www.w3.org/1999/xlink" width="32" height="32" viewBox="0 0 32 32">
<g>
</g>
	<path d="M22.51 5.717h-11.998c-0.822 0-1.489 0.669-1.489 1.49v17.18c0 0.822 0.668 1.489 1.489 1.489l11.998 0c0.822 0 1.49-0.668 1.49-1.489v-17.181c0-0.821-0.668-1.49-1.49-1.49zM23.388 24.387c0 0.483-0.393 0.876-0.877 0.876h-11.998c-0.483 0-0.876-0.393-0.876-0.876v-17.18c0-0.484 0.393-0.877 0.876-0.877l11.998 0c0.484 0 0.877 0.393 0.877 0.877v17.18zM21.524 8.027c0.185 0 0.335 0.158 0.335 0.351v3.25c0 0.194-0.15 0.351-0.335 0.351l-10.025-0c-0.185 0-0.335-0.158-0.335-0.351v-3.249c0-0.194 0.15-0.351 0.335-0.351l10.025 0zM21.524 7.567h-10.025c-0.438 0-0.794 0.364-0.794 0.811v3.25c0 0.447 0.357 0.811 0.794 0.811h10.025c0.438 0 0.794-0.364 0.794-0.811v-3.249c-0-0.447-0.357-0.811-0.794-0.811v0zM12.567 13.413h-1.325c-0.235 0-0.426 0.192-0.426 0.428v0.776c0 0.236 0.191 0.428 0.426 0.428h1.325c0.235 0 0.426-0.192 0.426-0.428v-0.776c-0-0.236-0.191-0.428-0.426-0.428zM12.687 14.618c0 0.068-0.054 0.123-0.121 0.123h-1.325c-0.067 0-0.121-0.055-0.121-0.123v-0.776c0-0.068 0.054-0.123 0.121-0.123h1.325c0.066 0 0.121 0.055 0.121 0.123v0.776zM21.777 13.413h-1.324c-0.235 0-0.426 0.192-0.426 0.428v0.776c0 0.236 0.191 0.428 0.426 0.428h1.324c0.235 0 0.426-0.192 0.426-0.428v-0.776c-0-0.236-0.191-0.428-0.426-0.428zM21.898 14.618c0 0.068-0.054 0.123-0.121 0.123h-1.324c-0.067 0-0.121-0.055-0.121-0.123v-0.776c0-0.068 0.054-0.123 0.121-0.123h1.324c0.066 0 0.121 0.055 0.121 0.123v0.776zM18.707 13.413h-1.325c-0.235 0-0.426 0.192-0.426 0.428v0.776c0 0.236 0.191 0.428 0.426 0.428h1.325c0.235 0 0.425-0.192 0.425-0.428v-0.776c0-0.236-0.19-0.428-0.425-0.428zM18.828 14.618c0 0.068-0.054 0.123-0.12 0.123l-1.325 0c-0.067 0-0.121-0.055-0.121-0.123v-0.776c0-0.068 0.054-0.123 0.121-0.123h1.325c0.066 0 0.12 0.055 0.12 0.123l0 0.776zM15.637 13.413h-1.324c-0.235 0-0.426 0.192-0.426 0.428v0.776c0 0.236 0.191 0.428 0.426 0.428h1.324c0.235 0 0.426-0.192 0.426-0.428v-0.776c-0-0.236-0.191-0.428-0.426-0.428zM15.758 14.618c0 0.068-0.054 0.123-0.121 0.123h-1.324c-0.067 0-0.121-0.055-0.121-0.123v-0.776c0-0.068 0.054-0.123 0.121-0.123h1.324c0.066 0 0.121 0.055 0.121 0.123v0.776zM12.567 15.683h-1.325c-0.235 0-0.426 0.192-0.426 0.428v0.776c0 0.236 0.191 0.428 0.426 0.428h1.325c0.235 0 0.426-0.192 0.426-0.428v-0.776c-0-0.236-0.191-0.428-0.426-0.428zM12.687 16.888c0 0.068-0.054 0.123-0.121 0.123h-1.325c-0.067 0-0.121-0.055-0.121-0.123v-0.776c0-0.068 0.054-0.123 0.121-0.123h1.325c0.066 0 0.121 0.055 0.121 0.123v0.776zM21.777 15.683h-1.324c-0.235 0-0.426 0.192-0.426 0.428v0.776c0 0.236 0.191 0.428 0.426 0.428h1.324c0.235 0 0.426-0.192 0.426-0.428v-0.776c-0-0.236-0.191-0.428-0.426-0.428zM21.898 16.888c0 0.068-0.054 0.123-0.121 0.123h-1.324c-0.067 0-0.121-0.055-0.121-0.123v-0.776c0-0.068 0.054-0.123 0.121-0.123h1.324c0.066 0 0.121 0.055 0.121 0.123v0.776zM18.707 15.683h-1.325c-0.235 0-0.426 0.192-0.426 0.428v0.776c0 0.236 0.191 0.428 0.426 0.428h1.325c0.235 0 0.425-0.192 0.425-0.428v-0.776c0-0.236-0.19-0.428-0.425-0.428zM18.828 16.888c0 0.068-0.054 0.123-0.12 0.123h-1.325c-0.067 0-0.121-0.055-0.121-0.123v-0.776c0-0.068 0.054-0.123 0.121-0.123h1.325c0.066 0 0.12 0.055 0.12 0.123l0 0.776zM15.637 15.683h-1.324c-0.235 0-0.426 0.192-0.426 0.428v0.776c0 0.236 0.191 0.428 0.426 0.428h1.324c0.235 0 0.426-0.192 0.426-0.428v-0.776c-0-0.236-0.191-0.428-0.426-0.428zM15.758 16.888c0 0.068-0.054 0.123-0.121 0.123h-1.324c-0.067 0-0.121-0.055-0.121-0.123v-0.776c0-0.068 0.054-0.123 0.121-0.123h1.324c0.066 0 0.121 0.055 0.121 0.123v0.776zM12.567 17.954h-1.325c-0.235 0-0.426 0.192-0.426 0.428v0.776c0 0.236 0.191 0.428 0.426 0.428h1.325c0.235 0 0.426-0.192 0.426-0.428v-0.776c-0-0.236-0.191-0.428-0.426-0.428zM12.687 19.158c0 0.068-0.054 0.123-0.121 0.123h-1.325c-0.067 0-0.121-0.055-0.121-0.123l-0-0.777c0-0.068 0.054-0.123 0.121-0.123h1.325c0.066 0 0.121 0.055 0.121 0.123l0 0.777zM21.777 17.954h-1.324c-0.235 0-0.426 0.192-0.426 0.428v0.776c0 0.236 0.191 0.428 0.426 0.428h1.324c0.235 0 0.426-0.192 0.426-0.428l-0-0.776c0-0.236-0.191-0.428-0.425-0.428zM21.898 19.158c0 0.068-0.054 0.123-0.121 0.123h-1.324c-0.067 0-0.121-0.055-0.121-0.123l-0-0.777c0-0.068 0.054-0.123 0.121-0.123h1.324c0.066 0 0.121 0.055 0.121 0.123l0 0.777zM18.707 17.954h-1.325c-0.235 0-0.426 0.192-0.426 0.428v0.776c0 0.236 0.191 0.428 0.426 0.428h1.325c0.235 0 0.425-0.192 0.425-0.428v-0.776c0-0.236-0.19-0.428-0.425-0.428zM18.828 19.158c0 0.068-0.054 0.123-0.12 0.123l-1.325 0c-0.067 0-0.121-0.055-0.121-0.123l-0-0.777c0-0.068 0.054-0.123 0.121-0.123h1.325c0.066 0 0.12 0.055 0.12 0.123l0.001 0.777zM15.637 17.954h-1.324c-0.235 0-0.426 0.192-0.426 0.428v0.776c0 0.236 0.191 0.428 0.426 0.428h1.324c0.235 0 0.426-0.192 0.426-0.428l-0-0.776c0-0.236-0.19-0.428-0.425-0.428zM15.758 19.158c0 0.068-0.054 0.123-0.121 0.123h-1.324c-0.067 0-0.121-0.055-0.121-0.123l-0-0.777c0-0.068 0.054-0.123 0.121-0.123h1.324c0.066 0 0.121 0.055 0.121 0.123l0 0.777zM12.567 20.223h-1.325c-0.235 0-0.426 0.192-0.426 0.428v0.776c0 0.236 0.191 0.428 0.426 0.428h1.325c0.235 0 0.426-0.192 0.426-0.428v-0.776c-0-0.236-0.191-0.428-0.426-0.428zM12.687 21.428c0 0.068-0.054 0.123-0.121 0.123h-1.325c-0.067 0-0.121-0.055-0.121-0.123v-0.776c0-0.068 0.054-0.123 0.121-0.123h1.325c0.066 0 0.121 0.055 0.121 0.123v0.776zM18.707 20.223h-1.325c-0.235 0-0.426 0.192-0.426 0.428v0.776c0 0.236 0.191 0.428 0.426 0.428h1.325c0.235 0 0.425-0.192 0.425-0.428v-0.776c0-0.236-0.19-0.428-0.425-0.428zM18.828 21.428c0 0.068-0.054 0.123-0.12 0.123l-1.325 0c-0.067 0-0.121-0.055-0.121-0.123v-0.776c0-0.068 0.054-0.123 0.121-0.123h1.325c0.066 0 0.12 0.055 0.12 0.123l0 0.776zM15.637 20.223h-1.324c-0.235 0-0.426 0.192-0.426 0.428v0.776c0 0.236 0.191 0.428 0.426 0.428h1.324c0.235 0 0.426-0.192 0.426-0.428v-0.776c-0-0.236-0.191-0.428-0.426-0.428zM15.758 21.428c0 0.068-0.054 0.123-0.121 0.123h-1.324c-0.067 0-0.121-0.055-0.121-0.123v-0.776c0-0.068 0.054-0.123 0.121-0.123h1.324c0.066 0 0.121 0.055 0.121 0.123v0.776zM12.567 22.494h-1.325c-0.235 0-0.426 0.192-0.426 0.428v0.776c0 0.236 0.191 0.428 0.426 0.428h1.325c0.235 0 0.426-0.192 0.426-0.428v-0.776c-0-0.236-0.191-0.428-0.426-0.428zM12.687 23.698c0 0.068-0.054 0.123-0.121 0.123h-1.325c-0.067 0-0.121-0.055-0.121-0.123v-0.776c0-0.068 0.054-0.123 0.121-0.123h1.325c0.066 0 0.121 0.055 0.121 0.123v0.776zM21.777 20.223h-1.324c-0.235 0-0.426 0.192-0.426 0.428v3.046c0 0.236 0.191 0.428 0.426 0.428h1.324c0.235 0 0.426-0.192 0.426-0.428v-3.046c-0-0.236-0.191-0.428-0.426-0.428zM21.898 23.698c0 0.068-0.054 0.123-0.121 0.123h-1.324c-0.067 0-0.121-0.055-0.121-0.123v-3.046c0-0.068 0.054-0.123 0.121-0.123h1.324c0.066 0 0.121 0.055 0.121 0.123v3.046zM18.707 22.494h-1.325c-0.235 0-0.426 0.192-0.426 0.428v0.776c0 0.236 0.191 0.428 0.426 0.428h1.325c0.235 0 0.425-0.192 0.425-0.428v-0.776c0-0.236-0.19-0.428-0.425-0.428zM18.828 23.698c0 0.068-0.054 0.123-0.12 0.123l-1.325 0c-0.067 0-0.121-0.055-0.121-0.123v-0.776c0-0.068 0.054-0.123 0.121-0.123h1.325c0.066 0 0.12 0.055 0.12 0.123l0 0.776zM15.637 22.494h-1.324c-0.235 0-0.426 0.192-0.426 0.428v0.776c0 0.236 0.191 0.428 0.426 0.428h1.324c0.235 0 0.426-0.192 0.426-0.428v-0.776c-0-0.236-0.191-0.428-0.426-0.428zM15.758 23.698c0 0.068-0.054 0.123-0.121 0.123h-1.324c-0.067 0-0.121-0.055-0.121-0.123v-0.776c0-0.068 0.054-0.123 0.121-0.123h1.324c0.066 0 0.121 0.055 0.121 0.123v0.776z" fill="#000000" />
</svg>
