<?xml version="1.0" encoding="utf-8"?>
<!-- Generated by IcoMoon.io -->
<!DOCTYPE svg PUBLIC "-//W3C//DTD SVG 1.1//EN" "http://www.w3.org/Graphics/SVG/1.1/DTD/svg11.dtd">
<svg version="1.1" xmlns="http://www.w3.org/2000/svg" xmlns:xlink="http://www.w3.org/1999/xlink" width="32" height="32" viewBox="0 0 32 32">
<g>
</g>
	<path d="M11.526 7.965c-0.067-0.053-0.163-0.041-0.215 0.026-0.052 0.067-0.040 0.163 0.026 0.215 0.059 0.046 0.104 0.101 0.131 0.162 0.047 0.106 0.051 0.223 0.011 0.33s-0.121 0.194-0.226 0.241c-0.105 0.048-0.222 0.051-0.33 0.011-0.108-0.041-0.194-0.121-0.24-0.226-0.028-0.062-0.040-0.131-0.036-0.204 0.005-0.085-0.059-0.157-0.144-0.162-0.085-0.004-0.157 0.059-0.162 0.144-0.007 0.124 0.013 0.241 0.062 0.35 0.081 0.18 0.227 0.317 0.412 0.387 0.085 0.032 0.173 0.048 0.262 0.048 0.103 0 0.206-0.022 0.303-0.066 0.179-0.081 0.316-0.227 0.386-0.412 0.070-0.185 0.063-0.386-0.018-0.565-0.049-0.106-0.123-0.199-0.222-0.277zM19.134 7.965c-0.067-0.052-0.163-0.040-0.215 0.027-0.052 0.066-0.040 0.163 0.027 0.215 0.059 0.046 0.104 0.101 0.131 0.162 0.047 0.105 0.051 0.222 0.011 0.33-0.041 0.108-0.121 0.194-0.225 0.241-0.106 0.048-0.222 0.051-0.33 0.011s-0.194-0.121-0.241-0.226c-0.028-0.062-0.040-0.131-0.036-0.204 0.005-0.085-0.059-0.157-0.144-0.162-0.086-0.004-0.157 0.059-0.162 0.144-0.007 0.124 0.013 0.241 0.062 0.35 0.081 0.18 0.227 0.317 0.412 0.387 0.085 0.032 0.173 0.048 0.261 0.048 0.104 0 0.207-0.022 0.304-0.066 0.179-0.081 0.316-0.228 0.386-0.412 0.070-0.185 0.063-0.386-0.018-0.565-0.049-0.107-0.123-0.2-0.222-0.277zM23.659 7.84l-1.619-0.696c-0.037-0.016-0.080-0.017-0.118-0.002s-0.068 0.045-0.084 0.082l-0.238 0.554-0.447-0.447c-0.021-0.021-0.046-0.038-0.075-0.049-0.028-0.012-0.058-0.018-0.088-0.018h-1.662c-0.037-0.136-0.124-0.356-0.318-0.47-0.128-0.075-0.279-0.090-0.425-0.041-0.226 0.076-0.388 0.229-0.469 0.443-0.008 0.022-0.010 0.046-0.016 0.068l-6.381-0c-0.037-0.136-0.124-0.356-0.318-0.47-0.128-0.075-0.279-0.090-0.425-0.041-0.226 0.076-0.388 0.229-0.469 0.443-0.008 0.022-0.010 0.046-0.016 0.068h-1.722c-0.127 0-0.23 0.103-0.23 0.23v16.87c0 0.001 0 0.001 0 0.002 0 0.030 0.006 0.058 0.018 0.086 0.012 0.028 0.029 0.053 0.050 0.074l0.682 0.682c0.043 0.043 0.102 0.067 0.162 0.067h12.222c0.030 0 0.059-0.006 0.088-0.018 0.024-0.010 0.044-0.025 0.063-0.042 0.004-0.003 0.008-0.004 0.012-0.008 0.003-0.003 0.004-0.007 0.006-0.010 0.017-0.020 0.033-0.040 0.043-0.065 0.011-0.028 0.018-0.058 0.018-0.088l-0-12.733 1.837-4.271c0.034-0.078-0.002-0.168-0.080-0.202zM21.221 8.049l0.185 0.185-0.185 0.429v-0.613zM8.999 7.723h1.466c0.055 0.438 0.282 0.866 0.344 0.974 0.057 0.099 0.16 0.155 0.267 0.155 0.051 0 0.104-0.013 0.151-0.040 0.147-0.084 0.198-0.271 0.115-0.418-0.099-0.174-0.212-0.444-0.258-0.671h6.991c0.055 0.438 0.282 0.866 0.344 0.974 0.057 0.099 0.16 0.155 0.267 0.155 0.051 0 0.104-0.013 0.151-0.040 0.147-0.084 0.198-0.271 0.115-0.418-0.099-0.174-0.212-0.444-0.258-0.671h2.069v1.723l-11.762 0v-1.724zM8.999 24.134v-14.227h11.687l-1.502 3.491-9.116 0c-0.127 0-0.23 0.103-0.23 0.23s0.103 0.23 0.23 0.23h8.919l-0.467 1.086c-0.021-0.006-0.041-0.013-0.064-0.013l-8.388-0c-0.127 0-0.23 0.103-0.23 0.23s0.103 0.23 0.23 0.23h8.259l-0.494 1.15-7.765-0c-0.127 0-0.23 0.103-0.23 0.23s0.103 0.23 0.23 0.23h7.718l0.074 1.269-7.792 0c-0.127 0-0.23 0.103-0.23 0.23s0.103 0.23 0.23 0.23h7.915c0.009 0 0.017-0.004 0.025-0.005 0.008 0.001 0.016 0.005 0.024 0.005 0.033 0 0.066-0.011 0.094-0.032l1.51-1.161c0.002-0.001 0.003-0.004 0.005-0.006 0.018-0.015 0.034-0.033 0.043-0.055l0.001-0.001c0-0 0-0 0-0.001l1.078-2.506v7.405c-0.028 0.039-0.061 0.075-0.106 0.106-0.286 0.2-0.881 0.205-1.416 0.010-0.046-0.017-0.099-0.010-0.14 0.019-0.041 0.029-0.065 0.075-0.065 0.125 0 0.619-0.48 1.323-1.144 1.502l-8.891 0zM18.142 17.842l-0.051-0.886 1.151 0.495-0.432 0.332-0.667 0.059zM20.761 23.072v1.062h-1.707l1.707-1.062zM18.779 23.943c0.298-0.307 0.496-0.708 0.548-1.106 0.372 0.105 0.802 0.14 1.156 0.046l-1.704 1.060zM9.546 24.816l-0.222-0.223h11.572l0.222 0.223h-11.572zM21.443 24.491l-0.222-0.222v-10.37l0.222-0.517v11.11zM19.462 17.213l-1.334-0.574c-0.001-0.001-0.002-0.003-0.003-0.004l1.224-2.844c0.040-0.040 0.063-0.094 0.066-0.153l2.419-5.623 0.003-0.002-0.001-0.002 0.226-0.526 1.337 0.576-3.936 9.151z" fill="#000000" />
</svg>
