<?xml version="1.0" encoding="utf-8"?>
<!-- Generated by IcoMoon.io -->
<!DOCTYPE svg PUBLIC "-//W3C//DTD SVG 1.1//EN" "http://www.w3.org/Graphics/SVG/1.1/DTD/svg11.dtd">
<svg version="1.1" xmlns="http://www.w3.org/2000/svg" xmlns:xlink="http://www.w3.org/1999/xlink" width="32" height="32" viewBox="0 0 32 32">
<g>
</g>
	<path d="M27.45 11.311c-0.002-0.021-0.006-0.041-0.013-0.061-0.006-0.019-0.013-0.035-0.022-0.052-0.010-0.017-0.020-0.033-0.032-0.048-0.014-0.016-0.028-0.030-0.044-0.043-0.008-0.007-0.014-0.017-0.023-0.022l-3.372-2.168c-0.049-0.032-0.107-0.048-0.166-0.048h-2.952v-0.78c0-1.091-0.887-1.978-1.978-1.978l-5.386-0.001c-1.091 0-1.978 0.888-1.978 1.978v0.78h-3.119c-0.058 0-0.116 0.017-0.166 0.048l-3.372 2.168c-0.009 0.006-0.014 0.016-0.023 0.022-0.016 0.013-0.031 0.027-0.044 0.043-0.013 0.016-0.023 0.031-0.032 0.048-0.009 0.017-0.017 0.034-0.023 0.052-0.006 0.020-0.010 0.040-0.012 0.061-0.001 0.011-0.006 0.020-0.006 0.031v12.009c0 0.17 0.138 0.306 0.306 0.306h22.158c0.17 0 0.306-0.137 0.306-0.306l0.001-12.009c-0-0.011-0.005-0.020-0.006-0.031zM12.096 8.088c0-0.753 0.613-1.366 1.366-1.366h5.386c0.753 0 1.366 0.612 1.366 1.366v1.509c0 0.099 0 0.153-0.46 0.153s-0.46-0.054-0.46-0.153v-1.509c0-0.246-0.2-0.446-0.446-0.446l-5.386-0c-0.246 0-0.446 0.2-0.446 0.446v1.509c0 0.099 0 0.153-0.46 0.153s-0.46-0.054-0.46-0.153l-0-1.508zM18.68 8.255v0.613h-5.052v-0.613h5.052zM8.454 9.481h3.029v0.116c0 0.766 0.752 0.766 1.073 0.766 0.322 0 1.073 0 1.073-0.766v-0.116h5.052v0.116c0 0.766 0.752 0.766 1.073 0.766 0.322 0 1.073 0 1.073-0.766v-0.116h2.862l2.418 1.555h-20.070l2.418-1.555zM26.843 23.045h-21.544v-8.122h2.875v0.946c0 0.337 0.162 0.634 0.41 0.825-0.011 0.038-0.018 0.078-0.018 0.119v0.458c0 0.35 0.404 0.613 0.939 0.613 0.536 0 0.94-0.263 0.94-0.613v-0.458c0-0.041-0.006-0.081-0.018-0.119 0.248-0.192 0.41-0.489 0.41-0.825v-0.946h10.516v0.946c0 0.337 0.162 0.634 0.41 0.825-0.011 0.038-0.018 0.078-0.018 0.119v0.458c0 0.35 0.404 0.613 0.939 0.613 0.536 0 0.94-0.263 0.94-0.613v-0.458c0-0.041-0.006-0.081-0.018-0.119 0.248-0.192 0.41-0.489 0.41-0.825v-0.946h2.825l0 8.122zM9.792 16.454h-0.572c-0.324 0-0.587-0.263-0.587-0.587v-1.432c0-0.324 0.263-0.587 0.587-0.587h0.572c0.324 0 0.587 0.263 0.587 0.587v1.432c-0 0.324-0.263 0.587-0.587 0.587zM9.987 17.266c-0.014 0.044-0.184 0.158-0.481 0.158-0.296 0-0.466-0.114-0.479-0.153l-0.001-0.375c0.063 0.012 0.128 0.020 0.195 0.020h0.572c0.066 0 0.131-0.008 0.194-0.020l0 0.371zM22.972 16.454h-0.572c-0.324 0-0.587-0.263-0.587-0.587v-1.432c0-0.324 0.263-0.587 0.587-0.587h0.572c0.324 0 0.587 0.263 0.587 0.587v1.432c0 0.324-0.263 0.587-0.587 0.587zM23.167 17.266c-0.014 0.044-0.184 0.158-0.481 0.158-0.296 0-0.466-0.114-0.479-0.153l-0.001-0.375c0.063 0.012 0.128 0.020 0.195 0.020h0.572c0.066 0 0.131-0.008 0.194-0.020l0 0.371zM26.843 14.462h-2.825v-0.026c0-0.577-0.469-1.046-1.046-1.046h-0.572c-0.577 0-1.046 0.469-1.046 1.046v0.026h-10.515v-0.026c0-0.577-0.469-1.046-1.046-1.046h-0.572c-0.577 0-1.046 0.469-1.046 1.046v0.026h-2.875v-2.813h21.545l-0 2.813z" fill="#000000" />
</svg>
