<?xml version="1.0" encoding="utf-8"?>
<!-- Generated by IcoMoon.io -->
<!DOCTYPE svg PUBLIC "-//W3C//DTD SVG 1.1//EN" "http://www.w3.org/Graphics/SVG/1.1/DTD/svg11.dtd">
<svg version="1.1" xmlns="http://www.w3.org/2000/svg" xmlns:xlink="http://www.w3.org/1999/xlink" width="32" height="32" viewBox="0 0 32 32">
<g>
</g>
	<path d="M16.245 10.29c2.104 0 3.816-1.712 3.816-3.816s-1.712-3.816-3.816-3.816c-2.104 0-3.816 1.712-3.816 3.816s1.712 3.816 3.816 3.816zM16.245 3.202c1.804 0 3.272 1.468 3.272 3.272s-1.468 3.272-3.272 3.272-3.271-1.468-3.271-3.272 1.467-3.272 3.271-3.272zM11.123 25.938h10.386c0.053 0 0.095-0.042 0.095-0.095 0-0.053-0.042-0.095-0.095-0.095l-10.386-0c-0.053 0-0.095 0.042-0.095 0.095 0 0.052 0.042 0.095 0.095 0.095zM22.38 23.47c0.001-0.001 0.004-0.002 0.006-0.003 1.033-0.804 1.989-1.766 1.989-3.349v-3.046c0-3.892-2.144-6.036-6.035-6.036h-4.19c-3.89 0-6.034 2.143-6.034 6.036v3.046c0 1.668 1.085 2.656 2.119 3.447v1.067c0 0.236 0.107 0.445 0.272 0.589-0.149 0.127-0.249 0.31-0.268 0.514l-1.628 1.88c-0.030 0.035-0.046 0.081-0.046 0.127 0 0.52 0.198 0.784 0.59 0.784h14.183c0.391 0 0.59-0.264 0.59-0.784 0-0.044-0.014-0.086-0.042-0.12l-1.509-1.882c-0.019-0.207-0.119-0.389-0.269-0.518 0.166-0.144 0.273-0.353 0.273-0.589l-0-1.162zM8.66 20.118v-3.046c0-2.505 0.952-5.491 5.489-5.491h4.19c4.538 0 5.49 2.986 5.49 5.491v3.046c0 1.137-0.569 1.908-1.45 2.651l0-4.729c0-0.432-0.351-0.784-0.784-0.784h-0.437v-1.715c0-0.15-0.122-0.273-0.273-0.273s-0.273 0.122-0.273 0.273l0 1.715h-8.764v-1.715c0-0.15-0.122-0.273-0.273-0.273s-0.273 0.122-0.273 0.273l0 1.715h-0.288c-0.432 0-0.782 0.351-0.782 0.784l-0 4.829c-0.981-0.806-1.574-1.59-1.574-2.751zM21.495 17.743c0.215 0 0.389 0.174 0.389 0.388v6.469c0 0.214-0.174 0.389-0.389 0.389l-10.381 0c-0.214 0-0.389-0.174-0.389-0.389l0-6.469c0-0.214 0.175-0.388 0.389-0.388h10.381zM23.402 27.716c-0.013 0.324-0.115 0.324-0.199 0.324h-13.918c-0.083 0-0.185 0-0.198-0.32l1.592-1.839c0.030-0.035 0.045-0.078 0.045-0.123 0-0.215 0.175-0.39 0.389-0.39h10.381c0.215 0 0.389 0.175 0.389 0.39 0 0.042 0.015 0.084 0.042 0.118l1.476 1.84zM17.128 21.829c0.018 0 0.037-0.006 0.053-0.016l2.734-1.837c0.043-0.030 0.055-0.089 0.025-0.132-0.029-0.043-0.088-0.054-0.132-0.025l-2.734 1.835c-0.044 0.030-0.055 0.089-0.026 0.132 0.020 0.028 0.049 0.042 0.080 0.042zM10.784 26.579h11.016c0.051 0 0.094-0.042 0.094-0.095 0-0.052-0.042-0.095-0.094-0.095h-11.016c-0.053 0-0.096 0.042-0.096 0.095-0 0.053 0.042 0.095 0.096 0.095zM11.627 24.623h9.36c0.262 0 0.474-0.227 0.474-0.508l0-5.427c0-0.279-0.212-0.506-0.474-0.506l-4.386 0c0.002-0.013 0.004-0.026 0.004-0.040 0-0.165-0.134-0.299-0.299-0.299-0.164 0-0.298 0.134-0.298 0.299 0 0.014 0.002 0.026 0.004 0.040h-4.385c-0.262 0-0.475 0.227-0.475 0.506v5.427c0 0.281 0.213 0.507 0.475 0.507zM11.437 18.688c0-0.121 0.085-0.222 0.189-0.222h9.36c0.104 0 0.19 0.101 0.19 0.222v5.427c0 0.122-0.086 0.223-0.19 0.223l-9.36 0c-0.104 0-0.189-0.101-0.189-0.223l0-5.428zM16.316 23.094c0.019 0 0.037-0.005 0.053-0.016l2.166-1.463c0.044-0.030 0.054-0.089 0.025-0.132s-0.089-0.054-0.132-0.025l-2.166 1.463c-0.044 0.030-0.055 0.089-0.026 0.132 0.018 0.027 0.048 0.042 0.079 0.042zM10.131 27.126c0 0.053 0.042 0.095 0.095 0.095h11.94c0.053 0 0.095-0.042 0.095-0.095s-0.042-0.096-0.095-0.096h-11.941c-0.053 0-0.095 0.043-0.095 0.096z" fill="#000000" />
</svg>
