<?xml version="1.0" encoding="utf-8"?>
<!-- Generated by IcoMoon.io -->
<!DOCTYPE svg PUBLIC "-//W3C//DTD SVG 1.1//EN" "http://www.w3.org/Graphics/SVG/1.1/DTD/svg11.dtd">
<svg version="1.1" xmlns="http://www.w3.org/2000/svg" xmlns:xlink="http://www.w3.org/1999/xlink" width="32" height="32" viewBox="0 0 32 32">
<g>
</g>
	<path d="M22.13 4.717h-10.572c-0.656 0-1.19 0.534-1.19 1.19v20.38c0 0.656 0.534 1.19 1.19 1.19h10.572c0.656 0 1.189-0.533 1.189-1.19v-20.38c0-0.656-0.533-1.19-1.189-1.19zM11.558 5.33h10.572c0.318 0 0.576 0.259 0.576 0.577v2.604h-11.724v-2.604c-0-0.318 0.258-0.577 0.576-0.577zM22.706 8.817v14.558h-11.724v-14.558h11.724zM22.13 26.863h-10.572c-0.318 0-0.577-0.259-0.577-0.577v-2.605h11.724v2.605c0 0.318-0.258 0.577-0.576 0.577zM15.805 7.144h2.077c0.127 0 0.23-0.103 0.23-0.23s-0.103-0.23-0.23-0.23h-2.077c-0.127 0-0.23 0.103-0.23 0.23s0.103 0.23 0.23 0.23zM14.768 7.219c0.083 0 0.163-0.031 0.218-0.089 0.058-0.055 0.089-0.135 0.089-0.218 0-0.080-0.031-0.16-0.089-0.214-0.111-0.114-0.316-0.117-0.432 0-0.058 0.058-0.092 0.134-0.092 0.214 0 0.083 0.034 0.162 0.092 0.218 0.055 0.058 0.135 0.089 0.214 0.089zM17.439 24.139h-1.191c-0.444 0-0.806 0.362-0.806 0.806v0.582c0 0.445 0.362 0.806 0.806 0.806h1.191c0.445 0 0.806-0.362 0.806-0.806v-0.582c-0-0.444-0.362-0.806-0.806-0.806zM17.786 25.528c0 0.192-0.155 0.347-0.347 0.347h-1.191c-0.191 0-0.347-0.155-0.347-0.347v-0.582c0-0.19 0.156-0.346 0.347-0.346h1.191c0.192 0 0.347 0.156 0.347 0.346v0.582zM20.73 11.668l-4.564 3.066c-0.072 0.049-0.091 0.147-0.042 0.22 0.031 0.045 0.081 0.070 0.131 0.070 0.031 0 0.062-0.009 0.090-0.027l4.564-3.066c0.072-0.049 0.092-0.147 0.043-0.22-0.050-0.073-0.149-0.092-0.222-0.043zM18.426 14.402l-3.615 2.442c-0.072 0.049-0.092 0.148-0.042 0.22 0.030 0.045 0.080 0.070 0.131 0.070 0.031 0 0.062-0.010 0.089-0.028l3.615-2.442c0.073-0.049 0.092-0.148 0.042-0.22-0.048-0.073-0.148-0.091-0.22-0.042z" fill="#000000" />
</svg>
