<?xml version="1.0" encoding="utf-8"?>
<!-- Generated by IcoMoon.io -->
<!DOCTYPE svg PUBLIC "-//W3C//DTD SVG 1.1//EN" "http://www.w3.org/Graphics/SVG/1.1/DTD/svg11.dtd">
<svg version="1.1" xmlns="http://www.w3.org/2000/svg" xmlns:xlink="http://www.w3.org/1999/xlink" width="32" height="32" viewBox="0 0 32 32">
<g>
</g>
	<path d="M22.024 18.95c-0.28-0.606-0.722-1.12-1.283-1.489 0.023-0.084 0.035-0.17 0.035-0.257 0-0.538-0.438-0.976-0.975-0.976-0.412 0-0.781 0.264-0.919 0.649-0.031-0.002-0.061-0.003-0.092-0.003-0.807 0-1.593 0.277-2.222 0.78l-0.315-0.256c-0.024-0.020-0.055-0.031-0.087-0.031l-0.044 0.007c-0.044 0.016-0.077 0.051-0.089 0.096l-0.299 1.14c-0.33 0.55-0.504 1.181-0.504 1.822 0 0.070 0.002 0.14 0.006 0.209-0.33 0.164-0.541 0.501-0.541 0.872 0 0.538 0.438 0.975 0.975 0.975 0.066 0 0.133-0.007 0.2-0.022 0.474 0.679 1.166 1.17 1.96 1.393l-0.032 0.371c-0.004 0.046 0.016 0.091 0.052 0.121 0.025 0.019 0.054 0.029 0.086 0.029 0.015 0 0.031-0.002 0.045-0.008l1.124-0.396c0.621-0.055 1.218-0.274 1.73-0.635 0.162 0.112 0.356 0.173 0.551 0.173 0.538 0 0.976-0.438 0.976-0.975 0-0.267-0.11-0.52-0.302-0.705 0.191-0.444 0.288-0.916 0.288-1.402 0-0.089-0.004-0.179-0.011-0.274l0.401-0.128c0.044-0.014 0.078-0.050 0.090-0.096 0.012-0.044 0.001-0.093-0.031-0.128l-0.775-0.858zM19.24 17.001c0.086-0.236 0.311-0.394 0.561-0.394 0.329 0 0.598 0.268 0.598 0.598 0 0.048-0.006 0.1-0.021 0.152-0.017 0.066-0.045 0.127-0.082 0.182-0.111 0.164-0.296 0.262-0.494 0.262-0.329 0-0.598-0.268-0.597-0.605 0.001-0.067 0.013-0.133 0.036-0.196zM15.961 22.039c-0.059 0.033-0.124 0.055-0.195 0.066-0.031 0.005-0.061 0.008-0.094 0.008-0.329 0-0.598-0.268-0.598-0.597 0-0.215 0.118-0.414 0.305-0.521 0.060-0.034 0.125-0.057 0.195-0.068 0.032-0.006 0.065-0.009 0.098-0.009 0.33 0 0.598 0.268 0.598 0.598 0.001 0.217-0.118 0.417-0.309 0.523zM20.569 23.070c-0.481 0.326-1.040 0.513-1.621 0.542l-0.856-0.491c-0.021-0.012-0.044-0.019-0.068-0.019-0.022 0-0.044 0.006-0.063 0.016-0.041 0.021-0.069 0.062-0.074 0.11l-0.022 0.25c-0.651-0.199-1.227-0.608-1.636-1.163 0.261-0.181 0.419-0.48 0.419-0.799 0-0.538-0.438-0.976-0.976-0.976-0.020 0-0.040 0.001-0.060 0.002-0.002-0.036-0.003-0.072-0.003-0.109 0-0.618 0.178-1.218 0.517-1.735l0.885-0.432c0.042-0.021 0.071-0.061 0.077-0.108s-0.013-0.094-0.050-0.122l-0.167-0.136c0.551-0.418 1.229-0.647 1.921-0.647 0.012 0 0.025 0 0.037 0.001 0.026 0.515 0.453 0.926 0.975 0.926 0.303 0 0.586-0.14 0.77-0.378 0.516 0.35 0.913 0.833 1.152 1.401l-0.123 0.986c-0.007 0.047 0.011 0.094 0.046 0.123 0.025 0.022 0.056 0.033 0.089 0.033l0.231-0.067c0.003 0.051 0.005 0.103 0.005 0.155 0 0.412-0.079 0.814-0.235 1.196-0.112-0.043-0.229-0.065-0.349-0.065-0.538 0-0.975 0.438-0.975 0.976-0 0.189 0.053 0.371 0.157 0.529zM21.388 23.138c-0.116 0-0.228-0.034-0.325-0.097-0.056-0.036-0.106-0.082-0.147-0.136-0.082-0.106-0.124-0.231-0.124-0.364 0-0.33 0.268-0.598 0.597-0.598 0.090 0 0.177 0.020 0.26 0.061 0.062 0.030 0.116 0.068 0.163 0.116 0.113 0.113 0.175 0.263 0.175 0.422-0.001 0.329-0.269 0.597-0.598 0.597zM25.475 12.207c-0.898-2.934-3.636-4.969-6.72-4.969-3.092 0-5.806 2.016-6.713 4.941-0.504-0.18-1.030-0.271-1.569-0.271-2.187 0-4.068 1.504-4.564 3.612-1.954 0.072-3.6 1.429-4.036 3.351-0.019 0.086 0.001 0.177 0.057 0.247 0.055 0.069 0.139 0.11 0.227 0.11h10.051c-0.045 0.312-0.070 0.631-0.070 0.955 0 3.665 2.982 6.647 6.647 6.647 3.665 0 6.647-2.982 6.647-6.647 0-0.325-0.025-0.643-0.070-0.955h4.39c0.142 0 0.263-0.102 0.287-0.242 0.062-0.357 0.092-0.685 0.092-1.004-0-2.79-1.948-5.189-4.658-5.774zM18.787 26.217c-3.327 0-6.034-2.707-6.034-6.034 0-3.327 2.707-6.034 6.034-6.034s6.034 2.707 6.034 6.034c0 3.327-2.707 6.034-6.034 6.034zM29.504 18.645h-4.252c-0.696-2.926-3.33-5.109-6.465-5.109s-5.769 2.183-6.465 5.109h-9.78c0.502-1.514 1.905-2.542 3.551-2.542h0.002l0.045 0.002c0.148 0.014 0.268-0.098 0.294-0.239 0.354-1.954 2.053-3.372 4.040-3.372 0.532 0 1.049 0.106 1.541 0.305 0.304 0.148 0.954 0.524 1.355 1.198 0.048 0.080 0.138 0.119 0.226 0.103 0.025-0.005 0.050-0.013 0.074-0.028 0.104-0.062 0.138-0.196 0.076-0.299-0.346-0.58-0.837-0.962-1.21-1.188 0.758-2.806 3.305-4.762 6.22-4.762 2.802 0 5.273 1.791 6.12 4.441-0.753-0.005-1.312 0.267-1.345 0.281-0.111 0.046-0.165 0.174-0.118 0.286 0.046 0.111 0.174 0.165 0.285 0.119 0.008-0.004 0.779-0.31 1.655-0.165 2.441 0.527 4.198 2.685 4.198 5.198 0.001 0.213-0.014 0.432-0.046 0.664z" fill="#000000" />
</svg>
