<?xml version="1.0" encoding="utf-8"?>
<!-- Generated by IcoMoon.io -->
<!DOCTYPE svg PUBLIC "-//W3C//DTD SVG 1.1//EN" "http://www.w3.org/Graphics/SVG/1.1/DTD/svg11.dtd">
<svg version="1.1" xmlns="http://www.w3.org/2000/svg" xmlns:xlink="http://www.w3.org/1999/xlink" width="32" height="32" viewBox="0 0 32 32">
<g>
</g>
	<path d="M16 5.086c-6.018 0-10.914 4.896-10.915 10.914 0 6.019 4.896 10.915 10.915 10.915h0.001c6.018-0.001 10.913-4.897 10.913-10.914 0-6.018-4.896-10.915-10.915-10.915zM16.001 26.302v0.306l-0.002-0.306c-5.68 0-10.3-4.621-10.3-10.302 0-5.68 4.622-10.301 10.302-10.301s10.301 4.621 10.301 10.302c0 5.679-4.621 10.301-10.3 10.301zM23.854 12.023c-1.422-2.848-3.454-4.399-6.585-5.028-0.125-0.025-0.246 0.055-0.271 0.18-0.025 0.124 0.056 0.246 0.18 0.271 2.98 0.599 4.912 2.074 6.265 4.783 0.040 0.081 0.121 0.127 0.206 0.127 0.034 0 0.070-0.008 0.102-0.024 0.114-0.057 0.16-0.195 0.103-0.308z" fill="#000000" />
</svg>
