<?xml version="1.0" encoding="utf-8"?>
<!-- Generated by IcoMoon.io -->
<!DOCTYPE svg PUBLIC "-//W3C//DTD SVG 1.1//EN" "http://www.w3.org/Graphics/SVG/1.1/DTD/svg11.dtd">
<svg version="1.1" xmlns="http://www.w3.org/2000/svg" xmlns:xlink="http://www.w3.org/1999/xlink" width="32" height="32" viewBox="0 0 32 32">
<g>
</g>
	<path d="M28.848 11.966c0.018-0.066-0.011-0.138-0.075-0.169l-3.854-0.662c-0.020-0.010-0.189-0.015-0.211-0.015l-17.343 0c-0.020 0-0.186 0.004-0.205 0.012l-3.928 0.662c-0.068 0.029-0.101 0.103-0.082 0.173-0.003 0.013-0.008 0.025-0.008 0.038v4.872c0 0.004 0.002 0.006 0.002 0.010-0 0.004-0.002 0.006-0.002 0.010v4.872c0 0.081 0.066 0.147 0.147 0.147h8.463c0.001 0 0.003-0.001 0.004-0.001 0.001 0 0.003 0.001 0.004 0.001h8.463c0.004 0 0.006-0.002 0.010-0.002 0.004 0 0.006 0.002 0.010 0.002h8.463c0.082 0 0.147-0.066 0.147-0.147v-4.872c0-0.003-0.002-0.006-0.002-0.010 0.001-0.003 0.002-0.006 0.002-0.010v-4.872c0.001-0.014-0.004-0.026-0.007-0.039zM18.914 11.414l0.832 0.443h-7.439l0.957-0.443h5.65zM11.607 20.184v1.438h-8.169v-2.142h8.169v0.704zM11.607 17.802v1.384h-8.169v-2.142h8.169v0.758zM11.607 15.293v1.437h-8.169v-2.142h8.169v0.704zM11.607 12.911v1.384h-8.169v-2.142h8.169v0.758zM11.654 11.858h-7.042l2.636-0.443h5.407l-1.001 0.443zM20.078 20.184v1.438h-8.169v-2.142h8.169l-0 0.704zM20.078 17.802v1.384h-8.169v-2.142h8.169l-0 0.758zM20.078 15.293v1.437l-8.169-0v-2.142h8.169l-0 0.704zM20.078 12.911v1.384l-8.169-0v-2.142h8.169l-0 0.758zM19.494 11.414h5.327l2.643 0.443-7.085 0-0.885-0.444zM28.562 20.184v1.438h-8.169v-2.142h8.169v0.704zM28.562 17.802v1.384h-8.169v-2.142h8.169v0.758zM28.562 15.293v1.437h-8.169v-2.142h8.169v0.704zM28.562 12.911v1.384h-8.169v-2.142h8.169v0.758zM3.975 13.278c0 0.112 0.091 0.202 0.202 0.202s0.202-0.091 0.202-0.202c0 0 0 0 0 0 0-0.112-0.091-0.202-0.202-0.202-0.112 0-0.202 0.091-0.202 0.202 0 0 0 0 0 0zM4.693 13.278c0 0.112 0.091 0.202 0.202 0.202s0.202-0.091 0.202-0.202c0 0 0 0 0 0 0-0.112-0.091-0.202-0.202-0.202-0.112 0-0.202 0.091-0.202 0.202 0 0 0 0 0 0zM10.662 13.868h0.441c0.041 0 0.074-0.033 0.074-0.074v-1.177c0-0.040-0.033-0.074-0.074-0.074h-0.441c-0.041 0-0.074 0.033-0.074 0.074v1.177c0 0.040 0.033 0.074 0.074 0.074zM10.735 12.691h0.294v1.030h-0.294v-1.030zM9.779 13.868h0.441c0.041 0 0.074-0.033 0.074-0.074v-1.177c0-0.040-0.033-0.074-0.074-0.074h-0.441c-0.041 0-0.074 0.033-0.074 0.074v1.177c0 0.040 0.033 0.074 0.074 0.074zM9.852 12.691h0.294v1.030h-0.294v-1.030zM3.975 15.779c0 0.112 0.091 0.202 0.202 0.202s0.202-0.091 0.202-0.202c0 0 0 0 0 0 0-0.112-0.091-0.202-0.202-0.202-0.112 0-0.202 0.091-0.202 0.202 0 0 0 0 0 0zM4.693 15.779c0 0.112 0.091 0.202 0.202 0.202s0.202-0.091 0.202-0.202c0 0 0 0 0 0 0-0.112-0.091-0.202-0.202-0.202-0.112 0-0.202 0.091-0.202 0.202 0 0 0 0 0 0zM10.662 16.369h0.441c0.041 0 0.074-0.033 0.074-0.074v-1.177c0-0.040-0.033-0.074-0.074-0.074h-0.441c-0.041 0-0.074 0.033-0.074 0.074v1.177c0 0.041 0.033 0.074 0.074 0.074zM10.735 15.192h0.294v1.030h-0.294v-1.030zM9.779 16.369h0.441c0.041 0 0.074-0.033 0.074-0.074v-1.177c0-0.040-0.033-0.074-0.074-0.074h-0.441c-0.041 0-0.074 0.033-0.074 0.074v1.177c0 0.041 0.033 0.074 0.074 0.074zM9.852 15.192h0.294v1.030h-0.294v-1.030zM3.975 18.133c0 0.112 0.091 0.202 0.202 0.202s0.202-0.091 0.202-0.202c0 0 0 0 0 0 0-0.112-0.091-0.202-0.202-0.202-0.112 0-0.202 0.091-0.202 0.202 0 0 0 0 0 0zM4.693 18.133c0 0.112 0.091 0.202 0.202 0.202s0.202-0.091 0.202-0.202c0 0 0 0 0 0 0-0.112-0.091-0.202-0.202-0.202-0.112 0-0.202 0.091-0.202 0.202 0 0 0 0 0 0zM10.662 18.722h0.441c0.041 0 0.074-0.033 0.074-0.073v-1.177c0-0.041-0.033-0.074-0.074-0.074h-0.441c-0.041 0-0.074 0.033-0.074 0.074v1.177c0 0.040 0.033 0.073 0.074 0.073zM10.735 17.546h0.294v1.030h-0.294v-1.030zM9.779 18.722h0.441c0.041 0 0.074-0.033 0.074-0.073v-1.177c0-0.041-0.033-0.074-0.074-0.074h-0.441c-0.041 0-0.074 0.033-0.074 0.074v1.177c0 0.040 0.033 0.073 0.074 0.073zM9.852 17.546h0.294v1.030h-0.294v-1.030zM3.975 20.634c0 0.112 0.091 0.202 0.202 0.202s0.202-0.091 0.202-0.202c0 0 0 0 0 0 0-0.112-0.091-0.202-0.202-0.202-0.112 0-0.202 0.091-0.202 0.202 0 0 0 0 0 0zM4.693 20.634c0 0.112 0.091 0.202 0.202 0.202s0.202-0.091 0.202-0.202c0 0 0 0 0 0 0-0.112-0.091-0.202-0.202-0.202-0.112 0-0.202 0.091-0.202 0.202 0 0 0 0 0 0zM10.662 21.223h0.441c0.041 0 0.074-0.033 0.074-0.074v-1.177c0-0.040-0.033-0.073-0.074-0.073h-0.441c-0.041 0-0.074 0.033-0.074 0.073v1.177c0 0.041 0.033 0.074 0.074 0.074zM10.735 20.046h0.294v1.030h-0.294v-1.030zM9.779 21.223h0.441c0.041 0 0.074-0.033 0.074-0.074v-1.177c0-0.040-0.033-0.073-0.074-0.073h-0.441c-0.041 0-0.074 0.033-0.074 0.073v1.177c0 0.041 0.033 0.074 0.074 0.074zM9.852 20.046h0.294v1.030h-0.294v-1.030zM12.507 13.278c0 0.112 0.091 0.202 0.202 0.202s0.202-0.091 0.202-0.202c0-0.112-0.091-0.202-0.202-0.202-0.112 0-0.202 0.091-0.202 0.202zM13.225 13.278c0 0 0 0 0 0 0 0.112 0.091 0.202 0.202 0.202 0.112 0 0.202-0.091 0.202-0.202 0 0 0 0 0 0 0 0 0 0 0 0 0-0.112-0.091-0.202-0.202-0.202-0.112 0-0.202 0.091-0.202 0.202s0 0 0 0zM19.194 13.868h0.441c0.041 0 0.074-0.033 0.074-0.074v-1.177c0-0.040-0.033-0.074-0.074-0.074l-0.441-0c-0.041 0-0.074 0.033-0.074 0.074v1.177c0 0.041 0.033 0.074 0.074 0.074zM19.267 12.691h0.294v1.030h-0.294v-1.030zM18.311 13.868h0.441c0.041 0 0.073-0.033 0.073-0.074v-1.177c0-0.040-0.033-0.074-0.073-0.074h-0.441c-0.040 0-0.073 0.033-0.073 0.074v1.177c0 0.040 0.033 0.074 0.073 0.074zM18.384 12.691h0.294v1.030h-0.294v-1.030zM12.507 15.779c0 0.112 0.091 0.202 0.202 0.202s0.202-0.091 0.202-0.202c0-0.112-0.091-0.202-0.202-0.202-0.112 0-0.202 0.091-0.202 0.202zM13.225 15.779c0 0 0 0 0 0 0 0.112 0.091 0.202 0.202 0.202 0.112 0 0.202-0.091 0.202-0.202 0 0 0 0 0 0 0 0 0 0 0 0 0-0.112-0.091-0.202-0.202-0.202-0.112 0-0.202 0.091-0.202 0.202 0 0 0 0 0 0zM19.194 16.369h0.441c0.041 0 0.074-0.033 0.074-0.074v-1.177c0-0.040-0.033-0.074-0.074-0.074l-0.441 0c-0.041 0-0.074 0.033-0.074 0.074v1.177c0 0.041 0.033 0.073 0.074 0.073zM19.267 15.192h0.294v1.030h-0.294v-1.030zM18.311 16.369h0.441c0.041 0 0.073-0.033 0.073-0.074v-1.177c0-0.040-0.033-0.074-0.073-0.074h-0.441c-0.040 0-0.073 0.033-0.073 0.074v1.177c0 0.041 0.033 0.074 0.073 0.074zM18.384 15.192h0.294v1.030h-0.294v-1.030zM12.507 18.133c0 0.112 0.091 0.202 0.202 0.202s0.202-0.091 0.202-0.202c0-0.112-0.091-0.202-0.202-0.202-0.112 0-0.202 0.091-0.202 0.202zM13.225 18.133c0 0 0 0 0 0 0 0.112 0.091 0.202 0.202 0.202 0.112 0 0.202-0.091 0.202-0.202 0 0 0 0 0 0 0 0 0 0 0 0 0-0.112-0.091-0.202-0.202-0.202-0.112 0-0.202 0.091-0.202 0.202s0 0 0 0zM19.194 18.722h0.441c0.041 0 0.074-0.033 0.074-0.073v-1.177c0-0.041-0.033-0.074-0.074-0.074l-0.441 0c-0.041 0-0.074 0.033-0.074 0.074v1.177c0 0.040 0.033 0.073 0.074 0.073zM19.267 17.546h0.294v1.030l-0.294-0v-1.029zM18.311 18.722h0.441c0.041 0 0.073-0.033 0.073-0.073v-1.177c0-0.041-0.033-0.074-0.073-0.074h-0.441c-0.040 0-0.073 0.033-0.073 0.074v1.177c0 0.040 0.033 0.073 0.073 0.073zM18.384 17.546h0.294v1.030h-0.294v-1.030zM12.507 20.634c0 0.112 0.091 0.202 0.202 0.202s0.202-0.091 0.202-0.202c0-0.112-0.091-0.202-0.202-0.202-0.112 0-0.202 0.091-0.202 0.202zM13.225 20.634c0 0 0 0 0 0 0 0.112 0.091 0.202 0.202 0.202 0.112 0 0.202-0.091 0.202-0.202 0 0 0 0 0 0 0 0 0 0 0 0 0-0.112-0.091-0.202-0.202-0.202-0.112 0-0.202 0.091-0.202 0.202s0 0 0 0zM19.194 21.223h0.441c0.041 0 0.074-0.033 0.074-0.074v-1.177c0-0.040-0.033-0.073-0.074-0.073l-0.441-0c-0.041 0-0.074 0.033-0.074 0.073v1.177c0 0.041 0.033 0.074 0.074 0.074zM19.267 20.046h0.294v1.030l-0.294 0v-1.030zM18.311 21.223h0.441c0.041 0 0.073-0.033 0.073-0.074v-1.177c0-0.040-0.033-0.073-0.073-0.073h-0.441c-0.040 0-0.073 0.033-0.073 0.073v1.177c0 0.041 0.033 0.074 0.073 0.074zM18.384 20.046h0.294v1.030h-0.294v-1.030zM20.893 13.278c0 0.112 0.091 0.202 0.202 0.202s0.202-0.091 0.202-0.202c0-0.112-0.091-0.202-0.202-0.202-0.112 0-0.202 0.091-0.202 0.202zM21.611 13.278c0 0 0 0 0 0 0 0.112 0.091 0.202 0.202 0.202 0.112 0 0.202-0.091 0.202-0.202 0 0 0 0 0 0 0 0 0 0 0 0 0-0.112-0.091-0.202-0.202-0.202-0.112 0-0.202 0.091-0.202 0.202s0 0 0 0zM27.579 13.868h0.441c0.041 0 0.074-0.033 0.074-0.074v-1.177c0-0.040-0.033-0.074-0.074-0.074h-0.441c-0.041 0-0.074 0.033-0.074 0.074v1.177c-0 0.040 0.033 0.074 0.074 0.074zM27.653 12.691h0.294v1.030h-0.294v-1.030zM26.697 13.868h0.441c0.040 0 0.073-0.033 0.073-0.074v-1.177c0-0.040-0.033-0.074-0.073-0.074h-0.441c-0.041 0-0.074 0.033-0.074 0.074v1.177c-0 0.040 0.033 0.074 0.074 0.074zM26.77 12.691h0.294v1.030h-0.294v-1.030zM20.893 15.779c0 0.112 0.091 0.202 0.202 0.202s0.202-0.091 0.202-0.202c0-0.112-0.091-0.202-0.202-0.202-0.112 0-0.202 0.091-0.202 0.202zM21.611 15.779c0 0 0 0 0 0 0 0.112 0.091 0.202 0.202 0.202 0.112 0 0.202-0.091 0.202-0.202 0 0 0 0 0 0 0 0 0 0 0 0 0-0.112-0.091-0.202-0.202-0.202-0.112 0-0.202 0.091-0.202 0.202 0 0 0 0 0 0zM27.579 16.369h0.441c0.041 0 0.074-0.033 0.074-0.074v-1.177c0-0.040-0.033-0.074-0.074-0.074h-0.441c-0.041 0-0.074 0.033-0.074 0.074v1.177c-0 0.041 0.033 0.074 0.074 0.074zM27.653 15.192h0.294v1.030h-0.294v-1.030zM26.697 16.369h0.441c0.040 0 0.073-0.033 0.073-0.074v-1.177c0-0.040-0.033-0.074-0.073-0.074h-0.441c-0.041 0-0.074 0.033-0.074 0.074v1.177c-0 0.041 0.033 0.074 0.074 0.074zM26.77 15.192h0.294v1.030h-0.294v-1.030zM20.893 18.133c0 0.112 0.091 0.202 0.202 0.202s0.202-0.091 0.202-0.202c0-0.112-0.091-0.202-0.202-0.202-0.112 0-0.202 0.091-0.202 0.202zM21.611 18.133c0 0 0 0 0 0 0 0.112 0.091 0.202 0.202 0.202 0.112 0 0.202-0.091 0.202-0.202 0 0 0 0 0 0 0 0 0 0 0 0 0-0.112-0.091-0.202-0.202-0.202-0.112 0-0.202 0.091-0.202 0.202s0 0 0 0zM27.579 18.722h0.441c0.041 0 0.074-0.033 0.074-0.073v-1.177c0-0.041-0.033-0.074-0.074-0.074h-0.441c-0.041 0-0.074 0.033-0.074 0.074v1.177c-0 0.040 0.033 0.073 0.074 0.073zM27.653 17.546h0.294v1.030h-0.294v-1.030zM26.697 18.722h0.441c0.040 0 0.073-0.033 0.073-0.073v-1.177c0-0.041-0.033-0.074-0.073-0.074h-0.441c-0.041 0-0.074 0.033-0.074 0.074v1.177c-0 0.040 0.033 0.073 0.074 0.073zM26.77 17.546h0.294v1.030h-0.294v-1.030zM20.893 20.634c0 0.112 0.091 0.202 0.202 0.202s0.202-0.091 0.202-0.202c0-0.112-0.091-0.202-0.202-0.202-0.112 0-0.202 0.091-0.202 0.202zM21.611 20.634c0 0 0 0 0 0 0 0.112 0.091 0.202 0.202 0.202 0.112 0 0.202-0.091 0.202-0.202 0 0 0 0 0 0 0 0 0 0 0 0 0-0.112-0.091-0.202-0.202-0.202-0.112 0-0.202 0.091-0.202 0.202s0 0 0 0zM27.579 21.223h0.441c0.041 0 0.074-0.033 0.074-0.074v-1.177c0-0.040-0.033-0.073-0.074-0.073h-0.441c-0.041 0-0.074 0.033-0.074 0.073v1.177c-0 0.041 0.033 0.074 0.074 0.074zM27.653 20.046h0.294v1.030h-0.294v-1.030zM26.697 21.223h0.441c0.040 0 0.073-0.033 0.073-0.074v-1.177c0-0.040-0.033-0.073-0.073-0.073h-0.441c-0.041 0-0.074 0.033-0.074 0.073v1.177c-0 0.041 0.033 0.074 0.074 0.074zM26.77 20.046h0.294v1.030h-0.294v-1.030z" fill="#000000" />
</svg>
