<?xml version="1.0" encoding="utf-8"?>
<!-- Generated by IcoMoon.io -->
<!DOCTYPE svg PUBLIC "-//W3C//DTD SVG 1.1//EN" "http://www.w3.org/Graphics/SVG/1.1/DTD/svg11.dtd">
<svg version="1.1" xmlns="http://www.w3.org/2000/svg" xmlns:xlink="http://www.w3.org/1999/xlink" width="32" height="32" viewBox="0 0 32 32">
<g>
</g>
	<path d="M18.009 18.159c-0.17-0.127-0.356-0.145-0.495-0.052-0.166 0.111-0.223 0.288-0.148 0.457l0.399 1.297c-2.791-0.002-4.964-0.771-6.46-2.284-2.019-2.042-2.17-4.842-2.179-5.393-0.001-0.034-0.001-0.067-0.001-0.102l-0.418-0.006c-0.001 0.018-0.002 0.084 0.001 0.194 0.033 3.676 1.044 6.399 3.006 8.096 1.889 1.634 4.161 1.891 5.407 1.891 0.259 0 0.472-0.011 0.63-0.023l-0.386 1.257c-0.074 0.168-0.018 0.346 0.148 0.456 0.058 0.039 0.126 0.059 0.198 0.059 0.098 0 0.198-0.038 0.306-0.118l3.263-2.7c0.048-0.040 0.076-0.098 0.076-0.161 0-0.062-0.028-0.121-0.076-0.161l-3.271-2.706zM17.789 23.534l0.454-1.479c0.019-0.061 0.008-0.128-0.028-0.181s-0.095-0.086-0.159-0.090l-0.058 0.004c-0.004 0-0.006-0.001-0.010-0.001-0.001 0-0.008 0.001-0.019 0.002l-0.592 0.039c-1.102 0.027-3.487-0.134-5.393-1.784-1.204-1.043-2.032-2.503-2.476-4.362 0.338 0.736 0.816 1.495 1.495 2.183 1.624 1.646 3.982 2.459 7.018 2.413 0.037-0.001 0.070-0.013 0.1-0.031 0.037-0.015 0.071-0.037 0.094-0.070 0.037-0.053 0.047-0.119 0.028-0.18l-0.454-1.478 3.030 2.507-3.030 2.507zM25.171 19.751c-0.033-3.676-1.044-6.399-3.007-8.096-2.28-1.971-5.118-1.938-6.036-1.868l0.386-1.257c0.074-0.168 0.018-0.346-0.148-0.456-0.058-0.039-0.126-0.059-0.198-0.059-0.098 0-0.198 0.038-0.306 0.118l-3.263 2.7c-0.048 0.040-0.076 0.099-0.076 0.162 0 0.062 0.028 0.121 0.076 0.161l3.271 2.706c0.17 0.127 0.356 0.145 0.494 0.052 0.166-0.111 0.223-0.288 0.149-0.457l-0.399-1.297c2.79 0.002 4.964 0.77 6.46 2.285 2.019 2.042 2.169 4.841 2.178 5.392 0 0.034 0 0.068 0 0.102l0.418 0.006c0.002-0.018 0.003-0.085 0-0.194zM22.876 14.154c-1.624-1.646-3.985-2.46-7.018-2.413-0.037 0.001-0.070 0.013-0.1 0.031-0.038 0.015-0.071 0.037-0.094 0.070-0.037 0.053-0.047 0.119-0.028 0.18l0.454 1.478-3.030-2.507 3.030-2.508-0.454 1.479c-0.019 0.061-0.008 0.128 0.028 0.18s0.095 0.086 0.159 0.090l0.057-0.004c0.004-0 0.007 0.001 0.011 0.001 0.001 0 0.009-0.001 0.020-0.003l0.605-0.039c1.107-0.026 3.474 0.138 5.374 1.781 1.206 1.043 2.035 2.505 2.479 4.366-0.337-0.736-0.816-1.495-1.495-2.183z" fill="#000000" />
</svg>
