<?xml version="1.0" encoding="utf-8"?>
<!-- Generated by IcoMoon.io -->
<!DOCTYPE svg PUBLIC "-//W3C//DTD SVG 1.1//EN" "http://www.w3.org/Graphics/SVG/1.1/DTD/svg11.dtd">
<svg version="1.1" xmlns="http://www.w3.org/2000/svg" xmlns:xlink="http://www.w3.org/1999/xlink" width="32" height="32" viewBox="0 0 32 32">
<g>
</g>
	<path d="M27.374 21.692l-4.275-4.678c0.008-0.022 0.037-0.036 0.061-0.044 0.253-0.079 0.717-0.214 1.031-0.301l2.868-0.794c0.098-0.027 0.395-0.11 0.385-0.353-0.010-0.244-0.313-0.302-0.412-0.322l-3.028-0.584c-0.299-0.058-0.699-0.136-0.937-0.185l4.045-4.54c0.258-0.289 0.2-0.5 0.142-0.6-0.058-0.1-0.211-0.257-0.59-0.178l-6.149 1.273c-0.005-0.020-0.006-0.050 0.013-0.106 0.103-0.293 0.263-0.793 0.358-1.113l0.785-2.661c0.060-0.205 0.054-0.347-0.020-0.447-0.051-0.067-0.129-0.106-0.214-0.106-0.112 0-0.227 0.063-0.363 0.2l-2.066 2.087c-0.233 0.235-0.581 0.604-0.776 0.822-0.028 0.031-0.048 0.042-0.064 0.047l-1.928-5.829c-0.121-0.367-0.334-0.423-0.449-0.423-0.115 0-0.327 0.055-0.449 0.422l-2.005 6.060c-0.16-0.163-0.466-0.492-0.684-0.733l-2.037-2.254c-0.134-0.148-0.25-0.218-0.364-0.218-0.082 0-0.157 0.037-0.207 0.102-0.074 0.096-0.083 0.236-0.029 0.441l1.035 3.909-5.979-1.239c-0.379-0.079-0.532 0.077-0.591 0.178-0.058 0.1-0.116 0.311 0.142 0.6l4.153 4.664c-0.209 0.048-0.56 0.133-0.84 0.202l-2.974 0.732c-0.263 0.065-0.396 0.181-0.397 0.344 0 0.163 0.134 0.279 0.396 0.344l2.957 0.732c0.314 0.077 0.75 0.186 0.992 0.245l-4.149 4.657c-0.257 0.289-0.199 0.501-0.141 0.6 0.046 0.081 0.157 0.199 0.399 0.199 0.057 0 0.12-0.006 0.192-0.021l6.123-1.268c-0.063 0.203-0.166 0.543-0.249 0.817l-0.909 3.035c-0.061 0.206-0.056 0.347 0.018 0.446 0.050 0.067 0.126 0.105 0.211 0.105 0.112 0 0.226-0.065 0.362-0.204l2.131-2.193c0.229-0.235 0.571-0.586 0.762-0.781 0.027-0.027 0.048-0.037 0.060-0.038l1.975 5.974c0.122 0.368 0.334 0.423 0.449 0.423s0.327-0.055 0.449-0.423l2.001-6.050c0.004-0 0.009-0.003 0.012-0.002l2.908 2.891c0.136 0.135 0.25 0.198 0.36 0.198 0.085 0 0.163-0.039 0.212-0.107 0.096-0.132 0.050-0.319 0.008-0.449l-0.944-2.887c-0.102-0.31-0.241-0.756-0.311-0.991-0.005-0.017-0.004-0.022-0.003-0.027l6.098 1.181c0.068 0.013 0.128 0.019 0.183 0.019 0.249 0 0.359-0.121 0.406-0.204 0.058-0.101 0.114-0.313-0.147-0.599zM23.927 15.023l2.747 0.53-2.592 0.718c-0.318 0.087-0.787 0.224-1.043 0.304-0.078 0.024-0.144 0.063-0.199 0.112 0.022-0.226 0.034-0.456 0.034-0.688 0-0.43-0.042-0.85-0.118-1.258 0.052 0.043 0.117 0.074 0.191 0.089 0.216 0.043 0.658 0.13 0.98 0.193zM26.542 9.702l-3.933 4.415c-0.355-1.242-1.050-2.343-1.978-3.191l5.912-1.224zM18.297 9.504c0.076-0.025 0.16-0.071 0.242-0.164 0.191-0.214 0.533-0.576 0.762-0.807l1.909-1.927-0.721 2.446c-0.093 0.315-0.25 0.806-0.352 1.093-0.041 0.116-0.046 0.226-0.027 0.326l-0.019 0.004 0.002 0.008c-0.55-0.409-1.162-0.736-1.821-0.966l0.026-0.009-0.001-0.003zM15.79 3.682l1.87 5.65c-0.531-0.132-1.086-0.203-1.657-0.203-0.742 0-1.456 0.12-2.126 0.338l1.914-5.785zM10.48 6.823l1.866 2.063c0.221 0.245 0.533 0.58 0.696 0.746 0.044 0.045 0.094 0.079 0.146 0.102-0.614 0.277-1.179 0.64-1.681 1.076 0.007-0.044 0.006-0.091-0.006-0.138l-1.020-3.849zM5.191 9.939l5.93 1.229c-0.902 0.911-1.552 2.073-1.833 3.371l-4.097-4.6zM9.216 14.917c-0.001 0.003-0.001 0.006-0.002 0.009 0.001-0.003 0-0.006 0.001-0.008l0.001-0.001zM8.016 16.742l-2.722-0.674 2.738-0.674c0.317-0.078 0.728-0.177 0.913-0.219 0.13-0.030 0.226-0.115 0.266-0.235-0.054 0.345-0.082 0.698-0.082 1.058 0 0.38 0.032 0.753 0.092 1.117-0.056-0.059-0.128-0.105-0.217-0.127-0.226-0.058-0.671-0.168-0.989-0.247zM5.331 22.236l4.018-4.512c0.33 1.272 1.017 2.402 1.947 3.277l-5.965 1.235zM13.364 22.492c-0.191 0.195-0.534 0.547-0.762 0.782l-1.959 2.014 0.838-2.796c0.094-0.313 0.217-0.716 0.273-0.896 0.021-0.067 0.022-0.133 0.008-0.195 0.522 0.41 1.103 0.747 1.73 0.993-0.045 0.026-0.089 0.057-0.128 0.098zM16.145 28.319l-1.874-5.668c0.554 0.144 1.133 0.221 1.731 0.221 0.713 0 1.4-0.109 2.048-0.312l-1.905 5.758zM21.62 25.077l-2.721-2.704c-0.038-0.038-0.080-0.066-0.123-0.089 0.6-0.265 1.154-0.614 1.65-1.031-0.006 0.059-0.001 0.122 0.018 0.186 0.070 0.238 0.211 0.689 0.314 1.002l0.862 2.636zM16.002 22.458c-3.561 0-6.457-2.897-6.457-6.458 0-3.56 2.897-6.457 6.457-6.457 3.561 0 6.458 2.897 6.458 6.457-0 3.561-2.897 6.458-6.458 6.458zM20.955 20.755c0.873-0.909 1.499-2.055 1.769-3.333l4.082 4.466-5.851-1.133z" fill="#000000" />
</svg>
