<?xml version="1.0" encoding="utf-8"?>
<!-- Generated by IcoMoon.io -->
<!DOCTYPE svg PUBLIC "-//W3C//DTD SVG 1.1//EN" "http://www.w3.org/Graphics/SVG/1.1/DTD/svg11.dtd">
<svg version="1.1" xmlns="http://www.w3.org/2000/svg" xmlns:xlink="http://www.w3.org/1999/xlink" width="32" height="32" viewBox="0 0 32 32">
<g>
</g>
	<path d="M27.696 21.339l-11.302-16.324c-0.004-0.006-0.011-0.007-0.015-0.013-0.056-0.071-0.139-0.12-0.237-0.12s-0.181 0.049-0.237 0.12c-0.004 0.005-0.011 0.007-0.015 0.013l-11.302 16.324c-0.049 0.071-0.066 0.16-0.046 0.244s0.074 0.156 0.15 0.198l11.302 6.279c0.006 0.004 0.013 0.005 0.020 0.008 0.007 0.004 0.015 0.006 0.023 0.009 0.034 0.013 0.070 0.022 0.106 0.022s0.072-0.009 0.107-0.022c0.007-0.003 0.015-0.006 0.022-0.009 0.006-0.003 0.014-0.005 0.020-0.008l11.302-6.279c0.076-0.042 0.13-0.114 0.15-0.198 0.019-0.084 0.002-0.173-0.047-0.244zM15.836 6.17l-0 21.101-10.55-5.861 10.55-15.24zM16.448 27.271l0-21.101 10.55 15.24-10.551 5.861z" fill="#000000" />
</svg>
