<?xml version="1.0" encoding="utf-8"?>
<!-- Generated by IcoMoon.io -->
<!DOCTYPE svg PUBLIC "-//W3C//DTD SVG 1.1//EN" "http://www.w3.org/Graphics/SVG/1.1/DTD/svg11.dtd">
<svg version="1.1" xmlns="http://www.w3.org/2000/svg" xmlns:xlink="http://www.w3.org/1999/xlink" width="32" height="32" viewBox="0 0 32 32">
<g>
</g>
	<path d="M22.125 14.768c-0.127 0-0.23 0.103-0.23 0.23v3.744c0 0.127 0.103 0.23 0.23 0.23s0.23-0.103 0.23-0.23l0-3.743c0-0.127-0.103-0.23-0.23-0.23zM23.144 14.768c-0.127 0-0.23 0.103-0.23 0.23v3.744c0 0.127 0.103 0.23 0.23 0.23s0.23-0.103 0.23-0.23v-3.743c0-0.127-0.103-0.23-0.23-0.23zM16 5.987c-5.521 0-10.013 4.492-10.013 10.013 0 5.521 4.492 10.013 10.013 10.013s10.013-4.492 10.013-10.013c0-5.521-4.492-10.013-10.013-10.013zM16 25.246c-5.098 0-9.246-4.147-9.246-9.246 0-2.438 0.95-4.658 2.498-6.312l5.086 5.080-6.030-0c-0.127 0-0.23 0.103-0.23 0.23 0 0.127 0.103 0.23 0.23 0.23h6.49l3.288 3.284-9.438 0c-0.127 0-0.23 0.103-0.23 0.23s0.103 0.23 0.23 0.23h9.898l3.774 3.769c-1.654 1.553-3.878 2.506-6.321 2.506zM15.882 15.228h4.949v3.284h-1.661l-3.288-3.284zM22.858 22.194l-3.228-3.223h1.43c0.127 0 0.23-0.103 0.23-0.23l0-3.743c0-0.127-0.103-0.23-0.23-0.23l-5.64-0-5.625-5.618c1.642-1.488 3.819-2.396 6.204-2.396 5.098 0 9.246 4.148 9.246 9.246 0 2.381-0.905 4.554-2.388 6.194zM23.081 14.158c0.127 0 0.23-0.103 0.23-0.23 0-0.271-0.083-0.491-0.247-0.654-0.252-0.251-0.596-0.26-0.642-0.26h-4.678c0 0-0.197-0.005-0.319-0.126-0.075-0.075-0.112-0.182-0.112-0.329 0-0.414 0.332-0.452 0.432-0.454h2.325c0.358 0 0.891-0.244 0.891-0.915s-0.533-0.914-0.891-0.914h-4.399c-0.003 0-0.197-0.005-0.319-0.126-0.075-0.074-0.112-0.182-0.112-0.328 0-0.127-0.103-0.23-0.23-0.23s-0.23 0.103-0.23 0.23c0 0.271 0.083 0.491 0.247 0.654 0.253 0.252 0.597 0.26 0.642 0.26h4.398c0.102 0.002 0.434 0.040 0.434 0.454s-0.332 0.453-0.432 0.455h-2.325c-0.358 0-0.891 0.244-0.891 0.914 0 0.271 0.083 0.492 0.247 0.655 0.253 0.251 0.597 0.261 0.642 0.261h4.677c0.102 0.001 0.432 0.038 0.432 0.454-0.001 0.127 0.102 0.23 0.229 0.23z" fill="#000000" />
</svg>
