<?xml version="1.0" encoding="utf-8"?>
<!-- Generated by IcoMoon.io -->
<!DOCTYPE svg PUBLIC "-//W3C//DTD SVG 1.1//EN" "http://www.w3.org/Graphics/SVG/1.1/DTD/svg11.dtd">
<svg version="1.1" xmlns="http://www.w3.org/2000/svg" xmlns:xlink="http://www.w3.org/1999/xlink" width="32" height="32" viewBox="0 0 32 32">
<g>
</g>
	<path d="M15.528 10.528c2.346 0 4.255-1.909 4.255-4.255 0-2.346-1.909-4.254-4.255-4.254-2.346 0-4.255 1.909-4.255 4.254 0 2.346 1.909 4.255 4.255 4.255zM15.528 2.631c2.008 0 3.642 1.634 3.642 3.641 0 2.009-1.634 3.642-3.642 3.642-2.008 0-3.642-1.634-3.642-3.642-0-2.008 1.634-3.641 3.642-3.641zM17.862 11.353h-4.667c-4.338 0-6.726 2.389-6.726 6.726v3.747c0 2.124 1.411 3.162 2.906 4.261l0.198 0.146v1.399c0 0.075 0.027 0.147 0.077 0.203 0.292 0.331 1.579 1.413 5.88 1.413 4.3 0 5.587-1.082 5.88-1.413 0.049-0.056 0.077-0.128 0.077-0.203v-1.399l0.196-0.145c1.495-1.099 2.908-2.137 2.908-4.262l-0-3.747c-0-4.338-2.389-6.726-6.727-6.726zM23.975 21.826c0 1.814-1.23 2.719-2.655 3.767v-8.114c0-0.148-0.12-0.268-0.268-0.268-0.148 0-0.268 0.12-0.268 0.268v10.101c-0.44 0.346-1.768 1.055-5.255 1.055-3.616 0-4.91-0.762-5.3-1.091 0.007-0.024 0.015-0.048 0.015-0.075l0-9.99c0-0.148-0.12-0.268-0.268-0.268s-0.268 0.12-0.268 0.268v8.092c-1.412-1.039-2.626-1.944-2.626-3.745l0-3.747c0-2.789 1.061-6.113 6.113-6.113h4.667c5.053 0 6.114 3.324 6.114 6.113l-0 3.747zM19.332 16.78h-2.657c-0.131 0-0.238 0.107-0.238 0.238v2.338c0 0.097 0.059 0.184 0.149 0.22l1.328 0.538c0.029 0.011 0.059 0.018 0.089 0.018s0.060-0.006 0.089-0.018l1.328-0.538c0.090-0.036 0.148-0.123 0.148-0.22v-2.338c0.001-0.131-0.106-0.238-0.237-0.238zM19.095 19.195l-1.091 0.441-1.090-0.441v-1.94h2.181l-0 1.94z" fill="#000000" />
</svg>
