<?xml version="1.0" encoding="utf-8"?>
<!-- Generated by IcoMoon.io -->
<!DOCTYPE svg PUBLIC "-//W3C//DTD SVG 1.1//EN" "http://www.w3.org/Graphics/SVG/1.1/DTD/svg11.dtd">
<svg version="1.1" xmlns="http://www.w3.org/2000/svg" xmlns:xlink="http://www.w3.org/1999/xlink" width="32" height="32" viewBox="0 0 32 32">
<g>
</g>
	<path d="M27.281 15.551c-0.019-0.083-0.071-0.156-0.144-0.201l-6.524-4.061-5.55-6.234c-0.088-0.098-0.236-0.107-0.335-0.021l-1.762 1.534-1.474-0.914c-0.15-0.094-0.347-0.048-0.441 0.102l-3.497 5.526-1.982 1.726c-0.048 0.041-0.077 0.101-0.082 0.165-0.004 0.063 0.018 0.126 0.060 0.173l0.417 0.469-1.242 1.969c-0.046 0.072-0.061 0.16-0.041 0.244 0.019 0.084 0.071 0.156 0.144 0.201l7.293 4.498 5.487 6.162c0.047 0.053 0.113 0.080 0.178 0.080 0.056 0 0.111-0.019 0.157-0.058l1.714-1.493 0.816 0.506c0.053 0.033 0.112 0.048 0.169 0.048 0.107 0 0.211-0.053 0.273-0.15l2.122-3.349 4.062-3.538c0.048-0.042 0.077-0.101 0.082-0.165 0.004-0.063-0.018-0.126-0.060-0.174l-0.965-1.083 1.084-1.719c0.045-0.073 0.060-0.161 0.041-0.244zM11.424 6.37l1.034 0.641-3.193 2.781 2.159-3.422zM5.442 15.854l0.97-1.538 4.246 4.77-5.216-3.232zM20.54 25.21l-0.377-0.234 1.163-1.013-0.786 1.247zM17.807 26.398l-11.741-13.186 8.797-7.662 5.846 6.565 0.006 0.013 0.014 0.008 5.877 6.6-8.797 7.663zM25.71 17.014l-3.559-3.997 4.371 2.708-0.812 1.289zM15.736 10.817c-0.087-0.098-0.236-0.107-0.334-0.021l-4.033 3.513c-0.048 0.042-0.077 0.101-0.081 0.164-0.004 0.064 0.018 0.126 0.060 0.174l3.863 4.341c0.087 0.098 0.236 0.107 0.334 0.021l0.941-0.819 1.66 1.865c0.047 0.053 0.113 0.080 0.178 0.080 0.056 0 0.111-0.019 0.157-0.058l2.915-2.54c0.047-0.042 0.077-0.101 0.082-0.165 0.004-0.063-0.018-0.126-0.060-0.174l-5.681-6.381zM18.346 19.561l-1.66-1.865c-0.047-0.053-0.113-0.080-0.178-0.080-0.056 0-0.111 0.019-0.157 0.058l-0.941 0.819-3.546-3.984 3.673-3.199 5.364 6.024-2.555 2.226zM22.95 19.228c0.023 0.026 0.056 0.040 0.089 0.040 0.028 0 0.057-0.010 0.079-0.030 0.049-0.044 0.054-0.119 0.010-0.168l-1.296-1.456c-0.043-0.049-0.119-0.054-0.169-0.010-0.049 0.044-0.054 0.119-0.010 0.168l1.297 1.456zM21.932 17.082c0.028 0 0.056-0.010 0.078-0.030l0.914-0.796c0.049-0.043 0.055-0.119 0.011-0.168-0.043-0.049-0.118-0.055-0.168-0.011l-0.914 0.796c-0.049 0.043-0.055 0.119-0.011 0.168 0.024 0.028 0.056 0.041 0.090 0.041zM15.301 10.637c0.023 0.026 0.056 0.040 0.089 0.040 0.028 0 0.057-0.010 0.079-0.030 0.049-0.043 0.054-0.119 0.010-0.168l-1.297-1.457c-0.043-0.049-0.119-0.054-0.168-0.010-0.049 0.044-0.054 0.119-0.010 0.168l1.297 1.457zM11.331 14.092l-1.298-1.458c-0.043-0.049-0.119-0.054-0.168-0.010-0.049 0.044-0.054 0.119-0.010 0.168l1.298 1.458c0.023 0.026 0.056 0.040 0.089 0.040 0.028 0 0.057-0.010 0.079-0.030 0.049-0.044 0.054-0.119 0.010-0.168zM16.145 10.583c0.028 0 0.056-0.010 0.078-0.030l0.914-0.797c0.049-0.043 0.055-0.119 0.011-0.168-0.043-0.049-0.118-0.055-0.168-0.011l-0.914 0.797c-0.049 0.043-0.055 0.119-0.011 0.168 0.024 0.027 0.057 0.041 0.090 0.041zM18.687 20.353c-0.043-0.049-0.119-0.054-0.168-0.010-0.049 0.044-0.054 0.119-0.010 0.168l1.297 1.456c0.023 0.026 0.056 0.040 0.089 0.040 0.028 0 0.057-0.010 0.079-0.030 0.049-0.044 0.054-0.119 0.010-0.168l-1.297-1.456zM17.917 20.304l-0.915 0.796c-0.050 0.043-0.055 0.118-0.012 0.168 0.023 0.027 0.057 0.041 0.090 0.041 0.028 0 0.056-0.010 0.078-0.030l0.915-0.796c0.050-0.043 0.055-0.118 0.012-0.168-0.043-0.049-0.119-0.054-0.168-0.011zM14.881 19.113l-0.915 0.797c-0.050 0.043-0.055 0.119-0.012 0.168 0.023 0.027 0.057 0.041 0.090 0.041 0.028 0 0.056-0.010 0.078-0.030l0.915-0.797c0.050-0.043 0.055-0.119 0.012-0.168-0.043-0.049-0.118-0.054-0.168-0.011zM11.015 14.772l-0.914 0.797c-0.049 0.043-0.055 0.119-0.011 0.168 0.024 0.027 0.057 0.041 0.090 0.041 0.028 0 0.056-0.010 0.078-0.030l0.914-0.797c0.049-0.043 0.055-0.119 0.011-0.168-0.043-0.049-0.117-0.054-0.168-0.011z" fill="#000000" />
</svg>
