<?xml version="1.0" encoding="utf-8"?>
<!-- Generated by IcoMoon.io -->
<!DOCTYPE svg PUBLIC "-//W3C//DTD SVG 1.1//EN" "http://www.w3.org/Graphics/SVG/1.1/DTD/svg11.dtd">
<svg version="1.1" xmlns="http://www.w3.org/2000/svg" xmlns:xlink="http://www.w3.org/1999/xlink" width="32" height="32" viewBox="0 0 32 32">
<g>
</g>
	<path d="M7.859 20.604c-0.591 0-1.072 0.481-1.072 1.073s0.481 1.072 1.072 1.072c0.592 0 1.072-0.481 1.072-1.072-0-0.591-0.481-1.073-1.072-1.073zM7.859 22.419c-0.41 0-0.742-0.333-0.742-0.742s0.333-0.742 0.742-0.742 0.742 0.333 0.742 0.742-0.333 0.742-0.742 0.742zM24.643 20.604c-0.592 0-1.072 0.481-1.072 1.073s0.481 1.072 1.072 1.072c0.591 0 1.072-0.481 1.072-1.072 0-0.591-0.481-1.073-1.072-1.073zM24.643 22.419c-0.41 0-0.742-0.333-0.742-0.742s0.333-0.742 0.742-0.742 0.742 0.333 0.742 0.742-0.333 0.742-0.742 0.742zM30.406 16.351l-0.21-0.316c-0.458-1.608-0.998-2.704-1.014-2.735-0.36-0.881-0.976-1.073-1.225-1.115l-0.446-0.486c-0.95-1.064-2.847-1.25-2.929-1.25-0.127 0-0.23 0.103-0.23 0.23v7.392h-0.415l-0-9.834c0-0.127-0.103-0.23-0.23-0.23h-21.15c-0.127 0-0.23 0.103-0.23 0.23v10.513l-0.357-0c-0.309 0-0.56 0.251-0.56 0.56v0.264c0 0.341 0.22 0.56 0.56 0.56h4.167c-0.368 0.41-0.594 0.95-0.594 1.543 0 1.277 1.039 2.316 2.316 2.316s2.317-1.039 2.317-2.316c0-0.25-0.041-0.491-0.115-0.717h5.499v0.374c0 0.434 0.353 0.787 0.787 0.787l4.551-0c0.434 0 0.787-0.353 0.787-0.787v-0.374h0.757c-0.074 0.226-0.115 0.466-0.115 0.717 0 1.277 1.039 2.316 2.316 2.316s2.316-1.039 2.316-2.316c0-0.25-0.041-0.491-0.115-0.717h0.582c0.093 0.38 0.081 0.671 0.081 0.677-0.005 0.064 0.018 0.126 0.061 0.173 0.043 0.047 0.104 0.074 0.168 0.074h2.050c0.59 0 0.805-0.507 0.805-0.847l0-4.119c-0-0.324-0.123-0.499-0.186-0.567zM23.477 8.467v10.217h-20.69v-2.979h14.192l-0.205 1.078c-0.036 0.284-0.008 0.364 0.172 0.483 0.074 0.050 0.276 0.142 0.559-0.069l4.030-3.335c0.047-0.039 0.074-0.098 0.074-0.159s-0.028-0.12-0.074-0.159l-4.039-3.342c-0.274-0.206-0.477-0.114-0.552-0.064-0.181 0.121-0.198 0.288-0.171 0.487l0.197 1.182-14.185 0v-3.341h20.69zM17.409 12.008c0.004-0.022 0.006-0.043 0.003-0.066l-0.234-1.406c-0.002-0.015-0.007-0.033-0.014-0.048 0.010 0.002 0.037 0.008 0.078 0.039l3.838 3.177-3.83 3.17c-0.050 0.038-0.080 0.044-0.080 0.048-0.002-0.002-0.004-0.003-0.006-0.004 0.007-0.017 0.012-0.035 0.014-0.053l0.237-1.327c0.008-0.058-0.010-0.118-0.050-0.162-0.039-0.044-0.096-0.081-0.154-0.081l-14.424 0v-3.052h14.409c0.12 0 0.216-0.097 0.216-0.216 0-0.006-0.003-0.010-0.003-0.016zM7.859 23.498c-1.004 0-1.821-0.817-1.821-1.821 0-1.004 0.817-1.822 1.821-1.822 1.004 0 1.821 0.817 1.821 1.822 0 1.004-0.817 1.821-1.821 1.821zM21.302 20.501v0.834c0 0.223-0.182 0.404-0.404 0.404l-4.551-0c-0.223 0-0.404-0.181-0.404-0.404v-0.901c0-0.223 0.182-0.404 0.404-0.404l4.551 0c0.222 0 0.404 0.182 0.404 0.404v0.067zM24.643 23.498c-1.004 0-1.821-0.817-1.821-1.821 0-1.004 0.817-1.822 1.821-1.822s1.821 0.817 1.821 1.822c0 1.004-0.817 1.821-1.821 1.821zM26.635 20.501c-0.403-0.681-1.144-1.14-1.992-1.14s-1.588 0.459-1.992 1.14h-0.966v-0.067c0-0.434-0.353-0.787-0.787-0.787l-4.551-0c-0.434 0-0.787 0.354-0.787 0.787v0.067l-5.709 0c-0.403-0.681-1.144-1.14-1.992-1.14-0.475 0-0.917 0.144-1.284 0.39h-4.605c-0.155 0-0.177-0.085-0.177-0.177v-0.264c0-0.098 0.079-0.177 0.177-0.177l0.534 0c0.018 0.004 0.034 0.011 0.053 0.011h21.15c0.127 0 0.23-0.103 0.23-0.23v-0.383h0.415v0.348c0 0.127 0.102 0.23 0.23 0.23h0.536c0.774 0 1.343 0.343 1.749 0.779 0.18 0.194 0.309 0.406 0.402 0.613h-0.635zM30.131 18.837l-0.441-0.153v-0.536h0.441v0.689zM30.131 17.841h-0.594c-0.085 0-0.153 0.069-0.153 0.153v0.741c0 0.010 0.004 0.019 0.006 0.029-0.014 0.074 0.025 0.149 0.098 0.174l0.644 0.223v1.876c0 0.065-0.017 0.387-0.345 0.387h-1.818c-0.013-0.424-0.142-1.231-0.757-1.893-0.496-0.535-1.185-0.882-2.094-0.882h-0.306l0-7.731c0.514 0.031 1.757 0.476 2.365 1.098l0.498 0.543c0.042 0.046 0.102 0.073 0.165 0.074 0.006 0 0.58 0.019 0.922 0.855 0.006 0.011 0.552 1.122 1 2.706 0.006 0.023 0.017 0.045 0.030 0.065l0.242 0.363c0.012 0.018 0.017 0.025 0.032 0.038 0.003 0.003 0.063 0.072 0.063 0.256l-0 0.924zM29.485 20.577h-0.996c-0.085 0-0.153 0.069-0.153 0.153s0.069 0.153 0.153 0.153h0.996c0.085 0 0.153-0.069 0.153-0.153s-0.068-0.153-0.153-0.153zM28.336 20.040c0 0.085 0.069 0.153 0.153 0.153h0.996c0.085 0 0.153-0.069 0.153-0.153s-0.069-0.153-0.153-0.153h-0.996c-0.085 0-0.153 0.069-0.153 0.153zM29.168 16.434v-0.697c0-0.020-0.004-0.040-0.011-0.058l-0.158-0.378v-0.516c0-0.463-0.288-0.513-0.413-0.513l-0.016-0-0.451-1.083c-0.023-0.056-0.076-0.093-0.136-0.095l-1.831 0.002c-0.006-0.001-0.031-0.002-0.037-0.002-0.17 0-0.34 0.111-0.34 0.358v2.141c0 0.053 0.028 0.102 0.073 0.13l2.35 0.842c0.024 0.015 0.052 0.023 0.081 0.023h0.737c0.085 0 0.154-0.069 0.154-0.153zM28.38 15.518v-0.942l0.206 0.002c0.040 0 0.106 0 0.106 0.206v0.535c0 0.014-0.001 0.026-0.002 0.038-0.008 0.166-0.068 0.169-0.105 0.169l-0.206 0.003v-0.010zM28.861 16.281h-0.54l-2.241-0.774v-2.055c0-0.036 0.008-0.047 0.008-0.047l0.038-0.004 1.746-0.005 0.368 0.881c-0.166 0.038-0.166 0.193-0.166 0.31v0.932c0 0.090 0 0.15 0.030 0.206 0.058 0.112 0.176 0.112 0.22 0.112l0.263-0.004c0.065 0 0.173-0.015 0.263-0.094l0.012 0.028-0 0.514z" fill="#000000" />
</svg>
