<?xml version="1.0" encoding="utf-8"?>
<!-- Generated by IcoMoon.io -->
<!DOCTYPE svg PUBLIC "-//W3C//DTD SVG 1.1//EN" "http://www.w3.org/Graphics/SVG/1.1/DTD/svg11.dtd">
<svg version="1.1" xmlns="http://www.w3.org/2000/svg" xmlns:xlink="http://www.w3.org/1999/xlink" width="32" height="32" viewBox="0 0 32 32">
<g>
</g>
	<path d="M26.958 7.376h-9.813c-0.182 0-0.329 0.147-0.329 0.328v6.196l-6.242-0c-0.181 0-0.328 0.147-0.328 0.328v6.334l-6.198-0-0.328 0.022-0.002 3.498c0 0.181 0.147 0.328 0.328 0.328l9.832 0.004c0.181 0 0.328-0.147 0.328-0.329l-0-6.165h6.12c0.181 0 0.328-0.147 0.328-0.329l0-6.241h6.302c0.181 0 0.328-0.147 0.328-0.329l0-3.317c0.001-0.181-0.146-0.329-0.327-0.329zM26.674 10.737h-6.303l-0.328 0.022v6.548l-6.121-0c-0.181 0-0.328 0.147-0.328 0.328v6.166l-9.262-0.004 0.002-2.622h6.198c0.181 0 0.328-0.147 0.328-0.329l-0-6.333h6.242c0.181 0 0.328-0.147 0.328-0.329l-0-6.196h9.244l0 2.748z" fill="#000000" />
</svg>
