<?xml version="1.0" encoding="utf-8"?>
<!-- Generated by IcoMoon.io -->
<!DOCTYPE svg PUBLIC "-//W3C//DTD SVG 1.1//EN" "http://www.w3.org/Graphics/SVG/1.1/DTD/svg11.dtd">
<svg version="1.1" xmlns="http://www.w3.org/2000/svg" xmlns:xlink="http://www.w3.org/1999/xlink" width="32" height="32" viewBox="0 0 32 32">
<g>
</g>
	<path d="M25.18 10.69h-18.207c-0.666 0-1.209 0.542-1.209 1.209v8.714c0 0.666 0.542 1.208 1.209 1.208h11.14c0.213 0.653 0.983 2.146 3.557 2.146h0.65l-0.365-0.537c-0.004-0.006-0.421-0.637-0.297-1.15 0.045-0.187 0.161-0.338 0.352-0.459h3.171c0.666 0 1.209-0.542 1.209-1.208l-0.001-8.714c0-0.666-0.542-1.209-1.209-1.209zM25.702 20.612c0 0.287-0.234 0.521-0.521 0.521l-3.352 0-0.077 0.042c-0.409 0.223-0.666 0.541-0.762 0.943-0.097 0.403-0.006 0.814 0.112 1.131-2.129-0.232-2.373-1.749-2.382-1.817l-0.039-0.299h-11.707c-0.287 0-0.521-0.234-0.521-0.521l-0-8.714c0-0.288 0.234-0.522 0.521-0.522h18.207c0.287 0 0.521 0.234 0.521 0.522l0.001 8.714zM23.417 13.581h-14.679c-0.142 0-0.258 0.115-0.258 0.258s0.116 0.258 0.258 0.258h14.68c0.142 0 0.258-0.116 0.258-0.258s-0.116-0.258-0.259-0.258zM23.417 15.261h-14.679c-0.142 0-0.258 0.116-0.258 0.258 0 0.142 0.116 0.258 0.258 0.258h14.68c0.142 0 0.258-0.115 0.258-0.258-0.001-0.142-0.116-0.258-0.259-0.258zM23.417 16.848h-14.679c-0.142 0-0.258 0.115-0.258 0.258s0.116 0.258 0.258 0.258h14.68c0.142 0 0.258-0.116 0.258-0.258s-0.116-0.258-0.259-0.258zM23.417 18.528h-14.679c-0.142 0-0.258 0.116-0.258 0.258 0 0.142 0.116 0.258 0.258 0.258h14.68c0.142 0 0.258-0.115 0.258-0.258-0.001-0.142-0.116-0.258-0.259-0.258z" fill="#000000" />
</svg>
