<?xml version="1.0" encoding="utf-8"?>
<!-- Generated by IcoMoon.io -->
<!DOCTYPE svg PUBLIC "-//W3C//DTD SVG 1.1//EN" "http://www.w3.org/Graphics/SVG/1.1/DTD/svg11.dtd">
<svg version="1.1" xmlns="http://www.w3.org/2000/svg" xmlns:xlink="http://www.w3.org/1999/xlink" width="32" height="32" viewBox="0 0 32 32">
<g>
</g>
	<path d="M26.284 22.616c-0.003 0.001-0.007 0.001-0.010 0.002 0.003-0.001 0.007-0.001 0.010-0.002zM17.275 22.359c0-0.050-0.005-0.098-0.015-0.146 0.010 0.047 0.015 0.095 0.015 0.146zM7.005 22.64c0.039 0 0.078-0.009 0.117-0.015-0.040 0.006-0.080 0.015-0.12 0.015 0.001 0 0.002 0.001 0.003 0.001zM7.366 22.543c-0.058 0.033-0.118 0.057-0.179 0.073 0.061-0.016 0.122-0.040 0.179-0.073zM17.152 21.956c0.018 0.027 0.032 0.056 0.046 0.085-0.014-0.029-0.028-0.058-0.046-0.085zM26.098 22.64c0.007 0 0.014-0.002 0.020-0.003-0.017 0.001-0.034-0.001-0.050-0.001 0.010 0.001 0.020 0.004 0.030 0.004zM16.805 28.103c-0.035 0.013-0.070 0.026-0.108 0.034 0.038-0.008 0.073-0.021 0.108-0.034zM6.878 22.623c-0.021-0.004-0.042-0.004-0.062-0.009 0.021 0.005 0.042 0.005 0.062 0.009zM11.877 18.848c0.013 0.011 0.026 0.022 0.037 0.035-0.012-0.013-0.025-0.023-0.037-0.035zM11.734 18.747c0.014 0.008 0.028 0.017 0.042 0.026-0.014-0.009-0.027-0.018-0.042-0.026zM26.479 22.528c-0.014 0.008-0.027 0.018-0.041 0.025 0.014-0.007 0.027-0.017 0.041-0.025zM11.194 18.69c0.017-0.005 0.033-0.007 0.050-0.011-0.017 0.003-0.033 0.006-0.050 0.011zM17.064 21.849c0.027 0.027 0.050 0.057 0.072 0.087-0.022-0.030-0.045-0.060-0.072-0.087zM11.394 18.66c-0.010 0-0.020 0.004-0.031 0.004 0.017-0.001 0.034-0.002 0.051-0.002-0.007-0-0.014-0.003-0.020-0.003zM11.568 18.682c0.004 0.001 0.008 0.001 0.012 0.002-0.004-0.001-0.009-0.001-0.012-0.002zM17.218 22.078c0.013 0.031 0.021 0.063 0.030 0.095-0.009-0.033-0.017-0.065-0.030-0.095zM15.928 22.003c0.009-0.016 0.016-0.033 0.026-0.048-0.010 0.015-0.017 0.032-0.026 0.048zM16.005 21.893c0.013-0.015 0.023-0.031 0.037-0.044-0.014 0.014-0.024 0.030-0.037 0.044zM15.863 22.155c0.007-0.026 0.014-0.052 0.024-0.077-0.010 0.025-0.016 0.051-0.024 0.077zM16.094 21.806c0.018-0.015 0.035-0.032 0.055-0.045-0.020 0.013-0.037 0.030-0.055 0.045zM26.617 22.418c-0.012 0.012-0.024 0.023-0.037 0.034 0.013-0.012 0.025-0.022 0.037-0.034zM16.957 21.76c0.030 0.020 0.056 0.044 0.082 0.068-0.026-0.024-0.053-0.048-0.082-0.068zM15.83 22.359c0-0.050 0.005-0.098 0.015-0.146-0.010 0.047-0.015 0.096-0.015 0.146zM16.552 28.151c0.029 0 0.056-0.005 0.083-0.008-0.028 0.003-0.055 0.008-0.084 0.008 0 0 0 0 0.001 0zM16.699 21.652c0.030 0.006 0.057 0.017 0.086 0.026-0.028-0.010-0.056-0.021-0.086-0.026zM16.933 28.040c-0.032 0.020-0.065 0.040-0.101 0.055 0.035-0.015 0.069-0.035 0.101-0.055zM16.554 21.638c-0.001 0-0.001 0-0.001 0 0.029 0 0.056 0.005 0.084 0.008-0.028-0.004-0.054-0.008-0.083-0.008zM16.552 21.638c-0.029 0-0.056 0.005-0.083 0.008 0.028-0.003 0.056-0.008 0.085-0.008-0.001 0-0.001 0-0.001 0zM16.328 21.677c0.026-0.009 0.052-0.019 0.079-0.025-0.028 0.005-0.053 0.015-0.079 0.025zM16.203 21.731c0.022-0.013 0.044-0.027 0.068-0.037-0.024 0.011-0.046 0.025-0.068 0.037zM16.835 21.694c0.028 0.012 0.053 0.028 0.078 0.042-0.026-0.015-0.051-0.030-0.078-0.042zM21.884 16.043c0.008-0.014 0.014-0.030 0.023-0.043-0.009 0.013-0.015 0.029-0.023 0.043zM21.959 15.938c0.013-0.015 0.023-0.032 0.037-0.045-0.014 0.014-0.025 0.030-0.037 0.045zM28.242 16.124c0.012 0.029 0.019 0.059 0.028 0.090-0.009-0.030-0.016-0.061-0.028-0.090zM28.284 16.26c0.010 0.047 0.015 0.096 0.015 0.146 0-0.050-0.005-0.099-0.015-0.146zM21.784 16.404c0-0.050 0.005-0.099 0.015-0.146-0.009 0.047-0.015 0.096-0.015 0.146zM21.834 16.144c0.003-0.007 0.004-0.014 0.007-0.022-0.003 0.007-0.004 0.015-0.007 0.022zM11.558 26.452c-0.012 0.012-0.025 0.023-0.038 0.034 0.013-0.011 0.026-0.022 0.038-0.034zM13.726 20.859c0.016 0.004 0.033 0.006 0.049 0.011-0.016-0.005-0.033-0.008-0.049-0.011zM11.225 26.65c-0.003 0.001-0.007 0.001-0.010 0.002 0.003-0.001 0.007-0.001 0.010-0.002zM11.42 26.562c-0.014 0.009-0.027 0.018-0.041 0.026 0.014-0.008 0.027-0.017 0.041-0.026zM13.194 20.951c0.014-0.008 0.027-0.018 0.041-0.025-0.014 0.008-0.027 0.017-0.041 0.025zM13.575 20.839c-0.007 0-0.014 0.002-0.020 0.003 0.017-0.001 0.034 0.001 0.051 0.001-0.010-0.001-0.020-0.004-0.030-0.004zM13.39 20.863c0.003-0.001 0.007-0.001 0.010-0.002-0.003 0.001-0.007 0.001-0.010 0.002zM22.153 15.778c0.024-0.014 0.046-0.029 0.072-0.039-0.025 0.010-0.048 0.025-0.072 0.039zM13.057 21.062c0.012-0.012 0.025-0.023 0.037-0.034-0.013 0.011-0.025 0.022-0.037 0.034zM22.048 15.85c0.018-0.015 0.035-0.032 0.055-0.045-0.020 0.013-0.037 0.030-0.055 0.045zM26.581 10.358c0.012 0.011 0.025 0.022 0.037 0.034-0.012-0.013-0.024-0.023-0.037-0.034zM22.286 15.719c0.025-0.008 0.048-0.018 0.074-0.023-0.025 0.005-0.049 0.015-0.074 0.023zM10.888 26.655c-0.017-0.004-0.033-0.006-0.049-0.011 0.016 0.005 0.033 0.008 0.049 0.011zM22.506 15.682c-0.026 0-0.050 0.005-0.076 0.008 0.026-0.003 0.051-0.008 0.077-0.008-0 0-0.001 0-0.001 0zM11.38 6.221c0.014 0.007 0.027 0.017 0.041 0.025-0.014-0.008-0.026-0.017-0.041-0.025zM19.704 20.862c0.004 0.001 0.007 0.001 0.011 0.002-0.003-0.001-0.007-0.001-0.011-0.002zM19.87 20.926c0.014 0.008 0.028 0.017 0.041 0.026-0.014-0.009-0.027-0.018-0.041-0.026zM20.011 21.027c0.013 0.011 0.025 0.022 0.037 0.034-0.012-0.012-0.025-0.023-0.037-0.034zM19.529 20.839c-0.010 0-0.020 0.003-0.030 0.004 0.017-0.001 0.034-0.002 0.050-0.001-0.006-0.001-0.013-0.003-0.020-0.003zM19.329 20.87c0.016-0.005 0.033-0.008 0.049-0.011-0.017 0.004-0.033 0.006-0.049 0.011zM26.099 10.17c-0.010 0-0.020 0.004-0.030 0.004 0.017-0.001 0.033-0.002 0.049-0.002-0.006-0-0.013-0.003-0.019-0.003zM19.378 11.95c-0.017-0.004-0.033-0.006-0.049-0.011 0.016 0.005 0.032 0.008 0.049 0.011zM25.899 10.2c0.016-0.005 0.032-0.007 0.049-0.011-0.016 0.004-0.032 0.007-0.049 0.011zM16.553 4.657c-0.001 0-0.001 0-0.001 0 0.029 0 0.056 0.005 0.084 0.008-0.027-0.003-0.054-0.008-0.083-0.008zM21.711 18.659c-0.007 0-0.014 0.002-0.020 0.002 0.017-0 0.034 0.001 0.050 0.002-0.010-0-0.020-0.004-0.030-0.004zM16.698 4.672c0.030 0.006 0.058 0.017 0.086 0.027-0.028-0.010-0.056-0.021-0.086-0.027zM22.064 26.675c0.039 0 0.078-0.009 0.117-0.015-0.040 0.006-0.080 0.015-0.12 0.014 0.001 0 0.002 0.001 0.003 0.001zM21.861 18.678c0.017 0.004 0.034 0.006 0.050 0.011-0.016-0.005-0.033-0.008-0.050-0.011zM22.425 26.578c-0.058 0.033-0.118 0.058-0.179 0.074 0.061-0.016 0.121-0.041 0.179-0.074zM21.935 26.658c-0.019-0.004-0.040-0.003-0.059-0.008 0.019 0.005 0.039 0.004 0.059 0.008zM26.439 10.257c0.014 0.007 0.027 0.017 0.041 0.025-0.014-0.009-0.027-0.018-0.041-0.025zM26.276 10.193c0.003 0.001 0.006 0.001 0.009 0.002-0.003-0.001-0.006-0.001-0.009-0.002zM21.684 6.246c0.014-0.008 0.027-0.018 0.041-0.025-0.014 0.008-0.027 0.017-0.041 0.025zM19.529 11.97c0.006 0 0.013-0.002 0.020-0.003-0.017 0-0.033-0.001-0.050-0.002 0.010 0.001 0.020 0.004 0.030 0.004zM16.834 4.714c0.029 0.012 0.056 0.029 0.083 0.045-0.027-0.015-0.054-0.032-0.083-0.045zM22.070 14.052c-0.058 0.033-0.118 0.057-0.179 0.073 0.061-0.016 0.122-0.040 0.179-0.073zM21.581 14.132c-0.020-0.004-0.041-0.003-0.061-0.008 0.020 0.006 0.041 0.005 0.061 0.008zM21.71 14.149c0.039 0 0.078-0.008 0.118-0.015-0.040 0.006-0.081 0.015-0.121 0.015 0.001 0 0.002 0 0.003 0zM21.546 6.357c0.012-0.012 0.025-0.023 0.037-0.034-0.013 0.011-0.025 0.022-0.037 0.034zM20.047 11.747c-0.012 0.012-0.024 0.023-0.037 0.034 0.013-0.011 0.025-0.022 0.037-0.034zM19.909 11.858c-0.013 0.008-0.026 0.018-0.040 0.025 0.014-0.008 0.026-0.016 0.040-0.025zM19.714 11.946c-0.002 0.001-0.005 0.001-0.007 0.001 0.002-0.001 0.005-0.001 0.007-0.001zM22.216 6.154c0.017 0.004 0.033 0.006 0.050 0.011-0.016-0.005-0.033-0.008-0.050-0.011zM21.88 6.159c0.003-0.001 0.006-0.001 0.009-0.002-0.003 0.001-0.006 0.001-0.009 0.002zM22.065 6.134c-0.007 0-0.014 0.002-0.020 0.002 0.017-0 0.034 0.001 0.050 0.001-0.009-0-0.020-0.004-0.030-0.004zM21.525 18.683c0.003-0.001 0.006-0.001 0.010-0.002-0.003 0.001-0.007 0.001-0.010 0.002zM11.394 14.15c0.007 0 0.014-0.002 0.021-0.003-0.017 0.001-0.034-0.001-0.051-0.001 0.010 0 0.021 0.004 0.031 0.004zM11.58 14.126c-0.004 0.001-0.008 0.001-0.012 0.002 0.004-0.001 0.008-0.001 0.012-0.002zM11.912 13.928c-0.012 0.012-0.024 0.023-0.037 0.034 0.012-0.011 0.025-0.022 0.037-0.034zM6.624 10.282c0.014-0.008 0.027-0.018 0.041-0.025-0.014 0.008-0.027 0.017-0.041 0.025zM7.157 10.189c0.017 0.004 0.033 0.006 0.049 0.011-0.017-0.005-0.033-0.008-0.049-0.011zM6.82 10.194c0.003-0.001 0.007-0.001 0.010-0.002-0.003 0.001-0.007 0.001-0.010 0.002zM7.005 10.169c-0.007 0-0.014 0.002-0.020 0.003 0.017-0.001 0.034 0.001 0.051 0.001-0.010-0.001-0.020-0.004-0.030-0.004zM11.775 14.038c-0.014 0.008-0.027 0.018-0.041 0.025 0.014-0.008 0.027-0.017 0.041-0.025zM11.244 14.131c-0.017-0.004-0.034-0.006-0.050-0.011 0.017 0.005 0.033 0.008 0.050 0.011zM17.134 27.853c-0.022 0.031-0.045 0.060-0.071 0.087 0.026-0.026 0.049-0.056 0.071-0.087zM16.957 4.781c0.030 0.020 0.057 0.044 0.083 0.068-0.026-0.024-0.053-0.048-0.083-0.068zM17.197 27.747c-0.014 0.029-0.029 0.059-0.046 0.086 0.018-0.027 0.032-0.057 0.046-0.086zM21.192 18.881c0.012-0.012 0.025-0.023 0.037-0.034-0.013 0.011-0.025 0.022-0.037 0.034zM25.947 22.621c-0.017-0.004-0.033-0.006-0.049-0.011 0.016 0.005 0.033 0.007 0.049 0.011zM17.231 27.666c-0.005 0.014-0.007 0.030-0.014 0.044 0.006-0.014 0.009-0.029 0.014-0.044zM10.839 6.165c0.016-0.005 0.033-0.008 0.049-0.011-0.016 0.004-0.033 0.007-0.049 0.011zM17.043 27.956c-0.028 0.026-0.056 0.051-0.088 0.072 0.032-0.021 0.060-0.046 0.088-0.072zM11.040 6.134c-0.010 0-0.020 0.003-0.031 0.004 0.017-0.001 0.034-0.002 0.051-0.001-0.006-0-0.013-0.003-0.020-0.003zM17.152 4.976c0.022 0.033 0.041 0.070 0.058 0.106-0.017-0.037-0.035-0.074-0.058-0.106zM17.064 4.869c0.027 0.026 0.049 0.056 0.071 0.087-0.022-0.030-0.045-0.060-0.071-0.087zM17.218 5.098c0.037 0.086 0.057 0.182 0.057 0.281-0-0.099-0.021-0.194-0.057-0.281zM11.216 6.157c0.003 0.001 0.006 0.001 0.009 0.002-0.003-0.001-0.006-0.001-0.009-0.002zM13.935 11.874c-0.058 0.033-0.118 0.057-0.179 0.073 0.061-0.016 0.121-0.040 0.179-0.073zM13.446 11.953c-0.020-0.004-0.041-0.003-0.061-0.008 0.020 0.005 0.041 0.005 0.061 0.008zM21.329 18.771c0.014-0.008 0.027-0.018 0.041-0.025-0.014 0.008-0.027 0.016-0.041 0.025zM13.575 11.97c0.039 0 0.078-0.008 0.117-0.015-0.040 0.006-0.080 0.015-0.12 0.015 0.001 0 0.002 0 0.003 0zM11.522 6.322c0.012 0.011 0.025 0.022 0.037 0.034-0.012-0.012-0.025-0.023-0.037-0.034zM6.486 10.392c0.012-0.013 0.025-0.023 0.037-0.034-0.013 0.011-0.025 0.021-0.037 0.034zM11.039 26.674c0.007 0 0.014-0.002 0.020-0.003-0.017 0.001-0.034-0.001-0.051-0.001 0.010 0.001 0.020 0.004 0.030 0.004zM27.981 15.806c0.022 0.015 0.042 0.034 0.062 0.051-0.020-0.017-0.039-0.036-0.062-0.051zM27.858 15.74c0.026 0.011 0.049 0.026 0.073 0.040-0.024-0.014-0.047-0.029-0.073-0.040zM27.578 15.683c-0.001 0-0.001 0-0.002 0 0.029 0 0.056 0.005 0.084 0.008-0.027-0.003-0.054-0.008-0.082-0.008zM27.722 15.698c0.029 0.006 0.055 0.017 0.082 0.026-0.027-0.009-0.053-0.020-0.082-0.026zM28.088 15.894c0.018 0.018 0.033 0.039 0.049 0.059-0.016-0.020-0.031-0.041-0.049-0.059zM28.176 16.001c0.017 0.025 0.030 0.052 0.043 0.079-0.014-0.027-0.026-0.054-0.043-0.079zM19.015 12.138c0.156 0.090 0.334 0.138 0.514 0.138 0.367 0 0.709-0.198 0.892-0.516l2.535-4.389c0.137-0.238 0.174-0.516 0.103-0.781s-0.242-0.487-0.48-0.625c-0.156-0.090-0.334-0.138-0.514-0.138-0.367 0-0.709 0.198-0.892 0.515l-2.536 4.389c-0.283 0.492-0.114 1.123 0.377 1.407zM18.903 10.885l2.536-4.389c0.030-0.052 0.067-0.098 0.108-0.139 0.012-0.012 0.025-0.023 0.037-0.034 0.032-0.029 0.065-0.054 0.101-0.076 0.014-0.009 0.027-0.018 0.041-0.025 0.049-0.026 0.101-0.048 0.155-0.063 0.003-0.001 0.006-0.001 0.009-0.002 0.051-0.013 0.104-0.019 0.157-0.020 0.006 0 0.013-0.002 0.020-0.002 0.010 0 0.020 0.003 0.030 0.004 0.040 0.002 0.081 0.007 0.12 0.016 0.017 0.004 0.033 0.006 0.050 0.011 0.054 0.016 0.109 0.036 0.16 0.066 0.346 0.2 0.465 0.642 0.265 0.987l-2.536 4.389c-0.030 0.052-0.067 0.098-0.107 0.139-0.012 0.012-0.024 0.023-0.037 0.034-0.032 0.029-0.066 0.054-0.102 0.076-0.014 0.009-0.026 0.018-0.040 0.025-0.050 0.026-0.101 0.048-0.155 0.063-0.002 0.001-0.005 0.001-0.007 0.001-0.051 0.013-0.105 0.019-0.158 0.021-0.006 0-0.013 0.003-0.020 0.003-0.010 0-0.020-0.004-0.030-0.004-0.040-0.002-0.081-0.007-0.121-0.016-0.017-0.004-0.033-0.006-0.049-0.011-0.055-0.016-0.109-0.036-0.16-0.066-0.346-0.2-0.465-0.641-0.265-0.987zM6.245 12.208l4.39 2.536c0.231 0.133 0.493 0.203 0.759 0.203 0.542 0 1.047-0.292 1.317-0.761 0.202-0.35 0.257-0.759 0.152-1.152-0.059-0.221-0.169-0.418-0.313-0.587 0.073 0.062 0.15 0.12 0.234 0.169 0.241 0.139 0.515 0.212 0.792 0.212 0.276 0 0.548-0.073 0.788-0.211 0.491-0.283 0.767-0.791 0.785-1.319 0.141 0.233 0.338 0.433 0.58 0.573 0.254 0.145 0.535 0.22 0.82 0.221 0.907-0.001 1.644-0.737 1.644-1.642l0.001-5.070c0-0.906-0.736-1.642-1.641-1.642h-0.001c-0.906 0-1.642 0.737-1.642 1.642l-0.001 5.018-2.501-4.332c-0.28-0.487-0.806-0.791-1.369-0.791-0.276 0-0.55 0.073-0.79 0.212-0.755 0.436-1.015 1.405-0.58 2.159l2.535 4.391c0.046 0.080 0.102 0.154 0.162 0.226-0.066-0.055-0.136-0.108-0.212-0.152l-4.39-2.535c-0.23-0.134-0.493-0.204-0.759-0.204v0c-0.541 0-1.046 0.291-1.317 0.76-0.203 0.35-0.258 0.76-0.153 1.152s0.356 0.721 0.708 0.924zM15.83 5.38c0-0.399 0.323-0.722 0.722-0.722 0 0 0 0 0.001 0 0.029 0 0.056 0.005 0.083 0.008 0.021 0.002 0.042 0.002 0.062 0.006 0.030 0.006 0.058 0.017 0.086 0.027 0.016 0.006 0.034 0.009 0.050 0.015 0.029 0.012 0.056 0.029 0.083 0.045 0.013 0.008 0.028 0.013 0.040 0.022 0.030 0.020 0.057 0.044 0.083 0.068 0.007 0.007 0.017 0.013 0.024 0.020 0.027 0.026 0.049 0.056 0.071 0.087 0.006 0.007 0.012 0.013 0.017 0.020 0.022 0.033 0.041 0.070 0.058 0.106 0.002 0.006 0.006 0.011 0.009 0.016 0.037 0.086 0.057 0.182 0.057 0.281l-0.001 5.070c-0 0.4-0.324 0.722-0.723 0.723-0.13-0-0.254-0.036-0.361-0.096-0.216-0.125-0.361-0.359-0.361-0.626l0.002-5.070zM10.414 7.218c-0.199-0.346-0.081-0.787 0.265-0.987 0.051-0.030 0.106-0.050 0.16-0.066 0.017-0.005 0.033-0.008 0.049-0.011 0.040-0.009 0.081-0.014 0.121-0.016 0.010-0 0.020-0.004 0.031-0.004 0.007 0 0.014 0.002 0.020 0.002 0.053 0.002 0.105 0.007 0.156 0.020 0.003 0.001 0.006 0.001 0.009 0.002 0.054 0.014 0.106 0.037 0.154 0.063 0.014 0.007 0.027 0.017 0.041 0.025 0.036 0.022 0.070 0.048 0.101 0.076 0.012 0.011 0.025 0.022 0.037 0.034 0.040 0.042 0.077 0.087 0.108 0.139l2.534 4.391c0.199 0.346 0.081 0.788-0.265 0.987-0.058 0.033-0.118 0.057-0.179 0.073-0.021 0.006-0.043 0.005-0.065 0.008-0.039 0.006-0.078 0.015-0.117 0.015-0.001 0-0.002-0-0.004-0-0.042-0-0.083-0.009-0.125-0.017-0.020-0.004-0.041-0.003-0.061-0.008-0.060-0.016-0.119-0.040-0.173-0.071-0.107-0.062-0.199-0.15-0.264-0.264l-2.535-4.39zM6.379 10.53c0.030-0.052 0.067-0.098 0.108-0.139 0.012-0.013 0.025-0.023 0.037-0.034 0.032-0.029 0.065-0.054 0.101-0.076 0.014-0.009 0.027-0.018 0.041-0.025 0.049-0.026 0.101-0.048 0.154-0.063 0.003-0.001 0.007-0.001 0.010-0.002 0.050-0.013 0.103-0.019 0.155-0.020 0.007-0.001 0.013-0.003 0.020-0.003 0.010 0 0.020 0.004 0.031 0.004 0.040 0.002 0.080 0.007 0.12 0.016 0.017 0.004 0.033 0.006 0.049 0.011 0.055 0.016 0.109 0.037 0.16 0.066l4.39 2.536c0.345 0.199 0.463 0.641 0.263 0.987-0.030 0.052-0.067 0.098-0.108 0.139-0.012 0.012-0.024 0.023-0.037 0.034-0.032 0.029-0.065 0.054-0.101 0.076-0.014 0.008-0.027 0.018-0.041 0.025-0.049 0.026-0.101 0.048-0.154 0.062-0.004 0.001-0.008 0.001-0.012 0.002-0.050 0.013-0.102 0.018-0.154 0.020-0.007 0-0.014 0.003-0.021 0.003-0.010 0-0.021-0.004-0.031-0.004-0.040-0.002-0.080-0.007-0.12-0.016-0.017-0.004-0.034-0.006-0.050-0.011-0.054-0.016-0.109-0.036-0.16-0.066l-4.39-2.536c-0.345-0.199-0.464-0.642-0.264-0.987zM4.799 17.667c0.22 0.127 0.472 0.195 0.729 0.195l5.070 0.001c0.805-0.001 1.459-0.656 1.458-1.46 0-0.803-0.654-1.457-1.458-1.457l-5.070-0.001c-0.803 0-1.457 0.653-1.458 1.457 0 0.521 0.28 1.004 0.73 1.264zM5.527 15.682l5.070 0.001c0.398 0 0.722 0.323 0.722 0.722 0.001 0.4-0.324 0.722-0.722 0.723l-5.070-0.001c-0.131 0-0.254-0.035-0.361-0.097-0.216-0.124-0.362-0.358-0.362-0.626 0.001-0.399 0.324-0.722 0.723-0.722zM12.605 18.685c-0.248-0.431-0.712-0.699-1.211-0.699-0.244 0-0.485 0.064-0.697 0.187l-4.39 2.534c-0.323 0.186-0.555 0.488-0.651 0.848-0.096 0.36-0.046 0.737 0.139 1.060 0.124 0.214 0.301 0.39 0.513 0.512 0.21 0.121 0.452 0.187 0.698 0.187 0.244 0 0.486-0.065 0.697-0.187l4.39-2.534c0.667-0.385 0.896-1.241 0.512-1.908zM11.756 20.008l-4.39 2.534c-0.058 0.033-0.118 0.057-0.179 0.073-0.022 0.006-0.043 0.005-0.065 0.009-0.039 0.006-0.078 0.015-0.117 0.015-0.001 0-0.002-0.001-0.004-0.001-0.042-0-0.083-0.009-0.123-0.016-0.021-0.004-0.042-0.004-0.062-0.009-0.060-0.016-0.119-0.040-0.173-0.072-0.107-0.061-0.198-0.15-0.264-0.264-0.199-0.346-0.082-0.788 0.265-0.987l4.39-2.534c0.051-0.030 0.106-0.050 0.16-0.066 0.017-0.005 0.033-0.007 0.050-0.011 0.040-0.009 0.080-0.014 0.12-0.015 0.010-0.001 0.020-0.004 0.031-0.004 0.007 0 0.014 0.002 0.021 0.003 0.052 0.002 0.103 0.007 0.154 0.020 0.004 0.001 0.008 0.001 0.012 0.002 0.054 0.014 0.105 0.037 0.154 0.062 0.014 0.008 0.028 0.017 0.042 0.026 0.035 0.022 0.069 0.047 0.1 0.075 0.013 0.011 0.025 0.022 0.037 0.035 0.040 0.041 0.077 0.086 0.107 0.138 0.199 0.346 0.081 0.788-0.265 0.988zM10.372 27.108c0.202 0.117 0.433 0.179 0.667 0.179 0.476 0 0.919-0.256 1.158-0.668l2.535-4.39c0.178-0.309 0.226-0.669 0.134-1.014-0.093-0.345-0.313-0.633-0.622-0.811-0.203-0.117-0.434-0.179-0.667-0.179-0.477 0-0.92 0.257-1.158 0.67l-2.535 4.388c-0.368 0.639-0.149 1.458 0.489 1.825zM10.414 25.59l2.535-4.389c0.030-0.052 0.067-0.098 0.108-0.139 0.012-0.012 0.024-0.023 0.037-0.034 0.032-0.029 0.065-0.054 0.101-0.076 0.014-0.008 0.027-0.018 0.041-0.025 0.049-0.026 0.101-0.048 0.154-0.063 0.003-0.001 0.007-0.001 0.010-0.002 0.050-0.013 0.103-0.019 0.155-0.020 0.007-0 0.014-0.003 0.020-0.003 0.010 0 0.020 0.004 0.031 0.004 0.040 0.002 0.081 0.007 0.121 0.016 0.016 0.004 0.033 0.006 0.049 0.011 0.055 0.016 0.109 0.037 0.16 0.066 0.346 0.2 0.464 0.642 0.265 0.988l-2.535 4.389c-0.030 0.052-0.068 0.098-0.108 0.139-0.012 0.012-0.025 0.023-0.038 0.034-0.031 0.029-0.065 0.054-0.101 0.076-0.014 0.009-0.027 0.018-0.041 0.026-0.049 0.026-0.101 0.048-0.154 0.063-0.003 0.001-0.007 0.001-0.010 0.002-0.051 0.013-0.103 0.019-0.155 0.020-0.007 0-0.014 0.003-0.020 0.003-0.010 0-0.020-0.004-0.031-0.004-0.040-0.002-0.081-0.007-0.12-0.016-0.017-0.004-0.033-0.006-0.049-0.011-0.054-0.016-0.109-0.037-0.16-0.066-0.345-0.199-0.463-0.641-0.263-0.987zM16.554 21.086h-0.001c-0.703 0-1.274 0.571-1.275 1.273l-0.001 5.070c-0.001 0.453 0.243 0.877 0.638 1.104 0.192 0.111 0.412 0.17 0.636 0.17 0.702 0 1.274-0.571 1.274-1.273l0.001-5.070c0-0.34-0.132-0.66-0.372-0.901-0.24-0.241-0.56-0.374-0.9-0.374zM17.274 27.429c0 0.083-0.017 0.162-0.043 0.237-0.005 0.014-0.007 0.030-0.014 0.044-0.006 0.013-0.014 0.024-0.020 0.037-0.014 0.029-0.029 0.059-0.046 0.086-0.005 0.007-0.011 0.013-0.017 0.020-0.022 0.031-0.045 0.060-0.071 0.087-0.006 0.006-0.013 0.010-0.019 0.016-0.028 0.026-0.056 0.051-0.088 0.072-0.007 0.005-0.015 0.007-0.022 0.012-0.032 0.020-0.065 0.040-0.101 0.055-0.009 0.004-0.019 0.005-0.028 0.008-0.035 0.013-0.070 0.026-0.108 0.034-0.020 0.004-0.041 0.004-0.062 0.006-0.028 0.003-0.055 0.008-0.083 0.008-0 0-0 0-0.001 0-0.131 0-0.254-0.035-0.361-0.097-0.216-0.124-0.362-0.358-0.362-0.626l0.001-5.070c0-0.050 0.005-0.098 0.015-0.146 0.004-0.020 0.012-0.039 0.018-0.058 0.007-0.026 0.014-0.052 0.024-0.077 0.011-0.026 0.027-0.050 0.041-0.075 0.009-0.016 0.016-0.033 0.026-0.048 0.015-0.022 0.034-0.042 0.051-0.062 0.013-0.015 0.023-0.031 0.037-0.044 0.016-0.016 0.035-0.029 0.052-0.043 0.018-0.015 0.035-0.032 0.055-0.045 0.017-0.011 0.036-0.019 0.054-0.030 0.022-0.013 0.044-0.027 0.068-0.037 0.018-0.008 0.038-0.011 0.057-0.018 0.026-0.009 0.052-0.019 0.079-0.025 0.020-0.004 0.041-0.004 0.061-0.006 0.028-0.003 0.055-0.008 0.083-0.008 0.001 0 0.001 0 0.001 0 0 0 0.001 0 0.001 0 0.029 0 0.055 0.005 0.083 0.008 0.020 0.002 0.042 0.002 0.062 0.006 0.030 0.006 0.057 0.017 0.086 0.026 0.017 0.006 0.034 0.009 0.050 0.016 0.028 0.012 0.053 0.028 0.078 0.042 0.015 0.008 0.030 0.015 0.044 0.024 0.030 0.020 0.056 0.044 0.082 0.068 0.008 0.007 0.017 0.013 0.024 0.020 0.027 0.027 0.050 0.057 0.072 0.087 0.005 0.007 0.011 0.013 0.016 0.020 0.018 0.027 0.032 0.056 0.046 0.085 0.006 0.013 0.015 0.025 0.020 0.038 0.013 0.031 0.021 0.063 0.030 0.095 0.004 0.014 0.010 0.026 0.012 0.040 0.010 0.047 0.015 0.096 0.015 0.146l-0.002 5.070zM21.013 26.559c0.106 0.183 0.259 0.336 0.442 0.442 0.186 0.108 0.396 0.163 0.608 0.163 0.212 0 0.422-0.056 0.606-0.163 0.279-0.16 0.481-0.422 0.565-0.735s0.041-0.64-0.121-0.921l-2.533-4.39c-0.216-0.374-0.619-0.607-1.052-0.607-0.211 0-0.421 0.056-0.605 0.162-0.58 0.335-0.778 1.079-0.444 1.658l2.534 4.391zM19.169 20.935c0.051-0.030 0.106-0.050 0.16-0.066 0.017-0.005 0.033-0.008 0.049-0.011 0.040-0.008 0.080-0.014 0.12-0.016 0.010-0.001 0.020-0.004 0.030-0.004 0.007 0 0.014 0.002 0.020 0.003 0.052 0.002 0.105 0.007 0.155 0.020 0.004 0.001 0.007 0.001 0.011 0.002 0.054 0.014 0.105 0.036 0.154 0.062 0.014 0.008 0.027 0.017 0.041 0.026 0.035 0.022 0.069 0.047 0.101 0.076 0.013 0.011 0.025 0.022 0.037 0.034 0.040 0.042 0.077 0.087 0.108 0.139l2.534 4.39c0.2 0.346 0.082 0.787-0.265 0.986-0.058 0.033-0.118 0.058-0.179 0.074-0.022 0.006-0.044 0.005-0.066 0.009-0.039 0.006-0.078 0.015-0.117 0.015-0.001 0-0.002-0.001-0.003-0.001-0.043 0-0.084-0.009-0.126-0.017-0.019-0.004-0.040-0.003-0.059-0.008-0.060-0.016-0.119-0.040-0.173-0.071-0.107-0.062-0.199-0.151-0.264-0.264l-2.534-4.39c-0.2-0.346-0.082-0.788 0.264-0.988zM22.286 18.384c-0.175-0.101-0.374-0.154-0.575-0.154-0.41 0-0.793 0.221-0.998 0.576-0.154 0.265-0.196 0.576-0.116 0.873 0.079 0.298 0.27 0.546 0.536 0.7l4.39 2.536c0.175 0.101 0.374 0.154 0.575 0.154 0.411 0 0.793-0.221 0.998-0.576 0.317-0.549 0.129-1.254-0.421-1.573l-4.389-2.536zM26.725 22.279c-0.030 0.052-0.067 0.098-0.108 0.139-0.012 0.013-0.024 0.023-0.037 0.034-0.032 0.029-0.065 0.054-0.101 0.076-0.014 0.009-0.027 0.018-0.041 0.025-0.049 0.026-0.101 0.048-0.154 0.063-0.003 0.001-0.007 0.001-0.010 0.002-0.051 0.013-0.103 0.019-0.156 0.020-0.006 0.001-0.013 0.003-0.020 0.003-0.010 0-0.020-0.004-0.030-0.004-0.040-0.002-0.081-0.007-0.121-0.016-0.017-0.004-0.033-0.006-0.049-0.011-0.054-0.016-0.109-0.036-0.16-0.066 0 0 0 0-0.001-0.001l-4.39-2.536c-0.346-0.2-0.464-0.642-0.263-0.987 0.030-0.052 0.067-0.097 0.107-0.139 0.012-0.012 0.025-0.023 0.037-0.034 0.032-0.029 0.065-0.054 0.101-0.076 0.014-0.009 0.027-0.018 0.041-0.025 0.049-0.026 0.101-0.048 0.154-0.063 0.003-0.001 0.006-0.001 0.010-0.002 0.051-0.013 0.103-0.019 0.156-0.020 0.007 0 0.014-0.002 0.020-0.002 0.010 0 0.020 0.004 0.030 0.004 0.040 0.002 0.081 0.007 0.12 0.016 0.017 0.004 0.033 0.006 0.050 0.011 0.055 0.016 0.109 0.036 0.16 0.066l4.389 2.536c0.345 0.2 0.464 0.642 0.264 0.987zM22.506 15.314c-0.6 0-1.089 0.49-1.089 1.090 0.001 0.389 0.21 0.751 0.546 0.945 0.165 0.095 0.353 0.146 0.544 0.146l5.070 0.001c0.601-0 1.090-0.49 1.090-1.090-0.001-0.602-0.489-1.090-1.089-1.090l-5.073-0.001zM27.578 15.683c0.028 0 0.055 0.006 0.082 0.008 0.021 0.002 0.042 0.002 0.062 0.006 0.029 0.006 0.055 0.017 0.082 0.026 0.018 0.006 0.037 0.009 0.054 0.017 0.026 0.011 0.049 0.026 0.073 0.040 0.017 0.009 0.034 0.017 0.049 0.027 0.022 0.015 0.042 0.034 0.062 0.051 0.015 0.013 0.031 0.023 0.045 0.037 0.018 0.018 0.033 0.039 0.049 0.059 0.013 0.016 0.028 0.031 0.039 0.047 0.017 0.025 0.030 0.052 0.043 0.079 0.007 0.015 0.017 0.028 0.024 0.044 0.012 0.029 0.019 0.059 0.028 0.090 0.004 0.016 0.011 0.030 0.014 0.046 0.010 0.047 0.015 0.096 0.015 0.146-0 0.399-0.325 0.722-0.722 0.723l-5.070-0.001c-0.131 0-0.254-0.035-0.36-0.097-0.216-0.125-0.362-0.359-0.362-0.626 0-0.050 0.005-0.099 0.015-0.146 0.008-0.040 0.021-0.077 0.035-0.114 0.003-0.007 0.004-0.014 0.007-0.022 0.012-0.028 0.028-0.054 0.043-0.080 0.008-0.014 0.014-0.030 0.023-0.043 0.015-0.022 0.034-0.042 0.051-0.062 0.013-0.015 0.023-0.032 0.037-0.045 0.016-0.016 0.035-0.029 0.052-0.043 0.018-0.015 0.035-0.032 0.055-0.045 0.016-0.011 0.034-0.018 0.051-0.028 0.024-0.014 0.046-0.029 0.072-0.039 0.020-0.008 0.041-0.013 0.061-0.019 0.025-0.008 0.048-0.018 0.074-0.023 0.022-0.005 0.046-0.005 0.069-0.007 0.026-0.003 0.050-0.008 0.076-0.008 0.001 0 0.001 0 0.001 0l5.070 0.001c0.001-0.001 0.002-0.001 0.002-0.001zM20.685 13.153c-0.073 0.274-0.036 0.559 0.106 0.804 0.093 0.161 0.227 0.295 0.388 0.388 0.16 0.093 0.344 0.142 0.53 0.142 0.185 0 0.368-0.049 0.529-0.142l4.39-2.534c0.246-0.142 0.421-0.37 0.494-0.645 0.073-0.273 0.035-0.558-0.107-0.803-0.187-0.326-0.539-0.53-0.918-0.53-0.185 0-0.368 0.049-0.529 0.142l-4.39 2.534c-0.245 0.142-0.421 0.37-0.494 0.644zM21.347 12.801l4.391-2.534c0.051-0.030 0.106-0.050 0.16-0.066 0.016-0.005 0.032-0.007 0.049-0.011 0.040-0.009 0.081-0.014 0.121-0.016 0.010-0.001 0.020-0.004 0.030-0.004 0.006 0 0.013 0.002 0.020 0.003 0.053 0.002 0.106 0.007 0.157 0.020 0.003 0.001 0.006 0.001 0.009 0.002 0.054 0.014 0.106 0.037 0.155 0.063 0.014 0.007 0.027 0.017 0.041 0.025 0.036 0.022 0.069 0.047 0.101 0.076 0.013 0.011 0.025 0.022 0.037 0.034 0.040 0.042 0.077 0.087 0.107 0.139 0.2 0.346 0.082 0.787-0.264 0.987l-4.391 2.534c-0.057 0.033-0.118 0.057-0.179 0.073-0.021 0.006-0.043 0.005-0.064 0.008-0.039 0.006-0.078 0.015-0.118 0.015-0.001 0-0.002-0-0.003-0-0.042-0-0.083-0.009-0.125-0.017-0.020-0.004-0.041-0.003-0.061-0.008-0.060-0.017-0.119-0.040-0.173-0.072-0.107-0.061-0.199-0.15-0.264-0.264-0.2-0.346-0.082-0.787 0.264-0.987z" fill="#000000" />
</svg>
