<?xml version="1.0" encoding="utf-8"?>
<!-- Generated by IcoMoon.io -->
<!DOCTYPE svg PUBLIC "-//W3C//DTD SVG 1.1//EN" "http://www.w3.org/Graphics/SVG/1.1/DTD/svg11.dtd">
<svg version="1.1" xmlns="http://www.w3.org/2000/svg" xmlns:xlink="http://www.w3.org/1999/xlink" width="32" height="32" viewBox="0 0 32 32">
<g>
</g>
	<path d="M10.254 24.941c-0.314 0-0.609-0.122-0.832-0.345l-0.786-0.787c-0.462-0.462-0.467-1.219-0.011-1.687l5.61-5.755c0.165-0.169 0.302-0.311 0.403-0.416-0.095-0.096-0.229-0.231-0.42-0.425l-5.59-5.666c-0.46-0.466-0.457-1.222 0.006-1.685l0.782-0.782c0.448-0.448 1.234-0.446 1.679 0.005l5.621 5.69c0.159 0.161 0.306 0.309 0.416 0.421 0.105-0.101 0.247-0.239 0.415-0.405l5.76-5.66c0.224-0.22 0.522-0.342 0.839-0.342 0.321 0 0.621 0.124 0.846 0.349l0.61 0.61c0.462 0.462 0.468 1.219 0.015 1.689l-5.575 5.776c-0.176 0.182-0.307 0.318-0.408 0.421 0.109 0.11 0.252 0.256 0.409 0.415l5.629 5.704c0.46 0.466 0.457 1.222-0.006 1.684l-0.782 0.782c-0.449 0.449-1.234 0.446-1.679-0.005l-5.658-5.727c-0.172-0.174-0.316-0.318-0.422-0.422-0.102 0.102-0.241 0.243-0.413 0.42l-5.613 5.785c-0.223 0.23-0.523 0.357-0.844 0.357zM15.272 15.721c0.055 0.051 0.090 0.122 0.096 0.198 0.013 0.151 0.013 0.151-0.695 0.877l-5.609 5.754c-0.223 0.229-0.221 0.599 0.006 0.826l0.786 0.787c0.215 0.215 0.591 0.212 0.802-0.006l5.613-5.786c0.702-0.724 0.702-0.724 0.853-0.724 0.018 0 0.035 0.002 0.053 0.005 0.116 0.020 0.116 0.020 0.804 0.718l5.658 5.728c0.214 0.217 0.594 0.219 0.81 0.003l0.782-0.782c0.225-0.225 0.226-0.594 0.003-0.821l-5.628-5.703c-0.762-0.772-0.762-0.772-0.682-0.962 0.017-0.040 0.041-0.074 0.070-0.103 0.035-0.036 0.295-0.304 0.606-0.627l5.575-5.776c0.223-0.231 0.219-0.603-0.007-0.83l-0.61-0.61c-0.217-0.217-0.604-0.219-0.822-0.004l-5.76 5.66c-0.714 0.702-0.714 0.702-0.852 0.702-0.064 0-0.127-0.020-0.179-0.058-0.027-0.019-0.030-0.021-0.666-0.666l-5.62-5.69c-0.215-0.217-0.594-0.218-0.81-0.002l-0.782 0.782c-0.225 0.226-0.226 0.594-0.003 0.821l5.591 5.666c0.317 0.321 0.583 0.59 0.618 0.625z" fill="#000000" />
</svg>
