<?xml version="1.0" encoding="utf-8"?>
<!-- Generated by IcoMoon.io -->
<!DOCTYPE svg PUBLIC "-//W3C//DTD SVG 1.1//EN" "http://www.w3.org/Graphics/SVG/1.1/DTD/svg11.dtd">
<svg version="1.1" xmlns="http://www.w3.org/2000/svg" xmlns:xlink="http://www.w3.org/1999/xlink" width="32" height="32" viewBox="0 0 32 32">
<g>
</g>
	<path d="M30 16.669v-1.331c0-0.363-0.131-0.675-0.394-0.938s-0.575-0.394-0.938-0.394h-10.669v-10.65c0-0.362-0.131-0.675-0.394-0.938s-0.575-0.394-0.938-0.394h-1.331c-0.363 0-0.675 0.131-0.938 0.394s-0.394 0.575-0.394 0.938v10.644h-10.675c-0.362 0-0.675 0.131-0.938 0.394s-0.394 0.575-0.394 0.938v1.331c0 0.363 0.131 0.675 0.394 0.938s0.575 0.394 0.938 0.394h10.669v10.644c0 0.363 0.131 0.675 0.394 0.938 0.262 0.262 0.575 0.394 0.938 0.394h1.331c0.363 0 0.675-0.131 0.938-0.394s0.394-0.575 0.394-0.938v-10.637h10.669c0.363 0 0.675-0.131 0.938-0.394 0.269-0.262 0.4-0.575 0.4-0.938z" fill="#000000" />
</svg>
