<?xml version="1.0" encoding="utf-8"?>
<!-- Generated by IcoMoon.io -->
<!DOCTYPE svg PUBLIC "-//W3C//DTD SVG 1.1//EN" "http://www.w3.org/Graphics/SVG/1.1/DTD/svg11.dtd">
<svg version="1.1" xmlns="http://www.w3.org/2000/svg" xmlns:xlink="http://www.w3.org/1999/xlink" width="32" height="32" viewBox="0 0 32 32">
<g>
</g>
	<path d="M19.25 22.55v3.769c0 0.8-0.306 1.194-0.769 1.194-0.275 0-0.6-0.131-0.863-0.394v-5.375c0.262-0.262 0.587-0.394 0.863-0.394 0.462 0.006 0.769 0.4 0.769 1.2v0zM25.644 22.569v0.819h-1.606v-0.819c0-0.806 0.269-1.212 0.806-1.212 0.531 0 0.8 0.4 0.8 1.212v0zM8.256 18.675h1.394v-1.681h-4.813v1.681h1.6v10.162h1.613v-10.163h0.206zM12.856 28.837h1.594v-8.825h-1.594v6.75c-0.356 0.5-0.694 0.75-1.019 0.75-0.438 0-0.594-0.394-0.594-1v-6.5h-1.594v7.463c0 0.8 0.438 1.481 1.381 1.481 0.569 0 1.181-0.363 1.819-1.087l0.006 0.969zM20.837 26.194v-3.519c0-0.869-0.056-1.456-0.163-1.769-0.2-0.669-0.625-1-1.269-1-0.594 0-1.275 0.319-1.788 0.962v-3.875h-1.575v11.837h1.575v-0.856c0.538 0.656 1.219 0.981 1.788 0.981 0.644 0 1.063-0.325 1.269-0.981 0.113-0.319 0.163-0.913 0.163-1.781v0zM27.231 26.012v-0.231h-1.606c0 0.606-0.012 0.969-0.038 1.087-0.081 0.431-0.337 0.644-0.731 0.644-0.55 0-0.819-0.413-0.819-1.231v-1.556h3.194v-1.837c0-0.938-0.163-1.631-0.481-2.069-0.462-0.606-1.094-0.913-1.894-0.913-0.806 0-1.444 0.306-1.913 0.913-0.331 0.444-0.5 1.131-0.5 2.069v3.087c0 0.938 0.175 1.631 0.519 2.069 0.462 0.606 1.106 0.913 1.931 0.913 0.856 0 1.5-0.313 1.931-0.944 0.212-0.319 0.337-0.644 0.375-0.962 0.025-0.106 0.031-0.45 0.031-1.038v0zM16.044 9.338v-3.75c0-0.819-0.287-1.231-0.8-1.231s-0.813 0.412-0.813 1.231v3.75c0 0.831 0.287 1.25 0.8 1.25s0.813-0.419 0.813-1.25zM30.438 23.169c0 2.788-0.156 4.444-0.462 5.825-0.169 0.7-0.512 1.294-1.038 1.769-0.525 0.475-1.131 0.75-1.819 0.819-2.188 0.25-6.65 0.375-11.069 0.375s-8.894-0.125-11.081-0.375c-0.694-0.069-1.3-0.344-1.831-0.819-0.531-0.475-0.869-1.063-1.025-1.769-0.306-1.331-0.462-2.994-0.462-5.825 0-2.788 0.156-4.45 0.462-5.825 0.169-0.7 0.512-1.294 1.038-1.769 0.525-0.475 1.138-0.756 1.838-0.838 2.181-0.238 6.65-0.356 11.069-0.356s8.875 0.119 11.069 0.356c0.694 0.081 1.3 0.363 1.831 0.838 0.531 0.475 0.869 1.063 1.025 1.769 0.3 1.331 0.456 2.994 0.456 5.825zM9.975-0.037h1.819l-2.162 7.125v4.838h-1.613v-4.838c-0.169-0.881-0.706-2.144-1.263-3.788-0.444-1.225-0.825-2.337-1.163-3.337h1.894l1.269 4.694 1.219-4.694zM17.637 5.906v3.125c0 0.963-0.231 1.669-0.569 2.106-0.444 0.606-1.019 0.912-1.838 0.912-0.8 0-1.475-0.306-1.931-0.912-0.331-0.45-0.469-1.156-0.469-2.106v-3.125c0-0.95 0.131-1.65 0.469-2.087 0.45-0.606 1.119-0.913 1.919-0.913 0.819 0 1.406 0.306 1.85 0.913 0.331 0.444 0.569 1.137 0.569 2.087zM24.050 3.019v8.912h-1.625v-0.981c-0.35 0.675-1.069 1.106-1.569 1.106-1.075 0-1.637-0.887-1.637-2v-7.037h1.625v6.556c0 0.656 0.363 1.019 0.719 1.019 0.375 0 0.625-0.269 0.869-0.769v-6.806c-0.006 0 1.619 0 1.619 0z" fill="#000000" />
</svg>
