<?xml version="1.0" encoding="utf-8"?>
<!-- Generated by IcoMoon.io -->
<!DOCTYPE svg PUBLIC "-//W3C//DTD SVG 1.1//EN" "http://www.w3.org/Graphics/SVG/1.1/DTD/svg11.dtd">
<svg version="1.1" xmlns="http://www.w3.org/2000/svg" xmlns:xlink="http://www.w3.org/1999/xlink" width="32" height="32" viewBox="0 0 32 32">
<g>
</g>
	<path d="M24.394 1.813c-1.938-1.206-3.931-1.8-6-1.781-2.106 0.019-3.838 0.7-5.206 2.031-1.369 1.337-2.094 3.044-2.169 5.15-0.081 2.438 0.706 4.813 2.287 7.031l-11.381 11.056c-0.375 0.363-0.563 0.813-0.581 1.325-0.019 0.544 0.219 1.063 0.706 1.563 0.487 0.5 1 0.75 1.544 0.744 0.519-0.006 0.963-0.188 1.337-0.55l2.269-2.244 1.5 1.538-1.006 0.981c-0.331 0.325-0.35 0.85-0.037 1.169l1.925 1.975c0.313 0.319 0.831 0.312 1.169-0.012l5.231-5.106c0.331-0.325 0.35-0.85 0.038-1.169l-1.925-1.975c-0.313-0.319-0.831-0.313-1.169 0.012l-1.006 0.981-1.506-1.544 5.9-5.669c2.225 1.681 4.538 2.488 6.975 2.462 2.106-0.019 3.837-0.7 5.206-2.031 1.369-1.337 2.087-3.056 2.163-5.156 0.069-2.063-0.469-4.075-1.631-6.037-1.156-1.956-2.7-3.538-4.631-4.744zM23.75 7.106c2.744 2.825 3.65 6.388 2.038 7.956s-5.15 0.556-7.894-2.269-3.65-6.388-2.037-7.956 5.156-0.556 7.894 2.269z" fill="#000000" />
</svg>
