<?xml version="1.0" encoding="utf-8"?>
<!-- Generated by IcoMoon.io -->
<!DOCTYPE svg PUBLIC "-//W3C//DTD SVG 1.1//EN" "http://www.w3.org/Graphics/SVG/1.1/DTD/svg11.dtd">
<svg version="1.1" xmlns="http://www.w3.org/2000/svg" xmlns:xlink="http://www.w3.org/1999/xlink" width="32" height="32" viewBox="0 0 32 32">
<g>
</g>
	<path d="M20 25.606c0 0.8-0.512 1.075-1 1.075-0.288 0-0.988-0.344-0.988-1.113v-3.563c0-0.481 0.2-1.481 0.969-1.481 0.475 0 1.019 0.294 1.019 1.481v3.6zM27.994 21.731v0.819h-1.988v-0.819c-0.044-0.806 0.294-1.212 0.975-1.212 0.675 0 1.012 0.406 1.012 1.212v0zM8 18v-2h-6v2h2v10h2v-10h2zM12 28h2.019v-8.819h-2.019v5.863c0 1.019-0.6 1.519-1.144 1.519-0.606 0-0.856-0.5-0.856-0.881v-6.5h-1.981v6.981c0 1.587 1.4 1.962 1.981 1.962 0.769 0 1.519-0.375 2-1.087v0.962zM21.981 21.5c0-1.738-0.956-2.431-1.981-2.431-0.644 0-1.481 0.262-2.019 0.962v-4.031h-1.981v12h1.981v-0.856c0.569 0.656 1.231 0.981 2.044 0.981 1.106 0 1.956-0.688 1.956-2.481v-4.144zM30 25.413v-0.231h-2c0 0.606-0.012 0.738-0.044 0.856-0.106 0.431-0.456 0.644-0.95 0.644-0.688 0-0.994-0.413-0.994-1.231v-1.431h3.988v-1.962c0-0.938-0.2-1.631-0.606-2.069-0.587-0.606-1.381-0.913-2.387-0.913-1.019 0-1.825 0.306-2.413 0.913-0.419 0.444-0.587 1.131-0.587 2.069v3.087c0 0.938 0.175 1.631 0.613 2.069 0.587 0.606 1.394 0.913 2.431 0.913 1.081 0 1.894-0.313 2.431-0.944 0.269-0.319 0.425-0.644 0.475-0.962 0.025-0.113 0.044-0.225 0.044-0.806v0zM16.012 9.394v-3.787c0-0.831-0.338-1.244-1.006-1.244s-1.006 0.412-1.006 1.244v3.787c0 0.844 0.338 1.262 1.006 1.262 0.675 0 1.006-0.419 1.006-1.262zM32 22.788c0 2.788-0.163 4.869-0.488 6.25-0.175 0.7-0.544 1.294-1.094 1.769-0.556 0.475-1.194 0.75-1.925 0.819-2.313 0.25-7.844 0.375-12.512 0.375s-10.156-0.125-12.475-0.375c-0.731-0.069-1.375-0.344-1.931-0.819-0.556-0.475-0.919-1.063-1.087-1.769-0.325-1.337-0.487-3.419-0.487-6.25 0-2.788 0.163-4.869 0.487-6.25 0.175-0.7 0.544-1.294 1.094-1.769s1.2-0.756 1.944-0.838c2.3-0.238 7.787-0.356 12.456-0.356s10.194 0.119 12.512 0.356c0.731 0.081 1.375 0.363 1.931 0.838 0.556 0.475 0.919 1.063 1.087 1.769 0.325 1.331 0.488 3.413 0.488 6.25zM5.588 0h2.063l1.338 4.694 1.281-4.694h1.925l-2.188 7.125-0.006 4.875h-2l-0.006-4.875-2.406-7.125zM18.012 5.931v3.156c0 1.912-0.8 3.050-3.012 3.050-1.925 0-2.994-1.088-2.994-3.050v-3.156c0-1.775 0.944-3.031 2.994-3.031 1.969 0 3.012 1.225 3.012 3.031zM26.006 3.056l-0.006 8.944h-2v-1.019c-0.8 0.738-1.731 1.106-2.494 1.106-0.694 0-1.144-0.219-1.337-0.662-0.119-0.287-0.181-0.731-0.181-1.338v-7.031h2.012v6.556c0 0.394 0.063 0.6 0.075 0.625 0.044 0.262 0.206 0.394 0.475 0.394 0.406 0 0.994-0.256 1.45-0.769v-6.806c0 0 2.006 0 2.006 0z" fill="#000000" />
</svg>
