<?xml version="1.0" encoding="utf-8"?>
<!-- Generated by IcoMoon.io -->
<!DOCTYPE svg PUBLIC "-//W3C//DTD SVG 1.1//EN" "http://www.w3.org/Graphics/SVG/1.1/DTD/svg11.dtd">
<svg version="1.1" xmlns="http://www.w3.org/2000/svg" xmlns:xlink="http://www.w3.org/1999/xlink" width="32" height="32" viewBox="0 0 32 32">
<g>
</g>
	<path d="M27.044 30.031h-26.044c-0.55 0-1-0.45-1-1v-24c0-0.55 0.45-1 1-1h9.25l-3.75 4h-2.5v18h20.063v-7l3.981-3.194v13.194c0 0.556-0.45 1-1 1z" fill="#000000" />
	<path d="M19.631 4.025c-6.456 0-11.594 4.975-11.594 11.438 0 2.531 0.956 4.894 1.875 6.562 1.5-5.813 5.181-10.012 10.675-10.012 0.244 0 1.156-0.012 1.394 0v4.094l10.019-8.037-10.019-8.069v4.025h-2.35z" fill="#000000" />
</svg>
