<?xml version="1.0" encoding="utf-8"?>
<!-- Generated by IcoMoon.io -->
<!DOCTYPE svg PUBLIC "-//W3C//DTD SVG 1.1//EN" "http://www.w3.org/Graphics/SVG/1.1/DTD/svg11.dtd">
<svg version="1.1" xmlns="http://www.w3.org/2000/svg" xmlns:xlink="http://www.w3.org/1999/xlink" width="32" height="32" viewBox="0 0 32 32">
<g>
</g>
	<path d="M30.286 6.857q0.714 0 1.214 0.5t0.5 1.214v21.714q0 0.714-0.5 1.214t-1.214 0.5h-17.143q-0.714 0-1.214-0.5t-0.5-1.214v-5.143h-9.714q-0.714 0-1.214-0.5t-0.5-1.214v-12q0-0.714 0.357-1.571t0.857-1.357l7.286-7.286q0.5-0.5 1.357-0.857t1.571-0.357h7.429q0.714 0 1.214 0.5t0.5 1.214v5.857q1.214-0.714 2.286-0.714h7.429zM20.571 10.661l-5.339 5.339h5.339v-5.339zM9.143 3.804l-5.339 5.339h5.339v-5.339zM12.643 15.357l5.643-5.643v-7.429h-6.857v7.429q0 0.714-0.5 1.214t-1.214 0.5h-7.429v11.429h9.143v-4.571q0-0.714 0.357-1.571t0.857-1.357zM29.714 29.714v-20.571h-6.857v7.429q0 0.714-0.5 1.214t-1.214 0.5h-7.429v11.429h16z" fill="#000000" />
</svg>
