<?xml version="1.0" encoding="utf-8"?>
<!-- Generated by IcoMoon.io -->
<!DOCTYPE svg PUBLIC "-//W3C//DTD SVG 1.1//EN" "http://www.w3.org/Graphics/SVG/1.1/DTD/svg11.dtd">
<svg version="1.1" xmlns="http://www.w3.org/2000/svg" xmlns:xlink="http://www.w3.org/1999/xlink" width="32" height="32" viewBox="0 0 32 32">
<g>
</g>
	<path d="M9.631 26.194c0 2.109-1.71 3.819-3.819 3.819-2.109 0-3.819-1.71-3.819-3.819 0-2.109 1.71-3.819 3.819-3.819 2.109 0 3.819 1.71 3.819 3.819z" fill="#000000" />
	<path d="M2 12.144c9.863 0 17.856 7.994 17.856 17.856h-5.206c0-6.981-5.662-12.644-12.644-12.644v-5.213z" fill="#000000" />
	<path d="M2 2.019c15.45 0 27.981 12.525 27.981 27.981h-5.375c0-12.481-10.119-22.606-22.606-22.606v-5.375z" fill="#000000" />
</svg>
