<?xml version="1.0" encoding="utf-8"?>
<!-- Generated by IcoMoon.io -->
<!DOCTYPE svg PUBLIC "-//W3C//DTD SVG 1.1//EN" "http://www.w3.org/Graphics/SVG/1.1/DTD/svg11.dtd">
<svg version="1.1" xmlns="http://www.w3.org/2000/svg" xmlns:xlink="http://www.w3.org/1999/xlink" width="32" height="32" viewBox="0 0 32 32">
<g>
</g>
	<path d="M6.631 25.238h4.125v-12.381h-4.125c0 0 0 12.381 0 12.381zM11.019 9.037c-0.012-0.619-0.225-1.131-0.644-1.537-0.419-0.406-0.969-0.606-1.662-0.606-0.688 0-1.25 0.2-1.688 0.606-0.438 0.406-0.65 0.919-0.65 1.537 0 0.606 0.213 1.119 0.631 1.525s0.975 0.613 1.65 0.613h0.019c0.7 0 1.269-0.206 1.694-0.613s0.65-0.919 0.65-1.525v0zM21.462 25.238h4.125v-7.1c0-1.831-0.438-3.219-1.306-4.156s-2.019-1.412-3.444-1.412c-1.619 0-2.863 0.694-3.731 2.088h0.038v-1.8h-4.125c0.037 0.787 0.037 4.913 0 12.387h4.125v-6.931c0-0.45 0.044-0.788 0.125-1 0.181-0.419 0.444-0.769 0.806-1.063 0.356-0.294 0.8-0.438 1.319-0.438 1.381 0 2.069 0.931 2.069 2.8v6.625zM29.813 7.431v17.131c0 1.419-0.5 2.625-1.506 3.631s-2.219 1.506-3.631 1.506h-17.137c-1.419 0-2.625-0.5-3.631-1.506-1-1.006-1.506-2.212-1.506-3.631v-17.131c0-1.419 0.5-2.625 1.506-3.631s2.219-1.512 3.631-1.512h17.131c1.419 0 2.625 0.5 3.631 1.506 1.012 1.012 1.512 2.219 1.512 3.637z" fill="#000000" />
</svg>
