<?xml version="1.0" encoding="utf-8"?>
<!-- Generated by IcoMoon.io -->
<!DOCTYPE svg PUBLIC "-//W3C//DTD SVG 1.1//EN" "http://www.w3.org/Graphics/SVG/1.1/DTD/svg11.dtd">
<svg version="1.1" xmlns="http://www.w3.org/2000/svg" xmlns:xlink="http://www.w3.org/1999/xlink" width="32" height="32" viewBox="0 0 32 32">
<g>
</g>
	<path d="M8.081 18.006c0-1.106 0.894-2 2-2s2 0.894 2 2c0 1.106-0.894 2-2 2s-2-0.894-2-2zM20.075 18.006c0-1.106 0.894-2 2-2s2 0.894 2 2c0 1.106-0.894 2-2 2-1.106 0-2-0.894-2-2zM20.169 22.275c0.512-0.406 1.262-0.319 1.669 0.2 0.406 0.512 0.319 1.262-0.2 1.669-1.431 1.131-3.619 1.856-5.563 1.856s-4.131-0.731-5.563-1.856c-0.512-0.406-0.606-1.15-0.2-1.669 0.406-0.512 1.15-0.606 1.669-0.2 0.825 0.65 2.456 1.35 4.094 1.35s3.269-0.694 4.094-1.35zM32.069 14.006c0-2.206-1.788-4-4-4-1.5 0-2.813 0.831-3.494 2.056-2.056-1.125-4.556-1.85-7.288-2.019l2.387-5.356 4.569 1.319c0.413 1.169 1.519 2 2.831 2 1.656 0 3-1.344 3-3s-1.344-3-3-3c-1.144 0-2.137 0.638-2.637 1.575l-5.094-1.456c-0.569-0.163-1.175 0.119-1.413 0.656l-3.244 7.281c-2.656 0.188-5.1 0.906-7.112 2.006-0.681-1.225-1.994-2.056-3.494-2.056-2.206 0-4 1.787-4 4 0 1.631 0.981 3.038 2.388 3.656-0.25 0.75-0.388 1.531-0.388 2.337 0 5.519 6.263 9.994 13.994 9.994s13.994-4.475 13.994-9.994c0-0.806-0.131-1.587-0.387-2.337 1.406-0.619 2.387-2.025 2.387-3.662v0zM27.069 3.888c0.619 0 1.125 0.506 1.125 1.125s-0.506 1.125-1.125 1.125c-0.619 0-1.125-0.506-1.125-1.125s0.506-1.125 1.125-1.125zM2.087 14.006c0-1.1 0.894-2 2-2 0.794 0 1.487 0.469 1.806 1.144-1.044 0.794-1.913 1.706-2.55 2.706-0.737-0.287-1.256-1.006-1.256-1.85zM16.075 27.625c-6.419 0-11.619-3.413-11.619-7.619s5.2-7.619 11.619-7.619 11.619 3.412 11.619 7.619-5.2 7.619-11.619 7.619zM28.813 15.863c-0.637-1-1.506-1.919-2.55-2.706 0.319-0.675 1.012-1.144 1.806-1.144 1.1 0 2 0.894 2 2 0 0.838-0.519 1.556-1.256 1.85z" fill="#000000" />
</svg>
