<?xml version="1.0" encoding="utf-8"?>
<!-- Generated by IcoMoon.io -->
<!DOCTYPE svg PUBLIC "-//W3C//DTD SVG 1.1//EN" "http://www.w3.org/Graphics/SVG/1.1/DTD/svg11.dtd">
<svg version="1.1" xmlns="http://www.w3.org/2000/svg" xmlns:xlink="http://www.w3.org/1999/xlink" width="32" height="32" viewBox="0 0 32 32">
<g>
</g>
	<path d="M16.019 0.331c-4.444 0.988-8.844 5.494-9.744 9.956-0.719 3.569 0.019 6.95 1.731 9.65l-7.612 7.619c-0.537 0.538-0.537 1.4 0 1.938l2.081 2.081c0.538 0.537 1.4 0.537 1.938 0l7.606-7.606c2.706 1.731 6.1 2.481 9.675 1.762 4.95-0.994 8.881-4.819 9.981-9.75 2.1-9.488-6.169-17.756-15.656-15.65zM27.25 13c0 4.556-3.694 8.25-8.25 8.25s-8.25-3.694-8.25-8.25 3.694-8.25 8.25-8.25 8.25 3.694 8.25 8.25z" fill="#000000" />
</svg>
