<?xml version="1.0" encoding="utf-8"?>
<!-- Generated by IcoMoon.io -->
<!DOCTYPE svg PUBLIC "-//W3C//DTD SVG 1.1//EN" "http://www.w3.org/Graphics/SVG/1.1/DTD/svg11.dtd">
<svg version="1.1" xmlns="http://www.w3.org/2000/svg" xmlns:xlink="http://www.w3.org/1999/xlink" width="16" height="16" viewBox="0 0 16 16">
<g>
</g>
	<path d="M3.429 10.571v0.571q0 0.116-0.085 0.201t-0.201 0.085h-0.571q-0.116 0-0.201-0.085t-0.085-0.201v-0.571q0-0.116 0.085-0.201t0.201-0.085h0.571q0.116 0 0.201 0.085t0.085 0.201zM3.429 8.286v0.571q0 0.116-0.085 0.201t-0.201 0.085h-0.571q-0.116 0-0.201-0.085t-0.085-0.201v-0.571q0-0.116 0.085-0.201t0.201-0.085h0.571q0.116 0 0.201 0.085t0.085 0.201zM3.429 6v0.571q0 0.116-0.085 0.201t-0.201 0.085h-0.571q-0.116 0-0.201-0.085t-0.085-0.201v-0.571q0-0.116 0.085-0.201t0.201-0.085h0.571q0.116 0 0.201 0.085t0.085 0.201zM13.714 10.571v0.571q0 0.116-0.085 0.201t-0.201 0.085h-8.571q-0.116 0-0.201-0.085t-0.085-0.201v-0.571q0-0.116 0.085-0.201t0.201-0.085h8.571q0.116 0 0.201 0.085t0.085 0.201zM13.714 8.286v0.571q0 0.116-0.085 0.201t-0.201 0.085h-8.571q-0.116 0-0.201-0.085t-0.085-0.201v-0.571q0-0.116 0.085-0.201t0.201-0.085h8.571q0.116 0 0.201 0.085t0.085 0.201zM13.714 6v0.571q0 0.116-0.085 0.201t-0.201 0.085h-8.571q-0.116 0-0.201-0.085t-0.085-0.201v-0.571q0-0.116 0.085-0.201t0.201-0.085h8.571q0.116 0 0.201 0.085t0.085 0.201zM14.857 12.286v-7.429q0-0.116-0.085-0.201t-0.201-0.085h-13.143q-0.116 0-0.201 0.085t-0.085 0.201v7.429q0 0.116 0.085 0.201t0.201 0.085h13.143q0.116 0 0.201-0.085t0.085-0.201zM16 2.571v9.714q0 0.589-0.42 1.009t-1.009 0.42h-13.143q-0.589 0-1.009-0.42t-0.42-1.009v-9.714q0-0.589 0.42-1.009t1.009-0.42h13.143q0.589 0 1.009 0.42t0.42 1.009z" fill="#000000" />
</svg>
