<?xml version="1.0" encoding="utf-8"?>
<!-- Generated by IcoMoon.io -->
<!DOCTYPE svg PUBLIC "-//W3C//DTD SVG 1.1//EN" "http://www.w3.org/Graphics/SVG/1.1/DTD/svg11.dtd">
<svg version="1.1" xmlns="http://www.w3.org/2000/svg" xmlns:xlink="http://www.w3.org/1999/xlink" width="32" height="32" viewBox="0 0 32 32">
<g>
</g>
	<path d="M22.8 19.85l-3.044 3.044c-0.137 0.137-0.3 0.206-0.481 0.206s-0.337-0.069-0.481-0.206l-2.856-2.856-2.856 2.856c-0.137 0.137-0.3 0.206-0.481 0.206s-0.338-0.069-0.481-0.206l-3.044-3.044c-0.137-0.137-0.206-0.3-0.206-0.481s0.069-0.337 0.206-0.481l2.856-2.856-2.856-2.856c-0.137-0.137-0.206-0.3-0.206-0.481 0-0.181 0.069-0.338 0.206-0.481l3.044-3.044c0.137-0.137 0.3-0.206 0.481-0.206s0.338 0.069 0.481 0.206l2.856 2.856 2.856-2.856c0.137-0.137 0.3-0.206 0.481-0.206s0.337 0.069 0.481 0.206l3.044 3.044c0.137 0.137 0.206 0.3 0.206 0.481 0 0.181-0.069 0.338-0.206 0.481l-2.856 2.856 2.856 2.856c0.137 0.137 0.206 0.3 0.206 0.481s-0.069 0.344-0.206 0.481zM27.275 16.038c0-2.056-0.506-3.95-1.519-5.688s-2.387-3.112-4.125-4.125-3.631-1.519-5.688-1.519-3.95 0.506-5.688 1.519-3.112 2.387-4.125 4.125-1.519 3.631-1.519 5.688c0 2.056 0.506 3.95 1.519 5.688 1.013 1.738 2.387 3.113 4.125 4.125s3.631 1.519 5.688 1.519 3.95-0.506 5.688-1.519c1.738-1.012 3.113-2.387 4.125-4.125 1.012-1.738 1.519-3.631 1.519-5.688zM31.944 16.038c0 2.9-0.712 5.581-2.144 8.031-1.431 2.45-3.369 4.394-5.825 5.825s-5.131 2.144-8.031 2.144c-2.9 0-5.581-0.712-8.031-2.144s-4.394-3.369-5.825-5.825-2.144-5.131-2.144-8.031 0.713-5.581 2.144-8.031 3.369-4.394 5.825-5.825 5.131-2.144 8.031-2.144 5.581 0.713 8.031 2.144 4.394 3.369 5.825 5.825c1.431 2.45 2.144 5.125 2.144 8.031z" fill="#000000" />
</svg>
