<?xml version="1.0" encoding="utf-8"?>
<!-- Generated by IcoMoon.io -->
<!DOCTYPE svg PUBLIC "-//W3C//DTD SVG 1.1//EN" "http://www.w3.org/Graphics/SVG/1.1/DTD/svg11.dtd">
<svg version="1.1" xmlns="http://www.w3.org/2000/svg" xmlns:xlink="http://www.w3.org/1999/xlink" width="32" height="32" viewBox="0 0 32 32">
<g>
</g>
	<path d="M30.231 6.713c-0.794 1.169-1.762 2.156-2.894 2.981 0.012 0.169 0.019 0.419 0.019 0.75 0 1.544-0.225 3.088-0.681 4.631-0.45 1.544-1.137 3.019-2.063 4.431-0.925 1.413-2.019 2.669-3.294 3.756-1.275 1.087-2.806 1.956-4.606 2.606-1.794 0.65-3.719 0.969-5.762 0.975-3.225 0-6.175-0.863-8.85-2.587 0.419 0.050 0.881 0.069 1.394 0.069 2.675 0 5.062-0.819 7.156-2.462-1.25-0.025-2.369-0.406-3.356-1.15s-1.669-1.694-2.038-2.844c0.394 0.056 0.756 0.087 1.088 0.087 0.513 0 1.019-0.063 1.519-0.194-1.331-0.275-2.438-0.938-3.313-1.988s-1.313-2.275-1.313-3.669v-0.069c0.806 0.45 1.675 0.694 2.606 0.731-0.787-0.525-1.412-1.206-1.875-2.050-0.462-0.844-0.694-1.762-0.694-2.75 0-1.044 0.263-2.019 0.788-2.906 1.438 1.775 3.194 3.194 5.256 4.256s4.275 1.656 6.631 1.775c-0.094-0.45-0.144-0.894-0.144-1.319 0-1.594 0.562-2.956 1.687-4.075 1.125-1.125 2.481-1.688 4.075-1.688 1.669 0 3.069 0.606 4.213 1.819 1.294-0.25 2.519-0.713 3.656-1.394-0.438 1.369-1.288 2.425-2.538 3.175 1.113-0.125 2.219-0.425 3.331-0.9v0z" fill="#000000" />
</svg>
