<?xml version="1.0" encoding="utf-8"?>
<!-- Generated by IcoMoon.io -->
<!DOCTYPE svg PUBLIC "-//W3C//DTD SVG 1.1//EN" "http://www.w3.org/Graphics/SVG/1.1/DTD/svg11.dtd">
<svg version="1.1" xmlns="http://www.w3.org/2000/svg" xmlns:xlink="http://www.w3.org/1999/xlink" width="32" height="32" viewBox="0 0 32 32">
<g>
</g>
	<path d="M30.056 26c1.081 0 1.944-0.894 1.944-1.981v-20.063c0-1.081-0.869-1.956-1.956-1.956h-28.075c-1.081 0-1.969 0.875-1.969 1.962v20.1c0 1.081 0.887 1.938 1.969 1.938h2.031v4.9c0 0.75 0.4 1.1 0.944 1.1 4.419 0 7.475-2.625 9.125-6h16zM12 22.063c-0.938 4.313-4 4.881-4 4.881v-4.881h-4.063v-16.063h24.063v16.063h-16z" fill="#000000" />
</svg>
