<?xml version="1.0" encoding="utf-8"?>
<!-- Generated by IcoMoon.io -->
<!DOCTYPE svg PUBLIC "-//W3C//DTD SVG 1.1//EN" "http://www.w3.org/Graphics/SVG/1.1/DTD/svg11.dtd">
<svg version="1.1" xmlns="http://www.w3.org/2000/svg" xmlns:xlink="http://www.w3.org/1999/xlink" width="32" height="32" viewBox="0 0 32 32">
<g>
</g>
	<path d="M16 0c-8.838 0-16 7.162-16 16s7.162 16 16 16 16-7.163 16-16-7.163-16-16-16zM9.656 3.875c3.425 0.825 1.887 2.6 3.188 3.188s0.475-1.775 2.006-1.537 4.25 1.888 4.25 2.481-2.137 1.037-3.188 1.656c-1.050 0.619-0.475 1.419-1.419 2.481-0.525 0.594 0.238 2.6-0.475 2.6-0.706 0-0.594-1.419-2.244-1.063-1.037 0.225-2.794 1.319-2.794 2.088s1.613 0.988 1.963 0.988c0.356 0 0.713-0.65 1.656-0.706 0.919-0.056 0.706 2.481 1.887 2.837 0.45 0.137 1.888-0.119 2.362-0.594 0.475-0.475 2.15-0.781 4.156-0.781s3.544 1.775 4.019 1.775c0.475 0 2.719-0.594 2.719 0.475s-1.45 3.256-2.5 4.681c-0.7 0.95-3.438 2.294-4.5 4.069-0.406 0.337-1.531 0.712-1.887 0.706 0.119-0.825 0.125-1.706 0.125-3.125s-3.775-2.844-3.775-3.906 0.706-0.356 0.706-1.656c0-1.3-1.181-0.475-2.006-0.944-0.825-0.475-0.594-0.706-1.537-1.3s-2.612 0.137-4.625-1.163-2.481-4.606-2.481-5.319c0-0.706 0.725-1.906 1.431-3.088s0.944-2.6 0.594-3.069c0.463-0.588 1.35-1.269 2.369-1.775z" fill="#000000" />
</svg>
