<?xml version="1.0" encoding="utf-8"?>
<!-- Generated by IcoMoon.io -->
<!DOCTYPE svg PUBLIC "-//W3C//DTD SVG 1.1//EN" "http://www.w3.org/Graphics/SVG/1.1/DTD/svg11.dtd">
<svg version="1.1" xmlns="http://www.w3.org/2000/svg" xmlns:xlink="http://www.w3.org/1999/xlink" width="32" height="32" viewBox="0 0 32 32">
<g>
</g>
	<path d="M15.631 26.163c0-0.25-0.025-0.494-0.081-0.725-0.056-0.231-0.113-0.444-0.169-0.644-0.063-0.194-0.162-0.4-0.313-0.613-0.15-0.212-0.275-0.394-0.375-0.544-0.1-0.15-0.256-0.325-0.475-0.525-0.213-0.2-0.375-0.356-0.494-0.456-0.113-0.1-0.306-0.25-0.569-0.456-0.269-0.2-0.45-0.337-0.556-0.413s-0.3-0.206-0.588-0.413-0.475-0.325-0.544-0.375c-0.2-0.025-0.5-0.038-0.894-0.038-0.644 0-1.275 0.044-1.894 0.125-0.619 0.081-1.263 0.231-1.925 0.444-0.669 0.212-1.25 0.488-1.75 0.819-0.5 0.331-0.912 0.781-1.231 1.337-0.319 0.556-0.481 1.194-0.481 1.913 0 0.806 0.212 1.531 0.631 2.169s0.975 1.137 1.663 1.5c0.681 0.363 1.4 0.631 2.15 0.813 0.75 0.181 1.506 0.269 2.269 0.269 0.7 0 1.369-0.075 2.006-0.225 0.637-0.15 1.231-0.381 1.794-0.694 0.563-0.313 1-0.75 1.331-1.313 0.331-0.55 0.494-1.206 0.494-1.956zM13.494 10.781c0-0.713-0.1-1.475-0.294-2.275-0.194-0.806-0.475-1.581-0.838-2.331-0.363-0.75-0.863-1.369-1.5-1.856-0.637-0.487-1.35-0.731-2.131-0.731-1.106 0-1.963 0.413-2.569 1.231-0.612 0.825-0.912 1.806-0.912 2.944 0 0.556 0.069 1.15 0.206 1.769 0.138 0.619 0.35 1.238 0.631 1.856 0.287 0.619 0.619 1.175 1 1.669 0.381 0.494 0.844 0.894 1.394 1.206 0.55 0.306 1.125 0.463 1.731 0.463 1.156 0 1.988-0.363 2.506-1.081s0.775-1.675 0.775-2.862zM11.156 2.306h7.8l-2.413 1.413h-2.412c0.844 0.537 1.5 1.287 1.963 2.25s0.694 1.969 0.694 3.019c0 0.881-0.137 1.662-0.413 2.344-0.275 0.681-0.606 1.238-1 1.65-0.394 0.419-0.787 0.8-1.181 1.15-0.394 0.35-0.725 0.713-1 1.088s-0.412 0.775-0.412 1.206c0 0.306 0.1 0.613 0.294 0.913 0.194 0.3 0.45 0.581 0.769 0.856 0.313 0.275 0.662 0.556 1.044 0.856s0.762 0.625 1.144 0.988c0.381 0.363 0.731 0.756 1.044 1.181 0.319 0.425 0.569 0.931 0.769 1.519 0.194 0.587 0.294 1.225 0.294 1.9 0 1.906-0.831 3.581-2.5 5.031-1.806 1.556-4.306 2.338-7.494 2.338-0.7 0-1.412-0.063-2.131-0.181s-1.444-0.319-2.175-0.6c-0.731-0.281-1.375-0.625-1.938-1.038-0.556-0.413-1.019-0.938-1.375-1.587-0.344-0.65-0.525-1.369-0.525-2.169 0-0.725 0.219-1.531 0.662-2.413 0.381-0.762 0.95-1.419 1.712-1.969s1.625-0.975 2.587-1.269 1.888-0.506 2.769-0.644 1.775-0.219 2.675-0.244c-0.762-0.988-1.144-1.875-1.144-2.656 0-0.144 0.012-0.281 0.037-0.419 0.025-0.137 0.056-0.256 0.088-0.35 0.037-0.094 0.081-0.225 0.144-0.381 0.063-0.162 0.1-0.287 0.125-0.381-0.475 0.056-0.894 0.088-1.25 0.088-1.775 0-3.294-0.581-4.563-1.75-1.269-1.169-1.9-2.631-1.9-4.387 0-1.669 0.563-3.156 1.694-4.469s2.525-2.156 4.175-2.525c1.125-0.244 2.237-0.362 3.344-0.356v0zM29.694 6.869v2.287h-4.569v4.569h-2.288v-4.569h-4.569v-2.287h4.569v-4.563h2.288v4.569c0.006-0.006 4.569-0.006 4.569-0.006z" fill="#000000" />
</svg>
