<?xml version="1.0" encoding="utf-8"?>
<!-- Generator: Adobe Illustrator 18.0.0, SVG Export Plug-In . SVG Version: 6.00 Build 0)  -->
<!DOCTYPE svg PUBLIC "-//W3C//DTD SVG 1.1//EN" "http://www.w3.org/Graphics/SVG/1.1/DTD/svg11.dtd">
<svg version="1.1" id="Layer_1" xmlns="http://www.w3.org/2000/svg" xmlns:xlink="http://www.w3.org/1999/xlink" x="0px" y="0px"
	 viewBox="0 0 16 16" enable-background="new 0 0 16 16" xml:space="preserve">
<g>
	<path d="M0.3,11.1c0-1.7,0.4-3.2,1.3-4.5s1.9-2.3,3.1-3l0.9,0.1C5.4,3.8,5.1,4.1,4.9,4.5C4.6,4.8,4.4,5.1,4.2,5.7
		C4.1,6.2,3.7,6.6,3.6,7.2C3.5,7.7,3.3,8.4,3.3,9C4.2,9,5,9.3,5.5,9.8c0.6,0.5,0.9,1.2,0.9,2.1c0,0.9-0.3,1.7-0.8,2.2
		s-1.2,0.8-1.9,0.8c-0.4,0-0.8-0.1-1.2-0.3c-0.4-0.1-0.8-0.4-1-0.6c-0.3-0.3-0.5-0.6-0.8-1.2C0.5,12.3,0.3,11.8,0.3,11.1z M9.6,11.1
		c0-1.7,0.4-3.2,1.3-4.5c0.9-1.3,1.9-2.3,3.1-3l0.9,0.1c-0.3,0.1-0.4,0.4-0.6,0.8c-0.3,0.3-0.5,0.6-0.8,1.2s-0.4,1-0.6,1.6
		c-0.1,0.5-0.3,1.2-0.3,1.9c0.9,0,1.7,0.3,2.2,0.8s0.9,1.2,0.9,2.1s-0.3,1.7-0.8,2.2c-0.5,0.5-1.2,0.8-1.9,0.8
		c-0.4,0-0.8-0.1-1.2-0.3c-0.4-0.1-0.8-0.4-1-0.6c-0.3-0.3-0.5-0.6-0.8-1.2C9.7,12.3,9.6,11.8,9.6,11.1z"/>
</g>
</svg>
