<?xml version="1.0" encoding="utf-8"?>
<!-- Generated by IcoMoon.io -->
<!DOCTYPE svg PUBLIC "-//W3C//DTD SVG 1.1//EN" "http://www.w3.org/Graphics/SVG/1.1/DTD/svg11.dtd">
<svg version="1.1" xmlns="http://www.w3.org/2000/svg" xmlns:xlink="http://www.w3.org/1999/xlink" width="32" height="32" viewBox="0 0 32 32">
<g>
</g>
	<path d="M6.719 0c0.469 0 0.75 0.2 0.938 0.5s3.412 5.931 3.675 6.356c0.344 0.55 0.425 0.875 0.012 1.55-0.488 0.8-2.75 2.469-3.050 2.75s-0.781 0.844-0.781 1.125 0.094 0.531 0.263 0.887 1.719 3.575 4.112 5.994 5.769 4.438 6.813 5c1.044 0.563 1.356 0.231 1.706-0.081 0.356-0.313 2.438-2.813 2.813-3.144s0.706-0.563 1.125-0.563c0.419 0 0.769 0.231 1.044 0.419 0.269 0.188 5.188 2.981 5.706 3.294 0.519 0.313 0.894 0.481 0.894 1.25 0 0.769-0.188 1.394-0.331 1.938-0.144 0.544-0.313 1.606-1.5 2.5-1.188 0.894-3.313 2.231-6.081 2.231-1.106 0-2.375-0.35-3.169-0.606-4.044-1.313-8.563-3.231-13.875-9.063-4.869-5.363-7.031-11.819-7.031-14.756 0-2.419 1.669-5.081 2.188-5.688s1.106-1.144 1.875-1.375 1.938-0.519 2.656-0.519z" fill="#000000" />
</svg>
