<?xml version="1.0" encoding="utf-8"?>
<!-- Generated by IcoMoon.io -->
<!DOCTYPE svg PUBLIC "-//W3C//DTD SVG 1.1//EN" "http://www.w3.org/Graphics/SVG/1.1/DTD/svg11.dtd">
<svg version="1.1" xmlns="http://www.w3.org/2000/svg" xmlns:xlink="http://www.w3.org/1999/xlink" width="32" height="32" viewBox="0 0 32 32">
<g>
</g>
	<path d="M26.769 16c0-0.375-0.125-0.688-0.375-0.938l-9.438-9.438c-0.25-0.25-0.563-0.375-0.938-0.375s-0.688 0.125-0.938 0.375l-9.438 9.438c-0.25 0.25-0.375 0.563-0.375 0.938s0.125 0.688 0.375 0.938l1.894 1.894c0.25 0.25 0.563 0.375 0.938 0.375s0.688-0.125 0.938-0.375l3.938-3.938v10.456c0 0.363 0.131 0.675 0.394 0.938s0.575 0.394 0.938 0.394h2.669c0.363 0 0.675-0.131 0.938-0.394s0.394-0.575 0.394-0.938v-10.456l3.938 3.938c0.262 0.262 0.575 0.394 0.938 0.394s0.675-0.131 0.938-0.394l1.894-1.894c0.262-0.25 0.387-0.563 0.381-0.938v0zM32.019 16.019c0 2.9-0.712 5.581-2.144 8.031-1.431 2.45-3.369 4.394-5.825 5.825s-5.131 2.144-8.031 2.144c-2.9 0-5.581-0.712-8.031-2.144s-4.394-3.369-5.825-5.825-2.144-5.125-2.144-8.031c0-2.9 0.713-5.581 2.144-8.031s3.369-4.394 5.825-5.825 5.131-2.144 8.031-2.144 5.581 0.713 8.031 2.144 4.394 3.369 5.825 5.825c1.431 2.456 2.144 5.131 2.144 8.031z" fill="#000000" />
</svg>
