<?xml version="1.0" encoding="utf-8"?>
<!-- Generator: Adobe Illustrator 17.1.0, SVG Export Plug-In . SVG Version: 6.00 Build 0)  -->
<!DOCTYPE svg PUBLIC "-//W3C//DTD SVG 1.1//EN" "http://www.w3.org/Graphics/SVG/1.1/DTD/svg11.dtd">
<svg version="1.1" id="Layer_1" xmlns="http://www.w3.org/2000/svg" xmlns:xlink="http://www.w3.org/1999/xlink" x="0px" y="0px"
	 viewBox="0 0 512 512" enable-background="new 0 0 512 512" xml:space="preserve">
<path d="M384,288H224v-32h160V288z M416,448H192v32h224V448z M384,190.4H224v32h160V190.4z M384,128H224v32h160V128z M128,323.2
	c0-19.2,11.2-35.2,30.4-35.2V19.2c0-9.6,8-19.2,17.6-19.2h192c4.8,0,9.6,1.6,12.8,4.8l0,0l62.4,64l0,0c3.2,3.2,4.8,8,4.8,12.8V288
	h28.8c19.2,0,35.2,16,35.2,35.2v153.6c0,19.2-16,35.2-35.2,35.2H163.2c-19.2,0-35.2-16-35.2-35.2V323.2z M96,448v33
	c-9,14-21.4,31-47,31c-30,0-49-47-49-63V223c0-30,18-62.7,46-62.7c25.6,0,43,21.7,49.7,32.7v63.7L63.3,256l1.3,160l32,0.7L96,448z
	 M414.4,96h-44.8C360,96,352,88,352,78.4V32H192v288h224V96H414.4z M480,379.2c0-11.2-9.6-20.8-20.8-20.8s-20.8,9.6-20.8,20.8
	S448,400,459.2,400S480,390.4,480,379.2z"/>
</svg>
