<?xml version="1.0" encoding="utf-8"?>
<!-- Generated by IcoMoon.io -->
<!DOCTYPE svg PUBLIC "-//W3C//DTD SVG 1.1//EN" "http://www.w3.org/Graphics/SVG/1.1/DTD/svg11.dtd">
<svg version="1.1" xmlns="http://www.w3.org/2000/svg" xmlns:xlink="http://www.w3.org/1999/xlink" width="32" height="32" viewBox="0 0 32 32">
<g>
</g>
	<path d="M8.019 30.019h16v-6.044h-16c0 0.006 0 6.044 0 6.044zM8.019 16.019h16v-7.25h-3.075c-0.512 0-0.95-0.181-1.306-0.537-0.356-0.356-0.538-0.794-0.538-1.306v-2.944h-11.081v12.037zM29.538 17.675c0-0.331-0.119-0.619-0.363-0.869-0.244-0.244-0.531-0.369-0.869-0.363-0.331 0-0.625 0.125-0.869 0.363-0.244 0.244-0.363 0.531-0.363 0.869 0 0.337 0.119 0.625 0.363 0.869 0.244 0.244 0.531 0.363 0.869 0.363 0.331 0 0.625-0.119 0.869-0.363 0.244-0.25 0.363-0.538 0.363-0.869zM32 17.675v7.713c0 0.169-0.063 0.313-0.181 0.431-0.125 0.125-0.269 0.181-0.431 0.181h-5.363v4.156c0 0.512-0.181 0.95-0.538 1.306-0.356 0.356-0.794 0.538-1.306 0.538h-16.356c-0.513 0-0.95-0.181-1.306-0.538-0.356-0.356-0.537-0.794-0.537-1.306v-4.156h-5.362c-0.169 0-0.313-0.063-0.431-0.181s-0.188-0.269-0.188-0.438v-7.712c0-1.012 0.362-1.881 1.087-2.606s1.594-1.088 2.606-1.088h2.331v-10.106c0-0.513 0.181-0.95 0.537-1.306s0.794-0.538 1.306-0.538h11.231c1.631 0 2.794 0.95 3.156 1.306l2.462 2.925c0.356 0.356 1.306 1.438 1.306 3.156v4.575h2.288c1.012 0 1.881 0.363 2.606 1.088s1.081 1.581 1.081 2.6v0z" fill="#000000" />
</svg>
