<?xml version="1.0" encoding="utf-8"?>
<!-- Generated by IcoMoon.io -->
<!DOCTYPE svg PUBLIC "-//W3C//DTD SVG 1.1//EN" "http://www.w3.org/Graphics/SVG/1.1/DTD/svg11.dtd">
<svg version="1.1" xmlns="http://www.w3.org/2000/svg" xmlns:xlink="http://www.w3.org/1999/xlink" width="17" height="16" viewBox="0 0 17 16">
<g>
</g>
	<path d="M3.714 11.429q-0.589 0-1.009-0.42t-0.42-1.009v-6.286q0-0.589 0.42-1.009t1.009-0.42h9.714q0.589 0 1.009 0.42t0.42 1.009v6.286q0 0.589-0.42 1.009t-1.009 0.42h-9.714zM3.429 3.714v6.286q0 0.116 0.085 0.201t0.201 0.085h9.714q0.116 0 0.201-0.085t0.085-0.201v-6.286q0-0.116-0.085-0.201t-0.201-0.085h-9.714q-0.116 0-0.201 0.085t-0.085 0.201zM15.714 12h1.429v0.857q0 0.357-0.42 0.607t-1.009 0.25h-14.286q-0.589 0-1.009-0.25t-0.42-0.607v-0.857h15.714zM9.286 12.857q0.143 0 0.143-0.143t-0.143-0.143h-1.429q-0.143 0-0.143 0.143t0.143 0.143h1.429z" fill="#000000" />
</svg>
