<?xml version="1.0" encoding="utf-8"?>
<!-- Generated by IcoMoon.io -->
<!DOCTYPE svg PUBLIC "-//W3C//DTD SVG 1.1//EN" "http://www.w3.org/Graphics/SVG/1.1/DTD/svg11.dtd">
<svg version="1.1" xmlns="http://www.w3.org/2000/svg" xmlns:xlink="http://www.w3.org/1999/xlink" width="15" height="16" viewBox="0 0 15 16">
<g>
</g>
	<path d="M5.714 13.714q0 0.473-0.335 0.808t-0.808 0.335-0.808-0.335-0.335-0.808 0.335-0.808 0.808-0.335 0.808 0.335 0.335 0.808zM13.714 13.714q0 0.473-0.335 0.808t-0.808 0.335-0.808-0.335-0.335-0.808 0.335-0.808 0.808-0.335 0.808 0.335 0.335 0.808zM14.857 4v4.571q0 0.214-0.143 0.379t-0.366 0.192l-9.321 1.089q0.009 0.063 0.040 0.192t0.054 0.237 0.022 0.196q0 0.143-0.214 0.571h8.214q0.232 0 0.402 0.17t0.17 0.402-0.17 0.402-0.402 0.17h-9.143q-0.232 0-0.402-0.17t-0.17-0.402q0-0.125 0.098-0.353t0.263-0.531 0.183-0.339l-1.58-7.348h-1.821q-0.232 0-0.402-0.17t-0.17-0.402 0.17-0.402 0.402-0.17h2.286q0.143 0 0.254 0.058t0.179 0.138 0.116 0.219 0.067 0.237 0.049 0.263 0.040 0.228h10.723q0.232 0 0.402 0.17t0.17 0.402z" fill="#000000" />
</svg>
