<?xml version="1.0" encoding="utf-8"?>
<!-- Generated by IcoMoon.io -->
<!DOCTYPE svg PUBLIC "-//W3C//DTD SVG 1.1//EN" "http://www.w3.org/Graphics/SVG/1.1/DTD/svg11.dtd">
<svg version="1.1" xmlns="http://www.w3.org/2000/svg" xmlns:xlink="http://www.w3.org/1999/xlink" width="32" height="32" viewBox="0 0 32 32">
<g>
</g>
	<path d="M30.044 12h-2.044v-8.037c0-1.081-0.869-1.962-1.956-1.962h-24.075c-1.081 0-1.969 0.881-1.969 1.962v16.094c0 1.087 0.887 1.944 1.969 1.944h2.031v4.894c0 0.75 0.4 1.1 0.944 1.1 4.419 0 7.475-2.6 9.125-5.994h2v4.019c0 1.081 0.806 1.981 1.887 1.981h4.075c1.619 2.5 3.788 3.988 5.319 3.988 0.363 0 0.65-0.3 0.65-0.663v-3.325h2.044c1.081 0 1.956-0.9 1.956-1.981v-12.1c0-1.081-0.869-1.919-1.956-1.919zM11.906 18c-0.938 4.288-3.906 4.938-3.906 4.938v-4.875h-4.063v-12.063h20.063v12h-12.094z" fill="#000000" />
</svg>
