<?xml version="1.0" encoding="UTF-8" standalone="no"?>
<svg id="Layer_1" x="0px" y="0px" viewBox="0 0 150 150" enable-background="new 0 0 612 792" xml:space="preserve" width="150" height="150">
<g id="g972" transform="matrix(1.9335072,0,0,1.9335072,-516.62601,-706.83801)">
<path d="m 306.423,367.637 c -20.401,0 -37,16.598 -37.001,36.998 0,20.403 16.599,37.002 37.001,37.002 h 0.004 c 20.399,0 36.995,-16.598 36.995,-37 0,-20.403 -16.598,-37 -36.999,-37 z m 29.143,17.648 c -2.814,2.712 -5.321,5.768 -7.475,9.104 -0.186,-0.044 -0.376,-0.073 -0.574,-0.073 -0.401,0 -0.775,0.103 -1.111,0.273 -1.863,-2.59 -3.382,-5.25 -4.516,-7.883 0.672,-0.449 1.114,-1.214 1.114,-2.08 0,-0.236 -0.044,-0.461 -0.105,-0.678 2.53,-1.784 4.692,-3.713 6.434,-5.738 2.38,2.067 4.481,4.444 6.233,7.075 z m -45.921,10.123 c 1.921,-0.19 3.859,-0.466 5.804,-0.806 0.417,0.801 1.244,1.357 2.205,1.358 0,0 10e-4,0 0.002,0 0.341,0 0.666,-0.069 0.963,-0.193 2.475,3.557 5.403,6.869 8.748,9.808 3.491,3.067 7.29,5.632 11.282,7.664 -0.047,0.192 -0.079,0.39 -0.079,0.596 0.001,0.966 0.56,1.797 1.362,2.212 -0.439,2.898 -0.654,5.799 -0.614,8.678 -0.48,0.114 -0.913,0.34 -1.285,0.642 -3.726,-2.661 -7.785,-4.903 -12.082,-6.627 -5.163,-2.07 -10.493,-3.364 -15.856,-3.89 -0.326,-1.401 -1.561,-2.45 -3.054,-2.502 -0.396,-2.514 -0.606,-5.091 -0.606,-7.711 0,-2.165 0.156,-4.297 0.429,-6.391 1.462,-0.197 2.609,-1.365 2.781,-2.838 z m -1.613,-3.18 c 0.921,-3.499 2.216,-6.829 3.873,-9.902 1.032,3.185 2.407,6.297 4.094,9.277 -0.435,0.389 -0.728,0.924 -0.809,1.53 -1.919,0.335 -3.827,0.591 -5.722,0.778 -0.266,-0.716 -0.778,-1.307 -1.436,-1.683 z m 32.821,19.127 c -0.723,0.063 -1.355,0.43 -1.77,0.977 -3.911,-1.991 -7.636,-4.502 -11.057,-7.509 -3.281,-2.884 -6.155,-6.132 -8.583,-9.619 0.396,-0.407 0.646,-0.949 0.694,-1.55 6.997,-1.65 13.409,-4.121 18.73,-7.155 0.438,0.384 1.005,0.627 1.63,0.63 h 0.005 c 0.163,0 0.322,-0.018 0.478,-0.049 1.166,2.721 2.728,5.462 4.643,8.125 -0.372,0.436 -0.604,0.995 -0.604,1.613 0.002,0.649 0.259,1.238 0.67,1.684 -1.486,2.824 -2.752,5.797 -3.745,8.898 -0.42,1.313 -0.771,2.633 -1.091,3.955 z m -0.844,-38.973 c 2.953,1.249 5.694,2.898 8.17,4.869 -1.641,1.899 -3.707,3.725 -6.132,5.428 -0.426,-0.338 -0.958,-0.549 -1.544,-0.55 -0.068,0 -0.133,0.015 -0.2,0.021 -0.923,-3.537 -1.053,-6.882 -0.294,-9.768 z m -13.586,-2.745 c 4.462,0 8.726,0.848 12.653,2.377 -0.833,3.075 -0.701,6.645 0.285,10.404 -0.802,0.418 -1.356,1.246 -1.356,2.213 10e-4,0.191 0.027,0.376 0.069,0.556 -5.217,2.964 -11.512,5.402 -18.276,7.006 -0.437,-0.73 -1.228,-1.228 -2.143,-1.232 -0.278,0 -0.542,0.057 -0.793,0.141 -1.803,-3.187 -3.25,-6.522 -4.285,-9.941 2.558,-4.404 5.852,-8.244 9.775,-11.279 1.336,-0.156 2.693,-0.245 4.071,-0.245 z m -6.964,0.697 c -2.864,2.543 -5.365,5.514 -7.44,8.827 -0.497,-1.952 -0.85,-3.926 -1.074,-5.905 2.665,-1.321 5.52,-2.315 8.514,-2.922 z m -9.463,3.408 c 0.272,2.22 0.715,4.428 1.318,6.609 -2.048,3.515 -3.642,7.368 -4.721,11.455 -0.058,-0.004 -0.111,-0.018 -0.169,-0.018 -1.519,0 -2.788,1.056 -3.138,2.473 -3.535,0.042 -6.919,-0.195 -10.054,-0.716 2.863,-8.537 8.925,-15.617 16.764,-19.803 z m -18.574,30.893 c 0,-3.344 0.481,-6.574 1.361,-9.639 3.032,0.516 6.286,0.786 9.689,0.786 0.262,0 0.533,-0.018 0.797,-0.022 0.252,1.092 1.057,1.967 2.101,2.334 -0.277,2.145 -0.436,4.328 -0.436,6.543 0,2.721 0.219,5.398 0.635,8.009 -0.811,0.378 -1.431,1.082 -1.711,1.944 -3.557,0.052 -7.104,0.447 -10.605,1.191 -1.181,-3.504 -1.831,-7.25 -1.831,-11.146 z m 2.344,12.57 c 3.293,-0.685 6.627,-1.055 9.972,-1.113 0.247,1.551 1.581,2.744 3.193,2.744 h 0.01 c 0.013,0 0.024,-0.004 0.038,-0.004 2.346,7.932 6.645,14.926 12.482,20.108 -11.793,-2.391 -21.444,-10.729 -25.695,-21.735 z m 32.661,22.432 h -0.004 c -1.377,0 -2.733,-0.089 -4.069,-0.244 -6.585,-5.093 -11.404,-12.456 -13.923,-20.938 0.815,-0.427 1.427,-1.183 1.652,-2.099 5.177,0.521 10.321,1.775 15.309,3.775 4.167,1.672 8.104,3.842 11.72,6.417 -0.184,0.407 -0.292,0.855 -0.292,1.331 0.001,1.702 1.324,3.089 2.993,3.224 0.257,1.818 0.613,3.618 1.07,5.395 -4.41,2.01 -9.303,3.139 -14.456,3.139 z m 15.833,-3.803 c -0.407,-1.631 -0.729,-3.282 -0.963,-4.95 0.257,-0.105 0.492,-0.249 0.712,-0.413 1.228,1.104 2.392,2.271 3.507,3.478 -1.048,0.684 -2.135,1.313 -3.256,1.885 z m 4.507,-2.743 c -1.204,-1.313 -2.465,-2.579 -3.798,-3.776 0.217,-0.436 0.351,-0.92 0.351,-1.44 0,-1.527 -1.069,-2.807 -2.501,-3.148 -0.041,-2.794 0.167,-5.611 0.593,-8.427 0.71,-0.098 1.327,-0.486 1.717,-1.052 4.962,1.963 10.144,3.129 15.358,3.4 -2.548,5.805 -6.625,10.788 -11.72,14.443 z m 12.129,-15.425 c -5.219,-0.228 -10.409,-1.372 -15.377,-3.336 0.032,-0.16 0.05,-0.327 0.05,-0.498 0,-0.918 -0.507,-1.715 -1.251,-2.148 0.309,-1.279 0.647,-2.557 1.054,-3.826 0.96,-2.998 2.183,-5.871 3.616,-8.602 0.169,0.037 0.344,0.06 0.524,0.061 h 0.005 c 0.418,0 0.806,-0.113 1.152,-0.295 0.848,0.963 1.727,1.912 2.666,2.83 3.033,2.963 6.32,5.449 9.767,7.445 -0.39,2.918 -1.139,5.723 -2.206,8.369 z m -6.861,-16.529 c -0.912,-0.891 -1.767,-1.812 -2.591,-2.746 0.354,-0.432 0.575,-0.976 0.575,-1.576 0,-0.635 -0.247,-1.21 -0.641,-1.651 2.029,-3.138 4.383,-6.016 7.014,-8.584 3.19,5.275 5.029,11.456 5.029,18.058 0,1.207 -0.062,2.4 -0.182,3.576 -3.24,-1.919 -6.337,-4.279 -9.204,-7.077 z" id="path970" />
</g>
</svg>