<?xml version="1.0" encoding="UTF-8" standalone="no"?>
<svg viewBox="0 0 150 150" id="svg1066" width="150" height="150">
  <path d="m 44.033396,96.388499 a 2.588677,2.588677 0 0 0 2.174489,1.268451 2.588677,2.588677 0 0 0 1.294339,-0.336528 L 73.906729,82.047228 47.502224,66.774033 a 2.588677,2.588677 0 1 0 -2.588677,4.348978 L 63.810889,82.047228 44.913547,92.971445 a 2.588677,2.588677 0 0 0 -0.880151,3.417054 z m 32.203143,1.268451 h 30.520501 a 2.588677,2.588677 0 0 0 0,-5.022033 H 76.210652 a 2.588677,2.588677 0 1 0 0,5.022033 z M 109.91523,11.894077 a 3.7276949,3.7276949 0 1 0 3.72769,3.727695 3.7276949,3.7276949 0 0 0 -3.72769,-3.727695 z m 12.24444,0 a 3.7276949,3.7276949 0 1 0 3.72769,3.727695 3.7276949,3.7276949 0 0 0 -3.72769,-3.727695 z M 140.12509,0.68510587 H 9.2674638 A 9.2674638,9.2674638 0 0 0 0,9.9525697 V 140.73254 A 9.2674638,9.2674638 0 0 0 9.2674638,150 H 140.0992 a 9.2674638,9.2674638 0 0 0 9.26747,-9.26746 V 9.9007961 A 9.2674638,9.2674638 0 0 0 140.0992,0.63333233 Z M 144.75882,140.8102 a 4.6337319,4.6337319 0 0 1 -4.63373,4.63373 H 9.2674638 A 4.6337319,4.6337319 0 0 1 4.6337319,140.8102 V 29.108782 H 144.73293 Z m 0,-115.506773 H 4.6337319 V 9.9007961 A 4.6337319,4.6337319 0 0 1 9.2674638,5.2670642 H 140.0992 a 4.6337319,4.6337319 0 0 1 4.63373,4.6337319 z M 134.40411,11.919964 a 3.7276949,3.7276949 0 1 0 3.70181,3.650035 3.7276949,3.7276949 0 0 0 -3.72769,-3.675922 z" id="path1064" style="stroke-width:2.58867693" />
</svg>
