<?xml version="1.0" encoding="UTF-8" standalone="no"?>
<svg id="Layer_1" x="0px" y="0px" viewBox="0 0 150 150" enable-background="new 0 0 180 180" xml:space="preserve" width="150" height="150">
<g id="g1030">
<g id="g1028">
<g id="g1026">
<g id="g1024">
<path d="m 93.4,58.5 h -6.8 c -0.4,0 -0.8,0.3 -0.8,0.8 0,0.4 0.3,0.8 0.8,0.8 h 6.8 c 0.4,0 0.8,-0.3 0.8,-0.8 -0.1,-0.4 -0.4,-0.8 -0.8,-0.8 z" id="path1014" />
<path d="m 82.5,58.6 c -0.2,0.2 -0.3,0.4 -0.3,0.7 0,0.3 0.1,0.5 0.3,0.7 0.2,0.2 0.4,0.3 0.7,0.3 0.3,0 0.5,-0.1 0.7,-0.3 0.2,-0.2 0.3,-0.4 0.3,-0.7 0,-0.3 -0.1,-0.5 -0.3,-0.7 -0.3,-0.4 -1,-0.4 -1.4,0 z" id="path1016" />
<path d="M 88.1,122.6 H 92 c 1.5,0 2.6,-1.2 2.6,-2.6 v -1.9 c 0,-1.4 -1.2,-2.6 -2.6,-2.6 h -3.9 c -1.4,0 -2.6,1.2 -2.6,2.6 v 1.9 c -0.1,1.5 1.1,2.6 2.6,2.6 z m -1.2,-4.5 c 0,-0.6 0.5,-1.1 1.1,-1.1 h 3.9 c 0.6,0 1.1,0.5 1.1,1.1 v 1.9 c 0,0.6 -0.5,1.1 -1.1,1.1 H 88 c -0.6,0 -1.1,-0.5 -1.1,-1.1 z" id="path1018" />
<path d="m 117,67.7 h -5.9 V 56 c 0,-2.1 -1.7,-3.9 -3.9,-3.9 H 72.8 c -2.1,0 -3.9,1.7 -3.9,3.9 v 14 h -2.4 c -1.7,0 -3,1.3 -3,3 v 15.5 c 0,1.7 1.3,3 3,3 h 2.4 v 31 c 0,2.1 1.7,3.9 3.9,3.9 h 34.5 c 2.1,0 3.9,-1.7 3.9,-3.9 V 96.9 h 5.9 c 2.2,0 4,-1.8 4,-4 V 71.7 c -0.1,-2.2 -1.9,-4 -4.1,-4 z M 70.9,56 c 0,-1 0.8,-1.9 1.9,-1.9 h 34.5 c 1,0 1.9,0.8 1.9,1.9 v 8.5 H 70.9 Z m -4.5,33.5 c -0.6,0 -1,-0.4 -1,-1 V 73 c 0,-0.6 0.4,-1 1,-1 h 15.5 c 0.6,0 1,0.4 1,1 v 15.5 c 0,0.6 -0.4,1 -1,1 z m 42.7,33 c 0,1 -0.8,1.9 -1.9,1.9 H 72.8 c -1,0 -1.9,-0.8 -1.9,-1.9 V 114 h 38.2 z m 0,-9.5 H 70.9 V 91.5 H 82 c 1.7,0 3,-1.3 3,-3 V 73 c 0,-1.7 -1.3,-3 -3,-3 H 70.9 v -4.5 h 38.2 v 2.2 H 95.8 c -2.2,0 -4,1.8 -4,4 v 21.2 c 0,2.2 1.8,4 4,4 h 13.3 z M 95.8,94.9 c -1.1,0 -2,-0.9 -2,-2 V 71.7 c 0,-1.1 0.9,-2 2,-2 H 117 c 1.1,0 2,0.9 2,2 v 21.2 c 0,1.1 -0.9,2 -2,2 z" id="path1020" />
<path d="M 86.9,94.5 H 76.8 c -1.7,0 -3,1.3 -3,3 v 10.2 c 0,1.7 1.3,3 3,3 H 87 c 1.7,0 3,-1.3 3,-3 V 97.5 c -0.1,-1.7 -1.4,-3 -3.1,-3 z m 1,13.1 c 0,0.6 -0.4,1 -1,1 H 76.8 c -0.6,0 -1,-0.4 -1,-1 V 97.5 c 0,-0.6 0.4,-1 1,-1 H 87 c 0.6,0 1,0.4 1,1 v 10.1 z" id="path1022" />
</g>
</g>
</g>
</g>
</svg>