<?xml version="1.0" encoding="utf-8"?>
<!-- Generator: Adobe Illustrator 19.2.0, SVG Export Plug-In . SVG Version: 6.00 Build 0)  -->
<svg version="1.0" id="Layer_1" xmlns="http://www.w3.org/2000/svg" xmlns:xlink="http://www.w3.org/1999/xlink" x="0px" y="0px"
	 viewBox="0 0 3138.1 2353.6" style="enable-background:new 0 0 3138.1 2353.6;" xml:space="preserve">
<style type="text/css">
	.st0{fill:none;stroke:#FFFFFF;stroke-miterlimit:10;}
	.st1{fill:none;stroke:#FFFFFF;stroke-miterlimit:10;stroke-dasharray:12.0344,5.8166;}
	.st2{fill:none;stroke:#FFFFFF;stroke-miterlimit:10;stroke-dasharray:12.0085,5.8041;}
	.st3{fill:none;stroke:#FFFFFF;stroke-miterlimit:10;stroke-dasharray:12.0191,5.8093;}
	.st4{fill:none;stroke:#FFFFFF;stroke-miterlimit:10;stroke-dasharray:12.016,5.8077;}
	.st5{fill:none;stroke:#FFFFFF;stroke-miterlimit:10;stroke-dasharray:11.9672,5.7842;}
	.st6{fill:none;stroke:#FFFFFF;stroke-miterlimit:10;stroke-dasharray:12.013,5.8063;}
	.st7{fill:none;stroke:#FFFFFF;stroke-miterlimit:10;stroke-dasharray:11.9569,5.7792;}
	.st8{fill:none;stroke:#FFFFFF;stroke-miterlimit:10;stroke-dasharray:12.011,5.8053;}
	.st9{fill:none;stroke:#FFFFFF;stroke-miterlimit:10;stroke-dasharray:11.9537,5.7776;}
	.st10{fill:none;stroke:#FFFFFF;stroke-miterlimit:10;stroke-dasharray:12.0247,5.8119;}
	.st11{fill:none;stroke:#FFFFFF;stroke-miterlimit:10;stroke-dasharray:12.0441,5.8213;}
	.st12{fill:none;stroke:#FFFFFF;stroke-miterlimit:10;stroke-dasharray:11.9678,5.7844;}
	.st13{fill:none;stroke:#FFFFFF;stroke-miterlimit:10;stroke-dasharray:11.9868,5.7936;}
	.st14{fill:none;stroke:#FFFFFF;stroke-miterlimit:10;stroke-dasharray:12.0187,5.8091;}
	.st15{fill:none;stroke:#FFFFFF;stroke-miterlimit:10;stroke-dasharray:12.0373,5.818;}
	.st16{fill:none;stroke:#FFFFFF;stroke-miterlimit:10;stroke-dasharray:12.0329,5.8159;}
	.st17{fill:none;stroke:#FFFFFF;stroke-miterlimit:10;stroke-dasharray:12,5.8;}
</style>
<g>
	<g>
		<line class="st0" x1="633.5" y1="1753.9" x2="638.7" y2="1750.9"/>
		<line class="st1" x1="643.8" y1="1748" x2="2558.2" y2="642.6"/>
		<line class="st0" x1="2560.7" y1="641.2" x2="2565.9" y2="638.2"/>
	</g>
</g>
<g>
	<g>
		<line class="st0" x1="656.5" y1="1785.7" x2="661.7" y2="1782.7"/>
		<line class="st2" x1="666.7" y1="1779.8" x2="2499.9" y2="721.4"/>
		<line class="st0" x1="2502.4" y1="719.9" x2="2507.6" y2="716.9"/>
	</g>
</g>
<g>
	<g>
		<line class="st0" x1="614.4" y1="1856.4" x2="619.6" y2="1853.4"/>
		<line class="st3" x1="624.6" y1="1850.5" x2="2583" y2="719.8"/>
		<line class="st0" x1="2585.5" y1="718.4" x2="2590.7" y2="715.4"/>
	</g>
</g>
<g>
	<g>
		<line class="st0" x1="583.2" y1="1176.9" x2="588.4" y2="1173.9"/>
		<line class="st4" x1="593.4" y1="1171" x2="2443.2" y2="103"/>
		<line class="st0" x1="2445.7" y1="101.5" x2="2450.9" y2="98.5"/>
	</g>
</g>
<g>
	<g>
		<line class="st0" x1="409.6" y1="1522.1" x2="414.8" y2="1519.1"/>
		<line class="st5" x1="419.8" y1="1516.2" x2="2492.7" y2="319.5"/>
		<line class="st0" x1="2495.2" y1="318" x2="2500.4" y2="315"/>
	</g>
</g>
<g>
	<g>
		<line class="st0" x1="460.4" y1="1501.3" x2="465.6" y2="1498.3"/>
		<line class="st6" x1="470.7" y1="1495.4" x2="2428" y2="365.3"/>
		<line class="st0" x1="2430.5" y1="363.9" x2="2435.7" y2="360.9"/>
	</g>
</g>
<g>
	<g>
		<line class="st0" x1="667.3" y1="1671.2" x2="672.5" y2="1668.2"/>
		<line class="st7" x1="677.5" y1="1665.3" x2="2472.1" y2="629.2"/>
		<line class="st0" x1="2474.6" y1="627.7" x2="2479.8" y2="624.7"/>
	</g>
</g>
<g>
	<g>
		<line class="st0" x1="541.5" y1="1632.2" x2="546.7" y2="1629.2"/>
		<line class="st8" x1="551.8" y1="1626.3" x2="2585.9" y2="451.9"/>
		<line class="st0" x1="2588.4" y1="450.4" x2="2593.6" y2="447.4"/>
	</g>
</g>
<g>
	<g>
		<line class="st0" x1="568.9" y1="1474.7" x2="574.1" y2="1471.7"/>
		<line class="st9" x1="579.1" y1="1468.8" x2="2465.4" y2="379.8"/>
		<line class="st0" x1="2467.9" y1="378.3" x2="2473.1" y2="375.3"/>
	</g>
</g>
<g>
	<g>
		<line class="st0" x1="476.5" y1="1447.1" x2="481.7" y2="1444.1"/>
		<line class="st10" x1="486.7" y1="1441.1" x2="2600.4" y2="220.8"/>
		<line class="st0" x1="2602.9" y1="219.3" x2="2608.1" y2="216.3"/>
	</g>
</g>
<g>
	<g>
		<line class="st0" x1="868.7" y1="162.8" x2="873.9" y2="165.8"/>
		<line class="st11" x1="878.9" y1="168.7" x2="2764" y2="1257"/>
		<line class="st0" x1="2766.5" y1="1258.5" x2="2771.7" y2="1261.5"/>
	</g>
</g>
<g>
	<g>
		<line class="st0" x1="955.9" y1="39.9" x2="961.1" y2="42.9"/>
		<line class="st12" x1="966.1" y1="45.8" x2="2547.1" y2="958.6"/>
		<line class="st0" x1="2549.6" y1="960" x2="2554.8" y2="963"/>
	</g>
</g>
<g>
	<g>
		<line class="st0" x1="552.1" y1="484.7" x2="557.3" y2="487.7"/>
		<line class="st13" x1="562.4" y1="490.6" x2="2161.3" y2="1413.7"/>
		<line class="st0" x1="2163.8" y1="1415.1" x2="2169" y2="1418.1"/>
	</g>
</g>
<g>
	<g>
		<line class="st0" x1="179" y1="693.8" x2="184.2" y2="696.8"/>
		<line class="st14" x1="189.3" y1="699.7" x2="2502.6" y2="2035.3"/>
		<line class="st0" x1="2505.1" y1="2036.8" x2="2510.3" y2="2039.8"/>
	</g>
</g>
<g>
	<g>
		<line class="st0" x1="533.3" y1="1086.3" x2="538.5" y2="1089.3"/>
		<line class="st15" x1="543.5" y1="1092.2" x2="2597.6" y2="2278.2"/>
		<line class="st0" x1="2600.1" y1="2279.6" x2="2605.3" y2="2282.6"/>
	</g>
</g>
<g>
	<g>
		<line class="st0" x1="597.6" y1="224.7" x2="602.8" y2="227.7"/>
		<line class="st16" x1="607.9" y1="230.6" x2="2815.8" y2="1505.3"/>
		<line class="st0" x1="2818.3" y1="1506.8" x2="2823.5" y2="1509.8"/>
	</g>
</g>
<line class="st17" x1="1814.9" y1="135.5" x2="1814.9" y2="2184.7"/>
<line class="st17" x1="1586.9" y1="258.5" x2="1586.9" y2="1875.7"/>
<line class="st17" x1="1010.8" y1="879.6" x2="1010.8" y2="1725.7"/>
</svg>
