<svg width="93" height="40" viewBox="0 0 93 40" xmlns="http://www.w3.org/2000/svg"><title>rh-icon-cloud</title><defs><linearGradient x1="26.126%" y1="27.594%" x2="77.963%" y2="149.803%" id="a"><stop stop-color="#E6E6E6" offset="0%"/><stop stop-color="#F7F7F7" offset="50.31%"/><stop stop-color="#C4C4C4" offset="100%"/></linearGradient></defs><g fill="none" fill-rule="evenodd"><path d="M77.99 16.734C75.06 7.16 66.13.524 56.068.524c-10.09 0-18.944 6.575-21.9 16.12a15.182 15.182 0 0 0-5.12-.883 15.286 15.286 0 0 0-14.89 11.784C7.783 27.778 2.41 32.206.99 38.476a.957.957 0 0 0 .93 1.163h90.03a.95.95 0 0 0 .94-.792c.2-1.164.297-2.236.297-3.277 0-9.1-6.356-16.93-15.197-18.836z" fill="url(#a)" transform="translate(-1)"/><path d="M76.99 16.734C74.06 7.16 65.13.524 55.068.524c-10.09 0-18.944 6.575-21.9 16.12a15.182 15.182 0 0 0-5.12-.883 15.286 15.286 0 0 0-14.89 11.784C6.783 27.778 1.41 32.206-.01 38.476a.957.957 0 0 0 .93 1.163h90.03a.95.95 0 0 0 .94-.792c.2-1.164.297-2.236.297-3.277 0-9.1-6.356-16.93-15.197-18.836zm13.145 21.002H2.17c1.636-4.94 6.215-8.295 11.585-8.295h.008l.146.007c.48.045.874-.32.958-.78a13.384 13.384 0 0 1 13.18-11.003c1.736 0 3.423.344 5.027.996.992.482 3.113 1.71 4.423 3.908a.712.712 0 1 0 1.225-.73c-1.127-1.892-2.728-3.138-3.95-3.878A21.016 21.016 0 0 1 55.07 2.425c9.14 0 17.202 5.844 19.965 14.49-2.454-.016-4.28.87-4.388.916a.715.715 0 0 0 .545 1.32c.027-.012 2.54-1.012 5.4-.54 7.964 1.722 13.694 8.76 13.694 16.96 0 .696-.048 1.41-.15 2.166z" fill="#000"/></g></svg>