<?xml version="1.0" encoding="utf-8"?>
<!-- Generator: Adobe Illustrator 17.1.0, SVG Export Plug-In . SVG Version: 6.00 Build 0)  -->
<!DOCTYPE svg PUBLIC "-//W3C//DTD SVG 1.1//EN" "http://www.w3.org/Graphics/SVG/1.1/DTD/svg11.dtd">
<svg version="1.1" id="Layer_1" xmlns="http://www.w3.org/2000/svg" xmlns:xlink="http://www.w3.org/1999/xlink" x="0px" y="0px"
	 viewBox="0 0 207.021 207.021" enable-background="new 0 0 207.021 207.021" xml:space="preserve">
<g>
	<linearGradient id="SVGID_1_" gradientUnits="userSpaceOnUse" x1="74.9365" y1="73.3953" x2="133.4572" y2="131.9161">
		<stop  offset="0" style="stop-color:#E6E6E6"/>
		<stop  offset="0.5" style="stop-color:#F7F7F7"/>
		<stop  offset="1" style="stop-color:#C4C4C4"/>
	</linearGradient>
	<path fill="url(#SVGID_1_)" d="M130.191,91.362c-0.179-0.432-0.785-1.436-2.547-1.436c-0.181,0-0.373,0.011-0.615,0.038
		l-10.295,1.533V57.086c0-0.552-0.447-1-1-1H92.66c-0.552,0-1,0.448-1,1v34.411L81.328,89.96c-2.204-0.241-2.928,0.927-3.125,1.403
		c-0.44,1.063-0.026,2.409,1.017,3.446l24.209,29.127c0.19,0.229,0.472,0.36,0.77,0.36c0.297,0,0.579-0.132,0.768-0.36
		l24.146-29.059C130.218,93.772,130.631,92.425,130.191,91.362z M127.576,127.942H80.817c-0.505,0-0.915,0.447-0.915,1v7.5
		c0,0.553,0.41,1,0.915,1h46.759c0.505,0,0.915-0.447,0.915-1v-7.5C128.491,128.389,128.081,127.942,127.576,127.942z"/>
	<g>
		<path fill="#231F20" d="M104.198,124.295c-0.298,0-0.579-0.132-0.77-0.36L79.22,94.808c-1.043-1.037-1.456-2.383-1.017-3.446
			c0.197-0.476,0.921-1.643,3.125-1.403l10.332,1.538V57.086c0-0.552,0.448-1,1-1h23.074c0.553,0,1,0.448,1,1v34.411l10.295-1.533
			c0.242-0.027,0.435-0.038,0.615-0.038c1.762,0,2.368,1.004,2.547,1.436c0.439,1.063,0.026,2.41-1.079,3.514l-24.146,29.059
			C104.777,124.164,104.495,124.295,104.198,124.295z M80.75,91.926c-0.423,0-0.658,0.104-0.698,0.201
			c-0.082,0.197,0.066,0.757,0.645,1.334l23.502,28.27l23.438-28.201c0.641-0.646,0.789-1.206,0.707-1.402
			c-0.051-0.123-0.447-0.248-1.056-0.18l-11.405,1.698c-0.286,0.044-0.581-0.042-0.801-0.232c-0.22-0.19-0.347-0.466-0.347-0.757
			V58.086H93.66v34.571c0,0.291-0.126,0.567-0.347,0.757c-0.221,0.19-0.511,0.277-0.801,0.232L81.07,91.943
			C80.98,91.934,80.862,91.926,80.75,91.926z"/>
		<path fill="#231F20" d="M127.576,137.442H80.817c-0.505,0-0.915-0.447-0.915-1v-7.5c0-0.553,0.41-1,0.915-1h46.759
			c0.505,0,0.915,0.447,0.915,1v7.5C128.491,136.995,128.081,137.442,127.576,137.442z M81.732,135.442h44.929v-5.5H81.732V135.442z
			"/>
	</g>
</g>
</svg>
