<?xml version="1.0" encoding="utf-8"?>
<!-- Generator: Adobe Illustrator 17.1.0, SVG Export Plug-In . SVG Version: 6.00 Build 0)  -->
<!DOCTYPE svg PUBLIC "-//W3C//DTD SVG 1.1//EN" "http://www.w3.org/Graphics/SVG/1.1/DTD/svg11.dtd">
<svg version="1.1" id="Layer_1" xmlns="http://www.w3.org/2000/svg" xmlns:xlink="http://www.w3.org/1999/xlink" x="0px" y="0px"
	 viewBox="0 0 216 216" enable-background="new 0 0 216 216" xml:space="preserve">
<g>
	<linearGradient id="SVGID_1_" gradientUnits="userSpaceOnUse" x1="83.2152" y1="82.0398" x2="132.4247" y2="131.2493">
		<stop  offset="0" style="stop-color:#E6E6E6"/>
		<stop  offset="0.5" style="stop-color:#F7F7F7"/>
		<stop  offset="1" style="stop-color:#C4C4C4"/>
	</linearGradient>
	<path fill="url(#SVGID_1_)" d="M146.023,100.742l-5.605-1.34c-0.426-0.1-1.412-0.399-1.676-1.373
		c-0.979-3.63-3.262-6.836-5.951-9.697c0.463-1.115,0.594-2.76,1.746-4.497c1.205-1.816,3.234-4.145,0.828-5.136
		c-0.568-0.234-1.221-0.337-1.92-0.337c-3.105,0-7.145,2.036-8.809,3.689c-3.186-1.766-6.754-3.1-10.57-3.942
		c-0.766-4.127-4.387-7.263-8.731-7.263c-4.271,0-7.844,3.027-8.695,7.047c-15.456,3.019-26.952,14.348-26.952,27.868
		c0,0.511,0.016,1.022,0.053,1.525c-0.04,0.033-0.084,0.068-0.126,0.104c-0.923,0.804-1.906,1.89-2.519,3.391
		c-0.546,1.406-0.751,2.875-0.588,4.345c0.266,2.963,2.38,5.44,4.324,6.045c0.649,0.234,1.218,0.323,1.687,0.323
		c0.928,0,1.469-0.347,1.475-0.599c0.058-0.489-0.999-0.92-1.803-1.926c-0.851-0.942-1.293-2.457-0.993-3.881
		c0.049-0.261,0.127-0.516,0.222-0.758c1.37,3.175,3.517,5.95,6.259,8.286c1.17,5.244,3.383,8.273,3.383,8.273
		s1.228,8.014,3.858,8.014h7.944c1.572,0,3.053-1.277,3.302-2.852c0,0-1.282-2.818-1.403-4.687
		c-0.019-0.333,0.059-0.709,0.169-1.096c3.157,0.584,6.483,0.9,9.936,0.9c1.924,0,3.808-0.099,5.652-0.28
		c0,0,2.502,8.014,5.131,8.014h7.943c1.572,0,2.85-1.277,2.85-2.852c0,0-1.732-2.818-2.146-4.687
		c-0.379-1.708,1.236-4.534,1.236-4.534c5.16-2.505,9.264-6.046,11.77-10.466l4.721,1.124c0.256,0.061,0.512,0.091,0.762,0.091
		c1.479,0,2.816-1.01,3.174-2.511l2.482-10.392C148.863,102.929,147.781,101.162,146.023,100.742z"/>
	<g>
		<path fill="#231F20" d="M127.143,97.313c-1.684,0-3.053,1.369-3.053,3.052c0,1.683,1.369,3.052,3.053,3.052
			c1.684,0,3.053-1.369,3.053-3.052C130.195,98.683,128.826,97.313,127.143,97.313z M127.143,101.917
			c-0.855,0-1.553-0.696-1.553-1.552c0-0.855,0.697-1.552,1.553-1.552c0.855,0,1.553,0.696,1.553,1.552
			C128.695,101.221,127.998,101.917,127.143,101.917z"/>
		<g>
			<path fill="none" d="M115.303,82.353c0.379,0.165,0.555,0.606,0.391,0.986c-0.166,0.38-0.609,0.555-0.986,0.391
				c-0.4-0.173-0.809-0.322-1.221-0.463c-0.479-0.165-0.963-0.31-1.453-0.436c-0.324-0.083-0.65-0.152-0.979-0.219
				c-0.346-0.071-0.691-0.138-1.037-0.192c-3.328-0.518-6.67-0.298-9.273,0.149c-0.365,0.062-0.713,0.13-1.047,0.2
				c-0.348,0.073-0.675,0.148-0.984,0.226c-0.562,0.141-1.046,0.285-1.458,0.425c-0.543,0.185-0.959,0.362-1.182,0.507
				c-0.126,0.082-0.268,0.121-0.408,0.121c-0.245,0-0.485-0.12-0.629-0.341c-0.226-0.347-0.127-0.812,0.22-1.038
				c0.279-0.182,0.808-0.408,1.5-0.641c-0.176-0.661-0.274-1.351-0.294-2.062c-14.238,2.998-24.774,13.425-24.774,25.795
				c0,0.489,0.016,0.953,0.047,1.379c0.047,0.645-0.22,1.274-0.718,1.687l-0.066,0.054l-0.052,0.043
				c-0.914,0.797-1.562,1.659-1.95,2.613c-0.422,1.087-0.578,2.231-0.452,3.368c0.075,0.836,0.342,1.598,0.704,2.242
				c-0.14-0.811-0.131-1.653,0.041-2.471c0.06-0.322,0.169-0.698,0.316-1.074c0.295-0.755,1.018-1.257,1.828-1.271
				c0.012,0,0.023,0,0.035,0c0.797,0,1.52,0.474,1.836,1.207c1.215,2.816,3.14,5.359,5.719,7.557
				c0.331,0.281,0.561,0.663,0.655,1.087c1.066,4.781,3.026,7.502,3.045,7.529c0.189,0.259,0.314,0.559,0.362,0.877
				c0.416,2.695,1.407,5.659,2.094,6.316h7.731c0.446,0,0.926-0.327,1.172-0.746c-0.435-1.065-1.166-3.061-1.269-4.663
				c-0.039-0.696,0.119-1.345,0.241-1.773c0.037-0.129,0.108-0.235,0.167-0.351c-3.087-0.769-6.038-1.839-8.767-3.225
				c-0.369-0.188-0.517-0.64-0.329-1.009c0.187-0.369,0.638-0.515,1.008-0.329c3.112,1.58,6.53,2.742,10.116,3.487
				c0.03,0.004,0.061,0.002,0.091,0.008c3.11,0.575,6.331,0.867,9.572,0.867c1.798,0,3.634-0.091,5.455-0.271
				c0.018-0.002,0.035-0.001,0.053-0.003c1.869-0.234,3.709-0.582,5.506-1.043c0.398-0.099,0.811,0.138,0.914,0.54
				c0.102,0.401-0.139,0.811-0.541,0.913c-1.285,0.329-2.596,0.582-3.92,0.8c0.029,0.064,0.072,0.118,0.094,0.187
				c0.943,3.01,2.52,6.097,3.361,6.61h7.805c0.33,0,0.615-0.189,0.756-0.465c-0.59-1.034-1.65-3.038-2.006-4.641
				c-0.52-2.344,1.119-5.375,1.453-5.959c0.201-0.35,0.502-0.631,0.863-0.807c4.9-2.38,8.672-5.718,10.904-9.653
				c0.359-0.637,1.031-1.014,1.738-1.014c0.154,0,0.309,0.018,0.463,0.055l4.721,1.124c0.1,0.024,0.201,0.036,0.299,0.036
				c0.588,0,1.092-0.401,1.229-0.975l2.482-10.393c0.08-0.331,0.027-0.668-0.148-0.955c-0.178-0.289-0.457-0.492-0.787-0.57
				l-5.605-1.34c-1.615-0.378-2.764-1.398-3.141-2.797c-0.77-2.85-2.562-5.744-5.479-8.849c-0.539-0.574-0.691-1.41-0.391-2.136
				c0.104-0.247,0.201-0.598,0.312-1.003c0.277-1.01,0.66-2.393,1.613-3.832c0.15-0.226,0.311-0.457,0.475-0.693
				c0.287-0.415,0.762-1.097,1-1.574c-0.256-0.067-0.561-0.101-0.898-0.101c-2.605,0-6.123,1.841-7.4,3.108
				c-0.385,0.381-0.895,0.581-1.41,0.581c-0.33,0-0.664-0.082-0.969-0.251c-2.924-1.623-6.119-2.829-9.473-3.619
				c-0.029,0.568-0.102,1.125-0.232,1.662C114.412,81.997,114.861,82.162,115.303,82.353z"/>
			<path d="M146.023,100.742l-5.605-1.34c-0.426-0.1-1.412-0.399-1.676-1.373c-0.979-3.63-3.262-6.836-5.951-9.697
				c0.463-1.115,0.594-2.76,1.746-4.497c1.205-1.816,3.234-4.145,0.828-5.136c-0.568-0.234-1.221-0.337-1.92-0.337
				c-3.105,0-7.145,2.036-8.809,3.689c-3.186-1.766-6.754-3.1-10.57-3.942c0.1,0.528,0.156,1.07,0.156,1.626
				c0,0.151-0.02,0.297-0.029,0.446c3.354,0.79,6.549,1.996,9.473,3.619c0.305,0.169,0.639,0.251,0.969,0.251
				c0.516,0,1.025-0.199,1.41-0.581c1.277-1.268,4.795-3.108,7.4-3.108c0.338,0,0.643,0.034,0.898,0.101
				c-0.238,0.477-0.713,1.159-1,1.574c-0.164,0.236-0.324,0.468-0.475,0.693c-0.953,1.439-1.336,2.822-1.613,3.832
				c-0.111,0.406-0.209,0.756-0.312,1.003c-0.301,0.727-0.148,1.562,0.391,2.136c2.916,3.104,4.709,5.999,5.479,8.849
				c0.377,1.399,1.525,2.419,3.141,2.797l5.605,1.34c0.33,0.079,0.609,0.281,0.787,0.57c0.176,0.287,0.229,0.624,0.148,0.955
				l-2.482,10.393c-0.137,0.573-0.641,0.975-1.229,0.975c-0.098,0-0.199-0.013-0.299-0.036l-4.721-1.124
				c-0.154-0.037-0.309-0.055-0.463-0.055c-0.707,0-1.379,0.377-1.738,1.014c-2.232,3.936-6.004,7.273-10.904,9.653
				c-0.361,0.176-0.662,0.457-0.863,0.807c-0.334,0.584-1.973,3.615-1.453,5.959c0.355,1.603,1.416,3.606,2.006,4.641
				c-0.141,0.276-0.426,0.465-0.756,0.465h-7.805c-0.842-0.514-2.418-3.601-3.361-6.61c-0.021-0.068-0.064-0.122-0.094-0.187
				c1.324-0.218,2.635-0.471,3.92-0.8c0.402-0.102,0.643-0.512,0.541-0.913c-0.104-0.402-0.516-0.639-0.914-0.54
				c-1.797,0.461-3.637,0.809-5.506,1.043c-0.018,0.002-0.035,0.001-0.053,0.003c-1.82,0.18-3.657,0.271-5.455,0.271
				c-3.241,0-6.461-0.292-9.572-0.867c-0.031-0.006-0.061-0.004-0.091-0.008c-3.586-0.745-7.004-1.907-10.116-3.487
				c-0.37-0.186-0.822-0.04-1.008,0.329c-0.188,0.369-0.041,0.821,0.329,1.009c2.729,1.386,5.68,2.456,8.767,3.225
				c-0.059,0.115-0.13,0.222-0.167,0.351c-0.122,0.429-0.28,1.077-0.241,1.773c0.104,1.603,0.834,3.598,1.269,4.663
				c-0.246,0.419-0.726,0.746-1.172,0.746h-7.731c-0.687-0.657-1.678-3.621-2.094-6.316c-0.049-0.317-0.173-0.618-0.362-0.877
				c-0.019-0.027-1.979-2.748-3.045-7.529c-0.095-0.424-0.325-0.806-0.655-1.087c-2.58-2.197-4.504-4.74-5.719-7.557
				c-0.317-0.733-1.039-1.207-1.836-1.207c-0.011,0-0.023,0-0.035,0c-0.811,0.015-1.533,0.517-1.828,1.271
				c-0.147,0.376-0.256,0.752-0.316,1.074c-0.172,0.817-0.181,1.66-0.041,2.471c-0.361-0.645-0.628-1.406-0.704-2.242
				c-0.126-1.137,0.03-2.281,0.452-3.368c0.389-0.954,1.036-1.816,1.95-2.613l0.052-0.043l0.066-0.054
				c0.498-0.413,0.766-1.042,0.718-1.687c-0.031-0.426-0.047-0.89-0.047-1.379c0-12.37,10.536-22.797,24.774-25.795
				c-0.002-0.078-0.016-0.152-0.016-0.231c0-0.631,0.069-1.247,0.194-1.841c-15.457,3.019-26.953,14.348-26.953,27.868
				c0,0.511,0.016,1.022,0.053,1.525c-0.04,0.033-0.084,0.068-0.126,0.104c-0.923,0.804-1.906,1.89-2.519,3.391
				c-0.546,1.406-0.751,2.875-0.588,4.345c0.266,2.963,2.38,5.44,4.324,6.045c0.649,0.234,1.218,0.323,1.687,0.323
				c0.928,0,1.468-0.347,1.474-0.599c0.058-0.489-0.999-0.92-1.803-1.926c-0.851-0.942-1.293-2.457-0.993-3.881
				c0.049-0.261,0.127-0.516,0.222-0.758c1.37,3.175,3.517,5.95,6.259,8.286c1.17,5.244,3.383,8.273,3.383,8.273
				s1.228,8.014,3.858,8.014h7.944c1.572,0,3.053-1.277,3.302-2.852c0,0-1.282-2.818-1.403-4.687
				c-0.019-0.333,0.059-0.709,0.169-1.096c3.157,0.584,6.483,0.9,9.936,0.9c1.924,0,3.808-0.099,5.652-0.28
				c0,0,2.502,8.014,5.131,8.014h7.943c1.572,0,2.85-1.277,2.85-2.852c0,0-1.732-2.818-2.146-4.687
				c-0.379-1.708,1.236-4.534,1.236-4.534c5.16-2.505,9.264-6.046,11.77-10.466l4.721,1.124c0.256,0.061,0.512,0.091,0.762,0.091
				c1.479,0,2.816-1.01,3.174-2.511l2.482-10.392C148.863,102.929,147.781,101.162,146.023,100.742z"/>
			<path fill="none" d="M105.336,73.209c2.842,0,5.254,1.851,6.109,4.409c0.336,0.052,0.674,0.099,1.006,0.158
				c-0.861-3.126-3.721-5.431-7.116-5.431c-3.335,0-6.158,2.222-7.074,5.263c0.34-0.052,0.68-0.104,1.023-0.148
				C100.185,74.985,102.554,73.209,105.336,73.209z"/>
			<path fill="none" d="M98.195,81.603c0.298-0.077,0.607-0.153,0.938-0.226c-0.153-0.55-0.241-1.126-0.241-1.724
				c0-0.039,0.005-0.078,0.006-0.117c-0.317,0.046-0.634,0.093-0.949,0.146c0,0.017-0.002,0.034-0.002,0.051
				C97.946,80.381,98.038,81.005,98.195,81.603z"/>
			<path fill="none" d="M111.586,81.191c0.314,0.068,0.627,0.139,0.938,0.221c0.117-0.501,0.182-1.019,0.191-1.552
				c-0.311-0.061-0.623-0.115-0.938-0.169C111.773,80.208,111.705,80.709,111.586,81.191z"/>
			<path d="M99.905,79.396c-0.338,0.04-0.672,0.092-1.007,0.141c0,0.039-0.006,0.077-0.006,0.117c0,0.598,0.088,1.174,0.241,1.724
				c0.313-0.069,0.64-0.136,0.98-0.2c-0.142-0.484-0.221-0.995-0.221-1.524C99.892,79.567,99.9,79.482,99.905,79.396z"/>
			<path d="M105.336,74.209c2.213,0,4.119,1.33,4.969,3.23c0.385,0.049,0.76,0.121,1.141,0.179
				c-0.855-2.558-3.268-4.409-6.109-4.409c-2.782,0-5.151,1.776-6.051,4.251c0.375-0.049,0.754-0.088,1.134-0.127
				C101.291,75.49,103.165,74.209,105.336,74.209z"/>
			<path d="M110.773,79.537c0.002,0.039,0.006,0.077,0.006,0.117c0,0.461-0.062,0.907-0.172,1.335
				c0.328,0.056,0.652,0.132,0.979,0.202c0.119-0.482,0.188-0.983,0.191-1.5C111.445,79.634,111.109,79.585,110.773,79.537z"/>
			<path d="M100.418,77.333c-0.379,0.039-0.759,0.078-1.134,0.127c-0.237,0.651-0.374,1.348-0.387,2.077
				c0.335-0.049,0.669-0.101,1.007-0.141C99.939,78.661,100.119,77.964,100.418,77.333z"/>
			<path d="M110.773,79.537c0.336,0.048,0.672,0.097,1.004,0.153c0-0.012,0.002-0.024,0.002-0.037c0-0.712-0.119-1.395-0.334-2.036
				c-0.381-0.059-0.756-0.13-1.141-0.179C110.592,78.083,110.758,78.791,110.773,79.537z"/>
			<path d="M105.335,72.346c3.396,0,6.255,2.305,7.116,5.431c0.545,0.098,1.08,0.214,1.615,0.332
				c-0.766-4.127-4.387-7.263-8.731-7.263c-4.27,0-7.844,3.027-8.694,7.047c0.536-0.105,1.076-0.2,1.621-0.285
				C99.177,74.568,102,72.346,105.335,72.346z"/>
			<path d="M112.523,81.412c-0.311-0.082-0.623-0.153-0.938-0.221c-0.326-0.07-0.65-0.146-0.979-0.202
				c-3.782-0.645-7.587-0.354-10.495,0.189c-0.34,0.063-0.667,0.13-0.98,0.2c-0.331,0.073-0.64,0.149-0.938,0.226
				c-0.157-0.598-0.249-1.222-0.249-1.869c0-0.017,0.002-0.034,0.002-0.051c-0.499,0.085-0.995,0.178-1.486,0.282
				c0.021,0.711,0.118,1.401,0.294,2.062c-0.692,0.233-1.221,0.459-1.5,0.641c-0.348,0.226-0.446,0.69-0.22,1.038
				c0.144,0.221,0.384,0.341,0.629,0.341c0.14,0,0.282-0.039,0.408-0.121c0.222-0.145,0.639-0.322,1.182-0.507
				c0.412-0.141,0.896-0.285,1.458-0.425c0.309-0.078,0.637-0.153,0.984-0.226c0.334-0.07,0.682-0.137,1.047-0.2
				c2.602-0.447,5.945-0.667,9.273-0.149c0.346,0.054,0.691,0.121,1.037,0.192c0.328,0.067,0.654,0.136,0.979,0.219
				c0.49,0.125,0.975,0.271,1.453,0.436c0.412,0.142,0.82,0.29,1.221,0.463c0.377,0.164,0.82-0.01,0.986-0.391
				c0.164-0.38-0.012-0.822-0.391-0.986c-0.441-0.191-0.891-0.355-1.342-0.51c0.131-0.537,0.203-1.093,0.232-1.662
				c-0.488-0.115-0.98-0.224-1.479-0.321C112.705,80.393,112.641,80.911,112.523,81.412z"/>
			<path d="M96.462,79.965c0.491-0.104,0.987-0.196,1.486-0.282c0.005-0.721,0.114-1.416,0.312-2.075
				c-0.545,0.084-1.085,0.18-1.621,0.285c-0.126,0.594-0.194,1.21-0.194,1.841C96.446,79.813,96.46,79.888,96.462,79.965z"/>
			<path d="M112.723,79.734c0,0.042-0.006,0.083-0.008,0.125c0.498,0.097,0.99,0.206,1.479,0.321
				c0.01-0.149,0.029-0.295,0.029-0.446c0-0.556-0.057-1.098-0.156-1.626c-0.535-0.118-1.07-0.234-1.615-0.332
				C112.623,78.401,112.723,79.056,112.723,79.734z"/>
		</g>
	</g>
</g>
</svg>
