<?xml version="1.0" encoding="UTF-8" standalone="no"?>
<svg width="93px" height="40px" viewBox="0 0 93 40" version="1.1" xmlns="http://www.w3.org/2000/svg" xmlns:xlink="http://www.w3.org/1999/xlink" xmlns:sketch="http://www.bohemiancoding.com/sketch/ns">
    <!-- Generator: Sketch 3.3.2 (12043) - http://www.bohemiancoding.com/sketch -->
    <title>rh-icon-cloud</title>
    <desc>Created with Sketch.</desc>
    <defs>
        <linearGradient x1="26.126152%" y1="27.5935678%" x2="77.9629287%" y2="149.802638%" id="linearGradient-1">
            <stop stop-color="#E6E6E6" offset="0%"></stop>
            <stop stop-color="#F7F7F7" offset="50.31%"></stop>
            <stop stop-color="#C4C4C4" offset="100%"></stop>
        </linearGradient>
    </defs>
    <g id="Page-1" stroke="none" stroke-width="1" fill="none" fill-rule="evenodd" sketch:type="MSPage">
        <g id="rh-icon-cloud" sketch:type="MSLayerGroup" transform="translate(-1.000000, 0.000000)">
            <g id="Group" sketch:type="MSShapeGroup">
                <path d="M77.99,16.734 C75.061,7.16 66.13,0.523 56.068,0.523 C45.979,0.523 37.124,7.099 34.167,16.644 C32.523,16.058 30.806,15.761 29.048,15.761 C21.913,15.761 15.775,20.669 14.158,27.544 C7.783,27.778 2.411,32.206 0.991,38.476 C0.929,38.757 0.995,39.054 1.177,39.281 C1.358,39.506 1.63,39.639 1.92,39.639 L91.951,39.639 C92.415,39.639 92.811,39.305 92.889,38.848 C93.089,37.684 93.187,36.612 93.187,35.571 C93.188,26.469 86.831,18.641 77.99,16.734 L77.99,16.734 Z" id="Shape" fill="url(#linearGradient-1)"></path>
                <path d="M77.99,16.734 C75.061,7.16 66.13,0.523 56.068,0.523 C45.979,0.523 37.124,7.099 34.167,16.644 C32.523,16.058 30.806,15.761 29.048,15.761 C21.913,15.761 15.775,20.669 14.158,27.544 C7.783,27.778 2.411,32.206 0.991,38.476 C0.929,38.757 0.995,39.054 1.177,39.281 C1.358,39.506 1.63,39.639 1.92,39.639 L91.951,39.639 C92.415,39.639 92.811,39.305 92.889,38.848 C93.089,37.684 93.187,36.612 93.187,35.571 C93.188,26.469 86.831,18.641 77.99,16.734 L77.99,16.734 Z M91.135,37.736 L3.17,37.736 C4.806,32.795 9.385,29.441 14.755,29.441 L14.763,29.441 L14.909,29.447 C15.391,29.492 15.784,29.127 15.868,28.666 C17.023,22.291 22.566,17.664 29.048,17.664 C30.784,17.664 32.471,18.008 34.075,18.66 C35.067,19.142 37.188,20.369 38.498,22.568 C38.654,22.828 38.949,22.955 39.235,22.904 C39.318,22.888 39.4,22.861 39.475,22.814 C39.813,22.613 39.924,22.175 39.723,21.837 C38.596,19.946 36.995,18.7 35.774,17.96 C38.245,8.804 46.556,2.425 56.068,2.425 C65.208,2.425 73.27,8.269 76.033,16.915 C73.579,16.899 71.754,17.786 71.645,17.831 C71.284,17.981 71.108,18.397 71.259,18.763 C71.409,19.126 71.826,19.3 72.19,19.15 C72.217,19.138 74.731,18.138 77.59,18.611 C85.554,20.332 91.284,27.371 91.284,35.57 C91.285,36.266 91.236,36.979 91.135,37.736 L91.135,37.736 Z" id="Shape" fill="#000000"></path>
            </g>
        </g>
    </g>
</svg>