<svg width="83" height="69" viewBox="0 0 83 69" xmlns="http://www.w3.org/2000/svg"><title>rh-icon-piggybank</title><defs><linearGradient x1="20.421%" y1="16.448%" x2="80.374%" y2="88.754%" id="a"><stop stop-color="#E6E6E6" offset="0%"/><stop stop-color="#F7F7F7" offset="50%"/><stop stop-color="#C4C4C4" offset="100%"/></linearGradient></defs><g fill="none" fill-rule="evenodd"><path d="M80.023 30.742l-5.605-1.34c-.426-.1-1.412-.4-1.676-1.373-.98-3.63-3.262-6.837-5.95-9.698.462-1.115.593-2.76 1.745-4.497 1.205-1.816 3.234-4.145.828-5.136-.568-.235-1.22-.338-1.92-.338-3.105 0-7.145 2.036-8.81 3.69-3.185-1.767-6.753-3.1-10.57-3.943C47.3 3.98 43.68.845 39.336.845c-4.27 0-7.844 3.027-8.695 7.047C15.184 10.913 3.688 22.24 3.688 35.76c0 .512.016 1.023.053 1.526l-.125.104c-.923.804-1.906 1.89-2.52 3.39a9.144 9.144 0 0 0-.587 4.346c.266 2.963 2.38 5.44 4.324 6.045.65.235 1.218.324 1.687.324.927 0 1.468-.347 1.474-.6.058-.488-1-.92-1.803-1.925-.85-.943-1.292-2.458-.992-3.882.05-.26.127-.516.222-.758 1.37 3.175 3.517 5.95 6.26 8.286 1.17 5.244 3.382 8.273 3.382 8.273s1.228 8.013 3.858 8.013h7.944c1.572 0 3.053-1.277 3.302-2.852 0 0-1.282-2.817-1.403-4.686-.02-.333.06-.71.17-1.096 3.156.584 6.482.9 9.935.9 1.924 0 3.808-.1 5.652-.28 0 0 2.502 8.014 5.13 8.014h7.944a2.852 2.852 0 0 0 2.85-2.852s-1.732-2.818-2.146-4.687c-.38-1.708 1.236-4.534 1.236-4.534 5.16-2.506 9.264-6.047 11.77-10.467l4.72 1.124a3.266 3.266 0 0 0 3.936-2.42l2.483-10.392a3.266 3.266 0 0 0-2.42-3.933z" fill="url(#a)"/><path d="M61.143 27.313a3.056 3.056 0 0 0-3.053 3.052 3.056 3.056 0 0 0 3.053 3.052 3.056 3.056 0 0 0 3.053-3.052 3.057 3.057 0 0 0-3.053-3.052zm0 4.604a1.555 1.555 0 0 1-1.553-1.552c0-.855.697-1.552 1.553-1.552.855 0 1.553.696 1.553 1.552 0 .856-.698 1.552-1.553 1.552z" fill="#231F20"/><path d="M49.303 12.353c.38.165.555.606.39.986a.752.752 0 0 1-.985.39c-.4-.173-.81-.322-1.22-.463a18.94 18.94 0 0 0-1.454-.436c-.324-.082-.65-.15-.98-.218-.345-.07-.69-.138-1.036-.192-3.328-.518-6.67-.298-9.273.15a27.688 27.688 0 0 0-2.03.425c-.563.14-1.047.285-1.46.425-.542.185-.958.362-1.18.507a.75.75 0 0 1-.817-1.258c.278-.182.807-.408 1.5-.64a8.984 8.984 0 0 1-.295-2.064C16.225 12.964 5.69 23.39 5.69 35.76c0 .49.015.954.046 1.38a2.003 2.003 0 0 1-.718 1.687l-.066.054-.052.044c-.914.797-1.562 1.66-1.95 2.613a7.104 7.104 0 0 0-.452 3.368c.075.836.342 1.598.704 2.242-.14-.81-.13-1.653.04-2.47.06-.323.17-.7.317-1.075a2 2 0 0 1 1.827-1.27h.035a2 2 0 0 1 1.836 1.206c1.215 2.816 3.14 5.36 5.72 7.557.33.28.56.663.654 1.087 1.066 4.78 3.026 7.502 3.045 7.53.19.258.314.558.362.876.415 2.695 1.406 5.66 2.093 6.316h7.73c.447 0 .927-.327 1.173-.746-.435-1.065-1.166-3.06-1.27-4.663-.038-.696.12-1.345.242-1.773.037-.13.108-.235.167-.35-3.087-.77-6.038-1.84-8.767-3.226a.75.75 0 0 1 .68-1.338c3.11 1.58 6.53 2.742 10.115 3.487.03.004.06.002.09.008 3.11.575 6.332.867 9.573.867 1.798 0 3.634-.09 5.455-.27.02-.003.036-.002.054-.004 1.87-.234 3.71-.582 5.506-1.043a.75.75 0 0 1 .373 1.453c-1.285.33-2.596.582-3.92.8.03.064.072.118.094.187.943 3.01 2.52 6.097 3.36 6.61h7.806c.33 0 .615-.19.756-.465-.59-1.034-1.65-3.038-2.007-4.64-.52-2.345 1.12-5.376 1.453-5.96.2-.35.502-.63.863-.807 4.9-2.38 8.67-5.717 10.903-9.652a1.996 1.996 0 0 1 2.2-.96l4.722 1.125a1.26 1.26 0 0 0 1.528-.94l2.482-10.393a1.26 1.26 0 0 0-.935-1.525l-5.605-1.34c-1.615-.377-2.764-1.397-3.14-2.796-.77-2.85-2.563-5.745-5.48-8.85a2.003 2.003 0 0 1-.39-2.136c.103-.247.2-.598.31-1.003.278-1.01.66-2.392 1.614-3.83.15-.227.31-.458.474-.694.287-.415.762-1.097 1-1.574a3.6 3.6 0 0 0-.898-.1c-2.605 0-6.123 1.84-7.4 3.107a2.004 2.004 0 0 1-2.38.33c-2.923-1.624-6.118-2.83-9.472-3.62a9.018 9.018 0 0 1-.232 1.662c.45.155.9.32 1.34.51z"/><path d="M80.023 30.742l-5.605-1.34c-.426-.1-1.412-.4-1.676-1.373-.98-3.63-3.262-6.837-5.95-9.698.462-1.115.593-2.76 1.745-4.497 1.205-1.816 3.234-4.145.828-5.136-.568-.235-1.22-.338-1.92-.338-3.105 0-7.145 2.036-8.81 3.69-3.185-1.767-6.753-3.1-10.57-3.943.1.527.157 1.07.157 1.625 0 .15-.02.297-.03.446 3.355.79 6.55 1.997 9.474 3.62a1.998 1.998 0 0 0 2.38-.33c1.276-1.268 4.794-3.108 7.4-3.108.337 0 .642.034.897.1-.238.478-.713 1.16-1 1.575a52.23 52.23 0 0 0-.475.693c-.953 1.44-1.336 2.822-1.613 3.832-.11.406-.21.756-.312 1.003a2 2 0 0 0 .39 2.136c2.917 3.105 4.71 6 5.48 8.85.377 1.4 1.525 2.42 3.14 2.797l5.606 1.34a1.263 1.263 0 0 1 .934 1.525l-2.482 10.393a1.262 1.262 0 0 1-1.528.94l-4.72-1.125a1.996 1.996 0 0 0-2.2.96c-2.234 3.935-6.006 7.272-10.906 9.652-.36.176-.662.457-.863.807-.334.583-1.973 3.614-1.453 5.958.355 1.603 1.416 3.606 2.006 4.64a.848.848 0 0 1-.756.466h-7.805c-.842-.514-2.418-3.6-3.36-6.61-.022-.068-.065-.122-.095-.187a45.797 45.797 0 0 0 3.92-.8.75.75 0 0 0 .54-.913.756.756 0 0 0-.913-.54c-1.798.46-3.638.81-5.507 1.043-.018.002-.035 0-.053.003-1.82.18-3.657.27-5.455.27a52.8 52.8 0 0 1-9.572-.866c-.03-.006-.06-.004-.09-.008-3.587-.745-7.005-1.907-10.117-3.487a.75.75 0 1 0-.68 1.337c2.73 1.386 5.68 2.456 8.768 3.225-.06.115-.13.222-.167.35-.122.43-.28 1.078-.24 1.774.103 1.603.833 3.598 1.268 4.663-.246.418-.726.745-1.172.745h-7.73c-.688-.657-1.68-3.62-2.095-6.316a2.008 2.008 0 0 0-.362-.878c-.02-.027-1.98-2.748-3.045-7.53a2.003 2.003 0 0 0-.654-1.086c-2.58-2.197-4.504-4.74-5.72-7.557a2 2 0 0 0-1.835-1.208h-.034a2.002 2.002 0 0 0-1.828 1.27 6.12 6.12 0 0 0-.316 1.075 6.587 6.587 0 0 0-.04 2.47 5.65 5.65 0 0 1-.705-2.24 7.104 7.104 0 0 1 .452-3.37c.388-.953 1.035-1.815 1.95-2.612l.05-.043.067-.054a2 2 0 0 0 .718-1.687 19.14 19.14 0 0 1-.047-1.378c0-12.37 10.536-22.797 24.774-25.795-.002-.078-.016-.152-.016-.23 0-.632.07-1.248.194-1.842-15.457 3.02-26.953 14.348-26.953 27.868 0 .51.016 1.022.053 1.525-.04.033-.084.068-.126.104-.923.804-1.906 1.89-2.52 3.39a9.144 9.144 0 0 0-.587 4.346c.266 2.963 2.38 5.44 4.324 6.045.65.234 1.22.323 1.688.323.928 0 1.468-.347 1.474-.6.058-.488-1-.92-1.803-1.925-.852-.94-1.294-2.456-.994-3.88.05-.26.127-.516.222-.758 1.37 3.175 3.517 5.95 6.26 8.286 1.17 5.244 3.382 8.273 3.382 8.273s1.228 8.015 3.858 8.015h7.944c1.572 0 3.053-1.277 3.302-2.852 0 0-1.282-2.818-1.403-4.687-.018-.333.06-.71.17-1.096 3.157.584 6.483.9 9.936.9 1.924 0 3.808-.1 5.652-.28 0 0 2.502 8.014 5.13 8.014h7.944a2.852 2.852 0 0 0 2.85-2.852s-1.732-2.818-2.146-4.687c-.38-1.708 1.236-4.534 1.236-4.534 5.16-2.504 9.264-6.045 11.77-10.465l4.72 1.124a3.266 3.266 0 0 0 3.936-2.42l2.483-10.393a3.264 3.264 0 0 0-2.417-3.935z" fill="#000"/><path d="M39.336 3.21c2.842 0 5.254 1.85 6.11 4.408.335.052.673.1 1.005.158-.86-3.126-3.72-5.43-7.115-5.43-3.335 0-6.158 2.22-7.074 5.262.34-.052.68-.104 1.024-.148.9-2.475 3.27-4.25 6.052-4.25zM32.195 11.603c.298-.077.607-.153.938-.226a6.415 6.415 0 0 1-.24-1.724c0-.04.004-.078.005-.117-.317.046-.634.093-.95.146v.05c-.002.65.09 1.273.247 1.87zM45.586 11.19c.314.07.627.14.938.222.117-.5.182-1.02.19-1.552-.31-.06-.622-.115-.937-.17a6.453 6.453 0 0 1-.19 1.5z"/><path d="M33.905 9.396c-.338.04-.672.092-1.007.14 0 .04-.006.078-.006.118 0 .598.088 1.174.24 1.724.314-.07.64-.136.98-.2a5.405 5.405 0 0 1-.22-1.524c0-.087.008-.172.013-.258zM39.336 4.21a5.45 5.45 0 0 1 4.97 3.23c.384.048.76.12 1.14.178-.855-2.558-3.268-4.41-6.11-4.41-2.78 0-5.15 1.777-6.05 4.252.375-.05.754-.088 1.134-.127a5.442 5.442 0 0 1 4.916-3.124zM44.773 9.537c.002.04.006.077.006.117 0 .46-.063.907-.173 1.335.328.055.652.13.98.2a6.4 6.4 0 0 0 .19-1.5 36.194 36.194 0 0 0-1.004-.153z" fill="#000"/><path d="M34.418 7.333c-.38.04-.76.078-1.134.127a6.388 6.388 0 0 0-.387 2.077c.335-.05.67-.1 1.007-.14a5.408 5.408 0 0 1 .514-2.064zM44.773 9.537c.336.048.672.097 1.004.153l.002-.037c0-.712-.12-1.395-.335-2.036-.38-.06-.756-.13-1.14-.18a5.4 5.4 0 0 1 .468 2.1z" fill="#000"/><path d="M39.335 2.346c3.396 0 6.255 2.305 7.116 5.43.546.1 1.08.215 1.616.333C47.3 3.98 43.68.845 39.336.845c-4.27 0-7.845 3.027-8.695 7.047.537-.105 1.077-.2 1.622-.285.915-3.04 3.738-5.262 7.073-5.262zM46.523 11.412c-.31-.082-.623-.153-.938-.22-.326-.07-.65-.147-.98-.203-3.78-.646-7.586-.355-10.494.188a27.198 27.198 0 0 0-1.917.426 7.34 7.34 0 0 1-.25-1.87c0-.016.003-.033.003-.05-.5.085-.995.178-1.486.282.02.71.118 1.4.294 2.062-.692.233-1.22.46-1.5.64a.75.75 0 0 0 .817 1.26c.223-.146.64-.323 1.183-.508.412-.14.896-.285 1.458-.425a29.83 29.83 0 0 1 2.03-.426c2.604-.448 5.947-.668 9.275-.15.346.054.69.12 1.037.192a18.377 18.377 0 0 1 2.432.655c.412.142.82.29 1.22.463a.75.75 0 0 0 .987-.39.75.75 0 0 0-.39-.987c-.44-.19-.89-.355-1.342-.51a8.92 8.92 0 0 0 .232-1.662c-.488-.114-.98-.223-1.48-.32a7.103 7.103 0 0 1-.187 1.552z" fill="#000"/><path d="M30.462 9.965c.49-.104.987-.196 1.486-.282.005-.72.114-1.416.312-2.075-.545.084-1.085.18-1.62.285a8.866 8.866 0 0 0-.195 1.84c0 .08.015.155.017.232zM46.723 9.734c0 .042-.006.083-.008.125.498.096.99.205 1.48.32.01-.15.028-.295.028-.446 0-.556-.057-1.098-.156-1.626a41.947 41.947 0 0 0-1.615-.332c.17.625.27 1.28.27 1.958z" fill="#000"/></g></svg>