<svg width="53" height="82" viewBox="0 0 53 82" xmlns="http://www.w3.org/2000/svg"><title>rh-icon-download</title><defs><linearGradient x1="-5.909%" y1="21.276%" x2="105.91%" y2="93.208%" id="a"><stop stop-color="#E6E6E6" offset="0%"/><stop stop-color="#F7F7F7" offset="50%"/><stop stop-color="#C4C4C4" offset="100%"/></linearGradient></defs><g fill="none" fill-rule="evenodd"><path d="M52.19 35.362c-.178-.432-.784-1.436-2.546-1.436-.18 0-.373.01-.615.038l-10.296 1.533V1.087a1 1 0 0 0-1-1H14.66a1 1 0 0 0-1 1v34.41L3.328 33.96C1.124 33.72.4 34.887.203 35.363c-.44 1.063-.026 2.41 1.017 3.446l24.21 29.126a1 1 0 0 0 1.537 0l24.146-29.06c1.105-1.104 1.518-2.45 1.078-3.514zm-2.614 36.58H2.816c-.504 0-.914.447-.914 1v7.5c0 .553.41 1 .915 1h46.76c.504 0 .914-.447.914-1v-7.5c0-.553-.41-1-.914-1z" fill="url(#a)"/><g fill="#231F20"><path d="M26.198 68.295c-.298 0-.58-.132-.77-.36L1.22 38.808C.177 37.77-.236 36.425.203 35.362c.197-.476.92-1.643 3.125-1.403l10.332 1.537V1.087a1 1 0 0 1 1-1h23.074a1 1 0 0 1 1 1v34.41l10.295-1.533c.24-.027.434-.038.614-.038 1.762 0 2.368 1.004 2.547 1.436.44 1.063.027 2.41-1.078 3.514l-24.146 29.06c-.19.228-.47.36-.768.36zM2.75 35.925c-.423 0-.658.105-.698.202-.082.197.066.757.645 1.334L26.2 65.73l23.437-28.2c.64-.646.79-1.206.707-1.402-.05-.123-.447-.248-1.056-.18l-11.405 1.698a1 1 0 0 1-1.148-.99V2.087H15.66v34.57c0 .292-.126.568-.347.758a.992.992 0 0 1-.8.232L3.07 35.943a3.364 3.364 0 0 0-.32-.017zM49.576 81.442H2.816c-.504 0-.914-.447-.914-1v-7.5c0-.553.41-1 .915-1h46.76c.504 0 .914.447.914 1v7.5c0 .553-.41 1-.914 1zm-45.844-2h44.93v-5.5H3.73v5.5z"/></g></g></svg>