<?xml version="1.0" encoding="utf-8"?>
<!-- Generator: Adobe Illustrator 21.1.0, SVG Export Plug-In . SVG Version: 6.00 Build 0)  -->
<svg version="1.1" id="Layer_1" xmlns="http://www.w3.org/2000/svg" xmlns:xlink="http://www.w3.org/1999/xlink" x="0px" y="0px"
	 viewBox="0 0 773.6 253.7" style="enable-background:new 0 0 773.6 253.7;" xml:space="preserve">
<style type="text/css">
	.st0{fill:#A30000;}
	.st1{fill:#CC0000;}
	.st2{fill:#FFFFFF;}
</style>
<g>
	<polygon class="st0" points="181,95.3 163.8,112.5 178.1,126.8 212.5,126.8 	"/>
	<polygon class="st0" points="132.4,172.6 118,158.2 100.8,175.4 132.4,207.1 132.4,207.1 	"/>
	<polygon class="st1" points="178.1,126.8 132.4,172.6 132.4,207.1 212.5,126.8 	"/>
	<polygon class="st0" points="83.7,158.4 101,141.2 86.7,126.8 52.2,126.8 	"/>
	<polygon class="st0" points="132.4,81.1 146.7,95.5 164,78.3 132.4,46.6 132.4,46.6 	"/>
	<polygon class="st1" points="86.7,126.8 132.4,81.1 132.4,46.6 52.2,126.8 	"/>
	<path class="st2" d="M257.4,81.9l-5.1-10.2h-5.7v10.2h-5.6V53.5h13.2c5.3,0,9.8,2.9,9.8,9c0,4.2-1.8,6.9-5.4,8.3l5.4,11.1
		L257.4,81.9z M254.1,59h-7.4v7.3h7.4c2.6,0,4-1.2,4-3.7C258.1,60.1,256.6,59,254.1,59z"/>
	<path class="st2" d="M269.9,81.9V53.5h19.7V59h-14v4.9h8.1v5.5h-8.1v6.8h14.6v5.5h-20.4V81.9z"/>
	<path class="st2" d="M304.7,81.9h-8.5V53.5h8.9c8.1,0,14.1,3.8,14.1,14.2C319.2,77.6,312.1,81.9,304.7,81.9z M304.9,59h-3v17.3h2.8
		c6,0,8.7-3.5,8.7-8.7C313.4,61.8,310.9,59,304.9,59z"/>
	<path class="st2" d="M354,81.9V69.9h-11.6v11.9h-5.6V53.5h5.6v10.8H354V53.5h5.6v28.4H354z"/>
	<path class="st2" d="M385.9,81.9l-2.3-6.3h-10.4l-2.3,6.3h-6.1l10.8-28.4h5.5L392,81.9H385.9z M379.8,64.9
		c-0.5-1.6-1.1-3.4-1.4-4.4c-0.3,1.1-0.9,2.7-1.4,4.4l-1.8,5.1h6.5L379.8,64.9z"/>
	<path class="st2" d="M405.5,59.1v22.8h-5.6V59.1h-8.1v-5.6h22v5.6H405.5z"/>
	<path class="st2" d="M253.8,140.5h-12.9V97.3h13.6c12.4,0,21.5,5.9,21.5,21.6C276,134.1,265,140.5,253.8,140.5z M254.2,105.7h-4.6
		v26.5h4.2c9.1,0,13.2-5.3,13.2-13.2C267.1,110,263.3,105.7,254.2,105.7z"/>
	<path class="st2" d="M283.3,140.5V97.3h30v8.5H292v7.5h12.5v8.5H292v10.4h22.3v8.5L283.3,140.5L283.3,140.5z"/>
	<path class="st2" d="M342.4,140.5H334l-15.4-43.3h9.5l8.1,25c0.8,2.4,1.6,5.5,2.1,7.2c0.3-1.6,1.2-4.6,2-7.2l8-25h9.4L342.4,140.5z
		"/>
	<path class="st2" d="M364.5,140.5V97.3h30v8.5h-21.4v7.5h12.5v8.5h-12.5v10.4h22.3v8.5L364.5,140.5L364.5,140.5z"/>
	<path class="st2" d="M403.5,140.5V97.3h8.7v34.7h21.7v8.6H403.5z"/>
	<path class="st2" d="M455.4,141.3c-11.8,0-18.8-9.1-18.8-22.3s6.9-22.3,18.8-22.3c11.8,0,18.8,9.1,18.8,22.3
		S467.2,141.3,455.4,141.3z M455.4,105.2c-6.9,0-9.9,6-9.9,13.8s2.9,13.8,9.9,13.8c6.9,0,9.9-6,9.9-13.8S462.4,105.2,455.4,105.2z"
		/>
	<path class="st2" d="M499.9,125.2h-9.5v15.3h-8.7V97.3h18.9c8.1,0,14.9,4.6,14.9,13.8C515.6,121,508.9,125.2,499.9,125.2z
		 M500.4,105.7h-10v11.1h10.1c4,0,6.2-1.8,6.2-5.6C506.7,107.4,504.2,105.7,500.4,105.7z"/>
	<path class="st2" d="M522.6,140.5V97.3h30v8.5h-21.5v7.5h12.5v8.5h-12.5v10.4h22.3v8.5L522.6,140.5L522.6,140.5z"/>
	<path class="st2" d="M586.6,140.5l-7.7-15.6h-8.7v15.6h-8.7V97.3h20.2c8.1,0,14.9,4.6,14.9,13.8c0,6.5-2.8,10.5-8.2,12.7l8.2,16.8
		H586.6z M581.5,105.7h-11.3v11.1h11.3c4,0,6.2-1.8,6.2-5.6C587.6,107.3,585.3,105.7,581.5,105.7z"/>
	<path class="st2" d="M259,183.9h-9.5v15.3h-8.7v-43.3h18.9c8.1,0,14.9,4.6,14.9,13.8C274.8,179.8,268,183.9,259,183.9z
		 M259.5,164.4h-10v11.2h10.1c4,0,6.2-1.8,6.2-5.6C265.9,166.1,263.4,164.4,259.5,164.4z"/>
	<path class="st2" d="M306.8,199.3l-7.7-15.6h-8.7v15.6h-8.7V156h20.2c8.1,0,14.9,4.6,14.9,13.8c0,6.5-2.8,10.5-8.2,12.7l8.2,16.8
		H306.8z M301.7,164.4h-11.3v11.2h11.3c4,0,6.2-1.8,6.2-5.6C307.8,166,305.4,164.4,301.7,164.4z"/>
	<path class="st2" d="M341.1,199.9c-11.8,0-18.8-9.1-18.8-22.3c0-13.1,6.9-22.3,18.8-22.3c11.8,0,18.8,9.1,18.8,22.3
		C359.9,190.8,352.9,199.9,341.1,199.9z M341.1,163.9c-6.9,0-9.9,6-9.9,13.8c0,7.7,2.9,13.8,9.9,13.8c6.9,0,9.9-6,9.9-13.8
		C351,169.9,348.1,163.9,341.1,163.9z"/>
	<path class="st2" d="M384,199.9c-11.3,0-18.9-8.7-18.9-22.3c0-13.1,7.9-22.3,19.2-22.3c8.8,0,13.6,4.1,16.4,10.8l-8.2,3.4
		c-1.6-3.3-3.6-5.6-8.2-5.6c-6.5,0-10.2,5.6-10.2,13.8c0,8,3.8,13.9,10.3,13.9c6,0,8-2.8,8.5-6.5H386v-8.1h15.5v5.6
		C401.5,193.6,394.1,199.9,384,199.9z"/>
	<path class="st2" d="M434.5,199.3l-7.7-15.6h-8.7v15.6h-8.7V156h20.2c8.1,0,14.9,4.6,14.9,13.8c0,6.5-2.8,10.5-8.2,12.7l8.2,16.8
		H434.5z M429.4,164.4h-11.3v11.2h11.3c4,0,6.2-1.8,6.2-5.6C435.5,166,433.2,164.4,429.4,164.4z"/>
	<path class="st2" d="M480.1,199.3l-3.4-9.6h-15.8l-3.4,9.6h-9.2l16.6-43.3h8.5l16.5,43.3H480.1z M471,173.6
		c-0.9-2.5-1.7-5.1-2.2-6.7c-0.4,1.6-1.3,4.2-2.2,6.7l-2.8,7.8h9.9L471,173.6z"/>
	<path class="st2" d="M528.2,199.3v-15.8c0-2.4,0.1-7.8,0.1-9.5c-0.7,1.6-2,4.7-3,7.2l-8.8,19.2l-8.8-19.2c-1.1-2.5-2.4-5.5-3-7.2
		c0,1.6,0.1,7.2,0.1,9.5v15.8h-8.3V156h8.3l9,19.6c1.1,2.4,2.4,5.6,2.9,7.3c0.5-1.6,1.8-4.8,2.9-7.3l8.7-19.6h8.6v43.3H528.2z"/>
	<path class="st2" d="M424.2,58.3c-0.2,0.4-0.4,0.9-0.8,1.2c-0.3,0.3-0.8,0.5-1.2,0.8c-0.4,0.2-1,0.3-1.4,0.3c-0.5,0-1-0.1-1.4-0.3
		c-0.4-0.2-0.9-0.4-1.2-0.8c-0.3-0.3-0.5-0.8-0.8-1.2c-0.2-0.4-0.3-1-0.3-1.4c0-0.5,0.1-1,0.3-1.4c0.2-0.4,0.4-0.9,0.8-1.2
		c0.3-0.3,0.8-0.5,1.2-0.8c0.4-0.2,1-0.3,1.4-0.3c0.5,0,1,0.1,1.4,0.3c0.4,0.2,0.9,0.4,1.2,0.8c0.3,0.3,0.5,0.8,0.8,1.2
		c0.2,0.4,0.3,1,0.3,1.4C424.5,57.5,424.4,57.9,424.2,58.3z M423.6,55.7c-0.1-0.3-0.3-0.7-0.7-1c-0.3-0.3-0.7-0.5-1-0.7
		s-0.8-0.2-1.2-0.2c-0.4,0-0.9,0.1-1.2,0.2c-0.3,0.1-0.7,0.3-1,0.7c-0.3,0.3-0.5,0.7-0.7,1c-0.1,0.3-0.2,0.8-0.2,1.2
		c0,0.4,0.1,0.9,0.2,1.2c0.1,0.3,0.3,0.7,0.7,1c0.3,0.3,0.7,0.5,1,0.7s0.8,0.2,1.2,0.2c0.4,0,0.9-0.1,1.2-0.2c0.3-0.1,0.7-0.3,1-0.7
		c0.3-0.3,0.5-0.7,0.7-1c0.1-0.3,0.2-0.8,0.2-1.2C423.9,56.5,423.8,56.1,423.6,55.7z M422.2,56.8c-0.1,0.2-0.3,0.3-0.7,0.4l0.9,1.6
		h-0.8l-0.8-1.5h-0.8v1.5h-0.7v-4h1.7c0.2,0,0.3,0,0.5,0.1c0.1,0,0.3,0.1,0.4,0.2c0.1,0.1,0.2,0.2,0.3,0.3c0.1,0.1,0.1,0.3,0.1,0.5
		C422.5,56.4,422.4,56.6,422.2,56.8z M421.7,55.6c-0.1-0.1-0.3-0.1-0.4-0.1h-1.1v1.1h1.1c0.2,0,0.3,0,0.4-0.1
		c0.1-0.1,0.2-0.2,0.2-0.4C421.8,55.8,421.8,55.7,421.7,55.6z"/>
</g>
</svg>
