<?xml version="1.0" encoding="utf-8"?>
<!-- Generator: Adobe Illustrator 19.2.0, SVG Export Plug-In . SVG Version: 6.00 Build 0)  -->
<svg version="1.1" id="Layer_1" xmlns="http://www.w3.org/2000/svg" xmlns:xlink="http://www.w3.org/1999/xlink" x="0px" y="0px"
	 viewBox="0 0 773.6 253.7" style="enable-background:new 0 0 773.6 253.7;" xml:space="preserve">
<style type="text/css">
	.st0{fill:#FFFFFF;}
	.st1{fill:#A30000;}
	.st2{fill:#CC0000;}
</style>
<path class="st0" d="M253.5,118.1l-6.1-12.3h-6.9v12.3h-6.7V83.8h15.8c1.6,0,3.1,0.2,4.5,0.7c1.4,0.4,2.7,1.1,3.7,2
	c1.1,0.9,1.9,2,2.5,3.4c0.6,1.4,0.9,2.9,0.9,4.8c0,2.6-0.5,4.7-1.6,6.3c-1.1,1.6-2.7,2.9-4.9,3.7l6.5,13.3H253.5z M253,91.5
	c-0.9-0.7-2.1-1-3.6-1h-8.9v8.8h8.9c3.3,0,4.9-1.5,4.9-4.4C254.3,93.3,253.9,92.2,253,91.5z"/>
<path class="st0" d="M269.9,118.1V83.8h23.5v6.7h-16.8v5.9h9.8v6.7h-9.8v8.3h17.5v6.7H269.9z"/>
<path class="st0" d="M328.9,108.7c-1,2.2-2.3,3.9-3.9,5.3c-1.6,1.4-3.5,2.4-5.6,3.1s-4.2,1-6.4,1h-10.1V83.8h10.6
	c2.4,0,4.7,0.3,6.7,0.9c2.1,0.6,3.8,1.6,5.3,3c1.5,1.4,2.7,3.1,3.5,5.3c0.9,2.2,1.3,4.8,1.3,7.9
	C330.4,103.9,329.9,106.5,328.9,108.7z M321,93.1c-1.6-1.7-4.2-2.6-7.8-2.6h-3.6v20.8h3.4c1.8,0,3.3-0.3,4.6-0.8
	c1.3-0.5,2.4-1.2,3.2-2.1c0.8-0.9,1.5-2,1.9-3.3c0.4-1.3,0.6-2.7,0.6-4.3C323.4,97.5,322.6,94.9,321,93.1z"/>
<path class="st0" d="M374.9,118.1v-14.4h-14v14.4h-6.7V83.8h6.7V97h14V83.8h6.7v34.2H374.9z"/>
<path class="st0" d="M414.5,118.1l-2.7-7.6h-12.4l-2.7,7.6h-7.3l13-34.2h6.6l12.9,34.2H414.5z M407.3,97.7c-0.4-1-0.7-2-1-2.9
	c-0.3-0.9-0.5-1.7-0.7-2.4c-0.2,0.7-0.4,1.4-0.7,2.4c-0.3,0.9-0.6,1.9-1,2.9l-2.2,6.2h7.8L407.3,97.7z"/>
<path class="st0" d="M439.5,90.5v27.5h-6.7V90.5H423v-6.7h26.3v6.7H439.5z"/>
<path class="st0" d="M249.2,187.5h-15.4v-51.9h16.1c14.7,0,25.6,7,25.6,26C275.5,179.8,262.4,187.5,249.2,187.5z M249.5,145.7h-5.5
	v31.8h5.1c10.8,0,15.8-6.4,15.8-15.9C264.9,151,260.4,145.7,249.5,145.7z"/>
<path class="st0" d="M285.8,187.5v-51.9h35.8v10.2h-25.5v9h14.8v10.1h-14.8v12.5h26.6v10.2H285.8z"/>
<path class="st0" d="M357.6,187.5h-10l-18.3-51.9h11.4l9.7,30c1,2.9,2,6.7,2.4,8.5c0.4-1.9,1.4-5.5,2.4-8.5l9.5-30h11.3L357.6,187.5
	z"/>
<path class="st0" d="M385.5,187.5v-51.9h35.8v10.2h-25.5v9h14.8v10.1h-14.8v12.5h26.6v10.2H385.5z"/>
<path class="st0" d="M433.3,187.5v-51.9h10.3v41.7h25.9v10.2H433.3z"/>
<path class="st0" d="M496.6,188.4c-14.1,0-22.4-11-22.4-26.8c0-15.8,8.3-26.8,22.4-26.8c14.1,0,22.4,11,22.4,26.8
	C519,177.4,510.7,188.4,496.6,188.4z M496.6,145.1c-8.3,0-11.8,7.2-11.8,16.5c0,9.3,3.5,16.5,11.8,16.5c8.3,0,11.8-7.2,11.8-16.5
	C508.4,152.3,505,145.1,496.6,145.1z"/>
<path class="st0" d="M551.2,169.1h-11.3v18.4h-10.3v-51.9h22.5c9.7,0,17.7,5.4,17.7,16.5C569.8,164.1,561.9,169.1,551.2,169.1z
	 M551.7,145.7h-11.9v13.4h12c4.8,0,7.4-2.2,7.4-6.7C559.2,147.8,556.3,145.7,551.7,145.7z"/>
<path class="st0" d="M579.6,187.5v-51.9h35.8v10.2h-25.5v9h14.8v10.1h-14.8v12.5h26.6v10.2H579.6z"/>
<path class="st0" d="M657.3,187.5l-9.2-18.7h-10.4v18.7h-10.3v-51.9h24c9.7,0,17.7,5.4,17.7,16.5c0,7.8-3.3,12.7-9.9,15.3l9.9,20.2
	H657.3z M651.2,145.7h-13.5v13.4h13.5c4.8,0,7.4-2.2,7.4-6.7C658.6,147.6,655.8,145.7,651.2,145.7z"/>
<path class="st0" d="M697.5,188.4c-8.6,0-16.1-3.6-20-9.4l7.4-6.7c3.6,4.2,8.2,5.9,13.2,5.9c6.1,0,9-1.7,9-5.6c0-3.3-1.8-4.8-11.5-7
	c-9.5-2.2-16.1-5.3-16.1-15.5c0-9.4,8.2-15.2,18.4-15.2c8,0,13.9,3,18.8,8.2l-7.4,7.3c-3.3-3.4-7-5.3-11.7-5.3
	c-5.5,0-7.4,2.4-7.4,4.7c0,3.3,2.2,4.3,10.4,6.2c8.2,1.9,17.2,4.7,17.2,16C717.8,181.7,711.6,188.4,697.5,188.4z"/>
<polygon class="st1" points="171.3,98.1 155.3,114 168.6,127.3 200.5,127.3 "/>
<polygon class="st1" points="126.3,169.6 113,156.4 97,172.3 126.3,201.5 126.3,201.5 126.3,169.6 "/>
<polygon class="st2" points="168.6,127.3 126.3,169.6 126.3,201.5 200.5,127.3 "/>
<polygon class="st1" points="81.3,156.5 97.2,140.6 84,127.3 52,127.3 "/>
<polygon class="st1" points="126.3,85 139.5,98.3 155.5,82.3 126.3,53.1 126.3,53.1 126.3,85 "/>
<polygon class="st2" points="84,127.3 126.3,85 126.3,53.1 52,127.3 "/>
</svg>
