<?xml version="1.0" encoding="utf-8"?>
<!-- Generator: Adobe Illustrator 19.2.0, SVG Export Plug-In . SVG Version: 6.00 Build 0)  -->
<svg version="1.1" id="Layer_1" xmlns="http://www.w3.org/2000/svg" xmlns:xlink="http://www.w3.org/1999/xlink" x="0px" y="0px"
	 viewBox="0 0 727.7 118.8" style="enable-background:new 0 0 727.7 118.8;" xml:space="preserve">
<style type="text/css">
	.st0{fill:#424242;}
</style>
<path class="st0" d="M205.7,117.1l-4.7-2.7l0.5-0.9l4.7,2.7L205.7,117.1z M198.7,113l-4.7-2.7l0.5-0.9l4.7,2.7L198.7,113z
	 M191.7,109l-4.7-2.7l0.5-0.9l4.7,2.7L191.7,109z M184.7,104.9l-4.7-2.7l0.5-0.9l4.7,2.7L184.7,104.9z M177.7,100.9l-4.7-2.7
	l0.5-0.9l4.7,2.7L177.7,100.9z M170.7,96.8l-4.7-2.7l0.5-0.9l4.7,2.7L170.7,96.8z M163.6,92.7l-4.7-2.7l0.5-0.9l4.7,2.7L163.6,92.7z
	 M156.6,88.7l-4.7-2.7l0.5-0.9l4.7,2.7L156.6,88.7z M149.6,84.6l-4.7-2.7l0.5-0.9l4.7,2.7L149.6,84.6z M142.6,80.6l-4.7-2.7l0.5-0.9
	l4.7,2.7L142.6,80.6z M135.6,76.5l-4.7-2.7l0.5-0.9l4.7,2.7L135.6,76.5z M128.5,72.5l-4.7-2.7l0.5-0.9l4.7,2.7L128.5,72.5z
	 M121.5,68.4l-4.7-2.7l0.5-0.9l4.7,2.7L121.5,68.4z M114.5,64.4l-4.7-2.7l0.5-0.9l4.7,2.7L114.5,64.4z M107.5,60.3l-4.7-2.7l0.5-0.9
	l4.7,2.7L107.5,60.3z M100.5,56.3l-4.7-2.7l0.5-0.9l4.7,2.7L100.5,56.3z M93.4,52.2l-4.7-2.7l0.5-0.9l4.7,2.7L93.4,52.2z M86.4,48.2
	l-4.7-2.7l0.5-0.9l4.7,2.7L86.4,48.2z M79.4,44.1l-4.7-2.7l0.5-0.9l4.7,2.7L79.4,44.1z M72.4,40.1l-4.7-2.7l0.5-0.9l4.7,2.7
	L72.4,40.1z M65.4,36l-4.7-2.7l0.5-0.9l4.7,2.7L65.4,36z M58.4,32l-4.7-2.7l0.5-0.9l4.7,2.7L58.4,32z M51.3,27.9l-4.7-2.7l0.5-0.9
	l4.7,2.7L51.3,27.9z M44.3,23.9l-4.7-2.7l0.5-0.9l4.7,2.7L44.3,23.9z M37.3,19.8l-4.7-2.7l0.5-0.9l4.7,2.7L37.3,19.8z M30.3,15.8
	L25.5,13l0.5-0.9l4.7,2.7L30.3,15.8z M23.3,11.7L18.5,9L19,8.1l4.7,2.7L23.3,11.7z M16.2,7.7l-4.7-2.7L12,4.1l4.7,2.7L16.2,7.7z
	 M9.2,3.6L4.5,0.9L5,0l4.7,2.7L9.2,3.6z"/>
<path class="st0" d="M173.1,116.2l4.7-2.7l0.5,0.9l-4.7,2.7L173.1,116.2z M180.1,112.1l4.7-2.7l0.5,0.9l-4.7,2.7L180.1,112.1z
	 M187.2,108.1l4.7-2.7l0.5,0.9l-4.7,2.7L187.2,108.1z M194.2,104l4.7-2.7l0.5,0.9l-4.7,2.7L194.2,104z M201.2,100l4.7-2.7l0.5,0.9
	l-4.7,2.7L201.2,100z M208.2,95.9l4.7-2.7l0.5,0.9l-4.7,2.7L208.2,95.9z M215.2,91.9l4.7-2.7l0.5,0.9l-4.7,2.7L215.2,91.9z
	 M222.3,87.8l4.7-2.7l0.5,0.9l-4.7,2.7L222.3,87.8z M229.3,83.8L234,81l0.5,0.9l-4.7,2.7L229.3,83.8z M236.3,79.7L241,77l0.5,0.9
	l-4.7,2.7L236.3,79.7z M243.3,75.7l4.7-2.7l0.5,0.9l-4.7,2.7L243.3,75.7z M250.3,71.6l4.7-2.7l0.5,0.9l-4.7,2.7L250.3,71.6z
	 M257.4,67.6l4.7-2.7l0.5,0.9l-4.7,2.7L257.4,67.6z M264.4,63.5l4.7-2.7l0.5,0.9l-4.7,2.7L264.4,63.5z M271.4,59.5l4.7-2.7l0.5,0.9
	l-4.7,2.7L271.4,59.5z M278.4,55.4l4.7-2.7l0.5,0.9l-4.7,2.7L278.4,55.4z M285.4,51.4l4.7-2.7l0.5,0.9l-4.7,2.7L285.4,51.4z
	 M292.4,47.3l4.7-2.7l0.5,0.9l-4.7,2.7L292.4,47.3z M299.5,43.3l4.7-2.7l0.5,0.9l-4.7,2.7L299.5,43.3z M306.5,39.2l4.7-2.7l0.5,0.9
	l-4.7,2.7L306.5,39.2z M313.5,35.1l4.7-2.7l0.5,0.9L314,36L313.5,35.1z M320.5,31.1l4.7-2.7l0.5,0.9L321,32L320.5,31.1z M327.5,27
	l4.7-2.7l0.5,0.9l-4.7,2.7L327.5,27z M334.6,23l4.7-2.7l0.5,0.9l-4.7,2.7L334.6,23z M341.6,18.9l4.7-2.7l0.5,0.9l-4.7,2.7
	L341.6,18.9z M348.6,14.9l4.7-2.7l0.5,0.9l-4.7,2.7L348.6,14.9z M355.6,10.8l4.7-2.7l0.5,0.9l-4.7,2.7L355.6,10.8z M362.6,6.8
	l4.7-2.7l0.5,0.9l-4.7,2.7L362.6,6.8z M369.7,2.7l4.7-2.7l0.5,0.9l-4.7,2.7L369.7,2.7z"/>
<path class="st0" d="M337.9,116.2l4.7-2.7l0.5,0.9l-4.7,2.7L337.9,116.2z M345,112.1l4.7-2.7l0.5,0.9l-4.7,2.7L345,112.1z
	 M352,108.1l4.7-2.7l0.5,0.9l-4.7,2.7L352,108.1z M359,104l4.7-2.7l0.5,0.9l-4.7,2.7L359,104z M366,100l4.7-2.7l0.5,0.9l-4.7,2.7
	L366,100z M373,95.9l4.7-2.7l0.5,0.9l-4.7,2.7L373,95.9z M380.1,91.9l4.7-2.7l0.5,0.9l-4.7,2.7L380.1,91.9z M387.1,87.8l4.7-2.7
	l0.5,0.9l-4.7,2.7L387.1,87.8z M394.1,83.8l4.7-2.7l0.5,0.9l-4.7,2.7L394.1,83.8z M401.1,79.7l4.7-2.7l0.5,0.9l-4.7,2.7L401.1,79.7z
	 M408.1,75.7l4.7-2.7l0.5,0.9l-4.7,2.7L408.1,75.7z M415.1,71.6l4.7-2.7l0.5,0.9l-4.7,2.7L415.1,71.6z M422.2,67.6l4.7-2.7l0.5,0.9
	l-4.7,2.7L422.2,67.6z M429.2,63.5l4.7-2.7l0.5,0.9l-4.7,2.7L429.2,63.5z M436.2,59.5l4.7-2.7l0.5,0.9l-4.7,2.7L436.2,59.5z
	 M443.2,55.4l4.7-2.7l0.5,0.9l-4.7,2.7L443.2,55.4z M450.2,51.4l4.7-2.7l0.5,0.9l-4.7,2.7L450.2,51.4z M457.3,47.3l4.7-2.7l0.5,0.9
	l-4.7,2.7L457.3,47.3z M464.3,43.3l4.7-2.7l0.5,0.9l-4.7,2.7L464.3,43.3z M471.3,39.2l4.7-2.7l0.5,0.9l-4.7,2.7L471.3,39.2z
	 M478.3,35.1l4.7-2.7l0.5,0.9l-4.7,2.7L478.3,35.1z M485.3,31.1l4.7-2.7l0.5,0.9l-4.7,2.7L485.3,31.1z M492.4,27l4.7-2.7l0.5,0.9
	l-4.7,2.7L492.4,27z M499.4,23l4.7-2.7l0.5,0.9l-4.7,2.7L499.4,23z M506.4,18.9l4.7-2.7l0.5,0.9l-4.7,2.7L506.4,18.9z M513.4,14.9
	l4.7-2.7l0.5,0.9l-4.7,2.7L513.4,14.9z M520.4,10.8l4.7-2.7l0.5,0.9l-4.7,2.7L520.4,10.8z M527.4,6.8l4.7-2.7l0.5,0.9l-4.7,2.7
	L527.4,6.8z M534.5,2.7l4.7-2.7l0.5,0.9L535,3.6L534.5,2.7z"/>
<path class="st0" d="M366.2,116.2l4.7-2.7l0.5,0.9l-4.7,2.7L366.2,116.2z M373.3,112.1l4.7-2.7l0.5,0.9l-4.7,2.7L373.3,112.1z
	 M380.3,108.1l4.7-2.7l0.5,0.9l-4.7,2.7L380.3,108.1z M387.3,104l4.7-2.7l0.5,0.9l-4.7,2.7L387.3,104z M394.3,100l4.7-2.7l0.5,0.9
	l-4.7,2.7L394.3,100z M401.3,95.9l4.7-2.7l0.5,0.9l-4.7,2.7L401.3,95.9z M408.3,91.9l4.7-2.7l0.5,0.9l-4.7,2.7L408.3,91.9z
	 M415.4,87.8l4.7-2.7l0.5,0.9l-4.7,2.7L415.4,87.8z M422.4,83.8l4.7-2.7l0.5,0.9l-4.7,2.7L422.4,83.8z M429.4,79.7l4.7-2.7l0.5,0.9
	l-4.7,2.7L429.4,79.7z M436.4,75.7l4.7-2.7l0.5,0.9l-4.7,2.7L436.4,75.7z M443.4,71.6l4.7-2.7l0.5,0.9l-4.7,2.7L443.4,71.6z
	 M450.5,67.6l4.7-2.7l0.5,0.9l-4.7,2.7L450.5,67.6z M457.5,63.5l4.7-2.7l0.5,0.9l-4.7,2.7L457.5,63.5z M464.5,59.5l4.7-2.7l0.5,0.9
	l-4.7,2.7L464.5,59.5z M471.5,55.4l4.7-2.7l0.5,0.9l-4.7,2.7L471.5,55.4z M478.5,51.4l4.7-2.7l0.5,0.9l-4.7,2.7L478.5,51.4z
	 M485.6,47.3l4.7-2.7l0.5,0.9l-4.7,2.7L485.6,47.3z M492.6,43.3l4.7-2.7l0.5,0.9l-4.7,2.7L492.6,43.3z M499.6,39.2l4.7-2.7l0.5,0.9
	l-4.7,2.7L499.6,39.2z M506.6,35.1l4.7-2.7l0.5,0.9l-4.7,2.7L506.6,35.1z M513.6,31.1l4.7-2.7l0.5,0.9l-4.7,2.7L513.6,31.1z
	 M520.6,27l4.7-2.7l0.5,0.9l-4.7,2.7L520.6,27z M527.7,23l4.7-2.7l0.5,0.9l-4.7,2.7L527.7,23z M534.7,18.9l4.7-2.7l0.5,0.9l-4.7,2.7
	L534.7,18.9z M541.7,14.9l4.7-2.7l0.5,0.9l-4.7,2.7L541.7,14.9z M548.7,10.8l4.7-2.7L554,9l-4.7,2.7L548.7,10.8z M555.7,6.8l4.7-2.7
	l0.5,0.9l-4.7,2.7L555.7,6.8z M562.8,2.7l4.7-2.7l0.5,0.9l-4.7,2.7L562.8,2.7z"/>
<path class="st0" d="M374.1,116.2l4.7-2.7l0.5,0.9l-4.7,2.7L374.1,116.2z M381.1,112.1l4.7-2.7l0.5,0.9l-4.7,2.7L381.1,112.1z
	 M388.1,108.1l4.7-2.7l0.5,0.9l-4.7,2.7L388.1,108.1z M395.1,104l4.7-2.7l0.5,0.9l-4.7,2.7L395.1,104z M402.2,100l4.7-2.7l0.5,0.9
	l-4.7,2.7L402.2,100z M409.2,95.9l4.7-2.7l0.5,0.9l-4.7,2.7L409.2,95.9z M416.2,91.9l4.7-2.7l0.5,0.9l-4.7,2.7L416.2,91.9z
	 M423.2,87.8l4.7-2.7l0.5,0.9l-4.7,2.7L423.2,87.8z M430.2,83.8L435,81l0.5,0.9l-4.7,2.7L430.2,83.8z M437.3,79.7L442,77l0.5,0.9
	l-4.7,2.7L437.3,79.7z M444.3,75.7l4.7-2.7l0.5,0.9l-4.7,2.7L444.3,75.7z M451.3,71.6l4.7-2.7l0.5,0.9l-4.7,2.7L451.3,71.6z
	 M458.3,67.6l4.7-2.7l0.5,0.9l-4.7,2.7L458.3,67.6z M465.3,63.5l4.7-2.7l0.5,0.9l-4.7,2.7L465.3,63.5z M472.3,59.5l4.7-2.7l0.5,0.9
	l-4.7,2.7L472.3,59.5z M479.4,55.4l4.7-2.7l0.5,0.9l-4.7,2.7L479.4,55.4z M486.4,51.4l4.7-2.7l0.5,0.9l-4.7,2.7L486.4,51.4z
	 M493.4,47.3l4.7-2.7l0.5,0.9l-4.7,2.7L493.4,47.3z M500.4,43.3l4.7-2.7l0.5,0.9l-4.7,2.7L500.4,43.3z M507.4,39.2l4.7-2.7l0.5,0.9
	l-4.7,2.7L507.4,39.2z M514.5,35.1l4.7-2.7l0.5,0.9L515,36L514.5,35.1z M521.5,31.1l4.7-2.7l0.5,0.9L522,32L521.5,31.1z M528.5,27
	l4.7-2.7l0.5,0.9l-4.7,2.7L528.5,27z M535.5,23l4.7-2.7l0.5,0.9l-4.7,2.7L535.5,23z M542.5,18.9l4.7-2.7l0.5,0.9l-4.7,2.7
	L542.5,18.9z M549.6,14.9l4.7-2.7l0.5,0.9l-4.7,2.7L549.6,14.9z M556.6,10.8l4.7-2.7l0.5,0.9l-4.7,2.7L556.6,10.8z M563.6,6.8
	l4.7-2.7l0.5,0.9l-4.7,2.7L563.6,6.8z M570.6,2.7l4.7-2.7l0.5,0.9l-4.7,2.7L570.6,2.7z"/>
<path class="st0" d="M402,116.2l4.7-2.7l0.5,0.9l-4.7,2.7L402,116.2z M409,112.1l4.7-2.7l0.5,0.9l-4.7,2.7L409,112.1z M416,108.1
	l4.7-2.7l0.5,0.9l-4.7,2.7L416,108.1z M423,104l4.7-2.7l0.5,0.9l-4.7,2.7L423,104z M430.1,100l4.7-2.7l0.5,0.9l-4.7,2.7L430.1,100z
	 M437.1,95.9l4.7-2.7l0.5,0.9l-4.7,2.7L437.1,95.9z M444.1,91.9l4.7-2.7l0.5,0.9l-4.7,2.7L444.1,91.9z M451.1,87.8l4.7-2.7l0.5,0.9
	l-4.7,2.7L451.1,87.8z M458.1,83.8l4.7-2.7l0.5,0.9l-4.7,2.7L458.1,83.8z M465.1,79.7l4.7-2.7l0.5,0.9l-4.7,2.7L465.1,79.7z
	 M472.2,75.7l4.7-2.7l0.5,0.9l-4.7,2.7L472.2,75.7z M479.2,71.6l4.7-2.7l0.5,0.9l-4.7,2.7L479.2,71.6z M486.2,67.6l4.7-2.7l0.5,0.9
	l-4.7,2.7L486.2,67.6z M493.2,63.5l4.7-2.7l0.5,0.9l-4.7,2.7L493.2,63.5z M500.2,59.5l4.7-2.7l0.5,0.9l-4.7,2.7L500.2,59.5z
	 M507.3,55.4l4.7-2.7l0.5,0.9l-4.7,2.7L507.3,55.4z M514.3,51.4l4.7-2.7l0.5,0.9l-4.7,2.7L514.3,51.4z M521.3,47.3l4.7-2.7l0.5,0.9
	l-4.7,2.7L521.3,47.3z M528.3,43.3l4.7-2.7l0.5,0.9l-4.7,2.7L528.3,43.3z M535.3,39.2l4.7-2.7l0.5,0.9l-4.7,2.7L535.3,39.2z
	 M542.3,35.1l4.7-2.7l0.5,0.9l-4.7,2.7L542.3,35.1z M549.4,31.1l4.7-2.7l0.5,0.9l-4.7,2.7L549.4,31.1z M556.4,27l4.7-2.7l0.5,0.9
	l-4.7,2.7L556.4,27z M563.4,23l4.7-2.7l0.5,0.9l-4.7,2.7L563.4,23z M570.4,18.9l4.7-2.7l0.5,0.9l-4.7,2.7L570.4,18.9z M577.4,14.9
	l4.7-2.7l0.5,0.9l-4.7,2.7L577.4,14.9z M584.5,10.8l4.7-2.7l0.5,0.9l-4.7,2.7L584.5,10.8z M591.5,6.8l4.7-2.7l0.5,0.9L592,7.7
	L591.5,6.8z M598.5,2.7l4.7-2.7l0.5,0.9L599,3.6L598.5,2.7z"/>
<path class="st0" d="M515,116.2l4.7-2.7l0.5,0.9l-4.7,2.7L515,116.2z M522,112.1l4.7-2.7l0.5,0.9l-4.7,2.7L522,112.1z M529.1,108.1
	l4.7-2.7l0.5,0.9l-4.7,2.7L529.1,108.1z M536.1,104l4.7-2.7l0.5,0.9l-4.7,2.7L536.1,104z M543.1,100l4.7-2.7l0.5,0.9l-4.7,2.7
	L543.1,100z M550.1,95.9l4.7-2.7l0.5,0.9l-4.7,2.7L550.1,95.9z M557.1,91.9l4.7-2.7l0.5,0.9l-4.7,2.7L557.1,91.9z M564.1,87.8
	l4.7-2.7l0.5,0.9l-4.7,2.7L564.1,87.8z M571.2,83.8l4.7-2.7l0.5,0.9l-4.7,2.7L571.2,83.8z M578.2,79.7l4.7-2.7l0.5,0.9l-4.7,2.7
	L578.2,79.7z M585.2,75.7l4.7-2.7l0.5,0.9l-4.7,2.7L585.2,75.7z M592.2,71.6l4.7-2.7l0.5,0.9l-4.7,2.7L592.2,71.6z M599.2,67.6
	l4.7-2.7l0.5,0.9l-4.7,2.7L599.2,67.6z M606.3,63.5l4.7-2.7l0.5,0.9l-4.7,2.7L606.3,63.5z M613.3,59.5l4.7-2.7l0.5,0.9l-4.7,2.7
	L613.3,59.5z M620.3,55.4l4.7-2.7l0.5,0.9l-4.7,2.7L620.3,55.4z M627.3,51.4l4.7-2.7l0.5,0.9l-4.7,2.7L627.3,51.4z M634.3,47.3
	l4.7-2.7l0.5,0.9l-4.7,2.7L634.3,47.3z M641.3,43.3l4.7-2.7l0.5,0.9l-4.7,2.7L641.3,43.3z M648.4,39.2l4.7-2.7l0.5,0.9l-4.7,2.7
	L648.4,39.2z M655.4,35.1l4.7-2.7l0.5,0.9l-4.7,2.7L655.4,35.1z M662.4,31.1l4.7-2.7l0.5,0.9l-4.7,2.7L662.4,31.1z M669.4,27
	l4.7-2.7l0.5,0.9l-4.7,2.7L669.4,27z M676.4,23l4.7-2.7l0.5,0.9l-4.7,2.7L676.4,23z M683.5,18.9l4.7-2.7l0.5,0.9l-4.7,2.7
	L683.5,18.9z M690.5,14.9l4.7-2.7l0.5,0.9l-4.7,2.7L690.5,14.9z M697.5,10.8l4.7-2.7l0.5,0.9l-4.7,2.7L697.5,10.8z M704.5,6.8
	l4.7-2.7l0.5,0.9L705,7.7L704.5,6.8z M711.5,2.7l4.7-2.7l0.5,0.9L712,3.6L711.5,2.7z"/>
<path class="st0" d="M603.1,117l4.7-2.7l0.5,0.9l-4.7,2.7L603.1,117z M610.1,112.9l4.7-2.7l0.5,0.9l-4.7,2.7L610.1,112.9z
	 M617.2,108.9l4.7-2.7l0.5,0.9l-4.7,2.7L617.2,108.9z M624.2,104.8l4.7-2.7l0.5,0.9l-4.7,2.7L624.2,104.8z M631.2,100.8l4.7-2.7
	l0.5,0.9l-4.7,2.7L631.2,100.8z M638.2,96.7l4.7-2.7l0.5,0.9l-4.7,2.7L638.2,96.7z M645.2,92.7l4.7-2.7l0.5,0.9l-4.7,2.7L645.2,92.7
	z M652.2,88.6l4.7-2.7l0.5,0.9l-4.7,2.7L652.2,88.6z M659.3,84.6l4.7-2.7l0.5,0.9l-4.7,2.7L659.3,84.6z M666.3,80.5l4.7-2.7l0.5,0.9
	l-4.7,2.7L666.3,80.5z M673.3,76.4l4.7-2.7l0.5,0.9l-4.7,2.7L673.3,76.4z M680.3,72.4l4.7-2.7l0.5,0.9l-4.7,2.7L680.3,72.4z
	 M687.3,68.3l4.7-2.7l0.5,0.9l-4.7,2.7L687.3,68.3z M694.4,64.3l4.7-2.7l0.5,0.9l-4.7,2.7L694.4,64.3z M701.4,60.2l4.7-2.7l0.5,0.9
	l-4.7,2.7L701.4,60.2z M708.4,56.2l4.7-2.7l0.5,0.9l-4.7,2.7L708.4,56.2z M715.4,52.1l4.7-2.7l0.5,0.9l-4.7,2.7L715.4,52.1z
	 M722.4,48.1l4.7-2.7l0.5,0.9l-4.7,2.7L722.4,48.1z"/>
<path class="st0" d="M718.6,2.3l0,5.5l-1,0l0-5.5L718.6,2.3z M718.6,10.4l0,5.5l-1,0l0-5.5L718.6,10.4z M718.6,18.5l0,5.5l-1,0
	l0-5.5L718.6,18.5z M718.6,26.6l0,5.5l-1,0l0-5.5L718.6,26.6z M718.6,34.7l0,5.5l-1,0l0-5.5L718.6,34.7z M718.6,42.8l0,5.5l-1,0
	l0-5.5L718.6,42.8z M718.6,50.9l0,5.5l-1,0l0-5.5L718.6,50.9z M718.6,59l0,5.5l-1,0l0-5.5L718.6,59z M718.6,67.1l0,5.5l-1,0l0-5.5
	L718.6,67.1z M718.6,75.2l0,5.5l-1,0l0-5.5L718.6,75.2z M718.6,83.3l0,5.5l-1,0l0-5.5L718.6,83.3z M718.6,91.4l0,5.5l-1,0l0-5.5
	L718.6,91.4z M718.6,99.5l0,5.5l-1,0l0-5.5L718.6,99.5z M718.6,107.6l0,5.5l-1,0l0-5.5L718.6,107.6z"/>
<path class="st0" d="M511.7,0l0,5.5l-1,0l0-5.5L511.7,0z M511.7,8.1l0,5.5l-1,0l0-5.5L511.7,8.1z M511.7,16.2l0,5.5l-1,0l0-5.5
	L511.7,16.2z M511.7,24.3l0,5.5l-1,0l0-5.5L511.7,24.3z M511.7,32.4l0,5.5l-1,0l0-5.5L511.7,32.4z M511.7,40.5l0,5.5l-1,0l0-5.5
	L511.7,40.5z M511.7,48.6l0,5.5l-1,0l0-5.5L511.7,48.6z M511.7,56.7l0,5.5l-1,0l0-5.5L511.7,56.7z M511.7,64.8l0,5.5l-1,0l0-5.5
	L511.7,64.8z M511.7,72.9l0,5.5l-1,0l0-5.5L511.7,72.9z M511.7,81l0,5.5l-1,0l0-5.5L511.7,81z M511.7,89.1l0,5.5l-1,0l0-5.5
	L511.7,89.1z M511.7,97.3l0,5.5l-1,0l0-5.5L511.7,97.3z M511.7,105.4l0,5.5l-1,0l0-5.5L511.7,105.4z M511.7,113.5l0,5.5l-1,0l0-5.5
	L511.7,113.5z"/>
<path class="st0" d="M358.7,4.1l0,5.5l-1,0l0-5.5L358.7,4.1z M358.7,12.2l0,5.5l-1,0l0-5.5L358.7,12.2z M358.7,20.3l0,5.5l-1,0
	l0-5.5L358.7,20.3z M358.7,28.4l0,5.5l-1,0l0-5.5L358.7,28.4z M358.7,36.5l0,5.5l-1,0l0-5.5L358.7,36.5z M358.7,44.6l0,5.5l-1,0
	l0-5.5L358.7,44.6z M358.7,52.7l0,5.5l-1,0l0-5.5L358.7,52.7z M358.7,60.8l0,5.5l-1,0l0-5.5L358.7,60.8z M358.7,68.9l0,5.5l-1,0
	l0-5.5L358.7,68.9z M358.7,77l0,5.5l-1,0l0-5.5L358.7,77z M358.7,85.1l0,5.5l-1,0l0-5.5L358.7,85.1z M358.7,93.2l0,5.5l-1,0l0-5.5
	L358.7,93.2z M358.7,101.3l0,5.5l-1,0l0-5.5L358.7,101.3z M358.7,109.4l0,5.5l-1,0l0-5.5L358.7,109.4z"/>
<path class="st0" d="M538.5,117.1l-4.7-2.7l0.5-0.9l4.7,2.7L538.5,117.1z M531.4,113l-4.7-2.7l0.5-0.9l4.7,2.7L531.4,113z
	 M524.4,109l-4.7-2.7l0.5-0.9l4.7,2.7L524.4,109z M517.4,104.9l-4.7-2.7l0.5-0.9l4.7,2.7L517.4,104.9z M510.4,100.9l-4.7-2.7
	l0.5-0.9l4.7,2.7L510.4,100.9z M503.4,96.8l-4.7-2.7l0.5-0.9l4.7,2.7L503.4,96.8z M496.4,92.7l-4.7-2.7l0.5-0.9l4.7,2.7L496.4,92.7z
	 M489.3,88.7l-4.7-2.7l0.5-0.9l4.7,2.7L489.3,88.7z M482.3,84.6l-4.7-2.7l0.5-0.9l4.7,2.7L482.3,84.6z M475.3,80.6l-4.7-2.7l0.5-0.9
	l4.7,2.7L475.3,80.6z M468.3,76.5l-4.7-2.7l0.5-0.9l4.7,2.7L468.3,76.5z M461.3,72.5l-4.7-2.7l0.5-0.9l4.7,2.7L461.3,72.5z
	 M454.2,68.4l-4.7-2.7l0.5-0.9l4.7,2.7L454.2,68.4z M447.2,64.4l-4.7-2.7l0.5-0.9l4.7,2.7L447.2,64.4z M440.2,60.3l-4.7-2.7l0.5-0.9
	l4.7,2.7L440.2,60.3z M433.2,56.3l-4.7-2.7l0.5-0.9l4.7,2.7L433.2,56.3z M426.2,52.2l-4.7-2.7l0.5-0.9l4.7,2.7L426.2,52.2z
	 M419.1,48.2l-4.7-2.7l0.5-0.9l4.7,2.7L419.1,48.2z M412.1,44.1l-4.7-2.7l0.5-0.9l4.7,2.7L412.1,44.1z M405.1,40.1l-4.7-2.7l0.5-0.9
	l4.7,2.7L405.1,40.1z M398.1,36l-4.7-2.7l0.5-0.9l4.7,2.7L398.1,36z M391.1,32l-4.7-2.7l0.5-0.9l4.7,2.7L391.1,32z M384.1,27.9
	l-4.7-2.7l0.5-0.9l4.7,2.7L384.1,27.9z M377,23.9l-4.7-2.7l0.5-0.9l4.7,2.7L377,23.9z M370,19.8l-4.7-2.7l0.5-0.9l4.7,2.7L370,19.8z
	 M363,15.8l-4.7-2.7l0.5-0.9l4.7,2.7L363,15.8z M356,11.7L351.2,9l0.5-0.9l4.7,2.7L356,11.7z M349,7.7l-4.7-2.7l0.5-0.9l4.7,2.7
	L349,7.7z M341.9,3.6l-4.7-2.7l0.5-0.9l4.7,2.7L341.9,3.6z"/>
<g>
	<rect x="568.4" y="-0.3" transform="matrix(0.5 -0.866 0.866 0.5 283.4872 493.2459)" class="st0" width="1" height="2.7"/>
	<path class="st0" d="M724.3,91.4l-4.7-2.7l0.5-0.9l4.7,2.7L724.3,91.4z M717.2,87.3l-4.7-2.7l0.5-0.9l4.7,2.7L717.2,87.3z
		 M710.2,83.3l-4.7-2.7l0.5-0.9l4.7,2.7L710.2,83.3z M703.2,79.2l-4.7-2.7l0.5-0.9l4.7,2.7L703.2,79.2z M696.2,75.2l-4.7-2.7
		l0.5-0.9l4.7,2.7L696.2,75.2z M689.2,71.1l-4.7-2.7l0.5-0.9l4.7,2.7L689.2,71.1z M682.1,67.1l-4.7-2.7l0.5-0.9l4.7,2.7L682.1,67.1z
		 M675.1,63l-4.7-2.7l0.5-0.9l4.7,2.7L675.1,63z M668.1,59l-4.7-2.7l0.5-0.9l4.7,2.7L668.1,59z M661.1,54.9l-4.7-2.7l0.5-0.9
		l4.7,2.7L661.1,54.9z M654.1,50.9l-4.7-2.7l0.5-0.9l4.7,2.7L654.1,50.9z M647,46.8l-4.7-2.7l0.5-0.9l4.7,2.7L647,46.8z M640,42.8
		l-4.7-2.7l0.5-0.9l4.7,2.7L640,42.8z M633,38.7l-4.7-2.7l0.5-0.9l4.7,2.7L633,38.7z M626,34.7l-4.7-2.7l0.5-0.9l4.7,2.7L626,34.7z
		 M619,30.6l-4.7-2.7l0.5-0.9l4.7,2.7L619,30.6z M612,26.5l-4.7-2.7l0.5-0.9l4.7,2.7L612,26.5z M604.9,22.5l-4.7-2.7l0.5-0.9
		l4.7,2.7L604.9,22.5z M597.9,18.4l-4.7-2.7l0.5-0.9l4.7,2.7L597.9,18.4z M590.9,14.4l-4.7-2.7l0.5-0.9l4.7,2.7L590.9,14.4z
		 M583.9,10.3l-4.7-2.7l0.5-0.9l4.7,2.7L583.9,10.3z M576.9,6.3l-4.7-2.7l0.5-0.9l4.7,2.7L576.9,6.3z"/>
</g>
</svg>
