<svg id="Layer_1" data-name="Layer 1" xmlns="http://www.w3.org/2000/svg" viewBox="0 0 30 30"><defs><style>.cls-1{fill:#fff;}</style></defs><title>RHDev_homepage_icons</title><path class="cls-1" d="M23.88,25.38H13.32a0.22,0.22,0,0,0-.21.23V27.3a0.22,0.22,0,0,0,.21.23H23.88a0.22,0.22,0,0,0,.21-0.23V25.61A0.22,0.22,0,0,0,23.88,25.38Zm-0.21,1.69H13.53V25.84H23.67v1.24Z"/><path class="cls-1" d="M25,7.69a7.38,7.38,0,0,0-14.11,0A4.93,4.93,0,0,0,4.4,11.17,4.5,4.5,0,0,0,.16,14.69a0.31,0.31,0,0,0,.3.37H13.59L13,15.81a0.75,0.75,0,0,0-.24.79,0.57,0.57,0,0,0,.57.32h0.14l2.32-.35v7.77a0.23,0.23,0,0,0,.23.23H21.2a0.23,0.23,0,0,0,.23-0.23V16.57l2.33,0.35a0.61,0.61,0,0,0,.71-0.32,0.74,0.74,0,0,0-.23-0.78l-0.63-.76h5.84a0.31,0.31,0,0,0,.3-0.25A6.17,6.17,0,0,0,25,7.69Zm-0.9,8.74a0.19,0.19,0,0,1-.16,0H23.82l-2.58-.38a0.23,0.23,0,0,0-.26.22v7.8H16.22v-7.8A0.23,0.23,0,0,0,16,16.09l-2.57.38a0.28,0.28,0,0,1-.24,0,0.39,0.39,0,0,1,.16-0.32L18.6,9.75l5.3,6.38A0.37,0.37,0,0,1,24.05,16.43Zm5.14-2H23.1l-4.33-5.2a0.23,0.23,0,0,0-.35,0l-4.32,5.2H0.86a3.89,3.89,0,0,1,3.73-2.67h0A0.29,0.29,0,0,0,5,11.53a4.3,4.3,0,0,1,5.86-3.22,3.44,3.44,0,0,1,1.42,1.26,0.23,0.23,0,0,0,.24.11l0.08,0a0.23,0.23,0,0,0,.08-0.31,3.73,3.73,0,0,0-1.27-1.25,6.77,6.77,0,0,1,13-.34A3.46,3.46,0,0,0,22.91,8a0.23,0.23,0,0,0,.18.42,3.6,3.6,0,0,1,1.74-.17,5.59,5.59,0,0,1,4.41,5.46A5.27,5.27,0,0,1,29.19,14.45Z"/></svg>