<?xml version="1.0" encoding="utf-8"?>
<!-- Generator: Adobe Illustrator 19.2.0, SVG Export Plug-In . SVG Version: 6.00 Build 0)  -->
<svg version="1.1" xmlns="http://www.w3.org/2000/svg" xmlns:xlink="http://www.w3.org/1999/xlink" x="0px" y="0px"
	 viewBox="0 0 1600 1351" style="enable-background:new 0 0 1600 1351;" xml:space="preserve">
<style type="text/css">
	.st0{fill:#242424;}
	.st1{fill:#656565;}
</style>
<g id="Layer_1">
	<g>
		<path class="st0" d="M0.5,1095l-0.5-0.9l10.4-6l0.5,0.9L0.5,1095z M16,1086l-0.5-0.9l10.4-6l0.5,0.9L16,1086z M31.4,1077.1
			l-0.5-0.9l10.4-6l0.5,0.9L31.4,1077.1z M46.9,1068.2l-0.5-0.9l10.4-6l0.5,0.9L46.9,1068.2z M62.3,1059.3l-0.5-0.9l10.4-6l0.5,0.9
			L62.3,1059.3z M77.8,1050.3l-0.5-0.9l10.4-6l0.5,0.9L77.8,1050.3z M93.3,1041.4l-0.5-0.9l10.4-6l0.5,0.9L93.3,1041.4z
			 M108.7,1032.5l-0.5-0.9l10.4-6l0.5,0.9L108.7,1032.5z M124.2,1023.6l-0.5-0.9l10.4-6l0.5,0.9L124.2,1023.6z M139.6,1014.6
			l-0.5-0.9l10.4-6l0.5,0.9L139.6,1014.6z M155.1,1005.7l-0.5-0.9l10.4-6l0.5,0.9L155.1,1005.7z M170.6,996.8l-0.5-0.9l10.4-6
			l0.5,0.9L170.6,996.8z M186,987.9l-0.5-0.9l10.4-6l0.5,0.9L186,987.9z M201.5,978.9l-0.5-0.9l10.4-6l0.5,0.9L201.5,978.9z
			 M216.9,970l-0.5-0.9l10.4-6l0.5,0.9L216.9,970z M232.4,961.1l-0.5-0.9l10.4-6l0.5,0.9L232.4,961.1z M247.9,952.2l-0.5-0.9l10.4-6
			l0.5,0.9L247.9,952.2z M263.3,943.2l-0.5-0.9l10.4-6l0.5,0.9L263.3,943.2z M278.8,934.3l-0.5-0.9l10.4-6l0.5,0.9L278.8,934.3z
			 M294.2,925.4l-0.5-0.9l10.4-6l0.5,0.9L294.2,925.4z M309.7,916.5l-0.5-0.9l10.4-6l0.5,0.9L309.7,916.5z M325.1,907.5l-0.5-0.9
			l10.4-6l0.5,0.9L325.1,907.5z M340.6,898.6l-0.5-0.9l10.4-6l0.5,0.9L340.6,898.6z M356.1,889.7l-0.5-0.9l10.4-6l0.5,0.9
			L356.1,889.7z M371.5,880.7l-0.5-0.9l10.4-6l0.5,0.9L371.5,880.7z M387,871.8l-0.5-0.9l10.4-6l0.5,0.9L387,871.8z M402.4,862.9
			l-0.5-0.9l10.4-6l0.5,0.9L402.4,862.9z M417.9,854l-0.5-0.9l10.4-6l0.5,0.9L417.9,854z M433.4,845l-0.5-0.9l10.4-6l0.5,0.9
			L433.4,845z M448.8,836.1l-0.5-0.9l10.4-6l0.5,0.9L448.8,836.1z M464.3,827.2l-0.5-0.9l10.4-6l0.5,0.9L464.3,827.2z M479.7,818.3
			l-0.5-0.9l10.4-6l0.5,0.9L479.7,818.3z M495.2,809.3l-0.5-0.9l10.4-6l0.5,0.9L495.2,809.3z M510.7,800.4l-0.5-0.9l10.4-6l0.5,0.9
			L510.7,800.4z M526.1,791.5l-0.5-0.9l10.4-6l0.5,0.9L526.1,791.5z M541.6,782.6l-0.5-0.9l10.4-6l0.5,0.9L541.6,782.6z M557,773.6
			l-0.5-0.9l10.4-6l0.5,0.9L557,773.6z M572.5,764.7l-0.5-0.9l10.4-6l0.5,0.9L572.5,764.7z M588,755.8l-0.5-0.9l10.4-6l0.5,0.9
			L588,755.8z M603.4,746.9l-0.5-0.9l10.4-6l0.5,0.9L603.4,746.9z M618.9,737.9l-0.5-0.9l10.4-6l0.5,0.9L618.9,737.9z M634.3,729
			l-0.5-0.9l10.4-6l0.5,0.9L634.3,729z M649.8,720.1l-0.5-0.9l10.4-6l0.5,0.9L649.8,720.1z M665.3,711.2l-0.5-0.9l10.4-6l0.5,0.9
			L665.3,711.2z M680.7,702.2l-0.5-0.9l10.4-6l0.5,0.9L680.7,702.2z M696.2,693.3l-0.5-0.9l10.4-6l0.5,0.9L696.2,693.3z
			 M711.6,684.4l-0.5-0.9l10.4-6l0.5,0.9L711.6,684.4z M727.1,675.5l-0.5-0.9l10.4-6l0.5,0.9L727.1,675.5z M742.6,666.5l-0.5-0.9
			l10.4-6l0.5,0.9L742.6,666.5z M758,657.6l-0.5-0.9l10.4-6l0.5,0.9L758,657.6z M773.5,648.7l-0.5-0.9l10.4-6l0.5,0.9L773.5,648.7z
			 M788.9,639.8l-0.5-0.9l10.4-6l0.5,0.9L788.9,639.8z M804.4,630.8l-0.5-0.9l10.4-6l0.5,0.9L804.4,630.8z M819.9,621.9l-0.5-0.9
			l10.4-6l0.5,0.9L819.9,621.9z M835.3,613l-0.5-0.9l10.4-6l0.5,0.9L835.3,613z M850.8,604.1l-0.5-0.9l10.4-6l0.5,0.9L850.8,604.1z
			 M866.2,595.1l-0.5-0.9l10.4-6l0.5,0.9L866.2,595.1z M881.7,586.2l-0.5-0.9l10.4-6l0.5,0.9L881.7,586.2z M897.2,577.3l-0.5-0.9
			l10.4-6l0.5,0.9L897.2,577.3z M912.6,568.4l-0.5-0.9l10.4-6l0.5,0.9L912.6,568.4z M928.1,559.4l-0.5-0.9l10.4-6l0.5,0.9
			L928.1,559.4z"/>
		
			<rect x="948.6" y="544.7" transform="matrix(0.8661 -0.4999 0.4999 0.8661 -145.1308 548.748)" class="st0" width="6" height="1"/>
		<path class="st0" d="M0.5,1140.2l-0.5-0.9l10.4-6l0.5,0.9L0.5,1140.2z M15.9,1131.3l-0.5-0.9l10.4-6l0.5,0.9L15.9,1131.3z
			 M31.4,1122.4l-0.5-0.9l10.4-6l0.5,0.9L31.4,1122.4z M46.8,1113.5l-0.5-0.9l10.4-6l0.5,0.9L46.8,1113.5z M62.2,1104.6l-0.5-0.9
			l10.4-6l0.5,0.9L62.2,1104.6z M77.6,1095.7l-0.5-0.9l10.4-6l0.5,0.9L77.6,1095.7z M93.1,1086.8l-0.5-0.9l10.4-6l0.5,0.9
			L93.1,1086.8z M108.5,1077.9l-0.5-0.9l10.4-6l0.5,0.9L108.5,1077.9z M123.9,1069l-0.5-0.9l10.4-6l0.5,0.9L123.9,1069z
			 M139.3,1060.1l-0.5-0.9l10.4-6l0.5,0.9L139.3,1060.1z M154.8,1051.1l-0.5-0.9l10.4-6l0.5,0.9L154.8,1051.1z M170.2,1042.2
			l-0.5-0.9l10.4-6l0.5,0.9L170.2,1042.2z M185.6,1033.3l-0.5-0.9l10.4-6l0.5,0.9L185.6,1033.3z M201,1024.4l-0.5-0.9l10.4-6
			l0.5,0.9L201,1024.4z M216.5,1015.5l-0.5-0.9l10.4-6l0.5,0.9L216.5,1015.5z M231.9,1006.6l-0.5-0.9l10.4-6l0.5,0.9L231.9,1006.6z
			 M247.3,997.7l-0.5-0.9l10.4-6l0.5,0.9L247.3,997.7z M262.7,988.8l-0.5-0.9l10.4-6l0.5,0.9L262.7,988.8z M278.2,979.9l-0.5-0.9
			l10.4-6l0.5,0.9L278.2,979.9z M293.6,971l-0.5-0.9l10.4-6l0.5,0.9L293.6,971z M309,962.1l-0.5-0.9l10.4-6l0.5,0.9L309,962.1z
			 M324.4,953.2l-0.5-0.9l10.4-6l0.5,0.9L324.4,953.2z M339.9,944.3l-0.5-0.9l10.4-6l0.5,0.9L339.9,944.3z M355.3,935.4l-0.5-0.9
			l10.4-6l0.5,0.9L355.3,935.4z M370.7,926.5l-0.5-0.9l10.4-6l0.5,0.9L370.7,926.5z M386.2,917.6l-0.5-0.9l10.4-6l0.5,0.9
			L386.2,917.6z M401.6,908.6l-0.5-0.9l10.4-6l0.5,0.9L401.6,908.6z M417,899.7l-0.5-0.9l10.4-6l0.5,0.9L417,899.7z M432.4,890.8
			l-0.5-0.9l10.4-6l0.5,0.9L432.4,890.8z M447.9,881.9l-0.5-0.9l10.4-6l0.5,0.9L447.9,881.9z M463.3,873l-0.5-0.9l10.4-6l0.5,0.9
			L463.3,873z M478.7,864.1l-0.5-0.9l10.4-6l0.5,0.9L478.7,864.1z M494.1,855.2l-0.5-0.9l10.4-6l0.5,0.9L494.1,855.2z M509.6,846.3
			l-0.5-0.9l10.4-6l0.5,0.9L509.6,846.3z M525,837.4l-0.5-0.9l10.4-6l0.5,0.9L525,837.4z M540.4,828.5l-0.5-0.9l10.4-6l0.5,0.9
			L540.4,828.5z M555.8,819.6l-0.5-0.9l10.4-6l0.5,0.9L555.8,819.6z M571.3,810.7l-0.5-0.9l10.4-6l0.5,0.9L571.3,810.7z
			 M586.7,801.8l-0.5-0.9l10.4-6l0.5,0.9L586.7,801.8z M602.1,792.9l-0.5-0.9l10.4-6l0.5,0.9L602.1,792.9z M617.5,784l-0.5-0.9
			l10.4-6l0.5,0.9L617.5,784z M633,775.1l-0.5-0.9l10.4-6l0.5,0.9L633,775.1z M648.4,766.1l-0.5-0.9l10.4-6l0.5,0.9L648.4,766.1z
			 M663.8,757.2l-0.5-0.9l10.4-6l0.5,0.9L663.8,757.2z M679.2,748.3l-0.5-0.9l10.4-6l0.5,0.9L679.2,748.3z M694.7,739.4l-0.5-0.9
			l10.4-6l0.5,0.9L694.7,739.4z M710.1,730.5l-0.5-0.9l10.4-6l0.5,0.9L710.1,730.5z M725.5,721.6l-0.5-0.9l10.4-6l0.5,0.9
			L725.5,721.6z M741,712.7l-0.5-0.9l10.4-6l0.5,0.9L741,712.7z M756.4,703.8l-0.5-0.9l10.4-6l0.5,0.9L756.4,703.8z M771.8,694.9
			l-0.5-0.9l10.4-6l0.5,0.9L771.8,694.9z M787.2,686l-0.5-0.9l10.4-6l0.5,0.9L787.2,686z M802.7,677.1l-0.5-0.9l10.4-6l0.5,0.9
			L802.7,677.1z M818.1,668.2l-0.5-0.9l10.4-6l0.5,0.9L818.1,668.2z M833.5,659.3l-0.5-0.9l10.4-6l0.5,0.9L833.5,659.3z
			 M848.9,650.4l-0.5-0.9l10.4-6l0.5,0.9L848.9,650.4z M864.4,641.5l-0.5-0.9l10.4-6l0.5,0.9L864.4,641.5z"/>
		
			<rect x="890.3" y="623.5" transform="matrix(0.8658 -0.5003 0.5003 0.8658 -192.3384 530.6599)" class="st0" width="6" height="1"/>
		<path class="st0" d="M1.3,1185.9l-0.5-0.9l10.4-6l0.5,0.9L1.3,1185.9z M16.8,1177l-0.5-0.9l10.4-6l0.5,0.9L16.8,1177z
			 M32.2,1168.1l-0.5-0.9l10.4-6l0.5,0.9L32.2,1168.1z M47.6,1159.2l-0.5-0.9l10.4-6l0.5,0.9L47.6,1159.2z M63.1,1150.3l-0.5-0.9
			l10.4-6l0.5,0.9L63.1,1150.3z M78.5,1141.4l-0.5-0.9l10.4-6l0.5,0.9L78.5,1141.4z M94,1132.4l-0.5-0.9l10.4-6l0.5,0.9L94,1132.4z
			 M109.4,1123.5l-0.5-0.9l10.4-6l0.5,0.9L109.4,1123.5z M124.8,1114.6l-0.5-0.9l10.4-6l0.5,0.9L124.8,1114.6z M140.3,1105.7
			l-0.5-0.9l10.4-6l0.5,0.9L140.3,1105.7z M155.7,1096.8l-0.5-0.9l10.4-6l0.5,0.9L155.7,1096.8z M171.2,1087.9l-0.5-0.9l10.4-6
			l0.5,0.9L171.2,1087.9z M186.6,1079l-0.5-0.9l10.4-6l0.5,0.9L186.6,1079z M202,1070l-0.5-0.9l10.4-6l0.5,0.9L202,1070z
			 M217.5,1061.1l-0.5-0.9l10.4-6l0.5,0.9L217.5,1061.1z M232.9,1052.2l-0.5-0.9l10.4-6l0.5,0.9L232.9,1052.2z M248.4,1043.3
			l-0.5-0.9l10.4-6l0.5,0.9L248.4,1043.3z M263.8,1034.4l-0.5-0.9l10.4-6l0.5,0.9L263.8,1034.4z M279.2,1025.5l-0.5-0.9l10.4-6
			l0.5,0.9L279.2,1025.5z M294.7,1016.6l-0.5-0.9l10.4-6l0.5,0.9L294.7,1016.6z M310.1,1007.6l-0.5-0.9l10.4-6l0.5,0.9L310.1,1007.6
			z M325.6,998.7l-0.5-0.9l10.4-6l0.5,0.9L325.6,998.7z M341,989.8l-0.5-0.9l10.4-6l0.5,0.9L341,989.8z M356.4,980.9l-0.5-0.9
			l10.4-6l0.5,0.9L356.4,980.9z M371.9,972l-0.5-0.9l10.4-6l0.5,0.9L371.9,972z M387.3,963.1l-0.5-0.9l10.4-6l0.5,0.9L387.3,963.1z
			 M402.8,954.2l-0.5-0.9l10.4-6l0.5,0.9L402.8,954.2z M418.2,945.2l-0.5-0.9l10.4-6l0.5,0.9L418.2,945.2z M433.6,936.3l-0.5-0.9
			l10.4-6l0.5,0.9L433.6,936.3z M449.1,927.4l-0.5-0.9l10.4-6l0.5,0.9L449.1,927.4z M464.5,918.5l-0.5-0.9l10.4-6l0.5,0.9
			L464.5,918.5z M480,909.6l-0.5-0.9l10.4-6l0.5,0.9L480,909.6z M495.4,900.7l-0.5-0.9l10.4-6l0.5,0.9L495.4,900.7z M510.8,891.8
			l-0.5-0.9l10.4-6l0.5,0.9L510.8,891.8z M526.3,882.8l-0.5-0.9l10.4-6l0.5,0.9L526.3,882.8z M541.7,873.9l-0.5-0.9l10.4-6l0.5,0.9
			L541.7,873.9z M557.2,865l-0.5-0.9l10.4-6l0.5,0.9L557.2,865z M572.6,856.1l-0.5-0.9l10.4-6l0.5,0.9L572.6,856.1z M588,847.2
			l-0.5-0.9l10.4-6l0.5,0.9L588,847.2z M603.5,838.3l-0.5-0.9l10.4-6l0.5,0.9L603.5,838.3z M618.9,829.4l-0.5-0.9l10.4-6l0.5,0.9
			L618.9,829.4z M634.4,820.4l-0.5-0.9l10.4-6l0.5,0.9L634.4,820.4z M649.8,811.5l-0.5-0.9l10.4-6l0.5,0.9L649.8,811.5z
			 M665.2,802.6l-0.5-0.9l10.4-6l0.5,0.9L665.2,802.6z M680.7,793.7l-0.5-0.9l10.4-6l0.5,0.9L680.7,793.7z M696.1,784.8l-0.5-0.9
			l10.4-6l0.5,0.9L696.1,784.8z M711.6,775.9l-0.5-0.9l10.4-6l0.5,0.9L711.6,775.9z M727,767l-0.5-0.9l10.4-6l0.5,0.9L727,767z
			 M742.4,758.1l-0.5-0.9l10.4-6l0.5,0.9L742.4,758.1z M757.9,749.1l-0.5-0.9l10.4-6l0.5,0.9L757.9,749.1z M773.3,740.2l-0.5-0.9
			l10.4-6l0.5,0.9L773.3,740.2z M788.8,731.3l-0.5-0.9l10.4-6l0.5,0.9L788.8,731.3z M804.2,722.4l-0.5-0.9l10.4-6l0.5,0.9
			L804.2,722.4z M819.6,713.5l-0.5-0.9l10.4-6l0.5,0.9L819.6,713.5z M835.1,704.6l-0.5-0.9l10.4-6l0.5,0.9L835.1,704.6z
			 M850.5,695.7l-0.5-0.9l10.4-6l0.5,0.9L850.5,695.7z M866,686.7l-0.5-0.9l10.4-6l0.5,0.9L866,686.7z M881.4,677.8l-0.5-0.9l10.4-6
			l0.5,0.9L881.4,677.8z M896.8,668.9l-0.5-0.9l10.4-6l0.5,0.9L896.8,668.9z M912.3,660l-0.5-0.9l10.4-6l0.5,0.9L912.3,660z
			 M927.7,651.1l-0.5-0.9l10.4-6l0.5,0.9L927.7,651.1z M943.2,642.2l-0.5-0.9l10.4-6l0.5,0.9L943.2,642.2z M958.6,633.3l-0.5-0.9
			l10.4-6l0.5,0.9L958.6,633.3z"/>
		
			<rect x="973.4" y="621.9" transform="matrix(0.8658 -0.5003 0.5003 0.8658 -180.4106 572.0363)" class="st0" width="6" height="1"/>
		<path class="st0" d="M0.7,488.8l-0.5-0.9l10.4-6l0.5,0.9L0.7,488.8z M16.1,479.9l-0.5-0.9l10.4-6l0.5,0.9L16.1,479.9z M31.5,470.9
			l-0.5-0.9l10.4-6l0.5,0.9L31.5,470.9z M47,462l-0.5-0.9l10.4-6l0.5,0.9L47,462z M62.4,453.1l-0.5-0.9l10.4-6l0.5,0.9L62.4,453.1z
			 M77.9,444.2l-0.5-0.9l10.4-6l0.5,0.9L77.9,444.2z M93.3,435.3l-0.5-0.9l10.4-6l0.5,0.9L93.3,435.3z M108.7,426.4l-0.5-0.9l10.4-6
			l0.5,0.9L108.7,426.4z M124.2,417.5l-0.5-0.9l10.4-6l0.5,0.9L124.2,417.5z M139.6,408.6l-0.5-0.9l10.4-6l0.5,0.9L139.6,408.6z
			 M155,399.7l-0.5-0.9l10.4-6l0.5,0.9L155,399.7z M170.5,390.7l-0.5-0.9l10.4-6l0.5,0.9L170.5,390.7z M185.9,381.8l-0.5-0.9l10.4-6
			l0.5,0.9L185.9,381.8z M201.3,372.9l-0.5-0.9l10.4-6l0.5,0.9L201.3,372.9z M216.8,364l-0.5-0.9l10.4-6l0.5,0.9L216.8,364z
			 M232.2,355.1l-0.5-0.9l10.4-6l0.5,0.9L232.2,355.1z M247.6,346.2l-0.5-0.9l10.4-6l0.5,0.9L247.6,346.2z M263.1,337.3l-0.5-0.9
			l10.4-6l0.5,0.9L263.1,337.3z M278.5,328.4l-0.5-0.9l10.4-6l0.5,0.9L278.5,328.4z M294,319.4l-0.5-0.9l10.4-6l0.5,0.9L294,319.4z
			 M309.4,310.5l-0.5-0.9l10.4-6l0.5,0.9L309.4,310.5z M324.8,301.6l-0.5-0.9l10.4-6l0.5,0.9L324.8,301.6z M340.3,292.7l-0.5-0.9
			l10.4-6l0.5,0.9L340.3,292.7z M355.7,283.8l-0.5-0.9l10.4-6l0.5,0.9L355.7,283.8z M371.1,274.9l-0.5-0.9l10.4-6l0.5,0.9
			L371.1,274.9z M386.6,266l-0.5-0.9l10.4-6l0.5,0.9L386.6,266z M402,257.1l-0.5-0.9l10.4-6l0.5,0.9L402,257.1z M417.4,248.2
			l-0.5-0.9l10.4-6l0.5,0.9L417.4,248.2z M432.9,239.2l-0.5-0.9l10.4-6l0.5,0.9L432.9,239.2z M448.3,230.3l-0.5-0.9l10.4-6l0.5,0.9
			L448.3,230.3z M463.8,221.4l-0.5-0.9l10.4-6l0.5,0.9L463.8,221.4z M479.2,212.5l-0.5-0.9l10.4-6l0.5,0.9L479.2,212.5z
			 M494.6,203.6l-0.5-0.9l10.4-6l0.5,0.9L494.6,203.6z M510.1,194.7l-0.5-0.9l10.4-6l0.5,0.9L510.1,194.7z M525.5,185.8l-0.5-0.9
			l10.4-6l0.5,0.9L525.5,185.8z M540.9,176.9l-0.5-0.9l10.4-6l0.5,0.9L540.9,176.9z M556.4,167.9l-0.5-0.9l10.4-6l0.5,0.9
			L556.4,167.9z M571.8,159l-0.5-0.9l10.4-6l0.5,0.9L571.8,159z M587.2,150.1l-0.5-0.9l10.4-6l0.5,0.9L587.2,150.1z M602.7,141.2
			l-0.5-0.9l10.4-6l0.5,0.9L602.7,141.2z M618.1,132.3l-0.5-0.9l10.4-6l0.5,0.9L618.1,132.3z M633.5,123.4l-0.5-0.9l10.4-6l0.5,0.9
			L633.5,123.4z M649,114.5l-0.5-0.9l10.4-6l0.5,0.9L649,114.5z M664.4,105.6l-0.5-0.9l10.4-6l0.5,0.9L664.4,105.6z M679.9,96.6
			l-0.5-0.9l10.4-6l0.5,0.9L679.9,96.6z M695.3,87.7l-0.5-0.9l10.4-6l0.5,0.9L695.3,87.7z M710.7,78.8l-0.5-0.9l10.4-6l0.5,0.9
			L710.7,78.8z M726.2,69.9l-0.5-0.9l10.4-6l0.5,0.9L726.2,69.9z M741.6,61l-0.5-0.9l10.4-6L752,55L741.6,61z M757,52.1l-0.5-0.9
			l10.4-6l0.5,0.9L757,52.1z M772.5,43.2l-0.5-0.9l10.4-6l0.5,0.9L772.5,43.2z M787.9,34.3l-0.5-0.9l10.4-6l0.5,0.9L787.9,34.3z
			 M803.3,25.4l-0.5-0.9l10.4-6l0.5,0.9L803.3,25.4z M818.8,16.4l-0.5-0.9l10.4-6l0.5,0.9L818.8,16.4z"/>
		<path class="st0" d="M0.5,726.9L0,726l10.4-6l0.5,0.9L0.5,726.9z M15.9,718l-0.5-0.9l10.4-6l0.5,0.9L15.9,718z M31.2,709.2
			l-0.5-0.9l10.4-6l0.5,0.9L31.2,709.2z M46.6,700.3l-0.5-0.9l10.4-6l0.5,0.9L46.6,700.3z M62,691.4l-0.5-0.9l10.4-6l0.5,0.9
			L62,691.4z M77.4,682.5l-0.5-0.9l10.4-6l0.5,0.9L77.4,682.5z M92.7,673.7l-0.5-0.9l10.4-6l0.5,0.9L92.7,673.7z M108.1,664.8
			l-0.5-0.9l10.4-6l0.5,0.9L108.1,664.8z M123.5,655.9L123,655l10.4-6l0.5,0.9L123.5,655.9z M138.9,647l-0.5-0.9l10.4-6l0.5,0.9
			L138.9,647z M154.2,638.2l-0.5-0.9l10.4-6l0.5,0.9L154.2,638.2z M169.6,629.3l-0.5-0.9l10.4-6l0.5,0.9L169.6,629.3z M185,620.4
			l-0.5-0.9l10.4-6l0.5,0.9L185,620.4z M200.4,611.5l-0.5-0.9l10.4-6l0.5,0.9L200.4,611.5z M215.7,602.6l-0.5-0.9l10.4-6l0.5,0.9
			L215.7,602.6z M231.1,593.8l-0.5-0.9l10.4-6l0.5,0.9L231.1,593.8z M246.5,584.9L246,584l10.4-6l0.5,0.9L246.5,584.9z M261.8,576
			l-0.5-0.9l10.4-6l0.5,0.9L261.8,576z M277.2,567.1l-0.5-0.9l10.4-6l0.5,0.9L277.2,567.1z M292.6,558.3l-0.5-0.9l10.4-6l0.5,0.9
			L292.6,558.3z M308,549.4l-0.5-0.9l10.4-6l0.5,0.9L308,549.4z M323.3,540.5l-0.5-0.9l10.4-6l0.5,0.9L323.3,540.5z M338.7,531.6
			l-0.5-0.9l10.4-6l0.5,0.9L338.7,531.6z M354.1,522.8l-0.5-0.9l10.4-6l0.5,0.9L354.1,522.8z M369.5,513.9L369,513l10.4-6l0.5,0.9
			L369.5,513.9z M384.8,505l-0.5-0.9l10.4-6l0.5,0.9L384.8,505z M400.2,496.1l-0.5-0.9l10.4-6l0.5,0.9L400.2,496.1z M415.6,487.3
			l-0.5-0.9l10.4-6l0.5,0.9L415.6,487.3z M430.9,478.4l-0.5-0.9l10.4-6l0.5,0.9L430.9,478.4z M446.3,469.5l-0.5-0.9l10.4-6l0.5,0.9
			L446.3,469.5z M461.7,460.6l-0.5-0.9l10.4-6l0.5,0.9L461.7,460.6z M477.1,451.8l-0.5-0.9l10.4-6l0.5,0.9L477.1,451.8z
			 M492.4,442.9l-0.5-0.9l10.4-6l0.5,0.9L492.4,442.9z M507.8,434l-0.5-0.9l10.4-6l0.5,0.9L507.8,434z M523.2,425.1l-0.5-0.9l10.4-6
			l0.5,0.9L523.2,425.1z M538.6,416.3l-0.5-0.9l10.4-6l0.5,0.9L538.6,416.3z M553.9,407.4l-0.5-0.9l10.4-6l0.5,0.9L553.9,407.4z
			 M569.3,398.5l-0.5-0.9l10.4-6l0.5,0.9L569.3,398.5z M584.7,389.6l-0.5-0.9l10.4-6l0.5,0.9L584.7,389.6z M600.1,380.8l-0.5-0.9
			l10.4-6l0.5,0.9L600.1,380.8z M615.4,371.9l-0.5-0.9l10.4-6l0.5,0.9L615.4,371.9z M630.8,363l-0.5-0.9l10.4-6l0.5,0.9L630.8,363z
			 M646.2,354.1l-0.5-0.9l10.4-6l0.5,0.9L646.2,354.1z M661.5,345.3l-0.5-0.9l10.4-6l0.5,0.9L661.5,345.3z M676.9,336.4l-0.5-0.9
			l10.4-6l0.5,0.9L676.9,336.4z M692.3,327.5l-0.5-0.9l10.4-6l0.5,0.9L692.3,327.5z M707.7,318.6l-0.5-0.9l10.4-6l0.5,0.9
			L707.7,318.6z M723,309.7l-0.5-0.9l10.4-6l0.5,0.9L723,309.7z M738.4,300.9l-0.5-0.9l10.4-6l0.5,0.9L738.4,300.9z M753.8,292
			l-0.5-0.9l10.4-6l0.5,0.9L753.8,292z M769.2,283.1l-0.5-0.9l10.4-6l0.5,0.9L769.2,283.1z M784.5,274.2l-0.5-0.9l10.4-6l0.5,0.9
			L784.5,274.2z M799.9,265.4l-0.5-0.9l10.4-6l0.5,0.9L799.9,265.4z M815.3,256.5l-0.5-0.9l10.4-6l0.5,0.9L815.3,256.5z
			 M830.7,247.6l-0.5-0.9l10.4-6l0.5,0.9L830.7,247.6z M846,238.7l-0.5-0.9l10.4-6l0.5,0.9L846,238.7z M861.4,229.9l-0.5-0.9l10.4-6
			l0.5,0.9L861.4,229.9z"/>
		<rect x="883.1" y="221.6" transform="matrix(0.8661 -0.4999 0.4999 0.8661 7.6598 472.7128)" class="st0" width="6" height="1"/>
		<path class="st0" d="M1.1,742.1l-0.5-0.9l10.4-6l0.5,0.9L1.1,742.1z M16.6,733.2l-0.5-0.9l10.4-6l0.5,0.9L16.6,733.2z M32,724.3
			l-0.5-0.9l10.4-6l0.5,0.9L32,724.3z M47.4,715.4l-0.5-0.9l10.4-6l0.5,0.9L47.4,715.4z M62.9,706.4l-0.5-0.9l10.4-6l0.5,0.9
			L62.9,706.4z M78.3,697.5l-0.5-0.9l10.4-6l0.5,0.9L78.3,697.5z M93.7,688.6l-0.5-0.9l10.4-6l0.5,0.9L93.7,688.6z M109.2,679.7
			l-0.5-0.9l10.4-6l0.5,0.9L109.2,679.7z M124.6,670.8l-0.5-0.9l10.4-6l0.5,0.9L124.6,670.8z M140,661.9l-0.5-0.9l10.4-6l0.5,0.9
			L140,661.9z M155.5,653l-0.5-0.9l10.4-6l0.5,0.9L155.5,653z M170.9,644.1l-0.5-0.9l10.4-6l0.5,0.9L170.9,644.1z M186.3,635.2
			l-0.5-0.9l10.4-6l0.5,0.9L186.3,635.2z M201.8,626.3l-0.5-0.9l10.4-6l0.5,0.9L201.8,626.3z M217.2,617.3l-0.5-0.9l10.4-6l0.5,0.9
			L217.2,617.3z M232.6,608.4l-0.5-0.9l10.4-6l0.5,0.9L232.6,608.4z M248.1,599.5l-0.5-0.9l10.4-6l0.5,0.9L248.1,599.5z
			 M263.5,590.6l-0.5-0.9l10.4-6l0.5,0.9L263.5,590.6z M278.9,581.7l-0.5-0.9l10.4-6l0.5,0.9L278.9,581.7z M294.4,572.8l-0.5-0.9
			l10.4-6l0.5,0.9L294.4,572.8z M309.8,563.9l-0.5-0.9l10.4-6l0.5,0.9L309.8,563.9z M325.2,555l-0.5-0.9l10.4-6l0.5,0.9L325.2,555z
			 M340.6,546.1l-0.5-0.9l10.4-6l0.5,0.9L340.6,546.1z M356.1,537.2l-0.5-0.9l10.4-6l0.5,0.9L356.1,537.2z M371.5,528.3l-0.5-0.9
			l10.4-6l0.5,0.9L371.5,528.3z M386.9,519.3l-0.5-0.9l10.4-6l0.5,0.9L386.9,519.3z M402.4,510.4l-0.5-0.9l10.4-6l0.5,0.9
			L402.4,510.4z M417.8,501.5l-0.5-0.9l10.4-6l0.5,0.9L417.8,501.5z M433.2,492.6l-0.5-0.9l10.4-6l0.5,0.9L433.2,492.6z
			 M448.7,483.7l-0.5-0.9l10.4-6l0.5,0.9L448.7,483.7z M464.1,474.8l-0.5-0.9l10.4-6l0.5,0.9L464.1,474.8z M479.5,465.9L479,465
			l10.4-6l0.5,0.9L479.5,465.9z M495,457l-0.5-0.9l10.4-6l0.5,0.9L495,457z M510.4,448.1l-0.5-0.9l10.4-6l0.5,0.9L510.4,448.1z
			 M525.8,439.2l-0.5-0.9l10.4-6l0.5,0.9L525.8,439.2z M541.3,430.2l-0.5-0.9l10.4-6l0.5,0.9L541.3,430.2z M556.7,421.3l-0.5-0.9
			l10.4-6l0.5,0.9L556.7,421.3z M572.1,412.4l-0.5-0.9l10.4-6l0.5,0.9L572.1,412.4z M587.6,403.5l-0.5-0.9l10.4-6l0.5,0.9
			L587.6,403.5z M603,394.6l-0.5-0.9l10.4-6l0.5,0.9L603,394.6z M618.4,385.7l-0.5-0.9l10.4-6l0.5,0.9L618.4,385.7z M633.9,376.8
			l-0.5-0.9l10.4-6l0.5,0.9L633.9,376.8z M649.3,367.9l-0.5-0.9l10.4-6l0.5,0.9L649.3,367.9z M664.7,359l-0.5-0.9l10.4-6l0.5,0.9
			L664.7,359z M680.1,350.1l-0.5-0.9l10.4-6l0.5,0.9L680.1,350.1z M695.6,341.2l-0.5-0.9l10.4-6l0.5,0.9L695.6,341.2z M711,332.2
			l-0.5-0.9l10.4-6l0.5,0.9L711,332.2z M726.4,323.3l-0.5-0.9l10.4-6l0.5,0.9L726.4,323.3z M741.9,314.4l-0.5-0.9l10.4-6l0.5,0.9
			L741.9,314.4z M757.3,305.5l-0.5-0.9l10.4-6l0.5,0.9L757.3,305.5z M772.7,296.6l-0.5-0.9l10.4-6l0.5,0.9L772.7,296.6z
			 M788.2,287.7l-0.5-0.9l10.4-6l0.5,0.9L788.2,287.7z M803.6,278.8l-0.5-0.9l10.4-6l0.5,0.9L803.6,278.8z"/>
		<rect x="818.4" y="267.4" transform="matrix(0.8661 -0.4999 0.4999 0.8661 -23.9402 446.513)" class="st0" width="6" height="1"/>
		<path class="st0" d="M3,1030.3l-0.5-0.9l10.4-6l0.5,0.9L3,1030.3z M18.3,1021.4l-0.5-0.9l10.4-6l0.5,0.9L18.3,1021.4z
			 M33.7,1012.6l-0.5-0.9l10.4-6l0.5,0.9L33.7,1012.6z M49,1003.7l-0.5-0.9l10.4-6l0.5,0.9L49,1003.7z M64.4,994.8l-0.5-0.9l10.4-6
			l0.5,0.9L64.4,994.8z M79.8,986l-0.5-0.9l10.4-6l0.5,0.9L79.8,986z M95.1,977.1l-0.5-0.9l10.4-6l0.5,0.9L95.1,977.1z M110.5,968.2
			l-0.5-0.9l10.4-6l0.5,0.9L110.5,968.2z M125.8,959.4l-0.5-0.9l10.4-6l0.5,0.9L125.8,959.4z M141.2,950.5l-0.5-0.9l10.4-6l0.5,0.9
			L141.2,950.5z M156.6,941.6l-0.5-0.9l10.4-6l0.5,0.9L156.6,941.6z M171.9,932.8l-0.5-0.9l10.4-6l0.5,0.9L171.9,932.8z
			 M187.3,923.9l-0.5-0.9l10.4-6l0.5,0.9L187.3,923.9z M202.6,915l-0.5-0.9l10.4-6l0.5,0.9L202.6,915z M218,906.1l-0.5-0.9l10.4-6
			l0.5,0.9L218,906.1z M233.4,897.3l-0.5-0.9l10.4-6l0.5,0.9L233.4,897.3z M248.7,888.4l-0.5-0.9l10.4-6l0.5,0.9L248.7,888.4z
			 M264.1,879.5l-0.5-0.9l10.4-6l0.5,0.9L264.1,879.5z M279.4,870.7l-0.5-0.9l10.4-6l0.5,0.9L279.4,870.7z M294.8,861.8l-0.5-0.9
			l10.4-6l0.5,0.9L294.8,861.8z M310.2,852.9l-0.5-0.9l10.4-6l0.5,0.9L310.2,852.9z M325.5,844.1l-0.5-0.9l10.4-6l0.5,0.9
			L325.5,844.1z M340.9,835.2l-0.5-0.9l10.4-6l0.5,0.9L340.9,835.2z M356.2,826.3l-0.5-0.9l10.4-6l0.5,0.9L356.2,826.3z
			 M371.6,817.5l-0.5-0.9l10.4-6l0.5,0.9L371.6,817.5z M387,808.6l-0.5-0.9l10.4-6l0.5,0.9L387,808.6z M402.3,799.7l-0.5-0.9l10.4-6
			l0.5,0.9L402.3,799.7z M417.7,790.9l-0.5-0.9l10.4-6l0.5,0.9L417.7,790.9z M433,782l-0.5-0.9l10.4-6l0.5,0.9L433,782z
			 M448.4,773.1l-0.5-0.9l10.4-6l0.5,0.9L448.4,773.1z M463.8,764.3l-0.5-0.9l10.4-6l0.5,0.9L463.8,764.3z M479.1,755.4l-0.5-0.9
			l10.4-6l0.5,0.9L479.1,755.4z M494.5,746.5l-0.5-0.9l10.4-6l0.5,0.9L494.5,746.5z M509.8,737.7l-0.5-0.9l10.4-6l0.5,0.9
			L509.8,737.7z M525.2,728.8l-0.5-0.9l10.4-6l0.5,0.9L525.2,728.8z M540.6,719.9l-0.5-0.9l10.4-6l0.5,0.9L540.6,719.9z
			 M555.9,711.1l-0.5-0.9l10.4-6l0.5,0.9L555.9,711.1z M571.3,702.2l-0.5-0.9l10.4-6l0.5,0.9L571.3,702.2z M586.6,693.3l-0.5-0.9
			l10.4-6l0.5,0.9L586.6,693.3z M602,684.4l-0.5-0.9l10.4-6l0.5,0.9L602,684.4z M617.4,675.6l-0.5-0.9l10.4-6l0.5,0.9L617.4,675.6z
			 M632.7,666.7l-0.5-0.9l10.4-6l0.5,0.9L632.7,666.7z M648.1,657.8l-0.5-0.9l10.4-6l0.5,0.9L648.1,657.8z M663.4,649l-0.5-0.9
			l10.4-6l0.5,0.9L663.4,649z M678.8,640.1l-0.5-0.9l10.4-6l0.5,0.9L678.8,640.1z M694.2,631.2l-0.5-0.9l10.4-6l0.5,0.9L694.2,631.2
			z M709.5,622.4l-0.5-0.9l10.4-6l0.5,0.9L709.5,622.4z M724.9,613.5l-0.5-0.9l10.4-6l0.5,0.9L724.9,613.5z M740.2,604.6l-0.5-0.9
			l10.4-6l0.5,0.9L740.2,604.6z M755.6,595.8l-0.5-0.9l10.4-6l0.5,0.9L755.6,595.8z M771,586.9l-0.5-0.9l10.4-6l0.5,0.9L771,586.9z
			 M786.3,578l-0.5-0.9l10.4-6l0.5,0.9L786.3,578z M801.7,569.2l-0.5-0.9l10.4-6l0.5,0.9L801.7,569.2z M817,560.3l-0.5-0.9l10.4-6
			l0.5,0.9L817,560.3z M832.4,551.4l-0.5-0.9l10.4-6l0.5,0.9L832.4,551.4z M847.8,542.6l-0.5-0.9l10.4-6l0.5,0.9L847.8,542.6z"/>
		
			<rect x="862.5" y="531.3" transform="matrix(0.8661 -0.4999 0.4999 0.8661 -149.9248 503.8825)" class="st0" width="6" height="1"/>
		<path class="st0" d="M0.5,920.3L0,919.4l10.4-6l0.5,0.9L0.5,920.3z M15.9,911.4l-0.5-0.9l10.4-6l0.5,0.9L15.9,911.4z M31.4,902.5
			l-0.5-0.9l10.4-6l0.5,0.9L31.4,902.5z M46.8,893.5l-0.5-0.9l10.4-6l0.5,0.9L46.8,893.5z M62.2,884.6l-0.5-0.9l10.4-6l0.5,0.9
			L62.2,884.6z M77.6,875.7l-0.5-0.9l10.4-6l0.5,0.9L77.6,875.7z M93.1,866.8l-0.5-0.9l10.4-6l0.5,0.9L93.1,866.8z M108.5,857.9
			L108,857l10.4-6l0.5,0.9L108.5,857.9z M123.9,849l-0.5-0.9l10.4-6l0.5,0.9L123.9,849z M139.4,840.1l-0.5-0.9l10.4-6l0.5,0.9
			L139.4,840.1z M154.8,831.2l-0.5-0.9l10.4-6l0.5,0.9L154.8,831.2z M170.2,822.3l-0.5-0.9l10.4-6l0.5,0.9L170.2,822.3z
			 M185.7,813.4l-0.5-0.9l10.4-6l0.5,0.9L185.7,813.4z M201.1,804.5l-0.5-0.9l10.4-6l0.5,0.9L201.1,804.5z M216.5,795.6l-0.5-0.9
			l10.4-6l0.5,0.9L216.5,795.6z M231.9,786.6l-0.5-0.9l10.4-6l0.5,0.9L231.9,786.6z M247.4,777.7l-0.5-0.9l10.4-6l0.5,0.9
			L247.4,777.7z M262.8,768.8l-0.5-0.9l10.4-6l0.5,0.9L262.8,768.8z M278.2,759.9l-0.5-0.9l10.4-6l0.5,0.9L278.2,759.9z M293.7,751
			l-0.5-0.9l10.4-6l0.5,0.9L293.7,751z M309.1,742.1l-0.5-0.9l10.4-6l0.5,0.9L309.1,742.1z M324.5,733.2l-0.5-0.9l10.4-6l0.5,0.9
			L324.5,733.2z M339.9,724.3l-0.5-0.9l10.4-6l0.5,0.9L339.9,724.3z M355.4,715.4l-0.5-0.9l10.4-6l0.5,0.9L355.4,715.4z
			 M370.8,706.5l-0.5-0.9l10.4-6l0.5,0.9L370.8,706.5z M386.2,697.6l-0.5-0.9l10.4-6l0.5,0.9L386.2,697.6z M401.7,688.7l-0.5-0.9
			l10.4-6l0.5,0.9L401.7,688.7z M417.1,679.8l-0.5-0.9l10.4-6l0.5,0.9L417.1,679.8z M432.5,670.8L432,670l10.4-6l0.5,0.9
			L432.5,670.8z M448,661.9l-0.5-0.9l10.4-6l0.5,0.9L448,661.9z M463.4,653l-0.5-0.9l10.4-6l0.5,0.9L463.4,653z M478.8,644.1
			l-0.5-0.9l10.4-6l0.5,0.9L478.8,644.1z M494.2,635.2l-0.5-0.9l10.4-6l0.5,0.9L494.2,635.2z M509.7,626.3l-0.5-0.9l10.4-6l0.5,0.9
			L509.7,626.3z M525.1,617.4l-0.5-0.9l10.4-6l0.5,0.9L525.1,617.4z M540.5,608.5l-0.5-0.9l10.4-6l0.5,0.9L540.5,608.5z M556,599.6
			l-0.5-0.9l10.4-6l0.5,0.9L556,599.6z M571.4,590.7l-0.5-0.9l10.4-6l0.5,0.9L571.4,590.7z M586.8,581.8l-0.5-0.9l10.4-6l0.5,0.9
			L586.8,581.8z M602.2,572.9l-0.5-0.9l10.4-6l0.5,0.9L602.2,572.9z M617.7,563.9l-0.5-0.9l10.4-6l0.5,0.9L617.7,563.9z M633.1,555
			l-0.5-0.9l10.4-6l0.5,0.9L633.1,555z M648.5,546.1l-0.5-0.9l10.4-6l0.5,0.9L648.5,546.1z M664,537.2l-0.5-0.9l10.4-6l0.5,0.9
			L664,537.2z M679.4,528.3l-0.5-0.9l10.4-6l0.5,0.9L679.4,528.3z M694.8,519.4l-0.5-0.9l10.4-6l0.5,0.9L694.8,519.4z M710.2,510.5
			l-0.5-0.9l10.4-6l0.5,0.9L710.2,510.5z M725.7,501.6l-0.5-0.9l10.4-6l0.5,0.9L725.7,501.6z M741.1,492.7l-0.5-0.9l10.4-6l0.5,0.9
			L741.1,492.7z M756.5,483.8l-0.5-0.9l10.4-6l0.5,0.9L756.5,483.8z M772,474.9l-0.5-0.9l10.4-6l0.5,0.9L772,474.9z M787.4,466
			l-0.5-0.9l10.4-6l0.5,0.9L787.4,466z M802.8,457l-0.5-0.9l10.4-6l0.5,0.9L802.8,457z M818.3,448.1l-0.5-0.9l10.4-6l0.5,0.9
			L818.3,448.1z M833.7,439.2l-0.5-0.9l10.4-6l0.5,0.9L833.7,439.2z M849.1,430.3l-0.5-0.9l10.4-6l0.5,0.9L849.1,430.3z
			 M864.5,421.4l-0.5-0.9l10.4-6l0.5,0.9L864.5,421.4z M880,412.5l-0.5-0.9l10.4-6l0.5,0.9L880,412.5z M895.4,403.6l-0.5-0.9l10.4-6
			l0.5,0.9L895.4,403.6z M910.8,394.7l-0.5-0.9l10.4-6l0.5,0.9L910.8,394.7z M926.3,385.8l-0.5-0.9l10.4-6l0.5,0.9L926.3,385.8z
			 M941.7,376.9l-0.5-0.9l10.4-6l0.5,0.9L941.7,376.9z M957.1,368l-0.5-0.9l10.4-6l0.5,0.9L957.1,368z"/>
		<rect x="976.3" y="354" transform="matrix(0.8661 -0.4999 0.4999 0.8661 -46.0421 537.0524)" class="st0" width="6" height="1"/>
		<path class="st0" d="M1.8,777.4l-0.5-0.9l10.4-6l0.5,0.9L1.8,777.4z M17.2,768.5l-0.5-0.9l10.4-6l0.5,0.9L17.2,768.5z M32.5,759.7
			l-0.5-0.9l10.4-6l0.5,0.9L32.5,759.7z M47.9,750.8l-0.5-0.9l10.4-6l0.5,0.9L47.9,750.8z M63.2,741.9l-0.5-0.9l10.4-6l0.5,0.9
			L63.2,741.9z M78.6,733.1l-0.5-0.9l10.4-6l0.5,0.9L78.6,733.1z M93.9,724.2l-0.5-0.9l10.4-6l0.5,0.9L93.9,724.2z M109.3,715.3
			l-0.5-0.9l10.4-6l0.5,0.9L109.3,715.3z M124.7,706.5l-0.5-0.9l10.4-6l0.5,0.9L124.7,706.5z M140,697.6l-0.5-0.9l10.4-6l0.5,0.9
			L140,697.6z M155.4,688.7l-0.5-0.9l10.4-6l0.5,0.9L155.4,688.7z M170.7,679.9l-0.5-0.9l10.4-6l0.5,0.9L170.7,679.9z M186.1,671
			l-0.5-0.9l10.4-6l0.5,0.9L186.1,671z M201.4,662.1l-0.5-0.9l10.4-6l0.5,0.9L201.4,662.1z M216.8,653.3l-0.5-0.9l10.4-6l0.5,0.9
			L216.8,653.3z M232.1,644.4l-0.5-0.9l10.4-6l0.5,0.9L232.1,644.4z M247.5,635.5l-0.5-0.9l10.4-6l0.5,0.9L247.5,635.5z
			 M262.9,626.7l-0.5-0.9l10.4-6l0.5,0.9L262.9,626.7z M278.2,617.8l-0.5-0.9l10.4-6l0.5,0.9L278.2,617.8z M293.6,608.9l-0.5-0.9
			l10.4-6l0.5,0.9L293.6,608.9z M308.9,600.1l-0.5-0.9l10.4-6l0.5,0.9L308.9,600.1z M324.3,591.2l-0.5-0.9l10.4-6l0.5,0.9
			L324.3,591.2z M339.6,582.4l-0.5-0.9l10.4-6l0.5,0.9L339.6,582.4z M355,573.5l-0.5-0.9l10.4-6l0.5,0.9L355,573.5z M370.3,564.6
			l-0.5-0.9l10.4-6l0.5,0.9L370.3,564.6z M385.7,555.8l-0.5-0.9l10.4-6l0.5,0.9L385.7,555.8z M401.1,546.9l-0.5-0.9l10.4-6l0.5,0.9
			L401.1,546.9z M416.4,538l-0.5-0.9l10.4-6l0.5,0.9L416.4,538z M431.8,529.2l-0.5-0.9l10.4-6l0.5,0.9L431.8,529.2z M447.1,520.3
			l-0.5-0.9l10.4-6l0.5,0.9L447.1,520.3z M462.5,511.4l-0.5-0.9l10.4-6l0.5,0.9L462.5,511.4z M477.8,502.6l-0.5-0.9l10.4-6l0.5,0.9
			L477.8,502.6z M493.2,493.7l-0.5-0.9l10.4-6l0.5,0.9L493.2,493.7z M508.6,484.8l-0.5-0.9l10.4-6l0.5,0.9L508.6,484.8z M523.9,476
			l-0.5-0.9l10.4-6l0.5,0.9L523.9,476z M539.3,467.1l-0.5-0.9l10.4-6l0.5,0.9L539.3,467.1z M554.6,458.2l-0.5-0.9l10.4-6l0.5,0.9
			L554.6,458.2z M570,449.4l-0.5-0.9l10.4-6l0.5,0.9L570,449.4z M585.3,440.5l-0.5-0.9l10.4-6l0.5,0.9L585.3,440.5z M600.7,431.6
			l-0.5-0.9l10.4-6l0.5,0.9L600.7,431.6z M616,422.8l-0.5-0.9l10.4-6l0.5,0.9L616,422.8z M631.4,413.9l-0.5-0.9l10.4-6l0.5,0.9
			L631.4,413.9z M646.8,405l-0.5-0.9l10.4-6l0.5,0.9L646.8,405z M662.1,396.2l-0.5-0.9l10.4-6l0.5,0.9L662.1,396.2z M677.5,387.3
			l-0.5-0.9l10.4-6l0.5,0.9L677.5,387.3z M692.8,378.4l-0.5-0.9l10.4-6l0.5,0.9L692.8,378.4z M708.2,369.6l-0.5-0.9l10.4-6l0.5,0.9
			L708.2,369.6z M723.5,360.7l-0.5-0.9l10.4-6l0.5,0.9L723.5,360.7z M738.9,351.8l-0.5-0.9l10.4-6l0.5,0.9L738.9,351.8z M754.2,343
			l-0.5-0.9l10.4-6l0.5,0.9L754.2,343z M769.6,334.1l-0.5-0.9l10.4-6l0.5,0.9L769.6,334.1z M785,325.2l-0.5-0.9l10.4-6l0.5,0.9
			L785,325.2z M800.3,316.4l-0.5-0.9l10.4-6l0.5,0.9L800.3,316.4z M815.7,307.5l-0.5-0.9l10.4-6l0.5,0.9L815.7,307.5z M831,298.7
			l-0.5-0.9l10.4-6l0.5,0.9L831,298.7z"/>
		
			<rect x="855.8" y="281.9" transform="matrix(0.8661 -0.4999 0.4999 0.8661 -26.1404 467.1412)" class="st0" width="6" height="1"/>
		<path class="st0" d="M2.9,696.1l-0.5-0.9l10.4-6l0.5,0.9L2.9,696.1z M18.3,687.2l-0.5-0.9l10.4-6l0.5,0.9L18.3,687.2z M33.8,678.3
			l-0.5-0.9l10.4-6l0.5,0.9L33.8,678.3z M49.2,669.3l-0.5-0.9l10.4-6l0.5,0.9L49.2,669.3z M64.7,660.4l-0.5-0.9l10.4-6l0.5,0.9
			L64.7,660.4z M80.1,651.5l-0.5-0.9l10.4-6l0.5,0.9L80.1,651.5z M95.6,642.6l-0.5-0.9l10.4-6l0.5,0.9L95.6,642.6z M111,633.7
			l-0.5-0.9l10.4-6l0.5,0.9L111,633.7z M126.4,624.7l-0.5-0.9l10.4-6l0.5,0.9L126.4,624.7z M141.9,615.8l-0.5-0.9l10.4-6l0.5,0.9
			L141.9,615.8z M157.3,606.9l-0.5-0.9l10.4-6l0.5,0.9L157.3,606.9z M172.8,598l-0.5-0.9l10.4-6l0.5,0.9L172.8,598z M188.2,589.1
			l-0.5-0.9l10.4-6l0.5,0.9L188.2,589.1z M203.7,580.2l-0.5-0.9l10.4-6l0.5,0.9L203.7,580.2z M219.1,571.2l-0.5-0.9l10.4-6l0.5,0.9
			L219.1,571.2z M234.6,562.3l-0.5-0.9l10.4-6l0.5,0.9L234.6,562.3z M250,553.4l-0.5-0.9l10.4-6l0.5,0.9L250,553.4z M265.5,544.5
			l-0.5-0.9l10.4-6l0.5,0.9L265.5,544.5z M280.9,535.6l-0.5-0.9l10.4-6l0.5,0.9L280.9,535.6z M296.4,526.6l-0.5-0.9l10.4-6l0.5,0.9
			L296.4,526.6z M311.8,517.7l-0.5-0.9l10.4-6l0.5,0.9L311.8,517.7z M327.3,508.8l-0.5-0.9l10.4-6l0.5,0.9L327.3,508.8z
			 M342.7,499.9l-0.5-0.9l10.4-6l0.5,0.9L342.7,499.9z M358.2,491l-0.5-0.9l10.4-6l0.5,0.9L358.2,491z M373.6,482l-0.5-0.9l10.4-6
			l0.5,0.9L373.6,482z M389,473.1l-0.5-0.9l10.4-6l0.5,0.9L389,473.1z M404.5,464.2l-0.5-0.9l10.4-6l0.5,0.9L404.5,464.2z
			 M419.9,455.3l-0.5-0.9l10.4-6l0.5,0.9L419.9,455.3z M435.4,446.4l-0.5-0.9l10.4-6l0.5,0.9L435.4,446.4z M450.8,437.5l-0.5-0.9
			l10.4-6l0.5,0.9L450.8,437.5z M466.3,428.5l-0.5-0.9l10.4-6l0.5,0.9L466.3,428.5z M481.7,419.6l-0.5-0.9l10.4-6l0.5,0.9
			L481.7,419.6z M497.2,410.7l-0.5-0.9l10.4-6l0.5,0.9L497.2,410.7z M512.6,401.8l-0.5-0.9l10.4-6l0.5,0.9L512.6,401.8z
			 M528.1,392.9l-0.5-0.9l10.4-6l0.5,0.9L528.1,392.9z M543.5,383.9l-0.5-0.9l10.4-6l0.5,0.9L543.5,383.9z M559,375l-0.5-0.9l10.4-6
			l0.5,0.9L559,375z M574.4,366.1l-0.5-0.9l10.4-6l0.5,0.9L574.4,366.1z M589.9,357.2l-0.5-0.9l10.4-6l0.5,0.9L589.9,357.2z
			 M605.3,348.3l-0.5-0.9l10.4-6l0.5,0.9L605.3,348.3z M620.8,339.4l-0.5-0.9l10.4-6l0.5,0.9L620.8,339.4z M636.2,330.4l-0.5-0.9
			l10.4-6l0.5,0.9L636.2,330.4z M651.6,321.5l-0.5-0.9l10.4-6l0.5,0.9L651.6,321.5z M667.1,312.6l-0.5-0.9l10.4-6l0.5,0.9
			L667.1,312.6z M682.5,303.7l-0.5-0.9l10.4-6l0.5,0.9L682.5,303.7z M698,294.8l-0.5-0.9l10.4-6l0.5,0.9L698,294.8z M713.4,285.8
			l-0.5-0.9l10.4-6l0.5,0.9L713.4,285.8z M728.9,276.9l-0.5-0.9l10.4-6l0.5,0.9L728.9,276.9z M744.3,268l-0.5-0.9l10.4-6l0.5,0.9
			L744.3,268z M759.8,259.1l-0.5-0.9l10.4-6l0.5,0.9L759.8,259.1z M775.2,250.2l-0.5-0.9l10.4-6l0.5,0.9L775.2,250.2z M790.7,241.3
			l-0.5-0.9l10.4-6l0.5,0.9L790.7,241.3z M806.1,232.3l-0.5-0.9l10.4-6l0.5,0.9L806.1,232.3z M821.6,223.4l-0.5-0.9l10.4-6l0.5,0.9
			L821.6,223.4z M837,214.5l-0.5-0.9l10.4-6l0.5,0.9L837,214.5z M852.5,205.6l-0.5-0.9l10.4-6l0.5,0.9L852.5,205.6z M867.9,196.7
			l-0.5-0.9l10.4-6l0.5,0.9L867.9,196.7z M883.4,187.7l-0.5-0.9l10.4-6l0.5,0.9L883.4,187.7z M898.8,178.8l-0.5-0.9l10.4-6l0.5,0.9
			L898.8,178.8z M914.2,169.9l-0.5-0.9l10.4-6l0.5,0.9L914.2,169.9z M929.7,161l-0.5-0.9l10.4-6l0.5,0.9L929.7,161z M945.1,152.1
			l-0.5-0.9l10.4-6l0.5,0.9L945.1,152.1z M960.6,143.1l-0.5-0.9l10.4-6l0.5,0.9L960.6,143.1z M976,134.2l-0.5-0.9l10.4-6l0.5,0.9
			L976,134.2z"/>
		<rect x="990.8" y="122.9" transform="matrix(0.8661 -0.4999 0.4999 0.8661 71.4197 513.3577)" class="st0" width="6" height="1"/>
		<path class="st0" d="M1139.9,1156.2l-10.4-6l0.5-0.9l10.4,6L1139.9,1156.2z M1124.4,1147.3l-10.4-6l0.5-0.9l10.4,6L1124.4,1147.3z
			 M1108.9,1138.3l-10.4-6l0.5-0.9l10.4,6L1108.9,1138.3z M1093.5,1129.4l-10.4-6l0.5-0.9l10.4,6L1093.5,1129.4z M1078,1120.5
			l-10.4-6l0.5-0.9l10.4,6L1078,1120.5z M1062.5,1111.5l-10.4-6l0.5-0.9l10.4,6L1062.5,1111.5z M1047,1102.6l-10.4-6l0.5-0.9l10.4,6
			L1047,1102.6z M1031.6,1093.7l-10.4-6l0.5-0.9l10.4,6L1031.6,1093.7z M1016.1,1084.7l-10.4-6l0.5-0.9l10.4,6L1016.1,1084.7z
			 M1000.6,1075.8l-10.4-6l0.5-0.9l10.4,6L1000.6,1075.8z M985.2,1066.9l-10.4-6l0.5-0.9l10.4,6L985.2,1066.9z M969.7,1057.9
			l-10.4-6l0.5-0.9l10.4,6L969.7,1057.9z M954.2,1049l-10.4-6l0.5-0.9l10.4,6L954.2,1049z M938.7,1040.1l-10.4-6l0.5-0.9l10.4,6
			L938.7,1040.1z M923.3,1031.1l-10.4-6l0.5-0.9l10.4,6L923.3,1031.1z M907.8,1022.2l-10.4-6l0.5-0.9l10.4,6L907.8,1022.2z
			 M892.3,1013.3l-10.4-6l0.5-0.9l10.4,6L892.3,1013.3z M876.9,1004.3l-10.4-6l0.5-0.9l10.4,6L876.9,1004.3z M861.4,995.4l-10.4-6
			l0.5-0.9l10.4,6L861.4,995.4z M845.9,986.5l-10.4-6l0.5-0.9l10.4,6L845.9,986.5z M830.4,977.5l-10.4-6l0.5-0.9l10.4,6L830.4,977.5
			z M815,968.6l-10.4-6l0.5-0.9l10.4,6L815,968.6z M799.5,959.7l-10.4-6l0.5-0.9l10.4,6L799.5,959.7z M784,950.8l-10.4-6l0.5-0.9
			l10.4,6L784,950.8z M768.6,941.8l-10.4-6l0.5-0.9l10.4,6L768.6,941.8z M753.1,932.9l-10.4-6l0.5-0.9l10.4,6L753.1,932.9z
			 M737.6,924l-10.4-6l0.5-0.9l10.4,6L737.6,924z M722.1,915l-10.4-6l0.5-0.9l10.4,6L722.1,915z M706.7,906.1l-10.4-6l0.5-0.9
			l10.4,6L706.7,906.1z M691.2,897.2l-10.4-6l0.5-0.9l10.4,6L691.2,897.2z M675.7,888.2l-10.4-6l0.5-0.9l10.4,6L675.7,888.2z
			 M660.3,879.3l-10.4-6l0.5-0.9l10.4,6L660.3,879.3z M644.8,870.4l-10.4-6l0.5-0.9l10.4,6L644.8,870.4z M629.3,861.4l-10.4-6
			l0.5-0.9l10.4,6L629.3,861.4z M613.8,852.5l-10.4-6l0.5-0.9l10.4,6L613.8,852.5z M598.4,843.6l-10.4-6l0.5-0.9l10.4,6L598.4,843.6
			z M582.9,834.6l-10.4-6l0.5-0.9l10.4,6L582.9,834.6z M567.4,825.7l-10.4-6l0.5-0.9l10.4,6L567.4,825.7z M551.9,816.8l-10.4-6
			l0.5-0.9l10.4,6L551.9,816.8z M536.5,807.8l-10.4-6l0.5-0.9l10.4,6L536.5,807.8z M521,798.9l-10.4-6l0.5-0.9l10.4,6L521,798.9z
			 M505.5,790l-10.4-6l0.5-0.9l10.4,6L505.5,790z M490.1,781l-10.4-6l0.5-0.9l10.4,6L490.1,781z M474.6,772.1l-10.4-6l0.5-0.9
			l10.4,6L474.6,772.1z M459.1,763.2l-10.4-6l0.5-0.9l10.4,6L459.1,763.2z M443.6,754.2l-10.4-6l0.5-0.9l10.4,6L443.6,754.2z
			 M428.2,745.3l-10.4-6l0.5-0.9l10.4,6L428.2,745.3z M412.7,736.4l-10.4-6l0.5-0.9l10.4,6L412.7,736.4z M397.2,727.4l-10.4-6
			l0.5-0.9l10.4,6L397.2,727.4z M381.8,718.5l-10.4-6l0.5-0.9l10.4,6L381.8,718.5z M366.3,709.6l-10.4-6l0.5-0.9l10.4,6L366.3,709.6
			z M350.8,700.6l-10.4-6l0.5-0.9l10.4,6L350.8,700.6z M335.3,691.7l-10.4-6l0.5-0.9l10.4,6L335.3,691.7z M319.9,682.8l-10.4-6
			l0.5-0.9l10.4,6L319.9,682.8z M304.4,673.8l-10.4-6l0.5-0.9l10.4,6L304.4,673.8z M288.9,664.9l-10.4-6l0.5-0.9l10.4,6L288.9,664.9
			z M273.5,656l-10.4-6l0.5-0.9l10.4,6L273.5,656z M258,647l-10.4-6l0.5-0.9l10.4,6L258,647z M242.5,638.1l-10.4-6l0.5-0.9l10.4,6
			L242.5,638.1z M227,629.2l-10.4-6l0.5-0.9l10.4,6L227,629.2z M211.6,620.2l-10.4-6l0.5-0.9l10.4,6L211.6,620.2z M196.1,611.3
			l-10.4-6l0.5-0.9l10.4,6L196.1,611.3z M180.6,602.4l-10.4-6l0.5-0.9l10.4,6L180.6,602.4z M165.1,593.4l-10.4-6l0.5-0.9l10.4,6
			L165.1,593.4z M149.7,584.5l-10.4-6l0.5-0.9l10.4,6L149.7,584.5z M134.2,575.6l-10.4-6l0.5-0.9l10.4,6L134.2,575.6z M118.7,566.6
			l-10.4-6l0.5-0.9l10.4,6L118.7,566.6z M103.3,557.7l-10.4-6l0.5-0.9l10.4,6L103.3,557.7z M87.8,548.8l-10.4-6l0.5-0.9l10.4,6
			L87.8,548.8z M72.3,539.8l-10.4-6l0.5-0.9l10.4,6L72.3,539.8z M56.8,530.9l-10.4-6l0.5-0.9l10.4,6L56.8,530.9z M41.4,522l-10.4-6
			l0.5-0.9l10.4,6L41.4,522z M25.9,513l-10.4-6l0.5-0.9l10.4,6L25.9,513z M10.4,504.1l-10.4-6l0.5-0.9l10.4,6L10.4,504.1z"/>
		<rect x="1156.9" y="1162.5" transform="matrix(0.5 -0.866 0.866 0.5 -430.6806 1585.0811)" class="st0" width="1" height="6"/>
		<path class="st0" d="M932.6,863.1l-10.4-6l0.5-0.9l10.4,6L932.6,863.1z M917.2,854.2l-10.4-6l0.5-0.9l10.4,6L917.2,854.2z
			 M901.9,845.4l-10.4-6l0.5-0.9l10.4,6L901.9,845.4z M886.5,836.5l-10.4-6l0.5-0.9l10.4,6L886.5,836.5z M871.1,827.6l-10.4-6
			l0.5-0.9l10.4,6L871.1,827.6z M855.7,818.7l-10.4-6l0.5-0.9l10.4,6L855.7,818.7z M840.4,809.9l-10.4-6l0.5-0.9l10.4,6L840.4,809.9
			z M825,801l-10.4-6l0.5-0.9l10.4,6L825,801z M809.6,792.1l-10.4-6l0.5-0.9l10.4,6L809.6,792.1z M794.2,783.2l-10.4-6l0.5-0.9
			l10.4,6L794.2,783.2z M778.9,774.3l-10.4-6l0.5-0.9l10.4,6L778.9,774.3z M763.5,765.5l-10.4-6l0.5-0.9l10.4,6L763.5,765.5z
			 M748.1,756.6l-10.4-6l0.5-0.9l10.4,6L748.1,756.6z M732.8,747.7l-10.4-6l0.5-0.9l10.4,6L732.8,747.7z M717.4,738.8l-10.4-6
			l0.5-0.9l10.4,6L717.4,738.8z M702,730l-10.4-6l0.5-0.9l10.4,6L702,730z M686.6,721.1l-10.4-6l0.5-0.9l10.4,6L686.6,721.1z
			 M671.3,712.2l-10.4-6l0.5-0.9l10.4,6L671.3,712.2z M655.9,703.3l-10.4-6l0.5-0.9l10.4,6L655.9,703.3z M640.5,694.5l-10.4-6
			l0.5-0.9l10.4,6L640.5,694.5z M625.1,685.6l-10.4-6l0.5-0.9l10.4,6L625.1,685.6z M609.8,676.7l-10.4-6l0.5-0.9l10.4,6L609.8,676.7
			z M594.4,667.8l-10.4-6l0.5-0.9l10.4,6L594.4,667.8z M579,659l-10.4-6l0.5-0.9l10.4,6L579,659z M563.6,650.1l-10.4-6l0.5-0.9
			l10.4,6L563.6,650.1z M548.3,641.2l-10.4-6l0.5-0.9l10.4,6L548.3,641.2z M532.9,632.3l-10.4-6l0.5-0.9l10.4,6L532.9,632.3z
			 M517.5,623.5l-10.4-6l0.5-0.9l10.4,6L517.5,623.5z M502.1,614.6l-10.4-6l0.5-0.9l10.4,6L502.1,614.6z M486.8,605.7l-10.4-6
			l0.5-0.9l10.4,6L486.8,605.7z M471.4,596.8l-10.4-6l0.5-0.9l10.4,6L471.4,596.8z M456,588l-10.4-6l0.5-0.9l10.4,6L456,588z
			 M440.7,579.1l-10.4-6l0.5-0.9l10.4,6L440.7,579.1z M425.3,570.2l-10.4-6l0.5-0.9l10.4,6L425.3,570.2z M409.9,561.3l-10.4-6
			l0.5-0.9l10.4,6L409.9,561.3z M394.5,552.4l-10.4-6l0.5-0.9l10.4,6L394.5,552.4z M379.2,543.6l-10.4-6l0.5-0.9l10.4,6L379.2,543.6
			z M363.8,534.7l-10.4-6l0.5-0.9l10.4,6L363.8,534.7z M348.4,525.8l-10.4-6l0.5-0.9l10.4,6L348.4,525.8z M333,516.9l-10.4-6
			l0.5-0.9l10.4,6L333,516.9z M317.7,508.1l-10.4-6l0.5-0.9l10.4,6L317.7,508.1z M302.3,499.2l-10.4-6l0.5-0.9l10.4,6L302.3,499.2z
			 M286.9,490.3l-10.4-6l0.5-0.9l10.4,6L286.9,490.3z M271.5,481.4l-10.4-6l0.5-0.9l10.4,6L271.5,481.4z M256.2,472.6l-10.4-6
			l0.5-0.9l10.4,6L256.2,472.6z M240.8,463.7l-10.4-6l0.5-0.9l10.4,6L240.8,463.7z M225.4,454.8l-10.4-6l0.5-0.9l10.4,6L225.4,454.8
			z M210,445.9l-10.4-6l0.5-0.9l10.4,6L210,445.9z M194.7,437.1l-10.4-6l0.5-0.9l10.4,6L194.7,437.1z M179.3,428.2l-10.4-6l0.5-0.9
			l10.4,6L179.3,428.2z M163.9,419.3l-10.4-6l0.5-0.9l10.4,6L163.9,419.3z M148.6,410.4l-10.4-6l0.5-0.9l10.4,6L148.6,410.4z
			 M133.2,401.6l-10.4-6l0.5-0.9l10.4,6L133.2,401.6z M117.8,392.7l-10.4-6l0.5-0.9l10.4,6L117.8,392.7z M102.4,383.8l-10.4-6
			l0.5-0.9l10.4,6L102.4,383.8z M87.1,374.9l-10.4-6l0.5-0.9l10.4,6L87.1,374.9z M71.7,366l-10.4-6l0.5-0.9l10.4,6L71.7,366z
			 M56.3,357.2l-10.4-6l0.5-0.9l10.4,6L56.3,357.2z M40.9,348.3l-10.4-6l0.5-0.9l10.4,6L40.9,348.3z M25.6,339.4l-10.4-6l0.5-0.9
			l10.4,6L25.6,339.4z M10.2,330.5l-10.4-6l0.5-0.9l10.4,6L10.2,330.5z"/>
		<rect x="940" y="864.1" transform="matrix(0.5 -0.866 0.866 0.5 -280.6616 1248.0217)" class="st0" width="1" height="6"/>
		<path class="st0" d="M550.5,1319.9l-10.4-6l0.5-0.9l10.4,6L550.5,1319.9z M535.1,1311l-10.4-6l0.5-0.9l10.4,6L535.1,1311z
			 M519.7,1302.1l-10.4-6l0.5-0.9l10.4,6L519.7,1302.1z M504.3,1293.2l-10.4-6l0.5-0.9l10.4,6L504.3,1293.2z M488.9,1284.3l-10.4-6
			l0.5-0.9l10.4,6L488.9,1284.3z M473.5,1275.4l-10.4-6l0.5-0.9l10.4,6L473.5,1275.4z M458.1,1266.5l-10.4-6l0.5-0.9l10.4,6
			L458.1,1266.5z M442.7,1257.7l-10.4-6l0.5-0.9l10.4,6L442.7,1257.7z M427.3,1248.8l-10.4-6l0.5-0.9l10.4,6L427.3,1248.8z
			 M411.9,1239.9l-10.4-6l0.5-0.9l10.4,6L411.9,1239.9z M396.5,1231l-10.4-6l0.5-0.9l10.4,6L396.5,1231z M381.1,1222.1l-10.4-6
			l0.5-0.9l10.4,6L381.1,1222.1z M365.7,1213.2l-10.4-6l0.5-0.9l10.4,6L365.7,1213.2z M350.3,1204.3l-10.4-6l0.5-0.9l10.4,6
			L350.3,1204.3z M334.9,1195.4l-10.4-6l0.5-0.9l10.4,6L334.9,1195.4z M319.5,1186.5l-10.4-6l0.5-0.9l10.4,6L319.5,1186.5z
			 M304.1,1177.6l-10.4-6l0.5-0.9l10.4,6L304.1,1177.6z M288.7,1168.8l-10.4-6l0.5-0.9l10.4,6L288.7,1168.8z M273.3,1159.9l-10.4-6
			l0.5-0.9l10.4,6L273.3,1159.9z M257.9,1151l-10.4-6l0.5-0.9l10.4,6L257.9,1151z M242.5,1142.1l-10.4-6l0.5-0.9l10.4,6
			L242.5,1142.1z M227.1,1133.2l-10.4-6l0.5-0.9l10.4,6L227.1,1133.2z M211.7,1124.3l-10.4-6l0.5-0.9l10.4,6L211.7,1124.3z
			 M196.3,1115.4l-10.4-6l0.5-0.9l10.4,6L196.3,1115.4z M180.9,1106.5l-10.4-6l0.5-0.9l10.4,6L180.9,1106.5z M165.5,1097.6l-10.4-6
			l0.5-0.9l10.4,6L165.5,1097.6z M150.1,1088.7l-10.4-6l0.5-0.9l10.4,6L150.1,1088.7z M134.7,1079.8l-10.4-6l0.5-0.9l10.4,6
			L134.7,1079.8z M119.3,1071l-10.4-6l0.5-0.9l10.4,6L119.3,1071z M103.9,1062.1l-10.4-6l0.5-0.9l10.4,6L103.9,1062.1z M88.5,1053.2
			l-10.4-6l0.5-0.9l10.4,6L88.5,1053.2z M73.1,1044.3l-10.4-6l0.5-0.9l10.4,6L73.1,1044.3z M57.7,1035.4l-10.4-6l0.5-0.9l10.4,6
			L57.7,1035.4z M42.3,1026.5l-10.4-6l0.5-0.9l10.4,6L42.3,1026.5z M26.9,1017.6l-10.4-6l0.5-0.9l10.4,6L26.9,1017.6z M11.5,1008.7
			l-10.4-6l0.5-0.9l10.4,6L11.5,1008.7z"/>
		<rect x="554.2" y="1319.2" transform="matrix(0.5 -0.866 0.866 0.5 -867.7117 1141.4689)" class="st0" width="1" height="6"/>
		<path class="st0" d="M1062.2,1329.5l-10.4-6l0.5-0.9l10.4,6L1062.2,1329.5z M1046.7,1320.6l-10.4-6l0.5-0.9l10.4,6L1046.7,1320.6z
			 M1031.3,1311.7l-10.4-6l0.5-0.9l10.4,6L1031.3,1311.7z M1015.8,1302.8l-10.4-6l0.5-0.9l10.4,6L1015.8,1302.8z M1000.4,1293.8
			l-10.4-6l0.5-0.9l10.4,6L1000.4,1293.8z M984.9,1284.9l-10.4-6l0.5-0.9l10.4,6L984.9,1284.9z M969.4,1276l-10.4-6l0.5-0.9l10.4,6
			L969.4,1276z M954,1267.1l-10.4-6l0.5-0.9l10.4,6L954,1267.1z M938.5,1258.1l-10.4-6l0.5-0.9l10.4,6L938.5,1258.1z M923.1,1249.2
			l-10.4-6l0.5-0.9l10.4,6L923.1,1249.2z M907.6,1240.3l-10.4-6l0.5-0.9l10.4,6L907.6,1240.3z M892.2,1231.4l-10.4-6l0.5-0.9l10.4,6
			L892.2,1231.4z M876.7,1222.4l-10.4-6l0.5-0.9l10.4,6L876.7,1222.4z M861.2,1213.5l-10.4-6l0.5-0.9l10.4,6L861.2,1213.5z
			 M845.8,1204.6l-10.4-6l0.5-0.9l10.4,6L845.8,1204.6z M830.3,1195.7l-10.4-6l0.5-0.9l10.4,6L830.3,1195.7z M814.9,1186.8l-10.4-6
			l0.5-0.9l10.4,6L814.9,1186.8z M799.4,1177.8l-10.4-6l0.5-0.9l10.4,6L799.4,1177.8z M783.9,1168.9l-10.4-6l0.5-0.9l10.4,6
			L783.9,1168.9z M768.5,1160l-10.4-6l0.5-0.9l10.4,6L768.5,1160z M753,1151.1l-10.4-6l0.5-0.9l10.4,6L753,1151.1z M737.6,1142.1
			l-10.4-6l0.5-0.9l10.4,6L737.6,1142.1z M722.1,1133.2l-10.4-6l0.5-0.9l10.4,6L722.1,1133.2z M706.7,1124.3l-10.4-6l0.5-0.9l10.4,6
			L706.7,1124.3z M691.2,1115.4l-10.4-6l0.5-0.9l10.4,6L691.2,1115.4z M675.7,1106.4l-10.4-6l0.5-0.9l10.4,6L675.7,1106.4z
			 M660.3,1097.5l-10.4-6l0.5-0.9l10.4,6L660.3,1097.5z M644.8,1088.6l-10.4-6l0.5-0.9l10.4,6L644.8,1088.6z M629.4,1079.7l-10.4-6
			l0.5-0.9l10.4,6L629.4,1079.7z M613.9,1070.7l-10.4-6l0.5-0.9l10.4,6L613.9,1070.7z M598.5,1061.8l-10.4-6l0.5-0.9l10.4,6
			L598.5,1061.8z M583,1052.9l-10.4-6l0.5-0.9l10.4,6L583,1052.9z M567.5,1044l-10.4-6l0.5-0.9l10.4,6L567.5,1044z M552.1,1035
			l-10.4-6l0.5-0.9l10.4,6L552.1,1035z M536.6,1026.1l-10.4-6l0.5-0.9l10.4,6L536.6,1026.1z M521.2,1017.2l-10.4-6l0.5-0.9l10.4,6
			L521.2,1017.2z M505.7,1008.3l-10.4-6l0.5-0.9l10.4,6L505.7,1008.3z M490.3,999.3l-10.4-6l0.5-0.9l10.4,6L490.3,999.3z
			 M474.8,990.4l-10.4-6l0.5-0.9l10.4,6L474.8,990.4z M459.3,981.5l-10.4-6l0.5-0.9l10.4,6L459.3,981.5z M443.9,972.6l-10.4-6
			l0.5-0.9l10.4,6L443.9,972.6z M428.4,963.6l-10.4-6l0.5-0.9l10.4,6L428.4,963.6z M413,954.7l-10.4-6l0.5-0.9l10.4,6L413,954.7z
			 M397.5,945.8l-10.4-6l0.5-0.9l10.4,6L397.5,945.8z M382.1,936.9l-10.4-6l0.5-0.9l10.4,6L382.1,936.9z M366.6,927.9l-10.4-6
			l0.5-0.9l10.4,6L366.6,927.9z M351.1,919l-10.4-6l0.5-0.9l10.4,6L351.1,919z M335.7,910.1l-10.4-6l0.5-0.9l10.4,6L335.7,910.1z
			 M320.2,901.2l-10.4-6l0.5-0.9l10.4,6L320.2,901.2z M304.8,892.2l-10.4-6l0.5-0.9l10.4,6L304.8,892.2z M289.3,883.3l-10.4-6
			l0.5-0.9l10.4,6L289.3,883.3z M273.8,874.4l-10.4-6l0.5-0.9l10.4,6L273.8,874.4z M258.4,865.5l-10.4-6l0.5-0.9l10.4,6L258.4,865.5
			z M242.9,856.5l-10.4-6l0.5-0.9l10.4,6L242.9,856.5z M227.5,847.6l-10.4-6l0.5-0.9l10.4,6L227.5,847.6z M212,838.7l-10.4-6
			l0.5-0.9l10.4,6L212,838.7z M196.6,829.8l-10.4-6l0.5-0.9l10.4,6L196.6,829.8z M181.1,820.8l-10.4-6l0.5-0.9l10.4,6L181.1,820.8z
			 M165.6,811.9l-10.4-6l0.5-0.9l10.4,6L165.6,811.9z M150.2,803l-10.4-6l0.5-0.9l10.4,6L150.2,803z M134.7,794.1l-10.4-6l0.5-0.9
			l10.4,6L134.7,794.1z M119.3,785.2l-10.4-6l0.5-0.9l10.4,6L119.3,785.2z M103.8,776.2l-10.4-6l0.5-0.9l10.4,6L103.8,776.2z
			 M88.4,767.3l-10.4-6l0.5-0.9l10.4,6L88.4,767.3z M72.9,758.4l-10.4-6l0.5-0.9l10.4,6L72.9,758.4z M57.4,749.5l-10.4-6l0.5-0.9
			l10.4,6L57.4,749.5z M42,740.5l-10.4-6l0.5-0.9l10.4,6L42,740.5z M26.5,731.6l-10.4-6l0.5-0.9l10.4,6L26.5,731.6z M11.1,722.7
			l-10.4-6l0.5-0.9l10.4,6L11.1,722.7z"/>
		<path class="st0" d="M203.7,1334.6h-1v-12h1V1334.6z M203.7,1316.8h-1v-12h1V1316.8z M203.7,1299h-1v-12h1V1299z M203.7,1281.2h-1
			v-12h1V1281.2z M203.7,1263.4h-1v-12h1V1263.4z M203.7,1245.6h-1v-12h1V1245.6z M203.7,1227.8h-1v-12h1V1227.8z M203.7,1210h-1
			v-12h1V1210z M203.7,1192.2h-1v-12h1V1192.2z M203.7,1174.4h-1v-12h1V1174.4z M203.7,1156.6h-1v-12h1V1156.6z M203.7,1138.8h-1
			v-12h1V1138.8z M203.7,1121h-1v-12h1V1121z M203.7,1103.2h-1v-12h1V1103.2z M203.7,1085.4h-1v-12h1V1085.4z M203.7,1067.6h-1v-12
			h1V1067.6z M203.7,1049.8h-1v-12h1V1049.8z M203.7,1032h-1v-12h1V1032z M203.7,1014.2h-1v-12h1V1014.2z M203.7,996.4h-1v-12h1
			V996.4z M203.7,978.6h-1v-12h1V978.6z M203.7,960.8h-1v-12h1V960.8z M203.7,943h-1v-12h1V943z M203.7,925.2h-1v-12h1V925.2z
			 M203.7,907.4h-1v-12h1V907.4z M203.7,889.6h-1v-12h1V889.6z M203.7,871.8h-1v-12h1V871.8z M203.7,854h-1v-12h1V854z M203.7,836.2
			h-1v-12h1V836.2z M203.7,818.4h-1v-12h1V818.4z M203.7,800.6h-1v-12h1V800.6z M203.7,782.8h-1v-12h1V782.8z M203.7,765h-1v-12h1
			V765z M203.7,747.2h-1v-12h1V747.2z M203.7,729.4h-1v-12h1V729.4z M203.7,711.6h-1v-12h1V711.6z M203.7,693.8h-1v-12h1V693.8z
			 M203.7,676h-1v-12h1V676z M203.7,658.2h-1v-12h1V658.2z M203.7,640.4h-1v-12h1V640.4z M203.7,622.6h-1v-12h1V622.6z M203.7,604.8
			h-1v-12h1V604.8z M203.7,587h-1v-12h1V587z M203.7,569.2h-1v-12h1V569.2z M203.7,551.4h-1v-12h1V551.4z M203.7,533.6h-1v-12h1
			V533.6z M203.7,515.8h-1v-12h1V515.8z M203.7,498h-1v-12h1V498z M203.7,480.2h-1v-12h1V480.2z M203.7,462.4h-1v-12h1V462.4z
			 M203.7,444.6h-1v-12h1V444.6z M203.7,426.8h-1v-12h1V426.8z M203.7,409h-1v-12h1V409z M203.7,391.2h-1v-12h1V391.2z M203.7,373.4
			h-1v-12h1V373.4z M203.7,355.6h-1v-12h1V355.6z M203.7,337.8h-1v-12h1V337.8z M203.7,320h-1v-12h1V320z M203.7,302.2h-1v-12h1
			V302.2z M203.7,284.4h-1v-12h1V284.4z M203.7,266.6h-1v-12h1V266.6z M203.7,248.8h-1v-12h1V248.8z M203.7,231h-1v-12h1V231z
			 M203.7,213.2h-1v-12h1V213.2z M203.7,195.4h-1v-12h1V195.4z M203.7,177.6h-1v-12h1V177.6z M203.7,159.8h-1v-12h1V159.8z
			 M203.7,142h-1v-12h1V142z M203.7,124.2h-1v-12h1V124.2z M203.7,106.4h-1v-12h1V106.4z M203.7,88.6h-1v-12h1V88.6z M203.7,70.8h-1
			v-12h1V70.8z M203.7,53h-1V41h1V53z"/>
	</g>
</g>
<g id="grey">
	<g>
		<path class="st1" d="M1014,891.3l-10.4-6l0.5-0.9l10.4,6L1014,891.3z M998.6,882.4l-10.4-6l0.5-0.9l10.4,6L998.6,882.4z
			 M983.1,873.5l-10.4-6l0.5-0.9l10.4,6L983.1,873.5z M967.7,864.6l-10.4-6l0.5-0.9l10.4,6L967.7,864.6z M952.2,855.6l-10.4-6
			l0.5-0.9l10.4,6L952.2,855.6z M936.8,846.7l-10.4-6l0.5-0.9l10.4,6L936.8,846.7z M921.4,837.8l-10.4-6l0.5-0.9l10.4,6L921.4,837.8
			z M905.9,828.9l-10.4-6l0.5-0.9l10.4,6L905.9,828.9z M890.5,820l-10.4-6l0.5-0.9l10.4,6L890.5,820z M875,811.1l-10.4-6l0.5-0.9
			l10.4,6L875,811.1z M859.6,802.2l-10.4-6l0.5-0.9l10.4,6L859.6,802.2z M844.2,793.2l-10.4-6l0.5-0.9l10.4,6L844.2,793.2z
			 M828.7,784.3l-10.4-6l0.5-0.9l10.4,6L828.7,784.3z M813.3,775.4l-10.4-6l0.5-0.9l10.4,6L813.3,775.4z M797.8,766.5l-10.4-6
			l0.5-0.9l10.4,6L797.8,766.5z M782.4,757.6l-10.4-6l0.5-0.9l10.4,6L782.4,757.6z M767,748.7l-10.4-6l0.5-0.9l10.4,6L767,748.7z
			 M751.5,739.8l-10.4-6l0.5-0.9l10.4,6L751.5,739.8z M736.1,730.8l-10.4-6l0.5-0.9l10.4,6L736.1,730.8z M720.6,721.9l-10.4-6
			l0.5-0.9l10.4,6L720.6,721.9z M705.2,713l-10.4-6l0.5-0.9l10.4,6L705.2,713z M689.8,704.1l-10.4-6l0.5-0.9l10.4,6L689.8,704.1z
			 M674.3,695.2l-10.4-6l0.5-0.9l10.4,6L674.3,695.2z M658.9,686.3l-10.4-6l0.5-0.9l10.4,6L658.9,686.3z M643.4,677.4l-10.4-6
			l0.5-0.9l10.4,6L643.4,677.4z M628,668.4l-10.4-6l0.5-0.9l10.4,6L628,668.4z M612.6,659.5l-10.4-6l0.5-0.9l10.4,6L612.6,659.5z
			 M597.1,650.6l-10.4-6l0.5-0.9l10.4,6L597.1,650.6z M581.7,641.7l-10.4-6l0.5-0.9l10.4,6L581.7,641.7z M566.2,632.8l-10.4-6
			l0.5-0.9l10.4,6L566.2,632.8z M550.8,623.9l-10.4-6l0.5-0.9l10.4,6L550.8,623.9z M535.4,615l-10.4-6l0.5-0.9l10.4,6L535.4,615z
			 M519.9,606l-10.4-6l0.5-0.9l10.4,6L519.9,606z M504.5,597.1l-10.4-6l0.5-0.9l10.4,6L504.5,597.1z M489,588.2l-10.4-6l0.5-0.9
			l10.4,6L489,588.2z M473.6,579.3l-10.4-6l0.5-0.9l10.4,6L473.6,579.3z M458.2,570.4l-10.4-6l0.5-0.9l10.4,6L458.2,570.4z
			 M442.7,561.5l-10.4-6l0.5-0.9l10.4,6L442.7,561.5z M427.3,552.6l-10.4-6l0.5-0.9l10.4,6L427.3,552.6z M411.8,543.6l-10.4-6
			l0.5-0.9l10.4,6L411.8,543.6z M396.4,534.7l-10.4-6l0.5-0.9l10.4,6L396.4,534.7z M381,525.8l-10.4-6l0.5-0.9l10.4,6L381,525.8z
			 M365.5,516.9l-10.4-6l0.5-0.9l10.4,6L365.5,516.9z M350.1,508l-10.4-6l0.5-0.9l10.4,6L350.1,508z M334.6,499.1l-10.4-6l0.5-0.9
			l10.4,6L334.6,499.1z M319.2,490.2l-10.4-6l0.5-0.9l10.4,6L319.2,490.2z M303.8,481.2l-10.4-6l0.5-0.9l10.4,6L303.8,481.2z
			 M288.3,472.3l-10.4-6l0.5-0.9l10.4,6L288.3,472.3z M272.9,463.4l-10.4-6l0.5-0.9l10.4,6L272.9,463.4z M257.4,454.5l-10.4-6
			l0.5-0.9l10.4,6L257.4,454.5z M242,445.6l-10.4-6l0.5-0.9l10.4,6L242,445.6z M226.6,436.7l-10.4-6l0.5-0.9l10.4,6L226.6,436.7z
			 M211.1,427.8l-10.4-6l0.5-0.9l10.4,6L211.1,427.8z M195.7,418.8l-10.4-6l0.5-0.9l10.4,6L195.7,418.8z M180.2,409.9l-10.4-6
			l0.5-0.9l10.4,6L180.2,409.9z M164.8,401l-10.4-6l0.5-0.9l10.4,6L164.8,401z M149.4,392.1l-10.4-6l0.5-0.9l10.4,6L149.4,392.1z
			 M133.9,383.2l-10.4-6l0.5-0.9l10.4,6L133.9,383.2z M118.5,374.3l-10.4-6l0.5-0.9l10.4,6L118.5,374.3z M103,365.4l-10.4-6l0.5-0.9
			l10.4,6L103,365.4z M87.6,356.4l-10.4-6l0.5-0.9l10.4,6L87.6,356.4z M72.2,347.5l-10.4-6l0.5-0.9l10.4,6L72.2,347.5z M56.7,338.6
			l-10.4-6l0.5-0.9l10.4,6L56.7,338.6z M41.3,329.7l-10.4-6l0.5-0.9l10.4,6L41.3,329.7z M25.8,320.8l-10.4-6l0.5-0.9l10.4,6
			L25.8,320.8z M10.4,311.9l-10.4-6l0.5-0.9l10.4,6L10.4,311.9z"/>
		<rect x="1021.4" y="892.3" transform="matrix(0.5 -0.866 0.866 0.5 -264.383 1332.6205)" class="st1" width="1" height="6"/>
	</g>
	<g>
		<path class="st1" d="M902.2,981l-10.4-6l0.5-0.9l10.4,6L902.2,981z M886.9,972.2l-10.4-6l0.5-0.9l10.4,6L886.9,972.2z
			 M871.5,963.3l-10.4-6l0.5-0.9l10.4,6L871.5,963.3z M856.2,954.4l-10.4-6l0.5-0.9l10.4,6L856.2,954.4z M840.8,945.5l-10.4-6
			l0.5-0.9l10.4,6L840.8,945.5z M825.4,936.7l-10.4-6l0.5-0.9l10.4,6L825.4,936.7z M810.1,927.8l-10.4-6l0.5-0.9l10.4,6L810.1,927.8
			z M794.7,918.9l-10.4-6l0.5-0.9l10.4,6L794.7,918.9z M779.4,910.1l-10.4-6l0.5-0.9l10.4,6L779.4,910.1z M764,901.2l-10.4-6
			l0.5-0.9l10.4,6L764,901.2z M748.6,892.3l-10.4-6l0.5-0.9l10.4,6L748.6,892.3z M733.3,883.5l-10.4-6l0.5-0.9l10.4,6L733.3,883.5z
			 M717.9,874.6l-10.4-6l0.5-0.9l10.4,6L717.9,874.6z M702.6,865.7l-10.4-6l0.5-0.9l10.4,6L702.6,865.7z M687.2,856.9l-10.4-6
			l0.5-0.9l10.4,6L687.2,856.9z M671.8,848l-10.4-6l0.5-0.9l10.4,6L671.8,848z M656.5,839.1l-10.4-6l0.5-0.9l10.4,6L656.5,839.1z
			 M641.1,830.3l-10.4-6l0.5-0.9l10.4,6L641.1,830.3z M625.8,821.4l-10.4-6l0.5-0.9l10.4,6L625.8,821.4z M610.4,812.5l-10.4-6
			l0.5-0.9l10.4,6L610.4,812.5z M595,803.7l-10.4-6l0.5-0.9l10.4,6L595,803.7z M579.7,794.8l-10.4-6l0.5-0.9l10.4,6L579.7,794.8z
			 M564.3,785.9l-10.4-6l0.5-0.9l10.4,6L564.3,785.9z M549,777.1l-10.4-6l0.5-0.9l10.4,6L549,777.1z M533.6,768.2l-10.4-6l0.5-0.9
			l10.4,6L533.6,768.2z M518.2,759.3l-10.4-6l0.5-0.9l10.4,6L518.2,759.3z M502.9,750.5l-10.4-6l0.5-0.9l10.4,6L502.9,750.5z
			 M487.5,741.6l-10.4-6l0.5-0.9l10.4,6L487.5,741.6z M472.2,732.7l-10.4-6l0.5-0.9l10.4,6L472.2,732.7z M456.8,723.8l-10.4-6
			l0.5-0.9l10.4,6L456.8,723.8z M441.4,715l-10.4-6l0.5-0.9l10.4,6L441.4,715z M426.1,706.1l-10.4-6l0.5-0.9l10.4,6L426.1,706.1z
			 M410.7,697.2l-10.4-6l0.5-0.9l10.4,6L410.7,697.2z M395.4,688.4l-10.4-6l0.5-0.9l10.4,6L395.4,688.4z M380,679.5l-10.4-6l0.5-0.9
			l10.4,6L380,679.5z M364.6,670.6l-10.4-6l0.5-0.9l10.4,6L364.6,670.6z M349.3,661.8l-10.4-6l0.5-0.9l10.4,6L349.3,661.8z
			 M333.9,652.9l-10.4-6l0.5-0.9l10.4,6L333.9,652.9z M318.6,644l-10.4-6l0.5-0.9l10.4,6L318.6,644z M303.2,635.2l-10.4-6l0.5-0.9
			l10.4,6L303.2,635.2z M287.8,626.3l-10.4-6l0.5-0.9l10.4,6L287.8,626.3z M272.5,617.4l-10.4-6l0.5-0.9l10.4,6L272.5,617.4z
			 M257.1,608.6l-10.4-6l0.5-0.9l10.4,6L257.1,608.6z M241.8,599.7l-10.4-6l0.5-0.9l10.4,6L241.8,599.7z M226.4,590.8l-10.4-6
			l0.5-0.9l10.4,6L226.4,590.8z M211,582l-10.4-6l0.5-0.9l10.4,6L211,582z M195.7,573.1l-10.4-6l0.5-0.9l10.4,6L195.7,573.1z
			 M180.3,564.2l-10.4-6l0.5-0.9l10.4,6L180.3,564.2z M165,555.4l-10.4-6l0.5-0.9l10.4,6L165,555.4z M149.6,546.5l-10.4-6l0.5-0.9
			l10.4,6L149.6,546.5z M134.2,537.6l-10.4-6l0.5-0.9l10.4,6L134.2,537.6z M118.9,528.8l-10.4-6l0.5-0.9l10.4,6L118.9,528.8z
			 M103.5,519.9l-10.4-6l0.5-0.9l10.4,6L103.5,519.9z M88.2,511l-10.4-6l0.5-0.9l10.4,6L88.2,511z M72.8,502.1l-10.4-6l0.5-0.9
			l10.4,6L72.8,502.1z M57.4,493.3l-10.4-6l0.5-0.9l10.4,6L57.4,493.3z M42.1,484.4l-10.4-6l0.5-0.9l10.4,6L42.1,484.4z M26.7,475.5
			l-10.4-6l0.5-0.9l10.4,6L26.7,475.5z M11.4,466.7l-10.4-6l0.5-0.9l10.4,6L11.4,466.7z"/>
		<rect x="909.6" y="982" transform="matrix(0.5001 -0.866 0.866 0.5001 -397.9906 1280.5585)" class="st1" width="1" height="6"/>
	</g>
	<g>
		<path class="st1" d="M1013.3,1157.2l-10.4-6l0.5-0.9l10.4,6L1013.3,1157.2z M997.9,1148.3l-10.4-6l0.5-0.9l10.4,6L997.9,1148.3z
			 M982.5,1139.4l-10.4-6l0.5-0.9l10.4,6L982.5,1139.4z M967,1130.5l-10.4-6l0.5-0.9l10.4,6L967,1130.5z M951.6,1121.6l-10.4-6
			l0.5-0.9l10.4,6L951.6,1121.6z M936.2,1112.7l-10.4-6l0.5-0.9l10.4,6L936.2,1112.7z M920.7,1103.8l-10.4-6l0.5-0.9l10.4,6
			L920.7,1103.8z M905.3,1094.9l-10.4-6l0.5-0.9l10.4,6L905.3,1094.9z M889.9,1086l-10.4-6l0.5-0.9l10.4,6L889.9,1086z
			 M874.4,1077.1l-10.4-6l0.5-0.9l10.4,6L874.4,1077.1z M859,1068.2l-10.4-6l0.5-0.9l10.4,6L859,1068.2z M843.6,1059.3l-10.4-6
			l0.5-0.9l10.4,6L843.6,1059.3z M828.2,1050.3l-10.4-6l0.5-0.9l10.4,6L828.2,1050.3z M812.7,1041.4l-10.4-6l0.5-0.9l10.4,6
			L812.7,1041.4z M797.3,1032.5l-10.4-6l0.5-0.9l10.4,6L797.3,1032.5z M781.9,1023.6l-10.4-6l0.5-0.9l10.4,6L781.9,1023.6z
			 M766.4,1014.7l-10.4-6l0.5-0.9l10.4,6L766.4,1014.7z M751,1005.8l-10.4-6l0.5-0.9l10.4,6L751,1005.8z M735.6,996.9l-10.4-6
			l0.5-0.9l10.4,6L735.6,996.9z M720.2,988l-10.4-6l0.5-0.9l10.4,6L720.2,988z M704.7,979.1l-10.4-6l0.5-0.9l10.4,6L704.7,979.1z
			 M689.3,970.2l-10.4-6l0.5-0.9l10.4,6L689.3,970.2z M673.9,961.3l-10.4-6l0.5-0.9l10.4,6L673.9,961.3z M658.4,952.4l-10.4-6
			l0.5-0.9l10.4,6L658.4,952.4z M643,943.4l-10.4-6l0.5-0.9l10.4,6L643,943.4z M627.6,934.5l-10.4-6l0.5-0.9l10.4,6L627.6,934.5z
			 M612.1,925.6l-10.4-6l0.5-0.9l10.4,6L612.1,925.6z M596.7,916.7l-10.4-6l0.5-0.9l10.4,6L596.7,916.7z M581.3,907.8l-10.4-6
			l0.5-0.9l10.4,6L581.3,907.8z M565.9,898.9l-10.4-6l0.5-0.9l10.4,6L565.9,898.9z M550.4,890l-10.4-6l0.5-0.9l10.4,6L550.4,890z
			 M535,881.1l-10.4-6l0.5-0.9l10.4,6L535,881.1z M519.6,872.2l-10.4-6l0.5-0.9l10.4,6L519.6,872.2z M504.1,863.3l-10.4-6l0.5-0.9
			l10.4,6L504.1,863.3z M488.7,854.4l-10.4-6l0.5-0.9l10.4,6L488.7,854.4z M473.3,845.5l-10.4-6l0.5-0.9l10.4,6L473.3,845.5z
			 M457.9,836.6l-10.4-6l0.5-0.9l10.4,6L457.9,836.6z M442.4,827.6l-10.4-6l0.5-0.9l10.4,6L442.4,827.6z M427,818.7l-10.4-6l0.5-0.9
			l10.4,6L427,818.7z M411.6,809.8l-10.4-6l0.5-0.9l10.4,6L411.6,809.8z M396.1,800.9l-10.4-6l0.5-0.9l10.4,6L396.1,800.9z
			 M380.7,792l-10.4-6l0.5-0.9l10.4,6L380.7,792z M365.3,783.1l-10.4-6l0.5-0.9l10.4,6L365.3,783.1z M349.8,774.2l-10.4-6l0.5-0.9
			l10.4,6L349.8,774.2z M334.4,765.3l-10.4-6l0.5-0.9l10.4,6L334.4,765.3z M319,756.4l-10.4-6l0.5-0.9l10.4,6L319,756.4z
			 M303.6,747.5l-10.4-6l0.5-0.9l10.4,6L303.6,747.5z M288.1,738.6l-10.4-6l0.5-0.9l10.4,6L288.1,738.6z M272.7,729.7l-10.4-6
			l0.5-0.9l10.4,6L272.7,729.7z M257.3,720.7l-10.4-6l0.5-0.9l10.4,6L257.3,720.7z M241.8,711.8l-10.4-6l0.5-0.9l10.4,6L241.8,711.8
			z M226.4,702.9l-10.4-6l0.5-0.9l10.4,6L226.4,702.9z M211,694l-10.4-6l0.5-0.9l10.4,6L211,694z M195.6,685.1l-10.4-6l0.5-0.9
			l10.4,6L195.6,685.1z M180.1,676.2l-10.4-6l0.5-0.9l10.4,6L180.1,676.2z M164.7,667.3l-10.4-6l0.5-0.9l10.4,6L164.7,667.3z
			 M149.3,658.4l-10.4-6l0.5-0.9l10.4,6L149.3,658.4z M133.8,649.5l-10.4-6l0.5-0.9l10.4,6L133.8,649.5z M118.4,640.6l-10.4-6
			l0.5-0.9l10.4,6L118.4,640.6z M103,631.7l-10.4-6l0.5-0.9l10.4,6L103,631.7z M87.5,622.8l-10.4-6l0.5-0.9l10.4,6L87.5,622.8z
			 M72.1,613.8l-10.4-6l0.5-0.9l10.4,6L72.1,613.8z M56.7,604.9l-10.4-6l0.5-0.9l10.4,6L56.7,604.9z M41.3,596l-10.4-6l0.5-0.9
			l10.4,6L41.3,596z M25.8,587.1l-10.4-6l0.5-0.9l10.4,6L25.8,587.1z M10.4,578.2l-10.4-6l0.5-0.9l10.4,6L10.4,578.2z"/>
		<rect x="1020.7" y="1158.2" transform="matrix(0.5 -0.866 0.866 0.5 -495.0448 1464.9965)" class="st1" width="1" height="6"/>
	</g>
	<g>
		<path class="st1" d="M901,1201.7l-10.4-6l0.5-0.9l10.4,6L901,1201.7z M885.6,1192.8l-10.4-6l0.5-0.9l10.4,6L885.6,1192.8z
			 M870.3,1184l-10.4-6l0.5-0.9l10.4,6L870.3,1184z M854.9,1175.1l-10.4-6l0.5-0.9l10.4,6L854.9,1175.1z M839.6,1166.2l-10.4-6
			l0.5-0.9l10.4,6L839.6,1166.2z M824.2,1157.4l-10.4-6l0.5-0.9l10.4,6L824.2,1157.4z M808.9,1148.5l-10.4-6l0.5-0.9l10.4,6
			L808.9,1148.5z M793.5,1139.6l-10.4-6l0.5-0.9l10.4,6L793.5,1139.6z M778.1,1130.8l-10.4-6l0.5-0.9l10.4,6L778.1,1130.8z
			 M762.8,1121.9l-10.4-6l0.5-0.9l10.4,6L762.8,1121.9z M747.4,1113l-10.4-6l0.5-0.9l10.4,6L747.4,1113z M732.1,1104.2l-10.4-6
			l0.5-0.9l10.4,6L732.1,1104.2z M716.7,1095.3l-10.4-6l0.5-0.9l10.4,6L716.7,1095.3z M701.4,1086.4l-10.4-6l0.5-0.9l10.4,6
			L701.4,1086.4z M686,1077.6l-10.4-6l0.5-0.9l10.4,6L686,1077.6z M670.6,1068.7l-10.4-6l0.5-0.9l10.4,6L670.6,1068.7z
			 M655.3,1059.8l-10.4-6l0.5-0.9l10.4,6L655.3,1059.8z M639.9,1051l-10.4-6l0.5-0.9l10.4,6L639.9,1051z M624.6,1042.1l-10.4-6
			l0.5-0.9l10.4,6L624.6,1042.1z M609.2,1033.2l-10.4-6l0.5-0.9l10.4,6L609.2,1033.2z M593.9,1024.4l-10.4-6l0.5-0.9l10.4,6
			L593.9,1024.4z M578.5,1015.5l-10.4-6l0.5-0.9l10.4,6L578.5,1015.5z M563.2,1006.6l-10.4-6l0.5-0.9l10.4,6L563.2,1006.6z
			 M547.8,997.8l-10.4-6l0.5-0.9l10.4,6L547.8,997.8z M532.4,988.9l-10.4-6l0.5-0.9l10.4,6L532.4,988.9z M517.1,980l-10.4-6l0.5-0.9
			l10.4,6L517.1,980z M501.7,971.2l-10.4-6l0.5-0.9l10.4,6L501.7,971.2z M486.4,962.3l-10.4-6l0.5-0.9l10.4,6L486.4,962.3z
			 M471,953.5l-10.4-6l0.5-0.9l10.4,6L471,953.5z M455.7,944.6l-10.4-6l0.5-0.9l10.4,6L455.7,944.6z M440.3,935.7l-10.4-6l0.5-0.9
			l10.4,6L440.3,935.7z M425,926.9l-10.4-6l0.5-0.9l10.4,6L425,926.9z M409.6,918l-10.4-6l0.5-0.9l10.4,6L409.6,918z M394.2,909.1
			l-10.4-6l0.5-0.9l10.4,6L394.2,909.1z M378.9,900.3l-10.4-6l0.5-0.9l10.4,6L378.9,900.3z M363.5,891.4l-10.4-6l0.5-0.9l10.4,6
			L363.5,891.4z M348.2,882.5l-10.4-6l0.5-0.9l10.4,6L348.2,882.5z M332.8,873.7l-10.4-6l0.5-0.9l10.4,6L332.8,873.7z M317.5,864.8
			l-10.4-6l0.5-0.9l10.4,6L317.5,864.8z M302.1,855.9l-10.4-6l0.5-0.9l10.4,6L302.1,855.9z M286.8,847.1l-10.4-6l0.5-0.9l10.4,6
			L286.8,847.1z M271.4,838.2l-10.4-6l0.5-0.9l10.4,6L271.4,838.2z M256,829.3l-10.4-6l0.5-0.9l10.4,6L256,829.3z M240.7,820.5
			l-10.4-6l0.5-0.9l10.4,6L240.7,820.5z M225.3,811.6l-10.4-6l0.5-0.9l10.4,6L225.3,811.6z M210,802.7l-10.4-6l0.5-0.9l10.4,6
			L210,802.7z M194.6,793.9l-10.4-6l0.5-0.9l10.4,6L194.6,793.9z M179.3,785l-10.4-6l0.5-0.9l10.4,6L179.3,785z M163.9,776.1
			l-10.4-6l0.5-0.9l10.4,6L163.9,776.1z M148.6,767.3l-10.4-6l0.5-0.9l10.4,6L148.6,767.3z M133.2,758.4l-10.4-6l0.5-0.9l10.4,6
			L133.2,758.4z M117.8,749.5l-10.4-6l0.5-0.9l10.4,6L117.8,749.5z M102.5,740.7l-10.4-6l0.5-0.9l10.4,6L102.5,740.7z M87.1,731.8
			l-10.4-6l0.5-0.9l10.4,6L87.1,731.8z M71.8,722.9l-10.4-6l0.5-0.9l10.4,6L71.8,722.9z M56.4,714.1l-10.4-6l0.5-0.9l10.4,6
			L56.4,714.1z M41.1,705.2l-10.4-6l0.5-0.9l10.4,6L41.1,705.2z M25.7,696.4l-10.4-6l0.5-0.9l10.4,6L25.7,696.4z M10.4,687.5
			l-10.4-6l0.5-0.9l10.4,6L10.4,687.5z"/>
		<rect x="908.3" y="1202.6" transform="matrix(0.5 -0.866 0.866 0.5 -589.6996 1389.9176)" class="st1" width="1" height="6"/>
	</g>
	<g>
		<path class="st1" d="M0.5,1054.5l-0.5-0.9l10.4-6l0.5,0.9L0.5,1054.5z M16,1045.6l-0.5-0.9l10.4-6l0.5,0.9L16,1045.6z
			 M31.4,1036.6l-0.5-0.9l10.4-6l0.5,0.9L31.4,1036.6z M46.9,1027.7l-0.5-0.9l10.4-6l0.5,0.9L46.9,1027.7z M62.4,1018.8l-0.5-0.9
			l10.4-6l0.5,0.9L62.4,1018.8z M77.9,1009.8l-0.5-0.9l10.4-6l0.5,0.9L77.9,1009.8z M93.3,1000.9l-0.5-0.9l10.4-6l0.5,0.9
			L93.3,1000.9z M108.8,992l-0.5-0.9l10.4-6l0.5,0.9L108.8,992z M124.3,983l-0.5-0.9l10.4-6l0.5,0.9L124.3,983z M139.7,974.1
			l-0.5-0.9l10.4-6l0.5,0.9L139.7,974.1z M155.2,965.2l-0.5-0.9l10.4-6l0.5,0.9L155.2,965.2z M170.7,956.2l-0.5-0.9l10.4-6l0.5,0.9
			L170.7,956.2z M186.2,947.3l-0.5-0.9l10.4-6l0.5,0.9L186.2,947.3z M201.6,938.4l-0.5-0.9l10.4-6l0.5,0.9L201.6,938.4z
			 M217.1,929.4l-0.5-0.9l10.4-6l0.5,0.9L217.1,929.4z M232.6,920.5l-0.5-0.9l10.4-6l0.5,0.9L232.6,920.5z M248.1,911.6l-0.5-0.9
			l10.4-6l0.5,0.9L248.1,911.6z M263.5,902.7l-0.5-0.9l10.4-6l0.5,0.9L263.5,902.7z M279,893.7l-0.5-0.9l10.4-6l0.5,0.9L279,893.7z
			 M294.5,884.8l-0.5-0.9l10.4-6l0.5,0.9L294.5,884.8z M309.9,875.9l-0.5-0.9l10.4-6l0.5,0.9L309.9,875.9z M325.4,866.9l-0.5-0.9
			l10.4-6l0.5,0.9L325.4,866.9z M340.9,858l-0.5-0.9l10.4-6l0.5,0.9L340.9,858z M356.4,849.1l-0.5-0.9l10.4-6l0.5,0.9L356.4,849.1z
			 M371.8,840.1l-0.5-0.9l10.4-6l0.5,0.9L371.8,840.1z M387.3,831.2l-0.5-0.9l10.4-6l0.5,0.9L387.3,831.2z M402.8,822.3l-0.5-0.9
			l10.4-6l0.5,0.9L402.8,822.3z M418.2,813.3l-0.5-0.9l10.4-6l0.5,0.9L418.2,813.3z M433.7,804.4l-0.5-0.9l10.4-6l0.5,0.9
			L433.7,804.4z M449.2,795.5l-0.5-0.9l10.4-6l0.5,0.9L449.2,795.5z M464.7,786.5l-0.5-0.9l10.4-6l0.5,0.9L464.7,786.5z
			 M480.1,777.6l-0.5-0.9l10.4-6l0.5,0.9L480.1,777.6z M495.6,768.7l-0.5-0.9l10.4-6l0.5,0.9L495.6,768.7z M511.1,759.7l-0.5-0.9
			l10.4-6l0.5,0.9L511.1,759.7z M526.5,750.8l-0.5-0.9l10.4-6l0.5,0.9L526.5,750.8z M542,741.9l-0.5-0.9l10.4-6l0.5,0.9L542,741.9z
			 M557.5,732.9l-0.5-0.9l10.4-6l0.5,0.9L557.5,732.9z M573,724l-0.5-0.9l10.4-6l0.5,0.9L573,724z M588.4,715.1l-0.5-0.9l10.4-6
			l0.5,0.9L588.4,715.1z M603.9,706.1l-0.5-0.9l10.4-6l0.5,0.9L603.9,706.1z M619.4,697.2l-0.5-0.9l10.4-6l0.5,0.9L619.4,697.2z
			 M634.8,688.3l-0.5-0.9l10.4-6l0.5,0.9L634.8,688.3z M650.3,679.3l-0.5-0.9l10.4-6l0.5,0.9L650.3,679.3z M665.8,670.4l-0.5-0.9
			l10.4-6l0.5,0.9L665.8,670.4z M681.3,661.5l-0.5-0.9l10.4-6l0.5,0.9L681.3,661.5z M696.7,652.5l-0.5-0.9l10.4-6l0.5,0.9
			L696.7,652.5z M712.2,643.6l-0.5-0.9l10.4-6l0.5,0.9L712.2,643.6z M727.7,634.7l-0.5-0.9l10.4-6l0.5,0.9L727.7,634.7z
			 M743.2,625.7l-0.5-0.9l10.4-6l0.5,0.9L743.2,625.7z M758.6,616.8l-0.5-0.9l10.4-6l0.5,0.9L758.6,616.8z M774.1,607.9l-0.5-0.9
			l10.4-6l0.5,0.9L774.1,607.9z M789.6,598.9l-0.5-0.9l10.4-6l0.5,0.9L789.6,598.9z M805,590l-0.5-0.9l10.4-6l0.5,0.9L805,590z
			 M820.5,581.1l-0.5-0.9l10.4-6l0.5,0.9L820.5,581.1z M836,572.1l-0.5-0.9l10.4-6l0.5,0.9L836,572.1z M851.5,563.2l-0.5-0.9l10.4-6
			l0.5,0.9L851.5,563.2z M866.9,554.3l-0.5-0.9l10.4-6l0.5,0.9L866.9,554.3z M882.4,545.3l-0.5-0.9l10.4-6l0.5,0.9L882.4,545.3z
			 M897.9,536.4l-0.5-0.9l10.4-6l0.5,0.9L897.9,536.4z M913.3,527.5l-0.5-0.9l10.4-6l0.5,0.9L913.3,527.5z M928.8,518.5l-0.5-0.9
			l10.4-6l0.5,0.9L928.8,518.5z M944.3,509.6l-0.5-0.9l10.4-6l0.5,0.9L944.3,509.6z M959.8,500.7l-0.5-0.9l10.4-6l0.5,0.9
			L959.8,500.7z M975.2,491.7l-0.5-0.9l10.4-6l0.5,0.9L975.2,491.7z M990.7,482.8l-0.5-0.9l10.4-6l0.5,0.9L990.7,482.8z
			 M1006.2,473.9l-0.5-0.9l10.4-6l0.5,0.9L1006.2,473.9z M1021.6,464.9l-0.5-0.9l10.4-6l0.5,0.9L1021.6,464.9z M1037.1,456l-0.5-0.9
			l10.4-6l0.5,0.9L1037.1,456z M1052.6,447.1l-0.5-0.9l10.4-6l0.5,0.9L1052.6,447.1z M1068.1,438.2l-0.5-0.9l10.4-6l0.5,0.9
			L1068.1,438.2z M1083.5,429.2l-0.5-0.9l10.4-6l0.5,0.9L1083.5,429.2z M1099,420.3l-0.5-0.9l10.4-6l0.5,0.9L1099,420.3z
			 M1114.5,411.4l-0.5-0.9l10.4-6l0.5,0.9L1114.5,411.4z M1129.9,402.4l-0.5-0.9l10.4-6l0.5,0.9L1129.9,402.4z M1145.4,393.5
			l-0.5-0.9l10.4-6l0.5,0.9L1145.4,393.5z M1160.9,384.6l-0.5-0.9l10.4-6l0.5,0.9L1160.9,384.6z M1176.4,375.6l-0.5-0.9l10.4-6
			l0.5,0.9L1176.4,375.6z M1191.8,366.7l-0.5-0.9l10.4-6l0.5,0.9L1191.8,366.7z"/>
		
			<rect x="1206.7" y="355.3" transform="matrix(0.8661 -0.4999 0.4999 0.8661 -15.8754 652.3861)" class="st1" width="6" height="1"/>
	</g>
	<g>
		<path class="st1" d="M0.5,1227.7l-0.5-0.9l10.4-6l0.5,0.9L0.5,1227.7z M15.9,1218.8l-0.5-0.9l10.4-6l0.5,0.9L15.9,1218.8z
			 M31.2,1209.9l-0.5-0.9l10.4-6l0.5,0.9L31.2,1209.9z M46.6,1201l-0.5-0.9l10.4-6l0.5,0.9L46.6,1201z M62,1192.1l-0.5-0.9l10.4-6
			l0.5,0.9L62,1192.1z M77.4,1183.3l-0.5-0.9l10.4-6l0.5,0.9L77.4,1183.3z M92.7,1174.4l-0.5-0.9l10.4-6l0.5,0.9L92.7,1174.4z
			 M108.1,1165.5l-0.5-0.9l10.4-6l0.5,0.9L108.1,1165.5z M123.5,1156.6l-0.5-0.9l10.4-6l0.5,0.9L123.5,1156.6z M138.9,1147.8
			l-0.5-0.9l10.4-6l0.5,0.9L138.9,1147.8z M154.2,1138.9l-0.5-0.9l10.4-6l0.5,0.9L154.2,1138.9z M169.6,1130l-0.5-0.9l10.4-6
			l0.5,0.9L169.6,1130z M185,1121.1l-0.5-0.9l10.4-6l0.5,0.9L185,1121.1z M200.4,1112.3l-0.5-0.9l10.4-6l0.5,0.9L200.4,1112.3z
			 M215.7,1103.4l-0.5-0.9l10.4-6l0.5,0.9L215.7,1103.4z M231.1,1094.5l-0.5-0.9l10.4-6l0.5,0.9L231.1,1094.5z M246.5,1085.6
			l-0.5-0.9l10.4-6l0.5,0.9L246.5,1085.6z M261.9,1076.8l-0.5-0.9l10.4-6l0.5,0.9L261.9,1076.8z M277.2,1067.9l-0.5-0.9l10.4-6
			l0.5,0.9L277.2,1067.9z M292.6,1059l-0.5-0.9l10.4-6l0.5,0.9L292.6,1059z M308,1050.1l-0.5-0.9l10.4-6l0.5,0.9L308,1050.1z
			 M323.4,1041.3l-0.5-0.9l10.4-6l0.5,0.9L323.4,1041.3z M338.7,1032.4l-0.5-0.9l10.4-6l0.5,0.9L338.7,1032.4z M354.1,1023.5
			l-0.5-0.9l10.4-6l0.5,0.9L354.1,1023.5z M369.5,1014.6l-0.5-0.9l10.4-6l0.5,0.9L369.5,1014.6z M384.8,1005.7l-0.5-0.9l10.4-6
			l0.5,0.9L384.8,1005.7z M400.2,996.9l-0.5-0.9l10.4-6l0.5,0.9L400.2,996.9z M415.6,988l-0.5-0.9l10.4-6l0.5,0.9L415.6,988z
			 M431,979.1l-0.5-0.9l10.4-6l0.5,0.9L431,979.1z M446.3,970.2l-0.5-0.9l10.4-6l0.5,0.9L446.3,970.2z M461.7,961.4l-0.5-0.9l10.4-6
			l0.5,0.9L461.7,961.4z M477.1,952.5l-0.5-0.9l10.4-6l0.5,0.9L477.1,952.5z M492.5,943.6l-0.5-0.9l10.4-6l0.5,0.9L492.5,943.6z
			 M507.8,934.7l-0.5-0.9l10.4-6l0.5,0.9L507.8,934.7z M523.2,925.9l-0.5-0.9l10.4-6l0.5,0.9L523.2,925.9z M538.6,917l-0.5-0.9
			l10.4-6l0.5,0.9L538.6,917z M554,908.1l-0.5-0.9l10.4-6l0.5,0.9L554,908.1z M569.3,899.2l-0.5-0.9l10.4-6l0.5,0.9L569.3,899.2z
			 M584.7,890.4l-0.5-0.9l10.4-6l0.5,0.9L584.7,890.4z M600.1,881.5l-0.5-0.9l10.4-6l0.5,0.9L600.1,881.5z M615.5,872.6l-0.5-0.9
			l10.4-6l0.5,0.9L615.5,872.6z M630.8,863.7l-0.5-0.9l10.4-6l0.5,0.9L630.8,863.7z M646.2,854.9l-0.5-0.9l10.4-6l0.5,0.9
			L646.2,854.9z M661.6,846l-0.5-0.9l10.4-6l0.5,0.9L661.6,846z M676.9,837.1l-0.5-0.9l10.4-6l0.5,0.9L676.9,837.1z M692.3,828.2
			l-0.5-0.9l10.4-6l0.5,0.9L692.3,828.2z M707.7,819.4l-0.5-0.9l10.4-6l0.5,0.9L707.7,819.4z M723.1,810.5l-0.5-0.9l10.4-6l0.5,0.9
			L723.1,810.5z M738.4,801.6l-0.5-0.9l10.4-6l0.5,0.9L738.4,801.6z M753.8,792.7l-0.5-0.9l10.4-6l0.5,0.9L753.8,792.7z
			 M769.2,783.8l-0.5-0.9l10.4-6l0.5,0.9L769.2,783.8z M784.6,775l-0.5-0.9l10.4-6l0.5,0.9L784.6,775z M799.9,766.1l-0.5-0.9l10.4-6
			l0.5,0.9L799.9,766.1z M815.3,757.2l-0.5-0.9l10.4-6l0.5,0.9L815.3,757.2z M830.7,748.3l-0.5-0.9l10.4-6l0.5,0.9L830.7,748.3z
			 M846.1,739.5l-0.5-0.9l10.4-6l0.5,0.9L846.1,739.5z M861.4,730.6l-0.5-0.9l10.4-6l0.5,0.9L861.4,730.6z M876.8,721.7l-0.5-0.9
			l10.4-6l0.5,0.9L876.8,721.7z M892.2,712.8l-0.5-0.9l10.4-6l0.5,0.9L892.2,712.8z M907.6,704l-0.5-0.9l10.4-6l0.5,0.9L907.6,704z
			 M922.9,695.1l-0.5-0.9l10.4-6l0.5,0.9L922.9,695.1z M938.3,686.2l-0.5-0.9l10.4-6l0.5,0.9L938.3,686.2z M953.7,677.3l-0.5-0.9
			l10.4-6l0.5,0.9L953.7,677.3z M969,668.5l-0.5-0.9l10.4-6l0.5,0.9L969,668.5z"/>
		
			<rect x="983.8" y="657.1" transform="matrix(0.8658 -0.5003 0.5003 0.8658 -196.6515 581.9635)" class="st1" width="6" height="1"/>
	</g>
	<g>
		<path class="st1" d="M0.5,551.5L0,550.6l10.4-6l0.5,0.9L0.5,551.5z M15.9,542.6l-0.5-0.9l10.4-6l0.5,0.9L15.9,542.6z M31.3,533.7
			l-0.5-0.9l10.4-6l0.5,0.9L31.3,533.7z M46.7,524.8l-0.5-0.9l10.4-6l0.5,0.9L46.7,524.8z M62.1,515.9l-0.5-0.9l10.4-6l0.5,0.9
			L62.1,515.9z M77.5,507l-0.5-0.9l10.4-6l0.5,0.9L77.5,507z M92.9,498.2l-0.5-0.9l10.4-6l0.5,0.9L92.9,498.2z M108.3,489.3
			l-0.5-0.9l10.4-6l0.5,0.9L108.3,489.3z M123.7,480.4l-0.5-0.9l10.4-6l0.5,0.9L123.7,480.4z M139.1,471.5l-0.5-0.9l10.4-6l0.5,0.9
			L139.1,471.5z M154.5,462.6l-0.5-0.9l10.4-6l0.5,0.9L154.5,462.6z M169.9,453.7l-0.5-0.9l10.4-6l0.5,0.9L169.9,453.7z
			 M185.3,444.8l-0.5-0.9l10.4-6l0.5,0.9L185.3,444.8z M200.7,435.9l-0.5-0.9l10.4-6l0.5,0.9L200.7,435.9z M216.1,427l-0.5-0.9
			l10.4-6l0.5,0.9L216.1,427z M231.5,418.1l-0.5-0.9l10.4-6l0.5,0.9L231.5,418.1z M246.9,409.2l-0.5-0.9l10.4-6l0.5,0.9L246.9,409.2
			z M262.3,400.4l-0.5-0.9l10.4-6l0.5,0.9L262.3,400.4z M277.7,391.5l-0.5-0.9l10.4-6l0.5,0.9L277.7,391.5z M293.1,382.6l-0.5-0.9
			l10.4-6l0.5,0.9L293.1,382.6z M308.5,373.7l-0.5-0.9l10.4-6l0.5,0.9L308.5,373.7z M323.9,364.8l-0.5-0.9l10.4-6l0.5,0.9
			L323.9,364.8z M339.3,355.9l-0.5-0.9l10.4-6l0.5,0.9L339.3,355.9z M354.7,347l-0.5-0.9l10.4-6l0.5,0.9L354.7,347z M370.1,338.1
			l-0.5-0.9l10.4-6l0.5,0.9L370.1,338.1z M385.5,329.2l-0.5-0.9l10.4-6l0.5,0.9L385.5,329.2z M400.9,320.3l-0.5-0.9l10.4-6l0.5,0.9
			L400.9,320.3z M416.3,311.5l-0.5-0.9l10.4-6l0.5,0.9L416.3,311.5z M431.7,302.6l-0.5-0.9l10.4-6l0.5,0.9L431.7,302.6z
			 M447.1,293.7l-0.5-0.9l10.4-6l0.5,0.9L447.1,293.7z M462.4,284.8l-0.5-0.9l10.4-6l0.5,0.9L462.4,284.8z M477.8,275.9l-0.5-0.9
			l10.4-6l0.5,0.9L477.8,275.9z M493.2,267l-0.5-0.9l10.4-6l0.5,0.9L493.2,267z M508.6,258.1l-0.5-0.9l10.4-6l0.5,0.9L508.6,258.1z
			 M524,249.2l-0.5-0.9l10.4-6l0.5,0.9L524,249.2z M539.4,240.3l-0.5-0.9l10.4-6l0.5,0.9L539.4,240.3z M554.8,231.4l-0.5-0.9l10.4-6
			l0.5,0.9L554.8,231.4z M570.2,222.6l-0.5-0.9l10.4-6l0.5,0.9L570.2,222.6z M585.6,213.7l-0.5-0.9l10.4-6l0.5,0.9L585.6,213.7z"/>
		
			<rect x="600.4" y="202.3" transform="matrix(0.8661 -0.4999 0.4999 0.8661 -20.5922 328.8104)" class="st1" width="6" height="1"/>
	</g>
	<g>
		<path class="st1" d="M0.5,836.6L0,835.8l10.4-6l0.5,0.9L0.5,836.6z M15.9,827.7l-0.5-0.9l10.4-6l0.5,0.9L15.9,827.7z M31.4,818.8
			l-0.5-0.9l10.4-6l0.5,0.9L31.4,818.8z M46.8,809.9l-0.5-0.9l10.4-6l0.5,0.9L46.8,809.9z M62.3,800.9l-0.5-0.9l10.4-6l0.5,0.9
			L62.3,800.9z M77.8,792l-0.5-0.9l10.4-6l0.5,0.9L77.8,792z M93.2,783.1l-0.5-0.9l10.4-6l0.5,0.9L93.2,783.1z M108.7,774.2
			l-0.5-0.9l10.4-6l0.5,0.9L108.7,774.2z M124.1,765.2l-0.5-0.9l10.4-6l0.5,0.9L124.1,765.2z M139.6,756.3l-0.5-0.9l10.4-6l0.5,0.9
			L139.6,756.3z M155.1,747.4l-0.5-0.9l10.4-6l0.5,0.9L155.1,747.4z M170.5,738.5l-0.5-0.9l10.4-6l0.5,0.9L170.5,738.5z M186,729.5
			l-0.5-0.9l10.4-6l0.5,0.9L186,729.5z M201.4,720.6l-0.5-0.9l10.4-6l0.5,0.9L201.4,720.6z M216.9,711.7l-0.5-0.9l10.4-6l0.5,0.9
			L216.9,711.7z M232.3,702.8l-0.5-0.9l10.4-6l0.5,0.9L232.3,702.8z M247.8,693.8l-0.5-0.9l10.4-6l0.5,0.9L247.8,693.8z
			 M263.3,684.9l-0.5-0.9l10.4-6l0.5,0.9L263.3,684.9z M278.7,676l-0.5-0.9l10.4-6l0.5,0.9L278.7,676z M294.2,667.1l-0.5-0.9l10.4-6
			l0.5,0.9L294.2,667.1z M309.6,658.1l-0.5-0.9l10.4-6l0.5,0.9L309.6,658.1z M325.1,649.2l-0.5-0.9l10.4-6l0.5,0.9L325.1,649.2z
			 M340.5,640.3l-0.5-0.9l10.4-6l0.5,0.9L340.5,640.3z M356,631.4l-0.5-0.9l10.4-6l0.5,0.9L356,631.4z M371.5,622.4l-0.5-0.9l10.4-6
			l0.5,0.9L371.5,622.4z M386.9,613.5l-0.5-0.9l10.4-6l0.5,0.9L386.9,613.5z M402.4,604.6l-0.5-0.9l10.4-6l0.5,0.9L402.4,604.6z
			 M417.8,595.7l-0.5-0.9l10.4-6l0.5,0.9L417.8,595.7z M433.3,586.7l-0.5-0.9l10.4-6l0.5,0.9L433.3,586.7z M448.7,577.8l-0.5-0.9
			l10.4-6l0.5,0.9L448.7,577.8z M464.2,568.9l-0.5-0.9l10.4-6l0.5,0.9L464.2,568.9z M479.7,560l-0.5-0.9l10.4-6l0.5,0.9L479.7,560z
			 M495.1,551l-0.5-0.9l10.4-6l0.5,0.9L495.1,551z M510.6,542.1l-0.5-0.9l10.4-6l0.5,0.9L510.6,542.1z M526,533.2l-0.5-0.9l10.4-6
			l0.5,0.9L526,533.2z M541.5,524.3l-0.5-0.9l10.4-6l0.5,0.9L541.5,524.3z M557,515.3l-0.5-0.9l10.4-6l0.5,0.9L557,515.3z
			 M572.4,506.4l-0.5-0.9l10.4-6l0.5,0.9L572.4,506.4z M587.9,497.5l-0.5-0.9l10.4-6l0.5,0.9L587.9,497.5z M603.3,488.6l-0.5-0.9
			l10.4-6l0.5,0.9L603.3,488.6z M618.8,479.6l-0.5-0.9l10.4-6l0.5,0.9L618.8,479.6z M634.2,470.7l-0.5-0.9l10.4-6l0.5,0.9
			L634.2,470.7z M649.7,461.8l-0.5-0.9l10.4-6l0.5,0.9L649.7,461.8z M665.2,452.9l-0.5-0.9l10.4-6l0.5,0.9L665.2,452.9z
			 M680.6,443.9l-0.5-0.9l10.4-6l0.5,0.9L680.6,443.9z M696.1,435l-0.5-0.9l10.4-6l0.5,0.9L696.1,435z M711.5,426.1l-0.5-0.9l10.4-6
			l0.5,0.9L711.5,426.1z M727,417.2l-0.5-0.9l10.4-6l0.5,0.9L727,417.2z M742.4,408.3l-0.5-0.9l10.4-6l0.5,0.9L742.4,408.3z
			 M757.9,399.3l-0.5-0.9l10.4-6l0.5,0.9L757.9,399.3z M773.4,390.4l-0.5-0.9l10.4-6l0.5,0.9L773.4,390.4z M788.8,381.5l-0.5-0.9
			l10.4-6l0.5,0.9L788.8,381.5z M804.3,372.6l-0.5-0.9l10.4-6l0.5,0.9L804.3,372.6z M819.7,363.6l-0.5-0.9l10.4-6l0.5,0.9
			L819.7,363.6z M835.2,354.7l-0.5-0.9l10.4-6l0.5,0.9L835.2,354.7z M850.6,345.8l-0.5-0.9l10.4-6l0.5,0.9L850.6,345.8z
			 M866.1,336.9l-0.5-0.9l10.4-6l0.5,0.9L866.1,336.9z M881.6,327.9l-0.5-0.9l10.4-6l0.5,0.9L881.6,327.9z M897,319l-0.5-0.9l10.4-6
			l0.5,0.9L897,319z M912.5,310.1l-0.5-0.9l10.4-6l0.5,0.9L912.5,310.1z M927.9,301.2l-0.5-0.9l10.4-6l0.5,0.9L927.9,301.2z
			 M943.4,292.2l-0.5-0.9l10.4-6l0.5,0.9L943.4,292.2z M958.9,283.3l-0.5-0.9l10.4-6l0.5,0.9L958.9,283.3z M974.3,274.4l-0.5-0.9
			l10.4-6l0.5,0.9L974.3,274.4z M989.8,265.5l-0.5-0.9l10.4-6l0.5,0.9L989.8,265.5z M1005.2,256.5l-0.5-0.9l10.4-6l0.5,0.9
			L1005.2,256.5z M1020.7,247.6l-0.5-0.9l10.4-6l0.5,0.9L1020.7,247.6z M1036.1,238.7l-0.5-0.9l10.4-6l0.5,0.9L1036.1,238.7z
			 M1051.6,229.8l-0.5-0.9l10.4-6l0.5,0.9L1051.6,229.8z M1067.1,220.8l-0.5-0.9l10.4-6l0.5,0.9L1067.1,220.8z M1082.5,211.9
			l-0.5-0.9l10.4-6l0.5,0.9L1082.5,211.9z M1098,203l-0.5-0.9l10.4-6l0.5,0.9L1098,203z M1113.4,194.1l-0.5-0.9l10.4-6l0.5,0.9
			L1113.4,194.1z M1128.9,185.1l-0.5-0.9l10.4-6l0.5,0.9L1128.9,185.1z M1144.3,176.2l-0.5-0.9l10.4-6l0.5,0.9L1144.3,176.2z
			 M1159.8,167.3l-0.5-0.9l10.4-6l0.5,0.9L1159.8,167.3z M1175.3,158.4l-0.5-0.9l10.4-6l0.5,0.9L1175.3,158.4z M1190.7,149.4
			l-0.5-0.9l10.4-6l0.5,0.9L1190.7,149.4z M1206.2,140.5l-0.5-0.9l10.4-6l0.5,0.9L1206.2,140.5z M1221.6,131.6l-0.5-0.9l10.4-6
			l0.5,0.9L1221.6,131.6z M1237.1,122.7l-0.5-0.9l10.4-6l0.5,0.9L1237.1,122.7z"/>
		
			<rect x="1251.9" y="111.3" transform="matrix(0.8661 -0.4999 0.4999 0.8661 112.1667 642.3175)" class="st1" width="6" height="1"/>
	</g>
</g>
</svg>
