<svg xmlns="http://www.w3.org/2000/svg" viewBox="0 0 1600 1351"><style>.st0{fill:#242424}.st1{fill:#656565}</style><g id="Layer_1"><path class="st0" d="M.5 1095l-.5-.9 10.4-6 .5.9-10.4 6zm15.5-9l-.5-.9 10.4-6 .5.9-10.4 6zm15.4-8.9l-.5-.9 10.4-6 .5.9-10.4 6zm15.5-8.9l-.5-.9 10.4-6 .5.9-10.4 6zm15.4-8.9l-.5-.9 10.4-6 .5.9-10.4 6zm15.5-9l-.5-.9 10.4-6 .5.9-10.4 6zm15.5-8.9l-.5-.9 10.4-6 .5.9-10.4 6zm15.4-8.9l-.5-.9 10.4-6 .5.9-10.4 6zm15.5-8.9l-.5-.9 10.4-6 .5.9-10.4 6zm15.4-9l-.5-.9 10.4-6 .5.9-10.4 6zm15.5-8.9l-.5-.9 10.4-6 .5.9-10.4 6zm15.5-8.9l-.5-.9 10.4-6 .5.9-10.4 6zm15.4-8.9l-.5-.9 10.4-6 .5.9-10.4 6zm15.5-9l-.5-.9 10.4-6 .5.9-10.4 6zm15.4-8.9l-.5-.9 10.4-6 .5.9-10.4 6zm15.5-8.9l-.5-.9 10.4-6 .5.9-10.4 6zm15.5-8.9l-.5-.9 10.4-6 .5.9-10.4 6zm15.4-9l-.5-.9 10.4-6 .5.9-10.4 6zm15.5-8.9l-.5-.9 10.4-6 .5.9-10.4 6zm15.4-8.9l-.5-.9 10.4-6 .5.9-10.4 6zm15.5-8.9l-.5-.9 10.4-6 .5.9-10.4 6zm15.4-9l-.5-.9 10.4-6 .5.9-10.4 6zm15.5-8.9l-.5-.9 10.4-6 .5.9-10.4 6zm15.5-8.9l-.5-.9 10.4-6 .5.9-10.4 6zm15.4-9l-.5-.9 10.4-6 .5.9-10.4 6zm15.5-8.9l-.5-.9 10.4-6 .5.9-10.4 6zm15.4-8.9l-.5-.9 10.4-6 .5.9-10.4 6zm15.5-8.9l-.5-.9 10.4-6 .5.9-10.4 6zm15.5-9l-.5-.9 10.4-6 .5.9-10.4 6zm15.4-8.9l-.5-.9 10.4-6 .5.9-10.4 6zm15.5-8.9l-.5-.9 10.4-6 .5.9-10.4 6zm15.4-8.9l-.5-.9 10.4-6 .5.9-10.4 6zm15.5-9l-.5-.9 10.4-6 .5.9-10.4 6zm15.5-8.9l-.5-.9 10.4-6 .5.9-10.4 6zm15.4-8.9l-.5-.9 10.4-6 .5.9-10.4 6zm15.5-8.9l-.5-.9 10.4-6 .5.9-10.4 6zm15.4-9l-.5-.9 10.4-6 .5.9-10.4 6zm15.5-8.9l-.5-.9 10.4-6 .5.9-10.4 6zm15.5-8.9l-.5-.9 10.4-6 .5.9-10.4 6zm15.4-8.9l-.5-.9 10.4-6 .5.9-10.4 6zm15.5-9l-.5-.9 10.4-6 .5.9-10.4 6zm15.4-8.9l-.5-.9 10.4-6 .5.9-10.4 6zm15.5-8.9l-.5-.9 10.4-6 .5.9-10.4 6zm15.5-8.9l-.5-.9 10.4-6 .5.9-10.4 6zm15.4-9l-.5-.9 10.4-6 .5.9-10.4 6zm15.5-8.9l-.5-.9 10.4-6 .5.9-10.4 6zm15.4-8.9l-.5-.9 10.4-6 .5.9-10.4 6zm15.5-8.9l-.5-.9 10.4-6 .5.9-10.4 6zm15.5-9l-.5-.9 10.4-6 .5.9-10.4 6zm15.4-8.9l-.5-.9 10.4-6 .5.9-10.4 6zm15.5-8.9l-.5-.9 10.4-6 .5.9-10.4 6zm15.4-8.9l-.5-.9 10.4-6 .5.9-10.4 6zm15.5-9l-.5-.9 10.4-6 .5.9-10.4 6zm15.5-8.9l-.5-.9 10.4-6 .5.9-10.4 6zm15.4-8.9l-.5-.9 10.4-6 .5.9-10.4 6zm15.5-8.9l-.5-.9 10.4-6 .5.9-10.4 6zm15.4-9l-.5-.9 10.4-6 .5.9-10.4 6zm15.5-8.9l-.5-.9 10.4-6 .5.9-10.4 6zm15.5-8.9l-.5-.9 10.4-6 .5.9-10.4 6zm15.4-8.9l-.5-.9 10.4-6 .5.9-10.4 6zm15.5-9l-.5-.9 10.4-6 .5.9-10.4 6zM948.747 546.308l5.197-3 .5.866-5.197 3zM.5 1140.2l-.5-.9 10.4-6 .5.9-10.4 6zm15.4-8.9l-.5-.9 10.4-6 .5.9-10.4 6zm15.5-8.9l-.5-.9 10.4-6 .5.9-10.4 6zm15.4-8.9l-.5-.9 10.4-6 .5.9-10.4 6zm15.4-8.9l-.5-.9 10.4-6 .5.9-10.4 6zm15.4-8.9l-.5-.9 10.4-6 .5.9-10.4 6zm15.5-8.9l-.5-.9 10.4-6 .5.9-10.4 6zm15.4-8.9l-.5-.9 10.4-6 .5.9-10.4 6zm15.4-8.9l-.5-.9 10.4-6 .5.9-10.4 6zm15.4-8.9l-.5-.9 10.4-6 .5.9-10.4 6zm15.5-9l-.5-.9 10.4-6 .5.9-10.4 6zm15.4-8.9l-.5-.9 10.4-6 .5.9-10.4 6zm15.4-8.9l-.5-.9 10.4-6 .5.9-10.4 6zm15.4-8.9l-.5-.9 10.4-6 .5.9-10.4 6zm15.5-8.9l-.5-.9 10.4-6 .5.9-10.4 6zm15.4-8.9l-.5-.9 10.4-6 .5.9-10.4 6zm15.4-8.9l-.5-.9 10.4-6 .5.9-10.4 6zm15.4-8.9l-.5-.9 10.4-6 .5.9-10.4 6zm15.5-8.9l-.5-.9 10.4-6 .5.9-10.4 6zm15.4-8.9l-.5-.9 10.4-6 .5.9-10.4 6zm15.4-8.9l-.5-.9 10.4-6 .5.9-10.4 6zm15.4-8.9l-.5-.9 10.4-6 .5.9-10.4 6zm15.5-8.9l-.5-.9 10.4-6 .5.9-10.4 6zm15.4-8.9l-.5-.9 10.4-6 .5.9-10.4 6zm15.4-8.9l-.5-.9 10.4-6 .5.9-10.4 6zm15.5-8.9l-.5-.9 10.4-6 .5.9-10.4 6zm15.4-9l-.5-.9 10.4-6 .5.9-10.4 6zm15.4-8.9l-.5-.9 10.4-6 .5.9-10.4 6zm15.4-8.9l-.5-.9 10.4-6 .5.9-10.4 6zm15.5-8.9l-.5-.9 10.4-6 .5.9-10.4 6zm15.4-8.9l-.5-.9 10.4-6 .5.9-10.4 6zm15.4-8.9l-.5-.9 10.4-6 .5.9-10.4 6zm15.4-8.9l-.5-.9 10.4-6 .5.9-10.4 6zm15.5-8.9l-.5-.9 10.4-6 .5.9-10.4 6zm15.4-8.9l-.5-.9 10.4-6 .5.9-10.4 6zm15.4-8.9l-.5-.9 10.4-6 .5.9-10.4 6zm15.4-8.9l-.5-.9 10.4-6 .5.9-10.4 6zm15.5-8.9l-.5-.9 10.4-6 .5.9-10.4 6zm15.4-8.9l-.5-.9 10.4-6 .5.9-10.4 6zm15.4-8.9l-.5-.9 10.4-6 .5.9-10.4 6zm15.4-8.9l-.5-.9 10.4-6 .5.9-10.4 6zm15.5-8.9l-.5-.9 10.4-6 .5.9-10.4 6zm15.4-9l-.5-.9 10.4-6 .5.9-10.4 6zm15.4-8.9l-.5-.9 10.4-6 .5.9-10.4 6zm15.4-8.9l-.5-.9 10.4-6 .5.9-10.4 6zm15.5-8.9l-.5-.9 10.4-6 .5.9-10.4 6zm15.4-8.9l-.5-.9 10.4-6 .5.9-10.4 6zm15.4-8.9l-.5-.9 10.4-6 .5.9-10.4 6zm15.5-8.9l-.5-.9 10.4-6 .5.9-10.4 6zm15.4-8.9l-.5-.9 10.4-6 .5.9-10.4 6zm15.4-8.9l-.5-.9 10.4-6 .5.9-10.4 6zm15.4-8.9l-.5-.9 10.4-6 .5.9-10.4 6zm15.5-8.9l-.5-.9 10.4-6 .5.9-10.4 6zm15.4-8.9l-.5-.9 10.4-6 .5.9-10.4 6zm15.4-8.9l-.5-.9 10.4-6 .5.9-10.4 6zm15.4-8.9l-.5-.9 10.4-6 .5.9-10.4 6zm15.5-8.9l-.5-.9 10.4-6 .5.9-10.4 6zM890.42 625.07l5.195-3.003.5.866-5.194 3.002zM1.3 1185.9l-.5-.9 10.4-6 .5.9-10.4 6zm15.5-8.9l-.5-.9 10.4-6 .5.9-10.4 6zm15.4-8.9l-.5-.9 10.4-6 .5.9-10.4 6zm15.4-8.9l-.5-.9 10.4-6 .5.9-10.4 6zm15.5-8.9l-.5-.9 10.4-6 .5.9-10.4 6zm15.4-8.9l-.5-.9 10.4-6 .5.9-10.4 6zm15.5-9l-.5-.9 10.4-6 .5.9-10.4 6zm15.4-8.9l-.5-.9 10.4-6 .5.9-10.4 6zm15.4-8.9l-.5-.9 10.4-6 .5.9-10.4 6zm15.5-8.9l-.5-.9 10.4-6 .5.9-10.4 6zm15.4-8.9l-.5-.9 10.4-6 .5.9-10.4 6zm15.5-8.9l-.5-.9 10.4-6 .5.9-10.4 6zm15.4-8.9l-.5-.9 10.4-6 .5.9-10.4 6zm15.4-9l-.5-.9 10.4-6 .5.9-10.4 6zm15.5-8.9l-.5-.9 10.4-6 .5.9-10.4 6zm15.4-8.9l-.5-.9 10.4-6 .5.9-10.4 6zm15.5-8.9l-.5-.9 10.4-6 .5.9-10.4 6zm15.4-8.9l-.5-.9 10.4-6 .5.9-10.4 6zm15.4-8.9l-.5-.9 10.4-6 .5.9-10.4 6zm15.5-8.9l-.5-.9 10.4-6 .5.9-10.4 6zm15.4-9l-.5-.9 10.4-6 .5.9-10.4 6zm15.5-8.9l-.5-.9 10.4-6 .5.9-10.4 6zm15.4-8.9l-.5-.9 10.4-6 .5.9-10.4 6zm15.4-8.9l-.5-.9 10.4-6 .5.9-10.4 6zm15.5-8.9l-.5-.9 10.4-6 .5.9-10.4 6zm15.4-8.9l-.5-.9 10.4-6 .5.9-10.4 6zm15.5-8.9l-.5-.9 10.4-6 .5.9-10.4 6zm15.4-9l-.5-.9 10.4-6 .5.9-10.4 6zm15.4-8.9l-.5-.9 10.4-6 .5.9-10.4 6zm15.5-8.9l-.5-.9 10.4-6 .5.9-10.4 6zm15.4-8.9l-.5-.9 10.4-6 .5.9-10.4 6zm15.5-8.9l-.5-.9 10.4-6 .5.9-10.4 6zm15.4-8.9l-.5-.9 10.4-6 .5.9-10.4 6zm15.4-8.9l-.5-.9 10.4-6 .5.9-10.4 6zm15.5-9l-.5-.9 10.4-6 .5.9-10.4 6zm15.4-8.9l-.5-.9 10.4-6 .5.9-10.4 6zm15.5-8.9l-.5-.9 10.4-6 .5.9-10.4 6zm15.4-8.9l-.5-.9 10.4-6 .5.9-10.4 6zm15.4-8.9l-.5-.9 10.4-6 .5.9-10.4 6zm15.5-8.9l-.5-.9 10.4-6 .5.9-10.4 6zm15.4-8.9l-.5-.9 10.4-6 .5.9-10.4 6zm15.5-9l-.5-.9 10.4-6 .5.9-10.4 6zm15.4-8.9l-.5-.9 10.4-6 .5.9-10.4 6zm15.4-8.9l-.5-.9 10.4-6 .5.9-10.4 6zm15.5-8.9l-.5-.9 10.4-6 .5.9-10.4 6zm15.4-8.9l-.5-.9 10.4-6 .5.9-10.4 6zm15.5-8.9l-.5-.9 10.4-6 .5.9-10.4 6zM727 767l-.5-.9 10.4-6 .5.9-10.4 6zm15.4-8.9l-.5-.9 10.4-6 .5.9-10.4 6zm15.5-9l-.5-.9 10.4-6 .5.9-10.4 6zm15.4-8.9l-.5-.9 10.4-6 .5.9-10.4 6zm15.5-8.9l-.5-.9 10.4-6 .5.9-10.4 6zm15.4-8.9l-.5-.9 10.4-6 .5.9-10.4 6zm15.4-8.9l-.5-.9 10.4-6 .5.9-10.4 6zm15.5-8.9l-.5-.9 10.4-6 .5.9-10.4 6zm15.4-8.9l-.5-.9 10.4-6 .5.9-10.4 6zm15.5-9l-.5-.9 10.4-6 .5.9-10.4 6zm15.4-8.9l-.5-.9 10.4-6 .5.9-10.4 6zm15.4-8.9l-.5-.9 10.4-6 .5.9-10.4 6zm15.5-8.9l-.5-.9 10.4-6 .5.9-10.4 6zm15.4-8.9l-.5-.9 10.4-6 .5.9-10.4 6zm15.5-8.9l-.5-.9 10.4-6 .5.9-10.4 6zm15.4-8.9l-.5-.9 10.4-6 .5.9-10.4 6zM973.496 623.485l5.194-3 .5.864-5.194 3zM.7 488.8l-.5-.9 10.4-6 .5.9-10.4 6zm15.4-8.9l-.5-.9 10.4-6 .5.9-10.4 6zm15.4-9l-.5-.9 10.4-6 .5.9-10.4 6zM47 462l-.5-.9 10.4-6 .5.9-10.4 6zm15.4-8.9l-.5-.9 10.4-6 .5.9-10.4 6zm15.5-8.9l-.5-.9 10.4-6 .5.9-10.4 6zm15.4-8.9l-.5-.9 10.4-6 .5.9-10.4 6zm15.4-8.9l-.5-.9 10.4-6 .5.9-10.4 6zm15.5-8.9l-.5-.9 10.4-6 .5.9-10.4 6zm15.4-8.9l-.5-.9 10.4-6 .5.9-10.4 6zm15.4-8.9l-.5-.9 10.4-6 .5.9-10.4 6zm15.5-9l-.5-.9 10.4-6 .5.9-10.4 6zm15.4-8.9l-.5-.9 10.4-6 .5.9-10.4 6zm15.4-8.9l-.5-.9 10.4-6 .5.9-10.4 6zm15.5-8.9l-.5-.9 10.4-6 .5.9-10.4 6zm15.4-8.9l-.5-.9 10.4-6 .5.9-10.4 6zm15.4-8.9l-.5-.9 10.4-6 .5.9-10.4 6zm15.5-8.9l-.5-.9 10.4-6 .5.9-10.4 6zm15.4-8.9l-.5-.9 10.4-6 .5.9-10.4 6zm15.5-9l-.5-.9 10.4-6 .5.9-10.4 6zm15.4-8.9l-.5-.9 10.4-6 .5.9-10.4 6zm15.4-8.9l-.5-.9 10.4-6 .5.9-10.4 6zm15.5-8.9l-.5-.9 10.4-6 .5.9-10.4 6zm15.4-8.9l-.5-.9 10.4-6 .5.9-10.4 6zm15.4-8.9l-.5-.9 10.4-6 .5.9-10.4 6zm15.5-8.9l-.5-.9 10.4-6 .5.9-10.4 6zm15.4-8.9l-.5-.9 10.4-6 .5.9-10.4 6zm15.4-8.9l-.5-.9 10.4-6 .5.9-10.4 6zm15.5-9l-.5-.9 10.4-6 .5.9-10.4 6zm15.4-8.9l-.5-.9 10.4-6 .5.9-10.4 6zm15.5-8.9l-.5-.9 10.4-6 .5.9-10.4 6zm15.4-8.9l-.5-.9 10.4-6 .5.9-10.4 6zm15.4-8.9l-.5-.9 10.4-6 .5.9-10.4 6zm15.5-8.9l-.5-.9 10.4-6 .5.9-10.4 6zm15.4-8.9l-.5-.9 10.4-6 .5.9-10.4 6zm15.4-8.9l-.5-.9 10.4-6 .5.9-10.4 6zm15.5-9l-.5-.9 10.4-6 .5.9-10.4 6zm15.4-8.9l-.5-.9 10.4-6 .5.9-10.4 6zm15.4-8.9l-.5-.9 10.4-6 .5.9-10.4 6zm15.5-8.9l-.5-.9 10.4-6 .5.9-10.4 6zm15.4-8.9l-.5-.9 10.4-6 .5.9-10.4 6zm15.4-8.9l-.5-.9 10.4-6 .5.9-10.4 6zm15.5-8.9l-.5-.9 10.4-6 .5.9-10.4 6zm15.4-8.9l-.5-.9 10.4-6 .5.9-10.4 6zm15.5-9l-.5-.9 10.4-6 .5.9-10.4 6zm15.4-8.9l-.5-.9 10.4-6 .5.9-10.4 6zm15.4-8.9l-.5-.9 10.4-6 .5.9-10.4 6zm15.5-8.9l-.5-.9 10.4-6 .5.9-10.4 6zm15.4-8.9l-.5-.9 10.4-6 .5.9-10.4 6zm15.4-8.9l-.5-.9 10.4-6 .5.9-10.4 6zm15.5-8.9l-.5-.9 10.4-6 .5.9-10.4 6zm15.4-8.9l-.5-.9 10.4-6 .5.9-10.4 6zm15.4-8.9l-.5-.9 10.4-6 .5.9-10.4 6zm15.5-9l-.5-.9 10.4-6 .5.9-10.4 6zM.5 726.9L0 726l10.4-6 .5.9-10.4 6zm15.4-8.9l-.5-.9 10.4-6 .5.9-10.4 6zm15.3-8.8l-.5-.9 10.4-6 .5.9-10.4 6zm15.4-8.9l-.5-.9 10.4-6 .5.9-10.4 6zm15.4-8.9l-.5-.9 10.4-6 .5.9-10.4 6zm15.4-8.9l-.5-.9 10.4-6 .5.9-10.4 6zm15.3-8.8l-.5-.9 10.4-6 .5.9-10.4 6zm15.4-8.9l-.5-.9 10.4-6 .5.9-10.4 6zm15.4-8.9l-.5-.9 10.4-6 .5.9-10.4 6zm15.4-8.9l-.5-.9 10.4-6 .5.9-10.4 6zm15.3-8.8l-.5-.9 10.4-6 .5.9-10.4 6zm15.4-8.9l-.5-.9 10.4-6 .5.9-10.4 6zm15.4-8.9l-.5-.9 10.4-6 .5.9-10.4 6zm15.4-8.9l-.5-.9 10.4-6 .5.9-10.4 6zm15.3-8.9l-.5-.9 10.4-6 .5.9-10.4 6zm15.4-8.8l-.5-.9 10.4-6 .5.9-10.4 6zm15.4-8.9l-.5-.9 10.4-6 .5.9-10.4 6zm15.3-8.9l-.5-.9 10.4-6 .5.9-10.4 6zm15.4-8.9l-.5-.9 10.4-6 .5.9-10.4 6zm15.4-8.8l-.5-.9 10.4-6 .5.9-10.4 6zm15.4-8.9l-.5-.9 10.4-6 .5.9-10.4 6zm15.3-8.9l-.5-.9 10.4-6 .5.9-10.4 6zm15.4-8.9l-.5-.9 10.4-6 .5.9-10.4 6zm15.4-8.8l-.5-.9 10.4-6 .5.9-10.4 6zm15.4-8.9l-.5-.9 10.4-6 .5.9-10.4 6zm15.3-8.9l-.5-.9 10.4-6 .5.9-10.4 6zm15.4-8.9l-.5-.9 10.4-6 .5.9-10.4 6zm15.4-8.8l-.5-.9 10.4-6 .5.9-10.4 6zm15.3-8.9l-.5-.9 10.4-6 .5.9-10.4 6zm15.4-8.9l-.5-.9 10.4-6 .5.9-10.4 6zm15.4-8.9l-.5-.9 10.4-6 .5.9-10.4 6zm15.4-8.8l-.5-.9 10.4-6 .5.9-10.4 6zm15.3-8.9l-.5-.9 10.4-6 .5.9-10.4 6zm15.4-8.9l-.5-.9 10.4-6 .5.9-10.4 6zm15.4-8.9l-.5-.9 10.4-6 .5.9-10.4 6zm15.4-8.8l-.5-.9 10.4-6 .5.9-10.4 6zm15.3-8.9l-.5-.9 10.4-6 .5.9-10.4 6zm15.4-8.9l-.5-.9 10.4-6 .5.9-10.4 6zm15.4-8.9l-.5-.9 10.4-6 .5.9-10.4 6zm15.4-8.8l-.5-.9 10.4-6 .5.9-10.4 6zm15.3-8.9l-.5-.9 10.4-6 .5.9-10.4 6zm15.4-8.9l-.5-.9 10.4-6 .5.9-10.4 6zm15.4-8.9l-.5-.9 10.4-6 .5.9-10.4 6zm15.3-8.8l-.5-.9 10.4-6 .5.9-10.4 6zm15.4-8.9l-.5-.9 10.4-6 .5.9-10.4 6zm15.4-8.9l-.5-.9 10.4-6 .5.9-10.4 6zm15.4-8.9l-.5-.9 10.4-6 .5.9-10.4 6zm15.3-8.9l-.5-.9 10.4-6 .5.9-10.4 6zm15.4-8.8l-.5-.9 10.4-6 .5.9-10.4 6zm15.4-8.9l-.5-.9 10.4-6 .5.9-10.4 6zm15.4-8.9l-.5-.9 10.4-6 .5.9-10.4 6zm15.3-8.9l-.5-.9 10.4-6 .5.9-10.4 6zm15.4-8.8l-.5-.9 10.4-6 .5.9-10.4 6zm15.4-8.9l-.5-.9 10.4-6 .5.9-10.4 6zm15.4-8.9l-.5-.9 10.4-6 .5.9-10.4 6zm15.3-8.9l-.5-.9 10.4-6 .5.9-10.4 6zm15.4-8.8l-.5-.9 10.4-6 .5.9-10.4 6zM883.29 223.18l5.197-3 .5.866-5.197 3zM1.1 742.1l-.5-.9 10.4-6 .5.9-10.4 6zm15.5-8.9l-.5-.9 10.4-6 .5.9-10.4 6zm15.4-8.9l-.5-.9 10.4-6 .5.9-10.4 6zm15.4-8.9l-.5-.9 10.4-6 .5.9-10.4 6zm15.5-9l-.5-.9 10.4-6 .5.9-10.4 6zm15.4-8.9l-.5-.9 10.4-6 .5.9-10.4 6zm15.4-8.9l-.5-.9 10.4-6 .5.9-10.4 6zm15.5-8.9l-.5-.9 10.4-6 .5.9-10.4 6zm15.4-8.9l-.5-.9 10.4-6 .5.9-10.4 6zm15.4-8.9l-.5-.9 10.4-6 .5.9-10.4 6zm15.5-8.9l-.5-.9 10.4-6 .5.9-10.4 6zm15.4-8.9l-.5-.9 10.4-6 .5.9-10.4 6zm15.4-8.9l-.5-.9 10.4-6 .5.9-10.4 6zm15.5-8.9l-.5-.9 10.4-6 .5.9-10.4 6zm15.4-9l-.5-.9 10.4-6 .5.9-10.4 6zm15.4-8.9l-.5-.9 10.4-6 .5.9-10.4 6zm15.5-8.9l-.5-.9 10.4-6 .5.9-10.4 6zm15.4-8.9l-.5-.9 10.4-6 .5.9-10.4 6zm15.4-8.9l-.5-.9 10.4-6 .5.9-10.4 6zm15.5-8.9l-.5-.9 10.4-6 .5.9-10.4 6zm15.4-8.9l-.5-.9 10.4-6 .5.9-10.4 6zm15.4-8.9l-.5-.9 10.4-6 .5.9-10.4 6zm15.4-8.9l-.5-.9 10.4-6 .5.9-10.4 6zm15.5-8.9l-.5-.9 10.4-6 .5.9-10.4 6zm15.4-8.9l-.5-.9 10.4-6 .5.9-10.4 6zm15.4-9l-.5-.9 10.4-6 .5.9-10.4 6zm15.5-8.9l-.5-.9 10.4-6 .5.9-10.4 6zm15.4-8.9l-.5-.9 10.4-6 .5.9-10.4 6zm15.4-8.9l-.5-.9 10.4-6 .5.9-10.4 6zm15.5-8.9l-.5-.9 10.4-6 .5.9-10.4 6zm15.4-8.9l-.5-.9 10.4-6 .5.9-10.4 6zm15.4-8.9l-.5-.9 10.4-6 .5.9-10.4 6zM495 457l-.5-.9 10.4-6 .5.9-10.4 6zm15.4-8.9l-.5-.9 10.4-6 .5.9-10.4 6zm15.4-8.9l-.5-.9 10.4-6 .5.9-10.4 6zm15.5-9l-.5-.9 10.4-6 .5.9-10.4 6zm15.4-8.9l-.5-.9 10.4-6 .5.9-10.4 6zm15.4-8.9l-.5-.9 10.4-6 .5.9-10.4 6zm15.5-8.9l-.5-.9 10.4-6 .5.9-10.4 6zm15.4-8.9l-.5-.9 10.4-6 .5.9-10.4 6zm15.4-8.9l-.5-.9 10.4-6 .5.9-10.4 6zm15.5-8.9l-.5-.9 10.4-6 .5.9-10.4 6zm15.4-8.9l-.5-.9 10.4-6 .5.9-10.4 6zm15.4-8.9l-.5-.9 10.4-6 .5.9-10.4 6zm15.4-8.9l-.5-.9 10.4-6 .5.9-10.4 6zm15.5-8.9l-.5-.9 10.4-6 .5.9-10.4 6zm15.4-9l-.5-.9 10.4-6 .5.9-10.4 6zm15.4-8.9l-.5-.9 10.4-6 .5.9-10.4 6zm15.5-8.9l-.5-.9 10.4-6 .5.9-10.4 6zm15.4-8.9l-.5-.9 10.4-6 .5.9-10.4 6zm15.4-8.9l-.5-.9 10.4-6 .5.9-10.4 6zm15.5-8.9l-.5-.9 10.4-6 .5.9-10.4 6zm15.4-8.9l-.5-.9 10.4-6 .5.9-10.4 6zM818.55 268.99l5.196-3 .5.867-5.197 3zM3 1030.3l-.5-.9 10.4-6 .5.9-10.4 6zm15.3-8.9l-.5-.9 10.4-6 .5.9-10.4 6zm15.4-8.8l-.5-.9 10.4-6 .5.9-10.4 6zm15.3-8.9l-.5-.9 10.4-6 .5.9-10.4 6zm15.4-8.9l-.5-.9 10.4-6 .5.9-10.4 6zm15.4-8.8l-.5-.9 10.4-6 .5.9-10.4 6zm15.3-8.9l-.5-.9 10.4-6 .5.9-10.4 6zm15.4-8.9l-.5-.9 10.4-6 .5.9-10.4 6zm15.3-8.8l-.5-.9 10.4-6 .5.9-10.4 6zm15.4-8.9l-.5-.9 10.4-6 .5.9-10.4 6zm15.4-8.9l-.5-.9 10.4-6 .5.9-10.4 6zm15.3-8.8l-.5-.9 10.4-6 .5.9-10.4 6zm15.4-8.9l-.5-.9 10.4-6 .5.9-10.4 6zm15.3-8.9l-.5-.9 10.4-6 .5.9-10.4 6zm15.4-8.9l-.5-.9 10.4-6 .5.9-10.4 6zm15.4-8.8l-.5-.9 10.4-6 .5.9-10.4 6zm15.3-8.9l-.5-.9 10.4-6 .5.9-10.4 6zm15.4-8.9l-.5-.9 10.4-6 .5.9-10.4 6zm15.3-8.8l-.5-.9 10.4-6 .5.9-10.4 6zm15.4-8.9l-.5-.9 10.4-6 .5.9-10.4 6zm15.4-8.9l-.5-.9 10.4-6 .5.9-10.4 6zm15.3-8.8l-.5-.9 10.4-6 .5.9-10.4 6zm15.4-8.9l-.5-.9 10.4-6 .5.9-10.4 6zm15.3-8.9l-.5-.9 10.4-6 .5.9-10.4 6zm15.4-8.8l-.5-.9 10.4-6 .5.9-10.4 6zm15.4-8.9l-.5-.9 10.4-6 .5.9-10.4 6zm15.3-8.9l-.5-.9 10.4-6 .5.9-10.4 6zm15.4-8.8l-.5-.9 10.4-6 .5.9-10.4 6zM433 782l-.5-.9 10.4-6 .5.9-10.4 6zm15.4-8.9l-.5-.9 10.4-6 .5.9-10.4 6zm15.4-8.8l-.5-.9 10.4-6 .5.9-10.4 6zm15.3-8.9l-.5-.9 10.4-6 .5.9-10.4 6zm15.4-8.9l-.5-.9 10.4-6 .5.9-10.4 6zm15.3-8.8l-.5-.9 10.4-6 .5.9-10.4 6zm15.4-8.9l-.5-.9 10.4-6 .5.9-10.4 6zm15.4-8.9l-.5-.9 10.4-6 .5.9-10.4 6zm15.3-8.8l-.5-.9 10.4-6 .5.9-10.4 6zm15.4-8.9l-.5-.9 10.4-6 .5.9-10.4 6zm15.3-8.9l-.5-.9 10.4-6 .5.9-10.4 6zm15.4-8.9l-.5-.9 10.4-6 .5.9-10.4 6zm15.4-8.8l-.5-.9 10.4-6 .5.9-10.4 6zm15.3-8.9l-.5-.9 10.4-6 .5.9-10.4 6zm15.4-8.9l-.5-.9 10.4-6 .5.9-10.4 6zm15.3-8.8l-.5-.9 10.4-6 .5.9-10.4 6zm15.4-8.9l-.5-.9 10.4-6 .5.9-10.4 6zm15.4-8.9l-.5-.9 10.4-6 .5.9-10.4 6zm15.3-8.8l-.5-.9 10.4-6 .5.9-10.4 6zm15.4-8.9l-.5-.9 10.4-6 .5.9-10.4 6zm15.3-8.9l-.5-.9 10.4-6 .5.9-10.4 6zm15.4-8.8l-.5-.9 10.4-6 .5.9-10.4 6zm15.4-8.9l-.5-.9 10.4-6 .5.9-10.4 6zm15.3-8.9l-.5-.9 10.4-6 .5.9-10.4 6zm15.4-8.8l-.5-.9 10.4-6 .5.9-10.4 6zm15.3-8.9l-.5-.9 10.4-6 .5.9-10.4 6zm15.4-8.9l-.5-.9 10.4-6 .5.9-10.4 6zm15.4-8.8l-.5-.9 10.4-6 .5.9-10.4 6zM862.683 532.878l5.197-3 .5.866-5.197 3zM.5 920.3l-.5-.9 10.4-6 .5.9-10.4 6zm15.4-8.9l-.5-.9 10.4-6 .5.9-10.4 6zm15.5-8.9l-.5-.9 10.4-6 .5.9-10.4 6zm15.4-9l-.5-.9 10.4-6 .5.9-10.4 6zm15.4-8.9l-.5-.9 10.4-6 .5.9-10.4 6zm15.4-8.9l-.5-.9 10.4-6 .5.9-10.4 6zm15.5-8.9l-.5-.9 10.4-6 .5.9-10.4 6zm15.4-8.9l-.5-.9 10.4-6 .5.9-10.4 6zm15.4-8.9l-.5-.9 10.4-6 .5.9-10.4 6zm15.5-8.9l-.5-.9 10.4-6 .5.9-10.4 6zm15.4-8.9l-.5-.9 10.4-6 .5.9-10.4 6zm15.4-8.9l-.5-.9 10.4-6 .5.9-10.4 6zm15.5-8.9l-.5-.9 10.4-6 .5.9-10.4 6zm15.4-8.9l-.5-.9 10.4-6 .5.9-10.4 6zm15.4-8.9l-.5-.9 10.4-6 .5.9-10.4 6zm15.4-9l-.5-.9 10.4-6 .5.9-10.4 6zm15.5-8.9l-.5-.9 10.4-6 .5.9-10.4 6zm15.4-8.9l-.5-.9 10.4-6 .5.9-10.4 6zm15.4-8.9l-.5-.9 10.4-6 .5.9-10.4 6zm15.5-8.9l-.5-.9 10.4-6 .5.9-10.4 6zm15.4-8.9l-.5-.9 10.4-6 .5.9-10.4 6zm15.4-8.9l-.5-.9 10.4-6 .5.9-10.4 6zm15.4-8.9l-.5-.9 10.4-6 .5.9-10.4 6zm15.5-8.9l-.5-.9 10.4-6 .5.9-10.4 6zm15.4-8.9l-.5-.9 10.4-6 .5.9-10.4 6zm15.4-8.9l-.5-.9 10.4-6 .5.9-10.4 6zm15.5-8.9l-.5-.9 10.4-6 .5.9-10.4 6zm15.4-8.9l-.5-.9 10.4-6 .5.9-10.4 6zm15.4-9l-.5-.8 10.4-6 .5.9-10.4 5.9zm15.5-8.9l-.5-.9 10.4-6 .5.9-10.4 6zm15.4-8.9l-.5-.9 10.4-6 .5.9-10.4 6zm15.4-8.9l-.5-.9 10.4-6 .5.9-10.4 6zm15.4-8.9l-.5-.9 10.4-6 .5.9-10.4 6zm15.5-8.9l-.5-.9 10.4-6 .5.9-10.4 6zm15.4-8.9l-.5-.9 10.4-6 .5.9-10.4 6zm15.4-8.9l-.5-.9 10.4-6 .5.9-10.4 6zm15.5-8.9l-.5-.9 10.4-6 .5.9-10.4 6zm15.4-8.9l-.5-.9 10.4-6 .5.9-10.4 6zm15.4-8.9l-.5-.9 10.4-6 .5.9-10.4 6zm15.4-8.9l-.5-.9 10.4-6 .5.9-10.4 6zm15.5-9l-.5-.9 10.4-6 .5.9-10.4 6zm15.4-8.9l-.5-.9 10.4-6 .5.9-10.4 6zm15.4-8.9l-.5-.9 10.4-6 .5.9-10.4 6zm15.5-8.9l-.5-.9 10.4-6 .5.9-10.4 6zm15.4-8.9l-.5-.9 10.4-6 .5.9-10.4 6zm15.4-8.9l-.5-.9 10.4-6 .5.9-10.4 6zm15.4-8.9l-.5-.9 10.4-6 .5.9-10.4 6zm15.5-8.9l-.5-.9 10.4-6 .5.9-10.4 6zm15.4-8.9l-.5-.9 10.4-6 .5.9-10.4 6zm15.4-8.9l-.5-.9 10.4-6 .5.9-10.4 6zm15.5-8.9l-.5-.9 10.4-6 .5.9-10.4 6zm15.4-8.9l-.5-.9 10.4-6 .5.9-10.4 6zm15.4-9l-.5-.9 10.4-6 .5.9-10.4 6zm15.5-8.9l-.5-.9 10.4-6 .5.9-10.4 6zm15.4-8.9l-.5-.9 10.4-6 .5.9-10.4 6zm15.4-8.9l-.5-.9 10.4-6 .5.9-10.4 6zm15.4-8.9l-.5-.9 10.4-6 .5.9-10.4 6zm15.5-8.9l-.5-.9 10.4-6 .5.9-10.4 6zm15.4-8.9l-.5-.9 10.4-6 .5.9-10.4 6zm15.4-8.9l-.5-.9 10.4-6 .5.9-10.4 6zm15.5-8.9l-.5-.9 10.4-6 .5.9-10.4 6zm15.4-8.9l-.5-.9 10.4-6 .5.9-10.4 6zm15.4-8.9l-.5-.9 10.4-6 .5.9-10.4 6zM976.496 355.6l5.197-3 .5.866-5.197 3zM1.8 777.4l-.5-.9 10.4-6 .5.9-10.4 6zm15.4-8.9l-.5-.9 10.4-6 .5.9-10.4 6zm15.3-8.8l-.5-.9 10.4-6 .5.9-10.4 6zm15.4-8.9l-.5-.9 10.4-6 .5.9-10.4 6zm15.3-8.9l-.5-.9 10.4-6 .5.9-10.4 6zm15.4-8.8l-.5-.9 10.4-6 .5.9-10.4 6zm15.3-8.9l-.5-.9 10.4-6 .5.9-10.4 6zm15.4-8.9l-.5-.9 10.4-6 .5.9-10.4 6zm15.4-8.8l-.5-.9 10.4-6 .5.9-10.4 6zm15.3-8.9l-.5-.9 10.4-6 .5.9-10.4 6zm15.4-8.9l-.5-.9 10.4-6 .5.9-10.4 6zm15.3-8.8l-.5-.9 10.4-6 .5.9-10.4 6zm15.4-8.9l-.5-.9 10.4-6 .5.9-10.4 6zm15.3-8.9l-.5-.9 10.4-6 .5.9-10.4 6zm15.4-8.8l-.5-.9 10.4-6 .5.9-10.4 6zm15.3-8.9l-.5-.9 10.4-6 .5.9-10.4 6zm15.4-8.9l-.5-.9 10.4-6 .5.9-10.4 6zm15.4-8.8l-.5-.9 10.4-6 .5.9-10.4 6zm15.3-8.9l-.5-.9 10.4-6 .5.9-10.4 6zm15.4-8.9l-.5-.9 10.4-6 .5.9-10.4 6zm15.3-8.8l-.5-.9 10.4-6 .5.9-10.4 6zm15.4-8.9l-.5-.9 10.4-6 .5.9-10.4 6zm15.3-8.8l-.5-.9 10.4-6 .5.9-10.4 6zm15.4-8.9l-.5-.9 10.4-6 .5.9-10.4 6zm15.3-8.9l-.5-.9 10.4-6 .5.9-10.4 6zm15.4-8.8l-.5-.9 10.4-6 .5.9-10.4 6zm15.4-8.9l-.5-.9 10.4-6 .5.9-10.4 6zm15.3-8.9l-.5-.9 10.4-6 .5.9-10.4 6zm15.4-8.8l-.5-.9 10.4-6 .5.9-10.4 6zm15.3-8.9l-.5-.9 10.4-6 .5.9-10.4 6zm15.4-8.9l-.5-.9 10.4-6 .5.9-10.4 6zm15.3-8.8l-.5-.9 10.4-6 .5.9-10.4 6zm15.4-8.9l-.5-.9 10.4-6 .5.9-10.4 6zm15.4-8.9l-.5-.9 10.4-6 .5.9-10.4 6zm15.3-8.8l-.5-.9 10.4-6 .5.9-10.4 6zm15.4-8.9l-.5-.9 10.4-6 .5.9-10.4 6zm15.3-8.9l-.5-.9 10.4-6 .5.9-10.4 6zm15.4-8.8l-.5-.9 10.4-6 .5.9-10.4 6zm15.3-8.9l-.5-.9 10.4-6 .5.9-10.4 6zm15.4-8.9l-.5-.9 10.4-6 .5.9-10.4 6zm15.3-8.8l-.5-.9 10.4-6 .5.9-10.4 6zm15.4-8.9l-.5-.9 10.4-6 .5.9-10.4 6zm15.4-8.9l-.5-.9 10.4-6 .5.9-10.4 6zm15.3-8.8l-.5-.9 10.4-6 .5.9-10.4 6zm15.4-8.9l-.5-.9 10.4-6 .5.9-10.4 6zm15.3-8.9l-.5-.9 10.4-6 .5.9-10.4 6zm15.4-8.8l-.5-.9 10.4-6 .5.9-10.4 6zm15.3-8.9l-.5-.9 10.4-6 .5.9-10.4 6zm15.4-8.9l-.5-.9 10.4-6 .5.9-10.4 6zm15.3-8.8l-.5-.9 10.4-6 .5.9-10.4 6zm15.4-8.9l-.5-.9 10.4-6 .5.9-10.4 6zm15.4-8.9l-.5-.9 10.4-6 .5.9-10.4 6zm15.3-8.8l-.5-.9 10.4-6 .5.9-10.4 6zm15.4-8.9l-.5-.9 10.4-6 .5.9-10.4 6zm15.3-8.8l-.5-.9 10.4-6 .5.9-10.4 6zM855.99 283.48l5.196-3 .5.867-5.196 3zM2.9 696.1l-.5-.9 10.4-6 .5.9-10.4 6zm15.4-8.9l-.5-.9 10.4-6 .5.9-10.4 6zm15.5-8.9l-.5-.9 10.4-6 .5.9-10.4 6zm15.4-9l-.5-.9 10.4-6 .5.9-10.4 6zm15.5-8.9l-.5-.9 10.4-6 .5.9-10.4 6zm15.4-8.9l-.5-.9 10.4-6 .5.9-10.4 6zm15.5-8.9l-.5-.9 10.4-6 .5.9-10.4 6zm15.4-8.9l-.5-.9 10.4-6 .5.9-10.4 6zm15.4-9l-.5-.9 10.4-6 .5.9-10.4 6zm15.5-8.9l-.5-.9 10.4-6 .5.9-10.4 6zm15.4-8.9l-.5-.9 10.4-6 .5.9-10.4 6zm15.5-8.9l-.5-.9 10.4-6 .5.9-10.4 6zm15.4-8.9l-.5-.9 10.4-6 .5.9-10.4 6zm15.5-8.9l-.5-.9 10.4-6 .5.9-10.4 6zm15.4-9l-.5-.9 10.4-6 .5.9-10.4 6zm15.5-8.9l-.5-.9 10.4-6 .5.9-10.4 6zm15.4-8.9l-.5-.9 10.4-6 .5.9-10.4 6zm15.5-8.9l-.5-.9 10.4-6 .5.9-10.4 6zm15.4-8.9l-.5-.9 10.4-6 .5.9-10.4 6zm15.5-9l-.5-.9 10.4-6 .5.9-10.4 6zm15.4-8.9l-.5-.9 10.4-6 .5.9-10.4 6zm15.5-8.9l-.5-.9 10.4-6 .5.9-10.4 6zm15.4-8.9l-.5-.9 10.4-6 .5.9-10.4 6zm15.5-8.9l-.5-.9 10.4-6 .5.9-10.4 6zm15.4-9l-.5-.9 10.4-6 .5.9-10.4 6zm15.4-8.9l-.5-.9 10.4-6 .5.9-10.4 6zm15.5-8.9l-.5-.9 10.4-6 .5.9-10.4 6zm15.4-8.9l-.5-.9 10.4-6 .5.9-10.4 6zm15.5-8.9l-.5-.9 10.4-6 .5.9-10.4 6zm15.4-8.9l-.5-.9 10.4-6 .5.9-10.4 6zm15.5-9l-.5-.9 10.4-6 .5.9-10.4 6zm15.4-8.9l-.5-.9 10.4-6 .5.9-10.4 6zm15.5-8.9l-.5-.9 10.4-6 .5.9-10.4 6zm15.4-8.9l-.5-.9 10.4-6 .5.9-10.4 6zm15.5-8.9l-.5-.9 10.4-6 .5.9-10.4 6zm15.4-9l-.5-.9 10.4-6 .5.9-10.4 6zM559 375l-.5-.9 10.4-6 .5.9-10.4 6zm15.4-8.9l-.5-.9 10.4-6 .5.9-10.4 6zm15.5-8.9l-.5-.9 10.4-6 .5.9-10.4 6zm15.4-8.9l-.5-.9 10.4-6 .5.9-10.4 6zm15.5-8.9l-.5-.9 10.4-6 .5.9-10.4 6zm15.4-9l-.5-.9 10.4-6 .5.9-10.4 6zm15.4-8.9l-.5-.9 10.4-6 .5.9-10.4 6zm15.5-8.9l-.5-.9 10.4-6 .5.9-10.4 6zm15.4-8.9l-.5-.9 10.4-6 .5.9-10.4 6zm15.5-8.9l-.5-.9 10.4-6 .5.9-10.4 6zm15.4-9l-.5-.9 10.4-6 .5.9-10.4 6zm15.5-8.9l-.5-.9 10.4-6 .5.9-10.4 6zm15.4-8.9l-.5-.9 10.4-6 .5.9-10.4 6zm15.5-8.9l-.5-.9 10.4-6 .5.9-10.4 6zm15.4-8.9l-.5-.9 10.4-6 .5.9-10.4 6zm15.5-8.9l-.5-.9 10.4-6 .5.9-10.4 6zm15.4-9l-.5-.9 10.4-6 .5.9-10.4 6zm15.5-8.9l-.5-.9 10.4-6 .5.9-10.4 6zm15.4-8.9l-.5-.9 10.4-6 .5.9-10.4 6zm15.5-8.9l-.5-.9 10.4-6 .5.9-10.4 6zm15.4-8.9l-.5-.9 10.4-6 .5.9-10.4 6zm15.5-9l-.5-.9 10.4-6 .5.9-10.4 6zm15.4-8.9l-.5-.9 10.4-6 .5.9-10.4 6zm15.4-8.9l-.5-.9 10.4-6 .5.9-10.4 6zm15.5-8.9l-.5-.9 10.4-6 .5.9-10.4 6zm15.4-8.9l-.5-.9 10.4-6 .5.9-10.4 6zm15.5-9l-.5-.9 10.4-6 .5.9-10.4 6zm15.4-8.9l-.5-.9 10.4-6 .5.9-10.4 6zM990.99 124.5l5.196-3 .5.867-5.197 3z"/><path class="st0" d="M1139.9 1156.2l-10.4-6 .5-.9 10.4 6-.5.9zm-15.5-8.9l-10.4-6 .5-.9 10.4 6-.5.9zm-15.5-9l-10.4-6 .5-.9 10.4 6-.5.9zm-15.4-8.9l-10.4-6 .5-.9 10.4 6-.5.9zm-15.5-8.9l-10.4-6 .5-.9 10.4 6-.5.9zm-15.5-9l-10.4-6 .5-.9 10.4 6-.5.9zm-15.5-8.9l-10.4-6 .5-.9 10.4 6-.5.9zm-15.4-8.9l-10.4-6 .5-.9 10.4 6-.5.9zm-15.5-9l-10.4-6 .5-.9 10.4 6-.5.9zm-15.5-8.9l-10.4-6 .5-.9 10.4 6-.5.9zm-15.4-8.9l-10.4-6 .5-.9 10.4 6-.5.9zm-15.5-9l-10.4-6 .5-.9 10.4 6-.5.9zm-15.5-8.9l-10.4-6 .5-.9 10.4 6-.5.9zm-15.5-8.9l-10.4-6 .5-.9 10.4 6-.5.9zm-15.4-9l-10.4-6 .5-.9 10.4 6-.5.9zm-15.5-8.9l-10.4-6 .5-.9 10.4 6-.5.9zm-15.5-8.9l-10.4-6 .5-.9 10.4 6-.5.9zm-15.4-9l-10.4-6 .5-.9 10.4 6-.5.9zm-15.5-8.9l-10.4-6 .5-.9 10.4 6-.5.9zm-15.5-8.9l-10.4-6 .5-.9 10.4 6-.5.9zm-15.5-9l-10.4-6 .5-.9 10.4 6-.5.9zm-15.4-8.9l-10.4-6 .5-.9 10.4 6-.5.9zm-15.5-8.9l-10.4-6 .5-.9 10.4 6-.5.9zm-15.5-8.9l-10.4-6 .5-.9 10.4 6-.5.9zm-15.4-9l-10.4-6 .5-.9 10.4 6-.5.9zm-15.5-8.9l-10.4-6 .5-.9 10.4 6-.5.9zm-15.5-8.9l-10.4-6 .5-.9 10.4 6-.5.9zm-15.5-9l-10.4-6 .5-.9 10.4 6-.5.9zm-15.4-8.9l-10.4-6 .5-.9 10.4 6-.5.9zm-15.5-8.9l-10.4-6 .5-.9 10.4 6-.5.9zm-15.5-9l-10.4-6 .5-.9 10.4 6-.5.9zm-15.4-8.9l-10.4-6 .5-.9 10.4 6-.5.9zm-15.5-8.9l-10.4-6 .5-.9 10.4 6-.5.9zm-15.5-9l-10.4-6 .5-.9 10.4 6-.5.9zm-15.5-8.9l-10.4-6 .5-.9 10.4 6-.5.9zm-15.4-8.9l-10.4-6 .5-.9 10.4 6-.5.9zm-15.5-9l-10.4-6 .5-.9 10.4 6-.5.9zm-15.5-8.9l-10.4-6 .5-.9 10.4 6-.5.9zm-15.5-8.9l-10.4-6 .5-.9 10.4 6-.5.9zm-15.4-9l-10.4-6 .5-.9 10.4 6-.5.9zm-15.5-8.9l-10.4-6 .5-.9 10.4 6-.5.9zm-15.5-8.9l-10.4-6 .5-.9 10.4 6-.5.9zm-15.4-9l-10.4-6 .5-.9 10.4 6-.5.9zm-15.5-8.9l-10.4-6 .5-.9 10.4 6-.5.9zm-15.5-8.9l-10.4-6 .5-.9 10.4 6-.5.9zm-15.5-9l-10.4-6 .5-.9 10.4 6-.5.9zm-15.4-8.9l-10.4-6 .5-.9 10.4 6-.5.9zm-15.5-8.9l-10.4-6 .5-.9 10.4 6-.5.9zm-15.5-9l-10.4-6 .5-.9 10.4 6-.5.9zm-15.4-8.9l-10.4-6 .5-.9 10.4 6-.5.9zm-15.5-8.9l-10.4-6 .5-.9 10.4 6-.5.9zm-15.5-9l-10.4-6 .5-.9 10.4 6-.5.9zm-15.5-8.9l-10.4-6 .5-.9 10.4 6-.5.9zm-15.4-8.9l-10.4-6 .5-.9 10.4 6-.5.9zm-15.5-9l-10.4-6 .5-.9 10.4 6-.5.9zm-15.5-8.9l-10.4-6 .5-.9 10.4 6-.5.9zm-15.4-8.9l-10.4-6 .5-.9 10.4 6-.5.9zm-15.5-9l-10.4-6 .5-.9 10.4 6-.5.9zm-15.5-8.9l-10.4-6 .5-.9 10.4 6-.5.9zm-15.5-8.9l-10.4-6 .5-.9 10.4 6-.5.9zm-15.4-9l-10.4-6 .5-.9 10.4 6-.5.9zm-15.5-8.9l-10.4-6 .5-.9 10.4 6-.5.9zm-15.5-8.9l-10.4-6 .5-.9 10.4 6-.5.9zm-15.5-9l-10.4-6 .5-.9 10.4 6-.5.9zm-15.4-8.9l-10.4-6 .5-.9 10.4 6-.5.9zm-15.5-8.9l-10.4-6 .5-.9 10.4 6-.5.9zm-15.5-9l-10.4-6 .5-.9 10.4 6-.5.9zm-15.4-8.9l-10.4-6 .5-.9 10.4 6-.5.9zm-15.5-8.9l-10.4-6 .5-.9 10.4 6-.5.9zm-15.5-9l-10.4-6 .5-.9 10.4 6-.5.9zm-15.5-8.9l-10.4-6 .5-.9 10.4 6-.5.9zM41.4 522L31 516l.5-.9 10.4 6-.5.9zm-15.5-9l-10.4-6 .5-.9 10.4 6-.5.9zm-15.5-8.9l-10.4-6 .5-.9 10.4 6-.5.9zM1154.494 1164.456l.5-.866 5.196 3-.5.866zM932.6 863.1l-10.4-6 .5-.9 10.4 6-.5.9zm-15.4-8.9l-10.4-6 .5-.9 10.4 6-.5.9zm-15.3-8.8l-10.4-6 .5-.9 10.4 6-.5.9zm-15.4-8.9l-10.4-6 .5-.9 10.4 6-.5.9zm-15.4-8.9l-10.4-6 .5-.9 10.4 6-.5.9zm-15.4-8.9l-10.4-6 .5-.9 10.4 6-.5.9zm-15.3-8.8l-10.4-6 .5-.9 10.4 6-.5.9zM825 801l-10.4-6 .5-.9 10.4 6-.5.9zm-15.4-8.9l-10.4-6 .5-.9 10.4 6-.5.9zm-15.4-8.9l-10.4-6 .5-.9 10.4 6-.5.9zm-15.3-8.9l-10.4-6 .5-.9 10.4 6-.5.9zm-15.4-8.8l-10.4-6 .5-.9 10.4 6-.5.9zm-15.4-8.9l-10.4-6 .5-.9 10.4 6-.5.9zm-15.3-8.9l-10.4-6 .5-.9 10.4 6-.5.9zm-15.4-8.9l-10.4-6 .5-.9 10.4 6-.5.9zM702 730l-10.4-6 .5-.9 10.4 6-.5.9zm-15.4-8.9l-10.4-6 .5-.9 10.4 6-.5.9zm-15.3-8.9l-10.4-6 .5-.9 10.4 6-.5.9zm-15.4-8.9l-10.4-6 .5-.9 10.4 6-.5.9zm-15.4-8.8l-10.4-6 .5-.9 10.4 6-.5.9zm-15.4-8.9l-10.4-6 .5-.9 10.4 6-.5.9zm-15.3-8.9l-10.4-6 .5-.9 10.4 6-.5.9zm-15.4-8.9l-10.4-6 .5-.9 10.4 6-.5.9zM579 659l-10.4-6 .5-.9 10.4 6-.5.9zm-15.4-8.9l-10.4-6 .5-.9 10.4 6-.5.9zm-15.3-8.9l-10.4-6 .5-.9 10.4 6-.5.9zm-15.4-8.9l-10.4-6 .5-.9 10.4 6-.5.9zm-15.4-8.8l-10.4-6 .5-.9 10.4 6-.5.9zm-15.4-8.9l-10.4-6 .5-.9 10.4 6-.5.9zm-15.3-8.9l-10.4-6 .5-.9 10.4 6-.5.9zm-15.4-8.9l-10.4-6 .5-.9 10.4 6-.5.9zM456 588l-10.4-6 .5-.9 10.4 6-.5.9zm-15.3-8.9l-10.4-6 .5-.9 10.4 6-.5.9zm-15.4-8.9l-10.4-6 .5-.9 10.4 6-.5.9zm-15.4-8.9l-10.4-6 .5-.9 10.4 6-.5.9zm-15.4-8.9l-10.4-6 .5-.9 10.4 6-.5.9zm-15.3-8.8l-10.4-6 .5-.9 10.4 6-.5.9zm-15.4-8.9l-10.4-6 .5-.9 10.4 6-.5.9zm-15.4-8.9l-10.4-6 .5-.9 10.4 6-.5.9zm-15.4-8.9l-10.4-6 .5-.9 10.4 6-.5.9zm-15.3-8.8l-10.4-6 .5-.9 10.4 6-.5.9zm-15.4-8.9l-10.4-6 .5-.9 10.4 6-.5.9zm-15.4-8.9l-10.4-6 .5-.9 10.4 6-.5.9zm-15.4-8.9l-10.4-6 .5-.9 10.4 6-.5.9zm-15.3-8.8l-10.4-6 .5-.9 10.4 6-.5.9zm-15.4-8.9l-10.4-6 .5-.9 10.4 6-.5.9zm-15.4-8.9l-10.4-6 .5-.9 10.4 6-.5.9zm-15.4-8.9l-10.4-6 .5-.9 10.4 6-.5.9zm-15.3-8.8l-10.4-6 .5-.9 10.4 6-.5.9zm-15.4-8.9l-10.4-6 .5-.9 10.4 6-.5.9zm-15.4-8.9l-10.4-6 .5-.9 10.4 6-.5.9zm-15.3-8.9l-10.4-6 .5-.9 10.4 6-.5.9zm-15.4-8.8l-10.4-6 .5-.9 10.4 6-.5.9zm-15.4-8.9l-10.4-6 .5-.9 10.4 6-.5.9zm-15.4-8.9l-10.4-6 .5-.9 10.4 6-.5.9zm-15.3-8.9l-10.4-6 .5-.9 10.4 6-.5.9zM71.7 366l-10.4-6 .5-.9 10.4 6-.5.9zm-15.4-8.8l-10.4-6 .5-.9 10.4 6-.5.9zm-15.4-8.9l-10.4-6 .5-.9 10.4 6-.5.9zm-15.3-8.9l-10.4-6 .5-.9 10.4 6-.5.9zm-15.4-8.9l-10.4-6 .5-.9 10.4 6-.5.9zM937.65 866.032l.5-.866 5.195 3-.5.866zM550.5 1319.9l-10.4-6 .5-.9 10.4 6-.5.9zm-15.4-8.9l-10.4-6 .5-.9 10.4 6-.5.9zm-15.4-8.9l-10.4-6 .5-.9 10.4 6-.5.9zm-15.4-8.9l-10.4-6 .5-.9 10.4 6-.5.9zm-15.4-8.9l-10.4-6 .5-.9 10.4 6-.5.9zm-15.4-8.9l-10.4-6 .5-.9 10.4 6-.5.9zm-15.4-8.9l-10.4-6 .5-.9 10.4 6-.5.9zm-15.4-8.8l-10.4-6 .5-.9 10.4 6-.5.9zm-15.4-8.9l-10.4-6 .5-.9 10.4 6-.5.9zm-15.4-8.9l-10.4-6 .5-.9 10.4 6-.5.9zm-15.4-8.9l-10.4-6 .5-.9 10.4 6-.5.9zm-15.4-8.9l-10.4-6 .5-.9 10.4 6-.5.9zm-15.4-8.9l-10.4-6 .5-.9 10.4 6-.5.9zm-15.4-8.9l-10.4-6 .5-.9 10.4 6-.5.9zm-15.4-8.9l-10.4-6 .5-.9 10.4 6-.5.9zm-15.4-8.9l-10.4-6 .5-.9 10.4 6-.5.9zm-15.4-8.9l-10.4-6 .5-.9 10.4 6-.5.9zm-15.4-8.8l-10.4-6 .5-.9 10.4 6-.5.9zm-15.4-8.9l-10.4-6 .5-.9 10.4 6-.5.9zm-15.4-8.9l-10.4-6 .5-.9 10.4 6-.5.9zm-15.4-8.9l-10.4-6 .5-.9 10.4 6-.5.9zm-15.4-8.9l-10.4-6 .5-.9 10.4 6-.5.9zm-15.4-8.9l-10.4-6 .5-.9 10.4 6-.5.9zm-15.4-8.9l-10.4-6 .5-.9 10.4 6-.5.9zm-15.4-8.9l-10.4-6 .5-.9 10.4 6-.5.9zm-15.4-8.9l-10.4-6 .5-.9 10.4 6-.5.9zm-15.4-8.9l-10.4-6 .5-.9 10.4 6-.5.9zm-15.4-8.9l-10.4-6 .5-.9 10.4 6-.5.9zm-15.4-8.8l-10.4-6 .5-.9 10.4 6-.5.9zm-15.4-8.9l-10.4-6 .5-.9 10.4 6-.5.9zm-15.4-8.9l-10.4-6 .5-.9 10.4 6-.5.9zm-15.4-8.9l-10.4-6 .5-.9 10.4 6-.5.9zm-15.4-8.9l-10.4-6 .5-.9 10.4 6-.5.9zm-15.4-8.9l-10.4-6 .5-.9 10.4 6-.5.9zm-15.4-8.9l-10.4-6 .5-.9 10.4 6-.5.9zm-15.4-8.9l-10.4-6 .5-.9 10.4 6-.5.9zM551.816 1321.132l.5-.866 5.196 3-.5.866zM1062.2 1329.5l-10.4-6 .5-.9 10.4 6-.5.9zm-15.5-8.9l-10.4-6 .5-.9 10.4 6-.5.9zm-15.4-8.9l-10.4-6 .5-.9 10.4 6-.5.9zm-15.5-8.9l-10.4-6 .5-.9 10.4 6-.5.9zm-15.4-9l-10.4-6 .5-.9 10.4 6-.5.9zm-15.5-8.9l-10.4-6 .5-.9 10.4 6-.5.9zm-15.5-8.9l-10.4-6 .5-.9 10.4 6-.5.9zm-15.4-8.9l-10.4-6 .5-.9 10.4 6-.5.9zm-15.5-9l-10.4-6 .5-.9 10.4 6-.5.9zm-15.4-8.9l-10.4-6 .5-.9 10.4 6-.5.9zm-15.5-8.9l-10.4-6 .5-.9 10.4 6-.5.9zm-15.4-8.9l-10.4-6 .5-.9 10.4 6-.5.9zm-15.5-9l-10.4-6 .5-.9 10.4 6-.5.9zm-15.5-8.9l-10.4-6 .5-.9 10.4 6-.5.9zm-15.4-8.9l-10.4-6 .5-.9 10.4 6-.5.9zm-15.5-8.9l-10.4-6 .5-.9 10.4 6-.5.9zm-15.4-8.9l-10.4-6 .5-.9 10.4 6-.5.9zm-15.5-9l-10.4-6 .5-.9 10.4 6-.5.9zm-15.5-8.9l-10.4-6 .5-.9 10.4 6-.5.9zm-15.4-8.9l-10.4-6 .5-.9 10.4 6-.5.9zm-15.5-8.9l-10.4-6 .5-.9 10.4 6-.5.9zm-15.4-9l-10.4-6 .5-.9 10.4 6-.5.9zm-15.5-8.9l-10.4-6 .5-.9 10.4 6-.5.9zm-15.4-8.9l-10.4-6 .5-.9 10.4 6-.5.9zm-15.5-8.9l-10.4-6 .5-.9 10.4 6-.5.9zm-15.5-9l-10.4-6 .5-.9 10.4 6-.5.9zm-15.4-8.9l-10.4-6 .5-.9 10.4 6-.5.9zm-15.5-8.9l-10.4-6 .5-.9 10.4 6-.5.9zm-15.4-8.9l-10.4-6 .5-.9 10.4 6-.5.9zm-15.5-9l-10.4-6 .5-.9 10.4 6-.5.9zm-15.4-8.9l-10.4-6 .5-.9 10.4 6-.5.9zm-15.5-8.9l-10.4-6 .5-.9 10.4 6-.5.9zm-15.5-8.9l-10.4-6 .5-.9 10.4 6-.5.9zm-15.4-9l-10.4-6 .5-.9 10.4 6-.5.9zm-15.5-8.9l-10.4-6 .5-.9 10.4 6-.5.9zm-15.4-8.9l-10.4-6 .5-.9 10.4 6-.5.9zm-15.5-8.9l-10.4-6 .5-.9 10.4 6-.5.9zm-15.4-9l-10.4-6 .5-.9 10.4 6-.5.9zm-15.5-8.9l-10.4-6 .5-.9 10.4 6-.5.9zm-15.5-8.9l-10.4-6 .5-.9 10.4 6-.5.9zm-15.4-8.9l-10.4-6 .5-.9 10.4 6-.5.9zm-15.5-9l-10.4-6 .5-.9 10.4 6-.5.9zm-15.4-8.9l-10.4-6 .5-.9 10.4 6-.5.9zm-15.5-8.9l-10.4-6 .5-.9 10.4 6-.5.9zm-15.4-8.9l-10.4-6 .5-.9 10.4 6-.5.9zm-15.5-9l-10.4-6 .5-.9 10.4 6-.5.9zm-15.5-8.9l-10.4-6 .5-.9 10.4 6-.5.9zm-15.4-8.9l-10.4-6 .5-.9 10.4 6-.5.9zm-15.5-8.9l-10.4-6 .5-.9 10.4 6-.5.9zm-15.4-9l-10.4-6 .5-.9 10.4 6-.5.9zm-15.5-8.9l-10.4-6 .5-.9 10.4 6-.5.9zm-15.5-8.9l-10.4-6 .5-.9 10.4 6-.5.9zm-15.4-8.9l-10.4-6 .5-.9 10.4 6-.5.9zm-15.5-9l-10.4-6 .5-.9 10.4 6-.5.9zm-15.4-8.9l-10.4-6 .5-.9 10.4 6-.5.9zm-15.5-8.9l-10.4-6 .5-.9 10.4 6-.5.9zm-15.4-8.9l-10.4-6 .5-.9 10.4 6-.5.9zm-15.5-9l-10.4-6 .5-.9 10.4 6-.5.9zm-15.5-8.9l-10.4-6 .5-.9 10.4 6-.5.9zm-15.4-8.9l-10.4-6 .5-.9 10.4 6-.5.9zm-15.5-8.9l-10.4-6 .5-.9 10.4 6-.5.9zm-15.4-8.9l-10.4-6 .5-.9 10.4 6-.5.9zm-15.5-9l-10.4-6 .5-.9 10.4 6-.5.9zm-15.4-8.9l-10.4-6 .5-.9 10.4 6-.5.9zm-15.5-8.9l-10.4-6 .5-.9 10.4 6-.5.9zm-15.5-8.9l-10.4-6 .5-.9 10.4 6-.5.9zm-15.4-9l-10.4-6 .5-.9 10.4 6-.5.9zm-15.5-8.9l-10.4-6 .5-.9 10.4 6-.5.9zm-15.4-8.9l-10.4-6 .5-.9 10.4 6-.5.9z"/><path class="st0" d="M203.7 1334.6h-1v-12h1v12zm0-17.8h-1v-12h1v12zm0-17.8h-1v-12h1v12zm0-17.8h-1v-12h1v12zm0-17.8h-1v-12h1v12zm0-17.8h-1v-12h1v12zm0-17.8h-1v-12h1v12zm0-17.8h-1v-12h1v12zm0-17.8h-1v-12h1v12zm0-17.8h-1v-12h1v12zm0-17.8h-1v-12h1v12zm0-17.8h-1v-12h1v12zm0-17.8h-1v-12h1v12zm0-17.8h-1v-12h1v12zm0-17.8h-1v-12h1v12zm0-17.8h-1v-12h1v12zm0-17.8h-1v-12h1v12zm0-17.8h-1v-12h1v12zm0-17.8h-1v-12h1v12zm0-17.8h-1v-12h1v12zm0-17.8h-1v-12h1v12zm0-17.8h-1v-12h1v12zm0-17.8h-1v-12h1v12zm0-17.8h-1v-12h1v12zm0-17.8h-1v-12h1v12zm0-17.8h-1v-12h1v12zm0-17.8h-1v-12h1v12zm0-17.8h-1v-12h1v12zm0-17.8h-1v-12h1v12zm0-17.8h-1v-12h1v12zm0-17.8h-1v-12h1v12zm0-17.8h-1v-12h1v12zm0-17.8h-1v-12h1v12zm0-17.8h-1v-12h1v12zm0-17.8h-1v-12h1v12zm0-17.8h-1v-12h1v12zm0-17.8h-1v-12h1v12zm0-17.8h-1v-12h1v12zm0-17.8h-1v-12h1v12zm0-17.8h-1v-12h1v12zm0-17.8h-1v-12h1v12zm0-17.8h-1v-12h1v12zm0-17.8h-1v-12h1v12zm0-17.8h-1v-12h1v12zm0-17.8h-1v-12h1v12zm0-17.8h-1v-12h1v12zm0-17.8h-1v-12h1v12zm0-17.8h-1v-12h1v12zm0-17.8h-1v-12h1v12zm0-17.8h-1v-12h1v12zm0-17.8h-1v-12h1v12zm0-17.8h-1v-12h1v12zm0-17.8h-1v-12h1v12zm0-17.8h-1v-12h1v12zm0-17.8h-1v-12h1v12zm0-17.8h-1v-12h1v12zm0-17.8h-1v-12h1v12zm0-17.8h-1v-12h1v12zm0-17.8h-1v-12h1v12zm0-17.8h-1v-12h1v12zm0-17.8h-1v-12h1v12zm0-17.8h-1v-12h1v12zm0-17.8h-1v-12h1v12zm0-17.8h-1v-12h1v12zm0-17.8h-1v-12h1v12zm0-17.8h-1v-12h1v12zm0-17.8h-1v-12h1v12zm0-17.8h-1v-12h1v12zm0-17.8h-1v-12h1v12zm0-17.8h-1v-12h1v12zm0-17.8h-1v-12h1v12zm0-17.8h-1v-12h1v12zm0-17.8h-1V41h1v12z"/></g><g id="grey"><path class="st1" d="M1014 891.3l-10.4-6 .5-.9 10.4 6-.5.9zm-15.4-8.9l-10.4-6 .5-.9 10.4 6-.5.9zm-15.5-8.9l-10.4-6 .5-.9 10.4 6-.5.9zm-15.4-8.9l-10.4-6 .5-.9 10.4 6-.5.9zm-15.5-9l-10.4-6 .5-.9 10.4 6-.5.9zm-15.4-8.9l-10.4-6 .5-.9 10.4 6-.5.9zm-15.4-8.9l-10.4-6 .5-.9 10.4 6-.5.9zm-15.5-8.9l-10.4-6 .5-.9 10.4 6-.5.9zm-15.4-8.9l-10.4-6 .5-.9 10.4 6-.5.9zm-15.5-8.9l-10.4-6 .5-.9 10.4 6-.5.9zm-15.4-8.9l-10.4-6 .5-.9 10.4 6-.5.9zm-15.4-9l-10.4-6 .5-.9 10.4 6-.5.9zm-15.5-8.9l-10.4-6 .5-.9 10.4 6-.5.9zm-15.4-8.9l-10.4-6 .5-.9 10.4 6-.5.9zm-15.5-8.9l-10.4-6 .5-.9 10.4 6-.5.9zm-15.4-8.9l-10.4-6 .5-.9 10.4 6-.5.9zm-15.4-8.9l-10.4-6 .5-.9 10.4 6-.5.9zm-15.5-8.9l-10.4-6 .5-.9 10.4 6-.5.9zm-15.4-9l-10.4-6 .5-.9 10.4 6-.5.9zm-15.5-8.9l-10.4-6 .5-.9 10.4 6-.5.9zm-15.4-8.9l-10.4-6 .5-.9 10.4 6-.5.9zm-15.4-8.9l-10.4-6 .5-.9 10.4 6-.5.9zm-15.5-8.9l-10.4-6 .5-.9 10.4 6-.5.9zm-15.4-8.9l-10.4-6 .5-.9 10.4 6-.5.9zm-15.5-8.9l-10.4-6 .5-.9 10.4 6-.5.9zm-15.4-9l-10.4-6 .5-.9 10.4 6-.5.9zm-15.4-8.9l-10.4-6 .5-.9 10.4 6-.5.9zm-15.5-8.9l-10.4-6 .5-.9 10.4 6-.5.9zm-15.4-8.9l-10.4-6 .5-.9 10.4 6-.5.9zm-15.5-8.9l-10.4-6 .5-.9 10.4 6-.5.9zm-15.4-8.9l-10.4-6 .5-.9 10.4 6-.5.9zm-15.4-8.9l-10.4-6 .5-.9 10.4 6-.5.9zm-15.5-9l-10.4-6 .5-.9 10.4 6-.5.9zm-15.4-8.9l-10.4-6 .5-.9 10.4 6-.5.9zm-15.5-8.9l-10.4-6 .5-.9 10.4 6-.5.9zm-15.4-8.9l-10.4-6 .5-.9 10.4 6-.5.9zm-15.4-8.9l-10.4-6 .5-.9 10.4 6-.5.9zm-15.5-8.9l-10.4-6 .5-.9 10.4 6-.5.9zm-15.4-8.9l-10.4-6 .5-.9 10.4 6-.5.9zm-15.5-9l-10.4-6 .5-.9 10.4 6-.5.9zm-15.4-8.9l-10.4-6 .5-.9 10.4 6-.5.9zm-15.4-8.9l-10.4-6 .5-.9 10.4 6-.5.9zm-15.5-8.9l-10.4-6 .5-.9 10.4 6-.5.9zm-15.4-8.9l-10.4-6 .5-.9 10.4 6-.5.9zm-15.5-8.9l-10.4-6 .5-.9 10.4 6-.5.9zm-15.4-8.9l-10.4-6 .5-.9 10.4 6-.5.9zm-15.4-9l-10.4-6 .5-.9 10.4 6-.5.9zm-15.5-8.9l-10.4-6 .5-.9 10.4 6-.5.9zm-15.4-8.9l-10.4-6 .5-.9 10.4 6-.5.9zm-15.5-8.9l-10.4-6 .5-.9 10.4 6-.5.9zm-15.4-8.9l-10.4-6 .5-.9 10.4 6-.5.9zm-15.4-8.9l-10.4-6 .5-.9 10.4 6-.5.9zm-15.5-8.9l-10.4-6 .5-.9 10.4 6-.5.9zm-15.4-9l-10.4-6 .5-.9 10.4 6-.5.9zm-15.5-8.9l-10.4-6 .5-.9 10.4 6-.5.9zm-15.4-8.9l-10.4-6 .5-.9 10.4 6-.5.9zm-15.4-8.9l-10.4-6 .5-.9 10.4 6-.5.9zm-15.5-8.9l-10.4-6 .5-.9 10.4 6-.5.9zm-15.4-8.9l-10.4-6 .5-.9 10.4 6-.5.9zm-15.5-8.9l-10.4-6 .5-.9 10.4 6-.5.9zm-15.4-9l-10.4-6 .5-.9 10.4 6-.5.9zm-15.4-8.9l-10.4-6 .5-.9 10.4 6-.5.9zm-15.5-8.9l-10.4-6 .5-.9 10.4 6-.5.9zm-15.4-8.9l-10.4-6 .5-.9 10.4 6-.5.9zm-15.5-8.9l-10.4-6 .5-.9 10.4 6-.5.9zm-15.4-8.9l-10.4-6 .5-.9 10.4 6-.5.9zM1019.05 894.238l.5-.866 5.195 3-.5.866zM902.2 981l-10.4-6 .5-.9 10.4 6-.5.9zm-15.3-8.8l-10.4-6 .5-.9 10.4 6-.5.9zm-15.4-8.9l-10.4-6 .5-.9 10.4 6-.5.9zm-15.3-8.9l-10.4-6 .5-.9 10.4 6-.5.9zm-15.4-8.9l-10.4-6 .5-.9 10.4 6-.5.9zm-15.4-8.8l-10.4-6 .5-.9 10.4 6-.5.9zm-15.3-8.9l-10.4-6 .5-.9 10.4 6-.5.9zm-15.4-8.9l-10.4-6 .5-.9 10.4 6-.5.9zm-15.3-8.8l-10.4-6 .5-.9 10.4 6-.5.9zm-15.4-8.9l-10.4-6 .5-.9 10.4 6-.5.9zm-15.4-8.9l-10.4-6 .5-.9 10.4 6-.5.9zm-15.3-8.8l-10.4-6 .5-.9 10.4 6-.5.9zm-15.4-8.9l-10.4-6 .5-.9 10.4 6-.5.9zm-15.3-8.9l-10.4-6 .5-.9 10.4 6-.5.9zm-15.4-8.8l-10.4-6 .5-.9 10.4 6-.5.9zm-15.4-8.9l-10.4-6 .5-.9 10.4 6-.5.9zm-15.3-8.9l-10.4-6 .5-.9 10.4 6-.5.9zm-15.4-8.8l-10.4-6 .5-.9 10.4 6-.5.9zm-15.3-8.9l-10.4-6 .5-.9 10.4 6-.5.9zm-15.4-8.9l-10.4-6 .5-.9 10.4 6-.5.9zm-15.4-8.8l-10.4-6 .5-.9 10.4 6-.5.9zm-15.3-8.9l-10.4-6 .5-.9 10.4 6-.5.9zm-15.4-8.9l-10.4-6 .5-.9 10.4 6-.5.9zm-15.3-8.8l-10.4-6 .5-.9 10.4 6-.5.9zm-15.4-8.9l-10.4-6 .5-.9 10.4 6-.5.9zm-15.4-8.9l-10.4-6 .5-.9 10.4 6-.5.9zm-15.3-8.8l-10.4-6 .5-.9 10.4 6-.5.9zm-15.4-8.9l-10.4-6 .5-.9 10.4 6-.5.9zm-15.3-8.9l-10.4-6 .5-.9 10.4 6-.5.9zm-15.4-8.9l-10.4-6 .5-.9 10.4 6-.5.9zm-15.4-8.8l-10.4-6 .5-.9 10.4 6-.5.9zm-15.3-8.9l-10.4-6 .5-.9 10.4 6-.5.9zm-15.4-8.9l-10.4-6 .5-.9 10.4 6-.5.9zm-15.3-8.8l-10.4-6 .5-.9 10.4 6-.5.9zm-15.4-8.9l-10.4-6 .5-.9 10.4 6-.5.9zm-15.4-8.9l-10.4-6 .5-.9 10.4 6-.5.9zm-15.3-8.8l-10.4-6 .5-.9 10.4 6-.5.9zm-15.4-8.9l-10.4-6 .5-.9 10.4 6-.5.9zm-15.3-8.9l-10.4-6 .5-.9 10.4 6-.5.9zm-15.4-8.8l-10.4-6 .5-.9 10.4 6-.5.9zm-15.4-8.9l-10.4-6 .5-.9 10.4 6-.5.9zm-15.3-8.9l-10.4-6 .5-.9 10.4 6-.5.9zm-15.4-8.8l-10.4-6 .5-.9 10.4 6-.5.9zm-15.3-8.9l-10.4-6 .5-.9 10.4 6-.5.9zm-15.4-8.9l-10.4-6 .5-.9 10.4 6-.5.9zM211 582l-10.4-6 .5-.9 10.4 6-.5.9zm-15.3-8.9l-10.4-6 .5-.9 10.4 6-.5.9zm-15.4-8.9l-10.4-6 .5-.9 10.4 6-.5.9zm-15.3-8.8l-10.4-6 .5-.9 10.4 6-.5.9zm-15.4-8.9l-10.4-6 .5-.9 10.4 6-.5.9zm-15.4-8.9l-10.4-6 .5-.9 10.4 6-.5.9zm-15.3-8.8l-10.4-6 .5-.9 10.4 6-.5.9zm-15.4-8.9l-10.4-6 .5-.9 10.4 6-.5.9zM88.2 511l-10.4-6 .5-.9 10.4 6-.5.9zm-15.4-8.9l-10.4-6 .5-.9 10.4 6-.5.9zm-15.4-8.8l-10.4-6 .5-.9 10.4 6-.5.9zm-15.3-8.9l-10.4-6 .5-.9 10.4 6-.5.9zm-15.4-8.9l-10.4-6 .5-.9 10.4 6-.5.9zm-15.3-8.8l-10.4-6 .5-.9 10.4 6-.5.9zM907.312 983.943l.5-.866 5.196 3-.5.867zM1013.3 1157.2l-10.4-6 .5-.9 10.4 6-.5.9zm-15.4-8.9l-10.4-6 .5-.9 10.4 6-.5.9zm-15.4-8.9l-10.4-6 .5-.9 10.4 6-.5.9zm-15.5-8.9l-10.4-6 .5-.9 10.4 6-.5.9zm-15.4-8.9l-10.4-6 .5-.9 10.4 6-.5.9zm-15.4-8.9l-10.4-6 .5-.9 10.4 6-.5.9zm-15.5-8.9l-10.4-6 .5-.9 10.4 6-.5.9zm-15.4-8.9l-10.4-6 .5-.9 10.4 6-.5.9zm-15.4-8.9l-10.4-6 .5-.9 10.4 6-.5.9zm-15.5-8.9l-10.4-6 .5-.9 10.4 6-.5.9zm-15.4-8.9l-10.4-6 .5-.9 10.4 6-.5.9zm-15.4-8.9l-10.4-6 .5-.9 10.4 6-.5.9zm-15.4-9l-10.4-6 .5-.9 10.4 6-.5.9zm-15.5-8.9l-10.4-6 .5-.9 10.4 6-.5.9zm-15.4-8.9l-10.4-6 .5-.9 10.4 6-.5.9zm-15.4-8.9l-10.4-6 .5-.9 10.4 6-.5.9zm-15.5-8.9l-10.4-6 .5-.9 10.4 6-.5.9zm-15.4-8.9l-10.4-6 .5-.9 10.4 6-.5.9zm-15.4-8.9l-10.4-6 .5-.9 10.4 6-.5.9zm-15.4-8.9l-10.4-6 .5-.9 10.4 6-.5.9zm-15.5-8.9l-10.4-6 .5-.9 10.4 6-.5.9zm-15.4-8.9l-10.4-6 .5-.9 10.4 6-.5.9zm-15.4-8.9l-10.4-6 .5-.9 10.4 6-.5.9zm-15.5-8.9l-10.4-6 .5-.9 10.4 6-.5.9zm-15.4-9l-10.4-6 .5-.9 10.4 6-.5.9zm-15.4-8.9l-10.4-6 .5-.9 10.4 6-.5.9zm-15.5-8.9l-10.4-6 .5-.9 10.4 6-.5.9zm-15.4-8.9l-10.4-6 .5-.9 10.4 6-.5.9zm-15.4-8.9l-10.4-6 .5-.9 10.4 6-.5.9zm-15.4-8.9l-10.4-6 .5-.9 10.4 6-.5.9zm-15.5-8.9l-10.4-6 .5-.9 10.4 6-.5.9zm-15.4-8.9l-10.4-6 .5-.9 10.4 6-.5.9zm-15.4-8.9l-10.4-6 .5-.9 10.4 6-.5.9zm-15.5-8.9l-10.4-6 .5-.9 10.4 6-.5.9zm-15.4-8.9l-10.4-6 .5-.9 10.4 6-.5.9zm-15.4-8.9l-10.4-6 .5-.9 10.4 6-.5.9zm-15.4-8.9l-10.4-6 .5-.9 10.4 6-.5.9zm-15.5-9l-10.4-6 .5-.9 10.4 6-.5.9zm-15.4-8.9l-10.4-6 .5-.9 10.4 6-.5.9zm-15.4-8.9l-10.4-6 .5-.9 10.4 6-.5.9zm-15.5-8.9l-10.4-6 .5-.9 10.4 6-.5.9zm-15.4-8.9l-10.4-6 .5-.9 10.4 6-.5.9zm-15.4-8.9l-10.4-6 .5-.9 10.4 6-.5.9zm-15.5-8.9l-10.4-6 .5-.9 10.4 6-.5.9zm-15.4-8.9l-10.4-6 .5-.9 10.4 6-.5.9zm-15.4-8.9l-10.4-6 .5-.9 10.4 6-.5.9zm-15.4-8.9l-10.4-6 .5-.9 10.4 6-.5.9zm-15.5-8.9l-10.4-6 .5-.9 10.4 6-.5.9zm-15.4-8.9l-10.4-6 .5-.9 10.4 6-.5.9zm-15.4-9l-10.4-6 .5-.9 10.4 6-.5.9zm-15.5-8.9l-10.4-6 .5-.9 10.4 6-.5.9zm-15.4-8.9l-10.4-6 .5-.9 10.4 6-.5.9zM211 694l-10.4-6 .5-.9 10.4 6-.5.9zm-15.4-8.9l-10.4-6 .5-.9 10.4 6-.5.9zm-15.5-8.9l-10.4-6 .5-.9 10.4 6-.5.9zm-15.4-8.9l-10.4-6 .5-.9 10.4 6-.5.9zm-15.4-8.9l-10.4-6 .5-.9 10.4 6-.5.9zm-15.5-8.9l-10.4-6 .5-.9 10.4 6-.5.9zm-15.4-8.9l-10.4-6 .5-.9 10.4 6-.5.9zm-15.4-8.9l-10.4-6 .5-.9 10.4 6-.5.9zm-15.5-8.9l-10.4-6 .5-.9 10.4 6-.5.9zm-15.4-9l-10.4-6 .5-.9 10.4 6-.5.9zm-15.4-8.9l-10.4-6 .5-.9 10.4 6-.5.9zM41.3 596l-10.4-6 .5-.9 10.4 6-.5.9zm-15.5-8.9l-10.4-6 .5-.9 10.4 6-.5.9zm-15.4-8.9l-10.4-6 .5-.9 10.4 6-.5.9zM1018.306 1160.17l.5-.866 5.196 3-.5.866zM901 1201.7l-10.4-6 .5-.9 10.4 6-.5.9zm-15.4-8.9l-10.4-6 .5-.9 10.4 6-.5.9zm-15.3-8.8l-10.4-6 .5-.9 10.4 6-.5.9zm-15.4-8.9l-10.4-6 .5-.9 10.4 6-.5.9zm-15.3-8.9l-10.4-6 .5-.9 10.4 6-.5.9zm-15.4-8.8l-10.4-6 .5-.9 10.4 6-.5.9zm-15.3-8.9l-10.4-6 .5-.9 10.4 6-.5.9zm-15.4-8.9l-10.4-6 .5-.9 10.4 6-.5.9zm-15.4-8.8l-10.4-6 .5-.9 10.4 6-.5.9zm-15.3-8.9l-10.4-6 .5-.9 10.4 6-.5.9zm-15.4-8.9l-10.4-6 .5-.9 10.4 6-.5.9zm-15.3-8.8l-10.4-6 .5-.9 10.4 6-.5.9zm-15.4-8.9l-10.4-6 .5-.9 10.4 6-.5.9zm-15.3-8.9l-10.4-6 .5-.9 10.4 6-.5.9zm-15.4-8.8l-10.4-6 .5-.9 10.4 6-.5.9zm-15.4-8.9l-10.4-6 .5-.9 10.4 6-.5.9zm-15.3-8.9l-10.4-6 .5-.9 10.4 6-.5.9zm-15.4-8.8l-10.4-6 .5-.9 10.4 6-.5.9zm-15.3-8.9l-10.4-6 .5-.9 10.4 6-.5.9zm-15.4-8.9l-10.4-6 .5-.9 10.4 6-.5.9zm-15.3-8.8l-10.4-6 .5-.9 10.4 6-.5.9zm-15.4-8.9l-10.4-6 .5-.9 10.4 6-.5.9zm-15.3-8.9l-10.4-6 .5-.9 10.4 6-.5.9zm-15.4-8.8l-10.4-6 .5-.9 10.4 6-.5.9zm-15.4-8.9l-10.4-6 .5-.9 10.4 6-.5.9zm-15.3-8.9l-10.4-6 .5-.9 10.4 6-.5.9zm-15.4-8.8l-10.4-6 .5-.9 10.4 6-.5.9zm-15.3-8.9l-10.4-6 .5-.9 10.4 6-.5.9zm-15.4-8.8l-10.4-6 .5-.9 10.4 6-.5.9zm-15.3-8.9l-10.4-6 .5-.9 10.4 6-.5.9zm-15.4-8.9l-10.4-6 .5-.9 10.4 6-.5.9zm-15.3-8.8l-10.4-6 .5-.9 10.4 6-.5.9zm-15.4-8.9l-10.4-6 .5-.9 10.4 6-.5.9zm-15.4-8.9l-10.4-6 .5-.9 10.4 6-.5.9zm-15.3-8.8l-10.4-6 .5-.9 10.4 6-.5.9zm-15.4-8.9l-10.4-6 .5-.9 10.4 6-.5.9zm-15.3-8.9l-10.4-6 .5-.9 10.4 6-.5.9zm-15.4-8.8l-10.4-6 .5-.9 10.4 6-.5.9zm-15.3-8.9l-10.4-6 .5-.9 10.4 6-.5.9zm-15.4-8.9l-10.4-6 .5-.9 10.4 6-.5.9zm-15.3-8.8l-10.4-6 .5-.9 10.4 6-.5.9zm-15.4-8.9l-10.4-6 .5-.9 10.4 6-.5.9zm-15.4-8.9l-10.4-6 .5-.9 10.4 6-.5.9zm-15.3-8.8l-10.4-6 .5-.9 10.4 6-.5.9zm-15.4-8.9l-10.4-6 .5-.9 10.4 6-.5.9zm-15.3-8.9l-10.4-6 .5-.9 10.4 6-.5.9zm-15.4-8.8l-10.4-6 .5-.9 10.4 6-.5.9zm-15.3-8.9l-10.4-6 .5-.9 10.4 6-.5.9zm-15.4-8.9l-10.4-6 .5-.9 10.4 6-.5.9zm-15.3-8.8l-10.4-6 .5-.9 10.4 6-.5.9zm-15.4-8.9l-10.4-6 .5-.9 10.4 6-.5.9zm-15.4-8.9l-10.4-6 .5-.9 10.4 6-.5.9zm-15.3-8.8l-10.4-6 .5-.9 10.4 6-.5.9zm-15.4-8.9l-10.4-6 .5-.9 10.4 6-.5.9zm-15.3-8.9l-10.4-6 .5-.9 10.4 6-.5.9zm-15.4-8.8l-10.4-6 .5-.9 10.4 6-.5.9zm-15.3-8.9l-10.4-6 .5-.9 10.4 6-.5.9zm-15.4-8.8l-10.4-6 .5-.9 10.4 6-.5.9zm-15.3-8.9l-10.4-6 .5-.9 10.4 6-.5.9zM905.902 1204.63l.5-.866 5.196 3-.5.866z"/><g><path class="st1" d="M.5 1054.5l-.5-.9 10.4-6 .5.9-10.4 6zm15.5-8.9l-.5-.9 10.4-6 .5.9-10.4 6zm15.4-9l-.5-.9 10.4-6 .5.9-10.4 6zm15.5-8.9l-.5-.9 10.4-6 .5.9-10.4 6zm15.5-8.9l-.5-.9 10.4-6 .5.9-10.4 6zm15.5-9l-.5-.9 10.4-6 .5.9-10.4 6zm15.4-8.9l-.5-.9 10.4-6 .5.9-10.4 6zm15.5-8.9l-.5-.9 10.4-6 .5.9-10.4 6zm15.5-9l-.5-.9 10.4-6 .5.9-10.4 6zm15.4-8.9l-.5-.9 10.4-6 .5.9-10.4 6zm15.5-8.9l-.5-.9 10.4-6 .5.9-10.4 6zm15.5-9l-.5-.9 10.4-6 .5.9-10.4 6zm15.5-8.9l-.5-.9 10.4-6 .5.9-10.4 6zm15.4-8.9l-.5-.9 10.4-6 .5.9-10.4 6zm15.5-9l-.5-.9 10.4-6 .5.9-10.4 6zm15.5-8.9l-.5-.9 10.4-6 .5.9-10.4 6zm15.5-8.9l-.5-.9 10.4-6 .5.9-10.4 6zm15.4-8.9l-.5-.9 10.4-6 .5.9-10.4 6zm15.5-9l-.5-.9 10.4-6 .5.9-10.4 6zm15.5-8.9l-.5-.9 10.4-6 .5.9-10.4 6zm15.4-8.9l-.5-.9 10.4-6 .5.9-10.4 6zm15.5-9l-.5-.9 10.4-6 .5.9-10.4 6zm15.5-8.9l-.5-.9 10.4-6 .5.9-10.4 6zm15.5-8.9l-.5-.9 10.4-6 .5.9-10.4 6zm15.4-9l-.5-.9 10.4-6 .5.9-10.4 6zm15.5-8.9l-.5-.9 10.4-6 .5.9-10.4 6zm15.5-8.9l-.5-.9 10.4-6 .5.9-10.4 6zm15.4-9l-.5-.9 10.4-6 .5.9-10.4 6zm15.5-8.9l-.5-.9 10.4-6 .5.9-10.4 6zm15.5-8.9l-.5-.9 10.4-6 .5.9-10.4 6zm15.5-9l-.5-.9 10.4-6 .5.9-10.4 6zm15.4-8.9l-.5-.9 10.4-6 .5.9-10.4 6zm15.5-8.9l-.5-.9 10.4-6 .5.9-10.4 6zm15.5-9l-.5-.9 10.4-6 .5.9-10.4 6zm15.4-8.9l-.5-.9 10.4-6 .5.9-10.4 6zm15.5-8.9l-.5-.9 10.4-6 .5.9-10.4 6zm15.5-9l-.5-.9 10.4-6 .5.9-10.4 6zM573 724l-.5-.9 10.4-6 .5.9-10.4 6zm15.4-8.9l-.5-.9 10.4-6 .5.9-10.4 6zm15.5-9l-.5-.9 10.4-6 .5.9-10.4 6zm15.5-8.9l-.5-.9 10.4-6 .5.9-10.4 6zm15.4-8.9l-.5-.9 10.4-6 .5.9-10.4 6zm15.5-9l-.5-.9 10.4-6 .5.9-10.4 6zm15.5-8.9l-.5-.9 10.4-6 .5.9-10.4 6zm15.5-8.9l-.5-.9 10.4-6 .5.9-10.4 6zm15.4-9l-.5-.9 10.4-6 .5.9-10.4 6zm15.5-8.9l-.5-.9 10.4-6 .5.9-10.4 6zm15.5-8.9l-.5-.9 10.4-6 .5.9-10.4 6zm15.5-9l-.5-.9 10.4-6 .5.9-10.4 6zm15.4-8.9l-.5-.9 10.4-6 .5.9-10.4 6zm15.5-8.9l-.5-.9 10.4-6 .5.9-10.4 6zm15.5-9l-.5-.9 10.4-6 .5.9-10.4 6zM805 590l-.5-.9 10.4-6 .5.9-10.4 6zm15.5-8.9l-.5-.9 10.4-6 .5.9-10.4 6zm15.5-9l-.5-.9 10.4-6 .5.9-10.4 6zm15.5-8.9l-.5-.9 10.4-6 .5.9-10.4 6zm15.4-8.9l-.5-.9 10.4-6 .5.9-10.4 6zm15.5-9l-.5-.9 10.4-6 .5.9-10.4 6zm15.5-8.9l-.5-.9 10.4-6 .5.9-10.4 6zm15.4-8.9l-.5-.9 10.4-6 .5.9-10.4 6zm15.5-9l-.5-.9 10.4-6 .5.9-10.4 6zm15.5-8.9l-.5-.9 10.4-6 .5.9-10.4 6zm15.5-8.9l-.5-.9 10.4-6 .5.9-10.4 6zm15.4-9l-.5-.9 10.4-6 .5.9-10.4 6zm15.5-8.9l-.5-.9 10.4-6 .5.9-10.4 6zm15.5-8.9l-.5-.9 10.4-6 .5.9-10.4 6zm15.4-9l-.5-.9 10.4-6 .5.9-10.4 6zm15.5-8.9l-.5-.9 10.4-6 .5.9-10.4 6zm15.5-8.9l-.5-.9 10.4-6 .5.9-10.4 6zm15.5-8.9l-.5-.9 10.4-6 .5.9-10.4 6zm15.4-9l-.5-.9 10.4-6 .5.9-10.4 6zm15.5-8.9l-.5-.9 10.4-6 .5.9-10.4 6zm15.5-8.9l-.5-.9 10.4-6 .5.9-10.4 6zm15.4-9l-.5-.9 10.4-6 .5.9-10.4 6zm15.5-8.9l-.5-.9 10.4-6 .5.9-10.4 6zm15.5-8.9l-.5-.9 10.4-6 .5.9-10.4 6zm15.5-9l-.5-.9 10.4-6 .5.9-10.4 6zm15.4-8.9l-.5-.9 10.4-6 .5.9-10.4 6zM1206.862 356.882l5.197-3 .498.867-5.196 2.998z"/></g><g><path class="st1" d="M.5 1227.7l-.5-.9 10.4-6 .5.9-10.4 6zm15.4-8.9l-.5-.9 10.4-6 .5.9-10.4 6zm15.3-8.9l-.5-.9 10.4-6 .5.9-10.4 6zm15.4-8.9l-.5-.9 10.4-6 .5.9-10.4 6zm15.4-8.9l-.5-.9 10.4-6 .5.9-10.4 6zm15.4-8.8l-.5-.9 10.4-6 .5.9-10.4 6zm15.3-8.9l-.5-.9 10.4-6 .5.9-10.4 6zm15.4-8.9l-.5-.9 10.4-6 .5.9-10.4 6zm15.4-8.9l-.5-.9 10.4-6 .5.9-10.4 6zm15.4-8.8l-.5-.9 10.4-6 .5.9-10.4 6zm15.3-8.9l-.5-.9 10.4-6 .5.9-10.4 6zm15.4-8.9l-.5-.9 10.4-6 .5.9-10.4 6zm15.4-8.9l-.5-.9 10.4-6 .5.9-10.4 6zm15.4-8.8l-.5-.9 10.4-6 .5.9-10.4 6zm15.3-8.9l-.5-.9 10.4-6 .5.9-10.4 6zm15.4-8.9l-.5-.9 10.4-6 .5.9-10.4 6zm15.4-8.9l-.5-.9 10.4-6 .5.9-10.4 6zm15.4-8.8l-.5-.9 10.4-6 .5.9-10.4 6zm15.3-8.9l-.5-.9 10.4-6 .5.9-10.4 6zm15.4-8.9l-.5-.9 10.4-6 .5.9-10.4 6zm15.4-8.9l-.5-.9 10.4-6 .5.9-10.4 6zm15.4-8.8l-.5-.9 10.4-6 .5.9-10.4 6zm15.3-8.9l-.5-.9 10.4-6 .5.9-10.4 6zm15.4-8.9l-.5-.9 10.4-6 .5.9-10.4 6zm15.4-8.9l-.5-.9 10.4-6 .5.9-10.4 6zm15.3-8.9l-.5-.9 10.4-6 .5.9-10.4 6zm15.4-8.8l-.5-.9 10.4-6 .5.9-10.4 6zm15.4-8.9l-.5-.9 10.4-6 .5.9-10.4 6zm15.4-8.9l-.5-.9 10.4-6 .5.9-10.4 6zm15.3-8.9l-.5-.9 10.4-6 .5.9-10.4 6zm15.4-8.8l-.5-.9 10.4-6 .5.9-10.4 6zm15.4-8.9l-.5-.9 10.4-6 .5.9-10.4 6zm15.4-8.9l-.5-.9 10.4-6 .5.9-10.4 6zm15.3-8.9l-.5-.9 10.4-6 .5.9-10.4 6zm15.4-8.8l-.5-.9 10.4-6 .5.9-10.4 6zm15.4-8.9l-.5-.9 10.4-6 .5.9-10.4 6zm15.4-8.9l-.5-.9 10.4-6 .5.9-10.4 6zm15.3-8.9l-.5-.9 10.4-6 .5.9-10.4 6zm15.4-8.8l-.5-.9 10.4-6 .5.9-10.4 6zm15.4-8.9l-.5-.9 10.4-6 .5.9-10.4 6zm15.4-8.9l-.5-.9 10.4-6 .5.9-10.4 6zm15.3-8.9l-.5-.9 10.4-6 .5.9-10.4 6zm15.4-8.8l-.5-.9 10.4-6 .5.9-10.4 6zm15.4-8.9l-.5-.9 10.4-6 .5.9-10.4 6zm15.3-8.9l-.5-.9 10.4-6 .5.9-10.4 6zm15.4-8.9l-.5-.9 10.4-6 .5.9-10.4 6zm15.4-8.8l-.5-.9 10.4-6 .5.9-10.4 6zm15.4-8.9l-.5-.9 10.4-6 .5.9-10.4 6zm15.3-8.9l-.5-.9 10.4-6 .5.9-10.4 6zm15.4-8.9l-.5-.9 10.4-6 .5.9-10.4 6zm15.4-8.9l-.5-.9 10.4-6 .5.9-10.4 6zm15.4-8.8l-.5-.9 10.4-6 .5.9-10.4 6zm15.3-8.9l-.5-.9 10.4-6 .5.9-10.4 6zm15.4-8.9l-.5-.9 10.4-6 .5.9-10.4 6zm15.4-8.9l-.5-.9 10.4-6 .5.9-10.4 6zm15.4-8.8l-.5-.9 10.4-6 .5.9-10.4 6zm15.3-8.9l-.5-.9 10.4-6 .5.9-10.4 6zm15.4-8.9l-.5-.9 10.4-6 .5.9-10.4 6zm15.4-8.9l-.5-.9 10.4-6 .5.9-10.4 6zm15.4-8.8l-.5-.9 10.4-6 .5.9-10.4 6zm15.3-8.9l-.5-.9 10.4-6 .5.9-10.4 6zm15.4-8.9l-.5-.9 10.4-6 .5.9-10.4 6zm15.4-8.9l-.5-.9 10.4-6 .5.9-10.4 6zm15.3-8.8l-.5-.9 10.4-6 .5.9-10.4 6zM983.87 658.686l5.194-3.002.5.866-5.194 3z"/></g><g><path class="st1" d="M.5 551.5l-.5-.9 10.4-6 .5.9-10.4 6zm15.4-8.9l-.5-.9 10.4-6 .5.9-10.4 6zm15.4-8.9l-.5-.9 10.4-6 .5.9-10.4 6zm15.4-8.9l-.5-.9 10.4-6 .5.9-10.4 6zm15.4-8.9l-.5-.9 10.4-6 .5.9-10.4 6zm15.4-8.9l-.5-.9 10.4-6 .5.9-10.4 6zm15.4-8.8l-.5-.9 10.4-6 .5.9-10.4 6zm15.4-8.9l-.5-.9 10.4-6 .5.9-10.4 6zm15.4-8.9l-.5-.9 10.4-6 .5.9-10.4 6zm15.4-8.9l-.5-.9 10.4-6 .5.9-10.4 6zm15.4-8.9l-.5-.9 10.4-6 .5.9-10.4 6zm15.4-8.9l-.5-.9 10.4-6 .5.9-10.4 6zm15.4-8.9l-.5-.9 10.4-6 .5.9-10.4 6zm15.4-8.9l-.5-.9 10.4-6 .5.9-10.4 6zm15.4-8.9l-.5-.9 10.4-6 .5.9-10.4 6zm15.4-8.9l-.5-.9 10.4-6 .5.9-10.4 6zm15.4-8.9l-.5-.9 10.4-6 .5.9-10.4 6zm15.4-8.8l-.5-.9 10.4-6 .5.9-10.4 6zm15.4-8.9l-.5-.9 10.4-6 .5.9-10.4 6zm15.4-8.9l-.5-.9 10.4-6 .5.9-10.4 6zm15.4-8.9l-.5-.9 10.4-6 .5.9-10.4 6zm15.4-8.9l-.5-.9 10.4-6 .5.9-10.4 6zm15.4-8.9l-.5-.9 10.4-6 .5.9-10.4 6zm15.4-8.9l-.5-.9 10.4-6 .5.9-10.4 6zm15.4-8.9l-.5-.9 10.4-6 .5.9-10.4 6zm15.4-8.9l-.5-.9 10.4-6 .5.9-10.4 6zm15.4-8.9l-.5-.9 10.4-6 .5.9-10.4 6zm15.4-8.8l-.5-.9 10.4-6 .5.9-10.4 6zm15.4-8.9l-.5-.9 10.4-6 .5.9-10.4 6zm15.4-8.9l-.5-.9 10.4-6 .5.9-10.4 6zm15.3-8.9l-.5-.9 10.4-6 .5.9-10.4 6zm15.4-8.9l-.5-.9 10.4-6 .5.9-10.4 6zm15.4-8.9l-.5-.9 10.4-6 .5.9-10.4 6zm15.4-8.9l-.5-.9 10.4-6 .5.9-10.4 6zm15.4-8.9l-.5-.9 10.4-6 .5.9-10.4 6zm15.4-8.9l-.5-.9 10.4-6 .5.9-10.4 6zm15.4-8.9l-.5-.9 10.4-6 .5.9-10.4 6zm15.4-8.8l-.5-.9 10.4-6 .5.9-10.4 6zm15.4-8.9l-.5-.9 10.4-6 .5.9-10.4 6zM600.544 203.882l5.197-3 .5.867-5.196 3z"/></g><g><path class="st1" d="M.5 836.6l-.5-.8 10.4-6 .5.9-10.4 5.9zm15.4-8.9l-.5-.9 10.4-6 .5.9-10.4 6zm15.5-8.9l-.5-.9 10.4-6 .5.9-10.4 6zm15.4-8.9l-.5-.9 10.4-6 .5.9-10.4 6zm15.5-9l-.5-.9 10.4-6 .5.9-10.4 6zm15.5-8.9l-.5-.9 10.4-6 .5.9-10.4 6zm15.4-8.9l-.5-.9 10.4-6 .5.9-10.4 6zm15.5-8.9l-.5-.9 10.4-6 .5.9-10.4 6zm15.4-9l-.5-.9 10.4-6 .5.9-10.4 6zm15.5-8.9l-.5-.9 10.4-6 .5.9-10.4 6zm15.5-8.9l-.5-.9 10.4-6 .5.9-10.4 6zm15.4-8.9l-.5-.9 10.4-6 .5.9-10.4 6zm15.5-9l-.5-.9 10.4-6 .5.9-10.4 6zm15.4-8.9l-.5-.9 10.4-6 .5.9-10.4 6zm15.5-8.9l-.5-.9 10.4-6 .5.9-10.4 6zm15.4-8.9l-.5-.9 10.4-6 .5.9-10.4 6zm15.5-9l-.5-.9 10.4-6 .5.9-10.4 6zm15.5-8.9l-.5-.9 10.4-6 .5.9-10.4 6zm15.4-8.9l-.5-.9 10.4-6 .5.9-10.4 6zm15.5-8.9l-.5-.9 10.4-6 .5.9-10.4 6zm15.4-9l-.5-.9 10.4-6 .5.9-10.4 6zm15.5-8.9l-.5-.9 10.4-6 .5.9-10.4 6zm15.4-8.9l-.5-.9 10.4-6 .5.9-10.4 6zm15.5-8.9l-.5-.9 10.4-6 .5.9-10.4 6zm15.5-9l-.5-.9 10.4-6 .5.9-10.4 6zm15.4-8.9l-.5-.9 10.4-6 .5.9-10.4 6zm15.5-8.9l-.5-.9 10.4-6 .5.9-10.4 6zm15.4-8.9l-.5-.9 10.4-6 .5.9-10.4 6zm15.5-9l-.5-.9 10.4-6 .5.9-10.4 6zm15.4-8.9l-.5-.9 10.4-6 .5.9-10.4 6zm15.5-8.9l-.5-.9 10.4-6 .5.9-10.4 6zm15.5-8.9l-.5-.9 10.4-6 .5.9-10.4 6zm15.4-9l-.5-.9 10.4-6 .5.9-10.4 6zm15.5-8.9l-.5-.9 10.4-6 .5.9-10.4 6zm15.4-8.9l-.5-.9 10.4-6 .5.9-10.4 6zm15.5-8.9l-.5-.9 10.4-6 .5.9-10.4 6zm15.5-9l-.5-.9 10.4-6 .5.9-10.4 6zm15.4-8.9l-.5-.9 10.4-6 .5.9-10.4 6zm15.5-8.9l-.5-.9 10.4-6 .5.9-10.4 6zm15.4-8.9l-.5-.9 10.4-6 .5.9-10.4 6zm15.5-9l-.5-.9 10.4-6 .5.9-10.4 6zm15.4-8.9l-.5-.9 10.4-6 .5.9-10.4 6zm15.5-8.9l-.5-.9 10.4-6 .5.9-10.4 6zm15.5-8.9l-.5-.9 10.4-6 .5.9-10.4 6zm15.4-9l-.5-.9 10.4-6 .5.9-10.4 6zm15.5-8.9l-.5-.9 10.4-6 .5.9-10.4 6zm15.4-8.9l-.5-.9 10.4-6 .5.9-10.4 6zm15.5-8.9l-.5-.9 10.4-6 .5.9-10.4 6zm15.4-8.9l-.5-.9 10.4-6 .5.9-10.4 6zm15.5-9l-.5-.9 10.4-6 .5.9-10.4 6zm15.5-8.9l-.5-.9 10.4-6 .5.9-10.4 6zm15.4-8.9l-.5-.9 10.4-6 .5.9-10.4 6zm15.5-8.9l-.5-.9 10.4-6 .5.9-10.4 6zm15.4-9l-.5-.9 10.4-6 .5.9-10.4 6zm15.5-8.9l-.5-.9 10.4-6 .5.9-10.4 6zm15.4-8.9l-.5-.9 10.4-6 .5.9-10.4 6zm15.5-8.9l-.5-.9 10.4-6 .5.9-10.4 6zm15.5-9l-.5-.9 10.4-6 .5.9-10.4 6zM897 319l-.5-.9 10.4-6 .5.9-10.4 6zm15.5-8.9l-.5-.9 10.4-6 .5.9-10.4 6zm15.4-8.9l-.5-.9 10.4-6 .5.9-10.4 6zm15.5-9l-.5-.9 10.4-6 .5.9-10.4 6zm15.5-8.9l-.5-.9 10.4-6 .5.9-10.4 6zm15.4-8.9l-.5-.9 10.4-6 .5.9-10.4 6zm15.5-8.9l-.5-.9 10.4-6 .5.9-10.4 6zm15.4-9l-.5-.9 10.4-6 .5.9-10.4 6zm15.5-8.9l-.5-.9 10.4-6 .5.9-10.4 6zm15.4-8.9l-.5-.9 10.4-6 .5.9-10.4 6zm15.5-8.9l-.5-.9 10.4-6 .5.9-10.4 6zm15.5-9l-.5-.9 10.4-6 .5.9-10.4 6zm15.4-8.9l-.5-.9 10.4-6 .5.9-10.4 6zm15.5-8.9l-.5-.9 10.4-6 .5.9-10.4 6zm15.4-8.9l-.5-.9 10.4-6 .5.9-10.4 6zm15.5-9l-.5-.9 10.4-6 .5.9-10.4 6zm15.4-8.9l-.5-.9 10.4-6 .5.9-10.4 6zm15.5-8.9l-.5-.9 10.4-6 .5.9-10.4 6zm15.5-8.9l-.5-.9 10.4-6 .5.9-10.4 6zm15.4-9l-.5-.9 10.4-6 .5.9-10.4 6zm15.5-8.9l-.5-.9 10.4-6 .5.9-10.4 6zm15.4-8.9l-.5-.9 10.4-6 .5.9-10.4 6zm15.5-8.9l-.5-.9 10.4-6 .5.9-10.4 6zM1252.076 112.89l5.197-3 .5.866-5.197 3z"/></g></g></svg>