<svg id="Layer_1" data-name="Layer 1" xmlns="http://www.w3.org/2000/svg" viewBox="0 0 480 329.67"><defs><style>.cls-1{fill:#a3dbe8}.cls-2{fill:#fff}</style></defs><title>RHDev_homepage_jointext</title><path class="cls-1" d="M67.11 159.21a50.88 50.88 0 0 1-14.73-2.12A49.69 49.69 0 0 1 39.27 151a53.24 53.24 0 0 1-11-9.76 59.19 59.19 0 0 1-8.52-13.15l23.85-11a32.07 32.07 0 0 0 9.8 11.73 23.22 23.22 0 0 0 13.75 4.14 28.06 28.06 0 0 0 8-1.13 15.42 15.42 0 0 0 6.8-4.19 21.69 21.69 0 0 0 4.73-8.42 45 45 0 0 0 1.77-13.84V15.44h27.2v92.23a69.65 69.65 0 0 1-2.07 17.84A49.67 49.67 0 0 1 107.9 139a38.79 38.79 0 0 1-8.28 9.61 41.66 41.66 0 0 1-10.15 6.21 51.67 51.67 0 0 1-11.13 3.35 63 63 0 0 1-11.23 1.04zM200.14 159.21a65 65 0 0 1-20.5-3 56.13 56.13 0 0 1-16-8.18 53 53 0 0 1-11.87-12.22 69.77 69.77 0 0 1-8-15.17 85.78 85.78 0 0 1-4.53-16.95 108.36 108.36 0 0 1 0-35.08 85.8 85.8 0 0 1 4.53-16.95 69.8 69.8 0 0 1 8-15.17 53 53 0 0 1 11.87-12.22 56.18 56.18 0 0 1 16-8.18 71.22 71.22 0 0 1 40.94 0 55.63 55.63 0 0 1 15.91 8.18 53.59 53.59 0 0 1 11.82 12.22 69.9 69.9 0 0 1 8 15.17 86 86 0 0 1 4.53 16.95 108.36 108.36 0 0 1 0 35.08 85.93 85.93 0 0 1-4.53 16.95 69.87 69.87 0 0 1-8 15.17A53.54 53.54 0 0 1 236.5 148a55.57 55.57 0 0 1-15.91 8.18 64.53 64.53 0 0 1-20.45 3.03zm0-26.31q9.46 0 15.91-4.43a34.55 34.55 0 0 0 10.44-11.33 51.76 51.76 0 0 0 5.78-15.14A75.44 75.44 0 0 0 234 86.1a83.4 83.4 0 0 0-.74-11 60.81 60.81 0 0 0-2.41-10.74 50.18 50.18 0 0 0-4.34-9.76 33.25 33.25 0 0 0-6.4-8 28.45 28.45 0 0 0-8.72-5.37 30.46 30.46 0 0 0-11.28-2 28.64 28.64 0 0 0-20.11 7.7 34 34 0 0 0-6.45 8.13 51 51 0 0 0-4.34 9.85 62.24 62.24 0 0 0-2.41 10.64 76.29 76.29 0 0 0 1 26.95 49.74 49.74 0 0 0 5.76 15.08 33.4 33.4 0 0 0 10.49 11q6.54 4.32 16.09 4.32zM286.57 156.75V15.44h27.2v141.3h-27.2zM431.43 156.75l-56.07-82.38q-1.38-2.07-3-5.07t-2.81-5.57q.29 2.27.45 5.27t.15 5.32v82.38H343V15.44h25.62l54.69 81.39q1.28 2 3 4.93t3 5.72q-.3-2.86-.44-5.77t-.15-4.88V15.44h27v141.3h-24.29z"/><path class="cls-2" d="M21.5 322.36v-19.72h3.8v16.06h9.51v3.66H21.5zM42.26 322.7a7.27 7.27 0 0 1-2.81-.52 5.74 5.74 0 0 1-2.12-1.49 6.68 6.68 0 0 1-1.33-2.38 10.91 10.91 0 0 1 0-6.31 6.56 6.56 0 0 1 1.35-2.36 5.84 5.84 0 0 1 2.12-1.48 7.23 7.23 0 0 1 2.8-.52 7.47 7.47 0 0 1 2.5.41 5.42 5.42 0 0 1 2 1.25 5.93 5.93 0 0 1 1.35 2.11 8.27 8.27 0 0 1 .49 3v1a9.89 9.89 0 0 1-.1 1.16h-9.37a3.24 3.24 0 0 0 .33 1.24 3.06 3.06 0 0 0 .69.91 2.91 2.91 0 0 0 1 .56 3.34 3.34 0 0 0 1.14.19 4 4 0 0 0 1.73-.35 3.84 3.84 0 0 0 1.32-1.12l2.25 2.27a6.7 6.7 0 0 1-2.22 1.73 6.9 6.9 0 0 1-3.12.7zm0-11.87a3.3 3.3 0 0 0-2.11.65 2.87 2.87 0 0 0-1 2H45a3.14 3.14 0 0 0-.93-2 2.66 2.66 0 0 0-1.81-.64zM59 322.36v-1a4 4 0 0 1-.6.51 4.44 4.44 0 0 1-.82.45 5.41 5.41 0 0 1-1 .32 6.39 6.39 0 0 1-1.27.12 6.9 6.9 0 0 1-2.08-.3 4.76 4.76 0 0 1-1.68-.91 4.3 4.3 0 0 1-1.11-1.55 4.86 4.86 0 0 1-.41-2.07 4.37 4.37 0 0 1 .49-2.14 4.46 4.46 0 0 1 1.3-1.48 5.5 5.5 0 0 1 1.83-.86 8.07 8.07 0 0 1 2.1-.27 8.24 8.24 0 0 1 1.84.19 7.09 7.09 0 0 1 1.46.5v-.74a2.11 2.11 0 0 0-.67-1.73 3 3 0 0 0-1.92-.55 7.15 7.15 0 0 0-2.35.37 8.69 8.69 0 0 0-2.11 1.06l-1.13-3a9.21 9.21 0 0 1 1.15-.65 10.22 10.22 0 0 1 1.38-.54 10.77 10.77 0 0 1 1.59-.36 11.51 11.51 0 0 1 1.77-.13q.65 0 1.33.07a6.67 6.67 0 0 1 1.34.27 5 5 0 0 1 1.24.59 3.93 3.93 0 0 1 1 1 4.82 4.82 0 0 1 .69 1.5 7.69 7.69 0 0 1 .25 2.11v9.18H59zm-3-2.87a4 4 0 0 0 1.75-.35 5.23 5.23 0 0 0 1.25-.84v-1.55a8 8 0 0 0-1.26-.34 7.71 7.71 0 0 0-1.42-.13 6 6 0 0 0-1.07.09 3 3 0 0 0-.88.29 1.65 1.65 0 0 0-.6.52 1.29 1.29 0 0 0-.22.76 1.31 1.31 0 0 0 .62 1.13 3.17 3.17 0 0 0 1.83.41zM65.47 322.36V308h3.66v1.28a2.74 2.74 0 0 1 1-1.15 2.91 2.91 0 0 1 1.71-.46 4.21 4.21 0 0 1 1.6.29 5 5 0 0 1 1.33.81l-.49 3.34a5.55 5.55 0 0 0-1.15-.6 4.1 4.1 0 0 0-1.48-.24 3.15 3.15 0 0 0-.93.14 1.9 1.9 0 0 0-.79.48 2.43 2.43 0 0 0-.55.95 4.8 4.8 0 0 0-.21 1.53v8h-3.7zM85.33 322.36v-8.44a3.64 3.64 0 0 0-.19-1.25 2.3 2.3 0 0 0-.54-.86 2.11 2.11 0 0 0-.8-.49 3 3 0 0 0-1-.16 3.79 3.79 0 0 0-1.06.14 2.29 2.29 0 0 0-.87.47 2.21 2.21 0 0 0-.58.84 3.3 3.3 0 0 0-.21 1.26v8.5h-3.65V308h3.66v1.36a4.43 4.43 0 0 1 1.63-1.25 5.32 5.32 0 0 1 2.22-.44 6.29 6.29 0 0 1 1.83.27 4.14 4.14 0 0 1 1.62.93 4.78 4.78 0 0 1 1.15 1.75 7.26 7.26 0 0 1 .46 2.68v9.06h-3.67zM114.17 322.36v-8.47a4 4 0 0 0-.22-1.45 2.16 2.16 0 0 0-.55-.83 1.58 1.58 0 0 0-.73-.37 3.8 3.8 0 0 0-.77-.08 4.39 4.39 0 0 0-.86.09 1.93 1.93 0 0 0-.81.37 2.09 2.09 0 0 0-.6.82 3.55 3.55 0 0 0-.24 1.43v8.5h-3.66v-8.47a4 4 0 0 0-.22-1.45 2.16 2.16 0 0 0-.55-.83 1.58 1.58 0 0 0-.74-.37 3.9 3.9 0 0 0-.78-.08 4.23 4.23 0 0 0-.84.09 2 2 0 0 0-.81.37 2.05 2.05 0 0 0-.61.82 3.55 3.55 0 0 0-.24 1.43v8.5h-3.65V308h3.66v1.33a4.25 4.25 0 0 1 1.42-1.22 4.19 4.19 0 0 1 2-.45 4.53 4.53 0 0 1 2.27.52 3.54 3.54 0 0 1 1.42 1.51 4.48 4.48 0 0 1 1.92-1.54 6.41 6.41 0 0 1 2.49-.48 7.77 7.77 0 0 1 2.13.28 4.21 4.21 0 0 1 1.71.94 4.47 4.47 0 0 1 1.13 1.75 7.75 7.75 0 0 1 .41 2.72v9h-3.67zM126.71 322.7a7 7 0 0 1-2.75-.52 5.68 5.68 0 0 1-2.08-1.48 6.72 6.72 0 0 1-1.33-2.36 10.91 10.91 0 0 1 0-6.32 6.8 6.8 0 0 1 1.33-2.38 5.65 5.65 0 0 1 2.08-1.49 7.59 7.59 0 0 1 5.5 0 5.66 5.66 0 0 1 2.08 1.49 6.72 6.72 0 0 1 1.32 2.38 11.05 11.05 0 0 1 0 6.32 6.64 6.64 0 0 1-1.32 2.36 5.68 5.68 0 0 1-2.08 1.48 7 7 0 0 1-2.75.52zm0-3.52a2.72 2.72 0 0 0 1.24-.27 2.55 2.55 0 0 0 .93-.79 3.83 3.83 0 0 0 .58-1.26 7 7 0 0 0 0-3.37 3.93 3.93 0 0 0-.58-1.26 2.54 2.54 0 0 0-.93-.8 2.92 2.92 0 0 0-2.47 0 2.54 2.54 0 0 0-.93.8 3.93 3.93 0 0 0-.58 1.26 7 7 0 0 0 0 3.37 3.83 3.83 0 0 0 .58 1.26 2.55 2.55 0 0 0 .93.79 2.72 2.72 0 0 0 1.23.27zM135.72 322.36V308h3.66v1.28a2.74 2.74 0 0 1 1-1.15 2.91 2.91 0 0 1 1.71-.46 4.21 4.21 0 0 1 1.6.29 5 5 0 0 1 1.33.81l-.49 3.34a5.55 5.55 0 0 0-1.15-.6 4.1 4.1 0 0 0-1.48-.24 3.15 3.15 0 0 0-.93.14 1.9 1.9 0 0 0-.79.48 2.43 2.43 0 0 0-.55.95 4.8 4.8 0 0 0-.21 1.53v8h-3.66zM152.7 322.7a7.28 7.28 0 0 1-2.81-.52 5.75 5.75 0 0 1-2.12-1.49 6.68 6.68 0 0 1-1.34-2.38 10.91 10.91 0 0 1 0-6.32 6.55 6.55 0 0 1 1.35-2.36 5.83 5.83 0 0 1 2.12-1.48 7.23 7.23 0 0 1 2.8-.52 7.47 7.47 0 0 1 2.5.41 5.42 5.42 0 0 1 2 1.25 5.93 5.93 0 0 1 1.35 2.11 8.27 8.27 0 0 1 .49 3v1a9.89 9.89 0 0 1-.1 1.16h-9.38a3.22 3.22 0 0 0 .33 1.24 3.06 3.06 0 0 0 .69.91 2.91 2.91 0 0 0 1 .56 3.34 3.34 0 0 0 1.14.19 4 4 0 0 0 1.73-.35 3.84 3.84 0 0 0 1.35-1.11l2.25 2.27a6.7 6.7 0 0 1-2.23 1.77 6.9 6.9 0 0 1-3.12.66zm0-11.87a3.3 3.3 0 0 0-2.11.65 2.87 2.87 0 0 0-1 2h5.88a3.15 3.15 0 0 0-.93-2 2.66 2.66 0 0 0-1.84-.64zM162.59 322.7a2.46 2.46 0 0 1-.94-.18 2.35 2.35 0 0 1-.75-.49 2.21 2.21 0 0 1-.49-.74 2.31 2.31 0 0 1-.18-.91 2.35 2.35 0 0 1 .18-.92 2.26 2.26 0 0 1 1.24-1.24 2.57 2.57 0 0 1 1.88 0 2.33 2.33 0 0 1 1.26 1.24 2.29 2.29 0 0 1 .19.92 2.27 2.27 0 0 1-.69 1.64 2.43 2.43 0 0 1-.76.49 2.46 2.46 0 0 1-.94.19zM180.33 322.67a8.5 8.5 0 0 1-2.75-.41 7.07 7.07 0 0 1-2.13-1.14 7.27 7.27 0 0 1-1.57-1.7 9.76 9.76 0 0 1-1.05-2.11 12.58 12.58 0 0 1-.59-2.36 16.2 16.2 0 0 1-.19-2.45 14.43 14.43 0 0 1 .19-2.32 12.9 12.9 0 0 1 .6-2.32 10.28 10.28 0 0 1 1.06-2.13 7.79 7.79 0 0 1 1.57-1.76 7.14 7.14 0 0 1 2.12-1.2 8 8 0 0 1 2.74-.44 8.11 8.11 0 0 1 2.57.38 7.69 7.69 0 0 1 2 1 7 7 0 0 1 1.49 1.42 6.88 6.88 0 0 1 .94 1.62l-3.33 1.58a10.09 10.09 0 0 0-.73-1 4.13 4.13 0 0 0-.8-.74 3.37 3.37 0 0 0-.94-.45 4 4 0 0 0-1.16-.16 3.55 3.55 0 0 0-2.6 1 4.43 4.43 0 0 0-.81 1.13 7.61 7.61 0 0 0-.54 1.37 9.36 9.36 0 0 0-.3 1.48 12.63 12.63 0 0 0-.09 1.48 11 11 0 0 0 .25 2.31 7.44 7.44 0 0 0 .77 2.09 4.57 4.57 0 0 0 1.34 1.52 3.3 3.3 0 0 0 2 .58 3.25 3.25 0 0 0 1.11-.19 3.6 3.6 0 0 0 .94-.52 4.76 4.76 0 0 0 .81-.8 8.2 8.2 0 0 0 .71-1l3.49 1.32a10.12 10.12 0 0 1-1.13 2 7.1 7.1 0 0 1-1.53 1.54 7 7 0 0 1-2 1 7.85 7.85 0 0 1-2.46.38zM195.72 322.7a7 7 0 0 1-2.75-.52 5.68 5.68 0 0 1-2.08-1.48 6.72 6.72 0 0 1-1.33-2.36 10.91 10.91 0 0 1 0-6.32 6.8 6.8 0 0 1 1.33-2.38 5.65 5.65 0 0 1 2.08-1.49 7.59 7.59 0 0 1 5.5 0 5.66 5.66 0 0 1 2.08 1.49 6.72 6.72 0 0 1 1.32 2.38 11.05 11.05 0 0 1 0 6.32 6.64 6.64 0 0 1-1.32 2.36 5.68 5.68 0 0 1-2.08 1.48 7 7 0 0 1-2.75.52zm0-3.52a2.72 2.72 0 0 0 1.24-.27 2.55 2.55 0 0 0 .93-.79 3.83 3.83 0 0 0 .58-1.26 7 7 0 0 0 0-3.37 3.93 3.93 0 0 0-.58-1.26 2.54 2.54 0 0 0-.93-.8 2.92 2.92 0 0 0-2.47 0 2.54 2.54 0 0 0-.93.8 3.93 3.93 0 0 0-.58 1.26 7 7 0 0 0 0 3.37 3.83 3.83 0 0 0 .58 1.26 2.55 2.55 0 0 0 .93.79 2.72 2.72 0 0 0 1.23.27zM210 322.7a5.9 5.9 0 0 1-2.45-.49 5.06 5.06 0 0 1-1.88-1.45 6.82 6.82 0 0 1-1.2-2.36 11.19 11.19 0 0 1-.43-3.24 10.18 10.18 0 0 1 .45-3.16 7.15 7.15 0 0 1 1.25-2.36 5.41 5.41 0 0 1 1.89-1.48 5.51 5.51 0 0 1 2.39-.52 4.1 4.1 0 0 1 1.83.38 3.39 3.39 0 0 1 1.24 1v-5.32l3.66-1.66v20.34h-3.66v-1a2.91 2.91 0 0 1-1.22 1 4.4 4.4 0 0 1-1.87.32zm.59-3.52a3.33 3.33 0 0 0 1.5-.3 2.73 2.73 0 0 0 1-.85v-5.69a2.33 2.33 0 0 0-.37-.42 2.71 2.71 0 0 0-.56-.38 3.27 3.27 0 0 0-.71-.27 3.35 3.35 0 0 0-.86-.1 2.47 2.47 0 0 0-2.13 1 5 5 0 0 0-.74 3 6.83 6.83 0 0 0 .19 1.66 3.86 3.86 0 0 0 .55 1.27 2.49 2.49 0 0 0 .9.81 2.63 2.63 0 0 0 1.19.27zM225.84 322.7a7.28 7.28 0 0 1-2.81-.52 5.75 5.75 0 0 1-2.12-1.49 6.68 6.68 0 0 1-1.34-2.38 10.91 10.91 0 0 1 0-6.32 6.55 6.55 0 0 1 1.35-2.36 5.83 5.83 0 0 1 2.12-1.48 7.23 7.23 0 0 1 2.8-.52 7.47 7.47 0 0 1 2.5.41 5.42 5.42 0 0 1 2 1.25 5.93 5.93 0 0 1 1.35 2.11 8.27 8.27 0 0 1 .49 3v1a9.89 9.89 0 0 1-.1 1.16h-9.38a3.22 3.22 0 0 0 .33 1.24 3.06 3.06 0 0 0 .69.91 2.91 2.91 0 0 0 1 .56 3.34 3.34 0 0 0 1.14.19 4 4 0 0 0 1.73-.35 3.84 3.84 0 0 0 1.36-1.13l2.25 2.27A6.7 6.7 0 0 1 229 322a6.9 6.9 0 0 1-3.16.7zm0-11.87a3.3 3.3 0 0 0-2.11.65 2.87 2.87 0 0 0-1 2h5.88a3.15 3.15 0 0 0-.93-2 2.66 2.66 0 0 0-1.84-.64zM256.7 322.36v-8.47a4 4 0 0 0-.22-1.45 2.16 2.16 0 0 0-.55-.83 1.58 1.58 0 0 0-.73-.37 3.8 3.8 0 0 0-.77-.08 4.39 4.39 0 0 0-.86.09 1.93 1.93 0 0 0-.81.37 2.09 2.09 0 0 0-.6.82 3.55 3.55 0 0 0-.24 1.43v8.5h-3.66v-8.47a4 4 0 0 0-.22-1.45 2.16 2.16 0 0 0-.55-.83 1.58 1.58 0 0 0-.74-.37 3.9 3.9 0 0 0-.78-.08 4.23 4.23 0 0 0-.84.09 2 2 0 0 0-.81.37 2.05 2.05 0 0 0-.61.82 3.55 3.55 0 0 0-.24 1.43v8.5h-3.66V308h3.66v1.33a4.25 4.25 0 0 1 1.42-1.22 4.19 4.19 0 0 1 2-.45 4.53 4.53 0 0 1 2.27.52 3.54 3.54 0 0 1 1.42 1.51 4.48 4.48 0 0 1 1.92-1.54 6.41 6.41 0 0 1 2.49-.48 7.77 7.77 0 0 1 2.13.28 4.21 4.21 0 0 1 1.71.94 4.47 4.47 0 0 1 1.13 1.75 7.75 7.75 0 0 1 .41 2.72v9h-3.67zM269.24 322.7a7 7 0 0 1-2.75-.52 5.68 5.68 0 0 1-2.08-1.48 6.72 6.72 0 0 1-1.33-2.36 10.91 10.91 0 0 1 0-6.32 6.8 6.8 0 0 1 1.33-2.38 5.65 5.65 0 0 1 2.08-1.49 7.59 7.59 0 0 1 5.5 0 5.66 5.66 0 0 1 2.08 1.49 6.72 6.72 0 0 1 1.32 2.38 11.05 11.05 0 0 1 0 6.32 6.64 6.64 0 0 1-1.32 2.36 5.68 5.68 0 0 1-2.08 1.48 7 7 0 0 1-2.75.52zm0-3.52a2.72 2.72 0 0 0 1.24-.27 2.55 2.55 0 0 0 .93-.79 3.83 3.83 0 0 0 .58-1.26 7 7 0 0 0 0-3.37 3.93 3.93 0 0 0-.58-1.26 2.54 2.54 0 0 0-.93-.8 2.92 2.92 0 0 0-2.47 0 2.54 2.54 0 0 0-.93.8 3.93 3.93 0 0 0-.58 1.26 7 7 0 0 0 0 3.37 3.83 3.83 0 0 0 .58 1.26 2.55 2.55 0 0 0 .93.79 2.72 2.72 0 0 0 1.23.27zM278.25 322.36V308h3.66v1.28a2.74 2.74 0 0 1 1-1.15 2.91 2.91 0 0 1 1.71-.46 4.21 4.21 0 0 1 1.6.29 5 5 0 0 1 1.33.81l-.55 3.3a5.55 5.55 0 0 0-1.15-.6 4.1 4.1 0 0 0-1.48-.24 3.15 3.15 0 0 0-.93.14 1.9 1.9 0 0 0-.79.48 2.43 2.43 0 0 0-.55.95 4.8 4.8 0 0 0-.21 1.53v8h-3.66zM295.23 322.7a7.28 7.28 0 0 1-2.81-.52 5.75 5.75 0 0 1-2.12-1.49 6.68 6.68 0 0 1-1.34-2.38 10.91 10.91 0 0 1 0-6.32 6.55 6.55 0 0 1 1.35-2.36 5.83 5.83 0 0 1 2.12-1.48 7.23 7.23 0 0 1 2.8-.52 7.47 7.47 0 0 1 2.5.41 5.42 5.42 0 0 1 2 1.25 5.93 5.93 0 0 1 1.35 2.11 8.27 8.27 0 0 1 .49 3v1a9.89 9.89 0 0 1-.1 1.16h-9.38a3.22 3.22 0 0 0 .33 1.24 3.06 3.06 0 0 0 .69.91 2.91 2.91 0 0 0 1 .56 3.34 3.34 0 0 0 1.14.19 4 4 0 0 0 1.73-.35 3.84 3.84 0 0 0 1.36-1.13l2.25 2.27a6.7 6.7 0 0 1-2.23 1.77 6.9 6.9 0 0 1-3.13.68zm0-11.87a3.3 3.3 0 0 0-2.11.65 2.87 2.87 0 0 0-1 2H298a3.15 3.15 0 0 0-.93-2 2.66 2.66 0 0 0-1.84-.64zM305.12 322.7a2.46 2.46 0 0 1-.94-.18 2.35 2.35 0 0 1-.75-.49 2.21 2.21 0 0 1-.49-.74 2.31 2.31 0 0 1-.18-.91 2.35 2.35 0 0 1 .18-.92 2.26 2.26 0 0 1 1.24-1.24 2.57 2.57 0 0 1 1.88 0 2.33 2.33 0 0 1 1.26 1.24 2.29 2.29 0 0 1 .19.92 2.27 2.27 0 0 1-.69 1.64 2.43 2.43 0 0 1-.76.49 2.46 2.46 0 0 1-.94.19zM324.74 308a3.44 3.44 0 0 0-.48-.82 3.16 3.16 0 0 0-.72-.67 3.46 3.46 0 0 0-1-.44 4.32 4.32 0 0 0-1.2-.16 3.28 3.28 0 0 0-1.93.49 1.61 1.61 0 0 0-.69 1.39 1.28 1.28 0 0 0 .44 1 4.39 4.39 0 0 0 1.15.72 14.67 14.67 0 0 0 1.63.61q.91.29 1.88.64a15.64 15.64 0 0 1 1.88.82 6.84 6.84 0 0 1 1.63 1.17 5.2 5.2 0 0 1 1.59 3.94 5.71 5.71 0 0 1-.55 2.56 5.54 5.54 0 0 1-1.51 1.88 6.66 6.66 0 0 1-2.26 1.17 9.62 9.62 0 0 1-2.82.4 8.65 8.65 0 0 1-2.6-.38 7.69 7.69 0 0 1-2.19-1.08 7.45 7.45 0 0 1-1.71-1.7 8.41 8.41 0 0 1-1.15-2.25l3.46-1.29a6.31 6.31 0 0 0 .76 1.26 5.14 5.14 0 0 0 1 1 4.52 4.52 0 0 0 1.19.63 4 4 0 0 0 1.37.23 5.17 5.17 0 0 0 1.3-.15 3 3 0 0 0 1-.45 2.07 2.07 0 0 0 .65-.75 2.27 2.27 0 0 0 .23-1 1.73 1.73 0 0 0-.44-1.2 3.94 3.94 0 0 0-1.15-.85 11.11 11.11 0 0 0-1.63-.66l-1.87-.63a17.27 17.27 0 0 1-1.87-.77 6.79 6.79 0 0 1-1.63-1.09 5.09 5.09 0 0 1 .15-7.58 6.33 6.33 0 0 1 2.09-1.18 8.57 8.57 0 0 1 2.83-.43 8 8 0 0 1 2.41.34 6.46 6.46 0 0 1 1.9 1 5.93 5.93 0 0 1 1.39 1.44 6.45 6.45 0 0 1 .85 1.82zM340.51 322.36v-8.44a3.64 3.64 0 0 0-.19-1.25 2.3 2.3 0 0 0-.54-.86 2.11 2.11 0 0 0-.8-.49 3 3 0 0 0-1-.16 3.79 3.79 0 0 0-1.06.14 2.29 2.29 0 0 0-.87.47 2.21 2.21 0 0 0-.58.84 3.3 3.3 0 0 0-.21 1.26v8.5h-3.66v-18.66l3.66-1.69v7.3a4.43 4.43 0 0 1 1.63-1.25 5.32 5.32 0 0 1 2.22-.44 6.29 6.29 0 0 1 1.83.27 4.14 4.14 0 0 1 1.62.93 4.78 4.78 0 0 1 1.15 1.75 7.26 7.26 0 0 1 .44 2.71v9.06h-3.66zM355.29 322.36v-1a4 4 0 0 1-.6.51 4.44 4.44 0 0 1-.82.45 5.41 5.41 0 0 1-1 .32 6.39 6.39 0 0 1-1.27.12 6.9 6.9 0 0 1-2.08-.3 4.76 4.76 0 0 1-1.68-.91 4.3 4.3 0 0 1-1.13-1.49 4.86 4.86 0 0 1-.41-2.07 4.37 4.37 0 0 1 .49-2.14 4.46 4.46 0 0 1 1.3-1.48 5.5 5.5 0 0 1 1.83-.86 8.07 8.07 0 0 1 2.1-.27 8.24 8.24 0 0 1 1.84.19 7.09 7.09 0 0 1 1.46.5v-.74a2.11 2.11 0 0 0-.67-1.73 3 3 0 0 0-1.92-.55 7.15 7.15 0 0 0-2.35.37 8.69 8.69 0 0 0-2.09 1.07l-1.13-3a9.21 9.21 0 0 1 1.15-.65 10.22 10.22 0 0 1 1.38-.54 10.77 10.77 0 0 1 1.59-.36 11.51 11.51 0 0 1 1.77-.13q.65 0 1.33.07a6.67 6.67 0 0 1 1.34.27 5 5 0 0 1 1.24.59 3.93 3.93 0 0 1 1 1 4.82 4.82 0 0 1 .69 1.5 7.69 7.69 0 0 1 .25 2.11v9.18h-3.6zm-3-2.87a4 4 0 0 0 1.75-.35 5.23 5.23 0 0 0 1.28-.83v-1.55a8 8 0 0 0-1.26-.34 7.71 7.71 0 0 0-1.42-.13 6 6 0 0 0-1.07.09 3 3 0 0 0-.88.29 1.65 1.65 0 0 0-.6.52 1.29 1.29 0 0 0-.22.76 1.31 1.31 0 0 0 .62 1.13 3.17 3.17 0 0 0 1.78.4zM361.72 322.36V308h3.66v1.28a2.74 2.74 0 0 1 1-1.15 2.91 2.91 0 0 1 1.71-.46 4.21 4.21 0 0 1 1.6.29 5 5 0 0 1 1.33.81l-.49 3.34a5.55 5.55 0 0 0-1.15-.6 4.1 4.1 0 0 0-1.48-.24 3.15 3.15 0 0 0-.93.14 1.9 1.9 0 0 0-.79.48 2.43 2.43 0 0 0-.55.95 4.8 4.8 0 0 0-.21 1.53v8h-3.66zM378.7 322.7a7.28 7.28 0 0 1-2.81-.52 5.75 5.75 0 0 1-2.12-1.49 6.68 6.68 0 0 1-1.34-2.38 10.91 10.91 0 0 1 0-6.32 6.55 6.55 0 0 1 1.35-2.36 5.83 5.83 0 0 1 2.12-1.48 7.23 7.23 0 0 1 2.8-.52 7.47 7.47 0 0 1 2.5.41 5.42 5.42 0 0 1 2 1.25 5.93 5.93 0 0 1 1.35 2.11 8.27 8.27 0 0 1 .49 3v1a9.89 9.89 0 0 1-.1 1.16h-9.38a3.22 3.22 0 0 0 .33 1.24 3.06 3.06 0 0 0 .69.91 2.91 2.91 0 0 0 1 .56 3.34 3.34 0 0 0 1.14.19 4 4 0 0 0 1.73-.35 3.84 3.84 0 0 0 1.36-1.13l2.25 2.27a6.7 6.7 0 0 1-2.23 1.77 6.9 6.9 0 0 1-3.13.68zm0-11.87a3.3 3.3 0 0 0-2.11.65 2.87 2.87 0 0 0-1 2h5.88a3.15 3.15 0 0 0-.93-2 2.66 2.66 0 0 0-1.84-.64zM409.55 322.36v-8.47a4 4 0 0 0-.22-1.45 2.16 2.16 0 0 0-.55-.83 1.58 1.58 0 0 0-.73-.37 3.8 3.8 0 0 0-.77-.08 4.39 4.39 0 0 0-.86.09 1.93 1.93 0 0 0-.81.37 2.09 2.09 0 0 0-.6.82 3.55 3.55 0 0 0-.24 1.43v8.5h-3.66v-8.47a4 4 0 0 0-.22-1.45 2.16 2.16 0 0 0-.55-.83 1.58 1.58 0 0 0-.74-.37 3.9 3.9 0 0 0-.78-.08 4.23 4.23 0 0 0-.84.09 2 2 0 0 0-.81.37 2.05 2.05 0 0 0-.61.82 3.55 3.55 0 0 0-.24 1.43v8.5h-3.66V308h3.66v1.33a4.25 4.25 0 0 1 1.42-1.22 4.19 4.19 0 0 1 2-.45 4.53 4.53 0 0 1 2.27.52 3.54 3.54 0 0 1 1.42 1.51 4.48 4.48 0 0 1 1.92-1.54 6.41 6.41 0 0 1 2.49-.48 7.77 7.77 0 0 1 2.13.28 4.21 4.21 0 0 1 1.71.94 4.47 4.47 0 0 1 1.13 1.75 7.75 7.75 0 0 1 .41 2.72v9h-3.67zM422.09 322.7a7 7 0 0 1-2.75-.52 5.68 5.68 0 0 1-2.08-1.48 6.72 6.72 0 0 1-1.33-2.36 10.91 10.91 0 0 1 0-6.32 6.8 6.8 0 0 1 1.33-2.38 5.65 5.65 0 0 1 2.08-1.49 7.59 7.59 0 0 1 5.5 0 5.66 5.66 0 0 1 2.08 1.49 6.72 6.72 0 0 1 1.32 2.38 11.05 11.05 0 0 1 0 6.32 6.64 6.64 0 0 1-1.32 2.36 5.68 5.68 0 0 1-2.08 1.48 7 7 0 0 1-2.75.52zm0-3.52a2.72 2.72 0 0 0 1.24-.27 2.55 2.55 0 0 0 .93-.79 3.83 3.83 0 0 0 .58-1.26 7 7 0 0 0 0-3.37 3.93 3.93 0 0 0-.58-1.26 2.54 2.54 0 0 0-.93-.8 2.92 2.92 0 0 0-2.47 0 2.54 2.54 0 0 0-.93.8 3.93 3.93 0 0 0-.58 1.26 7 7 0 0 0 0 3.37 3.83 3.83 0 0 0 .58 1.26 2.55 2.55 0 0 0 .93.79 2.72 2.72 0 0 0 1.23.27zM431.1 322.36V308h3.66v1.28a2.74 2.74 0 0 1 1-1.15 2.91 2.91 0 0 1 1.71-.46 4.21 4.21 0 0 1 1.6.29 5 5 0 0 1 1.33.81l-.49 3.34a5.55 5.55 0 0 0-1.15-.6 4.1 4.1 0 0 0-1.48-.24 3.15 3.15 0 0 0-.93.14 1.9 1.9 0 0 0-.79.48 2.43 2.43 0 0 0-.55.95 4.8 4.8 0 0 0-.21 1.53v8h-3.7zM448.08 322.7a7.28 7.28 0 0 1-2.81-.52 5.75 5.75 0 0 1-2.12-1.49 6.68 6.68 0 0 1-1.34-2.38 10.91 10.91 0 0 1 0-6.32 6.55 6.55 0 0 1 1.35-2.36 5.83 5.83 0 0 1 2.12-1.48 7.23 7.23 0 0 1 2.8-.52 7.47 7.47 0 0 1 2.5.41 5.42 5.42 0 0 1 2 1.25 5.93 5.93 0 0 1 1.35 2.11 8.27 8.27 0 0 1 .49 3v1a9.89 9.89 0 0 1-.1 1.16H445a3.22 3.22 0 0 0 .33 1.24 3.06 3.06 0 0 0 .69.91 2.91 2.91 0 0 0 1 .56 3.34 3.34 0 0 0 1.14.19 4 4 0 0 0 1.73-.35 3.84 3.84 0 0 0 1.36-1.13l2.25 2.27a6.7 6.7 0 0 1-2.3 1.75 6.9 6.9 0 0 1-3.12.7zm0-11.87a3.3 3.3 0 0 0-2.11.65 2.87 2.87 0 0 0-1 2h5.88a3.15 3.15 0 0 0-.93-2 2.66 2.66 0 0 0-1.84-.64zM458 322.7a2.46 2.46 0 0 1-.94-.18 2.35 2.35 0 0 1-.75-.49 2.21 2.21 0 0 1-.49-.74 2.31 2.31 0 0 1-.18-.91 2.35 2.35 0 0 1 .18-.92 2.26 2.26 0 0 1 1.24-1.24 2.57 2.57 0 0 1 1.88 0 2.33 2.33 0 0 1 1.26 1.24 2.29 2.29 0 0 1 .19.92 2.27 2.27 0 0 1-.69 1.64 2.43 2.43 0 0 1-.76.49 2.46 2.46 0 0 1-.94.19z"/><path class="cls-1" d="M44.29 174v18.66h-4.41V174h-6.56v-4.27h17.52V174h-6.55zM68 192.68V183h-9.63v9.69h-4.42v-22.93h4.43v9H68v-9h4.41v22.92H68zM77 192.68v-22.92h15.62V174H81.4v4.81H88V183h-6.6v5.53h11.91v4.19H77zM100.78 208.58v-38.82h18a16.29 16.29 0 0 1 6.16 1 10.78 10.78 0 0 1 4 2.69 9.9 9.9 0 0 1 2.17 3.87 16 16 0 0 1 .65 4.58 12.35 12.35 0 0 1-4.25 9.3 10.17 10.17 0 0 1-3.28 1.91l7.53 15.46h-8.42l-7.24-14.47h-7.82v14.49h-7.5zM118.92 187a6.09 6.09 0 0 0 2.41-.42 4.18 4.18 0 0 0 1.57-1.12 4.26 4.26 0 0 0 .85-1.62 7.11 7.11 0 0 0 .26-1.92 7.42 7.42 0 0 0-.23-1.83 4.27 4.27 0 0 0-.8-1.62 4 4 0 0 0-1.56-1.15 6.28 6.28 0 0 0-2.5-.43h-10.64V187h10.64zM138.14 208.58v-38.82h26.51v7.12h-19V185h11.18v7.09h-11.19v9.37h20.17v7.09h-27.67zM171.64 169.76h13.1a22.21 22.21 0 0 1 6.09.77 17.79 17.79 0 0 1 4.81 2.13 15 15 0 0 1 3.59 3.21 18.34 18.34 0 0 1 2.45 4 20.24 20.24 0 0 1 1.41 4.54 25.82 25.82 0 0 1 .45 4.77 25.44 25.44 0 0 1-.42 4.54 20.8 20.8 0 0 1-1.34 4.47 18.3 18.3 0 0 1-2.4 4 15.28 15.28 0 0 1-3.6 3.32 17.66 17.66 0 0 1-4.91 2.23 22.76 22.76 0 0 1-6.36.81h-12.87v-38.79zm13.75 31.73a9.72 9.72 0 0 0 4.87-1.12 9.49 9.49 0 0 0 3.19-2.9 12 12 0 0 0 1.76-4 17.78 17.78 0 0 0 0-8.81 12.49 12.49 0 0 0-1.75-3.94 9.13 9.13 0 0 0-3-2.8 8.66 8.66 0 0 0-4.4-1.07h-6.88v24.61h6.25zM244.18 208.58v-16.4h-16.25v16.41h-7.5v-38.83h7.5v15.32h16.25v-15.32h7.47v38.83h-7.47zM285.49 208.58l-3-8h-15l-3 8h-8l14.86-38.83h7.31l14.86 38.83h-8zm-9.26-25q-.3-.7-.64-1.68t-.59-1.77q-.22.84-.57 1.81t-.65 1.68l-3.78 10.1h10.1zM310 177v31.6h-7.47V177h-11.1v-7.23h29.67V177H310zM53 208.49h15a25.55 25.55 0 0 1 7 .89 20.47 20.47 0 0 1 5.52 2.44 17.18 17.18 0 0 1 4.12 3.68 21.07 21.07 0 0 1 2.81 4.6 23.19 23.19 0 0 1 1.62 5.21 29.65 29.65 0 0 1 .51 5.47 29.25 29.25 0 0 1-.48 5.21 23.86 23.86 0 0 1-1.54 5.13 20.91 20.91 0 0 1-2.75 4.65 17.55 17.55 0 0 1-4.13 3.81 20.29 20.29 0 0 1-5.64 2.56 26.14 26.14 0 0 1-7.31.93H53v-44.58zm15.79 36.44a11.17 11.17 0 0 0 5.6-1.29 10.92 10.92 0 0 0 3.61-3.33 13.82 13.82 0 0 0 2-4.55 20.41 20.41 0 0 0 0-10.12 14.33 14.33 0 0 0-2-4.52 10.49 10.49 0 0 0-3.48-3.22 10 10 0 0 0-5.05-1.23h-7.9v28.26h7.18z"/><path class="cls-1" d="M96.91 253.07v-44.58h30.44v8.18h-21.83V226h12.84v8.15h-12.84v10.76h23.16v8.15H96.91zM156.26 253.07H148l-15.8-44.58h9.3l9.79 29.16q.25.72.48 1.54t.42 1.54q.16-.68.37-1.49t.47-1.59l9.79-29.16H172zM177.71 253.07v-44.58h30.44v8.18h-21.83V226h12.84v8.15h-12.84v10.76h23.16v8.15h-31.77zM216.17 253.07v-44.58h8.61v36.31h21.52v8.27h-30.13zM268.53 253.85a20.5 20.5 0 0 1-6.47-.95 17.71 17.71 0 0 1-5.05-2.58 16.71 16.71 0 0 1-3.75-3.86 22 22 0 0 1-2.53-4.79 27 27 0 0 1-1.43-5.35 34.16 34.16 0 0 1 0-11.07 27 27 0 0 1 1.43-5.35 22.05 22.05 0 0 1 2.53-4.79 16.73 16.73 0 0 1 3.75-3.86 17.74 17.74 0 0 1 5.05-2.58 22.47 22.47 0 0 1 12.92 0 17.56 17.56 0 0 1 5 2.58 16.9 16.9 0 0 1 3.73 3.86 22.09 22.09 0 0 1 2.53 4.79 27.16 27.16 0 0 1 1.43 5.35 34.16 34.16 0 0 1 0 11.07 27.15 27.15 0 0 1-1.43 5.35 22 22 0 0 1-2.53 4.79 16.88 16.88 0 0 1-3.73 3.86 17.54 17.54 0 0 1-5 2.58 20.36 20.36 0 0 1-6.45.95zm0-8.3a8.65 8.65 0 0 0 5-1.4 10.9 10.9 0 0 0 3.29-3.58 16.31 16.31 0 0 0 1.82-4.77 23.81 23.81 0 0 0 .56-5 26.36 26.36 0 0 0-.23-3.47 19.3 19.3 0 0 0-.76-3.39 15.83 15.83 0 0 0-1.37-3.08 10.5 10.5 0 0 0-2-2.52 9 9 0 0 0-2.75-1.69 9.61 9.61 0 0 0-3.56-.62 9 9 0 0 0-6.36 2.41 10.74 10.74 0 0 0-2 2.57 16.13 16.13 0 0 0-1.37 3.11 19.65 19.65 0 0 0-.76 3.36 24.1 24.1 0 0 0 .33 8.5 15.68 15.68 0 0 0 1.82 4.76 10.53 10.53 0 0 0 3.31 3.48 9 9 0 0 0 5.03 1.33zM295.45 253.07v-44.58h19.12a18.24 18.24 0 0 1 7.12 1.23 13.06 13.06 0 0 1 4.69 3.23 12.16 12.16 0 0 1 2.6 4.52 16.9 16.9 0 0 1 .79 5.1 14.93 14.93 0 0 1-.37 3.28 14.4 14.4 0 0 1-1.15 3.23 13.38 13.38 0 0 1-2 2.94 12.81 12.81 0 0 1-2.91 2.41 14.63 14.63 0 0 1-3.89 1.63 18.79 18.79 0 0 1-4.9.59h-10.49v16.42h-8.61zm19.49-24.59a6.45 6.45 0 0 0 2.77-.53 5.11 5.11 0 0 0 2.83-3.26 7.46 7.46 0 0 0 .31-2.11 8.17 8.17 0 0 0-.26-2 5.24 5.24 0 0 0-.93-1.91 5 5 0 0 0-1.82-1.43 6.59 6.59 0 0 0-2.89-.56h-10.89v11.81h10.88zM335.5 253.07v-44.58h30.44v8.18h-21.83V226h12.84v8.15h-12.84v10.76h23.16v8.15H335.5zM374 253.07v-44.58h20.7a18.73 18.73 0 0 1 7.07 1.17 12.38 12.38 0 0 1 4.58 3.09 11.35 11.35 0 0 1 2.49 4.45 18.41 18.41 0 0 1 .75 5.25 14.17 14.17 0 0 1-4.88 10.68 11.68 11.68 0 0 1-3.76 2.19l8.64 17.75h-9.67l-8.33-16.63h-9v16.63H374zm20.83-24.78a7 7 0 0 0 2.77-.48 4.78 4.78 0 0 0 1.8-1.29 4.88 4.88 0 0 0 1-1.87 8.15 8.15 0 0 0 .3-2.21 8.53 8.53 0 0 0-.26-2.1 4.92 4.92 0 0 0-.92-1.87 4.57 4.57 0 0 0-1.79-1.32 7.21 7.21 0 0 0-2.87-.5h-12.29v11.65h12.22zM438.25 220.62a7.73 7.73 0 0 0-1.09-1.87 7.12 7.12 0 0 0-1.63-1.51 7.76 7.76 0 0 0-2.18-1 9.72 9.72 0 0 0-2.72-.36 7.42 7.42 0 0 0-4.37 1.12 3.63 3.63 0 0 0-1.57 3.14 2.89 2.89 0 0 0 1 2.24 10 10 0 0 0 2.61 1.62 33.34 33.34 0 0 0 3.7 1.4q2.07.65 4.24 1.45a35.78 35.78 0 0 1 4.24 1.87 15.47 15.47 0 0 1 3.68 2.64 11.76 11.76 0 0 1 3.61 8.91 12.9 12.9 0 0 1-1.24 5.78 12.53 12.53 0 0 1-3.4 4.26 15.06 15.06 0 0 1-5.11 2.64 21.74 21.74 0 0 1-6.37.9 19.59 19.59 0 0 1-5.88-.86 17.38 17.38 0 0 1-5-2.44 16.86 16.86 0 0 1-3.87-3.85 19.08 19.08 0 0 1-2.61-5.1l7.83-2.92a14.21 14.21 0 0 0 1.73 2.84 11.63 11.63 0 0 0 2.25 2.21 10.32 10.32 0 0 0 2.69 1.43 9.19 9.19 0 0 0 3.09.51 11.7 11.7 0 0 0 2.94-.34 6.71 6.71 0 0 0 2.27-1 4.68 4.68 0 0 0 1.46-1.69 5.12 5.12 0 0 0 .51-2.35 3.91 3.91 0 0 0-1-2.72 8.92 8.92 0 0 0-2.61-1.93 25.2 25.2 0 0 0-3.68-1.49q-2.07-.67-4.23-1.42a39.26 39.26 0 0 1-4.23-1.74 15.42 15.42 0 0 1-3.68-2.46 11.51 11.51 0 0 1 .34-17.13 14.29 14.29 0 0 1 4.73-2.66 19.32 19.32 0 0 1 6.4-1 18 18 0 0 1 5.46.78 14.62 14.62 0 0 1 4.31 2.16 13.4 13.4 0 0 1 3.14 3.26 14.57 14.57 0 0 1 1.93 4.12z"/><path class="cls-1" d="M185.07 287.11a14.49 14.49 0 0 1-4.69-.7 12.06 12.06 0 0 1-3.63-1.95 12.39 12.39 0 0 1-2.67-2.91 16.59 16.59 0 0 1-1.79-3.6 21.45 21.45 0 0 1-1-4 27.7 27.7 0 0 1-.32-4.17 24.74 24.74 0 0 1 .33-3.95 22 22 0 0 1 1-3.95 17.53 17.53 0 0 1 1.8-3.63 13.25 13.25 0 0 1 2.67-3 12.16 12.16 0 0 1 3.62-2 13.59 13.59 0 0 1 4.66-.75 13.83 13.83 0 0 1 4.38.66 13.13 13.13 0 0 1 3.47 1.72 11.81 11.81 0 0 1 2.54 2.43 11.66 11.66 0 0 1 1.6 2.76l-5.81 2.65A17 17 0 0 0 190 261a7.06 7.06 0 0 0-1.36-1.25A5.78 5.78 0 0 0 187 259a6.75 6.75 0 0 0-2-.27 6.05 6.05 0 0 0-4.43 1.78 7.55 7.55 0 0 0-1.38 1.92 13 13 0 0 0-.91 2.33 15.85 15.85 0 0 0-.5 2.53 21.63 21.63 0 0 0-.15 2.52 18.74 18.74 0 0 0 .42 3.94 12.68 12.68 0 0 0 1.31 3.56 7.78 7.78 0 0 0 2.28 2.59 5.63 5.63 0 0 0 3.36 1 5.52 5.52 0 0 0 1.9-.32 6.11 6.11 0 0 0 1.61-.88 8.12 8.12 0 0 0 1.49-1.4 14 14 0 0 0 1.21-1.76l6 2.25a17.23 17.23 0 0 1-1.92 3.39 12.08 12.08 0 0 1-2.61 2.62 11.89 11.89 0 0 1-3.36 1.7 13.38 13.38 0 0 1-4.25.61zM215.55 287.16a15.47 15.47 0 0 1-4.87-.71 13.35 13.35 0 0 1-3.81-1.95 12.61 12.61 0 0 1-2.87-2.9 16.63 16.63 0 0 1-1.91-3.61 20.42 20.42 0 0 1-1.08-4 25.84 25.84 0 0 1 0-8.34 20.47 20.47 0 0 1 1.08-4A16.7 16.7 0 0 1 204 258a12.67 12.67 0 0 1 2.82-2.91 13.38 13.38 0 0 1 3.81-1.94 16.93 16.93 0 0 1 9.74 0 13.22 13.22 0 0 1 3.78 1.94A12.73 12.73 0 0 1 227 258a16.64 16.64 0 0 1 1.91 3.61 20.56 20.56 0 0 1 1.08 4 25.74 25.74 0 0 1 0 8.34 20.51 20.51 0 0 1-1.08 4 16.58 16.58 0 0 1-1.91 3.65 12.67 12.67 0 0 1-2.81 2.91 13.19 13.19 0 0 1-3.78 1.95 15.37 15.37 0 0 1-4.86.7zm0-6.26a6.53 6.53 0 0 0 3.78-1.05 8.22 8.22 0 0 0 2.48-2.7 12.28 12.28 0 0 0 1.37-3.6 18 18 0 0 0 .42-3.79 20 20 0 0 0-.18-2.61 14.52 14.52 0 0 0-.57-2.55 12 12 0 0 0-1-2.32 7.9 7.9 0 0 0-1.52-1.9 6.77 6.77 0 0 0-2.07-1.28 7.26 7.26 0 0 0-2.68-.47 6.82 6.82 0 0 0-4.79 1.82 8.13 8.13 0 0 0-1.53 1.93 12.13 12.13 0 0 0-1 2.34 14.85 14.85 0 0 0-.57 2.53 18.15 18.15 0 0 0 .25 6.41 11.82 11.82 0 0 0 1.37 3.59 7.94 7.94 0 0 0 2.49 2.62 6.8 6.8 0 0 0 3.75 1.03zM260.52 286.57v-17.26-1.42-.71-.52q-.26.8-.5 1.43t-.5 1.22l-8.15 17.86-8.2-17.86q-.26-.58-.5-1.22t-.5-1.43V286.58h-6.49V253h6.58l8.25 18.53q.26.61.47 1.16t.4 1.14c.12-.39.26-.77.4-1.14s.3-.75.47-1.16L260.8 253h6.2v33.6h-6.47zM298.38 286.57v-17.26-1.42-.71-.52q-.26.8-.5 1.43t-.5 1.22l-8.15 17.86-8.2-17.86q-.26-.58-.5-1.22t-.5-1.43V286.58h-6.49V253h6.58l8.25 18.53q.26.61.47 1.16t.4 1.14c.12-.39.26-.77.4-1.14s.3-.75.47-1.16l8.55-18.53h6.19v33.6h-6.47zM324.88 287.16a19.73 19.73 0 0 1-3.39-.29 13.81 13.81 0 0 1-3.17-.95 11.87 11.87 0 0 1-2.78-1.7 10.28 10.28 0 0 1-2.21-2.54 12.7 12.7 0 0 1-1.46-3.47 17.41 17.41 0 0 1-.53-4.5V253h6.49v20.74a10.81 10.81 0 0 0 .48 3.48 5.16 5.16 0 0 0 1.39 2.21 5.23 5.23 0 0 0 2.23 1.16 11.74 11.74 0 0 0 3 .34 11.51 11.51 0 0 0 2.92-.34 5.32 5.32 0 0 0 2.15-1.19 5.19 5.19 0 0 0 1.42-2.21 10.56 10.56 0 0 0 .49-3.48V253h6.47v20.74a15.73 15.73 0 0 1-1.12 6.32 11.13 11.13 0 0 1-3 4.15 11.69 11.69 0 0 1-4.32 2.28 18.18 18.18 0 0 1-5.06.67zM365.89 286.57L352.56 267c-.22-.33-.46-.73-.71-1.21s-.48-.92-.67-1.32c0 .36.08.78.1 1.27s0 .91 0 1.27v19.59h-6.44V253H351l13 19.35q.31.47.7 1.17t.7 1.36c0-.45-.08-.91-.1-1.37s0-.85 0-1.16V253h6.42v33.6h-5.76zM378.61 286.57V253h6.47v33.6h-6.47zM406 259.23v27.34h-6.47v-27.34h-9.61V253h25.68v6.26H406zM429.67 286.57v-13.1L417.23 253h7.36l8.3 13.73 8.29-13.73h7.36l-12.44 20.5v13.1h-6.42z"/></svg>