<svg version="1.1" id="Layer_1" xmlns="http://www.w3.org/2000/svg" xmlns:xlink="http://www.w3.org/1999/xlink" x="0px" y="0px"
	 viewBox="0 0 30 30" style="enable-background:new 0 0 30 30;" xml:space="preserve">
<style type="text/css">
	.st0{fill:#FFFFFF;}
</style>
<title>home_join_icons_</title>
<path class="st0" d="M23.7,24.9H13.3c-0.1,0-0.2,0.1-0.2,0.2c0,0,0,0,0,0v1.7c0,0.1,0.1,0.2,0.2,0.2c0,0,0,0,0,0h10.4
	c0.1,0,0.2-0.1,0.2-0.2c0,0,0,0,0,0v-1.7C23.9,25,23.8,24.9,23.7,24.9C23.7,24.9,23.7,24.9,23.7,24.9z M23.5,26.5h-10v-1.2h10
	C23.5,25.3,23.5,26.5,23.5,26.5z"/>
<path class="st0" d="M24.7,7.4c-1.2-3.8-5.2-6-9.1-4.8c-2.3,0.7-4.1,2.5-4.8,4.8c-2.5-0.9-5.3,0.4-6.2,2.9c-0.1,0.2-0.1,0.3-0.1,0.5
	c-2,0.1-3.7,1.5-4.2,3.5c0,0.2,0.1,0.3,0.2,0.4c0,0,0,0,0.1,0h12.9L13,15.4c-0.2,0.2-0.3,0.5-0.2,0.8c0.1,0.2,0.3,0.3,0.6,0.3h0.1
	l2.3-0.3v7.6c0,0.1,0.1,0.2,0.2,0.2h5.1c0.1,0,0.2-0.1,0.2-0.2v-7.7l2.3,0.3c0.3,0.1,0.6-0.1,0.7-0.3c0.1-0.3-0.1-0.6-0.3-0.8
	l-0.6-0.8h5.8c0.1,0,0.3-0.1,0.3-0.2C30,11.2,27.9,8.1,24.7,7.4z M23.9,16c-0.1,0-0.1,0-0.2,0h-0.1l-2.5-0.4c-0.1,0-0.2,0.1-0.3,0.2
	c0,0,0,0,0,0v7.7h-4.7v-7.6c0-0.1-0.1-0.2-0.2-0.2c0,0,0,0,0,0l-2.5,0.4c-0.1,0-0.2,0-0.2,0c0-0.1,0.1-0.2,0.2-0.3l5.2-6.3l5.2,6.3
	C23.8,15.9,23.8,16,23.9,16z M28.9,14.1h-6L18.7,9c-0.1-0.1-0.2-0.1-0.3,0c0,0,0,0,0,0l-4.3,5.1H1c0.5-1.6,2-2.6,3.7-2.6l0,0
	c0.2,0,0.3-0.1,0.3-0.2c0,0,0,0,0,0c0.4-2.3,2.6-3.8,4.9-3.4c0.3,0.1,0.6,0.1,0.9,0.3c0.6,0.3,1.1,0.7,1.4,1.2
	c0,0.1,0.1,0.1,0.2,0.1h0.1c0.1-0.1,0.1-0.2,0.1-0.3c-0.3-0.5-0.7-0.9-1.2-1.2c1-3.6,4.6-5.7,8.2-4.7c2.2,0.6,3.9,2.2,4.6,4.4
	c-0.5,0-1,0.1-1.4,0.3c-0.1,0.1-0.1,0.2-0.1,0.3c0.1,0.1,0.1,0.1,0.2,0.1C23.4,8,24,7.9,24.6,8c2.6,0.5,4.4,2.8,4.4,5.4
	C29,13.7,29,13.9,28.9,14.1z"/>
</svg>
