<svg id="Layer_1" data-name="Layer 1" xmlns="http://www.w3.org/2000/svg" viewBox="0 0 30 30"><defs><style>.cls-1{fill:#fff;}</style></defs><title>RHDev_homepage_icons</title><path class="cls-1" d="M21,16.26c0-2.84-1.92-3.92-4.39-4.75V7.64a4.52,4.52,0,0,1,1.73,1.15,0.27,0.27,0,0,0,.2.08l0.11,0a0.27,0.27,0,0,0,.1-0.06L20.4,7.12v0h0a0.27,0.27,0,0,0,0-.39,7.46,7.46,0,0,0-3.79-2.06V2.84a0.31,0.31,0,0,0-.29-0.29H14.09a0.27,0.27,0,0,0-.25.17,0.27,0.27,0,0,0,0,.12V4.6C11.23,5,9.58,6.8,9.58,9.16c0,2.83,1.65,3.79,4.24,4.63v4.48a5.71,5.71,0,0,1-2.64-1.6l0,0v0a0.27,0.27,0,0,0-.39,0L9.07,18.27a0.27,0.27,0,0,0,0,.39h0a7.54,7.54,0,0,0,4.74,2.57v2.13l-1.44-.64a0.45,0.45,0,0,0-.59.17,0.51,0.51,0,0,0,.07.62L15,27.35a0.27,0.27,0,0,0,.42,0l3.17-3.83a0.52,0.52,0,0,0,.06-0.61,0.44,0.44,0,0,0-.58-0.18l-1.45.64v-2.2C19.45,20.7,21,19,21,16.26ZM16.62,5.2a6.87,6.87,0,0,1,3.21,1.72l-1.28,1.3a5,5,0,0,0-1.93-1.15V5.2ZM14.36,3.1h1.72v8.24l-0.31-.1c-0.56-.17-1-0.32-1.41-0.46V3.1ZM9.64,18.47l1.3-1.28a6.27,6.27,0,0,0,2.88,1.64v1.86A7,7,0,0,1,9.64,18.47ZM18,23.35l-2.81,3.4-2.81-3.4L14,24a0.27,0.27,0,0,0,.38-0.25V14l0.35,0.11c0.53,0.16,1,.31,1.37.45v9.27a0.27,0.27,0,0,0,.38.25Zm-2-9.41c-0.37-.13-0.77-0.26-1.21-0.39l-0.5-.15-0.55-.18c-2.7-.91-3.69-1.8-3.69-4.05a4.1,4.1,0,0,1,3.69-4V6.92A2.15,2.15,0,0,0,12,9c0,1,.59,1.58,1.85,2.11l0.55,0.21c0.37,0.13.79,0.26,1.25,0.4l0.47,0.15,0.55,0.18c2.55,0.89,3.84,1.9,3.84,4.17s-1.33,3.91-3.84,4.36V18.83a2.31,2.31,0,0,0,2-2.41c0-1.08-.67-1.72-2-2.27ZM13.81,7.49v3.07c-1.08-.48-1.3-0.91-1.3-1.51A1.57,1.57,0,0,1,13.81,7.49Zm2.81,10.77V14.74c1.08,0.48,1.45,1,1.45,1.68A1.75,1.75,0,0,1,16.62,18.26Z"/></svg>