<?xml version="1.0" encoding="utf-8"?>
<!-- Generator: Adobe Illustrator 19.2.0, SVG Export Plug-In . SVG Version: 6.00 Build 0)  -->
<svg version="1.1" id="Layer_1" xmlns="http://www.w3.org/2000/svg" xmlns:xlink="http://www.w3.org/1999/xlink" x="0px" y="0px"
	 viewBox="0 0 27.4 15.9" style="enable-background:new 0 0 27.4 15.9;" xml:space="preserve">
<style type="text/css">
	.st0{fill:#FFFFFF;}
	.st1{fill:none;}
</style>
<title>home_join_icons_coins</title>
<path class="st0" d="M12.4,13.4c1.4-0.1,2.7-0.3,4-0.6c0.3-0.1,0.7-0.2,1-0.3"/>
<path class="st0" d="M12.4,13.6c-0.1,0-0.2-0.1-0.2-0.2c0-0.1,0.1-0.2,0.2-0.2c1.3-0.1,2.6-0.3,3.9-0.6c0.3-0.1,0.7-0.2,1-0.3
	c0.1,0,0.2,0,0.3,0.1c0.1,0.1,0,0.2-0.1,0.3c-0.3,0.1-0.7,0.2-1,0.3C15.2,13.4,13.8,13.6,12.4,13.6C12.4,13.6,12.4,13.6,12.4,13.6z"
	/>
<path class="st0" d="M3.2,12.4l0.2,0.1c0.3,0.1,0.7,0.2,1,0.3c2,0.5,4,0.7,6,0.6"/>
<path class="st0" d="M10.4,13.7c-2,0-4-0.2-6-0.6c-0.3-0.1-0.7-0.2-1-0.3l-0.2-0.1c-0.1-0.1-0.2-0.2-0.1-0.3s0.2-0.2,0.3-0.1
	l0.2,0.1c0.3,0.1,0.7,0.2,1,0.3c1.9,0.4,3.9,0.6,5.9,0.6c0.1,0,0.2,0.2,0.2,0.3c0,0,0,0,0,0C10.6,13.6,10.5,13.7,10.4,13.7z"/>
<path class="st0" d="M16.4,10.3c-0.7-0.2-1.5-0.3-2.2-0.4c-0.8,0.2-1.5,0.3-2.3,0.4c4.2,0.2,6.4,1,6.4,1.5v2
	c-0.2,0.3-0.5,0.5-0.8,0.6c-0.3,0.1-0.7,0.2-1,0.3c-2,0.5-4,0.7-6,0.6c-2,0-4-0.2-6-0.6c-0.3-0.1-0.7-0.2-1-0.3
	c-0.4,0-0.7-0.3-0.8-0.6v-1.9c0-0.4,1.5-1.1,4.4-1.4c-0.8,0-1.5-0.1-2.3-0.2H4.4C2,10.9,2,11.6,2,11.9v1.9c0.1,0.6,0.6,1,1.2,1.1
	c0.4,0.1,0.7,0.3,1.1,0.4c2,0.5,4,0.7,6.1,0.6c2,0,4.1-0.2,6.1-0.6c0.4-0.1,0.8-0.2,1.1-0.4c0.6-0.1,1-0.6,1.2-1.1v-1.9
	C18.8,11.6,18.8,10.9,16.4,10.3z"/>
<path class="st0" d="M10.4,8.5c1.4-0.1,2.7-0.3,4-0.6c0.3-0.1,0.7-0.2,1-0.3"/>
<path class="st0" d="M10.4,8.8c-0.1,0-0.2-0.1-0.2-0.2s0.1-0.2,0.2-0.2c0,0,0,0,0,0c1.3-0.1,2.6-0.3,3.9-0.6c0.3-0.1,0.7-0.2,1-0.3
	c0.1,0,0.2,0,0.3,0.1c0,0.1,0,0.2-0.1,0.3c-0.3,0.1-0.7,0.2-1,0.3C13.1,8.5,11.8,8.7,10.4,8.8C10.4,8.8,10.4,8.8,10.4,8.8z"/>
<path class="st0" d="M1.2,7.6l0.2,0.1c0.3,0.1,0.7,0.2,1,0.3c2,0.5,4,0.7,6,0.6"/>
<path class="st0" d="M8.3,8.8c-2,0-4-0.2-6-0.6C2,8.1,1.6,8,1.3,7.9L1.1,7.8C1,7.8,0.9,7.7,1,7.6c0,0,0,0,0-0.1
	c0-0.1,0.1-0.2,0.2-0.1c0,0,0,0,0.1,0l0.2,0.1c0.3,0.1,0.7,0.2,1,0.3c1.9,0.4,3.9,0.6,5.9,0.6c0.1,0,0.2,0.1,0.2,0.2
	C8.6,8.7,8.4,8.8,8.3,8.8C8.3,8.8,8.3,8.8,8.3,8.8C8.3,8.8,8.3,8.8,8.3,8.8z"/>
<path class="st0" d="M14.3,5.5h-0.2c-0.7,0.1-1.5,0.1-2.4,0.2c2.9,0.3,4.4,1,4.4,1.4v1.8c-0.2,0.3-0.5,0.5-0.8,0.6
	c-0.3,0.1-0.7,0.2-1,0.3c-2,0.5-4,0.7-6,0.6c-2,0-4-0.2-6-0.6C2,9.7,1.6,9.6,1.3,9.5c-0.4,0-0.7-0.3-0.8-0.6V7
	c0-0.5,2.2-1.4,6.4-1.6C6.1,5.3,5.4,5.2,4.6,5C3.9,5.1,3.1,5.2,2.4,5.4C0,6,0,6.7,0,6.9v2c0.1,0.6,0.6,1,1.2,1.1
	c0.4,0.1,0.7,0.3,1.1,0.4c2,0.5,4,0.7,6.1,0.6c2,0,4.1-0.2,6.1-0.6c0.4-0.1,0.8-0.2,1.1-0.4c0.6-0.1,1-0.6,1.2-1.1V7
	C16.7,6.8,16.7,6,14.3,5.5z"/>
<path class="st0" d="M3.2,2.7l0.2,0.1c0.3,0.1,0.7,0.2,1,0.3c2,0.5,4,0.7,6,0.6"/>
<path class="st0" d="M10.4,3.9c-2,0-4-0.2-6-0.6C4.1,3.2,3.7,3.1,3.4,3H3.2C3.1,2.9,3,2.8,3.1,2.7c0.1-0.1,0.2-0.2,0.3-0.1l0.2,0.1
	c0.3,0.1,0.7,0.2,1,0.3c1.9,0.4,3.9,0.6,5.9,0.6c0.1,0,0.2,0.1,0.1,0.2c0,0,0,0,0,0.1C10.5,3.8,10.5,3.8,10.4,3.9
	C10.4,3.9,10.4,3.9,10.4,3.9z"/>
<path class="st0" d="M17.9,1c2.1,1.3,3.8,3.1,5.2,5.1c3.1,4.1,4,6.8,3.5,7.2l-1.5,1.2c-0.3,0.1-0.6,0-0.8-0.1l-0.2-0.1l-0.9-0.6
	c-1.6-1.2-3-2.7-4.1-4.4c-1.3-1.6-2.3-3.3-3.2-5.1c-0.1-0.3-0.3-0.7-0.4-1c-0.2-0.3-0.2-0.7,0-1l1.6-1.3C17.4,0.8,17.7,0.9,17.9,1
	 M18.1,0.7c-0.3-0.3-0.8-0.3-1.2-0.2l-1.5,1.2c-0.3,0.4-0.4,1-0.1,1.5c0.1,0.4,0.2,0.8,0.4,1.1c0.8,1.9,1.9,3.6,3.2,5.2
	c1.2,1.7,2.6,3.2,4.2,4.5l0.9,0.6l0.2,0.1c0.3,0.3,0.8,0.3,1.2,0.1l1.5-1.2c0.7-0.5-0.1-2.1-0.3-2.7c-0.8-1.8-1.9-3.5-3.1-5.1
	C21.2,2.8,19.2,1.2,18.1,0.7C18.1,0.7,18.1,0.7,18.1,0.7z"/>
<path class="st0" d="M16.4,5L16.4,5c-2,0.5-4,0.7-6.1,0.6c-2,0-4-0.2-6-0.6C4,4.9,3.6,4.8,3.3,4.7c-0.4,0-0.7-0.3-0.8-0.6v-2
	c0-0.6,2.7-1.6,7.8-1.6c2.1-0.1,4.2,0.2,6.3,0.7l0.5-0.4l0,0c-0.2-0.1-0.5-0.2-0.8-0.2c-4-0.8-8-0.8-12,0C2,1.2,2,1.9,2,2.1V4
	c0.1,0.6,0.6,1,1.2,1.1c0.4,0.1,0.7,0.3,1.1,0.4c2,0.5,4,0.7,6.1,0.6c2,0,4.1-0.2,6.1-0.6l0.2-0.1L16.4,5z"/>
<path class="st0" d="M17.9,1c2.1,1.3,3.8,3.1,5.2,5.1c3.1,4.1,4,6.8,3.5,7.2l-1.5,1.2c-0.3,0.1-0.6,0-0.8-0.1l-0.2-0.1l-0.9-0.6
	c-1.6-1.2-3-2.7-4.1-4.4c-1.3-1.6-2.3-3.3-3.2-5.1c-0.1-0.3-0.3-0.7-0.4-1c-0.2-0.3-0.2-0.7,0-1l1.6-1.3C17.4,0.8,17.7,0.9,17.9,1
	 M18.2,0.5c-0.4-0.3-0.9-0.3-1.4-0.1l-1.5,1.1c-0.4,0.5-0.4,1.1-0.2,1.6c0.1,0.4,0.2,0.8,0.4,1.1c0.9,1.9,1.9,3.6,3.2,5.2
	c1.2,1.7,2.6,3.2,4.2,4.5c0.3,0.3,0.6,0.5,1,0.6l0.2,0.1c0.4,0.3,0.9,0.3,1.4,0.1l1.5-1.2c0.2-0.1,0.8-0.6-0.2-2.9
	c-0.8-1.8-1.9-3.5-3.2-5.1C20.7,1.9,18.7,0.7,18.2,0.5L18.2,0.5z"/>
<path class="st0" d="M21.9,9.6c0.9,1,1.8,2,2.9,2.8l0.9,0.6"/>
<path class="st0" d="M25.6,13.2L25.6,13.2l-0.9-0.6c-1.1-0.8-2-1.8-2.9-2.8c-0.1-0.1-0.1-0.2,0-0.3s0.2-0.1,0.3,0
	c0.9,1,1.8,1.9,2.8,2.8l0.9,0.6c0.1,0.1,0.1,0.2,0,0.3c0,0,0,0,0,0H25.6z"/>
<path class="st0" d="M17.1,1.7v0.2c0.1,0.3,0.2,0.7,0.4,1c0.8,1.8,1.9,3.5,3.2,5.1"/>
<path class="st0" d="M20.6,8.2L20.6,8.2c-1.3-1.6-2.4-3.4-3.3-5.2c-0.2-0.3-0.3-0.7-0.4-1.1V1.7c0-0.1,0.1-0.3,0.2-0.3
	c0.1,0,0.3,0.1,0.3,0.2l0,0v0.2c0.1,0.3,0.2,0.7,0.4,1c0.8,1.8,1.9,3.5,3.2,5.1c0.1,0.1,0,0.2-0.1,0.3H20.6z"/>
<line class="st1" x1="24.9" y1="12.6" x2="23.4" y2="13.7"/>
<path class="st0" d="M23.4,13.9L23.4,13.9c-0.1-0.1-0.1-0.2,0-0.2l1.5-1.1c0.1-0.1,0.2-0.1,0.2,0s0.1,0.2,0,0.2l0,0l-1.6,1.1H23.4z"
	/>
<line class="st1" x1="22.6" y1="10.4" x2="21.1" y2="11.6"/>
<path class="st0" d="M21,11.8l-0.1-0.1c-0.1-0.1-0.1-0.2,0-0.3c0,0,0,0,0,0l0,0l1.5-1.1c0.1-0.1,0.2-0.1,0.3,0s0.1,0.2,0,0.3
	l-1.5,1.1C21.2,11.8,21.1,11.8,21,11.8z"/>
<path class="st0" d="M23.3,13.9L23.3,13.9c-0.2-0.1-0.2-0.2-0.1-0.3l0,0l1.5-1.1c0.1-0.1,0.2-0.1,0.3,0s0.1,0.2,0,0.3l-1.5,1.1H23.3
	z"/>
<line class="st1" x1="20.6" y1="8" x2="19.1" y2="9.2"/>
<path class="st0" d="M19,9.4L19,9.4c-0.2-0.2-0.2-0.3-0.1-0.4l0,0l1.6-1.1c0.1-0.1,0.2-0.1,0.3,0c0.1,0.1,0.1,0.2,0,0.3l0,0l0,0
	l-1.5,1.1C19.2,9.4,19.1,9.4,19,9.4z"/>
<line class="st1" x1="18.8" y1="5.5" x2="17.2" y2="6.7"/>
<path class="st0" d="M17.1,6.8L17.1,6.8c-0.1,0-0.2-0.2-0.1-0.3c0,0,0-0.1,0-0.1l0,0l1.5-1.2c0.1-0.1,0.2-0.1,0.3,0
	c0.1,0.1,0.1,0.2,0,0.3l0,0l-1.5,1.2C17.3,6.9,17.2,6.9,17.1,6.8z"/>
<line class="st1" x1="17.3" y1="2.7" x2="15.8" y2="3.8"/>
<path class="st0" d="M15.7,4L15.7,4c-0.2-0.2-0.2-0.3-0.1-0.4l0,0l1.5-1.1c0.1-0.1,0.2-0.1,0.3,0c0.1,0.1,0.1,0.2,0,0.3l0,0
	l-1.5,1.1C15.9,4,15.8,4,15.7,4z"/>
</svg>
