<svg id="Layer_1" data-name="Layer 1" xmlns="http://www.w3.org/2000/svg" viewBox="0 0 1135 135"><defs><style>.cls-1{fill:#a3dbe8;}.cls-2{fill:#fff;}.cls-3{fill:#58595b;}</style></defs><title>RHDev_homepage_jointext_v2</title><path class="cls-1" d="M45,133.1a44.4,44.4,0,0,1-12.86-1.85,43.36,43.36,0,0,1-11.44-5.33A46.47,46.47,0,0,1,11,117.41a51.66,51.66,0,0,1-7.44-11.48L24.4,96.3A28,28,0,0,0,33,106.53a20.27,20.27,0,0,0,12,3.61,24.49,24.49,0,0,0,7-1,13.46,13.46,0,0,0,5.93-3.66A18.93,18.93,0,0,0,62,98.14a39.3,39.3,0,0,0,1.55-12.08V7.63H87.26V88.13a60.79,60.79,0,0,1-1.81,15.57,43.35,43.35,0,0,1-4.9,11.78,33.85,33.85,0,0,1-7.22,8.38,36.36,36.36,0,0,1-8.86,5.42,45.09,45.09,0,0,1-9.72,2.92A55,55,0,0,1,45,133.1Z"/><path class="cls-1" d="M161.06,133.1a56.71,56.71,0,0,1-17.89-2.62,49,49,0,0,1-14-7.14,46.26,46.26,0,0,1-10.36-10.66,60.89,60.89,0,0,1-7-13.24,74.86,74.86,0,0,1-4-14.79,94.57,94.57,0,0,1,0-30.61,74.88,74.88,0,0,1,4-14.79,60.92,60.92,0,0,1,7-13.24,46.3,46.3,0,0,1,10.36-10.66,49,49,0,0,1,14-7.14,56.71,56.71,0,0,1,17.89-2.62A56.32,56.32,0,0,1,178.9,8.19a48.55,48.55,0,0,1,13.89,7.14A46.77,46.77,0,0,1,203.11,26a61,61,0,0,1,7,13.24,75,75,0,0,1,4,14.79,94.57,94.57,0,0,1,0,30.61,75,75,0,0,1-4,14.79,61,61,0,0,1-7,13.24,46.73,46.73,0,0,1-10.32,10.66,48.5,48.5,0,0,1-13.89,7.14A56.32,56.32,0,0,1,161.06,133.1Zm0-23a23.94,23.94,0,0,0,13.89-3.87,30.15,30.15,0,0,0,9.12-9.89,45.18,45.18,0,0,0,5-13.2,65.84,65.84,0,0,0,1.55-13.89A72.79,72.79,0,0,0,190,59.7a53.07,53.07,0,0,0-2.11-9.37,43.79,43.79,0,0,0-3.78-8.51,29,29,0,0,0-5.59-7,24.83,24.83,0,0,0-7.61-4.69,26.58,26.58,0,0,0-9.85-1.72,25,25,0,0,0-17.59,6.67,29.71,29.71,0,0,0-5.63,7.09,44.49,44.49,0,0,0-3.78,8.6,54.32,54.32,0,0,0-2.11,9.29,66.58,66.58,0,0,0,.9,23.52,43.41,43.41,0,0,0,5,13.16A29.15,29.15,0,0,0,147,106.4Q152.71,110.14,161.06,110.14Z"/><path class="cls-1" d="M236.48,131V7.63h23.73V131H236.48Z"/><path class="cls-1" d="M362.9,131L314,59.06q-1.21-1.81-2.62-4.43t-2.45-4.86q0.26,2,.39,4.64t0.13,4.64V131H285.76V7.63h22.36l47.73,71q1.12,1.72,2.58,4.3T361,88q-0.26-2.49-.39-5t-0.13-4.26v-71h23.56V131H362.9Z"/><path class="cls-1" d="M412.73,11.84V30.21h-4.34V11.84h-6.45V7.63h17.25v4.2h-6.45Z"/><path class="cls-1" d="M436,30.21V20.67H426.6v9.54h-4.36V7.63h4.36v8.91H436V7.63h4.34V30.21H436Z"/><path class="cls-1" d="M444.9,30.21V7.63h15.41v4.14h-11v4.74h6.5v4.12h-6.5v5.45H461v4.12H444.9Z"/><path class="cls-1" d="M479.76,7.53h15.45a26.24,26.24,0,0,1,7.18.91,21,21,0,0,1,5.67,2.51,17.64,17.64,0,0,1,4.23,3.78,21.63,21.63,0,0,1,2.89,4.72,23.82,23.82,0,0,1,1.66,5.35,30.45,30.45,0,0,1,.53,5.62,30,30,0,0,1-.5,5.35A24.5,24.5,0,0,1,515.29,41a21.48,21.48,0,0,1-2.83,4.77,18,18,0,0,1-4.25,3.91,20.84,20.84,0,0,1-5.79,2.63,26.85,26.85,0,0,1-7.5,1H479.76V7.53ZM496,44.94a11.48,11.48,0,0,0,5.75-1.32,11.21,11.21,0,0,0,3.77-3.42,14.19,14.19,0,0,0,2.08-4.68,21,21,0,0,0,0-10.39,14.72,14.72,0,0,0-2.06-4.65,10.77,10.77,0,0,0-3.58-3.3,10.21,10.21,0,0,0-5.19-1.26H488.6v29H496Z"/><path class="cls-1" d="M524.87,53.31V7.53h31.25v8.4H533.72v9.61H546.9V33.9H533.72v11H557.5v8.36H524.87Z"/><path class="cls-1" d="M585.82,53.31h-8.49L561.11,7.53h9.55l10.06,29.95q0.25,0.74.49,1.58t0.43,1.58q0.16-.7.38-1.53t0.48-1.63L592.56,7.53H602Z"/><path class="cls-1" d="M607.85,53.31V7.53h31.25v8.4H616.7v9.61h13.18V33.9H616.7v11h23.78v8.36H607.85Z"/><path class="cls-1" d="M647.35,53.31V7.53h8.84V44.81h22.09v8.49H647.35Z"/><path class="cls-1" d="M701.11,54.11a21.05,21.05,0,0,1-6.64-1,18.19,18.19,0,0,1-5.19-2.65,17.16,17.16,0,0,1-3.85-4,22.6,22.6,0,0,1-2.6-4.92,27.74,27.74,0,0,1-1.47-5.49,35.08,35.08,0,0,1,0-11.37,27.76,27.76,0,0,1,1.47-5.49,22.64,22.64,0,0,1,2.6-4.92,17.18,17.18,0,0,1,3.85-4,18.21,18.21,0,0,1,5.19-2.65,23.07,23.07,0,0,1,13.26,0,18,18,0,0,1,5.16,2.65,17.36,17.36,0,0,1,3.83,4,22.69,22.69,0,0,1,2.6,4.92,27.9,27.9,0,0,1,1.47,5.49,35.08,35.08,0,0,1,0,11.37,27.88,27.88,0,0,1-1.47,5.49,22.64,22.64,0,0,1-2.6,4.92,17.34,17.34,0,0,1-3.83,4,18,18,0,0,1-5.16,2.65A20.91,20.91,0,0,1,701.11,54.11Zm0-8.52a8.89,8.89,0,0,0,5.16-1.44,11.19,11.19,0,0,0,3.38-3.67,16.75,16.75,0,0,0,1.87-4.9,24.45,24.45,0,0,0,.57-5.16,27.07,27.07,0,0,0-.24-3.56,19.82,19.82,0,0,0-.78-3.48,16.26,16.26,0,0,0-1.4-3.16,10.78,10.78,0,0,0-2.07-2.59,9.22,9.22,0,0,0-2.83-1.74,9.87,9.87,0,0,0-3.66-.64,9.28,9.28,0,0,0-6.53,2.47,11,11,0,0,0-2.09,2.63,16.56,16.56,0,0,0-1.4,3.19,20.18,20.18,0,0,0-.78,3.45,24.75,24.75,0,0,0,.34,8.73,16.11,16.11,0,0,0,1.87,4.88,10.82,10.82,0,0,0,3.4,3.58A9.26,9.26,0,0,0,701.11,45.58Z"/><path class="cls-1" d="M728.76,53.31V7.53H748.4a18.73,18.73,0,0,1,7.31,1.26,13.41,13.41,0,0,1,4.82,3.32,12.48,12.48,0,0,1,2.67,4.65A17.35,17.35,0,0,1,764,22a15.33,15.33,0,0,1-.38,3.37,14.79,14.79,0,0,1-1.18,3.32,13.74,13.74,0,0,1-2,3,13.16,13.16,0,0,1-3,2.47,15,15,0,0,1-4,1.68,19.29,19.29,0,0,1-5,.61H737.61V53.31h-8.84Zm20-25.25a6.63,6.63,0,0,0,2.84-.54,5.25,5.25,0,0,0,2.91-3.35,7.66,7.66,0,0,0,.32-2.17,8.39,8.39,0,0,0-.27-2.06,5.38,5.38,0,0,0-1-2,5.14,5.14,0,0,0-1.87-1.47,6.77,6.77,0,0,0-3-.57H737.61V28.05h11.17Z"/><path class="cls-1" d="M769.89,53.31V7.53h31.25v8.4H778.73v9.61h13.18V33.9H778.73v11h23.78v8.36H769.89Z"/><path class="cls-1" d="M809.38,53.31V7.53h21.26a19.23,19.23,0,0,1,7.26,1.2,12.71,12.71,0,0,1,4.71,3.18,11.66,11.66,0,0,1,2.55,4.56,18.91,18.91,0,0,1,.77,5.4,14.55,14.55,0,0,1-5,11,12,12,0,0,1-3.86,2.25l8.88,18.23H836l-8.56-17.08h-9.23V53.31h-8.84Zm21.39-25.44a7.18,7.18,0,0,0,2.84-.5A4.91,4.91,0,0,0,835.46,26a5,5,0,0,0,1-1.92,8.37,8.37,0,0,0,.3-2.27,8.75,8.75,0,0,0-.27-2.16,5.05,5.05,0,0,0-.94-1.92,4.69,4.69,0,0,0-1.84-1.36,7.4,7.4,0,0,0-3-.51H818.22V27.86h12.55Z"/><path class="cls-1" d="M875.4,20a7.94,7.94,0,0,0-1.12-1.92,7.31,7.31,0,0,0-1.68-1.55,8,8,0,0,0-2.23-1,10,10,0,0,0-2.79-.37,7.62,7.62,0,0,0-4.48,1.15,3.73,3.73,0,0,0-1.61,3.22,3,3,0,0,0,1,2.3,10.26,10.26,0,0,0,2.68,1.68A34.24,34.24,0,0,0,869,24.89q2.12,0.67,4.36,1.49a36.75,36.75,0,0,1,4.36,1.92A15.89,15.89,0,0,1,881.47,31a12.08,12.08,0,0,1,3.7,9.15,13.25,13.25,0,0,1-1.28,5.94,12.87,12.87,0,0,1-3.5,4.37,15.47,15.47,0,0,1-5.25,2.71,22.33,22.33,0,0,1-6.54.93,20.11,20.11,0,0,1-6-.88,17.84,17.84,0,0,1-5.09-2.51,17.31,17.31,0,0,1-4-4,19.59,19.59,0,0,1-2.68-5.24l8-3a14.6,14.6,0,0,0,1.77,2.92A12,12,0,0,0,863,43.71a10.6,10.6,0,0,0,2.76,1.47,9.43,9.43,0,0,0,3.18.53,12,12,0,0,0,3-.35,6.89,6.89,0,0,0,2.33-1.05,4.8,4.8,0,0,0,1.5-1.74,5.26,5.26,0,0,0,.53-2.41,4,4,0,0,0-1-2.79,9.17,9.17,0,0,0-2.68-2,25.87,25.87,0,0,0-3.78-1.53q-2.12-.69-4.34-1.45a40.32,40.32,0,0,1-4.34-1.79,15.84,15.84,0,0,1-3.78-2.52,11.66,11.66,0,0,1-2.68-3.61,11.61,11.61,0,0,1-1-5.11,11.56,11.56,0,0,1,4.05-8.88,14.67,14.67,0,0,1,4.85-2.73,19.84,19.84,0,0,1,6.58-1,18.44,18.44,0,0,1,5.6.8,15,15,0,0,1,4.42,2.22,13.76,13.76,0,0,1,3.22,3.35,15,15,0,0,1,2,4.23Z"/><path class="cls-1" d="M913.95,53.63a11.86,11.86,0,0,1-3.84-.57,9.87,9.87,0,0,1-3-1.59A10.14,10.14,0,0,1,905,49.09a13.58,13.58,0,0,1-1.47-2.94,17.56,17.56,0,0,1-.82-3.29,22.68,22.68,0,0,1-.26-3.42,20.25,20.25,0,0,1,.27-3.23A18,18,0,0,1,903.5,33,14.35,14.35,0,0,1,905,30a10.85,10.85,0,0,1,2.19-2.46,10,10,0,0,1,3-1.67,11.13,11.13,0,0,1,3.82-.61,11.32,11.32,0,0,1,3.59.54,10.75,10.75,0,0,1,2.84,1.41,9.67,9.67,0,0,1,2.08,2,9.55,9.55,0,0,1,1.31,2.26L919,33.62a13.93,13.93,0,0,0-1-1.38,5.78,5.78,0,0,0-1.11-1,4.74,4.74,0,0,0-1.31-.63,5.52,5.52,0,0,0-1.62-.22,5,5,0,0,0-3.62,1.46,6.18,6.18,0,0,0-1.13,1.57,10.6,10.6,0,0,0-.75,1.91,13,13,0,0,0-.41,2.07,17.7,17.7,0,0,0-.12,2.06,15.34,15.34,0,0,0,.35,3.22,10.38,10.38,0,0,0,1.07,2.92,6.37,6.37,0,0,0,1.87,2.12,4.61,4.61,0,0,0,2.75.82,4.52,4.52,0,0,0,1.55-.26,5,5,0,0,0,1.31-.72,6.65,6.65,0,0,0,1.13-1.11,11.47,11.47,0,0,0,1-1.44l4.87,1.84a14.1,14.1,0,0,1-1.57,2.77,9.89,9.89,0,0,1-2.14,2.15,9.73,9.73,0,0,1-2.75,1.39A11,11,0,0,1,913.95,53.63Z"/><path class="cls-1" d="M938.9,53.67a12.67,12.67,0,0,1-4-.59,10.93,10.93,0,0,1-3.12-1.59,10.33,10.33,0,0,1-2.31-2.38,13.62,13.62,0,0,1-1.56-3,16.72,16.72,0,0,1-.88-3.3A21.16,21.16,0,0,1,927,36a16.76,16.76,0,0,1,.88-3.3,13.67,13.67,0,0,1,1.56-3,10.37,10.37,0,0,1,2.31-2.38,11,11,0,0,1,3.12-1.59,13.86,13.86,0,0,1,8,0A10.82,10.82,0,0,1,946,27.4a10.42,10.42,0,0,1,2.3,2.38,13.62,13.62,0,0,1,1.56,3,16.83,16.83,0,0,1,.88,3.3,21.08,21.08,0,0,1,0,6.83,16.79,16.79,0,0,1-.88,3.3,13.57,13.57,0,0,1-1.56,3,10.37,10.37,0,0,1-2.3,2.38,10.8,10.8,0,0,1-3.1,1.59A12.58,12.58,0,0,1,938.9,53.67Zm0-5.12a5.35,5.35,0,0,0,3.1-.86,6.73,6.73,0,0,0,2-2.21,10.06,10.06,0,0,0,1.12-2.94,14.7,14.7,0,0,0,.35-3.1,16.35,16.35,0,0,0-.14-2.14,11.89,11.89,0,0,0-.47-2.09,9.8,9.8,0,0,0-.84-1.9,6.47,6.47,0,0,0-1.25-1.55,5.54,5.54,0,0,0-1.7-1,5.94,5.94,0,0,0-2.2-.38A5.58,5.58,0,0,0,935,31.81a6.66,6.66,0,0,0-1.26,1.58,9.93,9.93,0,0,0-.84,1.92,12.16,12.16,0,0,0-.47,2.07,14.86,14.86,0,0,0,.2,5.25,9.67,9.67,0,0,0,1.12,2.94,6.5,6.5,0,0,0,2,2.15A5.57,5.57,0,0,0,938.9,48.55Z"/><path class="cls-1" d="M975.72,53.19V39.05c0-.15,0-0.33,0-0.54l0-.62c0-.21,0-0.41,0-0.59s0-.32,0-0.42q-0.21.65-.41,1.17t-0.41,1l-6.68,14.62-6.71-14.62q-0.21-.48-0.41-1t-0.41-1.17c0,0.1,0,.24,0,0.42l0,0.59,0,0.62c0,0.2,0,.38,0,0.54V53.19h-5.31V25.68h5.39l6.75,15.17q0.21,0.5.38,0.95t0.33,0.93c0.1-.32.21-0.63,0.33-0.93s0.24-.62.38-0.95l6.87-15.17H981V53.19h-5.29Z"/><path class="cls-1" d="M1006.72,53.19V39.05c0-.15,0-0.33,0-0.54l0-.62c0-.21,0-0.41,0-0.59s0-.32,0-0.42q-0.21.65-.41,1.17t-0.41,1l-6.68,14.62-6.71-14.62q-0.21-.48-0.41-1t-0.41-1.17c0,0.1,0,.24,0,0.42l0,0.59,0,0.62c0,0.2,0,.38,0,0.54V53.19h-5.31V25.68h5.39l6.75,15.17q0.21,0.5.38,0.95t0.33,0.93c0.1-.32.21-0.63,0.33-0.93s0.24-.62.38-0.95l6.87-15.17H1012V53.19h-5.29Z"/><path class="cls-1" d="M1028.41,53.67a16.15,16.15,0,0,1-2.77-.24,11.31,11.31,0,0,1-2.6-.78,9.71,9.71,0,0,1-2.27-1.39,8.41,8.41,0,0,1-1.81-2.08,10.4,10.4,0,0,1-1.2-2.84,14.25,14.25,0,0,1-.43-3.68v-17h5.31v17a8.85,8.85,0,0,0,.39,2.85,4.23,4.23,0,0,0,1.14,1.81,4.28,4.28,0,0,0,1.82.95,9.61,9.61,0,0,0,2.42.28,9.42,9.42,0,0,0,2.39-.28,4.35,4.35,0,0,0,1.82-.95,4.25,4.25,0,0,0,1.16-1.81,8.65,8.65,0,0,0,.4-2.85v-17h5.29v17a12.88,12.88,0,0,1-.92,5.17,9.11,9.11,0,0,1-2.47,3.39,9.57,9.57,0,0,1-3.54,1.87A14.88,14.88,0,0,1,1028.41,53.67Z"/><path class="cls-1" d="M1062,53.19l-10.91-16c-0.18-.27-0.37-0.6-0.59-1s-0.39-.75-0.55-1.08c0,0.29.07,0.64,0.09,1s0,0.74,0,1v16h-5.27V25.68h5l10.65,15.84q0.25,0.38.58,1t0.57,1.11c0-.37-0.07-0.74-0.09-1.12s0-.69,0-0.95V25.68h5.25V53.19H1062Z"/><path class="cls-1" d="M1072.4,53.19V25.68h5.29V53.19h-5.29Z"/><path class="cls-1" d="M1094.78,30.81V53.19h-5.29V30.81h-7.86V25.68h21v5.12h-7.86Z"/><path class="cls-1" d="M1114.2,53.19V42.47L1104,25.68h6l6.79,11.24,6.79-11.24h6l-10.19,16.78V53.19h-5.26Z"/><path class="cls-2" d="M479.76,95.66V66.35h5.66V90.23h14.15v5.44H479.76Z"/><path class="cls-2" d="M510.63,96.17a10.81,10.81,0,0,1-4.18-.77,8.53,8.53,0,0,1-3.15-2.22,9.94,9.94,0,0,1-2-3.54,16.21,16.21,0,0,1,0-9.39,9.75,9.75,0,0,1,2-3.52,8.68,8.68,0,0,1,3.16-2.21,10.75,10.75,0,0,1,4.16-.77,11.1,11.1,0,0,1,3.72.61,8.06,8.06,0,0,1,3,1.86,8.82,8.82,0,0,1,2,3.14,12.3,12.3,0,0,1,.74,4.47q0,0.63,0,1.5a14.71,14.71,0,0,1-.14,1.73H506a4.81,4.81,0,0,0,.49,1.84,4.55,4.55,0,0,0,1,1.35,4.32,4.32,0,0,0,1.42.84,5,5,0,0,0,1.7.29,6,6,0,0,0,2.58-.52,5.71,5.71,0,0,0,2-1.69l3.35,3.37a10,10,0,0,1-3.31,2.64A10.26,10.26,0,0,1,510.63,96.17Zm0-17.64a4.91,4.91,0,0,0-3.14,1,4.27,4.27,0,0,0-1.46,3h8.75a4.67,4.67,0,0,0-1.39-2.92A4,4,0,0,0,510.63,78.53Z"/><path class="cls-2" d="M535.6,95.66V94.11a6,6,0,0,1-.89.76,6.6,6.6,0,0,1-1.22.66,8.05,8.05,0,0,1-1.54.47,9.5,9.5,0,0,1-1.89.17,10.26,10.26,0,0,1-3.09-.45,7.08,7.08,0,0,1-2.49-1.35,6.4,6.4,0,0,1-1.68-2.22,7.23,7.23,0,0,1-.61-3.08,6.5,6.5,0,0,1,.74-3.18,6.63,6.63,0,0,1,1.93-2.21,8.18,8.18,0,0,1,2.72-1.28,12,12,0,0,1,3.12-.41,12.25,12.25,0,0,1,2.73.28,10.55,10.55,0,0,1,2.18.75v-1.1a3.14,3.14,0,0,0-1-2.58,4.43,4.43,0,0,0-2.86-.82,10.62,10.62,0,0,0-3.5.55,12.92,12.92,0,0,0-3.11,1.59l-1.68-4.4a13.7,13.7,0,0,1,1.71-1,15.19,15.19,0,0,1,2.06-.81,16,16,0,0,1,2.36-.54,17.12,17.12,0,0,1,2.63-.19q1,0,2,.1a9.92,9.92,0,0,1,2,.41,7.41,7.41,0,0,1,1.84.88,5.84,5.84,0,0,1,1.52,1.48,7.17,7.17,0,0,1,1,2.23A11.43,11.43,0,0,1,541,82V95.66H535.6Zm-4.5-4.27a6,6,0,0,0,2.6-.52,7.77,7.77,0,0,0,1.9-1.24V87.32a11.91,11.91,0,0,0-1.87-.5,11.46,11.46,0,0,0-2.12-.19,9,9,0,0,0-1.58.13,4.49,4.49,0,0,0-1.31.43,2.45,2.45,0,0,0-.89.77,1.92,1.92,0,0,0-.33,1.12,2,2,0,0,0,.92,1.68A4.71,4.71,0,0,0,531.1,91.39Z"/><path class="cls-2" d="M545.14,95.66V74.26h5.44v1.9A4.07,4.07,0,0,1,552,74.45a4.32,4.32,0,0,1,2.55-.69,6.27,6.27,0,0,1,2.38.43,7.36,7.36,0,0,1,2,1.21l-0.74,5a8.25,8.25,0,0,0-1.71-.89,6.1,6.1,0,0,0-2.2-.36,4.68,4.68,0,0,0-1.38.2,2.82,2.82,0,0,0-1.18.72,3.61,3.61,0,0,0-.82,1.41,7.14,7.14,0,0,0-.31,2.27V95.66h-5.44Z"/><path class="cls-2" d="M574.67,95.66V83.11a5.4,5.4,0,0,0-.29-1.86,3.42,3.42,0,0,0-.8-1.28,3.14,3.14,0,0,0-1.19-.74,4.44,4.44,0,0,0-1.47-.24,5.63,5.63,0,0,0-1.57.21,3.4,3.4,0,0,0-1.29.7,3.29,3.29,0,0,0-.87,1.25,4.9,4.9,0,0,0-.32,1.87V95.66h-5.44V74.26h5.44v2a6.59,6.59,0,0,1,2.42-1.86,7.91,7.91,0,0,1,3.3-.65,9.35,9.35,0,0,1,2.72.41,6.16,6.16,0,0,1,2.41,1.39,7.11,7.11,0,0,1,1.72,2.6,10.79,10.79,0,0,1,.65,4V95.66h-5.44Z"/><path class="cls-2" d="M617.56,95.66V83.07a5.87,5.87,0,0,0-.33-2.16,3.21,3.21,0,0,0-.82-1.24,2.35,2.35,0,0,0-1.08-.55,5.65,5.65,0,0,0-1.14-.12,6.53,6.53,0,0,0-1.28.13,2.88,2.88,0,0,0-1.21.55,3.11,3.11,0,0,0-.9,1.22,5.28,5.28,0,0,0-.36,2.13V95.66H605V83.07a5.87,5.87,0,0,0-.33-2.16,3.21,3.21,0,0,0-.82-1.24,2.35,2.35,0,0,0-1.09-.55,5.8,5.8,0,0,0-1.16-.12,6.29,6.29,0,0,0-1.25.13,3,3,0,0,0-1.21.55,3.05,3.05,0,0,0-.91,1.22,5.28,5.28,0,0,0-.36,2.13V95.66h-5.44V74.26h5.44v2A6.32,6.32,0,0,1,600,74.43a6.23,6.23,0,0,1,3-.66,6.74,6.74,0,0,1,3.37.77,5.27,5.27,0,0,1,2.11,2.24,6.67,6.67,0,0,1,2.86-2.29,9.53,9.53,0,0,1,3.7-.72,11.56,11.56,0,0,1,3.17.42,6.26,6.26,0,0,1,2.55,1.4,6.64,6.64,0,0,1,1.69,2.61,11.53,11.53,0,0,1,.61,4V95.66h-5.46Z"/><path class="cls-2" d="M636.2,96.17a10.42,10.42,0,0,1-4.09-.77A8.44,8.44,0,0,1,629,93.2a10,10,0,0,1-2-3.52,16.21,16.21,0,0,1,0-9.39,10.11,10.11,0,0,1,2-3.54,8.4,8.4,0,0,1,3.1-2.22,11.28,11.28,0,0,1,8.18,0,8.41,8.41,0,0,1,3.1,2.22,10,10,0,0,1,2,3.54,16.43,16.43,0,0,1,0,9.39,9.88,9.88,0,0,1-2,3.52,8.45,8.45,0,0,1-3.1,2.21A10.42,10.42,0,0,1,636.2,96.17Zm0-5.23a4,4,0,0,0,1.84-.41,3.79,3.79,0,0,0,1.38-1.18,5.7,5.7,0,0,0,.87-1.87,10.38,10.38,0,0,0,0-5,5.84,5.84,0,0,0-.87-1.88A3.78,3.78,0,0,0,638,79.41a4.34,4.34,0,0,0-3.68,0A3.77,3.77,0,0,0,633,80.6a5.84,5.84,0,0,0-.87,1.88,10.38,10.38,0,0,0,0,5,5.7,5.7,0,0,0,.87,1.87,3.79,3.79,0,0,0,1.38,1.18A4,4,0,0,0,636.2,90.94Z"/><path class="cls-2" d="M649.6,95.66V74.26H655v1.9a4.07,4.07,0,0,1,1.42-1.71,4.32,4.32,0,0,1,2.55-.69,6.27,6.27,0,0,1,2.38.43,7.36,7.36,0,0,1,2,1.21l-0.74,5a8.25,8.25,0,0,0-1.71-.89,6.1,6.1,0,0,0-2.2-.36,4.68,4.68,0,0,0-1.38.2,2.82,2.82,0,0,0-1.18.72,3.61,3.61,0,0,0-.82,1.41,7.14,7.14,0,0,0-.31,2.27V95.66H649.6Z"/><path class="cls-2" d="M674.84,96.17a10.82,10.82,0,0,1-4.18-.77,8.54,8.54,0,0,1-3.15-2.22,9.94,9.94,0,0,1-2-3.54,16.21,16.21,0,0,1,0-9.39,9.74,9.74,0,0,1,2-3.52,8.67,8.67,0,0,1,3.16-2.21,10.75,10.75,0,0,1,4.16-.77,11.1,11.1,0,0,1,3.72.61,8.06,8.06,0,0,1,3,1.86,8.82,8.82,0,0,1,2,3.14,12.3,12.3,0,0,1,.74,4.47q0,0.63,0,1.5a14.71,14.71,0,0,1-.14,1.73H670.2a4.79,4.79,0,0,0,.49,1.84,4.55,4.55,0,0,0,1,1.35,4.33,4.33,0,0,0,1.42.84,5,5,0,0,0,1.7.29,6,6,0,0,0,2.58-.52,5.71,5.71,0,0,0,2-1.69l3.35,3.37a10,10,0,0,1-3.31,2.64A10.26,10.26,0,0,1,674.84,96.17Zm0-17.64a4.91,4.91,0,0,0-3.14,1,4.27,4.27,0,0,0-1.46,3H679a4.68,4.68,0,0,0-1.39-2.92A4,4,0,0,0,674.84,78.53Z"/><path class="cls-2" d="M689.54,96.17a3.65,3.65,0,0,1-1.4-.27,3.49,3.49,0,0,1-1.11-.73,3.28,3.28,0,0,1-.74-1.09,3.44,3.44,0,0,1-.27-1.35,3.5,3.5,0,0,1,.27-1.37,3.36,3.36,0,0,1,1.85-1.84,3.83,3.83,0,0,1,2.8,0,3.47,3.47,0,0,1,1.88,1.84,3.41,3.41,0,0,1,.28,1.37,3.37,3.37,0,0,1-1,2.44,3.61,3.61,0,0,1-1.12.73A3.66,3.66,0,0,1,689.54,96.17Z"/><path class="cls-2" d="M715.92,96.13a12.63,12.63,0,0,1-4.09-.61,10.51,10.51,0,0,1-3.17-1.7,10.81,10.81,0,0,1-2.33-2.53,14.51,14.51,0,0,1-1.56-3.14,18.71,18.71,0,0,1-.88-3.51,24.08,24.08,0,0,1-.28-3.64,21.46,21.46,0,0,1,.29-3.44,19.18,19.18,0,0,1,.89-3.45,15.29,15.29,0,0,1,1.57-3.17,11.59,11.59,0,0,1,2.33-2.62,10.62,10.62,0,0,1,3.16-1.78,11.86,11.86,0,0,1,4.07-.65,12.06,12.06,0,0,1,3.82.57,11.44,11.44,0,0,1,3,1.5A10.33,10.33,0,0,1,725,70.09a10.22,10.22,0,0,1,1.4,2.41l-5.07,2.31a15,15,0,0,0-1.08-1.47A6.14,6.14,0,0,0,719,72.25a5,5,0,0,0-1.4-.68,5.9,5.9,0,0,0-1.73-.23,5.28,5.28,0,0,0-3.86,1.55,6.59,6.59,0,0,0-1.21,1.68,11.31,11.31,0,0,0-.8,2,13.92,13.92,0,0,0-.44,2.21,18.78,18.78,0,0,0-.13,2.2,16.35,16.35,0,0,0,.37,3.43A11.07,11.07,0,0,0,711,87.55a6.8,6.8,0,0,0,2,2.26,4.91,4.91,0,0,0,2.93.87,4.83,4.83,0,0,0,1.66-.28,5.35,5.35,0,0,0,1.4-.77,7.07,7.07,0,0,0,1.21-1.19,12.19,12.19,0,0,0,1.05-1.53l5.19,2a15,15,0,0,1-1.68,3,10.56,10.56,0,0,1-2.28,2.29,10.34,10.34,0,0,1-2.93,1.48A11.68,11.68,0,0,1,715.92,96.13Z"/><path class="cls-2" d="M738.8,96.17a10.42,10.42,0,0,1-4.09-.77,8.44,8.44,0,0,1-3.1-2.21,10,10,0,0,1-2-3.52,16.21,16.21,0,0,1,0-9.39,10.11,10.11,0,0,1,2-3.54,8.4,8.4,0,0,1,3.1-2.22,11.28,11.28,0,0,1,8.18,0,8.41,8.41,0,0,1,3.1,2.22,10,10,0,0,1,2,3.54,16.43,16.43,0,0,1,0,9.39,9.88,9.88,0,0,1-2,3.52,8.45,8.45,0,0,1-3.1,2.21A10.42,10.42,0,0,1,738.8,96.17Zm0-5.23a4,4,0,0,0,1.84-.41A3.79,3.79,0,0,0,742,89.36a5.7,5.7,0,0,0,.87-1.87,10.38,10.38,0,0,0,0-5A5.84,5.84,0,0,0,742,80.6a3.78,3.78,0,0,0-1.38-1.19,4.34,4.34,0,0,0-3.68,0,3.77,3.77,0,0,0-1.38,1.19,5.84,5.84,0,0,0-.87,1.88,10.38,10.38,0,0,0,0,5,5.7,5.7,0,0,0,.87,1.87A3.79,3.79,0,0,0,737,90.53,4,4,0,0,0,738.8,90.94Z"/><path class="cls-2" d="M760,96.17a8.76,8.76,0,0,1-3.64-.74,7.53,7.53,0,0,1-2.79-2.16,10.15,10.15,0,0,1-1.79-3.52,16.63,16.63,0,0,1-.63-4.81,15.14,15.14,0,0,1,.67-4.69,10.63,10.63,0,0,1,1.86-3.52,8,8,0,0,1,2.81-2.21,8.2,8.2,0,0,1,3.55-.77,6.1,6.1,0,0,1,2.72.56,5,5,0,0,1,1.84,1.48V67.9L770,65.43V95.66h-5.44V94.11a4.33,4.33,0,0,1-1.81,1.52A6.54,6.54,0,0,1,760,96.17Zm0.88-5.23a5,5,0,0,0,2.23-.45,4.06,4.06,0,0,0,1.49-1.27V80.76a3.47,3.47,0,0,0-.55-0.62,4,4,0,0,0-.83-0.57,4.86,4.86,0,0,0-1.06-.41,5,5,0,0,0-1.28-.15,3.67,3.67,0,0,0-3.17,1.53,7.49,7.49,0,0,0-1.1,4.42,10.16,10.16,0,0,0,.28,2.47,5.74,5.74,0,0,0,.82,1.89A3.7,3.7,0,0,0,759,90.52,3.91,3.91,0,0,0,760.86,90.94Z"/><path class="cls-2" d="M783.59,96.17a10.82,10.82,0,0,1-4.18-.77,8.54,8.54,0,0,1-3.15-2.22,9.94,9.94,0,0,1-2-3.54,16.21,16.21,0,0,1,0-9.39,9.74,9.74,0,0,1,2-3.52,8.67,8.67,0,0,1,3.16-2.21,10.75,10.75,0,0,1,4.16-.77,11.1,11.1,0,0,1,3.72.61,8.06,8.06,0,0,1,3,1.86,8.82,8.82,0,0,1,2,3.14,12.3,12.3,0,0,1,.74,4.47q0,0.63,0,1.5a14.71,14.71,0,0,1-.14,1.73H778.95a4.79,4.79,0,0,0,.49,1.84,4.55,4.55,0,0,0,1,1.35,4.33,4.33,0,0,0,1.42.84,5,5,0,0,0,1.7.29,6,6,0,0,0,2.58-.52,5.71,5.71,0,0,0,2-1.69l3.35,3.37a10,10,0,0,1-3.31,2.64A10.26,10.26,0,0,1,783.59,96.17Zm0-17.64a4.91,4.91,0,0,0-3.14,1,4.27,4.27,0,0,0-1.46,3h8.75a4.68,4.68,0,0,0-1.39-2.92A4,4,0,0,0,783.59,78.53Z"/><path class="cls-2" d="M829.47,95.66V83.07a5.87,5.87,0,0,0-.33-2.16,3.21,3.21,0,0,0-.82-1.24,2.35,2.35,0,0,0-1.08-.55,5.65,5.65,0,0,0-1.14-.12,6.53,6.53,0,0,0-1.28.13,2.88,2.88,0,0,0-1.21.55,3.11,3.11,0,0,0-.9,1.22,5.28,5.28,0,0,0-.36,2.13V95.66h-5.44V83.07a5.87,5.87,0,0,0-.33-2.16,3.21,3.21,0,0,0-.82-1.24,2.35,2.35,0,0,0-1.09-.55,5.8,5.8,0,0,0-1.16-.12,6.29,6.29,0,0,0-1.25.13,3,3,0,0,0-1.21.55,3.05,3.05,0,0,0-.91,1.22A5.28,5.28,0,0,0,809.8,83V95.66h-5.44V74.26h5.44v2a6.32,6.32,0,0,1,2.11-1.81,6.23,6.23,0,0,1,3-.66,6.74,6.74,0,0,1,3.37.77,5.27,5.27,0,0,1,2.11,2.24,6.67,6.67,0,0,1,2.86-2.29,9.53,9.53,0,0,1,3.7-.72,11.56,11.56,0,0,1,3.17.42,6.26,6.26,0,0,1,2.55,1.4,6.64,6.64,0,0,1,1.69,2.61,11.53,11.53,0,0,1,.61,4V95.66h-5.46Z"/><path class="cls-2" d="M848.11,96.17a10.42,10.42,0,0,1-4.09-.77,8.44,8.44,0,0,1-3.1-2.21,10,10,0,0,1-2-3.52,16.21,16.21,0,0,1,0-9.39,10.11,10.11,0,0,1,2-3.54,8.4,8.4,0,0,1,3.1-2.22,11.28,11.28,0,0,1,8.18,0,8.41,8.41,0,0,1,3.1,2.22,10,10,0,0,1,2,3.54,16.43,16.43,0,0,1,0,9.39,9.88,9.88,0,0,1-2,3.52,8.45,8.45,0,0,1-3.1,2.21A10.42,10.42,0,0,1,848.11,96.17Zm0-5.23a4,4,0,0,0,1.84-.41,3.79,3.79,0,0,0,1.38-1.18,5.7,5.7,0,0,0,.87-1.87,10.38,10.38,0,0,0,0-5,5.84,5.84,0,0,0-.87-1.88A3.78,3.78,0,0,0,850,79.41a4.34,4.34,0,0,0-3.68,0,3.77,3.77,0,0,0-1.38,1.19,5.84,5.84,0,0,0-.87,1.88,10.38,10.38,0,0,0,0,5,5.7,5.7,0,0,0,.87,1.87,3.79,3.79,0,0,0,1.38,1.18A4,4,0,0,0,848.11,90.94Z"/><path class="cls-2" d="M861.51,95.66V74.26h5.44v1.9a4.07,4.07,0,0,1,1.42-1.71,4.32,4.32,0,0,1,2.55-.69,6.27,6.27,0,0,1,2.38.43,7.36,7.36,0,0,1,2,1.21l-0.74,5a8.25,8.25,0,0,0-1.71-.89,6.1,6.1,0,0,0-2.2-.36,4.68,4.68,0,0,0-1.38.2,2.82,2.82,0,0,0-1.18.72,3.61,3.61,0,0,0-.82,1.41,7.14,7.14,0,0,0-.31,2.27V95.66h-5.44Z"/><path class="cls-2" d="M886.75,96.17a10.82,10.82,0,0,1-4.18-.77,8.54,8.54,0,0,1-3.15-2.22,9.94,9.94,0,0,1-2-3.54,16.21,16.21,0,0,1,0-9.39,9.74,9.74,0,0,1,2-3.52,8.67,8.67,0,0,1,3.16-2.21,10.75,10.75,0,0,1,4.16-.77,11.1,11.1,0,0,1,3.72.61,8.06,8.06,0,0,1,3,1.86,8.82,8.82,0,0,1,2,3.14,12.3,12.3,0,0,1,.74,4.47q0,0.63,0,1.5a14.71,14.71,0,0,1-.14,1.73H882.11a4.79,4.79,0,0,0,.49,1.84,4.55,4.55,0,0,0,1,1.35,4.33,4.33,0,0,0,1.42.84,5,5,0,0,0,1.7.29,6,6,0,0,0,2.58-.52,5.71,5.71,0,0,0,2-1.69l3.35,3.37a10,10,0,0,1-3.31,2.64A10.26,10.26,0,0,1,886.75,96.17Zm0-17.64a4.91,4.91,0,0,0-3.14,1,4.27,4.27,0,0,0-1.46,3h8.75a4.68,4.68,0,0,0-1.39-2.92A4,4,0,0,0,886.75,78.53Z"/><path class="cls-2" d="M901.45,96.17a3.65,3.65,0,0,1-1.4-.27,3.49,3.49,0,0,1-1.11-.73,3.28,3.28,0,0,1-.74-1.09,3.44,3.44,0,0,1-.27-1.35,3.5,3.5,0,0,1,.27-1.37,3.36,3.36,0,0,1,1.85-1.84,3.83,3.83,0,0,1,2.8,0,3.47,3.47,0,0,1,1.88,1.84,3.41,3.41,0,0,1,.28,1.37,3.37,3.37,0,0,1-1,2.44,3.61,3.61,0,0,1-1.12.73A3.66,3.66,0,0,1,901.45,96.17Z"/><path class="cls-2" d="M930.63,74.32a5.11,5.11,0,0,0-.72-1.23,4.7,4.7,0,0,0-1.07-1,5.15,5.15,0,0,0-1.43-.65,6.42,6.42,0,0,0-1.79-.23,4.88,4.88,0,0,0-2.87.74,2.39,2.39,0,0,0-1,2.06,1.9,1.9,0,0,0,.65,1.47,6.53,6.53,0,0,0,1.72,1.07,21.81,21.81,0,0,0,2.42.91q1.36,0.43,2.79,1a23.25,23.25,0,0,1,2.79,1.23,10.17,10.17,0,0,1,2.42,1.74,7.73,7.73,0,0,1,2.37,5.86,8.49,8.49,0,0,1-.82,3.8,8.24,8.24,0,0,1-2.24,2.8,9.9,9.9,0,0,1-3.36,1.74,14.31,14.31,0,0,1-4.19.59,12.86,12.86,0,0,1-3.86-.56,11.43,11.43,0,0,1-3.26-1.6,11.07,11.07,0,0,1-2.55-2.53,12.5,12.5,0,0,1-1.72-3.35L920,86.2a9.38,9.38,0,0,0,1.13,1.87,7.65,7.65,0,0,0,1.48,1.45,6.72,6.72,0,0,0,1.77.94,6,6,0,0,0,2,.34,7.69,7.69,0,0,0,1.93-.22,4.4,4.4,0,0,0,1.49-.67,3.08,3.08,0,0,0,1-1.11,3.37,3.37,0,0,0,.34-1.54,2.57,2.57,0,0,0-.65-1.79,5.86,5.86,0,0,0-1.72-1.27,16.52,16.52,0,0,0-2.42-1q-1.36-.44-2.78-0.93a25.68,25.68,0,0,1-2.78-1.14,10.1,10.1,0,0,1-2.42-1.62,7.57,7.57,0,0,1,.22-11.26,9.41,9.41,0,0,1,3.11-1.75,12.74,12.74,0,0,1,4.21-.64,11.82,11.82,0,0,1,3.59.51,9.6,9.6,0,0,1,2.83,1.42,8.82,8.82,0,0,1,2.06,2.15,9.6,9.6,0,0,1,1.27,2.71Z"/><path class="cls-2" d="M954.08,95.66V83.11a5.4,5.4,0,0,0-.29-1.86A3.42,3.42,0,0,0,953,80a3.14,3.14,0,0,0-1.19-.74,4.44,4.44,0,0,0-1.47-.24,5.63,5.63,0,0,0-1.57.21,3.4,3.4,0,0,0-1.29.7,3.29,3.29,0,0,0-.87,1.25,4.9,4.9,0,0,0-.32,1.87V95.66h-5.44V67.94l5.44-2.51V76.28a6.59,6.59,0,0,1,2.42-1.86,7.91,7.91,0,0,1,3.3-.65,9.35,9.35,0,0,1,2.72.41,6.16,6.16,0,0,1,2.41,1.39,7.11,7.11,0,0,1,1.72,2.6,10.79,10.79,0,0,1,.65,4V95.66h-5.44Z"/><path class="cls-2" d="M976.06,95.66V94.11a6,6,0,0,1-.89.76,6.6,6.6,0,0,1-1.22.66,8.05,8.05,0,0,1-1.54.47,9.5,9.5,0,0,1-1.89.17,10.26,10.26,0,0,1-3.09-.45,7.08,7.08,0,0,1-2.49-1.35,6.4,6.4,0,0,1-1.68-2.22,7.23,7.23,0,0,1-.61-3.08,6.5,6.5,0,0,1,.74-3.18,6.63,6.63,0,0,1,1.93-2.21A8.18,8.18,0,0,1,968,82.42a12,12,0,0,1,3.12-.41,12.25,12.25,0,0,1,2.73.28,10.55,10.55,0,0,1,2.18.75v-1.1a3.14,3.14,0,0,0-1-2.58,4.43,4.43,0,0,0-2.86-.82,10.62,10.62,0,0,0-3.5.55,12.92,12.92,0,0,0-3.11,1.59l-1.68-4.4a13.7,13.7,0,0,1,1.71-1,15.19,15.19,0,0,1,2.06-.81A16,16,0,0,1,970,74a17.12,17.12,0,0,1,2.63-.19q1,0,2,.1a9.92,9.92,0,0,1,2,.41,7.41,7.41,0,0,1,1.84.88A5.84,5.84,0,0,1,980,76.64a7.17,7.17,0,0,1,1,2.23,11.43,11.43,0,0,1,.38,3.14V95.66h-5.36Zm-4.5-4.27a6,6,0,0,0,2.6-.52,7.77,7.77,0,0,0,1.9-1.24V87.32a11.91,11.91,0,0,0-1.87-.5,11.46,11.46,0,0,0-2.12-.19,9,9,0,0,0-1.58.13,4.49,4.49,0,0,0-1.31.43,2.45,2.45,0,0,0-.89.77,1.92,1.92,0,0,0-.33,1.12,2,2,0,0,0,.92,1.68A4.71,4.71,0,0,0,971.56,91.39Z"/><path class="cls-2" d="M985.61,95.66V74.26H991v1.9a4.07,4.07,0,0,1,1.42-1.71,4.32,4.32,0,0,1,2.55-.69,6.27,6.27,0,0,1,2.38.43,7.36,7.36,0,0,1,2,1.21l-0.74,5a8.25,8.25,0,0,0-1.71-.89,6.1,6.1,0,0,0-2.2-.36,4.68,4.68,0,0,0-1.38.2,2.82,2.82,0,0,0-1.18.72,3.61,3.61,0,0,0-.82,1.41,7.14,7.14,0,0,0-.31,2.27V95.66h-5.44Z"/><path class="cls-2" d="M1010.86,96.17a10.82,10.82,0,0,1-4.18-.77,8.54,8.54,0,0,1-3.15-2.22,9.94,9.94,0,0,1-2-3.54,16.21,16.21,0,0,1,0-9.39,9.74,9.74,0,0,1,2-3.52,8.67,8.67,0,0,1,3.16-2.21,10.75,10.75,0,0,1,4.16-.77,11.1,11.1,0,0,1,3.72.61,8.06,8.06,0,0,1,3,1.86,8.82,8.82,0,0,1,2,3.14,12.3,12.3,0,0,1,.74,4.47q0,0.63,0,1.5a14.71,14.71,0,0,1-.14,1.73h-13.94a4.79,4.79,0,0,0,.49,1.84,4.55,4.55,0,0,0,1,1.35,4.33,4.33,0,0,0,1.42.84,5,5,0,0,0,1.7.29,6,6,0,0,0,2.58-.52,5.71,5.71,0,0,0,2-1.69l3.35,3.37a10,10,0,0,1-3.31,2.64A10.26,10.26,0,0,1,1010.86,96.17Zm0-17.64a4.91,4.91,0,0,0-3.14,1,4.27,4.27,0,0,0-1.46,3H1015a4.68,4.68,0,0,0-1.39-2.92A4,4,0,0,0,1010.86,78.53Z"/><path class="cls-2" d="M1056.73,95.66V83.07a5.87,5.87,0,0,0-.33-2.16,3.21,3.21,0,0,0-.82-1.24,2.35,2.35,0,0,0-1.08-.55,5.65,5.65,0,0,0-1.14-.12,6.53,6.53,0,0,0-1.28.13,2.88,2.88,0,0,0-1.21.55,3.11,3.11,0,0,0-.9,1.22,5.28,5.28,0,0,0-.36,2.13V95.66h-5.44V83.07a5.87,5.87,0,0,0-.33-2.16,3.21,3.21,0,0,0-.82-1.24,2.35,2.35,0,0,0-1.09-.55,5.8,5.8,0,0,0-1.16-.12,6.29,6.29,0,0,0-1.25.13,3,3,0,0,0-1.21.55,3.05,3.05,0,0,0-.91,1.22,5.28,5.28,0,0,0-.36,2.13V95.66h-5.44V74.26h5.44v2a6.32,6.32,0,0,1,2.11-1.81,6.23,6.23,0,0,1,3-.66,6.74,6.74,0,0,1,3.37.77,5.27,5.27,0,0,1,2.11,2.24,6.67,6.67,0,0,1,2.86-2.29,9.53,9.53,0,0,1,3.7-.72,11.56,11.56,0,0,1,3.17.42,6.26,6.26,0,0,1,2.55,1.4,6.64,6.64,0,0,1,1.69,2.61,11.53,11.53,0,0,1,.61,4V95.66h-5.46Z"/><path class="cls-2" d="M1075.38,96.17a10.42,10.42,0,0,1-4.09-.77,8.44,8.44,0,0,1-3.1-2.21,10,10,0,0,1-2-3.52,16.21,16.21,0,0,1,0-9.39,10.11,10.11,0,0,1,2-3.54,8.4,8.4,0,0,1,3.1-2.22,11.28,11.28,0,0,1,8.18,0,8.41,8.41,0,0,1,3.1,2.22,10,10,0,0,1,2,3.54,16.43,16.43,0,0,1,0,9.39,9.88,9.88,0,0,1-2,3.52,8.45,8.45,0,0,1-3.1,2.21A10.42,10.42,0,0,1,1075.38,96.17Zm0-5.23a4.05,4.05,0,0,0,1.84-.41,3.79,3.79,0,0,0,1.38-1.18,5.7,5.7,0,0,0,.87-1.87,10.38,10.38,0,0,0,0-5,5.84,5.84,0,0,0-.87-1.88,3.78,3.78,0,0,0-1.38-1.19,4.34,4.34,0,0,0-3.68,0,3.77,3.77,0,0,0-1.38,1.19,5.84,5.84,0,0,0-.87,1.88,10.38,10.38,0,0,0,0,5,5.7,5.7,0,0,0,.87,1.87,3.79,3.79,0,0,0,1.38,1.18A4,4,0,0,0,1075.38,90.94Z"/><path class="cls-2" d="M1088.77,95.66V74.26h5.44v1.9a4.07,4.07,0,0,1,1.42-1.71,4.32,4.32,0,0,1,2.55-.69,6.27,6.27,0,0,1,2.38.43,7.36,7.36,0,0,1,2,1.21l-0.74,5a8.25,8.25,0,0,0-1.71-.89,6.1,6.1,0,0,0-2.2-.36,4.68,4.68,0,0,0-1.38.2,2.82,2.82,0,0,0-1.18.72,3.61,3.61,0,0,0-.82,1.41,7.14,7.14,0,0,0-.31,2.27V95.66h-5.44Z"/><path class="cls-2" d="M1114,96.17a10.82,10.82,0,0,1-4.18-.77,8.54,8.54,0,0,1-3.15-2.22,9.94,9.94,0,0,1-2-3.54,16.21,16.21,0,0,1,0-9.39,9.74,9.74,0,0,1,2-3.52,8.67,8.67,0,0,1,3.16-2.21,10.75,10.75,0,0,1,4.16-.77,11.1,11.1,0,0,1,3.72.61,8.06,8.06,0,0,1,3,1.86,8.82,8.82,0,0,1,2,3.14,12.3,12.3,0,0,1,.74,4.47q0,0.63,0,1.5a14.71,14.71,0,0,1-.14,1.73h-13.94a4.79,4.79,0,0,0,.49,1.84,4.55,4.55,0,0,0,1,1.35,4.33,4.33,0,0,0,1.42.84,5,5,0,0,0,1.7.29,6,6,0,0,0,2.58-.52,5.71,5.71,0,0,0,2-1.69l3.35,3.37a10,10,0,0,1-3.31,2.64A10.26,10.26,0,0,1,1114,96.17Zm0-17.64a4.91,4.91,0,0,0-3.14,1,4.27,4.27,0,0,0-1.46,3h8.75a4.68,4.68,0,0,0-1.39-2.92A4,4,0,0,0,1114,78.53Z"/><path class="cls-2" d="M1128.72,96.17a3.65,3.65,0,0,1-1.4-.27,3.49,3.49,0,0,1-1.11-.73,3.28,3.28,0,0,1-.74-1.09,3.44,3.44,0,0,1-.27-1.35,3.5,3.5,0,0,1,.27-1.37,3.36,3.36,0,0,1,1.85-1.84,3.83,3.83,0,0,1,2.8,0,3.47,3.47,0,0,1,1.88,1.84,3.41,3.41,0,0,1,.28,1.37,3.37,3.37,0,0,1-1,2.44,3.61,3.61,0,0,1-1.12.73A3.66,3.66,0,0,1,1128.72,96.17Z"/><path class="cls-3" d="M905.44,7.64H910a4.66,4.66,0,0,1,1.61.24,2.89,2.89,0,0,1,1,.64,2.28,2.28,0,0,1,.57.9,3.19,3.19,0,0,1,.17,1,3,3,0,0,1-.07.65,2.11,2.11,0,0,1-.22.59,2.16,2.16,0,0,1-.39.5,2.32,2.32,0,0,1-.58.4,2.53,2.53,0,0,1,.76.43,2.4,2.4,0,0,1,.79,1.27,3,3,0,0,1,.09.71,3.46,3.46,0,0,1-.19,1.11,2.7,2.7,0,0,1-.61,1,3.1,3.1,0,0,1-1.1.72,4.36,4.36,0,0,1-1.66.28h-4.81V7.64Zm4.36,4.12a1.9,1.9,0,0,0,1.19-.31,1,1,0,0,0,.39-0.81,1.55,1.55,0,0,0-.05-0.39,0.85,0.85,0,0,0-.19-0.36,1,1,0,0,0-.4-0.26,1.91,1.91,0,0,0-.67-0.1h-2.6v2.24h2.33Zm0.56,4.47a1.77,1.77,0,0,0,.68-0.11,1.17,1.17,0,0,0,.43-0.29,1,1,0,0,0,.22-0.39,1.47,1.47,0,0,0,.07-0.43,1.7,1.7,0,0,0-.08-0.5,1,1,0,0,0-.28-0.43,1.51,1.51,0,0,0-.56-0.31,2.89,2.89,0,0,0-.9-0.12h-2.47v2.59h2.89Z"/><path class="cls-3" d="M916.11,18.12V7.64H921a4.41,4.41,0,0,1,1.66.27,2.92,2.92,0,0,1,1.08.73,2.68,2.68,0,0,1,.58,1,4.33,4.33,0,0,1,.17,1.24,3.33,3.33,0,0,1-1.15,2.51,2.75,2.75,0,0,1-.88.52l2,4.17H922.2l-2-3.91h-2.11v3.91h-2ZM921,12.3a1.66,1.66,0,0,0,.65-0.11,1.1,1.1,0,0,0,.65-0.74,1.9,1.9,0,0,0,.07-0.52,2,2,0,0,0-.06-0.49A1.15,1.15,0,0,0,922.1,10a1.08,1.08,0,0,0-.42-0.31A1.69,1.69,0,0,0,921,9.56h-2.87V12.3H921Z"/><path class="cls-3" d="M931,18.3a4.81,4.81,0,0,1-1.52-.22,4.16,4.16,0,0,1-1.19-.61,3.94,3.94,0,0,1-.88-0.91,5.17,5.17,0,0,1-.6-1.12,6.4,6.4,0,0,1-.34-1.26,8.05,8.05,0,0,1,0-2.6,6.4,6.4,0,0,1,.34-1.26,5.18,5.18,0,0,1,.6-1.13,4,4,0,0,1,.88-0.91,4.16,4.16,0,0,1,1.19-.61,5.29,5.29,0,0,1,3,0,4.12,4.12,0,0,1,1.18.61,4,4,0,0,1,.88.91,5.18,5.18,0,0,1,.6,1.13,6.4,6.4,0,0,1,.34,1.26,8.05,8.05,0,0,1,0,2.6,6.4,6.4,0,0,1-.34,1.26,5.17,5.17,0,0,1-.6,1.12,4,4,0,0,1-.88.91,4.12,4.12,0,0,1-1.18.61A4.78,4.78,0,0,1,931,18.3Zm0-2a2,2,0,0,0,1.18-.33,2.56,2.56,0,0,0,.77-0.84,3.86,3.86,0,0,0,.43-1.12,5.57,5.57,0,0,0,.13-1.18,6.15,6.15,0,0,0-.05-0.81,4.55,4.55,0,0,0-.18-0.8,3.76,3.76,0,0,0-.32-0.72,2.44,2.44,0,0,0-.48-0.59,2.11,2.11,0,0,0-.65-0.4A2.26,2.26,0,0,0,931,9.41a2.12,2.12,0,0,0-1.49.57,2.51,2.51,0,0,0-.48.6,3.77,3.77,0,0,0-.32.73,4.58,4.58,0,0,0-.18.79,5.75,5.75,0,0,0-.05.78,5.81,5.81,0,0,0,.13,1.22,3.71,3.71,0,0,0,.43,1.12,2.48,2.48,0,0,0,.78.82A2.12,2.12,0,0,0,931,16.35Z"/><path class="cls-3" d="M942.12,18.3a6.13,6.13,0,0,1-1.06-.09,4.28,4.28,0,0,1-1-.3,3.72,3.72,0,0,1-.87-0.53,3.22,3.22,0,0,1-.69-0.79,3.94,3.94,0,0,1-.46-1.08,5.41,5.41,0,0,1-.16-1.4V7.64h2v6.47a3.36,3.36,0,0,0,.15,1.08,1.62,1.62,0,0,0,.43.69,1.64,1.64,0,0,0,.69.36,3.68,3.68,0,0,0,.92.11,3.6,3.6,0,0,0,.91-0.11,1.67,1.67,0,0,0,.69-0.36,1.62,1.62,0,0,0,.44-0.69,3.29,3.29,0,0,0,.15-1.08V7.64h2v6.47a4.91,4.91,0,0,1-.35,2,3.47,3.47,0,0,1-.94,1.29,3.64,3.64,0,0,1-1.35.71A5.66,5.66,0,0,1,942.12,18.3Z"/><path class="cls-3" d="M953.19,18.3a4.78,4.78,0,0,1-1.47-.21,4.11,4.11,0,0,1-1.17-.58,4,4,0,0,1-.88-0.89,5.2,5.2,0,0,1-.61-1.11,6.24,6.24,0,0,1-.36-1.27,7.86,7.86,0,0,1-.12-1.36,7.06,7.06,0,0,1,.12-1.29,6.2,6.2,0,0,1,.37-1.25,5.71,5.71,0,0,1,.63-1.13,4.13,4.13,0,0,1,2.05-1.52,4.38,4.38,0,0,1,1.44-.22,4.3,4.3,0,0,1,1.34.19,4,4,0,0,1,1,.5,3.79,3.79,0,0,1,.78.72,8.16,8.16,0,0,1,.6.84l-1.78,1a5.24,5.24,0,0,0-.38-0.5,3,3,0,0,0-.44-0.42,2,2,0,0,0-.52-0.29,1.79,1.79,0,0,0-.63-0.11,2.3,2.3,0,0,0-.86.15,2.11,2.11,0,0,0-.65.41,2.38,2.38,0,0,0-.47.6,3.78,3.78,0,0,0-.31.73,4.76,4.76,0,0,0-.17.79,6.2,6.2,0,0,0-.05.79,5.87,5.87,0,0,0,.14,1.29,3.51,3.51,0,0,0,.44,1.11,2.35,2.35,0,0,0,.78.78,2.17,2.17,0,0,0,1.15.29,1.87,1.87,0,0,0,.71-0.14,1.91,1.91,0,0,0,.58-0.37,1.69,1.69,0,0,0,.39-0.54,1.61,1.61,0,0,0,.14-0.67V14.55h-1.78V12.62h3.84v1.54a4.9,4.9,0,0,1-.3,1.78,3.7,3.7,0,0,1-.82,1.29,3.45,3.45,0,0,1-1.23.79A4.27,4.27,0,0,1,953.19,18.3Z"/><path class="cls-3" d="M965.73,18.12V13.69h-4.38v4.43h-2V7.64h2v4.14h4.38V7.64h2V18.12h-2Z"/><path class="cls-3" d="M974.79,9.59v8.53h-2V9.59h-3v-2h8v2h-3Z"/><path class="cls-3" d="M987.58,9.59v8.53h-2V9.59h-3v-2h8v2h-3Z"/><path class="cls-3" d="M996.48,18.3a4.81,4.81,0,0,1-1.52-.22,4.16,4.16,0,0,1-1.19-.61,3.94,3.94,0,0,1-.88-0.91,5.17,5.17,0,0,1-.6-1.12,6.4,6.4,0,0,1-.34-1.26,8.05,8.05,0,0,1,0-2.6,6.4,6.4,0,0,1,.34-1.26,5.18,5.18,0,0,1,.6-1.13,4,4,0,0,1,.88-0.91A4.16,4.16,0,0,1,995,7.69a5.29,5.29,0,0,1,3,0,4.12,4.12,0,0,1,1.18.61,4,4,0,0,1,.88.91,5.18,5.18,0,0,1,.6,1.13,6.4,6.4,0,0,1,.34,1.26,8.05,8.05,0,0,1,0,2.6,6.4,6.4,0,0,1-.34,1.26,5.17,5.17,0,0,1-.6,1.12,4,4,0,0,1-.88.91,4.12,4.12,0,0,1-1.18.61A4.78,4.78,0,0,1,996.48,18.3Zm0-2a2,2,0,0,0,1.18-.33,2.56,2.56,0,0,0,.77-0.84,3.86,3.86,0,0,0,.43-1.12,5.57,5.57,0,0,0,.13-1.18,6.15,6.15,0,0,0-.05-0.81,4.55,4.55,0,0,0-.18-0.8,3.76,3.76,0,0,0-.32-0.72A2.44,2.44,0,0,0,998,10a2.11,2.11,0,0,0-.65-0.4,2.26,2.26,0,0,0-.84-0.15A2.12,2.12,0,0,0,995,10a2.51,2.51,0,0,0-.48.6,3.77,3.77,0,0,0-.32.73,4.58,4.58,0,0,0-.18.79,5.75,5.75,0,0,0-.05.78,5.81,5.81,0,0,0,.13,1.22,3.71,3.71,0,0,0,.43,1.12,2.48,2.48,0,0,0,.78.82A2.12,2.12,0,0,0,996.48,16.35Z"/><path class="cls-3" d="M1009.83,18.12V14L1006,7.64h2.29l2.59,4.28,2.59-4.28h2.29L1011.83,14v4.08h-2Z"/><path class="cls-3" d="M1020.93,18.3a4.81,4.81,0,0,1-1.52-.22,4.16,4.16,0,0,1-1.19-.61,3.94,3.94,0,0,1-.88-0.91,5.17,5.17,0,0,1-.6-1.12,6.4,6.4,0,0,1-.34-1.26,8.05,8.05,0,0,1,0-2.6,6.4,6.4,0,0,1,.34-1.26,5.18,5.18,0,0,1,.6-1.13,4,4,0,0,1,.88-0.91,4.16,4.16,0,0,1,1.19-.61,5.29,5.29,0,0,1,3,0,4.12,4.12,0,0,1,1.18.61,4,4,0,0,1,.88.91,5.18,5.18,0,0,1,.6,1.13,6.4,6.4,0,0,1,.34,1.26,8.05,8.05,0,0,1,0,2.6,6.4,6.4,0,0,1-.34,1.26,5.17,5.17,0,0,1-.6,1.12,4,4,0,0,1-.88.91,4.12,4.12,0,0,1-1.18.61A4.78,4.78,0,0,1,1020.93,18.3Zm0-2a2,2,0,0,0,1.18-.33,2.56,2.56,0,0,0,.77-0.84,3.86,3.86,0,0,0,.43-1.12,5.57,5.57,0,0,0,.13-1.18,6.15,6.15,0,0,0-.05-0.81,4.55,4.55,0,0,0-.18-0.8,3.76,3.76,0,0,0-.32-0.72,2.44,2.44,0,0,0-.48-0.59,2.11,2.11,0,0,0-.65-0.4,2.26,2.26,0,0,0-.84-0.15,2.12,2.12,0,0,0-1.49.57,2.51,2.51,0,0,0-.48.6,3.77,3.77,0,0,0-.32.73,4.58,4.58,0,0,0-.18.79,5.75,5.75,0,0,0-.05.78,5.81,5.81,0,0,0,.13,1.22,3.71,3.71,0,0,0,.43,1.12,2.48,2.48,0,0,0,.78.82A2.12,2.12,0,0,0,1020.93,16.35Z"/><path class="cls-3" d="M1032,18.3a6.13,6.13,0,0,1-1.06-.09,4.28,4.28,0,0,1-1-.3,3.72,3.72,0,0,1-.87-0.53,3.22,3.22,0,0,1-.69-0.79,3.94,3.94,0,0,1-.46-1.08,5.41,5.41,0,0,1-.16-1.4V7.64h2v6.47a3.36,3.36,0,0,0,.15,1.08,1.62,1.62,0,0,0,.43.69,1.64,1.64,0,0,0,.69.36,3.68,3.68,0,0,0,.92.11,3.6,3.6,0,0,0,.91-0.11,1.67,1.67,0,0,0,.69-0.36,1.62,1.62,0,0,0,.44-0.69,3.29,3.29,0,0,0,.15-1.08V7.64h2v6.47a4.91,4.91,0,0,1-.35,2,3.47,3.47,0,0,1-.94,1.29,3.64,3.64,0,0,1-1.35.71A5.66,5.66,0,0,1,1032,18.3Z"/><path class="cls-3" d="M1042.29,7.64h4.6a4.66,4.66,0,0,1,1.61.24,2.89,2.89,0,0,1,1,.64,2.28,2.28,0,0,1,.57.9,3.19,3.19,0,0,1,.17,1,3,3,0,0,1-.07.65,2.11,2.11,0,0,1-.22.59,2.16,2.16,0,0,1-.39.5,2.32,2.32,0,0,1-.58.4,2.53,2.53,0,0,1,.76.43,2.4,2.4,0,0,1,.79,1.27,3,3,0,0,1,.09.71,3.46,3.46,0,0,1-.19,1.11,2.7,2.7,0,0,1-.61,1,3.1,3.1,0,0,1-1.1.72,4.36,4.36,0,0,1-1.66.28h-4.81V7.64Zm4.36,4.12a1.9,1.9,0,0,0,1.19-.31,1,1,0,0,0,.39-0.81,1.55,1.55,0,0,0-.05-0.39,0.85,0.85,0,0,0-.19-0.36,1,1,0,0,0-.4-0.26,1.91,1.91,0,0,0-.67-0.1h-2.6v2.24h2.33Zm0.56,4.47a1.77,1.77,0,0,0,.68-0.11,1.17,1.17,0,0,0,.43-0.29,1,1,0,0,0,.22-0.39,1.47,1.47,0,0,0,.07-0.43,1.7,1.7,0,0,0-.08-0.5,1,1,0,0,0-.28-0.43,1.51,1.51,0,0,0-.56-0.31,2.89,2.89,0,0,0-.9-0.12h-2.47v2.59h2.89Z"/><path class="cls-3" d="M1055.19,18.12V14l-3.88-6.39h2.29l2.59,4.28,2.59-4.28h2.29L1057.19,14v4.08h-2Z"/><path class="cls-3" d="M1066.31,18.12V7.64h4.87a4.41,4.41,0,0,1,1.66.27,2.92,2.92,0,0,1,1.08.73,2.68,2.68,0,0,1,.58,1,4.33,4.33,0,0,1,.17,1.24,3.33,3.33,0,0,1-1.15,2.51,2.75,2.75,0,0,1-.88.52l2,4.17h-2.27l-2-3.91h-2.11v3.91h-2Zm4.9-5.82a1.66,1.66,0,0,0,.65-0.11,1.1,1.1,0,0,0,.65-0.74,1.9,1.9,0,0,0,.07-0.52,2,2,0,0,0-.06-0.49,1.15,1.15,0,0,0-.22-0.44,1.08,1.08,0,0,0-.42-0.31,1.69,1.69,0,0,0-.68-0.12h-2.87V12.3h2.87Z"/><path class="cls-3" d="M1077,18.12V7.64h7.15V9.56H1079v2.2h3v1.91h-3V16.2h5.44v1.91H1077Z"/><path class="cls-3" d="M1086.63,7.64h3.54a6,6,0,0,1,1.64.21,4.82,4.82,0,0,1,1.3.57,4,4,0,0,1,1,.87,4.91,4.91,0,0,1,.66,1.08,5.41,5.41,0,0,1,.38,1.22,7,7,0,0,1,.12,1.29,6.83,6.83,0,0,1-.11,1.22,5.58,5.58,0,0,1-.36,1.21,4.91,4.91,0,0,1-.65,1.09,4.14,4.14,0,0,1-1,.9,4.76,4.76,0,0,1-1.33.6,6.14,6.14,0,0,1-1.72.22h-3.47V7.64Zm3.71,8.56a2.63,2.63,0,0,0,1.32-.3,2.57,2.57,0,0,0,.86-0.78A3.25,3.25,0,0,0,1093,14a4.89,4.89,0,0,0,.15-1.17,4.82,4.82,0,0,0-.15-1.21,3.38,3.38,0,0,0-.47-1.06,2.46,2.46,0,0,0-.82-0.76,2.34,2.34,0,0,0-1.19-.29h-1.86V16.2h1.69Z"/><path class="cls-3" d="M1107.4,18.12V13.69H1103v4.43h-2V7.64h2v4.14h4.38V7.64h2V18.12h-2Z"/><path class="cls-3" d="M1119.15,18.12l-0.81-2.17h-4l-0.8,2.17h-2.17l4-10.48h2l4,10.48h-2.17Zm-2.5-6.74c-0.05-.13-0.11-0.28-0.17-0.45s-0.11-.34-0.16-0.49q-0.06.23-.15,0.49c-0.06.18-.12,0.33-0.18,0.45l-1,2.73h2.73Z"/><path class="cls-3" d="M1126.37,9.59v8.53h-2V9.59h-3v-2h8v2h-3Z"/></svg>