<?xml version="1.0" encoding="utf-8"?>
<!-- Generator: Adobe Illustrator 19.2.0, SVG Export Plug-In . SVG Version: 6.00 Build 0)  -->
<svg version="1.1" id="Layer_1" xmlns="http://www.w3.org/2000/svg" xmlns:xlink="http://www.w3.org/1999/xlink" x="0px" y="0px"
	 viewBox="0 0 30 30" style="enable-background:new 0 0 30 30;" xml:space="preserve">
<style type="text/css">
	.st0{fill:#FFFFFF;}
</style>
<title>home_join_icons_</title>
<path class="st0" d="M15.2,23.7c-0.1,0-0.2,0-0.2-0.1l-7.5-9c-0.3-0.3-0.4-0.7-0.3-1.1c0.2-0.4,0.6-0.6,1-0.4l3.2,0.5V3
	c0-0.2,0.1-0.3,0.3-0.3l0,0h7.1c0.2,0,0.3,0.2,0.3,0.3v10.6l3.2-0.5h0.2c0.3,0,0.6,0.1,0.8,0.4c0.1,0.4,0,0.8-0.3,1.1l-7.4,9
	C15.4,23.7,15.3,23.7,15.2,23.7z M8,13.7c-0.1,0-0.2,0-0.2,0.1c0,0.2,0.1,0.3,0.2,0.4l7.2,8.7l7.2-8.7c0.1-0.1,0.2-0.3,0.2-0.4
	c-0.1-0.1-0.2-0.1-0.3-0.1l-3.5,0.5c-0.2,0-0.3-0.1-0.3-0.3c0,0,0,0,0,0V3.3H12v10.7c0,0.2-0.1,0.3-0.3,0.3c0,0,0,0,0,0l-3.5-0.5
	L8,13.7L8,13.7z"/>
<path class="st0" d="M22.4,27.8H8c-0.2,0-0.3-0.1-0.3-0.3v-2.3c0-0.2,0.1-0.3,0.3-0.3h14.4c0.2,0,0.3,0.1,0.3,0.3v2.3
	C22.7,27.6,22.6,27.7,22.4,27.8z M8.3,27.1h13.9v-1.7H8.3V27.1z"/>
</svg>
