<svg id="Layer_1" data-name="Layer 1" xmlns="http://www.w3.org/2000/svg" viewBox="0 0 30 30"><defs><style>.cls-1{fill:#fff;}</style></defs><title>RHDev_homepage_icons</title><path class="cls-1" d="M15,23.63a0.31,0.31,0,0,1-.24-0.11L7.17,14.39a1,1,0,0,1-.32-1.08,0.84,0.84,0,0,1,1-.44l3.24,0.48V2.57a0.31,0.31,0,0,1,.31-0.31h7.23a0.31,0.31,0,0,1,.31.31V13.35l3.23-.48h0.19a0.78,0.78,0,0,1,.8.45,1,1,0,0,1-.34,1.1l-7.57,9.11A0.31,0.31,0,0,1,15,23.63ZM7.65,13.48a0.26,0.26,0,0,0-.22.06,0.51,0.51,0,0,0,.2.42L15,22.82,22.34,14a0.54,0.54,0,0,0,.22-0.44,0.39,0.39,0,0,0-.33-0.06L18.66,14a0.31,0.31,0,0,1-.36-0.31V2.88H11.7V13.71a0.31,0.31,0,0,1-.36.31l-3.59-.53H7.65Z"/><path class="cls-1" d="M22.33,27.75H7.67a0.3,0.3,0,0,1-.29-0.31V25.08a0.3,0.3,0,0,1,.29-0.31H22.33a0.3,0.3,0,0,1,.29.31v2.35A0.3,0.3,0,0,1,22.33,27.75ZM8,27.12H22V25.4H8v1.72Z"/></svg>