<svg id="Layer_1" xmlns="http://www.w3.org/2000/svg" viewBox="0 0 727.7 118.8"><style>.st0{fill:#424242}</style><path class="st0" d="M205.7 117.1l-4.7-2.7.5-.9 4.7 2.7-.5.9zm-7-4.1l-4.7-2.7.5-.9 4.7 2.7-.5.9zm-7-4l-4.7-2.7.5-.9 4.7 2.7-.5.9zm-7-4.1l-4.7-2.7.5-.9 4.7 2.7-.5.9zm-7-4l-4.7-2.7.5-.9 4.7 2.7-.5.9zm-7-4.1l-4.7-2.7.5-.9 4.7 2.7-.5.9zm-7.1-4.1l-4.7-2.7.5-.9 4.7 2.7-.5.9zm-7-4l-4.7-2.7.5-.9 4.7 2.7-.5.9zm-7-4.1l-4.7-2.7.5-.9 4.7 2.7-.5.9zm-7-4l-4.7-2.7.5-.9 4.7 2.7-.5.9zm-7-4.1l-4.7-2.7.5-.9 4.7 2.7-.5.9zm-7.1-4l-4.7-2.7.5-.9 4.7 2.7-.5.9zm-7-4.1l-4.7-2.7.5-.9 4.7 2.7-.5.9zm-7-4l-4.7-2.7.5-.9 4.7 2.7-.5.9zm-7-4.1l-4.7-2.7.5-.9 4.7 2.7-.5.9zm-7-4l-4.7-2.7.5-.9 4.7 2.7-.5.9zm-7.1-4.1l-4.7-2.7.5-.9 4.7 2.7-.5.9zm-7-4l-4.7-2.7.5-.9 4.7 2.7-.5.9zm-7-4.1l-4.7-2.7.5-.9 4.7 2.7-.5.9zm-7-4l-4.7-2.7.5-.9 4.7 2.7-.5.9zm-7-4.1l-4.7-2.7.5-.9 4.7 2.7-.5.9zm-7-4l-4.7-2.7.5-.9 4.7 2.7-.5.9zm-7.1-4.1l-4.7-2.7.5-.9 4.7 2.7-.5.9zm-7-4l-4.7-2.7.5-.9 4.7 2.7-.5.9zm-7-4.1l-4.7-2.7.5-.9 4.7 2.7-.5.9zm-7-4L25.5 13l.5-.9 4.7 2.7-.4 1zm-7-4.1L18.5 9l.5-.9 4.7 2.7-.4.9zm-7.1-4L11.5 5l.5-.9 4.7 2.7-.5.9zm-7-4.1L4.5.9 5 0l4.7 2.7-.5.9z"/><path class="st0" d="M173.1 116.2l4.7-2.7.5.9-4.7 2.7-.5-.9zm7-4.1l4.7-2.7.5.9-4.7 2.7-.5-.9zm7.1-4l4.7-2.7.5.9-4.7 2.7-.5-.9zm7-4.1l4.7-2.7.5.9-4.7 2.7-.5-.9zm7-4l4.7-2.7.5.9-4.7 2.7-.5-.9zm7-4.1l4.7-2.7.5.9-4.7 2.7-.5-.9zm7-4l4.7-2.7.5.9-4.7 2.7-.5-.9zm7.1-4.1l4.7-2.7.5.9-4.7 2.7-.5-.9zm7-4L234 81l.5.9-4.7 2.7-.5-.8zm7-4.1L241 77l.5.9-4.7 2.7-.5-.9zm7-4L248 73l.5.9-4.7 2.7-.5-.9zm7-4.1l4.7-2.7.5.9-4.7 2.7-.5-.9zm7.1-4l4.7-2.7.5.9-4.7 2.7-.5-.9zm7-4.1l4.7-2.7.5.9-4.7 2.7-.5-.9zm7-4l4.7-2.7.5.9-4.7 2.7-.5-.9zm7-4.1l4.7-2.7.5.9-4.7 2.7-.5-.9zm7-4l4.7-2.7.5.9-4.7 2.7-.5-.9zm7-4.1l4.7-2.7.5.9-4.7 2.7-.5-.9zm7.1-4l4.7-2.7.5.9-4.7 2.7-.5-.9zm7-4.1l4.7-2.7.5.9-4.7 2.7-.5-.9zm7-4.1l4.7-2.7.5.9L314 36l-.5-.9zm7-4l4.7-2.7.5.9L321 32l-.5-.9zm7-4.1l4.7-2.7.5.9-4.7 2.7-.5-.9zm7.1-4l4.7-2.7.5.9-4.7 2.7-.5-.9zm7-4.1l4.7-2.7.5.9-4.7 2.7-.5-.9zm7-4l4.7-2.7.5.9-4.7 2.7-.5-.9zm7-4.1l4.7-2.7.5.9-4.7 2.7-.5-.9zm7-4l4.7-2.7.5.9-4.7 2.7-.5-.9zm7.1-4.1l4.7-2.7.5.9-4.7 2.7-.5-.9zM337.9 116.2l4.7-2.7.5.9-4.7 2.7-.5-.9zm7.1-4.1l4.7-2.7.5.9-4.7 2.7-.5-.9zm7-4l4.7-2.7.5.9-4.7 2.7-.5-.9zm7-4.1l4.7-2.7.5.9-4.7 2.7-.5-.9zm7-4l4.7-2.7.5.9-4.7 2.7-.5-.9zm7-4.1l4.7-2.7.5.9-4.7 2.7-.5-.9zm7.1-4l4.7-2.7.5.9-4.7 2.7-.5-.9zm7-4.1l4.7-2.7.5.9-4.7 2.7-.5-.9zm7-4l4.7-2.7.5.9-4.7 2.7-.5-.9zm7-4.1l4.7-2.7.5.9-4.7 2.7-.5-.9zm7-4l4.7-2.7.5.9-4.7 2.7-.5-.9zm7-4.1l4.7-2.7.5.9-4.7 2.7-.5-.9zm7.1-4l4.7-2.7.5.9-4.7 2.7-.5-.9zm7-4.1l4.7-2.7.5.9-4.7 2.7-.5-.9zm7-4l4.7-2.7.5.9-4.7 2.7-.5-.9zm7-4.1l4.7-2.7.5.9-4.7 2.7-.5-.9zm7-4l4.7-2.7.5.9-4.7 2.7-.5-.9zm7.1-4.1l4.7-2.7.5.9-4.7 2.7-.5-.9zm7-4l4.7-2.7.5.9-4.7 2.7-.5-.9zm7-4.1l4.7-2.7.5.9-4.7 2.7-.5-.9zm7-4.1l4.7-2.7.5.9-4.7 2.7-.5-.9zm7-4l4.7-2.7.5.9-4.7 2.7-.5-.9zm7.1-4.1l4.7-2.7.5.9-4.7 2.7-.5-.9zm7-4l4.7-2.7.5.9-4.7 2.7-.5-.9zm7-4.1l4.7-2.7.5.9-4.7 2.7-.5-.9zm7-4l4.7-2.7.5.9-4.7 2.7-.5-.9zm7-4.1l4.7-2.7.5.9-4.7 2.7-.5-.9zm7-4l4.7-2.7.5.9-4.7 2.7-.5-.9zm7.1-4.1l4.7-2.7.5.9-4.7 2.7-.5-.9zM366.2 116.2l4.7-2.7.5.9-4.7 2.7-.5-.9zm7.1-4.1l4.7-2.7.5.9-4.7 2.7-.5-.9zm7-4l4.7-2.7.5.9-4.7 2.7-.5-.9zm7-4.1l4.7-2.7.5.9-4.7 2.7-.5-.9zm7-4l4.7-2.7.5.9-4.7 2.7-.5-.9zm7-4.1l4.7-2.7.5.9-4.7 2.7-.5-.9zm7-4l4.7-2.7.5.9-4.7 2.7-.5-.9zm7.1-4.1l4.7-2.7.5.9-4.7 2.7-.5-.9zm7-4l4.7-2.7.5.9-4.7 2.7-.5-.9zm7-4.1l4.7-2.7.5.9-4.7 2.7-.5-.9zm7-4l4.7-2.7.5.9-4.7 2.7-.5-.9zm7-4.1l4.7-2.7.5.9-4.7 2.7-.5-.9zm7.1-4l4.7-2.7.5.9-4.7 2.7-.5-.9zm7-4.1l4.7-2.7.5.9-4.7 2.7-.5-.9zm7-4l4.7-2.7.5.9-4.7 2.7-.5-.9zm7-4.1l4.7-2.7.5.9-4.7 2.7-.5-.9zm7-4l4.7-2.7.5.9-4.7 2.7-.5-.9zm7.1-4.1l4.7-2.7.5.9-4.7 2.7-.5-.9zm7-4l4.7-2.7.5.9-4.7 2.7-.5-.9zm7-4.1l4.7-2.7.5.9-4.7 2.7-.5-.9zm7-4.1l4.7-2.7.5.9-4.7 2.7-.5-.9zm7-4l4.7-2.7.5.9-4.7 2.7-.5-.9zm7-4.1l4.7-2.7.5.9-4.7 2.7-.5-.9zm7.1-4l4.7-2.7.5.9-4.7 2.7-.5-.9zm7-4.1l4.7-2.7.5.9-4.7 2.7-.5-.9zm7-4l4.7-2.7.5.9-4.7 2.7-.5-.9zm7-4.1l4.7-2.7.6.9-4.7 2.7-.6-.9zm7-4l4.7-2.7.5.9-4.7 2.7-.5-.9zm7.1-4.1l4.7-2.7.5.9-4.7 2.7-.5-.9zM374.1 116.2l4.7-2.7.5.9-4.7 2.7-.5-.9zm7-4.1l4.7-2.7.5.9-4.7 2.7-.5-.9zm7-4l4.7-2.7.5.9-4.7 2.7-.5-.9zm7-4.1l4.7-2.7.5.9-4.7 2.7-.5-.9zm7.1-4l4.7-2.7.5.9-4.7 2.7-.5-.9zm7-4.1l4.7-2.7.5.9-4.7 2.7-.5-.9zm7-4l4.7-2.7.5.9-4.7 2.7-.5-.9zm7-4.1l4.7-2.7.5.9-4.7 2.7-.5-.9zm7-4L435 81l.5.9-4.7 2.7-.6-.8zm7.1-4.1L442 77l.5.9-4.7 2.7-.5-.9zm7-4L449 73l.5.9-4.7 2.7-.5-.9zm7-4.1l4.7-2.7.5.9-4.7 2.7-.5-.9zm7-4l4.7-2.7.5.9-4.7 2.7-.5-.9zm7-4.1l4.7-2.7.5.9-4.7 2.7-.5-.9zm7-4l4.7-2.7.5.9-4.7 2.7-.5-.9zm7.1-4.1l4.7-2.7.5.9-4.7 2.7-.5-.9zm7-4l4.7-2.7.5.9-4.7 2.7-.5-.9zm7-4.1l4.7-2.7.5.9-4.7 2.7-.5-.9zm7-4l4.7-2.7.5.9-4.7 2.7-.5-.9zm7-4.1l4.7-2.7.5.9-4.7 2.7-.5-.9zm7.1-4.1l4.7-2.7.5.9L515 36l-.5-.9zm7-4l4.7-2.7.5.9L522 32l-.5-.9zm7-4.1l4.7-2.7.5.9-4.7 2.7-.5-.9zm7-4l4.7-2.7.5.9-4.7 2.7-.5-.9zm7-4.1l4.7-2.7.5.9-4.7 2.7-.5-.9zm7.1-4l4.7-2.7.5.9-4.7 2.7-.5-.9zm7-4.1l4.7-2.7.5.9-4.7 2.7-.5-.9zm7-4l4.7-2.7.5.9-4.7 2.7-.5-.9zm7-4.1l4.7-2.7.5.9-4.7 2.7-.5-.9zM402 116.2l4.7-2.7.5.9-4.7 2.7-.5-.9zm7-4.1l4.7-2.7.5.9-4.7 2.7-.5-.9zm7-4l4.7-2.7.5.9-4.7 2.7-.5-.9zm7-4.1l4.7-2.7.5.9-4.7 2.7-.5-.9zm7.1-4l4.7-2.7.5.9-4.7 2.7-.5-.9zm7-4.1l4.7-2.7.5.9-4.7 2.7-.5-.9zm7-4l4.7-2.7.5.9-4.7 2.7-.5-.9zm7-4.1l4.7-2.7.5.9-4.7 2.7-.5-.9zm7-4l4.7-2.7.5.9-4.7 2.7-.5-.9zm7-4.1l4.7-2.7.5.9-4.7 2.7-.5-.9zm7.1-4l4.7-2.7.5.9-4.7 2.7-.5-.9zm7-4.1l4.7-2.7.5.9-4.7 2.7-.5-.9zm7-4l4.7-2.7.5.9-4.7 2.7-.5-.9zm7-4.1l4.7-2.7.5.9-4.7 2.7-.5-.9zm7-4l4.7-2.7.5.9-4.7 2.7-.5-.9zm7.1-4.1l4.7-2.7.5.9-4.7 2.7-.5-.9zm7-4l4.7-2.7.5.9-4.7 2.7-.5-.9zm7-4.1l4.7-2.7.5.9-4.7 2.7-.5-.9zm7-4l4.7-2.7.5.9-4.7 2.7-.5-.9zm7-4.1l4.7-2.7.5.9-4.7 2.7-.5-.9zm7-4.1l4.7-2.7.5.9-4.7 2.7-.5-.9zm7.1-4l4.7-2.7.5.9-4.7 2.7-.5-.9zm7-4.1l4.7-2.7.5.9-4.7 2.7-.5-.9zm7-4l4.7-2.7.5.9-4.7 2.7-.5-.9zm7-4.1l4.7-2.7.5.9-4.7 2.7-.5-.9zm7-4l4.7-2.7.5.9-4.7 2.7-.5-.9zm7.1-4.1l4.7-2.7.5.9-4.7 2.7-.5-.9zm7-4l4.7-2.7.5.9-4.7 2.7-.5-.9zm7-4.1l4.7-2.7.5.9-4.7 2.7-.5-.9zM515 116.2l4.7-2.7.5.9-4.7 2.7-.5-.9zm7-4.1l4.7-2.7.5.9-4.7 2.7-.5-.9zm7.1-4l4.7-2.7.5.9-4.7 2.7-.5-.9zm7-4.1l4.7-2.7.5.9-4.7 2.7-.5-.9zm7-4l4.7-2.7.5.9-4.7 2.7-.5-.9zm7-4.1l4.7-2.7.5.9-4.7 2.7-.5-.9zm7-4l4.7-2.7.5.9-4.7 2.7-.5-.9zm7-4.1l4.7-2.7.5.9-4.7 2.7-.5-.9zm7.1-4l4.7-2.7.5.9-4.7 2.7-.5-.9zm7-4.1l4.7-2.7.5.9-4.7 2.7-.5-.9zm7-4l4.7-2.7.5.9-4.7 2.7-.5-.9zm7-4.1l4.7-2.7.5.9-4.7 2.7-.5-.9zm7-4l4.7-2.7.5.9-4.7 2.7-.5-.9zm7.1-4.1l4.7-2.7.5.9-4.7 2.7-.5-.9zm7-4l4.7-2.7.5.9-4.7 2.7-.5-.9zm7-4.1l4.7-2.7.5.9-4.7 2.7-.5-.9zm7-4l4.7-2.7.5.9-4.7 2.7-.5-.9zm7-4.1l4.7-2.7.5.9-4.7 2.7-.5-.9zm7-4l4.7-2.7.5.9-4.7 2.7-.5-.9zm7.1-4.1l4.7-2.7.5.9-4.7 2.7-.5-.9zm7-4.1l4.7-2.7.5.9-4.7 2.7-.5-.9zm7-4l4.7-2.7.5.9-4.7 2.7-.5-.9zm7-4.1l4.7-2.7.5.9-4.7 2.7-.5-.9zm7-4l4.7-2.7.5.9-4.7 2.7-.5-.9zm7.1-4.1l4.7-2.7.5.9-4.7 2.7-.5-.9zm7-4l4.7-2.7.5.9-4.7 2.7-.5-.9zm7-4.1l4.7-2.7.5.9-4.7 2.7-.5-.9zm7-4l4.7-2.7.5.9-4.7 2.7-.5-.9zm7-4.1l4.7-2.7.5.9-4.7 2.7-.5-.9zM603.1 117l4.7-2.7.5.9-4.7 2.7-.5-.9zm7-4.1l4.7-2.7.5.9-4.7 2.7-.5-.9zm7.1-4l4.7-2.7.5.9-4.7 2.7-.5-.9zm7-4.1l4.7-2.7.5.9-4.7 2.7-.5-.9zm7-4l4.7-2.7.5.9-4.7 2.7-.5-.9zm7-4.1l4.7-2.7.5.9-4.7 2.7-.5-.9zm7-4l4.7-2.7.5.9-4.7 2.7-.5-.9zm7-4.1l4.7-2.7.5.9-4.7 2.7-.5-.9zm7.1-4l4.7-2.7.5.9-4.7 2.7-.5-.9zm7-4.1l4.7-2.7.5.9-4.7 2.7-.5-.9zm7-4.1l4.7-2.7.5.9-4.7 2.7-.5-.9zm7-4l4.7-2.7.5.9-4.7 2.7-.5-.9zm7-4.1l4.7-2.7.5.9-4.7 2.7-.5-.9zm7.1-4l4.7-2.7.5.9-4.7 2.7-.5-.9zm7-4.1l4.7-2.7.5.9-4.7 2.7-.5-.9zm7-4l4.7-2.7.5.9-4.7 2.7-.5-.9zm7-4.1l4.7-2.7.5.9-4.7 2.7-.5-.9zm7-4l4.7-2.7.5.9-4.7 2.7-.5-.9z"/><path class="st0" d="M718.6 2.3v5.5h-1V2.3h1zm0 8.1v5.5h-1v-5.5h1zm0 8.1V24h-1v-5.5h1zm0 8.1v5.5h-1v-5.5h1zm0 8.1v5.5h-1v-5.5h1zm0 8.1v5.5h-1v-5.5h1zm0 8.1v5.5h-1v-5.5h1zm0 8.1v5.5h-1V59h1zm0 8.1v5.5h-1v-5.5h1zm0 8.1v5.5h-1v-5.5h1zm0 8.1v5.5h-1v-5.5h1zm0 8.1v5.5h-1v-5.5h1zm0 8.1v5.5h-1v-5.5h1zm0 8.1v5.5h-1v-5.5h1zM511.7 0v5.5h-1V0h1zm0 8.1v5.5h-1V8.1h1zm0 8.1v5.5h-1v-5.5h1zm0 8.1v5.5h-1v-5.5h1zm0 8.1v5.5h-1v-5.5h1zm0 8.1V46h-1v-5.5h1zm0 8.1v5.5h-1v-5.5h1zm0 8.1v5.5h-1v-5.5h1zm0 8.1v5.5h-1v-5.5h1zm0 8.1v5.5h-1v-5.5h1zm0 8.1v5.5h-1V81h1zm0 8.1v5.5h-1v-5.5h1zm0 8.2v5.5h-1v-5.5h1zm0 8.1v5.5h-1v-5.5h1zm0 8.1v5.5h-1v-5.5h1zM358.7 4.1v5.5h-1V4.1h1zm0 8.1v5.5h-1v-5.5h1zm0 8.1v5.5h-1v-5.5h1zm0 8.1v5.5h-1v-5.5h1zm0 8.1V42h-1v-5.5h1zm0 8.1v5.5h-1v-5.5h1zm0 8.1v5.5h-1v-5.5h1zm0 8.1v5.5h-1v-5.5h1zm0 8.1v5.5h-1v-5.5h1zm0 8.1v5.5h-1V77h1zm0 8.1v5.5h-1v-5.5h1zm0 8.1v5.5h-1v-5.5h1zm0 8.1v5.5h-1v-5.5h1zm0 8.1v5.5h-1v-5.5h1z"/><path class="st0" d="M538.5 117.1l-4.7-2.7.5-.9 4.7 2.7-.5.9zm-7.1-4.1l-4.7-2.7.5-.9 4.7 2.7-.5.9zm-7-4l-4.7-2.7.5-.9 4.7 2.7-.5.9zm-7-4.1l-4.7-2.7.5-.9 4.7 2.7-.5.9zm-7-4l-4.7-2.7.5-.9 4.7 2.7-.5.9zm-7-4.1l-4.7-2.7.5-.9 4.7 2.7-.5.9zm-7-4.1l-4.7-2.7.5-.9 4.7 2.7-.5.9zm-7.1-4l-4.7-2.7.5-.9 4.7 2.7-.5.9zm-7-4.1l-4.7-2.7.5-.9 4.7 2.7-.5.9zm-7-4l-4.7-2.7.5-.9 4.7 2.7-.5.9zm-7-4.1l-4.7-2.7.5-.9 4.7 2.7-.5.9zm-7-4l-4.7-2.7.5-.9 4.7 2.7-.5.9zm-7.1-4.1l-4.7-2.7.5-.9 4.7 2.7-.5.9zm-7-4l-4.7-2.7.5-.9 4.7 2.7-.5.9zm-7-4.1l-4.7-2.7.5-.9 4.7 2.7-.5.9zm-7-4l-4.7-2.7.5-.9 4.7 2.7-.5.9zm-7-4.1l-4.7-2.7.5-.9 4.7 2.7-.5.9zm-7.1-4l-4.7-2.7.5-.9 4.7 2.7-.5.9zm-7-4.1l-4.7-2.7.5-.9 4.7 2.7-.5.9zm-7-4l-4.7-2.7.5-.9 4.7 2.7-.5.9zm-7-4.1l-4.7-2.7.5-.9 4.7 2.7-.5.9zm-7-4l-4.7-2.7.5-.9 4.7 2.7-.5.9zm-7-4.1l-4.7-2.7.5-.9 4.7 2.7-.5.9zm-7.1-4l-4.7-2.7.5-.9 4.7 2.7-.5.9zm-7-4.1l-4.7-2.7.5-.9 4.7 2.7-.5.9zm-7-4l-4.7-2.7.5-.9 4.7 2.7-.5.9zm-7-4.1L351.2 9l.5-.9 4.7 2.7-.4.9zm-7-4L344.3 5l.5-.9 4.7 2.7-.5.9zm-7.1-4.1L337.2.9l.5-.9 4.7 2.7-.5.9zM567.427.862l.5-.866 2.34 1.35-.5.866zM724.3 91.4l-4.7-2.7.5-.9 4.7 2.7-.5.9zm-7.1-4.1l-4.7-2.7.5-.9 4.7 2.7-.5.9zm-7-4l-4.7-2.7.5-.9 4.7 2.7-.5.9zm-7-4.1l-4.7-2.7.5-.9 4.7 2.7-.5.9zm-7-4l-4.7-2.7.5-.9 4.7 2.7-.5.9zm-7-4.1l-4.7-2.7.5-.9 4.7 2.7-.5.9zm-7.1-4l-4.7-2.7.5-.9 4.7 2.7-.5.9zm-7-4.1l-4.7-2.7.5-.9 4.7 2.7-.5.9zm-7-4l-4.7-2.7.5-.9 4.7 2.7-.5.9zm-7-4.1l-4.7-2.7.5-.9 4.7 2.7-.5.9zm-7-4l-4.7-2.7.5-.9 4.7 2.7-.5.9zm-7.1-4.1l-4.7-2.7.5-.9 4.7 2.7-.5.9zm-7-4l-4.7-2.7.5-.9 4.7 2.7-.5.9zm-7-4.1l-4.7-2.7.5-.9 4.7 2.7-.5.9zm-7-4l-4.7-2.7.5-.9 4.7 2.7-.5.9zm-7-4.1l-4.7-2.7.5-.9 4.7 2.7-.5.9zm-7-4.1l-4.7-2.7.5-.9 4.7 2.7-.5.9zm-7.1-4l-4.7-2.7.5-.9 4.7 2.7-.5.9zm-7-4.1l-4.7-2.7.5-.9 4.7 2.7-.5.9zm-7-4l-4.7-2.7.5-.9 4.7 2.7-.5.9zm-7-4.1l-4.7-2.7.5-.9 4.7 2.7-.5.9zm-7-4l-4.7-2.7.5-.9 4.7 2.7-.5.9z"/></svg>