<?xml version="1.0" encoding="utf-8"?>
<!-- Generator: Adobe Illustrator 19.2.1, SVG Export Plug-In . SVG Version: 6.00 Build 0)  -->
<svg version="1.1" id="Layer_1" xmlns="http://www.w3.org/2000/svg" xmlns:xlink="http://www.w3.org/1999/xlink" x="0px" y="0px"
	 viewBox="0 0 737 266" style="enable-background:new 0 0 737 266;" xml:space="preserve">
<style type="text/css">
	.st0{fill:#FFFFFF;}
	.st1{fill:none;}
	.st2{fill:#01B9E4;}
</style>
<g>
	<path class="st0" d="M2.2,158.4l-0.3-0.5l4.7-2.7l0.3,0.5L2.2,158.4z M9.1,154.4l-0.3-0.5l4.7-2.7l0.3,0.5L9.1,154.4z M16.1,150.4
		l-0.3-0.5l4.7-2.7l0.3,0.5L16.1,150.4z M23,146.4l-0.3-0.5l4.7-2.7l0.3,0.5L23,146.4z M29.9,142.4l-0.3-0.5l4.7-2.7l0.3,0.5
		L29.9,142.4z M36.8,138.4l-0.3-0.5l4.7-2.7l0.3,0.5L36.8,138.4z M43.8,134.4l-0.3-0.5l4.7-2.7l0.3,0.5L43.8,134.4z M50.7,130.4
		l-0.3-0.5l4.7-2.7l0.3,0.5L50.7,130.4z M57.6,126.4l-0.3-0.5l4.7-2.7l0.3,0.5L57.6,126.4z M64.6,122.4l-0.3-0.5l4.7-2.7l0.3,0.5
		L64.6,122.4z M71.5,118.4l-0.3-0.5l4.7-2.7l0.3,0.5L71.5,118.4z M78.4,114.4l-0.3-0.5l4.7-2.7l0.3,0.5L78.4,114.4z M85.4,110.4
		l-0.3-0.5l4.7-2.7l0.3,0.5L85.4,110.4z M92.3,106.4l-0.3-0.5l4.7-2.7l0.3,0.5L92.3,106.4z M99.2,102.4l-0.3-0.5l4.7-2.7l0.3,0.5
		L99.2,102.4z M106.1,98.4l-0.3-0.5l4.7-2.7l0.3,0.5L106.1,98.4z M113.1,94.4l-0.3-0.5l4.7-2.7l0.3,0.5L113.1,94.4z M120,90.4
		l-0.3-0.5l4.7-2.7l0.3,0.5L120,90.4z M126.9,86.3l-0.3-0.5l4.7-2.7l0.3,0.5L126.9,86.3z M133.9,82.3l-0.3-0.5l4.7-2.7l0.3,0.5
		L133.9,82.3z M140.8,78.3l-0.3-0.5l4.7-2.7l0.3,0.5L140.8,78.3z M147.7,74.3l-0.3-0.5l4.7-2.7l0.3,0.5L147.7,74.3z M154.6,70.3
		l-0.3-0.5l4.7-2.7l0.3,0.5L154.6,70.3z M161.6,66.3l-0.3-0.5l4.7-2.7l0.3,0.5L161.6,66.3z M168.5,62.3l-0.3-0.5l4.7-2.7l0.3,0.5
		L168.5,62.3z M175.4,58.3l-0.3-0.5l4.7-2.7l0.3,0.5L175.4,58.3z M182.4,54.3l-0.3-0.5l4.7-2.7l0.3,0.5L182.4,54.3z M189.3,50.3
		l-0.3-0.5l4.7-2.7l0.3,0.5L189.3,50.3z M196.2,46.3l-0.3-0.5l4.7-2.7l0.3,0.5L196.2,46.3z M203.2,42.3l-0.3-0.5l4.7-2.7l0.3,0.5
		L203.2,42.3z M210.1,38.3l-0.3-0.5l4.7-2.7l0.3,0.5L210.1,38.3z M217,34.3l-0.3-0.5l4.7-2.7l0.3,0.5L217,34.3z M223.9,30.3
		l-0.3-0.5l4.7-2.7l0.3,0.5L223.9,30.3z M230.9,26.3l-0.3-0.5l4.7-2.7l0.3,0.5L230.9,26.3z M237.8,22.3l-0.3-0.5l4.7-2.7l0.3,0.5
		L237.8,22.3z M244.7,18.3l-0.3-0.5l4.7-2.7l0.3,0.5L244.7,18.3z M251.7,14.3l-0.3-0.5l4.7-2.7l0.3,0.5L251.7,14.3z M258.6,10.3
		l-0.3-0.5l4.7-2.7l0.3,0.5L258.6,10.3z M265.5,6.3l-0.3-0.5l4.7-2.7l0.3,0.5L265.5,6.3z M272.5,2.3l-0.3-0.5l4.7-2.7l0.3,0.5
		L272.5,2.3z"/>
</g>
<g>
	<path class="st0" d="M7.5,44.9l-0.3-0.5l5.1-2.9l0.3,0.5L7.5,44.9z M15,40.6l-0.3-0.5l5.1-2.9l0.3,0.5L15,40.6z M22.5,36.3
		l-0.3-0.5l5.1-2.9l0.3,0.5L22.5,36.3z M30,31.9l-0.3-0.5l5.1-2.9l0.3,0.5L30,31.9z M37.5,27.6l-0.3-0.5l5.1-2.9l0.3,0.5L37.5,27.6z
		 M45,23.3l-0.3-0.5l5.1-2.9l0.3,0.5L45,23.3z M52.5,18.9l-0.3-0.5l5.1-2.9l0.3,0.5L52.5,18.9z M60,14.6l-0.3-0.5l5.1-2.9l0.3,0.5
		L60,14.6z M67.6,10.3l-0.3-0.5l5.1-2.9l0.3,0.5L67.6,10.3z M75.1,5.9l-0.3-0.5l5.1-2.9L80.1,3L75.1,5.9z"/>
</g>
<g>
	<path class="st0" d="M3.3,172L3,171.5l5.1-2.9l0.3,0.5L3.3,172z M10.8,167.7l-0.3-0.5l5.1-2.9l0.3,0.5L10.8,167.7z M18.3,163.4
		l-0.3-0.5l5.1-2.9l0.3,0.5L18.3,163.4z M25.8,159l-0.3-0.5l5.1-2.9l0.3,0.5L25.8,159z M33.3,154.7l-0.3-0.5l5.1-2.9l0.3,0.5
		L33.3,154.7z M40.8,150.3l-0.3-0.5l5.1-2.9l0.3,0.5L40.8,150.3z M48.3,146l-0.3-0.5l5.1-2.9l0.3,0.5L48.3,146z M55.9,141.7
		l-0.3-0.5l5.1-2.9l0.3,0.5L55.9,141.7z M63.4,137.3l-0.3-0.5l5.1-2.9l0.3,0.5L63.4,137.3z M70.9,133l-0.3-0.5l5.1-2.9l0.3,0.5
		L70.9,133z M78.4,128.7l-0.3-0.5l5.1-2.9l0.3,0.5L78.4,128.7z M85.9,124.3l-0.3-0.5l5.1-2.9l0.3,0.5L85.9,124.3z M93.4,120
		l-0.3-0.5l5.1-2.9l0.3,0.5L93.4,120z M100.9,115.7l-0.3-0.5l5.1-2.9l0.3,0.5L100.9,115.7z M108.4,111.3l-0.3-0.5l5.1-2.9l0.3,0.5
		L108.4,111.3z M115.9,107l-0.3-0.5l5.1-2.9l0.3,0.5L115.9,107z M123.4,102.7l-0.3-0.5l5.1-2.9l0.3,0.5L123.4,102.7z M131,98.3
		l-0.3-0.5l5.1-2.9l0.3,0.5L131,98.3z M138.5,94l-0.3-0.5l5.1-2.9l0.3,0.5L138.5,94z M146,89.6l-0.3-0.5l5.1-2.9l0.3,0.5L146,89.6z
		 M153.5,85.3l-0.3-0.5l5.1-2.9l0.3,0.5L153.5,85.3z"/>
	
		<rect x="160.6" y="79.7" transform="matrix(0.8656 -0.5008 0.5008 0.8656 -18.2592 91.9378)" class="st0" width="2.9" height="0.6"/>
</g>
<g>
	<path class="st0" d="M5.4,74.7l-0.3-0.5l5.1-2.9l0.3,0.5L5.4,74.7z M12.9,70.3l-0.3-0.5l5.1-2.9l0.3,0.5L12.9,70.3z M20.4,66
		l-0.3-0.5l5.1-2.9l0.3,0.5L20.4,66z M27.9,61.7l-0.3-0.5l5.1-2.9l0.3,0.5L27.9,61.7z M35.4,57.3l-0.3-0.5l5.1-2.9l0.3,0.5
		L35.4,57.3z M42.9,53l-0.3-0.5l5.1-2.9l0.3,0.5L42.9,53z M50.4,48.6l-0.3-0.5l5.1-2.9l0.3,0.5L50.4,48.6z M57.9,44.3l-0.3-0.5
		l5.1-2.9l0.3,0.5L57.9,44.3z M65.4,40l-0.3-0.5l5.1-2.9l0.3,0.5L65.4,40z M72.9,35.6l-0.3-0.5l5.1-2.9l0.3,0.5L72.9,35.6z
		 M80.5,31.3l-0.3-0.5l5.1-2.9l0.3,0.5L80.5,31.3z"/>
	<rect x="87.6" y="25.7" transform="matrix(0.8656 -0.5008 0.5008 0.8656 -1.0319 48.1092)" class="st0" width="2.9" height="0.6"/>
</g>
<g>
	<path class="st0" d="M417.8,258l-5.1-2.9l0.3-0.5l5.1,2.9L417.8,258z M410.2,253.7l-5.1-2.9l0.3-0.5l5.1,2.9L410.2,253.7z
		 M402.7,249.3l-5.1-2.9l0.3-0.5l5.1,2.9L402.7,249.3z M395.1,245L390,242l0.3-0.5l5.1,2.9L395.1,245z M387.5,240.6l-5.1-2.9
		l0.3-0.5l5.1,2.9L387.5,240.6z M380,236.2l-5.1-2.9l0.3-0.5l5.1,2.9L380,236.2z M372.4,231.9l-5.1-2.9l0.3-0.5l5.1,2.9L372.4,231.9
		z M364.9,227.5l-5.1-2.9l0.3-0.5l5.1,2.9L364.9,227.5z M357.3,223.1l-5.1-2.9l0.3-0.5l5.1,2.9L357.3,223.1z M349.7,218.8l-5.1-2.9
		l0.3-0.5l5.1,2.9L349.7,218.8z M342.2,214.4l-5.1-2.9l0.3-0.5l5.1,2.9L342.2,214.4z M334.6,210l-5.1-2.9l0.3-0.5l5.1,2.9L334.6,210
		z M327.1,205.7l-5.1-2.9l0.3-0.5l5.1,2.9L327.1,205.7z M319.5,201.3l-5.1-2.9l0.3-0.5l5.1,2.9L319.5,201.3z M312,196.9l-5.1-2.9
		l0.3-0.5l5.1,2.9L312,196.9z M304.4,192.6l-5.1-2.9l0.3-0.5l5.1,2.9L304.4,192.6z M296.8,188.2l-5.1-2.9l0.3-0.5l5.1,2.9
		L296.8,188.2z M289.3,183.9l-5.1-2.9l0.3-0.5l5.1,2.9L289.3,183.9z M281.7,179.5l-5.1-2.9l0.3-0.5l5.1,2.9L281.7,179.5z
		 M274.2,175.1l-5.1-2.9l0.3-0.5l5.1,2.9L274.2,175.1z M266.6,170.8l-5.1-2.9l0.3-0.5l5.1,2.9L266.6,170.8z M259,166.4l-5.1-2.9
		l0.3-0.5l5.1,2.9L259,166.4z M251.5,162l-5.1-2.9l0.3-0.5l5.1,2.9L251.5,162z M243.9,157.7l-5.1-2.9l0.3-0.5l5.1,2.9L243.9,157.7z
		 M236.4,153.3l-5.1-2.9l0.3-0.5l5.1,2.9L236.4,153.3z M228.8,148.9l-5.1-2.9l0.3-0.5l5.1,2.9L228.8,148.9z M221.2,144.6l-5.1-2.9
		l0.3-0.5l5.1,2.9L221.2,144.6z M213.7,140.2l-5.1-2.9l0.3-0.5l5.1,2.9L213.7,140.2z M206.1,135.8l-5.1-2.9l0.3-0.5l5.1,2.9
		L206.1,135.8z M198.6,131.5l-5.1-2.9l0.3-0.5l5.1,2.9L198.6,131.5z M191,127.1l-5.1-2.9l0.3-0.5l5.1,2.9L191,127.1z M183.4,122.7
		l-5.1-2.9l0.3-0.5l5.1,2.9L183.4,122.7z M175.9,118.4l-5.1-2.9l0.3-0.5l5.1,2.9L175.9,118.4z M168.3,114l-5.1-2.9l0.3-0.5l5.1,2.9
		L168.3,114z M160.8,109.7l-5.1-2.9l0.3-0.5l5.1,2.9L160.8,109.7z M153.2,105.3l-5.1-2.9l0.3-0.5l5.1,2.9L153.2,105.3z M145.6,100.9
		l-5.1-2.9l0.3-0.5l5.1,2.9L145.6,100.9z M138.1,96.6l-5.1-2.9l0.3-0.5l5.1,2.9L138.1,96.6z M130.5,92.2l-5.1-2.9l0.3-0.5l5.1,2.9
		L130.5,92.2z M123,87.8l-5.1-2.9l0.3-0.5l5.1,2.9L123,87.8z M115.4,83.5l-5.1-2.9l0.3-0.5l5.1,2.9L115.4,83.5z M107.8,79.1
		l-5.1-2.9l0.3-0.5l5.1,2.9L107.8,79.1z M100.3,74.7l-5.1-2.9l0.3-0.5l5.1,2.9L100.3,74.7z M92.7,70.4l-5.1-2.9l0.3-0.5l5.1,2.9
		L92.7,70.4z M85.2,66l-5.1-2.9l0.3-0.5l5.1,2.9L85.2,66z M77.6,61.6l-5.1-2.9l0.3-0.5l5.1,2.9L77.6,61.6z M70,57.3l-5.1-2.9
		l0.3-0.5l5.1,2.9L70,57.3z M62.5,52.9L57.4,50l0.3-0.5l5.1,2.9L62.5,52.9z M54.9,48.5l-5.1-2.9l0.3-0.5l5.1,2.9L54.9,48.5z
		 M47.4,44.2l-5.1-2.9l0.3-0.5l5.1,2.9L47.4,44.2z M39.8,39.8l-5.1-2.9l0.3-0.5l5.1,2.9L39.8,39.8z M32.2,35.5l-5.1-2.9l0.3-0.5
		l5.1,2.9L32.2,35.5z M24.7,31.1l-5.1-2.9l0.3-0.5l5.1,2.9L24.7,31.1z M17.1,26.7L12,23.8l0.3-0.5l5.1,2.9L17.1,26.7z M9.6,22.4
		l-5.1-2.9l0.3-0.5l5.1,2.9L9.6,22.4z"/>
</g>
<g>
	<path class="st0" d="M441.4,196.9l-5.1-2.9l0.3-0.5l5.1,2.9L441.4,196.9z M433.8,192.5l-5.1-2.9l0.3-0.5l5.1,2.9L433.8,192.5z
		 M426.2,188.2l-5.1-2.9l0.3-0.5l5.1,2.9L426.2,188.2z M418.7,183.8l-5.1-2.9l0.3-0.5l5.1,2.9L418.7,183.8z M411.1,179.4l-5.1-2.9
		l0.3-0.5l5.1,2.9L411.1,179.4z M403.6,175.1l-5.1-2.9l0.3-0.5l5.1,2.9L403.6,175.1z M396,170.7l-5.1-2.9l0.3-0.5l5.1,2.9L396,170.7
		z M388.4,166.4l-5.1-2.9l0.3-0.5l5.1,2.9L388.4,166.4z M380.9,162l-5.1-2.9l0.3-0.5l5.1,2.9L380.9,162z M373.3,157.6l-5.1-2.9
		l0.3-0.5l5.1,2.9L373.3,157.6z M365.8,153.3l-5.1-2.9l0.3-0.5l5.1,2.9L365.8,153.3z M358.2,148.9l-5.1-2.9l0.3-0.5l5.1,2.9
		L358.2,148.9z M350.7,144.5l-5.1-2.9l0.3-0.5l5.1,2.9L350.7,144.5z M343.1,140.2l-5.1-2.9l0.3-0.5l5.1,2.9L343.1,140.2z
		 M335.5,135.8l-5.1-2.9l0.3-0.5l5.1,2.9L335.5,135.8z M328,131.4l-5.1-2.9l0.3-0.5l5.1,2.9L328,131.4z M320.4,127.1l-5.1-2.9
		l0.3-0.5l5.1,2.9L320.4,127.1z M312.9,122.7l-5.1-2.9l0.3-0.5l5.1,2.9L312.9,122.7z M305.3,118.4l-5.1-2.9l0.3-0.5l5.1,2.9
		L305.3,118.4z M297.7,114l-5.1-2.9l0.3-0.5l5.1,2.9L297.7,114z M290.2,109.6l-5.1-2.9l0.3-0.5l5.1,2.9L290.2,109.6z M282.6,105.3
		l-5.1-2.9l0.3-0.5l5.1,2.9L282.6,105.3z M275.1,100.9L270,98l0.3-0.5l5.1,2.9L275.1,100.9z M267.5,96.5l-5.1-2.9l0.3-0.5l5.1,2.9
		L267.5,96.5z M260,92.2l-5.1-2.9l0.3-0.5l5.1,2.9L260,92.2z M252.4,87.8l-5.1-2.9l0.3-0.5l5.1,2.9L252.4,87.8z M244.8,83.4
		l-5.1-2.9L240,80l5.1,2.9L244.8,83.4z M237.3,79.1l-5.1-2.9l0.3-0.5l5.1,2.9L237.3,79.1z M229.7,74.7l-5.1-2.9l0.3-0.5l5.1,2.9
		L229.7,74.7z M222.2,70.3l-5.1-2.9l0.3-0.5l5.1,2.9L222.2,70.3z M214.6,66l-5.1-2.9l0.3-0.5l5.1,2.9L214.6,66z M207,61.6l-5.1-2.9
		l0.3-0.5l5.1,2.9L207,61.6z M199.5,57.3l-5.1-2.9l0.3-0.5l5.1,2.9L199.5,57.3z M191.9,52.9l-5.1-2.9l0.3-0.5l5.1,2.9L191.9,52.9z
		 M184.4,48.5l-5.1-2.9l0.3-0.5l5.1,2.9L184.4,48.5z M176.8,44.2l-5.1-2.9l0.3-0.5l5.1,2.9L176.8,44.2z M169.2,39.8l-5.1-2.9
		l0.3-0.5l5.1,2.9L169.2,39.8z M161.7,35.4l-5.1-2.9l0.3-0.5l5.1,2.9L161.7,35.4z M154.1,31.1l-5.1-2.9l0.3-0.5l5.1,2.9L154.1,31.1z
		 M146.6,26.7l-5.1-2.9l0.3-0.5l5.1,2.9L146.6,26.7z M139,22.3l-5.1-2.9l0.3-0.5l5.1,2.9L139,22.3z M131.5,18l-5.1-2.9l0.3-0.5
		l5.1,2.9L131.5,18z M123.9,13.6l-5.1-2.9l0.3-0.5l5.1,2.9L123.9,13.6z M116.3,9.3l-5.1-2.9l0.3-0.5l5.1,2.9L116.3,9.3z M108.8,4.9
		l-5.1-2.9l0.3-0.5l5.1,2.9L108.8,4.9z"/>
	<rect x="445" y="197.3" transform="matrix(0.5002 -0.8659 0.8659 0.5002 50.3971 484.9234)" class="st0" width="0.6" height="3"/>
</g>
<g>
	<path class="st0" d="M285.5,261.3l-4.7-2.7l0.3-0.5l4.7,2.7L285.5,261.3z M278.6,257.3l-4.7-2.7l0.3-0.5l4.7,2.7L278.6,257.3z
		 M271.6,253.2l-4.7-2.7l0.3-0.5l4.7,2.7L271.6,253.2z M264.7,249.2l-4.7-2.7l0.3-0.5l4.7,2.7L264.7,249.2z M257.8,245.2l-4.7-2.7
		l0.3-0.5l4.7,2.7L257.8,245.2z M250.8,241.2l-4.7-2.7l0.3-0.5l4.7,2.7L250.8,241.2z M243.9,237.2l-4.7-2.7l0.3-0.5l4.7,2.7
		L243.9,237.2z M236.9,233.2l-4.7-2.7l0.3-0.5l4.7,2.7L236.9,233.2z M230,229.2l-4.7-2.7l0.3-0.5l4.7,2.7L230,229.2z M223,225.2
		l-4.7-2.7l0.3-0.5l4.7,2.7L223,225.2z M216.1,221.2l-4.7-2.7l0.3-0.5l4.7,2.7L216.1,221.2z M209.1,217.2l-4.7-2.7l0.3-0.5l4.7,2.7
		L209.1,217.2z M202.2,213.1l-4.7-2.7l0.3-0.5l4.7,2.7L202.2,213.1z M195.2,209.1l-4.7-2.7l0.3-0.5l4.7,2.7L195.2,209.1z
		 M188.3,205.1l-4.7-2.7l0.3-0.5l4.7,2.7L188.3,205.1z M181.3,201.1l-4.7-2.7l0.3-0.5l4.7,2.7L181.3,201.1z M174.4,197.1l-4.7-2.7
		l0.3-0.5l4.7,2.7L174.4,197.1z M167.5,193.1l-4.7-2.7l0.3-0.5l4.7,2.7L167.5,193.1z M160.5,189.1l-4.7-2.7l0.3-0.5l4.7,2.7
		L160.5,189.1z M153.6,185.1l-4.7-2.7l0.3-0.5l4.7,2.7L153.6,185.1z M146.6,181.1l-4.7-2.7l0.3-0.5l4.7,2.7L146.6,181.1z M139.7,177
		l-4.7-2.7l0.3-0.5l4.7,2.7L139.7,177z M132.7,173l-4.7-2.7l0.3-0.5l4.7,2.7L132.7,173z M125.8,169l-4.7-2.7l0.3-0.5l4.7,2.7
		L125.8,169z M118.8,165l-4.7-2.7l0.3-0.5l4.7,2.7L118.8,165z M111.9,161l-4.7-2.7l0.3-0.5l4.7,2.7L111.9,161z M104.9,157l-4.7-2.7
		l0.3-0.5l4.7,2.7L104.9,157z M98,153l-4.7-2.7l0.3-0.5l4.7,2.7L98,153z M91,149l-4.7-2.7l0.3-0.5l4.7,2.7L91,149z M84.1,145
		l-4.7-2.7l0.3-0.5l4.7,2.7L84.1,145z M77.2,141l-4.7-2.7l0.3-0.5l4.7,2.7L77.2,141z M70.2,136.9l-4.7-2.7l0.3-0.5l4.7,2.7
		L70.2,136.9z M63.3,132.9l-4.7-2.7l0.3-0.5l4.7,2.7L63.3,132.9z M56.3,128.9l-4.7-2.7l0.3-0.5l4.7,2.7L56.3,128.9z M49.4,124.9
		l-4.7-2.7l0.3-0.5l4.7,2.7L49.4,124.9z M42.4,120.9l-4.7-2.7l0.3-0.5l4.7,2.7L42.4,120.9z M35.5,116.9l-4.7-2.7l0.3-0.5l4.7,2.7
		L35.5,116.9z M28.5,112.9l-4.7-2.7l0.3-0.5l4.7,2.7L28.5,112.9z M21.6,108.9l-4.7-2.7l0.3-0.5l4.7,2.7L21.6,108.9z M14.6,104.9
		l-4.7-2.7l0.3-0.5l4.7,2.7L14.6,104.9z M7.7,100.9L3,98.1l0.3-0.5l4.7,2.7L7.7,100.9z"/>
</g>
<g>
	<path class="st0" d="M312.1,68.9l-5.1-3l0.3-0.5l5.1,3L312.1,68.9z M304.5,64.5l-5.1-3l0.3-0.5l5.1,3L304.5,64.5z M296.9,60.1
		l-5.1-3l0.3-0.5l5.1,3L296.9,60.1z M289.3,55.7l-5.1-3l0.3-0.5l5.1,3L289.3,55.7z M281.7,51.3l-5.1-3l0.3-0.5l5.1,3L281.7,51.3z
		 M274.1,46.9l-5.1-3l0.3-0.5l5.1,3L274.1,46.9z M266.4,42.5l-5.1-3l0.3-0.5l5.1,3L266.4,42.5z M258.8,38.1l-5.1-3l0.3-0.5l5.1,3
		L258.8,38.1z M251.2,33.7l-5.1-3l0.3-0.5l5.1,3L251.2,33.7z M243.6,29.3l-5.1-3l0.3-0.5l5.1,3L243.6,29.3z M236,24.9l-5.1-3
		l0.3-0.5l5.1,3L236,24.9z M228.4,20.5l-5.1-3l0.3-0.5l5.1,3L228.4,20.5z M220.8,16.1l-5.1-3l0.3-0.5l5.1,3L220.8,16.1z M213.2,11.7
		l-5.1-3l0.3-0.5l5.1,3L213.2,11.7z M205.5,7.3l-5.1-3l0.3-0.5l5.1,3L205.5,7.3z M197.9,3l-5.1-3l0.3-0.5l5.1,3L197.9,3z"/>
	<rect x="315.7" y="69.3" transform="matrix(0.5 -0.866 0.866 0.5 96.69 309.0893)" class="st0" width="0.6" height="2.9"/>
</g>
<path class="st0" d="M283.3,204h-0.6v-5.9h0.6V204z M283.3,195.2h-0.6v-5.9h0.6V195.2z M283.3,186.5h-0.6v-5.9h0.6V186.5z
	 M283.3,177.7h-0.6v-5.9h0.6V177.7z M283.3,169h-0.6v-5.9h0.6V169z M283.3,160.2h-0.6v-5.9h0.6V160.2z M283.3,151.5h-0.6v-5.9h0.6
	V151.5z M283.3,142.7h-0.6v-5.9h0.6V142.7z M283.3,134h-0.6v-5.9h0.6V134z M283.3,125.2h-0.6v-5.9h0.6V125.2z M283.3,116.5h-0.6
	v-5.9h0.6V116.5z M283.3,107.7h-0.6v-5.9h0.6V107.7z M283.3,98.9h-0.6V93h0.6V98.9z M283.3,90.2h-0.6v-5.9h0.6V90.2z M283.3,81.4
	h-0.6v-5.9h0.6V81.4z M283.3,72.7h-0.6v-5.9h0.6V72.7z M283.3,63.9h-0.6V58h0.6V63.9z M283.3,55.2h-0.6v-5.9h0.6V55.2z M283.3,46.4
	h-0.6v-5.9h0.6V46.4z M283.3,37.7h-0.6v-5.9h0.6V37.7z M283.3,28.9h-0.6V23h0.6V28.9z M283.3,20.2h-0.6v-5.9h0.6V20.2z M283.3,11.4
	h-0.6V5.5h0.6V11.4z"/>
<g>
	<path class="st1" d="M343.6,44.2"/>
</g>
<g>
	<path class="st0" d="M4.4,160.5L4.2,160l4.6-2.7l0.3,0.5L4.4,160.5z M11.3,156.5L11,156l4.6-2.7l0.3,0.5L11.3,156.5z M18.1,152.5
		l-0.3-0.5l4.6-2.7l0.3,0.5L18.1,152.5z M25,148.6l-0.3-0.5l4.6-2.7l0.3,0.5L25,148.6z M31.8,144.6l-0.3-0.5l4.6-2.7l0.3,0.5
		L31.8,144.6z M38.7,140.7l-0.3-0.5l4.6-2.7l0.3,0.5L38.7,140.7z M45.6,136.7l-0.3-0.5l4.6-2.7l0.3,0.5L45.6,136.7z M52.4,132.8
		l-0.3-0.5l4.6-2.7l0.3,0.5L52.4,132.8z M59.3,128.8l-0.3-0.5l4.6-2.7l0.3,0.5L59.3,128.8z M66.1,124.8l-0.3-0.5l4.6-2.7l0.3,0.5
		L66.1,124.8z M73,120.9l-0.3-0.5l4.6-2.7l0.3,0.5L73,120.9z M79.8,116.9l-0.3-0.5l4.6-2.7l0.3,0.5L79.8,116.9z M86.7,113l-0.3-0.5
		l4.6-2.7l0.3,0.5L86.7,113z M93.5,109l-0.3-0.5l4.6-2.7l0.3,0.5L93.5,109z M100.4,105.1l-0.3-0.5l4.6-2.7l0.3,0.5L100.4,105.1z
		 M107.2,101.1l-0.3-0.5l4.6-2.7l0.3,0.5L107.2,101.1z M114.1,97.1l-0.3-0.5l4.6-2.7l0.3,0.5L114.1,97.1z M120.9,93.2l-0.3-0.5
		l4.6-2.7l0.3,0.5L120.9,93.2z M127.8,89.2l-0.3-0.5l4.6-2.7l0.3,0.5L127.8,89.2z M134.7,85.3l-0.3-0.5l4.6-2.7l0.3,0.5L134.7,85.3z
		 M141.5,81.3l-0.3-0.5l4.6-2.7l0.3,0.5L141.5,81.3z M148.4,77.4l-0.3-0.5l4.6-2.7l0.3,0.5L148.4,77.4z M155.2,73.4l-0.3-0.5
		l4.6-2.7l0.3,0.5L155.2,73.4z M162.1,69.4l-0.3-0.5l4.6-2.7l0.3,0.5L162.1,69.4z M168.9,65.5l-0.3-0.5l4.6-2.7l0.3,0.5L168.9,65.5z
		 M175.8,61.5l-0.3-0.5l4.6-2.7l0.3,0.5L175.8,61.5z M182.6,57.6l-0.3-0.5l4.6-2.7l0.3,0.5L182.6,57.6z M189.5,53.6l-0.3-0.5
		l4.6-2.7l0.3,0.5L189.5,53.6z M196.3,49.7l-0.3-0.5l4.6-2.7L201,47L196.3,49.7z M203.2,45.7l-0.3-0.5l4.6-2.7l0.3,0.5L203.2,45.7z
		 M210.1,41.7l-0.3-0.5l4.6-2.7l0.3,0.5L210.1,41.7z M216.9,37.8l-0.3-0.5l4.6-2.7l0.3,0.5L216.9,37.8z"/>
	
		<rect x="223.5" y="32.6" transform="matrix(0.8663 -0.4995 0.4995 0.8663 13.6071 116.6765)" class="st0" width="2.7" height="0.5"/>
</g>
<g>
	<path class="st0" d="M2.5,187.6l-0.3-0.5l4.6-2.7l0.3,0.5L2.5,187.6z M9.3,183.6l-0.3-0.5l4.6-2.7L14,181L9.3,183.6z M16.2,179.7
		l-0.3-0.5l4.6-2.7l0.3,0.5L16.2,179.7z M23.1,175.7l-0.3-0.5l4.6-2.7l0.3,0.5L23.1,175.7z"/>
	
		<rect x="29.6" y="170.6" transform="matrix(0.8663 -0.4995 0.4995 0.8663 -81.1936 38.2905)" class="st0" width="2.7" height="0.5"/>
</g>
<g>
	<path class="st0" d="M235.2,259.1l-4.7-2.7l0.3-0.5l4.7,2.7L235.2,259.1z M228.3,255.2l-4.7-2.7l0.3-0.5l4.7,2.7L228.3,255.2z
		 M221.4,251.2l-4.7-2.7l0.3-0.5l4.7,2.7L221.4,251.2z M214.5,247.2l-4.7-2.7l0.3-0.5l4.7,2.7L214.5,247.2z M207.6,243.2l-4.7-2.7
		l0.3-0.5l4.7,2.7L207.6,243.2z M200.7,239.2l-4.7-2.7l0.3-0.5l4.7,2.7L200.7,239.2z M193.8,235.2l-4.7-2.7l0.3-0.5l4.7,2.7
		L193.8,235.2z M186.9,231.3l-4.7-2.7l0.3-0.5l4.7,2.7L186.9,231.3z M180,227.3l-4.7-2.7l0.3-0.5l4.7,2.7L180,227.3z M173.1,223.3
		l-4.7-2.7l0.3-0.5l4.7,2.7L173.1,223.3z M166.2,219.3l-4.7-2.7l0.3-0.5l4.7,2.7L166.2,219.3z M159.3,215.3l-4.7-2.7l0.3-0.5
		l4.7,2.7L159.3,215.3z M152.4,211.3l-4.7-2.7l0.3-0.5l4.7,2.7L152.4,211.3z M145.5,207.4l-4.7-2.7l0.3-0.5l4.7,2.7L145.5,207.4z
		 M138.6,203.4l-4.7-2.7l0.3-0.5l4.7,2.7L138.6,203.4z M131.7,199.4l-4.7-2.7l0.3-0.5l4.7,2.7L131.7,199.4z M124.8,195.4l-4.7-2.7
		l0.3-0.5l4.7,2.7L124.8,195.4z M117.9,191.4l-4.7-2.7l0.3-0.5l4.7,2.7L117.9,191.4z M111,187.4l-4.7-2.7l0.3-0.5l4.7,2.7L111,187.4
		z M104.1,183.5l-4.7-2.7l0.3-0.5l4.7,2.7L104.1,183.5z M97.2,179.5l-4.7-2.7l0.3-0.5l4.7,2.7L97.2,179.5z M90.3,175.5l-4.7-2.7
		l0.3-0.5l4.7,2.7L90.3,175.5z M83.4,171.5l-4.7-2.7l0.3-0.5l4.7,2.7L83.4,171.5z M76.5,167.5l-4.7-2.7l0.3-0.5l4.7,2.7L76.5,167.5z
		 M69.6,163.5l-4.7-2.7l0.3-0.5l4.7,2.7L69.6,163.5z M62.7,159.6l-4.7-2.7l0.3-0.5l4.7,2.7L62.7,159.6z M55.8,155.6l-4.7-2.7
		l0.3-0.5l4.7,2.7L55.8,155.6z M48.9,151.6l-4.7-2.7l0.3-0.5l4.7,2.7L48.9,151.6z M42,147.6l-4.7-2.7l0.3-0.5l4.7,2.7L42,147.6z
		 M35.1,143.6l-4.7-2.7l0.3-0.5l4.7,2.7L35.1,143.6z M28.2,139.6l-4.7-2.7l0.3-0.5l4.7,2.7L28.2,139.6z M21.3,135.7l-4.7-2.7
		l0.3-0.5l4.7,2.7L21.3,135.7z M14.4,131.7L9.8,129l0.3-0.5l4.7,2.7L14.4,131.7z M7.5,127.7L2.9,125l0.3-0.5l4.7,2.7L7.5,127.7z"/>
</g>
<g>
	<path class="st0" d="M234.5,210l-4.7-2.7l0.3-0.5l4.7,2.7L234.5,210z M227.6,206l-4.7-2.7l0.3-0.5l4.7,2.7L227.6,206z M220.6,202
		l-4.7-2.7l0.3-0.5l4.7,2.7L220.6,202z M213.7,198l-4.7-2.7l0.3-0.5l4.7,2.7L213.7,198z M206.7,194l-4.7-2.7l0.3-0.5l4.7,2.7
		L206.7,194z M199.8,189.9l-4.7-2.7l0.3-0.5l4.7,2.7L199.8,189.9z M192.8,185.9l-4.7-2.7l0.3-0.5l4.7,2.7L192.8,185.9z M185.9,181.9
		l-4.7-2.7l0.3-0.5l4.7,2.7L185.9,181.9z M178.9,177.9l-4.7-2.7l0.3-0.5l4.7,2.7L178.9,177.9z M172,173.9l-4.7-2.7l0.3-0.5l4.7,2.7
		L172,173.9z M165,169.9l-4.7-2.7l0.3-0.5l4.7,2.7L165,169.9z M158.1,165.9l-4.7-2.7l0.3-0.5l4.7,2.7L158.1,165.9z M151.1,161.9
		l-4.7-2.7l0.3-0.5l4.7,2.7L151.1,161.9z M144.2,157.9l-4.7-2.7l0.3-0.5l4.7,2.7L144.2,157.9z M137.2,153.8l-4.7-2.7l0.3-0.5
		l4.7,2.7L137.2,153.8z M130.3,149.8l-4.7-2.7l0.3-0.5l4.7,2.7L130.3,149.8z M123.3,145.8l-4.7-2.7l0.3-0.5l4.7,2.7L123.3,145.8z
		 M116.4,141.8l-4.7-2.7l0.3-0.5l4.7,2.7L116.4,141.8z M109.4,137.8l-4.7-2.7l0.3-0.5l4.7,2.7L109.4,137.8z M102.5,133.8l-4.7-2.7
		l0.3-0.5l4.7,2.7L102.5,133.8z M95.5,129.8l-4.7-2.7l0.3-0.5l4.7,2.7L95.5,129.8z M88.6,125.8l-4.7-2.7l0.3-0.5l4.7,2.7L88.6,125.8
		z M81.6,121.7l-4.7-2.7l0.3-0.5l4.7,2.7L81.6,121.7z M74.7,117.7L70,115l0.3-0.5l4.7,2.7L74.7,117.7z M67.7,113.7L63,111l0.3-0.5
		l4.7,2.7L67.7,113.7z M60.8,109.7l-4.7-2.7l0.3-0.5l4.7,2.7L60.8,109.7z M53.8,105.7l-4.7-2.7l0.3-0.5l4.7,2.7L53.8,105.7z
		 M46.9,101.7L42.2,99l0.3-0.5l4.7,2.7L46.9,101.7z M39.9,97.7L35.2,95l0.3-0.5l4.7,2.7L39.9,97.7z M33,93.7L28.3,91l0.3-0.5
		l4.7,2.7L33,93.7z M26,89.6l-4.7-2.7l0.3-0.5l4.7,2.7L26,89.6z M19.1,85.6l-4.7-2.7l0.3-0.5l4.7,2.7L19.1,85.6z M12.1,81.6
		l-4.7-2.7l0.3-0.5l4.7,2.7L12.1,81.6z M5.2,77.6l-4.7-2.7l0.3-0.5l4.7,2.7L5.2,77.6z"/>
	
		<rect x="237.8" y="210.4" transform="matrix(0.5001 -0.866 0.866 0.5001 -64.359 312.0319)" class="st0" width="0.5" height="2.7"/>
</g>
<path class="st0" d="M208.2,261.4h-0.5V256h0.5V261.4z M208.2,253.4h-0.5V248h0.5V253.4z M208.2,245.4h-0.5V240h0.5V245.4z
	 M208.2,237.4h-0.5v-5.4h0.5V237.4z M208.2,229.5h-0.5v-5.4h0.5V229.5z M208.2,221.5h-0.5v-5.4h0.5V221.5z M208.2,213.5h-0.5v-5.4
	h0.5V213.5z M208.2,205.5h-0.5v-5.4h0.5V205.5z M208.2,197.5h-0.5v-5.4h0.5V197.5z M208.2,189.5h-0.5v-5.4h0.5V189.5z M208.2,181.5
	h-0.5v-5.4h0.5V181.5z M208.2,173.5h-0.5v-5.4h0.5V173.5z M208.2,165.6h-0.5v-5.4h0.5V165.6z M208.2,157.6h-0.5v-5.4h0.5V157.6z
	 M208.2,149.6h-0.5v-5.4h0.5V149.6z M208.2,141.6h-0.5v-5.4h0.5V141.6z M208.2,133.6h-0.5v-5.4h0.5V133.6z M208.2,125.6h-0.5v-5.4
	h0.5V125.6z M208.2,117.6h-0.5v-5.4h0.5V117.6z M208.2,109.6h-0.5v-5.4h0.5V109.6z M208.2,101.6h-0.5v-5.4h0.5V101.6z M208.2,93.7
	h-0.5v-5.4h0.5V93.7z M208.2,85.7h-0.5v-5.4h0.5V85.7z M208.2,77.7h-0.5v-5.4h0.5V77.7z M208.2,69.7h-0.5v-5.4h0.5V69.7z
	 M208.2,61.7h-0.5v-5.4h0.5V61.7z M208.2,53.7h-0.5v-5.4h0.5V53.7z M208.2,45.7h-0.5v-5.4h0.5V45.7z M208.2,37.7h-0.5v-5.4h0.5V37.7
	z M208.2,29.8h-0.5v-5.4h0.5V29.8z M208.2,21.8h-0.5v-5.4h0.5V21.8z M208.2,13.8h-0.5V8.4h0.5V13.8z M208.2,5.8h-0.5V0.4h0.5V5.8z"
	/>
<g>
	<path class="st2" d="M6.5,237.6l-0.3-0.5l4.7-2.7l0.3,0.5L6.5,237.6z M13.4,233.6l-0.3-0.5l4.7-2.7l0.3,0.5L13.4,233.6z
		 M20.3,229.6l-0.3-0.5l4.7-2.7l0.3,0.5L20.3,229.6z M27.3,225.6l-0.3-0.5l4.7-2.7l0.3,0.5L27.3,225.6z M34.2,221.6l-0.3-0.5
		l4.7-2.7l0.3,0.5L34.2,221.6z M41.1,217.6l-0.3-0.5l4.7-2.7l0.3,0.5L41.1,217.6z M48.1,213.6l-0.3-0.5l4.7-2.7l0.3,0.5L48.1,213.6z
		 M55,209.6l-0.3-0.5l4.7-2.7l0.3,0.5L55,209.6z M61.9,205.6l-0.3-0.5l4.7-2.7l0.3,0.5L61.9,205.6z M68.9,201.6l-0.3-0.5l4.7-2.7
		l0.3,0.5L68.9,201.6z M75.8,197.6l-0.3-0.5l4.7-2.7l0.3,0.5L75.8,197.6z M82.7,193.6l-0.3-0.5l4.7-2.7l0.3,0.5L82.7,193.6z
		 M89.6,189.6l-0.3-0.5l4.7-2.7l0.3,0.5L89.6,189.6z M96.6,185.6l-0.3-0.5l4.7-2.7l0.3,0.5L96.6,185.6z M103.5,181.6l-0.3-0.5
		l4.7-2.7l0.3,0.5L103.5,181.6z M110.4,177.6l-0.3-0.5l4.7-2.7l0.3,0.5L110.4,177.6z M117.4,173.6l-0.3-0.5l4.7-2.7l0.3,0.5
		L117.4,173.6z M124.3,169.6l-0.3-0.5l4.7-2.7l0.3,0.5L124.3,169.6z M131.2,165.6l-0.3-0.5l4.7-2.7l0.3,0.5L131.2,165.6z
		 M138.1,161.6l-0.3-0.5l4.7-2.7l0.3,0.5L138.1,161.6z M145.1,157.6l-0.3-0.5l4.7-2.7l0.3,0.5L145.1,157.6z M152,153.6l-0.3-0.5
		l4.7-2.7l0.3,0.5L152,153.6z M158.9,149.6l-0.3-0.5l4.7-2.7l0.3,0.5L158.9,149.6z M165.9,145.6l-0.3-0.5l4.7-2.7l0.3,0.5
		L165.9,145.6z M172.8,141.6l-0.3-0.5l4.7-2.7l0.3,0.5L172.8,141.6z M179.7,137.6l-0.3-0.5l4.7-2.7l0.3,0.5L179.7,137.6z
		 M186.7,133.6l-0.3-0.5l4.7-2.7l0.3,0.5L186.7,133.6z M193.6,129.6l-0.3-0.5l4.7-2.7l0.3,0.5L193.6,129.6z M200.5,125.6l-0.3-0.5
		l4.7-2.7l0.3,0.5L200.5,125.6z M207.4,121.6l-0.3-0.5l4.7-2.7l0.3,0.5L207.4,121.6z M214.4,117.6l-0.3-0.5l4.7-2.7l0.3,0.5
		L214.4,117.6z M221.3,113.6l-0.3-0.5l4.7-2.7l0.3,0.5L221.3,113.6z M228.2,109.6l-0.3-0.5l4.7-2.7l0.3,0.5L228.2,109.6z
		 M235.2,105.6l-0.3-0.5l4.7-2.7l0.3,0.5L235.2,105.6z M242.1,101.6l-0.3-0.5l4.7-2.7l0.3,0.5L242.1,101.6z M249,97.6l-0.3-0.5
		l4.7-2.7l0.3,0.5L249,97.6z M256,93.6l-0.3-0.5l4.7-2.7l0.3,0.5L256,93.6z M262.9,89.6l-0.3-0.5l4.7-2.7l0.3,0.5L262.9,89.6z
		 M269.8,85.6l-0.3-0.5l4.7-2.7l0.3,0.5L269.8,85.6z M276.7,81.6l-0.3-0.5l4.7-2.7l0.3,0.5L276.7,81.6z M283.7,77.6l-0.3-0.5
		l4.7-2.7l0.3,0.5L283.7,77.6z M290.6,73.6l-0.3-0.5l4.7-2.7l0.3,0.5L290.6,73.6z M297.5,69.6l-0.3-0.5l4.7-2.7l0.3,0.5L297.5,69.6z
		 M304.5,65.6l-0.3-0.5l4.7-2.7l0.3,0.5L304.5,65.6z M311.4,61.6l-0.3-0.5l4.7-2.7l0.3,0.5L311.4,61.6z M318.3,57.6l-0.3-0.5
		l4.7-2.7l0.3,0.5L318.3,57.6z M325.2,53.6l-0.3-0.5l4.7-2.7l0.3,0.5L325.2,53.6z M332.2,49.6l-0.3-0.5l4.7-2.7l0.3,0.5L332.2,49.6z
		 M339.1,45.6l-0.3-0.5l4.7-2.7l0.3,0.5L339.1,45.6z M346,41.6l-0.3-0.5l4.7-2.7l0.3,0.5L346,41.6z M353,37.6l-0.3-0.5l4.7-2.7
		l0.3,0.5L353,37.6z M359.9,33.6l-0.3-0.5l4.7-2.7l0.3,0.5L359.9,33.6z M366.8,29.6l-0.3-0.5l4.7-2.7l0.3,0.5L366.8,29.6z
		 M373.8,25.6l-0.3-0.5l4.7-2.7l0.3,0.5L373.8,25.6z M380.7,21.6l-0.3-0.5l4.7-2.7l0.3,0.5L380.7,21.6z M387.6,17.6l-0.3-0.5
		l4.7-2.7l0.3,0.5L387.6,17.6z M394.5,13.6l-0.3-0.5l4.7-2.7l0.3,0.5L394.5,13.6z M401.5,9.6l-0.3-0.5l4.7-2.7l0.3,0.5L401.5,9.6z
		 M408.4,5.6l-0.3-0.5l4.7-2.7l0.3,0.5L408.4,5.6z"/>
</g>
<g>
	
		<rect x="341.2" y="153.3" transform="matrix(0.8656 -0.5008 0.5008 0.8656 -30.8704 192.261)" class="st2" width="3" height="0.6"/>
	<path class="st2" d="M161.3,258.7l-0.3-0.5l5.1-2.9l0.3,0.5L161.3,258.7z M168.8,254.3l-0.3-0.5l5.1-2.9l0.3,0.5L168.8,254.3z
		 M176.3,250l-0.3-0.5l5.1-2.9l0.3,0.5L176.3,250z M183.9,245.7l-0.3-0.5l5.1-2.9l0.3,0.5L183.9,245.7z M191.4,241.3l-0.3-0.5
		l5.1-2.9l0.3,0.5L191.4,241.3z M198.9,237l-0.3-0.5l5.1-2.9l0.3,0.5L198.9,237z M206.4,232.7l-0.3-0.5l5.1-2.9l0.3,0.5L206.4,232.7
		z M213.9,228.3l-0.3-0.5l5.1-2.9l0.3,0.5L213.9,228.3z M221.4,224l-0.3-0.5l5.1-2.9l0.3,0.5L221.4,224z M228.9,219.7l-0.3-0.5
		l5.1-2.9l0.3,0.5L228.9,219.7z M236.4,215.3l-0.3-0.5l5.1-2.9l0.3,0.5L236.4,215.3z M243.9,211l-0.3-0.5l5.1-2.9l0.3,0.5L243.9,211
		z M251.4,206.7l-0.3-0.5l5.1-2.9l0.3,0.5L251.4,206.7z M258.9,202.3l-0.3-0.5l5.1-2.9l0.3,0.5L258.9,202.3z M266.5,198l-0.3-0.5
		l5.1-2.9l0.3,0.5L266.5,198z M274,193.6l-0.3-0.5l5.1-2.9l0.3,0.5L274,193.6z M281.5,189.3l-0.3-0.5l5.1-2.9l0.3,0.5L281.5,189.3z
		 M289,185l-0.3-0.5l5.1-2.9l0.3,0.5L289,185z M296.5,180.6l-0.3-0.5l5.1-2.9l0.3,0.5L296.5,180.6z M304,176.3l-0.3-0.5l5.1-2.9
		l0.3,0.5L304,176.3z M311.5,172l-0.3-0.5l5.1-2.9l0.3,0.5L311.5,172z M319,167.6l-0.3-0.5l5.1-2.9l0.3,0.5L319,167.6z M326.5,163.3
		l-0.3-0.5l5.1-2.9l0.3,0.5L326.5,163.3z M334,159l-0.3-0.5l5.1-2.9l0.3,0.5L334,159z"/>
</g>
<g>
	<path class="st2" d="M180.5,122.9l-0.3-0.5l5.1-2.9l0.3,0.5L180.5,122.9z M188,118.6l-0.3-0.5l5.1-2.9l0.3,0.5L188,118.6z
		 M195.5,114.3l-0.3-0.5l5.1-2.9l0.3,0.5L195.5,114.3z M203.1,109.9l-0.3-0.5l5.1-2.9l0.3,0.5L203.1,109.9z M210.6,105.6l-0.3-0.5
		l5.1-2.9l0.3,0.5L210.6,105.6z M218.1,101.3l-0.3-0.5l5.1-2.9l0.3,0.5L218.1,101.3z M225.6,96.9l-0.3-0.5l5.1-2.9l0.3,0.5
		L225.6,96.9z M233.1,92.6l-0.3-0.5l5.1-2.9l0.3,0.5L233.1,92.6z M240.6,88.2l-0.3-0.5l5.1-2.9l0.3,0.5L240.6,88.2z M248.1,83.9
		l-0.3-0.5l5.1-2.9l0.3,0.5L248.1,83.9z M255.6,79.6l-0.3-0.5l5.1-2.9l0.3,0.5L255.6,79.6z M263.1,75.2l-0.3-0.5l5.1-2.9l0.3,0.5
		L263.1,75.2z M270.6,70.9l-0.3-0.5l5.1-2.9l0.3,0.5L270.6,70.9z M278.2,66.6l-0.3-0.5l5.1-2.9l0.3,0.5L278.2,66.6z M285.7,62.2
		l-0.3-0.5l5.1-2.9l0.3,0.5L285.7,62.2z M293.2,57.9l-0.3-0.5l5.1-2.9l0.3,0.5L293.2,57.9z M300.7,53.6l-0.3-0.5l5.1-2.9l0.3,0.5
		L300.7,53.6z M308.2,49.2l-0.3-0.5l5.1-2.9l0.3,0.5L308.2,49.2z M315.7,44.9l-0.3-0.5l5.1-2.9l0.3,0.5L315.7,44.9z M323.2,40.6
		l-0.3-0.5l5.1-2.9l0.3,0.5L323.2,40.6z M330.7,36.2l-0.3-0.5l5.1-2.9l0.3,0.5L330.7,36.2z M338.2,31.9l-0.3-0.5l5.1-2.9l0.3,0.5
		L338.2,31.9z M345.7,27.5l-0.3-0.5l5.1-2.9l0.3,0.5L345.7,27.5z M353.3,23.2l-0.3-0.5l5.1-2.9l0.3,0.5L353.3,23.2z M360.8,18.9
		l-0.3-0.5l5.1-2.9l0.3,0.5L360.8,18.9z M368.3,14.5L368,14l5.1-2.9l0.3,0.5L368.3,14.5z M375.8,10.2l-0.3-0.5l5.1-2.9l0.3,0.5
		L375.8,10.2z M383.3,5.9L383,5.4l5.1-2.9l0.3,0.5L383.3,5.9z"/>
	
		<rect x="175.2" y="124.5" transform="matrix(0.8656 -0.5008 0.5008 0.8656 -38.7662 105.2455)" class="st2" width="2.9" height="0.6"/>
</g>
<g>
	
		<rect x="553.6" y="2.2" transform="matrix(0.8656 -0.5008 0.5008 0.8656 73.3558 278.3076)" class="st2" width="2.9" height="0.6"/>
	<path class="st2" d="M253.6,176.9l-0.3-0.5l5.1-2.9l0.3,0.5L253.6,176.9z M261.1,172.6l-0.3-0.5l5.1-2.9l0.3,0.5L261.1,172.6z
		 M268.6,168.3l-0.3-0.5l5.1-2.9l0.3,0.5L268.6,168.3z M276.1,163.9l-0.3-0.5l5.1-2.9l0.3,0.5L276.1,163.9z M283.6,159.6l-0.3-0.5
		l5.1-2.9l0.3,0.5L283.6,159.6z M291.1,155.3l-0.3-0.5l5.1-2.9l0.3,0.5L291.1,155.3z M298.6,150.9l-0.3-0.5l5.1-2.9l0.3,0.5
		L298.6,150.9z M306.1,146.6l-0.3-0.5l5.1-2.9l0.3,0.5L306.1,146.6z M313.6,142.3l-0.3-0.5l5.1-2.9l0.3,0.5L313.6,142.3z
		 M321.1,137.9l-0.3-0.5l5.1-2.9l0.3,0.5L321.1,137.9z M328.7,133.6l-0.3-0.5l5.1-2.9l0.3,0.5L328.7,133.6z M336.2,129.2l-0.3-0.5
		l5.1-2.9l0.3,0.5L336.2,129.2z M343.7,124.9l-0.3-0.5l5.1-2.9l0.3,0.5L343.7,124.9z M351.2,120.6l-0.3-0.5l5.1-2.9l0.3,0.5
		L351.2,120.6z M358.7,116.2l-0.3-0.5l5.1-2.9l0.3,0.5L358.7,116.2z M366.2,111.9l-0.3-0.5l5.1-2.9l0.3,0.5L366.2,111.9z
		 M373.7,107.6l-0.3-0.5l5.1-2.9l0.3,0.5L373.7,107.6z M381.2,103.2l-0.3-0.5l5.1-2.9l0.3,0.5L381.2,103.2z M388.7,98.9l-0.3-0.5
		l5.1-2.9l0.3,0.5L388.7,98.9z M396.2,94.6l-0.3-0.5l5.1-2.9l0.3,0.5L396.2,94.6z M403.8,90.2l-0.3-0.5l5.1-2.9l0.3,0.5L403.8,90.2z
		 M411.3,85.9l-0.3-0.5l5.1-2.9l0.3,0.5L411.3,85.9z M418.8,81.6l-0.3-0.5l5.1-2.9l0.3,0.5L418.8,81.6z M426.3,77.2l-0.3-0.5
		l5.1-2.9l0.3,0.5L426.3,77.2z M433.8,72.9l-0.3-0.5l5.1-2.9l0.3,0.5L433.8,72.9z M441.3,68.5L441,68l5.1-2.9l0.3,0.5L441.3,68.5z
		 M448.8,64.2l-0.3-0.5l5.1-2.9l0.3,0.5L448.8,64.2z M456.3,59.9l-0.3-0.5l5.1-2.9l0.3,0.5L456.3,59.9z M463.8,55.5l-0.3-0.5
		l5.1-2.9l0.3,0.5L463.8,55.5z M471.3,51.2l-0.3-0.5l5.1-2.9l0.3,0.5L471.3,51.2z M478.9,46.9l-0.3-0.5l5.1-2.9l0.3,0.5L478.9,46.9z
		 M486.4,42.5l-0.3-0.5l5.1-2.9l0.3,0.5L486.4,42.5z M493.9,38.2l-0.3-0.5l5.1-2.9l0.3,0.5L493.9,38.2z M501.4,33.9l-0.3-0.5
		l5.1-2.9l0.3,0.5L501.4,33.9z M508.9,29.5l-0.3-0.5l5.1-2.9l0.3,0.5L508.9,29.5z M516.4,25.2l-0.3-0.5l5.1-2.9l0.3,0.5L516.4,25.2z
		 M523.9,20.9l-0.3-0.5l5.1-2.9l0.3,0.5L523.9,20.9z M531.4,16.5l-0.3-0.5l5.1-2.9l0.3,0.5L531.4,16.5z M538.9,12.2l-0.3-0.5
		l5.1-2.9l0.3,0.5L538.9,12.2z M546.4,7.8l-0.3-0.5l5.1-2.9l0.3,0.5L546.4,7.8z"/>
	
		<rect x="248.2" y="178.5" transform="matrix(0.8656 -0.5008 0.5008 0.8656 -55.9935 149.0742)" class="st2" width="3" height="0.6"/>
</g>
<g>
	<path class="st2" d="M462.5,260.1l-5.1-2.9l0.3-0.5l5.1,2.9L462.5,260.1z M455,255.7l-5.1-2.9l0.3-0.5l5.1,2.9L455,255.7z
		 M447.4,251.4l-5.1-2.9l0.3-0.5l5.1,2.9L447.4,251.4z M439.9,247l-5.1-2.9l0.3-0.5l5.1,2.9L439.9,247z M432.3,242.6l-5.1-2.9
		l0.3-0.5l5.1,2.9L432.3,242.6z M424.7,238.3l-5.1-2.9l0.3-0.5l5.1,2.9L424.7,238.3z M417.2,233.9l-5.1-2.9l0.3-0.5l5.1,2.9
		L417.2,233.9z M409.6,229.5l-5.1-2.9l0.3-0.5l5.1,2.9L409.6,229.5z M402.1,225.2l-5.1-2.9l0.3-0.5l5.1,2.9L402.1,225.2z
		 M394.5,220.8l-5.1-2.9l0.3-0.5l5.1,2.9L394.5,220.8z M386.9,216.5l-5.1-2.9l0.3-0.5l5.1,2.9L386.9,216.5z M379.4,212.1l-5.1-2.9
		l0.3-0.5l5.1,2.9L379.4,212.1z M371.8,207.7l-5.1-2.9l0.3-0.5l5.1,2.9L371.8,207.7z M364.3,203.4l-5.1-2.9l0.3-0.5l5.1,2.9
		L364.3,203.4z M356.7,199l-5.1-2.9l0.3-0.5l5.1,2.9L356.7,199z M349.1,194.6l-5.1-2.9l0.3-0.5l5.1,2.9L349.1,194.6z M341.6,190.3
		l-5.1-2.9l0.3-0.5l5.1,2.9L341.6,190.3z M334,185.9l-5.1-2.9l0.3-0.5l5.1,2.9L334,185.9z M326.5,181.5l-5.1-2.9l0.3-0.5l5.1,2.9
		L326.5,181.5z M318.9,177.2l-5.1-2.9l0.3-0.5l5.1,2.9L318.9,177.2z M311.3,172.8l-5.1-2.9l0.3-0.5l5.1,2.9L311.3,172.8z
		 M303.8,168.4l-5.1-2.9l0.3-0.5l5.1,2.9L303.8,168.4z M296.2,164.1l-5.1-2.9l0.3-0.5l5.1,2.9L296.2,164.1z M288.7,159.7l-5.1-2.9
		l0.3-0.5l5.1,2.9L288.7,159.7z M281.1,155.4l-5.1-2.9l0.3-0.5l5.1,2.9L281.1,155.4z M273.5,151l-5.1-2.9l0.3-0.5l5.1,2.9L273.5,151
		z M266,146.6l-5.1-2.9l0.3-0.5l5.1,2.9L266,146.6z M258.4,142.3l-5.1-2.9l0.3-0.5l5.1,2.9L258.4,142.3z M250.9,137.9l-5.1-2.9
		l0.3-0.5l5.1,2.9L250.9,137.9z M243.3,133.5l-5.1-2.9l0.3-0.5l5.1,2.9L243.3,133.5z M235.7,129.2l-5.1-2.9l0.3-0.5l5.1,2.9
		L235.7,129.2z M228.2,124.8l-5.1-2.9l0.3-0.5l5.1,2.9L228.2,124.8z M220.6,120.4l-5.1-2.9l0.3-0.5l5.1,2.9L220.6,120.4z
		 M213.1,116.1l-5.1-2.9l0.3-0.5l5.1,2.9L213.1,116.1z M205.5,111.7l-5.1-2.9l0.3-0.5l5.1,2.9L205.5,111.7z M197.9,107.3l-5.1-2.9
		l0.3-0.5l5.1,2.9L197.9,107.3z M190.4,103l-5.1-2.9l0.3-0.5l5.1,2.9L190.4,103z M182.8,98.6l-5.1-2.9l0.3-0.5l5.1,2.9L182.8,98.6z
		 M175.3,94.2l-5.1-2.9l0.3-0.5l5.1,2.9L175.3,94.2z M167.7,89.9l-5.1-2.9l0.3-0.5l5.1,2.9L167.7,89.9z M160.1,85.5l-5.1-2.9
		l0.3-0.5l5.1,2.9L160.1,85.5z M152.6,81.2l-5.1-2.9l0.3-0.5l5.1,2.9L152.6,81.2z M145,76.8l-5.1-2.9l0.3-0.5l5.1,2.9L145,76.8z
		 M137.5,72.4l-5.1-2.9l0.3-0.5l5.1,2.9L137.5,72.4z M129.9,68.1l-5.1-2.9l0.3-0.5l5.1,2.9L129.9,68.1z M122.3,63.7l-5.1-2.9
		l0.3-0.5l5.1,2.9L122.3,63.7z M114.8,59.3l-5.1-2.9l0.3-0.5l5.1,2.9L114.8,59.3z M107.2,55l-5.1-2.9l0.3-0.5l5.1,2.9L107.2,55z
		 M99.7,50.6l-5.1-2.9l0.3-0.5l5.1,2.9L99.7,50.6z M92.1,46.2L87,43.3l0.3-0.5l5.1,2.9L92.1,46.2z M84.5,41.9l-5.1-2.9l0.3-0.5
		l5.1,2.9L84.5,41.9z M77,37.5l-5.1-2.9l0.3-0.5l5.1,2.9L77,37.5z M69.4,33.1l-5.1-2.9l0.3-0.5l5.1,2.9L69.4,33.1z M61.9,28.8
		l-5.1-2.9l0.3-0.5l5.1,2.9L61.9,28.8z M54.3,24.4l-5.1-2.9l0.3-0.5l5.1,2.9L54.3,24.4z M46.7,20l-5.1-2.9l0.3-0.5l5.1,2.9L46.7,20z
		 M39.2,15.7l-5.1-2.9l0.3-0.5l5.1,2.9L39.2,15.7z M31.6,11.3l-5.1-2.9l0.3-0.5l5.1,2.9L31.6,11.3z M24.1,7L19,4l0.3-0.5l5.1,2.9
		L24.1,7z"/>
</g>
<g>
	<path class="st2" d="M333.1,260.1l-5.1-2.9l0.3-0.5l5.1,2.9L333.1,260.1z M325.5,255.7l-5.1-2.9l0.3-0.5l5.1,2.9L325.5,255.7z
		 M317.9,251.4l-5.1-2.9l0.3-0.5l5.1,2.9L317.9,251.4z M310.4,247l-5.1-2.9l0.3-0.5l5.1,2.9L310.4,247z M302.8,242.7l-5.1-2.9
		l0.3-0.5l5.1,2.9L302.8,242.7z M295.3,238.3l-5.1-2.9l0.3-0.5l5.1,2.9L295.3,238.3z M287.7,233.9l-5.1-2.9l0.3-0.5l5.1,2.9
		L287.7,233.9z M280.2,229.6l-5.1-2.9l0.3-0.5l5.1,2.9L280.2,229.6z M272.6,225.2l-5.1-2.9l0.3-0.5l5.1,2.9L272.6,225.2z M265,220.8
		l-5.1-2.9l0.3-0.5l5.1,2.9L265,220.8z M257.5,216.5l-5.1-2.9l0.3-0.5l5.1,2.9L257.5,216.5z M249.9,212.1l-5.1-2.9l0.3-0.5l5.1,2.9
		L249.9,212.1z M242.4,207.7l-5.1-2.9l0.3-0.5l5.1,2.9L242.4,207.7z M234.8,203.4l-5.1-2.9l0.3-0.5l5.1,2.9L234.8,203.4z M227.2,199
		l-5.1-2.9l0.3-0.5l5.1,2.9L227.2,199z M219.7,194.6l-5.1-2.9l0.3-0.5l5.1,2.9L219.7,194.6z M212.1,190.3l-5.1-2.9l0.3-0.5l5.1,2.9
		L212.1,190.3z M204.6,185.9l-5.1-2.9l0.3-0.5l5.1,2.9L204.6,185.9z M197,181.6l-5.1-2.9l0.3-0.5l5.1,2.9L197,181.6z M189.4,177.2
		l-5.1-2.9l0.3-0.5l5.1,2.9L189.4,177.2z M181.9,172.8l-5.1-2.9l0.3-0.5l5.1,2.9L181.9,172.8z M174.3,168.5l-5.1-2.9l0.3-0.5
		l5.1,2.9L174.3,168.5z M166.8,164.1l-5.1-2.9l0.3-0.5l5.1,2.9L166.8,164.1z M159.2,159.7l-5.1-2.9l0.3-0.5l5.1,2.9L159.2,159.7z
		 M151.7,155.4l-5.1-2.9l0.3-0.5l5.1,2.9L151.7,155.4z M144.1,151l-5.1-2.9l0.3-0.5l5.1,2.9L144.1,151z M136.5,146.6l-5.1-2.9
		l0.3-0.5l5.1,2.9L136.5,146.6z M129,142.3l-5.1-2.9l0.3-0.5l5.1,2.9L129,142.3z M121.4,137.9l-5.1-2.9l0.3-0.5l5.1,2.9L121.4,137.9
		z M113.9,133.6l-5.1-2.9l0.3-0.5l5.1,2.9L113.9,133.6z M106.3,129.2l-5.1-2.9l0.3-0.5l5.1,2.9L106.3,129.2z M98.7,124.8l-5.1-2.9
		l0.3-0.5l5.1,2.9L98.7,124.8z M91.2,120.5l-5.1-2.9l0.3-0.5l5.1,2.9L91.2,120.5z M83.6,116.1l-5.1-2.9l0.3-0.5l5.1,2.9L83.6,116.1z
		 M76.1,111.7l-5.1-2.9l0.3-0.5l5.1,2.9L76.1,111.7z M68.5,107.4l-5.1-2.9l0.3-0.5l5.1,2.9L68.5,107.4z M61,103l-5.1-2.9l0.3-0.5
		l5.1,2.9L61,103z M53.4,98.6l-5.1-2.9l0.3-0.5l5.1,2.9L53.4,98.6z M45.8,94.3l-5.1-2.9l0.3-0.5l5.1,2.9L45.8,94.3z M38.3,89.9
		L33.2,87l0.3-0.5l5.1,2.9L38.3,89.9z M30.7,85.5l-5.1-2.9l0.3-0.5L31,85L30.7,85.5z M23.2,81.2l-5.1-2.9l0.3-0.5l5.1,2.9L23.2,81.2
		z M15.6,76.8l-5.1-2.9l0.3-0.5l5.1,2.9L15.6,76.8z M8,72.5l-5.1-2.9L3.2,69l5.1,2.9L8,72.5z"/>
</g>
<g>
	
		<rect x="338.8" y="107.5" transform="matrix(0.4999 -0.8661 0.8661 0.4999 75.2568 348.0929)" class="st2" width="0.5" height="2.7"/>
	<path class="st2" d="M335.5,107.1l-4.7-2.7l0.3-0.5l4.7,2.7L335.5,107.1z M328.6,103.1l-4.7-2.7l0.3-0.5l4.7,2.7L328.6,103.1z
		 M321.6,99.1l-4.7-2.7l0.3-0.5l4.7,2.7L321.6,99.1z M314.7,95.1l-4.7-2.7l0.3-0.5l4.7,2.7L314.7,95.1z M307.7,91.1l-4.7-2.7
		l0.3-0.5l4.7,2.7L307.7,91.1z M300.8,87.1l-4.7-2.7l0.3-0.5l4.7,2.7L300.8,87.1z M293.8,83.1l-4.7-2.7l0.3-0.5l4.7,2.7L293.8,83.1z
		 M286.9,79.1l-4.7-2.7l0.3-0.5l4.7,2.7L286.9,79.1z M279.9,75l-4.7-2.7l0.3-0.5l4.7,2.7L279.9,75z M273,71l-4.7-2.7l0.3-0.5
		l4.7,2.7L273,71z M266,67l-4.7-2.7l0.3-0.5l4.7,2.7L266,67z M259.1,63l-4.7-2.7l0.3-0.5l4.7,2.7L259.1,63z M252.1,59l-4.7-2.7
		l0.3-0.5l4.7,2.7L252.1,59z M245.2,55l-4.7-2.7l0.3-0.5l4.7,2.7L245.2,55z M238.3,51l-4.7-2.7l0.3-0.5l4.7,2.7L238.3,51z M231.3,47
		l-4.7-2.7l0.3-0.5l4.7,2.7L231.3,47z M224.4,43l-4.7-2.7l0.3-0.5l4.7,2.7L224.4,43z M217.4,39l-4.7-2.7l0.3-0.5l4.7,2.7L217.4,39z
		 M210.5,34.9l-4.7-2.7l0.3-0.5l4.7,2.7L210.5,34.9z M203.5,30.9l-4.7-2.7l0.3-0.5l4.7,2.7L203.5,30.9z M196.6,26.9l-4.7-2.7
		l0.3-0.5l4.7,2.7L196.6,26.9z M189.6,22.9l-4.7-2.7l0.3-0.5l4.7,2.7L189.6,22.9z M182.7,18.9l-4.7-2.7l0.3-0.5l4.7,2.7L182.7,18.9z
		 M175.7,14.9l-4.7-2.7l0.3-0.5l4.7,2.7L175.7,14.9z M168.8,10.9l-4.7-2.7l0.3-0.5l4.7,2.7L168.8,10.9z M161.8,6.9l-4.7-2.7l0.3-0.5
		l4.7,2.7L161.8,6.9z"/>
</g>
<g>
	<path class="st2" d="M244.7,262.5l-5.1-3l0.3-0.5l5.1,3L244.7,262.5z M237.1,258.1l-5.1-3l0.3-0.5l5.1,3L237.1,258.1z M229.4,253.7
		l-5.1-3l0.3-0.5l5.1,3L229.4,253.7z M221.8,249.3l-5.1-3l0.3-0.5l5.1,3L221.8,249.3z M214.2,244.9l-5.1-3l0.3-0.5l5.1,3
		L214.2,244.9z M206.6,240.5l-5.1-3l0.3-0.5l5.1,3L206.6,240.5z M199,236.1l-5.1-3l0.3-0.5l5.1,3L199,236.1z M191.4,231.7l-5.1-3
		l0.3-0.5l5.1,3L191.4,231.7z M183.8,227.3l-5.1-3l0.3-0.5l5.1,3L183.8,227.3z M176.1,222.9l-5.1-3l0.3-0.5l5.1,3L176.1,222.9z
		 M168.5,218.5l-5.1-3l0.3-0.5l5.1,3L168.5,218.5z M160.9,214.1l-5.1-3l0.3-0.5l5.1,3L160.9,214.1z M153.3,209.7l-5.1-3l0.3-0.5
		l5.1,3L153.3,209.7z M145.7,205.3l-5.1-3l0.3-0.5l5.1,3L145.7,205.3z M138.1,200.9l-5.1-3l0.3-0.5l5.1,3L138.1,200.9z M130.5,196.5
		l-5.1-3l0.3-0.5l5.1,3L130.5,196.5z M122.9,192.1l-5.1-3l0.3-0.5l5.1,3L122.9,192.1z M115.2,187.8l-5.1-3l0.3-0.5l5.1,3
		L115.2,187.8z M107.6,183.4l-5.1-3l0.3-0.5l5.1,3L107.6,183.4z M100,179l-5.1-3l0.3-0.5l5.1,3L100,179z M92.4,174.6l-5.1-3l0.3-0.5
		l5.1,3L92.4,174.6z M84.8,170.2l-5.1-3l0.3-0.5l5.1,3L84.8,170.2z M77.2,165.8l-5.1-3l0.3-0.5l5.1,3L77.2,165.8z M69.6,161.4
		l-5.1-3l0.3-0.5l5.1,3L69.6,161.4z M61.9,157l-5.1-3l0.3-0.5l5.1,3L61.9,157z M54.3,152.6l-5.1-3l0.3-0.5l5.1,3L54.3,152.6z
		 M46.7,148.2l-5.1-3l0.3-0.5l5.1,3L46.7,148.2z M39.1,143.8l-5.1-3l0.3-0.5l5.1,3L39.1,143.8z M31.5,139.4l-5.1-3l0.3-0.5l5.1,3
		L31.5,139.4z"/>
	<rect x="22.4" y="132.5" transform="matrix(0.5 -0.866 0.866 0.5 -104.6817 86.693)" class="st2" width="0.6" height="2.9"/>
</g>
<path class="st2" d="M56.1,260.6h-0.6v-5.9h0.6V260.6z M56.1,251.8h-0.6v-5.9h0.6V251.8z M56.1,243h-0.6v-5.9h0.6V243z M56.1,234.3
	h-0.6v-5.9h0.6V234.3z M56.1,225.5h-0.6v-5.9h0.6V225.5z M56.1,216.8h-0.6v-5.9h0.6V216.8z M56.1,208h-0.6v-5.9h0.6V208z
	 M56.1,199.3h-0.6v-5.9h0.6V199.3z M56.1,190.5h-0.6v-5.9h0.6V190.5z M56.1,181.8h-0.6v-5.9h0.6V181.8z M56.1,173h-0.6v-5.9h0.6V173
	z M56.1,164.3h-0.6v-5.9h0.6V164.3z M56.1,155.5h-0.6v-5.9h0.6V155.5z M56.1,146.8h-0.6v-5.9h0.6V146.8z M56.1,138h-0.6v-5.9h0.6
	V138z M56.1,129.3h-0.6v-5.9h0.6V129.3z M56.1,120.5h-0.6v-5.9h0.6V120.5z M56.1,111.8h-0.6v-5.9h0.6V111.8z M56.1,103h-0.6v-5.9
	h0.6V103z M56.1,94.3h-0.6v-5.9h0.6V94.3z M56.1,85.5h-0.6v-5.9h0.6V85.5z M56.1,76.8h-0.6v-5.9h0.6V76.8z M56.1,68h-0.6v-5.9h0.6
	V68z M56.1,59.3h-0.6v-5.9h0.6V59.3z M56.1,50.5h-0.6v-5.9h0.6V50.5z M56.1,41.7h-0.6v-5.9h0.6V41.7z M56.1,33h-0.6v-5.9h0.6V33z
	 M56.1,24.2h-0.6v-5.9h0.6V24.2z M56.1,15.5h-0.6V9.6h0.6V15.5z"/>
<g>
	
		<rect x="391.4" y="10.7" transform="matrix(0.8663 -0.4995 0.4995 0.8663 47.0156 197.6157)" class="st2" width="2.7" height="0.5"/>
	<path class="st2" d="M117.5,170.2l-0.3-0.5l4.6-2.7l0.3,0.5L117.5,170.2z M124.4,166.2l-0.3-0.5l4.6-2.7l0.3,0.5L124.4,166.2z
		 M131.2,162.3l-0.3-0.5l4.6-2.7l0.3,0.5L131.2,162.3z M138.1,158.3l-0.3-0.5l4.6-2.7l0.3,0.5L138.1,158.3z M144.9,154.3l-0.3-0.5
		l4.6-2.7l0.3,0.5L144.9,154.3z M151.8,150.4l-0.3-0.5l4.6-2.7l0.3,0.5L151.8,150.4z M158.6,146.4l-0.3-0.5l4.6-2.7l0.3,0.5
		L158.6,146.4z M165.5,142.5l-0.3-0.5l4.6-2.7l0.3,0.5L165.5,142.5z M172.4,138.5l-0.3-0.5l4.6-2.7l0.3,0.5L172.4,138.5z
		 M179.2,134.6l-0.3-0.5l4.6-2.7l0.3,0.5L179.2,134.6z M186.1,130.6l-0.3-0.5l4.6-2.7l0.3,0.5L186.1,130.6z M192.9,126.6l-0.3-0.5
		l4.6-2.7l0.3,0.5L192.9,126.6z M199.8,122.7l-0.3-0.5l4.6-2.7l0.3,0.5L199.8,122.7z M206.6,118.7l-0.3-0.5l4.6-2.7l0.3,0.5
		L206.6,118.7z M213.5,114.8l-0.3-0.5l4.6-2.7l0.3,0.5L213.5,114.8z M220.3,110.8l-0.3-0.5l4.6-2.7l0.3,0.5L220.3,110.8z
		 M227.2,106.8l-0.3-0.5l4.6-2.7l0.3,0.5L227.2,106.8z M234,102.9l-0.3-0.5l4.6-2.7l0.3,0.5L234,102.9z M240.9,98.9l-0.3-0.5
		l4.6-2.7l0.3,0.5L240.9,98.9z M247.7,95l-0.3-0.5l4.6-2.7l0.3,0.5L247.7,95z M254.6,91l-0.3-0.5l4.6-2.7l0.3,0.5L254.6,91z
		 M261.5,87.1l-0.3-0.5l4.6-2.7l0.3,0.5L261.5,87.1z M268.3,83.1l-0.3-0.5l4.6-2.7l0.3,0.5L268.3,83.1z M275.2,79.1l-0.3-0.5
		l4.6-2.7l0.3,0.5L275.2,79.1z M282,75.2l-0.3-0.5l4.6-2.7l0.3,0.5L282,75.2z M288.9,71.2l-0.3-0.5l4.6-2.7l0.3,0.5L288.9,71.2z
		 M295.7,67.3l-0.3-0.5l4.6-2.7l0.3,0.5L295.7,67.3z M302.6,63.3l-0.3-0.5l4.6-2.7l0.3,0.5L302.6,63.3z M309.4,59.4l-0.3-0.5
		l4.6-2.7l0.3,0.5L309.4,59.4z M316.3,55.4l-0.3-0.5l4.6-2.7l0.3,0.5L316.3,55.4z M323.1,51.4l-0.3-0.5l4.6-2.7l0.3,0.5L323.1,51.4z
		 M330,47.5l-0.3-0.5l4.6-2.7l0.3,0.5L330,47.5z M336.9,43.5l-0.3-0.5l4.6-2.7l0.3,0.5L336.9,43.5z M343.7,39.6l-0.3-0.5l4.6-2.7
		l0.3,0.5L343.7,39.6z M350.6,35.6l-0.3-0.5l4.6-2.7l0.3,0.5L350.6,35.6z M357.4,31.7l-0.3-0.5l4.6-2.7L362,29L357.4,31.7z
		 M364.3,27.7l-0.3-0.5l4.6-2.7l0.3,0.5L364.3,27.7z M371.1,23.7l-0.3-0.5l4.6-2.7l0.3,0.5L371.1,23.7z M378,19.8l-0.3-0.5l4.6-2.7
		l0.3,0.5L378,19.8z M384.8,15.8l-0.3-0.5l4.6-2.7l0.3,0.5L384.8,15.8z"/>
	
		<rect x="112.6" y="171.6" transform="matrix(0.8663 -0.4995 0.4995 0.8663 -70.6206 79.906)" class="st2" width="2.7" height="0.5"/>
</g>
<g>
	<path class="st2" d="M311.4,32.2l-0.3-0.5l4.6-2.7l0.3,0.5L311.4,32.2z M318.2,28.3l-0.3-0.5l4.6-2.7l0.3,0.5L318.2,28.3z
		 M325.1,24.3l-0.3-0.5l4.6-2.7l0.3,0.5L325.1,24.3z M331.9,20.4l-0.3-0.5l4.6-2.7l0.3,0.5L331.9,20.4z M338.8,16.4l-0.3-0.5
		l4.6-2.7l0.3,0.5L338.8,16.4z M345.6,12.5l-0.3-0.5l4.6-2.7l0.3,0.5L345.6,12.5z M352.5,8.5L352.2,8l4.6-2.7l0.3,0.5L352.5,8.5z
		 M359.4,4.5l-0.3-0.5l4.6-2.7l0.3,0.5L359.4,4.5z"/>
	
		<rect x="306.5" y="33.7" transform="matrix(0.8663 -0.4995 0.4995 0.8663 24.1802 158.2921)" class="st2" width="2.7" height="0.5"/>
</g>
<g>
	<polygon class="st2" points="721.5,19.3 721.3,18.8 723.6,17.5 723.9,17.9 	"/>
	<path class="st2" d="M304,260.3l-0.3-0.5l4.7-2.7l0.3,0.5L304,260.3z M311,256.3l-0.3-0.5l4.7-2.7l0.3,0.5L311,256.3z M317.9,252.3
		l-0.3-0.5l4.7-2.7l0.3,0.5L317.9,252.3z M324.9,248.3l-0.3-0.5l4.7-2.7l0.3,0.5L324.9,248.3z M331.9,244.3l-0.3-0.5l4.7-2.7
		l0.3,0.5L331.9,244.3z M338.8,240.3l-0.3-0.5l4.7-2.7l0.3,0.5L338.8,240.3z M345.8,236.2l-0.3-0.5l4.7-2.7l0.3,0.5L345.8,236.2z
		 M352.7,232.2l-0.3-0.5l4.7-2.7l0.3,0.5L352.7,232.2z M359.7,228.2l-0.3-0.5l4.7-2.7l0.3,0.5L359.7,228.2z M366.7,224.2l-0.3-0.5
		l4.7-2.7l0.3,0.5L366.7,224.2z M373.6,220.2l-0.3-0.5l4.7-2.7l0.3,0.5L373.6,220.2z M380.6,216.1l-0.3-0.5l4.7-2.7l0.3,0.5
		L380.6,216.1z M387.5,212.1l-0.3-0.5l4.7-2.7l0.3,0.5L387.5,212.1z M394.5,208.1l-0.3-0.5l4.7-2.7l0.3,0.5L394.5,208.1z
		 M401.4,204.1l-0.3-0.5l4.7-2.7l0.3,0.5L401.4,204.1z M408.4,200.1l-0.3-0.5l4.7-2.7l0.3,0.5L408.4,200.1z M415.4,196.1l-0.3-0.5
		l4.7-2.7l0.3,0.5L415.4,196.1z M422.3,192l-0.3-0.5l4.7-2.7l0.3,0.5L422.3,192z M429.3,188l-0.3-0.5l4.7-2.7l0.3,0.5L429.3,188z
		 M436.2,184l-0.3-0.5l4.7-2.7l0.3,0.5L436.2,184z M443.2,180l-0.3-0.5l4.7-2.7l0.3,0.5L443.2,180z M450.2,176l-0.3-0.5l4.7-2.7
		l0.3,0.5L450.2,176z M457.1,172l-0.3-0.5l4.7-2.7l0.3,0.5L457.1,172z M464.1,167.9l-0.3-0.5l4.7-2.7l0.3,0.5L464.1,167.9z
		 M471,163.9l-0.3-0.5l4.7-2.7l0.3,0.5L471,163.9z M478,159.9l-0.3-0.5l4.7-2.7l0.3,0.5L478,159.9z M485,155.9l-0.3-0.5l4.7-2.7
		l0.3,0.5L485,155.9z M491.9,151.9l-0.3-0.5l4.7-2.7l0.3,0.5L491.9,151.9z M498.9,147.9l-0.3-0.5l4.7-2.7l0.3,0.5L498.9,147.9z
		 M505.8,143.8l-0.3-0.5l4.7-2.7l0.3,0.5L505.8,143.8z M512.8,139.8l-0.3-0.5l4.7-2.7l0.3,0.5L512.8,139.8z M519.7,135.8l-0.3-0.5
		l4.7-2.7l0.3,0.5L519.7,135.8z M526.7,131.8l-0.3-0.5l4.7-2.7l0.3,0.5L526.7,131.8z M533.7,127.8l-0.3-0.5l4.7-2.7l0.3,0.5
		L533.7,127.8z M540.6,123.7l-0.3-0.5l4.7-2.7l0.3,0.5L540.6,123.7z M547.6,119.7l-0.3-0.5l4.7-2.7l0.3,0.5L547.6,119.7z
		 M554.5,115.7l-0.3-0.5l4.7-2.7l0.3,0.5L554.5,115.7z M561.5,111.7l-0.3-0.5l4.7-2.7l0.3,0.5L561.5,111.7z M568.5,107.7l-0.3-0.5
		l4.7-2.7l0.3,0.5L568.5,107.7z M575.4,103.7l-0.3-0.5l4.7-2.7l0.3,0.5L575.4,103.7z M582.4,99.6l-0.3-0.5l4.7-2.7l0.3,0.5
		L582.4,99.6z M589.3,95.6l-0.3-0.5l4.7-2.7l0.3,0.5L589.3,95.6z M596.3,91.6l-0.3-0.5l4.7-2.7l0.3,0.5L596.3,91.6z M603.2,87.6
		l-0.3-0.5l4.7-2.7l0.3,0.5L603.2,87.6z M610.2,83.6l-0.3-0.5l4.7-2.7l0.3,0.5L610.2,83.6z M617.2,79.6l-0.3-0.5l4.7-2.7l0.3,0.5
		L617.2,79.6z M624.1,75.5l-0.3-0.5l4.7-2.7l0.3,0.5L624.1,75.5z M631.1,71.5l-0.3-0.5l4.7-2.7l0.3,0.5L631.1,71.5z M638,67.5
		l-0.3-0.5l4.7-2.7l0.3,0.5L638,67.5z M645,63.5l-0.3-0.5l4.7-2.7l0.3,0.5L645,63.5z M652,59.5l-0.3-0.5l4.7-2.7l0.3,0.5L652,59.5z
		 M658.9,55.4l-0.3-0.5l4.7-2.7l0.3,0.5L658.9,55.4z M665.9,51.4l-0.3-0.5l4.7-2.7l0.3,0.5L665.9,51.4z M672.8,47.4l-0.3-0.5
		l4.7-2.7l0.3,0.5L672.8,47.4z M679.8,43.4l-0.3-0.5l4.7-2.7l0.3,0.5L679.8,43.4z M686.8,39.4l-0.3-0.5l4.7-2.7l0.3,0.5L686.8,39.4z
		 M693.7,35.4l-0.3-0.5l4.7-2.7l0.3,0.5L693.7,35.4z M700.7,31.3l-0.3-0.5l4.7-2.7l0.3,0.5L700.7,31.3z M707.6,27.3l-0.3-0.5
		l4.7-2.7l0.3,0.5L707.6,27.3z M714.6,23.3l-0.3-0.5l4.7-2.7l0.3,0.5L714.6,23.3z"/>
</g>
<g>
	
		<rect x="483.8" y="164.3" transform="matrix(0.5001 -0.866 0.866 0.5001 98.5496 502.0096)" class="st2" width="0.5" height="2.7"/>
	<path class="st2" d="M480.5,163.9l-4.7-2.7l0.3-0.5l4.7,2.7L480.5,163.9z M473.6,159.9l-4.7-2.7l0.3-0.5l4.7,2.7L473.6,159.9z
		 M466.7,155.9l-4.7-2.7l0.3-0.5l4.7,2.7L466.7,155.9z M459.8,152l-4.7-2.7l0.3-0.5l4.7,2.7L459.8,152z M452.9,148l-4.7-2.7l0.3-0.5
		l4.7,2.7L452.9,148z M446,144l-4.7-2.7l0.3-0.5l4.7,2.7L446,144z M439.1,140l-4.7-2.7l0.3-0.5l4.7,2.7L439.1,140z M432.2,136
		l-4.7-2.7l0.3-0.5l4.7,2.7L432.2,136z M425.3,132l-4.7-2.7l0.3-0.5l4.7,2.7L425.3,132z M418.4,128.1l-4.7-2.7l0.3-0.5l4.7,2.7
		L418.4,128.1z M411.5,124.1l-4.7-2.7l0.3-0.5l4.7,2.7L411.5,124.1z M404.6,120.1l-4.7-2.7l0.3-0.5l4.7,2.7L404.6,120.1z
		 M397.7,116.1l-4.7-2.7l0.3-0.5l4.7,2.7L397.7,116.1z M390.8,112.1l-4.7-2.7l0.3-0.5l4.7,2.7L390.8,112.1z M383.9,108.1l-4.7-2.7
		l0.3-0.5l4.7,2.7L383.9,108.1z M377,104.2l-4.7-2.7l0.3-0.5l4.7,2.7L377,104.2z M370.1,100.2l-4.7-2.7l0.3-0.5l4.7,2.7L370.1,100.2
		z M363.2,96.2l-4.7-2.7l0.3-0.5l4.7,2.7L363.2,96.2z M356.3,92.2l-4.7-2.7l0.3-0.5l4.7,2.7L356.3,92.2z M349.4,88.2l-4.7-2.7
		l0.3-0.5l4.7,2.7L349.4,88.2z M342.5,84.2l-4.7-2.7l0.3-0.5l4.7,2.7L342.5,84.2z M335.6,80.3l-4.7-2.7l0.3-0.5l4.7,2.7L335.6,80.3z
		 M328.7,76.3l-4.7-2.7l0.3-0.5l4.7,2.7L328.7,76.3z M321.9,72.3l-4.7-2.7l0.3-0.5l4.7,2.7L321.9,72.3z M315,68.3l-4.7-2.7l0.3-0.5
		l4.7,2.7L315,68.3z M308.1,64.3l-4.7-2.7l0.3-0.5l4.7,2.7L308.1,64.3z M301.2,60.4l-4.7-2.7l0.3-0.5l4.7,2.7L301.2,60.4z
		 M294.3,56.4l-4.7-2.7l0.3-0.5l4.7,2.7L294.3,56.4z M287.4,52.4l-4.7-2.7l0.3-0.5l4.7,2.7L287.4,52.4z M280.5,48.4l-4.7-2.7
		l0.3-0.5l4.7,2.7L280.5,48.4z M273.6,44.4l-4.7-2.7l0.3-0.5l4.7,2.7L273.6,44.4z M266.7,40.4l-4.7-2.7l0.3-0.5l4.7,2.7L266.7,40.4z
		 M259.8,36.5l-4.7-2.7l0.3-0.5L260,36L259.8,36.5z M252.9,32.5l-4.7-2.7l0.3-0.5l4.7,2.7L252.9,32.5z M246,28.5l-4.7-2.7l0.3-0.5
		l4.7,2.7L246,28.5z M239.1,24.5l-4.7-2.7l0.3-0.5l4.7,2.7L239.1,24.5z M232.2,20.5l-4.7-2.7l0.3-0.5l4.7,2.7L232.2,20.5z
		 M225.3,16.5l-4.7-2.7l0.3-0.5l4.7,2.7L225.3,16.5z M218.4,12.6l-4.7-2.7l0.3-0.5l4.7,2.7L218.4,12.6z M211.5,8.6l-4.7-2.7l0.3-0.5
		l4.7,2.7L211.5,8.6z M204.6,4.6l-4.7-2.7l0.3-0.5l4.7,2.7L204.6,4.6z"/>
</g>
<g>
	
		<rect x="362.2" y="142.8" transform="matrix(0.5002 -0.8659 0.8659 0.5002 56.323 385.8931)" class="st2" width="0.5" height="2.7"/>
	<path class="st2" d="M358.9,142.4l-4.7-2.7l0.3-0.5l4.7,2.7L358.9,142.4z M351.9,138.4l-4.7-2.7l0.3-0.5l4.7,2.7L351.9,138.4z
		 M345,134.4l-4.7-2.7l0.3-0.5l4.7,2.7L345,134.4z M338,130.4l-4.7-2.7l0.3-0.5l4.7,2.7L338,130.4z M331.1,126.4l-4.7-2.7l0.3-0.5
		l4.7,2.7L331.1,126.4z M324.1,122.4l-4.7-2.7l0.3-0.5l4.7,2.7L324.1,122.4z M317.2,118.3l-4.7-2.7l0.3-0.5l4.7,2.7L317.2,118.3z
		 M310.2,114.3l-4.7-2.7l0.3-0.5l4.7,2.7L310.2,114.3z M303.3,110.3l-4.7-2.7l0.3-0.5l4.7,2.7L303.3,110.3z M296.3,106.3l-4.7-2.7
		l0.3-0.5l4.7,2.7L296.3,106.3z M289.4,102.3l-4.7-2.7l0.3-0.5l4.7,2.7L289.4,102.3z M282.4,98.3l-4.7-2.7l0.3-0.5l4.7,2.7
		L282.4,98.3z M275.5,94.3l-4.7-2.7l0.3-0.5l4.7,2.7L275.5,94.3z M268.5,90.3l-4.7-2.7l0.3-0.5l4.7,2.7L268.5,90.3z M261.6,86.2
		l-4.7-2.7l0.3-0.5l4.7,2.7L261.6,86.2z M254.6,82.2l-4.7-2.7l0.3-0.5l4.7,2.7L254.6,82.2z M247.7,78.2l-4.7-2.7l0.3-0.5l4.7,2.7
		L247.7,78.2z M240.7,74.2l-4.7-2.7l0.3-0.5l4.7,2.7L240.7,74.2z M233.8,70.2l-4.7-2.7l0.3-0.5l4.7,2.7L233.8,70.2z M226.8,66.2
		l-4.7-2.7l0.3-0.5l4.7,2.7L226.8,66.2z M219.9,62.2l-4.7-2.7l0.3-0.5l4.7,2.7L219.9,62.2z M212.9,58.2l-4.7-2.7l0.3-0.5l4.7,2.7
		L212.9,58.2z M206,54.1l-4.7-2.7l0.3-0.5l4.7,2.7L206,54.1z M199,50.1l-4.7-2.7l0.3-0.5l4.7,2.7L199,50.1z M192.1,46.1l-4.7-2.7
		l0.3-0.5l4.7,2.7L192.1,46.1z M185.1,42.1l-4.7-2.7l0.3-0.5l4.7,2.7L185.1,42.1z M178.2,38.1l-4.7-2.7l0.3-0.5l4.7,2.7L178.2,38.1z
		 M171.2,34.1l-4.7-2.7l0.3-0.5l4.7,2.7L171.2,34.1z M164.3,30.1l-4.7-2.7l0.3-0.5l4.7,2.7L164.3,30.1z M157.3,26.1l-4.7-2.7
		l0.3-0.5l4.7,2.7L157.3,26.1z M150.4,22l-4.7-2.7l0.3-0.5l4.7,2.7L150.4,22z M143.4,18l-4.7-2.7l0.3-0.5l4.7,2.7L143.4,18z
		 M136.5,14l-4.7-2.7l0.3-0.5l4.7,2.7L136.5,14z M129.5,10l-4.7-2.7l0.3-0.5l4.7,2.7L129.5,10z M122.6,6l-4.7-2.7l0.3-0.5l4.7,2.7
		L122.6,6z"/>
</g>
<path class="st2" d="M131.1,212.4h-0.5V207h0.5V212.4z M131.1,204.4h-0.5V199h0.5V204.4z M131.1,196.4h-0.5V191h0.5V196.4z
	 M131.1,188.4h-0.5V183h0.5V188.4z M131.1,180.4h-0.5v-5.4h0.5V180.4z M131.1,172.5h-0.5v-5.4h0.5V172.5z M131.1,164.5h-0.5v-5.4
	h0.5V164.5z M131.1,156.5h-0.5v-5.4h0.5V156.5z M131.1,148.5h-0.5v-5.4h0.5V148.5z M131.1,140.5h-0.5v-5.4h0.5V140.5z M131.1,132.5
	h-0.5v-5.4h0.5V132.5z M131.1,124.5h-0.5v-5.4h0.5V124.5z M131.1,116.5h-0.5v-5.4h0.5V116.5z M131.1,108.6h-0.5v-5.4h0.5V108.6z
	 M131.1,100.6h-0.5v-5.4h0.5V100.6z M131.1,92.6h-0.5v-5.4h0.5V92.6z M131.1,84.6h-0.5v-5.4h0.5V84.6z M131.1,76.6h-0.5v-5.4h0.5
	V76.6z M131.1,68.6h-0.5v-5.4h0.5V68.6z M131.1,60.6h-0.5v-5.4h0.5V60.6z M131.1,52.6h-0.5v-5.4h0.5V52.6z M131.1,44.6h-0.5v-5.4
	h0.5V44.6z M131.1,36.7h-0.5v-5.4h0.5V36.7z M131.1,28.7h-0.5v-5.4h0.5V28.7z M131.1,20.7h-0.5v-5.4h0.5V20.7z M131.1,12.7h-0.5V7.3
	h0.5V12.7z"/>
</svg>
