<?xml version="1.0" encoding="UTF-8" standalone="no"?>
<svg id="Layer_1" x="0px" y="0px" viewBox="0 0 150 150" enable-background="new 0 0 612 792" xml:space="preserve" width="150" height="150">
<g id="g1005" transform="matrix(1.737379,0,0,1.737379,-458.00348,-616.4486)">
<path d="m 293.862,386.851 c 3.113,0 5.646,-2.533 5.646,-5.647 0,-3.113 -2.533,-5.646 -5.646,-5.646 -3.114,0 -5.648,2.533 -5.648,5.646 10e-4,3.113 2.534,5.647 5.648,5.647 z m 0,-9.294 c 2.011,0 3.646,1.636 3.646,3.646 0,2.011 -1.636,3.647 -3.646,3.647 -2.011,0 -3.648,-1.636 -3.648,-3.647 10e-4,-2.011 1.637,-3.646 3.648,-3.646 z" id="path993" />
<path d="m 329.628,374.331 c -3.096,0.33 -5.347,3.118 -5.017,6.213 0.307,2.879 2.719,5.049 5.609,5.049 0.2,0 0.402,-0.011 0.605,-0.033 3.096,-0.33 5.346,-3.118 5.015,-6.214 -0.326,-3.076 -3.073,-5.354 -6.212,-5.015 z m 0.985,9.241 c -2.024,0.212 -3.802,-1.251 -4.014,-3.24 -0.213,-1.999 1.241,-3.799 3.241,-4.013 0.132,-0.014 0.263,-0.021 0.393,-0.021 1.865,0 3.421,1.401 3.619,3.26 0.213,2 -1.239,3.8 -3.239,4.014 z" id="path995" />
<path d="m 346.598,376.994 c -0.064,-0.484 -0.466,-0.852 -0.953,-0.871 l -4.935,-0.192 c -0.276,-0.731 -0.619,-1.417 -1.022,-2.046 -0.404,-0.63 -0.884,-1.228 -1.431,-1.785 l 1.89,-4.56 c 0.187,-0.451 0.021,-0.971 -0.394,-1.23 -1.24,-0.777 -2.552,-1.456 -3.896,-2.018 -0.451,-0.188 -0.971,-0.025 -1.231,0.39 l -2.632,4.173 c -1.509,-0.24 -3.063,-0.165 -4.545,0.215 l -3.01,-3.918 c -0.298,-0.386 -0.83,-0.503 -1.264,-0.273 -1.29,0.688 -2.531,1.483 -3.688,2.364 -0.389,0.296 -0.507,0.83 -0.279,1.262 l 2.302,4.367 c -0.766,0.942 -1.366,2.002 -1.791,3.131 -0.255,-1.278 -0.586,-2.534 -1.015,-3.728 -0.166,-0.459 -0.642,-0.732 -1.117,-0.646 l -4.82,0.861 c -0.527,-1.136 -1.17,-2.238 -1.918,-3.292 l 3.16,-3.752 c 0.314,-0.373 0.313,-0.919 -0.002,-1.29 -0.942,-1.112 -1.985,-2.155 -3.102,-3.1 -0.373,-0.316 -0.918,-0.315 -1.291,-0.002 l -3.75,3.16 c -1.052,-0.747 -2.154,-1.389 -3.292,-1.917 l 0.861,-4.821 c 0.086,-0.48 -0.187,-0.952 -0.646,-1.117 -1.358,-0.489 -2.785,-0.869 -4.241,-1.129 -0.487,-0.088 -0.951,0.187 -1.117,0.645 l -1.667,4.612 c -1.381,-0.139 -2.423,-0.139 -3.806,0 l -1.667,-4.612 c -0.165,-0.457 -0.639,-0.732 -1.117,-0.645 -1.446,0.259 -2.873,0.639 -4.239,1.129 -0.459,0.165 -0.732,0.637 -0.646,1.117 l 0.86,4.821 c -1.138,0.529 -2.24,1.172 -3.29,1.92 l -3.751,-3.163 c -0.373,-0.314 -0.919,-0.314 -1.291,0.002 -1.118,0.947 -2.162,1.992 -3.103,3.103 -0.315,0.372 -0.315,0.918 -10e-4,1.29 l 3.162,3.749 c -0.748,1.053 -1.391,2.155 -1.918,3.291 l -4.821,-0.861 c -0.479,-0.087 -0.952,0.188 -1.117,0.646 -0.487,1.355 -0.867,2.782 -1.129,4.241 -0.086,0.479 0.186,0.952 0.645,1.117 l 4.611,1.667 c -0.068,0.679 -0.102,1.307 -0.102,1.903 0,0.603 0.033,1.221 0.101,1.904 l -4.611,1.666 c -0.458,0.165 -0.73,0.638 -0.645,1.117 0.262,1.456 0.641,2.882 1.128,4.24 0.165,0.459 0.637,0.734 1.117,0.647 l 4.822,-0.862 c 0.528,1.137 1.17,2.238 1.918,3.291 l -3.162,3.751 c -0.315,0.373 -0.314,0.919 0.002,1.291 0.942,1.111 1.985,2.154 3.101,3.101 0.372,0.315 0.918,0.317 1.292,0.002 l 3.752,-3.161 c 1.053,0.748 2.155,1.391 3.29,1.918 l -0.86,4.82 c -0.085,0.479 0.187,0.951 0.645,1.116 1.355,0.489 2.782,0.869 4.24,1.13 0.06,0.011 0.119,0.016 0.177,0.016 0.077,0 0.151,-0.018 0.224,-0.035 -0.163,0.346 -0.128,0.762 0.129,1.066 l 3.148,3.735 c -0.832,1.354 -1.438,2.818 -1.808,4.373 l -4.87,0.416 c -0.486,0.041 -0.872,0.428 -0.912,0.914 -0.121,1.455 -0.121,2.931 0,4.386 0.04,0.486 0.425,0.873 0.912,0.914 l 4.87,0.416 c 0.369,1.553 0.974,3.019 1.806,4.373 l -3.146,3.734 c -0.315,0.373 -0.314,0.919 0.002,1.291 0.949,1.119 1.992,2.162 3.1,3.102 0.372,0.316 0.917,0.316 1.291,0.002 l 3.734,-3.147 c 1.353,0.831 2.818,1.436 4.374,1.807 l 0.415,4.871 c 0.042,0.486 0.428,0.872 0.915,0.912 0.726,0.06 1.463,0.089 2.192,0.089 0.729,0 1.467,-0.029 2.194,-0.089 0.486,-0.04 0.873,-0.426 0.914,-0.912 l 0.416,-4.871 c 1.556,-0.37 3.021,-0.976 4.373,-1.807 l 3.735,3.147 c 0.373,0.314 0.918,0.313 1.291,-10e-4 1.109,-0.941 2.153,-1.983 3.103,-3.103 0.315,-0.372 0.316,-0.918 0.002,-1.291 l -3.148,-3.734 c 0.831,-1.353 1.436,-2.818 1.806,-4.373 l 4.872,-0.417 c 0.486,-0.041 0.871,-0.428 0.912,-0.913 0.119,-1.448 0.119,-2.924 0,-4.387 -0.04,-0.486 -0.426,-0.873 -0.912,-0.914 l -4.872,-0.415 c -0.37,-1.555 -0.976,-3.02 -1.808,-4.373 l 3.147,-3.736 c 0.314,-0.373 0.314,-0.918 -10e-4,-1.29 -0.934,-1.104 -1.978,-2.148 -3.103,-3.103 -0.373,-0.315 -0.918,-0.317 -1.291,-0.002 l -3.734,3.148 c -1.352,-0.83 -2.817,-1.436 -4.373,-1.806 l -0.381,-4.445 0.745,0.628 c 0.373,0.314 0.917,0.314 1.29,-10e-4 1.111,-0.94 2.155,-1.983 3.102,-3.102 0.315,-0.372 0.316,-0.918 0.002,-1.29 l -3.16,-3.752 c 0.748,-1.052 1.391,-2.154 1.919,-3.291 l 4.82,0.862 c 0.475,0.086 0.952,-0.187 1.117,-0.647 0.486,-1.357 0.866,-2.784 1.128,-4.24 0.086,-0.479 -0.187,-0.952 -0.645,-1.117 l -2.587,-0.935 3.142,0.123 c 0.275,0.726 0.618,1.411 1.023,2.045 0.408,0.635 0.887,1.232 1.429,1.784 l -1.887,4.561 c -0.186,0.45 -0.021,0.969 0.392,1.229 1.225,0.77 2.535,1.449 3.897,2.017 0.125,0.052 0.256,0.077 0.385,0.077 0.335,0 0.658,-0.168 0.846,-0.467 l 2.629,-4.17 c 1.511,0.24 3.064,0.165 4.547,-0.215 l 3.009,3.918 c 0.297,0.387 0.83,0.503 1.262,0.274 1.295,-0.688 2.537,-1.484 3.692,-2.367 0.388,-0.296 0.505,-0.829 0.277,-1.26 l -2.301,-4.37 c 0.967,-1.191 1.681,-2.567 2.096,-4.04 l 4.89,-0.647 c 0.483,-0.064 0.851,-0.467 0.868,-0.955 0.058,-1.456 -0.009,-2.93 -0.196,-4.379 z m -56.166,29.149 1.527,-4.224 c 1.398,0.138 2.453,0.137 3.806,0.001 l 1.666,4.609 c 0.028,0.078 0.075,0.141 0.119,0.207 l -3.451,-2.909 c -0.373,-0.315 -0.919,-0.313 -1.291,0.002 -0.839,0.711 -1.625,1.497 -2.376,2.314 z m 12.142,-6.035 c 0.038,-0.018 0.074,-0.041 0.112,-0.059 -0.029,0.08 -0.059,0.159 -0.066,0.247 l -0.004,0.045 z m 10.561,8.933 c 0.369,0.253 0.865,0.231 1.211,-0.06 l 3.645,-3.072 c 0.589,0.535 1.151,1.097 1.68,1.679 l -3.071,3.647 c -0.29,0.345 -0.314,0.84 -0.06,1.211 1.034,1.506 1.729,3.188 2.066,5 0.083,0.442 0.45,0.775 0.898,0.813 l 4.754,0.405 c 0.038,0.793 0.038,1.587 0.001,2.375 l -4.755,0.406 c -0.448,0.038 -0.816,0.371 -0.898,0.813 -0.336,1.812 -1.031,3.495 -2.065,5 -0.255,0.371 -0.23,0.867 0.06,1.211 l 3.072,3.645 c -0.533,0.587 -1.096,1.148 -1.68,1.68 l -3.646,-3.071 c -0.345,-0.291 -0.841,-0.313 -1.211,-0.06 -1.503,1.034 -3.185,1.73 -5,2.066 -0.442,0.083 -0.775,0.45 -0.813,0.898 l -0.406,4.753 c -0.793,0.039 -1.583,0.039 -2.375,0 l -0.405,-4.753 c -0.039,-0.448 -0.372,-0.816 -0.814,-0.898 -1.814,-0.337 -3.497,-1.032 -5.001,-2.066 -0.372,-0.254 -0.867,-0.23 -1.211,0.06 l -3.644,3.071 c -0.584,-0.531 -1.145,-1.093 -1.679,-1.681 l 3.07,-3.644 c 0.29,-0.344 0.315,-0.839 0.06,-1.21 -1.035,-1.509 -1.729,-3.19 -2.065,-5.001 -0.082,-0.442 -0.45,-0.775 -0.898,-0.813 l -4.753,-0.405 c -0.038,-0.791 -0.038,-1.585 0,-2.376 l 4.753,-0.405 c 0.448,-0.038 0.816,-0.371 0.898,-0.813 0.337,-1.812 1.033,-3.494 2.068,-5 0.255,-0.371 0.23,-0.866 -0.06,-1.211 l -3.071,-3.645 c 0.533,-0.587 1.095,-1.148 1.679,-1.68 l 3.643,3.071 c 0.344,0.29 0.839,0.315 1.21,0.06 1.506,-1.033 3.189,-1.728 5.001,-2.065 0.442,-0.083 0.775,-0.45 0.813,-0.898 l 0.403,-4.753 c 0.797,-0.039 1.586,-0.037 2.375,-10e-4 l 0.407,4.754 c 0.038,0.448 0.371,0.816 0.813,0.898 1.815,0.336 3.498,1.032 5.001,2.065 z m -9.141,-9.675 c 0.636,-0.359 1.263,-0.744 1.871,-1.177 l 1.385,1.168 c -1.079,-0.061 -2.169,-0.061 -3.256,0.009 z m 13.1,-10.71 -4.748,-0.849 c -0.466,-0.084 -0.92,0.168 -1.1,0.601 -0.614,1.478 -1.442,2.9 -2.463,4.229 -0.286,0.373 -0.274,0.894 0.028,1.253 l 3.115,3.699 c -0.533,0.587 -1.095,1.148 -1.68,1.679 l -3.696,-3.116 c -0.359,-0.304 -0.88,-0.314 -1.253,-0.029 -1.336,1.026 -2.759,1.854 -4.229,2.462 -0.434,0.18 -0.685,0.637 -0.602,1.1 l 0.848,4.749 c -0.747,0.238 -1.514,0.442 -2.293,0.609 l -1.644,-4.547 c -0.145,-0.4 -0.524,-0.66 -0.94,-0.66 -0.043,0 -0.086,0.003 -0.129,0.009 -1.835,0.237 -2.976,0.244 -4.895,-0.001 -0.468,-0.058 -0.908,0.212 -1.066,0.652 l -1.644,4.547 c -0.78,-0.167 -1.546,-0.371 -2.293,-0.609 l 0.847,-4.749 c 0.083,-0.462 -0.167,-0.919 -0.601,-1.1 -1.474,-0.612 -2.896,-1.44 -4.228,-2.462 -0.372,-0.286 -0.893,-0.274 -1.253,0.029 l -3.698,3.115 c -0.586,-0.532 -1.148,-1.094 -1.68,-1.679 l 3.117,-3.697 c 0.303,-0.359 0.314,-0.881 0.028,-1.253 -1.02,-1.33 -1.849,-2.752 -2.462,-4.229 -0.18,-0.434 -0.634,-0.688 -1.099,-0.601 l -4.75,0.849 c -0.238,-0.748 -0.442,-1.515 -0.609,-2.295 l 4.548,-1.643 c 0.441,-0.159 0.712,-0.605 0.652,-1.07 -0.121,-0.927 -0.177,-1.705 -0.177,-2.446 0,-0.747 0.057,-1.523 0.178,-2.443 0.061,-0.466 -0.21,-0.912 -0.651,-1.071 l -4.549,-1.645 c 0.167,-0.78 0.371,-1.548 0.609,-2.294 l 4.75,0.849 c 0.458,0.083 0.919,-0.167 1.099,-0.601 0.613,-1.476 1.441,-2.899 2.463,-4.23 0.286,-0.373 0.274,-0.895 -0.029,-1.253 l -3.117,-3.696 c 0.531,-0.585 1.093,-1.147 1.68,-1.68 l 3.698,3.118 c 0.361,0.303 0.882,0.315 1.254,0.028 1.325,-1.02 2.747,-1.849 4.228,-2.465 0.433,-0.18 0.683,-0.637 0.6,-1.099 l -0.847,-4.748 c 0.75,-0.24 1.517,-0.443 2.293,-0.61 l 1.644,4.549 c 0.159,0.44 0.604,0.71 1.067,0.652 1.89,-0.242 3.011,-0.242 4.895,0 0.466,0.061 0.909,-0.211 1.068,-0.652 l 1.644,-4.549 c 0.779,0.167 1.546,0.371 2.293,0.61 l -0.848,4.749 c -0.083,0.462 0.167,0.919 0.601,1.099 1.478,0.615 2.901,1.443 4.23,2.463 0.374,0.287 0.894,0.275 1.253,-0.029 l 3.696,-3.115 c 0.586,0.532 1.148,1.093 1.68,1.678 l -3.115,3.698 c -0.303,0.359 -0.314,0.88 -0.028,1.253 1.02,1.331 1.85,2.754 2.462,4.23 0.18,0.433 0.635,0.685 1.1,0.601 l 4.748,-0.849 c 0.238,0.747 0.442,1.514 0.61,2.294 l -4.549,1.643 c -0.441,0.16 -0.713,0.605 -0.651,1.071 0.121,0.922 0.178,1.7 0.178,2.446 0,0.745 -0.057,1.522 -0.177,2.445 -0.062,0.466 0.21,0.911 0.651,1.07 l 4.548,1.643 c -0.169,0.778 -0.372,1.546 -0.61,2.293 z m 23.009,-7.574 c -0.42,0.055 -0.759,0.369 -0.847,0.782 -0.346,1.616 -1.123,3.115 -2.249,4.335 -0.288,0.311 -0.348,0.77 -0.15,1.144 l 2.219,4.213 c -0.644,0.457 -1.312,0.886 -1.999,1.281 l -2.9,-3.776 c -0.258,-0.336 -0.702,-0.472 -1.102,-0.342 -1.579,0.512 -3.276,0.593 -4.879,0.232 -0.412,-0.094 -0.84,0.084 -1.065,0.442 l -2.534,4.02 c -0.724,-0.331 -1.43,-0.696 -2.11,-1.091 l 1.82,-4.4 c 0.162,-0.392 0.06,-0.842 -0.255,-1.125 -0.625,-0.563 -1.164,-1.193 -1.6,-1.87 -0.432,-0.676 -0.778,-1.429 -1.032,-2.237 -0.126,-0.403 -0.492,-0.684 -0.915,-0.7 l -4.757,-0.187 c -0.073,-0.788 -0.11,-1.582 -0.109,-2.374 l 4.713,-0.623 c 0.42,-0.055 0.76,-0.369 0.848,-0.784 0.342,-1.614 1.12,-3.113 2.249,-4.334 0.288,-0.311 0.348,-0.77 0.15,-1.145 l -2.219,-4.21 c 0.644,-0.456 1.312,-0.885 1.998,-1.281 l 2.901,3.776 c 0.258,0.336 0.7,0.471 1.102,0.342 1.575,-0.513 3.272,-0.594 4.875,-0.23 0.415,0.092 0.841,-0.083 1.066,-0.442 l 2.536,-4.022 c 0.719,0.33 1.425,0.695 2.111,1.093 l -1.821,4.396 c -0.162,0.391 -0.06,0.84 0.253,1.124 0.632,0.573 1.172,1.204 1.603,1.875 0.429,0.668 0.775,1.421 1.03,2.237 0.126,0.404 0.492,0.685 0.915,0.701 l 4.759,0.186 c 0.074,0.788 0.11,1.58 0.108,2.37 z" id="path997" />
<path d="m 300.083,419.853 c 0,3.113 2.533,5.646 5.646,5.646 3.114,0 5.648,-2.533 5.648,-5.646 0,-3.114 -2.533,-5.647 -5.648,-5.647 -3.113,-0.001 -5.646,2.532 -5.646,5.647 z m 9.294,0 c 0,2.011 -1.637,3.646 -3.648,3.646 -2.011,0 -3.646,-1.636 -3.646,-3.646 0,-2.011 1.636,-3.647 3.646,-3.647 2.01,0 3.648,1.636 3.648,3.647 z" id="path999" />
<path d="m 293.863,371.589 c -1.244,0 -2.455,0.234 -3.599,0.697 -0.256,0.103 -0.379,0.395 -0.276,0.651 0.103,0.256 0.396,0.38 0.651,0.276 1.024,-0.414 2.109,-0.624 3.224,-0.624 4.75,0 8.613,3.864 8.613,8.613 0,4.75 -3.864,8.614 -8.613,8.614 -4.75,0 -8.614,-3.864 -8.614,-8.614 0,-1.684 0.486,-3.314 1.405,-4.716 0.151,-0.231 0.087,-0.541 -0.144,-0.692 -0.23,-0.151 -0.54,-0.086 -0.692,0.144 -1.027,1.565 -1.569,3.386 -1.569,5.265 0,5.301 4.313,9.614 9.614,9.614 5.301,0 9.613,-4.313 9.613,-9.614 10e-4,-5.302 -4.312,-9.614 -9.613,-9.614 z" id="path1001" />
<path d="m 296.117,419.851 c 0,5.302 4.313,9.614 9.614,9.614 2.709,0 5.307,-1.152 7.127,-3.161 0.185,-0.205 0.17,-0.522 -0.034,-0.706 -0.203,-0.185 -0.521,-0.17 -0.706,0.034 -1.632,1.801 -3.959,2.833 -6.387,2.833 -4.75,0 -8.614,-3.864 -8.614,-8.614 0,-4.749 3.864,-8.613 8.614,-8.613 4.749,0 8.613,3.864 8.613,8.613 0,0.582 -0.059,1.164 -0.174,1.73 -0.055,0.271 0.12,0.534 0.391,0.59 0.267,0.056 0.534,-0.119 0.59,-0.391 0.128,-0.632 0.193,-1.281 0.193,-1.93 0,-5.301 -4.312,-9.613 -9.613,-9.613 -5.301,0 -9.614,4.313 -9.614,9.614 z" id="path1003" />
</g>
</svg>