<?xml version="1.0" encoding="UTF-8" standalone="no"?>
<svg id="Layer_1" x="0px" y="0px" viewBox="0 0 150 150" enable-background="new 0 0 144 144" xml:space="preserve" width="150" height="150">
<g id="g1090" transform="matrix(1.8118197,0,0,1.8118197,-55.15089,-35.742903)">
<path d="m 72,42.133 c -22.442,0 -40.7,18.258 -40.7,40.701 0,3.629 0.488,7.251 1.45,10.764 0.119,0.435 0.514,0.736 0.964,0.736 h 23.141 c 3.596,4.727 9.218,7.533 15.146,7.533 5.928,0 11.55,-2.807 15.144,-7.533 h 23.142 c 0.451,0 0.846,-0.302 0.965,-0.736 0.962,-3.517 1.449,-7.138 1.449,-10.764 C 112.7,60.392 94.442,42.133 72,42.133 Z m 30.563,32.933 c 0.02,0.023 0.039,0.047 0.045,0.078 l 0.369,2.088 -23.758,4.56 -0.062,0.549 c -0.401,3.541 -3.392,6.212 -6.957,6.212 -2.578,0 -4.943,-1.416 -6.171,-3.695 l -0.261,-0.485 -4.875,0.937 -0.599,-3.395 4.902,-0.794 0.077,-0.548 c 0.482,-3.437 3.46,-6.028 6.927,-6.028 2.666,0 5.066,1.491 6.266,3.893 l 0.246,0.493 z m -23.019,2.21 c -1.525,-2.625 -4.29,-4.232 -7.343,-4.232 -4.022,0 -7.503,2.873 -8.316,6.769 l -3.903,0.633 c -0.374,0.06 -0.714,0.271 -0.935,0.58 -0.22,0.309 -0.309,0.7 -0.243,1.072 l 0.626,3.547 c 0.066,0.376 0.285,0.714 0.595,0.925 0.312,0.216 0.681,0.302 1.077,0.227 l 3.887,-0.746 c 1.552,2.482 4.267,4.003 7.212,4.003 4.142,0 7.646,-2.969 8.367,-6.992 l 8.913,-1.711 c 0.007,0.142 0.019,0.282 0.019,0.426 0,9.668 -7.864,17.533 -17.532,17.533 -9.668,0 -17.533,-7.865 -17.533,-17.533 0,-9.668 7.865,-17.534 17.533,-17.534 7.356,0 13.985,4.724 16.472,11.594 z m 29.972,15.058 H 87.179 c 2.088,-2.999 3.322,-6.635 3.322,-10.559 0,-0.207 -0.012,-0.412 -0.024,-0.617 l 13.024,-2.5 c 0.762,-0.146 1.271,-0.885 1.135,-1.647 l -0.41,-2.312 c -0.134,-0.76 -0.89,-1.281 -1.631,-1.158 l -13.149,2.13 C 86.867,68.313 79.807,63.24 71.969,63.24 c -10.219,0 -18.533,8.314 -18.533,18.534 0,3.923 1.234,7.56 3.322,10.559 H 34.484 c -0.786,-3.109 -1.185,-6.302 -1.185,-9.5 0,-21.34 17.361,-38.701 38.7,-38.701 21.34,0 38.7,17.361 38.7,38.701 0.001,3.196 -0.397,6.388 -1.183,9.501 z" id="path1074" />
<path d="m 103.313,82.748 c 0,0.414 0.336,0.75 0.75,0.75 h 3.08 c 0.414,0 0.75,-0.336 0.75,-0.75 0,-0.414 -0.336,-0.75 -0.75,-0.75 h -3.08 c -0.414,0 -0.75,0.336 -0.75,0.75 z" id="path1076" />
<path d="m 99.128,67.133 c 0.139,0.241 0.391,0.375 0.65,0.375 0.127,0 0.256,-0.032 0.374,-0.101 l 2.667,-1.539 c 0.358,-0.207 0.482,-0.666 0.275,-1.024 -0.206,-0.358 -0.664,-0.482 -1.025,-0.274 l -2.667,1.54 c -0.358,0.205 -0.481,0.664 -0.274,1.023 z" id="path1078" />
<path d="m 89.985,51.737 c -0.359,-0.208 -0.818,-0.084 -1.025,0.274 l -1.54,2.667 c -0.207,0.358 -0.084,0.817 0.274,1.024 0.118,0.068 0.247,0.101 0.374,0.101 0.26,0 0.512,-0.134 0.65,-0.375 l 1.54,-2.667 c 0.209,-0.358 0.086,-0.817 -0.273,-1.024 z" id="path1080" />
<path d="m 72.08,46.941 c -0.414,0 -0.75,0.336 -0.75,0.75 l -0.001,3.08 c 0,0.414 0.336,0.75 0.75,0.75 0.414,0 0.75,-0.335 0.75,-0.75 l 0.001,-3.08 c 0,-0.414 -0.335,-0.75 -0.75,-0.75 z" id="path1082" />
<path d="m 55.2,52.015 c -0.207,-0.36 -0.667,-0.482 -1.024,-0.274 -0.358,0.207 -0.482,0.666 -0.274,1.024 l 1.539,2.667 c 0.139,0.241 0.391,0.375 0.65,0.375 0.128,0 0.256,-0.032 0.375,-0.101 0.358,-0.207 0.482,-0.666 0.275,-1.024 z" id="path1084" />
<path d="m 44.761,66.115 -2.666,-1.541 c -0.358,-0.207 -0.817,-0.084 -1.025,0.274 -0.207,0.359 -0.085,0.817 0.274,1.025 l 2.666,1.541 c 0.118,0.068 0.247,0.101 0.375,0.101 0.259,0 0.511,-0.134 0.65,-0.375 0.207,-0.359 0.085,-0.818 -0.274,-1.025 z" id="path1086" />
<path d="m 40.521,82.504 -3.079,-0.002 v 0 c -0.414,0 -0.75,0.336 -0.75,0.75 0,0.414 0.336,0.75 0.75,0.75 l 3.079,0.002 v 0 c 0.414,0 0.75,-0.336 0.75,-0.75 0,-0.414 -0.336,-0.75 -0.75,-0.75 z" id="path1088" />
</g>
</svg>