<?xml version="1.0" encoding="UTF-8" standalone="no"?>
<svg
   id="Layer_1"
   x="0px"
   y="0px"
   viewBox="0 0 150 150"
   enable-background="new 0 0 216 216"
   xml:space="preserve"
   width="150" height="150">
   <g id="g961" transform="matrix(1.6054076,0,0,1.6054076,-97.786042,-55.92006)">
    <path d="m 138.764,104.067 c -2.93,-9.574 -11.86,-16.211 -21.922,-16.211 -10.088,0 -18.944,6.576 -21.901,16.121 -1.644,-0.586 -3.361,-0.883 -5.119,-0.883 -7.135,0 -13.273,4.908 -14.89,11.783 -6.375,0.234 -11.747,4.662 -13.167,10.932 -0.062,0.281 0.004,0.578 0.186,0.805 0.181,0.225 0.454,0.357 0.743,0.357 h 90.032 c 0.463,0 0.859,-0.334 0.938,-0.791 0.2,-1.164 0.298,-2.236 0.298,-3.277 -10e-4,-9.101 -6.358,-16.929 -15.198,-18.836 z m 13.145,21.002 H 63.943 c 1.636,-4.941 6.215,-8.295 11.585,-8.295 h 0.009 l 0.146,0.006 c 0.482,0.045 0.875,-0.32 0.959,-0.781 1.155,-6.375 6.698,-11.002 13.18,-11.002 1.736,0 3.423,0.344 5.027,0.996 0.992,0.482 3.113,1.709 4.423,3.908 0.156,0.26 0.452,0.387 0.737,0.336 0.083,-0.016 0.165,-0.043 0.24,-0.09 0.338,-0.201 0.449,-0.639 0.248,-0.977 -1.127,-1.891 -2.729,-3.137 -3.949,-3.877 2.471,-9.156 10.782,-15.535 20.294,-15.535 9.14,0 17.202,5.844 19.965,14.49 -2.454,-0.016 -4.279,0.871 -4.388,0.916 -0.361,0.15 -0.537,0.566 -0.386,0.932 0.15,0.363 0.567,0.537 0.931,0.387 0.027,-0.012 2.541,-1.012 5.4,-0.539 7.964,1.721 13.694,8.76 13.694,16.959 0.001,0.696 -0.048,1.409 -0.149,2.166 z"
       id="path959"/>
  </g>
</svg>