<svg version="1.1" id="Layer_1" xmlns="http://www.w3.org/2000/svg" xmlns:xlink="http://www.w3.org/1999/xlink" x="0px" y="0px"
     viewBox="0 0 272 48" style="enable-background:new 0 0 272 48;" xml:space="preserve" width="226px" height="50px">
<style type="text/css">
    .st0{fill:#820000;}
    .st1{fill:#EC7A08;}
    .st2{fill:#0088CE;}
    .st3{fill:#3F9C35;}
    .st4{fill:#CC0000;}
    .st5{fill:#F0AB00;}
    .st6{fill:#00B9E4;}
    .st7{fill:#92D400;}
    .st8{fill:#231F20;}
</style>
<g>
    <g>
        <rect x="8.9" y="1.1" class="st0" width="7.4" height="7.4"/>
        <rect x="16.3" y="14" class="st1" width="14.8" height="7.4"/>
        <rect x="8.9" y="39.7" class="st2" width="14.8" height="7.4"/>
        <rect x="1.5" y="26.8" class="st3" width="7.4" height="7.4"/>
        <rect x="21.8" y="1.1" class="st0" width="14.8" height="7.4"/>
        <rect x="36.5" y="14" class="st1" width="7.4" height="7.4"/>
        <rect x="29.2" y="39.7" class="st2" width="7.4" height="7.4"/>
        <rect x="14.4" y="26.8" class="st3" width="14.8" height="7.4"/>
        <rect x="36.5" y="1.1" class="st4" width="22.2" height="7.4"/>
        <rect x="43.9" y="14" class="st5" width="22.2" height="7.4"/>
        <rect x="36.5" y="39.7" class="st6" width="14.8" height="7.4"/>
        <rect x="29.2" y="26.8" class="st7" width="29.6" height="7.4"/>
    </g>
    <g>
        <g>
            <g>
                <path class="st8" d="M99.3,40.4c-0.6,1.6-1.4,2.8-2.4,3.8s-2.3,1.7-3.7,2.2c-1.4,0.4-2.9,0.7-4.5,0.7h-5.9V22.9h6.4
                    c1.6,0,3.1,0.2,4.4,0.7c1.3,0.5,2.5,1.2,3.5,2.2c1,1,1.7,2.2,2.3,3.7c0.6,1.5,0.8,3.3,0.8,5.3C100.1,37,99.8,38.9,99.3,40.4z
                     M95.3,27.8c-1.4-1.6-3.6-2.4-6.3-2.4h-3.5v19.2H89c1.3,0,2.5-0.2,3.5-0.5c1-0.4,1.9-0.9,2.7-1.7c0.7-0.8,1.3-1.8,1.7-3
                    c0.4-1.2,0.6-2.7,0.6-4.4C97.5,31.8,96.7,29.5,95.3,27.8z"/>
                <path class="st8" d="M105.4,47.1V22.9H120v2.4h-11.9V33h6.9v2.4h-6.9v9.2h12.4v2.4H105.4z"/>
                <path class="st8" d="M135.2,47.1h-3l-8.2-24.1h2.8l5.4,16.5c0.1,0.4,0.2,0.8,0.4,1.2c0.1,0.5,0.3,0.9,0.4,1.4
                    c0.1,0.4,0.3,0.9,0.4,1.3c0.1,0.4,0.2,0.7,0.3,0.9c0.1-0.2,0.2-0.5,0.3-0.9c0.1-0.4,0.2-0.8,0.4-1.3c0.1-0.5,0.3-0.9,0.4-1.4
                    c0.1-0.5,0.3-0.9,0.4-1.2l5.4-16.4h2.8L135.2,47.1z"/>
                <path class="st8" d="M148.4,47.1V22.9H163v2.4h-11.9V33h6.9v2.4h-6.9v9.2h12.4v2.4H148.4z"/>
                <path class="st8" d="M168.7,47.1V22.9h2.7v21.7h11.9v2.4H168.7z"/>
                <path class="st8" d="M205.9,40c-0.5,1.5-1.2,2.8-2.1,3.9s-1.9,2-3.2,2.6c-1.2,0.6-2.6,0.9-4.1,0.9s-2.9-0.3-4.1-0.9
                    c-1.2-0.6-2.3-1.5-3.2-2.6c-0.9-1.1-1.5-2.4-2-3.9c-0.5-1.5-0.7-3.2-0.7-5c0-1.8,0.2-3.5,0.7-5c0.5-1.5,1.2-2.8,2-3.9
                    c0.9-1.1,1.9-2,3.2-2.6c1.2-0.6,2.6-0.9,4.1-0.9c1.5,0,2.9,0.3,4.1,0.9c1.2,0.6,2.3,1.5,3.2,2.6c0.9,1.1,1.6,2.4,2,3.9
                    c0.5,1.5,0.7,3.2,0.7,5C206.6,36.8,206.4,38.5,205.9,40z M203.3,30.9c-0.4-1.2-0.9-2.3-1.6-3.2c-0.7-0.9-1.4-1.6-2.3-2
                    c-0.9-0.5-1.9-0.7-2.9-0.7c-1,0-2,0.2-2.9,0.7c-0.9,0.5-1.6,1.1-2.3,2c-0.6,0.9-1.1,1.9-1.5,3.1c-0.4,1.2-0.6,2.6-0.6,4.1
                    s0.2,2.9,0.6,4.1c0.4,1.2,0.9,2.3,1.6,3.2c0.7,0.9,1.4,1.6,2.3,2c0.9,0.5,1.9,0.7,2.9,0.7c1,0,2-0.2,2.9-0.7
                    c0.9-0.5,1.7-1.1,2.3-2c0.6-0.9,1.1-1.9,1.5-3.1c0.4-1.2,0.6-2.6,0.6-4.1S203.7,32.2,203.3,30.9z"/>
                <path class="st8" d="M228,33.3c-0.4,0.9-1,1.7-1.7,2.3c-0.7,0.6-1.6,1.1-2.6,1.4c-1,0.3-2.1,0.5-3.3,0.5h-5.9v9.5h-2.7V22.9h9
                    c1.1,0,2.1,0.1,3,0.4c0.9,0.3,1.7,0.7,2.4,1.3c0.7,0.6,1.2,1.4,1.6,2.3c0.4,0.9,0.6,2,0.6,3.2C228.6,31.3,228.4,32.4,228,33.3z
                     M224.6,26.7c-0.9-0.8-2.1-1.3-3.8-1.3h-6.2v9.8h5.9c3.6,0,5.4-1.6,5.4-4.9C225.9,28.7,225.5,27.5,224.6,26.7z"/>
                <path class="st8" d="M233.2,47.1V22.9h14.6v2.4h-11.9V33h6.9v2.4h-6.9v9.2h12.4v2.4H233.2z"/>
                <path class="st8" d="M269,34.3c-1,1.1-2.4,1.9-4.1,2.3l5.3,10.5H267l-5.2-10.3h-5.7v10.3h-2.7V22.9h9.5c1.1,0,2,0.1,3,0.4
                    c0.9,0.3,1.7,0.7,2.4,1.3c0.7,0.6,1.2,1.3,1.6,2.1s0.6,1.9,0.6,3C270.5,31.7,270,33.2,269,34.3z M266.6,26.5
                    c-0.8-0.7-2.1-1.1-3.7-1.1h-6.8v9h6.4c1.8,0,3.1-0.4,4-1.1c0.9-0.7,1.3-1.9,1.3-3.4C267.8,28.4,267.4,27.3,266.6,26.5z"/>
            </g>
        </g>
        <g>
            <g>
                <path class="st8" d="M190.1,3.5c-0.1,0.3-0.3,0.5-0.4,0.7c-0.2,0.2-0.4,0.3-0.7,0.4c-0.3,0.1-0.5,0.1-0.8,0.1
                    c-0.3,0-0.6-0.1-0.8-0.1c-0.3-0.1-0.5-0.2-0.7-0.4c-0.2-0.2-0.3-0.4-0.4-0.7c-0.1-0.3-0.2-0.5-0.2-0.8c0-0.3,0.1-0.6,0.2-0.8
                    c0.1-0.3,0.3-0.5,0.4-0.7c0.2-0.2,0.4-0.3,0.7-0.4c0.3-0.1,0.5-0.1,0.8-0.1c0.3,0,0.6,0,0.8,0.1c0.3,0.1,0.5,0.2,0.7,0.4
                    c0.2,0.2,0.3,0.4,0.4,0.7c0.1,0.3,0.2,0.5,0.2,0.8C190.2,2.9,190.2,3.2,190.1,3.5z M189.8,1.9c-0.1-0.2-0.2-0.4-0.4-0.6
                    s-0.4-0.3-0.6-0.4c-0.2-0.1-0.5-0.1-0.7-0.1c-0.3,0-0.5,0-0.7,0.1c-0.2,0.1-0.4,0.2-0.6,0.4s-0.3,0.3-0.4,0.6
                    c-0.1,0.2-0.1,0.5-0.1,0.7c0,0.3,0,0.5,0.1,0.7c0.1,0.2,0.2,0.4,0.4,0.6s0.4,0.3,0.6,0.4c0.2,0.1,0.5,0.1,0.7,0.1
                    c0.3,0,0.5,0,0.7-0.1c0.2-0.1,0.4-0.2,0.6-0.4s0.3-0.3,0.4-0.6c0.1-0.2,0.1-0.5,0.1-0.7C190,2.4,189.9,2.1,189.8,1.9z
                     M188.9,2.5c-0.1,0.1-0.2,0.2-0.4,0.2l0.5,1h-0.4l-0.5-1h-0.5v1h-0.3V1.4h0.9c0.2,0,0.4,0.1,0.5,0.2c0.1,0.1,0.2,0.3,0.2,0.5
                    C189.1,2.3,189,2.4,188.9,2.5z M188.7,1.8c-0.1-0.1-0.2-0.1-0.3-0.1h-0.6v0.8h0.6c0.3,0,0.5-0.1,0.5-0.4
                    C188.8,2,188.7,1.9,188.7,1.8z"/>
            </g>
            <g>
                <path class="st8" d="M91.6,17.2l-2.6-5.4h-1.8v5.4h-4.4V1.1H90c3.8,0,6.3,1.4,6.3,5.2c0,2.4-1.1,3.9-2.9,4.7l3.2,6.1H91.6z
                     M89.8,4.7h-2.7v3.5h2.6c1.4,0,2-0.6,2-1.8C91.8,5.5,91.2,4.7,89.8,4.7z"/>
                <path class="st8" d="M99.2,17.2V1.1h12.3v3.7h-7.9V7h4.8v3.7h-4.8v2.8h8.1v3.7H99.2z"/>
                <path class="st8" d="M119.8,17.2h-5.2V1.1h5.6c5.1,0,8.3,1.9,8.3,8S125.5,17.2,119.8,17.2z M120.2,4.9H119v8.5h1
                    c2.8,0,3.9-1.1,3.9-4.3C123.9,6.2,122.9,4.9,120.2,4.9z"/>
                <path class="st8" d="M148.3,17.2v-6.3h-5v6.3h-4.6V1.1h4.6V7h5V1.1h4.5v16.1H148.3z"/>
                <path class="st8" d="M166.5,17.2l-0.9-2.8h-4.8l-0.9,2.8h-4.8L161,1.1h4.5l5.8,16.1H166.5z M164.2,9.8c-0.6-2.1-0.8-2.9-1-4
                    c-0.2,1.1-0.5,2-1,4l-0.3,1.1h2.7L164.2,9.8z"/>
                <path class="st8" d="M179.7,5v12.2h-4.5V5h-4.5V1.1h13.5V5H179.7z"/>
            </g>
        </g>
    </g>
</g>
</svg>
