<svg id="Layer_1" data-name="Layer 1" xmlns="http://www.w3.org/2000/svg" viewBox="0 0 128 128"><title>Untitled-2</title><path d="M64,117.25c-14.41,0-20.14-3-22.28-4.84l-0.89-.77,0.36-5.84-1.37-1c-5.4-4-10.26-8.22-10.26-16.58v-0.1l1.18-14.74c0.75-9.13,2.14-26.13,25.3-26.13H72c22.72,0,24.39,17,25.29,26.08l1.17,14.88c0,8.37-4.7,12.5-10.37,16.66l-1.39,1L87,111.84l-1,.77C83.81,114.35,78,117.25,64,117.25ZM64,44A16.64,16.64,0,1,1,80.64,27.39,16.66,16.66,0,0,1,64,44ZM49.75,27.39A14.25,14.25,0,1,0,64,13.15,14.26,14.26,0,0,0,49.75,27.39ZM96,88.21L94.88,73.57c-1-10.34-3.14-23.92-22.9-23.92H56c-19.77,0-22,12.93-22.91,23.92L32,88.21c0,7,3.75,10.59,9.28,14.65l2.28-31.64a1,1,0,1,1,2.1,0l-2.29,39.07a0.94,0.94,0,0,1-.05.29c1.52,1.29,6.59,4.27,20.73,4.27,13.64,0,18.83-2.78,20.56-4.13L82.27,71.22a1.05,1.05,0,1,1,2.1,0l2.28,31.72C92.23,98.85,96,95.31,96,88.21h0Z"/><path d="M64.22,56.23h0l-1.44,0a1.18,1.18,0,0,1-.85-0.39c-1.91-2.13-3.27-6.75-3.32-6.94a1.18,1.18,0,1,1,2.27-.66,22.21,22.21,0,0,0,2.51,5.65l0.82,0,0.68-.06a33.6,33.6,0,0,0,2.28-5.52,1.18,1.18,0,0,1,2.31.5,40.25,40.25,0,0,1-2.77,6.68,1.18,1.18,0,0,1-.94.64l-1.41.13H64.22Z"/><path d="M64,111.72a1.18,1.18,0,0,1-.78-0.29L57.9,106.8a1.18,1.18,0,0,1-.4-1L61,55a1.18,1.18,0,0,1,2.36.16L59.9,105.4,64,109l4.1-3.56L64.68,54.53a1.18,1.18,0,0,1,1.1-1.26A1.16,1.16,0,0,1,67,54.37l3.47,51.46a1.18,1.18,0,0,1-.4,1l-5.32,4.62A1.18,1.18,0,0,1,64,111.72Z"/></svg>