<svg id="Layer_1" data-name="Layer 1" xmlns="http://www.w3.org/2000/svg" viewBox="0 0 128 128"><title>Untitled-2</title><path d="M100.45,100.52L85.16,68.39A1.26,1.26,0,0,0,85,68.19L85.26,67a2.67,2.67,0,0,1,1.51-1.68l5.93-1.93a3.3,3.3,0,0,0,2.11-4.14l-1.92-5.94a2.68,2.68,0,0,1,.47-2.21l4.16-4.64a3.3,3.3,0,0,0-.25-4.64l-4.63-4.18a2.67,2.67,0,0,1-.7-2.15l1.29-6.1a3.3,3.3,0,0,0-2.53-3.9l-6.1-1.3a2.67,2.67,0,0,1-1.68-1.51L81,16.75a3.29,3.29,0,0,0-4.14-2.11l-5.93,1.92a2.81,2.81,0,0,1-2.21-.47l-4.64-4.17a3.4,3.4,0,0,0-4.64.25L55.25,16.8a2.79,2.79,0,0,1-2.15.7L47,16.21a3.34,3.34,0,0,0-3.9,2.53l-1.3,6.1a2.67,2.67,0,0,1-1.51,1.68l-5.93,1.94a3.3,3.3,0,0,0-2.11,4.14l1.92,5.93a2.67,2.67,0,0,1-.47,2.21l-4.16,4.64A3.3,3.3,0,0,0,29.78,50l4.63,4.18a2.67,2.67,0,0,1,.7,2.15l-1.29,6.1a3.3,3.3,0,0,0,2.53,3.9l6.1,1.31a2.32,2.32,0,0,1,.95.53L27.71,100.5c-0.56,1.14-1.13,2.32-.39,3.24s2.05,0.59,2.9.37l12-2a10.74,10.74,0,0,1,1.12-.15c0.12,0.16.33,0.53,0.44,0.71l7,11.78c0.56,1.14,1.3,2.32,2.56,2.32h0c1.39,0,2.12-1.5,2.4-2.06l8.4-17,8.34,17c0.45,0.91,1.06,2.16,2.25,2.16h0c1.16,0,1.76-1.17,2.23-2.15L84.31,103c0.17-.24.49-0.68,0.49-0.72a5.19,5.19,0,0,1,1,.12l12.54,1.21c0.91,0.14,1.84.28,2.42-.52S100.86,101.3,100.45,100.52ZM43,65.19l-6.1-1.31A0.78,0.78,0,0,1,36.29,63l1.29-6.1a5.14,5.14,0,0,0-1.48-4.54l-4.63-4.18a0.78,0.78,0,0,1-.06-1.09l4.16-4.64a5.14,5.14,0,0,0,1-4.67l-1.92-5.93a0.78,0.78,0,0,1,.49-1l5.93-1.94a5.14,5.14,0,0,0,3.19-3.55l1.3-6.1a0.79,0.79,0,0,1,.91-0.59L52.58,20a5.25,5.25,0,0,0,4.54-1.48l4.18-4.63a0.78,0.78,0,0,1,1.09-.06L67,18a5.18,5.18,0,0,0,3.34,1.19,4.28,4.28,0,0,0,1.33-.2L77.63,17a0.79,0.79,0,0,1,1,.49l1.94,5.93a5.14,5.14,0,0,0,3.55,3.19l6.1,1.3a0.78,0.78,0,0,1,.59.91L89.48,35A5.14,5.14,0,0,0,91,39.51l4.63,4.18a0.78,0.78,0,0,1,.06,1.09l-4.16,4.64a5.14,5.14,0,0,0-1,4.67L92.41,60a0.78,0.78,0,0,1-.5,1L86,62.93a5.14,5.14,0,0,0-3.19,3.55l-1.3,6.1a0.78,0.78,0,0,1-.91.59l-6.1-1.29a5.25,5.25,0,0,0-4.54,1.48L65.76,78a0.78,0.78,0,0,1-1.09.06L60,73.87a5.18,5.18,0,0,0-3.34-1.19,4.28,4.28,0,0,0-1.33.2L49.43,74.8a0.79,0.79,0,0,1-1-.49l-1.94-5.93a4.13,4.13,0,0,0-.39-0.83,1.22,1.22,0,0,0-.47-0.66A5.06,5.06,0,0,0,43,65.19Zm10.48,48.42-0.16.31c-0.09-.16-0.21-0.37-0.35-0.65l-7-11.86c-1.16-2-1.86-2.15-4.13-1.77l-11.84,2v0l14.8-30.49,1.3,4a3.29,3.29,0,0,0,4.14,2.11l5.93-1.92a2.79,2.79,0,0,1,2.21.47L63,79.92a3.3,3.3,0,0,0,4.64-.25L71.81,75a2.33,2.33,0,0,1,.94-0.55ZM86.54,100l-0.33-.05c-2.16-.34-2.68-0.14-4,1.68l-7.46,11.87-0.07.12v0L65.51,94.86l10-20.2,4.6,1A3.35,3.35,0,0,0,84,73.1l0.21-1L97.93,101Z"/><path d="M64.11,67.62A22.37,22.37,0,1,0,41.74,45.25,22.39,22.39,0,0,0,64.11,67.62Zm0-42.85A20.48,20.48,0,1,1,43.63,45.25,20.5,20.5,0,0,1,64.11,24.77Z"/><path d="M64.11,63.93A18.68,18.68,0,1,0,45.43,45.25,18.7,18.7,0,0,0,64.11,63.93Zm0-35.79A17.11,17.11,0,1,1,47,45.25,17.13,17.13,0,0,1,64.11,28.14Z"/></svg>