<svg id="Layer_1" data-name="Layer 1" xmlns="http://www.w3.org/2000/svg" viewBox="0 0 128 128"><title>Untitled-2</title><path d="M28.52,53.34A10.54,10.54,0,1,0,18,42.8,10.55,10.55,0,0,0,28.52,53.34Zm0-19.56a9,9,0,1,1-9,9A9,9,0,0,1,28.52,33.77Z"/><circle cx="28.43" cy="66.37" r="1.03"/><circle cx="25.02" cy="65.34" r="1.03"/><circle cx="31.74" cy="65.34" r="1.03"/><circle cx="33.79" cy="62.76" r="1.03"/><circle cx="35.09" cy="59.78" r="1.03"/><circle cx="22.97" cy="62.76" r="1.03"/><circle cx="21.95" cy="59.78" r="1.03"/><path d="M119.89,25.62l-63-.06A1.41,1.41,0,0,0,55.45,27h0l0,29.62h2.82l0-28.21,60.2,0.05,0,71.17H58.37l0-32.55c-1.19.18-1.88,1.37-2.82,2.05l0,31.91A1.41,1.41,0,0,0,57,102.43h62.91a1.41,1.41,0,0,0,1.41-1.41l0-74A1.41,1.41,0,0,0,119.89,25.62Z"/><path d="M115.39,95.34h-54a0.9,0.9,0,0,1,0-1.8h54A0.9,0.9,0,1,1,115.39,95.34Z"/><path d="M72.88,55.38H23.47c-14.67,0-15.55,10.76-16,16.55L6.7,81.26v0.06c0,5.29,3.07,8,6.5,10.5l0.87,0.64-0.23,3.7,0.56,0.48c1.35,1.15,5,3.07,14.11,3.07,8.87,0,12.55-1.84,14-2.93l0.63-.49L41.59,72.89h0l31-8.26c3.59-1,4.34-3.14,4.34-4.71A4.51,4.51,0,0,0,72.88,55.38Zm-0.67,7.77L41.48,71.33l-0.06-.77a0.67,0.67,0,1,0-1.33,0l1.45,25c-1.1.86-4.38,2.61-13,2.61-9,0-12.16-1.89-13.13-2.71a0.59,0.59,0,0,0,0-.19l1.45-24.75a0.67,0.67,0,1,0-1.33,0l-1.45,20C10.6,88,8.22,85.79,8.22,81.32L9,72c0.57-7,2-15.15,14.51-15.15H72.84a3,3,0,0,1,2.58,3C75.43,60.48,75.43,62.21,72.21,63.15Z"/></svg>