<svg id="Layer_1" data-name="Layer 1" xmlns="http://www.w3.org/2000/svg" viewBox="0 0 128 128"><title>Untitled-2</title><path d="M82.53,34.45c-9.94-2.1-14.6-2.83-16.67-3.07H62c-2.25.27-23.39,4.54-23.39,4.54l-8.56,1.93,0,14.29v3.1l0,12.55a38.47,38.47,0,0,0,4.73,16.06l1.36,2.26L37.5,88a36.23,36.23,0,0,0,5.07,5.53l2.09,1.72c0.38,0.29.79,0.57,1.18,0.85l2.36,1.55A48,48,0,0,0,64,103.56c9.14-1.29,15.8-4.48,20.67-8.45l1.84-1.6a37,37,0,0,0,5.27-6.35l1.36-2.28c4.36-7.14,4.74-17,4.74-17V46l2-3.48v3.73h0l0,0V67.9a39,39,0,0,1-1.5,9.32h0c-2.82,10.07-10.92,25.08-34.24,28.31H64l-0.19,0C30.3,99.11,28.24,71,28.12,67.83V37.07a1,1,0,0,1,.77-1c21.69-5,30-6.34,33-6.69h4c2.23,0.25,7.12,1,17.62,3.24Z"/><path d="M64,15.18a4.37,4.37,0,0,1,.54,0,38.05,38.05,0,0,1,5.2.59l-0.09,0a38.62,38.62,0,0,0-5.1-.57l-0.55,0-0.54,0c-1.85,0-9.32.76-38.92,7.64,29.6-6.88,37.07-7.64,38.91-7.64A4.33,4.33,0,0,1,64,15.18Z"/><path d="M83.07,18.27l1,0.21Z"/><path d="M70.43,15.85c2.8,0.45,6.79,1.19,12.49,2.38C77.23,17,73.23,16.3,70.43,15.85Z"/><path d="M23,76.84c3.12,11.6,12.52,31,40.79,36h0C35.52,107.82,26.11,88.44,23,76.84Z"/><path d="M22.46,23.28h0a1.31,1.31,0,0,0-1,1.28h0A1.31,1.31,0,0,1,22.46,23.28Z"/><path d="M94.32,19.75L64.25,70.4a1.28,1.28,0,0,1-2.28.19L47.79,53.32A4.76,4.76,0,0,0,40.73,53L38,55.74a5.77,5.77,0,0,0-.47,7.41L57.43,88.81a9.78,9.78,0,0,0,6.9,3.51,8.28,8.28,0,0,0,6.55-4L104.38,29.2h0l1.5-2.66a5.18,5.18,0,0,0-1.87-7L101.33,18a5.11,5.11,0,0,0-2.59-.71A5.18,5.18,0,0,0,94.32,19.75ZM100,20.23l2.68,1.58a2.55,2.55,0,0,1,.92,3.44l-35,61.8a5.67,5.67,0,0,1-4.26,2.63,7.19,7.19,0,0,1-4.82-2.49L39.64,61.54a3.11,3.11,0,0,1,.25-3.94l2.7-2.7a2.19,2.19,0,0,1,1.55-.66,2.15,2.15,0,0,1,1.65.79L60,72.29a4.1,4.1,0,0,0,3.12,1.56,4,4,0,0,0,3.41-2.09L96.58,21.1A2.59,2.59,0,0,1,100,20.23Z"/><path d="M104,19.55a5.18,5.18,0,0,1,1.87,7l-1.5,2.66h0l1.51-2.66a5.19,5.19,0,0,0-1.87-7L101.33,18a5.1,5.1,0,0,0-2.59-.71h0a5.11,5.11,0,0,1,2.59.71Z"/><path d="M106.55,30.72V67.9c0,0.41-.49,39.77-42.39,44.93h0c41.91-5.16,42.39-44.53,42.39-44.93V30.72h0Z"/><path d="M82.92,18.23l0.15,0Z"/><path d="M22.47,23.28h0l2.08-.48Z"/><path d="M64.16,112.83c41.91-5.15,42.39-44.52,42.39-44.93V30.72l-2.63,4.64V67.9c0,0.37-.45,37.32-39.88,42.3-38.49-6.93-39.92-40.89-40-42.3V25.61c33-7.7,38.8-7.88,39.57-7.82a1.3,1.3,0,0,0,.71,0c0.65,0,4.82.08,25.34,4.59L91.11,20h0c-2.58-.57-4.91-1.07-7-1.52l-1-.21-0.15,0c-5.7-1.19-9.69-1.93-12.49-2.38l-0.67-.11h0a38.05,38.05,0,0,0-5.2-.59,4.37,4.37,0,0,0-.54,0,4.33,4.33,0,0,0-.54,0c-1.84,0-9.32.76-38.91,7.64l-2.08.49a1.31,1.31,0,0,0-1,1.28V67.94A44,44,0,0,0,23,76.84c3.12,11.6,12.53,31,40.78,36h0.38Z"/><path d="M91.11,20h0c-2.58-.57-4.91-1.07-7-1.52,2.11,0.45,4.44.95,7,1.52h0Z"/><path d="M70.43,15.85l-0.69-.11h0Z"/><path d="M21.45,24.56h0V67.94A43.86,43.86,0,0,0,23,76.84a44,44,0,0,1-1.54-8.9V24.56Z"/><path d="M64,29.41H61.93c-3,.35-11.36,1.7-33,6.69a1,1,0,0,0-.77,1V67.83c0.12,3.18,2.18,31.27,35.69,37.7l0.19,0h0.13c23.32-3.23,31.42-18.23,34.24-28.31h0a39,39,0,0,0,1.5-9.32V46.27l0,0h0V42.49l-2,3.48V67.9s-0.38,9.84-4.74,17l-1.36,2.28a37,37,0,0,1-5.27,6.35l-1.84,1.6c-4.87,4-11.54,7.15-20.67,8.45a48,48,0,0,1-15.82-5.88l-2.36-1.55c-0.4-.28-0.81-0.56-1.18-0.85l-2.09-1.72A36.23,36.23,0,0,1,37.5,88l-1.32-1.92-1.36-2.26A38.47,38.47,0,0,1,30.09,67.8l0-12.55v-3.1l0-14.29,8.56-1.93S59.8,31.65,62,31.38h3.81c2.07,0.24,6.74,1,16.67,3.07l1.06-1.79c-10.5-2.23-15.39-3-17.62-3.24H64Z"/></svg>