<svg id="Layer_1" data-name="Layer 1" xmlns="http://www.w3.org/2000/svg" viewBox="0 0 24 24"><defs><style>.cls-1{fill:#ec7a08;}</style></defs><title>Warning</title><rect class="cls-1" x="10.61" y="8.75" width="2.79" height="6.4" rx="0.52" ry="0.52"/><rect class="cls-1" x="10.61" y="15.97" width="2.79" height="2.44" rx="0.52" ry="0.52"/><path class="cls-1" d="M22.92,17.93,14.44,3.25a2.82,2.82,0,0,0-4.89,0L1.08,17.93a2.82,2.82,0,0,0,2.44,4.23h17a2.82,2.82,0,0,0,2.44-4.23Zm-2.41,1.43s0,0,0,0h-17s0,0,0,0,0,0,0,0L12,4.64s0,0,0,0,0,0,0,0l8.48,14.68S20.52,19.34,20.51,19.36Z"/></svg>