<svg id="Layer_1" data-name="Layer 1" xmlns="http://www.w3.org/2000/svg" viewBox="0 0 24 24"><defs><style>.cls-1{fill:#a43d43;}</style></defs><title>Error</title><path class="cls-1" d="M20.8,6.67,17.33,3.2A4.05,4.05,0,0,0,14.45,2H9.55A4.05,4.05,0,0,0,6.67,3.2L3.2,6.67A4.05,4.05,0,0,0,2,9.55v4.9A4.05,4.05,0,0,0,3.2,17.33L6.67,20.8A4.05,4.05,0,0,0,9.55,22h4.9a4.05,4.05,0,0,0,2.88-1.19l3.47-3.47A4.05,4.05,0,0,0,22,14.45V9.55A4.05,4.05,0,0,0,20.8,6.67Zm-1.59,7.79a1.29,1.29,0,0,1-.38.91l-3.47,3.47a1.29,1.29,0,0,1-.91.38H9.55a1.29,1.29,0,0,1-.91-.38L5.17,15.37a1.29,1.29,0,0,1-.38-.91V9.55a1.29,1.29,0,0,1,.38-.91L8.63,5.17a1.29,1.29,0,0,1,.91-.38h4.9a1.29,1.29,0,0,1,.91.38l3.47,3.47a1.29,1.29,0,0,1,.38.91Z"/><path class="cls-1" d="M16.26,8.2l-.46-.46a1.07,1.07,0,0,0-1.51,0L12,10,9.71,7.74a1.07,1.07,0,0,0-1.51,0l-.46.46a1.07,1.07,0,0,0,0,1.51L10,12,7.74,14.29a1.07,1.07,0,0,0,0,1.51l.46.46a1.07,1.07,0,0,0,1.51,0L12,14l2.29,2.29a1.07,1.07,0,0,0,1.51,0l.46-.46a1.07,1.07,0,0,0,0-1.51L14,12l2.29-2.29A1.07,1.07,0,0,0,16.26,8.2Z"/></svg>