<?xml version="1.0" encoding="utf-8"?>
<!-- Generator: Adobe Illustrator 21.1.0, SVG Export Plug-In . SVG Version: 6.00 Build 0)  -->
<svg version="1.1" xmlns="http://www.w3.org/2000/svg" xmlns:xlink="http://www.w3.org/1999/xlink" x="0px" y="0px"
	 viewBox="0 0 72 72" style="enable-background:new 0 0 72 72;" xml:space="preserve">
<style type="text/css">
	.st0{fill:#999999;}
</style>
<g id="singleperson">
	<path id="person" class="st0" d="M36,35c6.4,0,11.5-5.2,11.5-11.5S42.4,12,36,12s-11.5,5.2-11.5,11.5S29.6,35,36,35z M53.8,42.1
		c-2.5-2.3-6.1-4.6-9.6-4.6H27.9c-3.5,0-7.1,2.4-9.6,4.6c-2.8,2.5-3.4,6-3.4,9.6c0,6.9,4.3,8.3,4.3,8.3h33.8c0,0,4.3-1.4,4.3-8.3
		C57.2,48.1,56.6,44.6,53.8,42.1z"/>
</g>
<g id="multiplepeople">
</g>
</svg>
