<?xml version="1.0" encoding="utf-8"?>
<!-- Generator: Adobe Illustrator 21.1.0, SVG Export Plug-In . SVG Version: 6.00 Build 0)  -->
<svg version="1.1" xmlns="http://www.w3.org/2000/svg" xmlns:xlink="http://www.w3.org/1999/xlink" x="0px" y="0px"
	 viewBox="0 0 72 72" style="enable-background:new 0 0 72 72;" xml:space="preserve">
<style type="text/css">
	.st0{fill:#999999;}
</style>
<g id="singleperson">
</g>
<g id="multiplepeople">
	<path id="people" class="st0" d="M36,34.5c6,0,10.9-5,10.9-11.1c0-6.1-4.9-11.1-10.9-11.1s-10.9,5-10.9,11.1
		C25.1,29.5,30,34.5,36,34.5z M16.2,34.9c3.3,0,6.2-2,7.4-5.1c-0.2-0.3-0.3-0.6-0.4-1c-0.7-1.7-1.1-3.6-1.1-5.5c0-0.7,0-1.3,0.1-2
		c-1.5-1.8-3.7-2.8-6-2.8c-4.4,0-8,3.7-8,8.2S11.8,34.9,16.2,34.9z M55.8,34.9c4.4,0,8-3.7,8-8.2s-3.6-8.2-8-8.2c-2.3,0-4.5,1-6,2.8
		c0.1,0.7,0.1,1.3,0.1,2c0,1.9-0.4,3.8-1.1,5.5c-0.1,0.3-0.3,0.6-0.4,1C49.5,32.9,52.5,34.9,55.8,34.9z M21.1,40L21.1,40L21.1,40
		L21.1,40z M19.9,37.9h-9.7c-2.7,0-5.4,2.1-6.8,3.4C1.7,42.8,1,44.8,1,48.1c0,4.3,2.3,5.5,2.8,5.7h8.8c-0.1-0.6-0.1-1.3-0.1-1.9
		c0-2.4,0.2-4.3,0.8-6c0.3-1.1,0.8-2,1.3-2.9c0.6-1,1.3-1.8,2.2-2.6C17.8,39.4,18.8,38.6,19.9,37.9z M68.6,41.3L68.6,41.3
		c-1.4-1.3-4.1-3.4-6.8-3.4h-9.7c1.1,0.7,2.1,1.5,3.1,2.5c0.8,0.8,1.6,1.6,2.2,2.6c0.5,0.9,1,1.9,1.3,2.9c0.5,1.7,0.8,3.6,0.8,6
		c0,0.7,0,1.3-0.1,1.9h8.8c0.4-0.2,2.8-1.4,2.8-5.7C71,44.8,70.3,42.8,68.6,41.3z M56.6,51.9c0-0.2,0-0.4,0-0.7v0c0-0.3,0-0.6,0-1
		l0-0.4c0-0.2,0-0.4-0.1-0.6c-0.1-0.5-0.1-0.9-0.2-1.2c-0.4-2.1-1.2-3.7-2.5-5c-0.2-0.2-0.3-0.3-0.5-0.5l-0.1-0.1l-0.1-0.1l-0.3-0.3
		l-0.1-0.1l-2.4-1.8c-0.2-0.1-0.7-0.4-0.9-0.5l-2.4-1.1c-1-0.3-2-0.5-2.9-0.5H27.9c-0.9,0-1.8,0.2-2.8,0.5l-2.4,1.1L19.4,42
		l-0.7,0.6c-1.1,0.9-1.8,2.1-2.3,3.4c-0.1,0.3-0.2,0.6-0.3,1l0,0.1c-0.4,1.3-0.5,2.8-0.5,4.7l0.1,1.3l0.1,1.1
		c0.7,4.1,3.2,5.3,3.6,5.5h33.4c0.5-0.2,2.9-1.4,3.6-5.5l0.1-1L56.6,51.9z"/>
</g>
</svg>
