<?xml version="1.0" encoding="utf-8"?>
<!-- Generator: Adobe Illustrator 21.1.0, SVG Export Plug-In . SVG Version: 6.00 Build 0)  -->
<svg version="1.1" id="Layer_1" xmlns="http://www.w3.org/2000/svg" xmlns:xlink="http://www.w3.org/1999/xlink" x="0px" y="0px"
	 viewBox="0 0 64 64" style="enable-background:new 0 0 64 64;" xml:space="preserve">
<path fill="#656565" d="M32.1,12.6c-4.1,4.1-5.3,10.1-3.3,15.4L8.4,48.5c-1.4,1.4-1.7,3.7-0.6,5.4c0.1,0.2,0.4,0.4,0.6,0.4c0.1,0,0.3,0,0.4-0.1
	c-0.1,0.4,0,0.8,0.4,1c1.4,0.6,3.7,0.3,5.2-0.3c2.1-0.8,2.5-2.4,2.8-3.7c0.1-0.4,0.3-1,0.4-1.1c0.1-0.1,0.4-0.1,1,0
	c0.6,0.1,1.5,0.4,2.3-0.4c0.6-0.6,0.8-1.5,0.9-2.3c0.1-0.7,0.2-1.3,0.6-1.7c0.2-0.2,1.1-0.4,1.7-0.4c1.1-0.1,2.6-0.4,3.6-1.3
	c1.1-1.1,1.1-2.5,1.2-3.6c0-0.4,0-1,0.2-1.2c0.1,0,0.4,0,0.6,0c1.3,0,3.7,0.1,6.3-3.2c5.6,2.8,12.3,1.7,16.7-2.7
	c5.7-5.7,5.7-14.8,0-20.5C47,7,37.8,7,32.1,12.6z M49.1,20.4c-1.1,1.1-3,1.2-4.2,0c-1.1-1.1-1.2-3,0-4.2c1.1-1.1,3-1.2,4.2,0
	C50.2,17.3,50.3,19.2,49.1,20.4z"/>
</svg>
