<svg version="1" id="Layer_1" xmlns="http://www.w3.org/2000/svg" viewBox="0 0 3138.1 2353.6"><style>.st0,.st1{fill:none;stroke:#FFF;stroke-miterlimit:10}.st1{stroke-dasharray:12.0344,5.8166}.st2{stroke-dasharray:12.0085,5.8041}.st2,.st3{fill:none;stroke:#FFF;stroke-miterlimit:10}.st3{stroke-dasharray:12.0191,5.8093}.st4{stroke-dasharray:12.016,5.8077}.st4,.st5{fill:none;stroke:#FFF;stroke-miterlimit:10}.st5{stroke-dasharray:11.9672,5.7842}.st6{stroke-dasharray:12.013,5.8063}.st6,.st7{fill:none;stroke:#FFF;stroke-miterlimit:10}.st7{stroke-dasharray:11.9569,5.7792}.st8{stroke-dasharray:12.011,5.8053}.st8,.st9{fill:none;stroke:#FFF;stroke-miterlimit:10}.st9{stroke-dasharray:11.9537,5.7776}.st10{stroke-dasharray:12.0247,5.8119}.st10,.st11{fill:none;stroke:#FFF;stroke-miterlimit:10}.st11{stroke-dasharray:12.0441,5.8213}.st12{stroke-dasharray:11.9678,5.7844}.st12,.st13{fill:none;stroke:#FFF;stroke-miterlimit:10}.st13{stroke-dasharray:11.9868,5.7936}.st14{stroke-dasharray:12.0187,5.8091}.st14,.st15{fill:none;stroke:#FFF;stroke-miterlimit:10}.st15{stroke-dasharray:12.0373,5.818}.st16{stroke-dasharray:12.0329,5.8159}.st16,.st17{fill:none;stroke:#FFF;stroke-miterlimit:10}.st17{stroke-dasharray:12,5.8}</style><path class="st0" d="M633.5 1753.9l5.2-3"/><path class="st1" d="M643.8 1748L2558.2 642.6"/><path class="st0" d="M2560.7 641.2l5.2-3M656.5 1785.7l5.2-3"/><path class="st2" d="M666.7 1779.8L2499.9 721.4"/><path class="st0" d="M2502.4 719.9l5.2-3M614.4 1856.4l5.2-3"/><path class="st3" d="M624.6 1850.5L2583 719.8"/><path class="st0" d="M2585.5 718.4l5.2-3M583.2 1176.9l5.2-3"/><path class="st4" d="M593.4 1171L2443.2 103"/><path class="st0" d="M2445.7 101.5l5.2-3M409.6 1522.1l5.2-3"/><path class="st5" d="M419.8 1516.2L2492.7 319.5"/><path class="st0" d="M2495.2 318l5.2-3M460.4 1501.3l5.2-3"/><path class="st6" d="M470.7 1495.4L2428 365.3"/><path class="st0" d="M2430.5 363.9l5.2-3M667.3 1671.2l5.2-3"/><path class="st7" d="M677.5 1665.3L2472.1 629.2"/><path class="st0" d="M2474.6 627.7l5.2-3"/><g><path class="st0" d="M541.5 1632.2l5.2-3"/><path class="st8" d="M551.8 1626.3L2585.9 451.9"/><path class="st0" d="M2588.4 450.4l5.2-3"/></g><g><path class="st0" d="M568.9 1474.7l5.2-3"/><path class="st9" d="M579.1 1468.8l1886.3-1089"/><path class="st0" d="M2467.9 378.3l5.2-3"/></g><g><path class="st0" d="M476.5 1447.1l5.2-3"/><path class="st10" d="M486.7 1441.1L2600.4 220.8"/><path class="st0" d="M2602.9 219.3l5.2-3"/></g><g><path class="st0" d="M868.7 162.8l5.2 3"/><path class="st11" d="M878.9 168.7L2764 1257"/><path class="st0" d="M2766.5 1258.5l5.2 3"/></g><g><path class="st0" d="M955.9 39.9l5.2 3"/><path class="st12" d="M966.1 45.8l1581 912.8"/><path class="st0" d="M2549.6 960l5.2 3"/></g><g><path class="st0" d="M552.1 484.7l5.2 3"/><path class="st13" d="M562.4 490.6l1598.9 923.1"/><path class="st0" d="M2163.8 1415.1l5.2 3"/></g><g><path class="st0" d="M179 693.8l5.2 3"/><path class="st14" d="M189.3 699.7l2313.3 1335.6"/><path class="st0" d="M2505.1 2036.8l5.2 3"/></g><g><path class="st0" d="M533.3 1086.3l5.2 3"/><path class="st15" d="M543.5 1092.2l2054.1 1186"/><path class="st0" d="M2600.1 2279.6l5.2 3"/></g><g><path class="st0" d="M597.6 224.7l5.2 3"/><path class="st16" d="M607.9 230.6l2207.9 1274.7"/><path class="st0" d="M2818.3 1506.8l5.2 3"/></g><path class="st17" d="M1814.9 135.5v2049.2M1586.9 258.5v1617.2M1010.8 879.6v846.1"/></svg>