<?xml version="1.0" standalone="no"?>
<!DOCTYPE svg PUBLIC "-//W3C//DTD SVG 20010904//EN"
 "http://www.w3.org/TR/2001/REC-SVG-20010904/DTD/svg10.dtd">
<svg version="1.0" xmlns="http://www.w3.org/2000/svg"
 width="700.000000pt" height="700.000000pt" viewBox="0 0 700.000000 700.000000"
 preserveAspectRatio="xMidYMid meet">
<metadata>
Created by potrace 1.11, written by Peter Selinger 2001-2013
</metadata>
<g transform="translate(0.000000,700.000000) scale(0.100000,-0.100000)"
fill="#000000" stroke="none">
<path d="M0 3500 l0 -3500 3500 0 3500 0 0 3500 0 3500 -3500 0 -3500 0 0
-3500z m2170 1470 l0 -280 -285 0 -285 0 0 273 c0 151 3 277 7 280 3 4 132 7
285 7 l278 0 0 -280z m3228 -2 l2 -278 -1410 0 -1410 0 0 280 0 280 1408 -2
1407 -3 3 -277z m-2108 -978 l0 -280 -560 0 -560 0 0 280 0 280 560 0 560 0 0
-280z m2670 0 l0 -280 -1125 0 -1125 0 0 280 0 280 1125 0 1125 0 0 -280z
m-4360 -980 l0 -280 -280 0 -280 0 0 280 0 280 280 0 280 0 0 -280z m3800 0
l0 -280 -1690 0 -1690 0 0 280 0 280 1690 0 1690 0 0 -280z m-2670 -980 l0
-280 -562 2 -563 3 -3 278 -2 277 565 0 565 0 0 -280z m2100 0 l0 -280 -840 0
-840 0 0 280 0 280 840 0 840 0 0 -280z"/>
</g>
</svg>
