<?xml version="1.0" encoding="UTF-8" standalone="no"?>
<svg width="314px" height="343px" viewBox="0 0 314 343" version="1.1" xmlns="http://www.w3.org/2000/svg" xmlns:xlink="http://www.w3.org/1999/xlink" xmlns:sketch="http://www.bohemiancoding.com/sketch/ns">
    <!-- Generator: Sketch 3.3.2 (12043) - http://www.bohemiancoding.com/sketch -->
    <title>RH_atomic_bug_2cBlue_text_rgb</title>
    <desc>Created with Sketch.</desc>
    <defs></defs>
    <g id="Page-1" stroke="none" stroke-width="1" fill="none" fill-rule="evenodd" sketch:type="MSPage">
        <g id="RH_atomic_bug_2cBlue_text_rgb" sketch:type="MSLayerGroup">
            <g id="Group" sketch:type="MSShapeGroup">
                <g id="Shape" fill="#00B9E4">
                    <path d="M134.9,195.7 C134.2,196.2 133.6,196.9 133.1,197.3 C128.4,202 123.9,206.3 119.6,210.3 C122.2,211.8 124.2,214.3 125.2,217.2 C130.3,212.6 135.6,207.7 141,202.3 C142.2,201.2 143,198.2 140.8,196.1 C139.2,194.7 136.6,194.4 134.9,195.7 L134.9,195.7 Z"></path>
                    <path d="M82.3,83.7 C83.6,85.7 86.5,86.6 88.6,85.1 C90.9,83.6 90.4,80.6 89.8,79.6 C71.4,48.3 63.1,24.4 70.4,18.7 C74.9,15.2 84.7,19.1 97.8,28.7 C99.1,24.6 102.1,21.2 105.9,19.2 C84.9,3.5 68.3,-3.1 60.5,3 C49.6,11.5 58.8,42.8 81.5,82.5 C81.8,82.9 82.1,83.3 82.3,83.7 L82.3,83.7 Z"></path>
                    <path d="M233.5,170.1 C239,169.4 244.2,168.5 249.2,167.6 L249.2,167.6 C250.6,166.3 251.5,164.4 251.5,162.3 C251.5,158.9 249.1,156.1 246,155.4 L246,155.4 C239.9,156.4 233.3,157.3 226.3,158.1 L226.3,158.1 C215.5,140.5 202.3,121.5 187.3,102.4 C182.9,96.4 173.4,85.3 165.9,76.8 L166,76.7 C202.6,36 234.9,11.2 244.2,18.5 C251.4,24.1 243.2,48 224.8,79.4 C224.2,80.4 223.7,83.4 226,84.9 C228.2,86.4 231.1,85.6 232.3,83.5 C232.5,83.2 232.8,82.7 233,82.4 C255.7,42.7 264.9,11.4 254,2.9 C240.7,-7.5 201.5,19.1 159,65 C159,65 158.4,65.7 157.2,67 C156.1,65.8 155.4,65 155.4,65 C146.2,55.1 137.1,46 128.5,38.1 L128.5,38.1 C128.4,38 128.4,38 128.3,37.9 C127.9,37.8 127.5,37.8 127.1,37.8 C123.1,37.8 119.9,41 119.9,45 C119.9,46 120.1,47 120.5,47.8 L120.5,47.8 C129.3,56.1 138.7,65.8 148.5,76.6 L148.6,76.7 C141.1,85.2 131.6,96.3 127.2,102.3 C112.2,121.4 99,140.3 88.2,158 C46.9,153.3 19.1,144.6 19.2,134.6 C19.2,124.4 48.6,115.6 91.7,111.1 C92.2,111 92.5,110.9 93,110.9 C95.3,110.5 96.5,108.3 96.4,106.5 C96.4,104.2 94.7,101.9 91.5,102 C38,108 0.9,121.2 0.8,136.5 C0.7,150.9 33.2,163.4 81.2,170 C58.7,209.4 49.7,240.4 60.6,248.9 C68.5,255.1 85.7,248.2 107.2,231.8 L107.2,231.8 L107.3,231.8 C107.4,231.3 107.5,230.8 107.5,230.3 C107.5,227.4 105.1,225 102.2,225 C101.9,225 101.7,225 101.5,225.1 L101.5,225.1 L101.5,225.1 C88.1,235 78,239.2 73.5,235.6 C66,229.7 75.1,204.7 95,171.7 C113.6,173.7 134.1,174.8 155.7,174.9 L155.7,174.9 L156.6,174.9 L156.6,174.9 L156.6,174.9 L157.3,174.9 L157.3,174.9 L157.5,174.9 L157.5,174.9 L157.7,174.9 L158.4,174.9 L159.3,174.9 L159.3,174.9 C180.8,174.8 201.4,173.7 220,171.7 C239.9,204.7 249,229.8 241.5,235.6 C233.8,241.6 210.4,225.8 181.9,197.1 C181.4,196.6 180.8,196 180.1,195.5 C178.3,194.2 175.8,194.5 174.4,195.9 C172.2,198.1 172.9,201 174.2,202.1 C210.8,238.4 242.7,258.1 254.4,248.9 C265,240.6 256,209.6 233.5,170.1 L233.5,170.1 L233.5,170.1 Z M157.9,161.9 L157.4,161.9 L156.9,161.9 C137.6,161.9 119.2,161.1 102.6,159.6 C112.5,144.2 124.4,127.6 137.7,110.6 C143.7,103 149.7,95.7 155.6,88.8 L155.6,88.8 C156.2,88.1 156.8,87.4 157.3,86.8 C157.9,87.5 158.5,88.2 159,88.8 L159,88.8 C164.9,95.7 170.9,103 176.9,110.6 C190.3,127.6 202.1,144.2 212,159.6 L212,159.6 C195.6,161 177.2,161.8 157.9,161.9 L157.9,161.9 Z"></path>
                    <path d="M223.3,102.2 C220.1,102.1 218.4,104.4 218.4,106.7 C218.3,108.5 219.6,110.7 221.8,111.1 C222.2,111.2 222.6,111.3 223.1,111.3 C266.2,115.8 295.5,124.6 295.6,134.8 C295.6,138.4 292,141.8 285.4,145 C287.5,148.3 288.8,152.3 288.8,156.5 C288.8,156.8 288.8,157.2 288.7,157.5 C304.7,151.5 313.9,144.3 313.9,136.7 C313.9,121.3 276.7,108.2 223.3,102.2 L223.3,102.2 Z"></path>
                </g>
                <g transform="translate(75.000000, 17.000000)" id="Shape" fill="#0088CE">
                    <path d="M38.2,0.5 C29.3,0.5 22,7.7 22,16.7 C22,25.6 29.2,32.9 38.2,32.9 C40.9,32.9 43.4,32.2 45.6,31.1 C45.2,30.2 45,29.3 45,28.3 C45,24.3 48.2,21.1 52.2,21.1 C52.6,21.1 53,21.1 53.4,21.2 C53.5,21.3 53.5,21.3 53.6,21.4 C54,19.9 54.3,18.4 54.3,16.8 C54.4,7.7 47.2,0.5 38.2,0.5 L38.2,0.5 Z"></path>
                    <path d="M80.6,48.2 C79.9,47.4 79.2,46.7 78.4,45.9 L70,55.9 C71.2,57.2 72.4,58.5 73.6,59.8 L73.7,59.9 C77.3,55.7 80.5,52.2 82.4,50.1 C81.3,48.9 80.6,48.2 80.6,48.2 L80.6,48.2 Z"></path>
                    <path d="M82.4,69.8 L82.4,69.8 C83,70.5 83.6,71.2 84.1,71.9 L84.1,71.9 C86,74.1 87.8,76.3 89.7,78.5 L98.3,68.3 C95.8,65.4 93.4,62.6 91.1,60 L82.4,69.8 L82.4,69.8 Z"></path>
                    <path d="M192.4,118.2 C181,118.2 171.6,127.2 171.1,138.5 C174.3,139.2 176.6,142 176.6,145.4 C176.6,147.5 175.7,149.4 174.3,150.7 L174.3,150.7 C178.1,156.8 184.8,160.9 192.4,160.9 C204.2,160.9 213.7,151.3 213.7,139.6 C213.8,127.7 204.2,118.2 192.4,118.2 L192.4,118.2 Z"></path>
                    <path d="M6.3,153.1 C4,157.1 2,160.9 0,164.7 L13.3,166.4 C15.4,162.7 17.6,158.8 20,154.8 L6.3,153.1 L6.3,153.1 Z"></path>
                    <path d="M27.6,142.6 C28.4,141.3 29.3,140 30.2,138.7 L16,137 C15.1,138.4 14.2,139.8 13.3,141.2 L13.3,141.2 L27.6,142.6 L27.6,142.6 Z"></path>
                    <path d="M151.5,141.2 C150.6,139.7 149.6,138.2 148.7,136.8 L134.5,138.6 C135.4,140 136.4,141.4 137.2,142.7 L137.2,142.7 L137.2,142.7 L151.5,141.2 L151.5,141.2 Z"></path>
                    <path d="M144.8,154.8 L144.8,154.8 C147.1,158.7 149.3,162.5 151.4,166.1 L164.7,164.4 C162.8,160.7 160.7,156.9 158.5,153 L144.8,154.8 L144.8,154.8 Z"></path>
                    <path d="M38.2,191.6 C31.3,191.6 25.7,197.2 25.7,204.1 C25.7,205.6 26,207 26.4,208.3 L26.4,208.3 C26.6,208.3 26.9,208.2 27.1,208.2 C30,208.2 32.4,210.6 32.4,213.5 C32.4,214 32.3,214.5 32.2,215 C32.2,215 32.2,215 32.1,215 C33.9,216 35.9,216.5 38.1,216.5 C45,216.5 50.6,210.9 50.6,204 C50.7,197.2 45.1,191.6 38.2,191.6 L38.2,191.6 Z"></path>
                </g>
            </g>
            <g id="Group" transform="translate(20.000000, 319.000000)" fill="#00B9E4" sketch:type="MSShapeGroup">
                <path d="M13.1,22.6 L9.2,14.7 L4.8,14.7 L4.8,22.6 L0.4,22.6 L0.4,0.6 L10.6,0.6 C11.6,0.6 12.6,0.7 13.5,1 C14.4,1.3 15.2,1.7 15.9,2.3 C16.6,2.9 17.1,3.6 17.5,4.5 C17.9,5.4 18.1,6.4 18.1,7.6 C18.1,9.3 17.7,10.6 17,11.7 C16.3,12.8 15.2,13.6 13.8,14.1 L18,22.6 L13.1,22.6 L13.1,22.6 Z M12.8,5.6 C12.2,5.2 11.5,5 10.5,5 L4.7,5 L4.7,10.6 L10.5,10.6 C12.6,10.6 13.7,9.7 13.7,7.8 C13.7,6.8 13.4,6 12.8,5.6 L12.8,5.6 Z" id="Shape"></path>
                <path d="M23.7,22.6 L23.7,0.6 L39,0.6 L39,4.9 L28.1,4.9 L28.1,8.7 L34.4,8.7 L34.4,13 L28.1,13 L28.1,18.3 L39.4,18.3 L39.4,22.6 L23.7,22.6 L23.7,22.6 Z" id="Shape"></path>
                <path d="M61.9,16.6 C61.3,18 60.4,19.1 59.4,20 C58.3,20.9 57.1,21.5 55.8,22 C54.5,22.4 53.1,22.6 51.7,22.6 L45.1,22.6 L45.1,0.6 L52,0.6 C53.6,0.6 55,0.8 56.3,1.2 C57.6,1.6 58.8,2.2 59.8,3.1 C60.8,4 61.5,5.1 62.1,6.5 C62.7,7.9 62.9,9.6 62.9,11.6 C62.9,13.6 62.6,15.2 61.9,16.6 L61.9,16.6 Z M56.8,6.6 C55.8,5.5 54.1,4.9 51.8,4.9 L49.5,4.9 L49.5,18.3 L51.7,18.3 C52.9,18.3 53.9,18.1 54.7,17.8 C55.6,17.5 56.2,17 56.8,16.4 C57.3,15.8 57.8,15.1 58,14.3 C58.3,13.5 58.4,12.6 58.4,11.6 C58.4,9.4 57.9,7.8 56.8,6.6 L56.8,6.6 Z" id="Shape"></path>
                <path d="M91.7,22.6 L91.7,13.4 L82.7,13.4 L82.7,22.6 L78.3,22.6 L78.3,0.6 L82.7,0.6 L82.7,9 L91.7,9 L91.7,0.6 L96.1,0.6 L96.1,22.6 L91.7,22.6 L91.7,22.6 Z" id="Shape"></path>
                <path d="M117.3,22.6 L115.6,17.7 L107.6,17.7 L105.9,22.6 L101.2,22.6 L109.6,0.6 L113.9,0.6 L122.3,22.6 L117.3,22.6 L117.3,22.6 Z M112.7,9.6 C112.5,9 112.3,8.3 112.1,7.7 C111.9,7.1 111.7,6.6 111.6,6.2 C111.5,6.6 111.3,7.1 111.1,7.7 C110.9,8.3 110.7,8.9 110.5,9.6 L109.1,13.6 L114.1,13.6 L112.7,9.6 L112.7,9.6 Z" id="Shape"></path>
                <path d="M133.4,5 L133.4,22.7 L129,22.7 L129,5 L122.7,5 L122.7,0.7 L139.7,0.7 L139.7,5 L133.4,5 L133.4,5 Z" id="Shape"></path>
                <path d="M169.6,22.6 L167.9,17.7 L159.9,17.7 L158.2,22.6 L153.5,22.6 L161.9,0.6 L166.2,0.6 L174.6,22.6 L169.6,22.6 L169.6,22.6 Z M165,9.6 C164.8,9 164.6,8.3 164.4,7.7 C164.2,7.1 164,6.6 163.9,6.2 C163.8,6.6 163.6,7.1 163.4,7.7 C163.2,8.3 163,8.9 162.8,9.6 L161.4,13.6 L166.4,13.6 L165,9.6 L165,9.6 Z" id="Shape"></path>
                <path d="M185.8,5 L185.8,22.7 L181.4,22.7 L181.4,5 L175.1,5 L175.1,0.7 L192.1,0.7 L192.1,5 L185.8,5 L185.8,5 Z" id="Shape"></path>
                <path d="M213.7,16.4 C213.2,17.8 212.6,19 211.7,20 C210.8,21 209.8,21.7 208.6,22.2 C207.4,22.7 206.1,23 204.7,23 C203.3,23 201.9,22.7 200.8,22.2 C199.6,21.7 198.6,20.9 197.8,20 C197,19 196.3,17.8 195.8,16.5 C195.3,15.1 195.1,13.5 195.1,11.7 C195.1,9.9 195.3,8.3 195.8,6.9 C196.3,5.5 196.9,4.3 197.8,3.3 C198.7,2.3 199.7,1.6 200.9,1.1 C202.1,0.6 203.4,0.3 204.9,0.3 C206.3,0.3 207.6,0.6 208.8,1.1 C210,1.6 211,2.4 211.8,3.3 C212.6,4.3 213.3,5.5 213.8,6.8 C214.3,8.2 214.5,9.8 214.5,11.6 C214.4,13.4 214.1,15 213.7,16.4 L213.7,16.4 Z M208.4,6.5 C207.4,5.3 206.2,4.7 204.6,4.7 C203.1,4.7 201.8,5.3 200.9,6.5 C200,7.7 199.5,9.4 199.5,11.6 C199.5,13.8 200,15.6 200.9,16.8 C201.9,18 203.1,18.6 204.7,18.6 C206.2,18.6 207.5,18 208.4,16.8 C209.3,15.6 209.8,13.9 209.8,11.7 C209.9,9.5 209.4,7.7 208.4,6.5 L208.4,6.5 Z" id="Shape"></path>
                <path d="M235.9,22.6 L235.9,14.5 L235.9,13.4 L235.9,12 L235.9,10.6 L235.9,9.7 C235.7,10.1 235.5,10.7 235.2,11.4 C234.9,12.1 234.6,12.8 234.3,13.4 L229.8,23.2 L225.4,13.4 C225.1,12.8 224.8,12.1 224.5,11.4 C224.2,10.7 224,10.2 223.8,9.7 L223.8,10.6 L223.8,12 L223.8,13.4 L223.8,14.5 L223.8,22.6 L219.5,22.6 L219.5,0.6 L223.7,0.6 L228.3,10.6 C228.4,10.9 228.6,11.2 228.7,11.6 C228.8,12 229,12.3 229.1,12.6 C229.2,12.9 229.4,13.2 229.5,13.5 C229.6,13.8 229.7,14 229.8,14.2 C229.9,13.8 230.2,13.2 230.4,12.5 C230.7,11.8 231,11.1 231.3,10.5 L235.7,0.5 L240,0.5 L240,22.5 L235.9,22.5 L235.9,22.6 Z" id="Shape"></path>
                <path d="M247.2,22.6 L247.2,0.6 L251.6,0.6 L251.6,22.6 L247.2,22.6 L247.2,22.6 Z" id="Shape"></path>
                <path d="M271.1,7.1 C270.7,6.3 270.2,5.8 269.5,5.3 C268.9,4.9 268,4.7 267,4.7 C266.2,4.7 265.5,4.9 264.8,5.2 C264.1,5.5 263.6,6 263.2,6.6 C262.8,7.2 262.4,7.9 262.2,8.8 C262,9.7 261.9,10.6 261.9,11.6 C261.9,12.6 262,13.5 262.2,14.3 C262.4,15.1 262.8,15.9 263.2,16.5 C263.6,17.1 264.2,17.6 264.8,18 C265.4,18.4 266.2,18.5 267,18.5 C268,18.5 268.8,18.3 269.5,17.8 C270.1,17.4 270.8,16.6 271.3,15.7 L275,17.9 C274.2,19.5 273.2,20.7 271.9,21.6 C270.6,22.5 268.9,22.9 266.9,22.9 C265.5,22.9 264.1,22.6 263,22.1 C261.8,21.6 260.8,20.8 260,19.8 C259.1,18.8 258.5,17.6 258,16.2 C257.5,14.8 257.3,13.2 257.3,11.5 C257.3,9.8 257.5,8.3 258,6.9 C258.5,5.5 259.2,4.3 260,3.3 C260.9,2.3 261.9,1.5 263.1,1 C264.3,0.4 265.6,0.2 267.1,0.2 C268.1,0.2 269.1,0.3 269.9,0.6 C270.7,0.8 271.5,1.2 272.1,1.6 C272.7,2 273.3,2.5 273.8,3.1 C274.3,3.7 274.7,4.4 275.1,5.1 L271.1,7.1 L271.1,7.1 Z" id="Shape"></path>
            </g>
        </g>
    </g>
</svg>