<svg width="314" height="343" viewBox="0 0 314 343" xmlns="http://www.w3.org/2000/svg"><title>RH_atomic_bug_2cBlue_text_rgb</title><g fill="none" fill-rule="evenodd"><g fill="#00B9E4"><path d="M134.9 195.7c-.7.5-1.3 1.2-1.8 1.6-4.7 4.7-9.2 9-13.5 13 2.6 1.5 4.6 4 5.6 6.9 5.1-4.6 10.4-9.5 15.8-14.9 1.2-1.1 2-4.1-.2-6.2-1.6-1.4-4.2-1.7-5.9-.4zM82.3 83.7c1.3 2 4.2 2.9 6.3 1.4 2.3-1.5 1.8-4.5 1.2-5.5-18.4-31.3-26.7-55.2-19.4-60.9 4.5-3.5 14.3.4 27.4 10 1.3-4.1 4.3-7.5 8.1-9.5C84.9 3.5 68.3-3.1 60.5 3c-10.9 8.5-1.7 39.8 21 79.5.3.4.6.8.8 1.2z"/><path d="M233.5 170.1c5.5-.7 10.7-1.6 15.7-2.5 1.4-1.3 2.3-3.2 2.3-5.3 0-3.4-2.4-6.2-5.5-6.9-6.1 1-12.7 1.9-19.7 2.7-10.8-17.6-24-36.6-39-55.7-4.4-6-13.9-17.1-21.4-25.6l.1-.1c36.6-40.7 68.9-65.5 78.2-58.2 7.2 5.6-1 29.5-19.4 60.9-.6 1-1.1 4 1.2 5.5 2.2 1.5 5.1.7 6.3-1.4.2-.3.5-.8.7-1.1 22.7-39.7 31.9-71 21-79.5-13.3-10.4-52.5 16.2-95 62.1 0 0-.6.7-1.8 2-1.1-1.2-1.8-2-1.8-2-9.2-9.9-18.3-19-26.9-26.9l-.2-.2c-.4-.1-.8-.1-1.2-.1-4 0-7.2 3.2-7.2 7.2 0 1 .2 2 .6 2.8 8.8 8.3 18.2 18 28 28.8l.1.1c-7.5 8.5-17 19.6-21.4 25.6-15 19.1-28.2 38-39 55.7-41.3-4.7-69.1-13.4-69-23.4 0-10.2 29.4-19 72.5-23.5.5-.1.8-.2 1.3-.2 2.3-.4 3.5-2.6 3.4-4.4 0-2.3-1.7-4.6-4.9-4.5C38 108 .9 121.2.8 136.5c-.1 14.4 32.4 26.9 80.4 33.5-22.5 39.4-31.5 70.4-20.6 78.9 7.9 6.2 25.1-.7 46.6-17.1h.1c.1-.5.2-1 .2-1.5 0-2.9-2.4-5.3-5.3-5.3-.3 0-.5 0-.7.1-13.4 9.9-23.5 14.1-28 10.5-7.5-5.9 1.6-30.9 21.5-63.9 18.6 2 39.1 3.1 60.7 3.2h3.6c21.5-.1 42.1-1.2 60.7-3.2 19.9 33 29 58.1 21.5 63.9-7.7 6-31.1-9.8-59.6-38.5-.5-.5-1.1-1.1-1.8-1.6-1.8-1.3-4.3-1-5.7.4-2.2 2.2-1.5 5.1-.2 6.2 36.6 36.3 68.5 56 80.2 46.8 10.6-8.3 1.6-39.3-20.9-78.8zm-75.6-8.2h-1c-19.3 0-37.7-.8-54.3-2.3 9.9-15.4 21.8-32 35.1-49 6-7.6 12-14.9 17.9-21.8.6-.7 1.2-1.4 1.7-2 .6.7 1.2 1.4 1.7 2 5.9 6.9 11.9 14.2 17.9 21.8 13.4 17 25.2 33.6 35.1 49-16.4 1.4-34.8 2.2-54.1 2.3z"/><path d="M223.3 102.2c-3.2-.1-4.9 2.2-4.9 4.5-.1 1.8 1.2 4 3.4 4.4.4.1.8.2 1.3.2 43.1 4.5 72.4 13.3 72.5 23.5 0 3.6-3.6 7-10.2 10.2 2.1 3.3 3.4 7.3 3.4 11.5 0 .3 0 .7-.1 1 16-6 25.2-13.2 25.2-20.8 0-15.4-37.2-28.5-90.6-34.5z"/></g><g fill="#0088CE"><path d="M113.2 17.5c-8.9 0-16.2 7.2-16.2 16.2 0 8.9 7.2 16.2 16.2 16.2 2.7 0 5.2-.7 7.4-1.8-.4-.9-.6-1.8-.6-2.8 0-4 3.2-7.2 7.2-7.2.4 0 .8 0 1.2.1l.2.2c.4-1.5.7-3 .7-4.6.1-9.1-7.1-16.3-16.1-16.3zM155.6 65.2c-.7-.8-1.4-1.5-2.2-2.3l-8.4 10 3.6 3.9.1.1c3.6-4.2 6.8-7.7 8.7-9.8-1.1-1.2-1.8-1.9-1.8-1.9zM157.4 86.8c.6.7 1.2 1.4 1.7 2.1 1.9 2.2 3.7 4.4 5.6 6.6l8.6-10.2c-2.5-2.9-4.9-5.7-7.2-8.3l-8.7 9.8zM267.4 135.2c-11.4 0-20.8 9-21.3 20.3 3.2.7 5.5 3.5 5.5 6.9 0 2.1-.9 4-2.3 5.3 3.8 6.1 10.5 10.2 18.1 10.2 11.8 0 21.3-9.6 21.3-21.3.1-11.9-9.5-21.4-21.3-21.4zM81.3 170.1c-2.3 4-4.3 7.8-6.3 11.6l13.3 1.7c2.1-3.7 4.3-7.6 6.7-11.6l-13.7-1.7zM102.6 159.6c.8-1.3 1.7-2.6 2.6-3.9L91 154l-2.7 4.2 14.3 1.4zM226.5 158.2c-.9-1.5-1.9-3-2.8-4.4l-14.2 1.8c.9 1.4 1.9 2.8 2.7 4.1l14.3-1.5zM219.8 171.8c2.3 3.9 4.5 7.7 6.6 11.3l13.3-1.7c-1.9-3.7-4-7.5-6.2-11.4l-13.7 1.8zM113.2 208.6c-6.9 0-12.5 5.6-12.5 12.5 0 1.5.3 2.9.7 4.2.2 0 .5-.1.7-.1 2.9 0 5.3 2.4 5.3 5.3 0 .5-.1 1-.2 1.5h-.1c1.8 1 3.8 1.5 6 1.5 6.9 0 12.5-5.6 12.5-12.5.1-6.8-5.5-12.4-12.4-12.4z"/></g><g fill="#00B9E4"><path d="M33.1 341.6l-3.9-7.9h-4.4v7.9h-4.4v-22h10.2c1 0 2 .1 2.9.4.9.3 1.7.7 2.4 1.3.7.6 1.2 1.3 1.6 2.2.4.9.6 1.9.6 3.1 0 1.7-.4 3-1.1 4.1-.7 1.1-1.8 1.9-3.2 2.4l4.2 8.5h-4.9zm-.3-17c-.6-.4-1.3-.6-2.3-.6h-5.8v5.6h5.8c2.1 0 3.2-.9 3.2-2.8 0-1-.3-1.8-.9-2.2zM43.7 341.6v-22H59v4.3H48.1v3.8h6.3v4.3h-6.3v5.3h11.3v4.3H43.7zM81.9 335.6c-.6 1.4-1.5 2.5-2.5 3.4-1.1.9-2.3 1.5-3.6 2-1.3.4-2.7.6-4.1.6h-6.6v-22H72c1.6 0 3 .2 4.3.6 1.3.4 2.5 1 3.5 1.9 1 .9 1.7 2 2.3 3.4.6 1.4.8 3.1.8 5.1 0 2-.3 3.6-1 5zm-5.1-10c-1-1.1-2.7-1.7-5-1.7h-2.3v13.4h2.2c1.2 0 2.2-.2 3-.5.9-.3 1.5-.8 2.1-1.4.5-.6 1-1.3 1.2-2.1.3-.8.4-1.7.4-2.7 0-2.2-.5-3.8-1.6-5zM111.7 341.6v-9.2h-9v9.2h-4.4v-22h4.4v8.4h9v-8.4h4.4v22h-4.4zM137.3 341.6l-1.7-4.9h-8l-1.7 4.9h-4.7l8.4-22h4.3l8.4 22h-5zm-4.6-13c-.2-.6-.4-1.3-.6-1.9-.2-.6-.4-1.1-.5-1.5-.1.4-.3.9-.5 1.5s-.4 1.2-.6 1.9l-1.4 4h5l-1.4-4zM153.4 324v17.7H149V324h-6.3v-4.3h17v4.3h-6.3zM189.6 341.6l-1.7-4.9h-8l-1.7 4.9h-4.7l8.4-22h4.3l8.4 22h-5zm-4.6-13c-.2-.6-.4-1.3-.6-1.9-.2-.6-.4-1.1-.5-1.5-.1.4-.3.9-.5 1.5s-.4 1.2-.6 1.9l-1.4 4h5l-1.4-4zM205.8 324v17.7h-4.4V324h-6.3v-4.3h17v4.3h-6.3zM233.7 335.4c-.5 1.4-1.1 2.6-2 3.6-.9 1-1.9 1.7-3.1 2.2-1.2.5-2.5.8-3.9.8s-2.8-.3-3.9-.8c-1.2-.5-2.2-1.3-3-2.2-.8-1-1.5-2.2-2-3.5-.5-1.4-.7-3-.7-4.8 0-1.8.2-3.4.7-4.8.5-1.4 1.1-2.6 2-3.6.9-1 1.9-1.7 3.1-2.2 1.2-.5 2.5-.8 4-.8 1.4 0 2.7.3 3.9.8 1.2.5 2.2 1.3 3 2.2.8 1 1.5 2.2 2 3.5.5 1.4.7 3 .7 4.8-.1 1.8-.4 3.4-.8 4.8zm-5.3-9.9c-1-1.2-2.2-1.8-3.8-1.8-1.5 0-2.8.6-3.7 1.8-.9 1.2-1.4 2.9-1.4 5.1 0 2.2.5 4 1.4 5.2 1 1.2 2.2 1.8 3.8 1.8 1.5 0 2.8-.6 3.7-1.8.9-1.2 1.4-2.9 1.4-5.1.1-2.2-.4-4-1.4-5.2zM255.9 341.6v-12.9c-.2.4-.4 1-.7 1.7-.3.7-.6 1.4-.9 2l-4.5 9.8-4.4-9.8c-.3-.6-.6-1.3-.9-2-.3-.7-.5-1.2-.7-1.7V341.6h-4.3v-22h4.2l4.6 10c.1.3.3.6.4 1 .1.4.3.7.4 1 .1.3.3.6.4.9.1.3.2.5.3.7.1-.4.4-1 .6-1.7.3-.7.6-1.4.9-2l4.4-10h4.3v22h-4.1v.1zM267.2 341.6v-22h4.4v22h-4.4zM291.1 326.1c-.4-.8-.9-1.3-1.6-1.8-.6-.4-1.5-.6-2.5-.6-.8 0-1.5.2-2.2.5-.7.3-1.2.8-1.6 1.4-.4.6-.8 1.3-1 2.2-.2.9-.3 1.8-.3 2.8 0 1 .1 1.9.3 2.7.2.8.6 1.6 1 2.2.4.6 1 1.1 1.6 1.5.6.4 1.4.5 2.2.5 1 0 1.8-.2 2.5-.7.6-.4 1.3-1.2 1.8-2.1l3.7 2.2c-.8 1.6-1.8 2.8-3.1 3.7-1.3.9-3 1.3-5 1.3-1.4 0-2.8-.3-3.9-.8-1.2-.5-2.2-1.3-3-2.3-.9-1-1.5-2.2-2-3.6s-.7-3-.7-4.7c0-1.7.2-3.2.7-4.6.5-1.4 1.2-2.6 2-3.6.9-1 1.9-1.8 3.1-2.3 1.2-.6 2.5-.8 4-.8 1 0 2 .1 2.8.4.8.2 1.6.6 2.2 1 .6.4 1.2.9 1.7 1.5s.9 1.3 1.3 2l-4 2z"/></g></g></svg>